<?xml version="1.0" standalone="no"?>
<!DOCTYPE svg PUBLIC "-//W3C//DTD SVG 1.1//EN" "http://www.w3.org/Graphics/SVG/1.1/DTD/svg11.dtd" >
<svg xmlns="http://www.w3.org/2000/svg" xmlns:xlink="http://www.w3.org/1999/xlink" version="1.1">
<metadata>
Created by FontForge 20170731 at Sun Sep 13 23:32:11 2020
 By Aleksey,,,
Copyright (c) 2020 by TipoType Team. All rights reserved.
</metadata>
<defs>
<font id="Mundial-ThinItalic" horiz-adv-x="1330" >
  <font-face 
    font-family="Mundial Thin"
    font-weight="200"
    font-style="italic"
    font-stretch="normal"
    units-per-em="2048"
    panose-1="0 0 0 0 0 0 0 0 0 0"
    ascent="1638"
    descent="-410"
    x-height="960"
    cap-height="1358"
    bbox="-230 -508 2587.26 2296"
    underline-thickness="150"
    underline-position="-500"
    unicode-range="U+000D-FB04"
  />
<missing-glyph horiz-adv-x="1398" 
d="M699 776l-243 242l-97 -97l242 -240l-244 -245l97 -97l245 242l243 -242l97 97l-244 245l242 240l-97 97zM1207 0h-1018v1358h1018v-1358z" />
    <glyph glyph-name="f_f" unicode="ff" horiz-adv-x="1507" 
d="M1166 854h-181l18 106h181l24 134q28 158 138 246q109 88 266 88q84 0 152 -27l-32 -93q-45 22 -131 22q-100 0 -176 -58q-77 -58 -99 -189l-22 -123h312l-18 -106h-312l-151 -854h-120zM390 854h-181l18 106h181l24 134q28 158 138 246q109 88 266 88q85 0 152 -27
l-32 -93q-45 22 -131 22q-100 0 -176 -58q-77 -58 -99 -189l-22 -123h312l-18 -106h-312l-151 -854h-120z" />
    <glyph glyph-name="fi" unicode="fi" horiz-adv-x="1231" 
d="M390 854h-181l18 106h181l24 134q28 158 138 246q109 88 266 88q85 0 152 -27l-32 -93q-45 22 -131 22q-100 0 -176 -58q-77 -58 -99 -189l-22 -123h312l-18 -106h-312l-151 -854h-120zM1232 960l-169 -960h-120l169 960h120zM1274 1228q-25 -21 -58 -21t-50 21
q-18 21 -12 54t31 54q24 21 57 21t51 -21t12 -54t-31 -54z" />
    <glyph glyph-name="fl" unicode="fl" horiz-adv-x="1231" 
d="M239 0l151 854h-181l18 106h181l24 134q28 158 138 246q109 88 266 88q85 0 152 -27l-32 -93q-45 22 -131 22q-100 0 -176 -58q-77 -58 -99 -189l-22 -123h312l-18 -106h-312l-151 -854h-120zM1063 0h-120l248 1408h120z" />
    <glyph glyph-name="f_f_i" unicode="ffi" horiz-adv-x="2008" 
d="M1015 0l151 854h-181l18 106h181l24 134q28 158 138 246q109 88 266 88q84 0 152 -27l-32 -93q-45 22 -131 22q-100 0 -176 -58q-77 -58 -99 -189l-22 -123h312l-18 -106h-312l-151 -854h-120zM390 854h-181l18 106h181l24 134q28 158 138 246q109 88 266 88
q85 0 152 -27l-32 -93q-45 22 -131 22q-100 0 -176 -58q-77 -58 -99 -189l-22 -123h312l-18 -106h-312l-151 -854h-120zM1840 0h-120l169 960h120zM2051 1228q-25 -21 -58 -21t-50 21q-18 21 -12 54t31 54q24 21 57 21t51 -21t12 -54t-31 -54z" />
    <glyph glyph-name="f_f_l" unicode="ffl" horiz-adv-x="2008" 
d="M239 0l151 854h-181l18 106h181l24 134q28 158 138 246q109 88 266 88q85 0 152 -27l-32 -93q-45 22 -131 22q-100 0 -176 -58q-77 -58 -99 -189l-22 -123h312l-18 -106h-312l-151 -854h-120zM1166 854h-181l18 106h181l24 134q28 158 138 246q109 88 266 88
q84 0 152 -27l-32 -93q-45 22 -131 22q-100 0 -176 -58q-77 -58 -99 -189l-22 -123h312l-18 -106h-312l-151 -854h-120zM2088 1408l-248 -1408h-120l248 1408h120z" />
    <glyph glyph-name=".notdef" horiz-adv-x="1398" 
d="M699 776l-243 242l-97 -97l242 -240l-244 -245l97 -97l245 242l243 -242l97 97l-244 245l242 240l-97 97zM1207 0h-1018v1358h1018v-1358z" />
    <glyph glyph-name="uni0000" horiz-adv-x="0" 
 />
    <glyph glyph-name="uni0000" horiz-adv-x="0" 
 />
    <glyph glyph-name="uni000D" unicode="&#xd;" horiz-adv-x="464" 
 />
    <glyph glyph-name="space" unicode=" " horiz-adv-x="470" 
 />
    <glyph glyph-name="exclam" unicode="!" horiz-adv-x="506" 
d="M368 368h-102l165 990h121zM308 14q-25 -21 -58 -21t-50 21q-18 21 -12 54t31 54q24 21 57 21t51 -21t12 -54t-31 -54z" />
    <glyph glyph-name="quotedbl" unicode="&#x22;" horiz-adv-x="605" 
d="M623 995h-83l54 433h129zM513 1428l-100 -433h-83l54 433h129z" />
    <glyph glyph-name="numbersign" unicode="#" horiz-adv-x="1396" 
d="M421 376h-256l35 96h256l158 444h-257l34 95h256l124 347h114l-123 -347h338l123 347h115l-123 -347h260l-34 -95h-259l-158 -444h259l-36 -96h-257l-133 -377h-116l133 377h-337l-133 -377h-116zM729 916l-158 -444h337l159 444h-338z" />
    <glyph glyph-name="dollar" unicode="$" horiz-adv-x="1215" 
d="M154 259l101 68q47 -102 134.5 -162.5t202.5 -71.5l97 548q-212 78 -295 161q-86 84 -62 220q15 82 63 150t119 112q143 89 305 94l28 158h110l-29 -165q120 -17 204 -78.5t124 -151.5l-105 -68q-67 151 -243 186l-94 -532q214 -80 286 -166q74 -89 50 -226
q-27 -152 -159 -245q-134 -95 -308 -108l-28 -158h-110l28 158q-148 12 -261 86q-114 74 -158 191zM454 1024q-15 -85 45 -144t212 -116l89 503q-174 -7 -279 -114q-55 -55 -67 -129zM792 603l-90 -510q124 13 217 78q94 65 110 162q17 96 -38 154q-57 60 -199 116z" />
    <glyph glyph-name="percent" unicode="%" horiz-adv-x="1815" 
d="M824 793q-118 -98 -266 -98q-150 0 -232 99q-83 98 -57 242q25 144 143 244q118 98 266 98q149 0 232 -98q82 -98 56 -244q-25 -145 -142 -243zM1641 79q-117 -99 -266 -99t-231 99q-83 98 -57 242q25 144 143 244q118 98 266 98q149 0 232 -98q82 -98 56 -244
q-26 -144 -143 -242zM377 1036q-18 -101 38 -171q55 -70 160 -70t185 70q81 69 99 171t-38 173q-57 69 -161 69t-184 -69q-81 -71 -99 -173zM1195 321q-18 -101 38 -171q55 -70 160 -70t185 70q81 69 99 171t-38 173q-57 69 -161 69t-184 -69q-81 -71 -99 -173zM1561 1334
l-967 -1334h-105l5 26l968 1332h103z" />
    <glyph glyph-name="ampersand" unicode="&#x26;" horiz-adv-x="1323" 
d="M580 -21q-215 0 -336 101q-121 100 -93 259q22 129 142 224q96 76 256 148q-86 101 -119 179.5t-19 156.5q27 154 152 243q124 88 285 88q162 0 253 -87t66 -223q-21 -118 -138 -214q-120 -97 -300 -167l340 -388q72 78 105 174t39 228h110q-23 -301 -189 -476l198 -225
h-157l-127 144q-92 -71 -206 -119q-110 -46 -262 -46zM272 341q-20 -114 74 -182q94 -70 257 -70q220 0 380 130l-372 422q-76 -35 -124 -60q-47 -24 -97 -61q-99 -70 -118 -179zM529 1052q-14 -85 30 -156q30 -48 44 -64q25 -31 63 -74q355 144 383 306q17 94 -45 150
t-173 56q-107 0 -195 -57q-87 -56 -107 -161z" />
    <glyph glyph-name="quotesingle" unicode="'" horiz-adv-x="395" 
d="M513 1428l-100 -433h-83l54 433h129z" />
    <glyph glyph-name="parenleft" unicode="(" horiz-adv-x="572" 
d="M462 -400h-130q-59 107 -96.5 262t-45 340.5t25.5 377.5q50 281 167 513q117 233 294 467h127q-8 -10 -40 -51q-20 -27 -92 -139q-75 -118 -124 -215q-59 -113 -116 -267q-60 -162 -85 -308q-21 -122 -23 -249.5t9 -224.5t32.5 -195t39 -153.5t36.5 -107.5z" />
    <glyph glyph-name="parenright" unicode=")" horiz-adv-x="572" 
d="M90 -400h-130q5 6 18.5 23t22.5 28q27 35 93 139q71 112 126 215q59 113 116 267q60 162 85 308q21 121 23.5 248t-8 225.5t-31.5 195.5t-38.5 154t-36.5 107l-20 50h127q89 -221 125 -439q42 -255 -10 -541q-48 -274 -179 -544q-130 -268 -283 -436z" />
    <glyph glyph-name="asterisk" unicode="*" horiz-adv-x="952" 
d="M668 1405h110l-67 -299l292 104l16 -104l-289 -76l-2 -4l146 -233l-101 -65l-124 259l-216 -259l-77 65l228 233v4l-263 76l52 104l256 -104z" />
    <glyph glyph-name="plus" unicode="+" horiz-adv-x="1216" 
d="M574 151l83 471h-473l21 119h473l81 464h117l-81 -464h475l-21 -119h-475l-83 -471h-117z" />
    <glyph glyph-name="comma" unicode="," horiz-adv-x="427" 
d="M12 -255l183 434h125l-202 -434h-106z" />
    <glyph glyph-name="hyphen" unicode="-" horiz-adv-x="964" 
d="M265 637h656l-21 -119h-656z" />
    <glyph glyph-name="period" unicode="." horiz-adv-x="399" 
d="M255 14q-25 -21 -58 -21t-50 21q-18 21 -12 54t31 54q24 21 57 21t51 -21t12 -54t-31 -54z" />
    <glyph glyph-name="slash" unicode="/" horiz-adv-x="1044" 
d="M1122 1529h125l-1127 -1929h-124z" />
    <glyph glyph-name="zero" unicode="0" horiz-adv-x="1306" 
d="M1064 168q-179 -188 -416 -188t-348 188q-112 187 -55 511t235 511q179 188 415 188q237 0 349 -187t55 -512q-57 -324 -235 -511zM365 679q-47 -269 39 -426q86 -158 265 -158t322 158q142 158 188 426q47 270 -38 428q-86 158 -266 158q-178 0 -321 -158
q-142 -159 -189 -428z" />
    <glyph glyph-name="one" unicode="1" horiz-adv-x="688" 
d="M482 0h-120l220 1247h-299l19 111h419z" />
    <glyph glyph-name="two" unicode="2" horiz-adv-x="1111" 
d="M1010 112l-20 -112h-872l11 61q15 86 83 182q24 33 70.5 78t85.5 77q40 33 92 69q67 46 89 60q11 7 40.5 26t47.5 30q34 22 58 37q4 2 55 35q32 21 55 39q71 53 97 81q55 57 74 92q30 56 40 106q22 129 -52 212q-75 82 -217 82q-105 0 -197.5 -55.5t-155.5 -154.5l-96 52
q70 119 199 195q128 74 268 74q194 0 299 -112q104 -114 73 -289q-22 -118 -100 -214q-35 -42 -95 -93q-64 -52 -117 -89q-59 -41 -147 -96q-373 -234 -412 -373h744z" />
    <glyph glyph-name="three" unicode="3" horiz-adv-x="1124" 
d="M148 237l113 62q66 -208 309 -208q126 -3 238 73.5t131 192.5q23 126 -65 201t-240 73h-151l20 112h151q135 0 237 69q102 68 125 199q20 114 -53 185q-74 71 -209 71q-223 0 -355 -201l-97 56q70 109 194 183q122 73 281 73q186 0 288 -102q101 -103 73 -262
q-19 -109 -97 -196q-77 -87 -192 -126q113 -32 173 -123q59 -94 38 -213q-21 -117 -101 -205q-79 -88 -185 -129q-106 -42 -220 -42q-157 0 -263.5 67t-142.5 190z" />
    <glyph glyph-name="four" unicode="4" horiz-adv-x="1194" 
d="M840 363h-703l18 103l841 892h138l-156 -886h204l-19 -109h-204l-64 -364h-119zM989 1206l-687 -734h557z" />
    <glyph glyph-name="five" unicode="5" horiz-adv-x="1122" 
d="M132 237l113 62q30 -98 110.5 -153t197.5 -55q154 0 269 91q116 91 140 229q26 145 -54 234q-81 88 -241 88q-163 0 -287 -94l-103 45l182 674h722l-19 -112h-619l-135 -491q116 86 296 86q203 0 308 -119t71 -311q-33 -187 -188 -309t-362 -122q-154 0 -259.5 67
t-141.5 190z" />
    <glyph glyph-name="six" unicode="6" horiz-adv-x="1208" 
d="M629 -20q-241 0 -346 158t-54 450q87 490 354 677q160 113 369 113q190 0 302 -85l-61 -102q-115 77 -267 77q-206 0 -352 -145q-158 -156 -225 -495q67 104 184 171q116 65 252 65q204 0 317 -122q112 -123 78 -316q-34 -196 -191 -321t-360 -125zM348 419
q-26 -146 59 -237t237 -91q153 0 269 91q118 92 143 237q26 147 -58 241q-86 93 -237 93q-152 0 -269 -93q-119 -95 -144 -241z" />
    <glyph glyph-name="seven" unicode="7" horiz-adv-x="998" 
d="M323 0h-135q335 645 833 1245h-720l19 113h849l-20 -118q-508 -617 -826 -1240z" />
    <glyph glyph-name="eight" unicode="8" horiz-adv-x="1192" 
d="M951 86q-151 -106 -360 -106t-322 106q-114 106 -85 273q43 244 316 348q-91 44 -134 120.5t-25 181.5q19 113 95 199q74 84 179 127q104 42 223 42q184 0 291 -98q106 -99 76 -270q-18 -105 -88 -181.5t-177 -120.5q236 -105 192 -348q-28 -166 -181 -273zM306 366
q-22 -124 61 -200q83 -75 244 -75t270 75t132 200q25 141 -62 218q-86 76 -240 76q-211 0 -327 -130q-61 -67 -78 -164zM460 1004q-19 -112 57 -179t212 -67t236 67q100 68 119 179q22 124 -54 193t-212 69t-236 -69q-99 -68 -122 -193z" />
    <glyph glyph-name="nine" unicode="9" horiz-adv-x="1211" 
d="M198 63l70 100q104 -73 252 -73q230 0 370 152t210 488q-67 -107 -186 -172q-118 -64 -251 -64q-203 0 -316 123q-113 122 -79 315q35 197 191 322q155 124 360 124q232 0 343.5 -149t62.5 -429q-78 -439 -266 -633q-181 -187 -456 -187q-189 0 -305 83zM393 939
q-26 -148 59 -240q84 -94 236 -94t270 94q118 93 143 240q25 145 -60 237q-85 91 -237 91q-154 0 -269 -91q-116 -91 -142 -237z" />
    <glyph glyph-name="colon" unicode=":" horiz-adv-x="457" 
d="M429 834q-29 -20 -59 -21t-50 21t-11 54q5 33 30 54t58 21t50.5 -21t12.5 -54q-6 -33 -31 -54zM284 14q-25 -21 -58 -21t-50 21q-18 21 -12 54t31 54q24 21 57 21t51 -21t12 -54t-31 -54z" />
    <glyph glyph-name="semicolon" unicode=";" horiz-adv-x="482" 
d="M137 -255h-106l183 434h125zM457 834q-29 -20 -59 -21t-50 21t-11 54q5 33 30 54t58 21t50.5 -21t12.5 -54q-6 -33 -31 -54z" />
    <glyph glyph-name="less" unicode="&#x3c;" horiz-adv-x="1218" 
d="M340 678l759 -351l-23 -129l-849 398l28 160l992 412l-23 -128z" />
    <glyph glyph-name="equal" unicode="=" horiz-adv-x="1326" 
d="M333 997h1010l-22 -123h-1010zM242 484h1010l-21 -123h-1010z" />
    <glyph glyph-name="greater" unicode="&#x3e;" horiz-adv-x="1218" 
d="M1199 596l-989 -398l23 129l883 351l-758 362l23 128l846 -412z" />
    <glyph glyph-name="question" unicode="?" horiz-adv-x="1018" 
d="M369 1058l-96 50q76 123 202 196q127 74 269 74q182 0 278 -98q96 -99 68 -256q-15 -82 -72 -162q-56 -80 -182 -189q-5 -5 -21.5 -18.5t-26.5 -22.5l-44 -38q-4 -3 -16 -14t-21 -19q-24 -21 -35 -34q-4 -5 -14 -16.5t-13 -15.5q-17 -20 -43 -70q-20 -39 -27 -87h-109
q0 5 1 14.5t2 17.5l1 7q17 88 85 167q67 80 210 201q110 94 149 149q42 57 54 126q20 107 -48 176q-68 68 -193 68q-221 0 -358 -206zM410 14q-18 21 -12 54t31 54q24 21 57 21t51 -21t12 -54t-31 -54t-58 -21t-50 21z" />
    <glyph glyph-name="at" unicode="@" horiz-adv-x="1975" 
d="M928 -342q-176 0 -326.5 64t-251.5 178q-100 113 -142 279q-42 164 -9 353q35 194 135 360q100 164 244 278q143 112 320.5 175.5t357.5 63.5q170 0 315 -63q146 -65 241 -173q96 -110 138 -263q41 -156 11 -327q-43 -240 -158.5 -369t-286.5 -129q-82 0 -136.5 53
t-79.5 148q-52 -76 -149 -126t-204 -50q-173 0 -266 115q-93 114 -60 301q31 186 168 303q136 116 306 116q214 0 287 -166l38 149h114l-95 -539q-35 -200 128 -200q97 0 170 111q71 110 103 283q26 146 -6 277.5t-113 228.5q-82 97 -210.5 151.5t-283.5 54.5
q-349 0 -599 -211q-252 -211 -313 -554q-37 -214 33.5 -387t228.5 -270.5t371 -97.5q210 0 438 104l30 -95q-260 -126 -488 -126zM747 532q-23 -128 44 -217q65 -90 194 -90t229 90q99 89 122 217q22 126 -47 212q-71 86 -198 86q-131 0 -226 -85t-118 -213z" />
    <glyph glyph-name="A" unicode="A" horiz-adv-x="1359" 
d="M365 347l-206 -347h-122l802 1358h157l324 -1358h-122l-84 347h-749zM898 1250l-470 -796h661z" />
    <glyph glyph-name="B" unicode="B" horiz-adv-x="1348" 
d="M774 0h-571l239 1358h550q119 0 203 -37.5t125 -120t20 -202.5q-15 -89 -82 -168q-68 -81 -165 -111q117 -30 171.5 -119t30.5 -224q-28 -165 -163 -271q-133 -105 -358 -105zM916 647h-479l-95 -539h479q136 0 234 68q97 67 120 199q21 122 -42 197q-65 75 -217 75z
M543 1250l-88 -499h420q128 0 225 67q98 66 117 178q20 113 -39 184q-60 70 -201 70h-434z" />
    <glyph glyph-name="C" unicode="C" horiz-adv-x="1479" 
d="M806 -20q-196 0 -338 91q-145 92 -206 251q-63 159 -28 356q34 196 153 357q117 161 292 252q173 91 368 91q180 0 318 -81.5t213 -229.5l-105 -68q-69 129 -185 198.5t-261 69.5q-158 2 -303.5 -75.5t-244 -214t-124.5 -299.5q-24 -122 1 -232t88 -189t162.5 -124.5
t219.5 -42.5q151 0 290.5 68.5t255.5 199.5l77 -68q-122 -144 -292 -227q-172 -83 -351 -83z" />
    <glyph glyph-name="D" unicode="D" horiz-adv-x="1532" 
d="M704 0h-501l239 1358h501q201 0 349 -88q148 -89 212 -243q65 -158 31 -349q-35 -193 -153 -347q-120 -156 -298 -243q-177 -88 -380 -88zM924 1250h-381l-201 -1142h381q166 -2 316.5 73.5t250 207.5t124.5 289q31 157 -22 289t-177 208.5t-291 74.5z" />
    <glyph glyph-name="E" unicode="E" horiz-adv-x="1227" 
d="M1130 108l-19 -108h-908l239 1358h886l-19 -108h-766l-86 -492h661l-20 -109h-661l-95 -541h788z" />
    <glyph glyph-name="F" unicode="F" horiz-adv-x="1214" 
d="M1112 752l-19 -107h-656l-114 -645h-120l239 1358h926l-19 -108h-806l-87 -498h656z" />
    <glyph glyph-name="G" unicode="G" horiz-adv-x="1573" 
d="M807 -20q-197 0 -339 91q-145 92 -206 251q-63 159 -28 356q34 196 153 357q117 161 292 252q173 91 368 91q180 0 318 -81.5t213 -229.5l-105 -68q-69 129 -185 198.5t-261 69.5q-158 2 -303.5 -75.5t-244 -214t-124.5 -299.5q-32 -163 20 -299.5t172 -214t281 -74.5
q120 0 228 40.5t185 110.5q153 140 201 324h-512l19 108h636q-18 -144 -85.5 -272.5t-171.5 -222.5q-103 -93 -239 -145.5t-282 -52.5z" />
    <glyph glyph-name="H" unicode="H" horiz-adv-x="1519" 
d="M311 0h-120l239 1358h120l-106 -603h896l106 603h120l-239 -1358h-120l114 645h-896z" />
    <glyph glyph-name="I" unicode="I" horiz-adv-x="528" 
d="M323 0h-120l239 1358h120z" />
    <glyph glyph-name="J" unicode="J" horiz-adv-x="1026" 
d="M394 -20q-108 0 -197 46q-91 45 -138 122l92 81q46 -66 115 -102.5t148 -36.5q150 0 250 100q101 99 132 277l157 891h120l-160 -909q-37 -219 -176 -344q-140 -125 -343 -125z" />
    <glyph glyph-name="K" unicode="K" horiz-adv-x="1281" 
d="M394 404l-71 -404h-120l239 1358h120l-140 -797l879 797h154l-601 -542l401 -816h-151l-351 724z" />
    <glyph glyph-name="L" unicode="L" horiz-adv-x="1207" 
d="M1164 110l-19 -110h-942l239 1358h120l-220 -1248h822z" />
    <glyph glyph-name="M" unicode="M" horiz-adv-x="1805" 
d="M524 1139l-201 -1139h-120l239 1358h141l369 -1075l746 1075h141l-239 -1358h-120l201 1139l-707 -1007h-99z" />
    <glyph glyph-name="N" unicode="N" horiz-adv-x="1623" 
d="M323 0h-120l239 1358h135l751 -1190l209 1190h120l-239 -1358h-134l-751 1193z" />
    <glyph glyph-name="O" unicode="O" horiz-adv-x="1620" 
d="M801 -20q-195 0 -337 88q-142 87 -204 246q-62 158 -27 358q36 201 155 364q119 161 292 252q173 90 368 90q198 0 342 -90q144 -92 205 -252q62 -163 26 -364q-35 -201 -153 -358q-118 -159 -293 -246q-175 -88 -374 -88zM353 672q-24 -124 0.5 -233.5t87.5 -186.5
t162 -120.5t218 -41.5q252 0 443 163q191 164 236 419q46 259 -87 428q-133 168 -384 168q-159 2 -304.5 -75.5t-244.5 -215.5t-127 -305z" />
    <glyph glyph-name="P" unicode="P" horiz-adv-x="1270" 
d="M425 578l-102 -578h-120l239 1358h554q195 0 294 -107q98 -108 66 -285q-32 -176 -166 -282q-136 -106 -331 -106h-434zM543 1250l-99 -564h428q149 0 244 75t117 205q24 133 -44 208.5t-218 75.5h-428z" />
    <glyph glyph-name="Q" unicode="Q" horiz-adv-x="1621" 
d="M1305 -161l-133 228q-176 -87 -371 -87t-337 88q-142 87 -204 246q-62 158 -27 358q36 201 155 364q119 161 292 252q173 90 368 90q198 0 342 -90q144 -92 205 -252q62 -163 26 -364q-29 -168 -118.5 -308.5t-225.5 -234.5l131 -225zM353 672q-24 -124 0.5 -233.5
t87.5 -186.5t162 -120.5t218 -41.5q156 0 297 68l-151 259l103 65l153 -261q109 80 181 196t96 255q46 259 -87 428q-133 168 -384 168q-159 2 -304.5 -75.5t-244.5 -215.5t-127 -305z" />
    <glyph glyph-name="R" unicode="R" horiz-adv-x="1324" 
d="M427 589l-104 -589h-120l239 1358h573q196 0 295 -104q98 -104 67 -281q-26 -146 -128 -245q-102 -100 -254 -129l243 -599h-141l-231 589h-439zM543 1248l-97 -549h447q149 0 244 73.5t117 200.5q22 130 -46.5 202.5t-217.5 72.5h-447z" />
    <glyph glyph-name="S" unicode="S" horiz-adv-x="1220" 
d="M165 259l101 68q53 -114 155.5 -175.5t236.5 -61.5q88 -2 170.5 27.5t141 86.5t70.5 129q10 56 -3.5 98t-58.5 77.5t-104 63.5t-160 64q-218 78 -306 163q-89 86 -65 223q15 83 65.5 153t123.5 114q148 89 314 89q163 0 269 -67q107 -68 152 -170l-105 -68
q-42 95 -128.5 144.5t-207.5 49.5q-128 0 -235 -65q-107 -66 -126 -178q-17 -93 56 -154q72 -62 249 -123q247 -85 331 -175q85 -92 60 -237q-15 -82 -64.5 -151t-122.5 -113q-151 -91 -336 -91q-167 0 -296 75t-177 204z" />
    <glyph glyph-name="T" unicode="T" horiz-adv-x="1154" 
d="M736 1248h-461l19 110h1042l-19 -110h-461l-220 -1248h-120z" />
    <glyph glyph-name="U" unicode="U" horiz-adv-x="1524" 
d="M757 -20q-262 0 -392 142q-130 141 -90 373l152 863h119l-152 -863q-31 -181 72 -292q104 -111 311 -111q209 0 351 111q142 109 174 292l152 863h119l-152 -863q-40 -232 -220 -374q-180 -141 -444 -141z" />
    <glyph glyph-name="V" unicode="V" horiz-adv-x="1352" 
d="M753 0h-156l-315 1358h131l284 -1234l718 1234h131z" />
    <glyph glyph-name="W" unicode="W" horiz-adv-x="2060" 
d="M627 0h-145l-186 1358h127l162 -1208l619 1208h128l193 -1208l588 1208h127l-664 -1358h-145l-189 1206z" />
    <glyph glyph-name="X" unicode="X" horiz-adv-x="1263" 
d="M736 603l-560 -604h-144l646 697l-382 662h143l331 -568l530 568h143l-614 -662l400 -697h-146z" />
    <glyph glyph-name="Y" unicode="Y" horiz-adv-x="1254" 
d="M566 0l95 539l-380 819h145l317 -694l561 694h145l-668 -818l-95 -540h-120z" />
    <glyph glyph-name="Z" unicode="Z" horiz-adv-x="1262" 
d="M107 0l18 100l1090 1148h-868l19 110h1005l-23 -133l-1066 -1115h893l-19 -110h-1049z" />
    <glyph glyph-name="bracketleft" unicode="[" horiz-adv-x="637" 
d="M264 -287h253l-20 -113h-368l345 1953h368l-20 -113h-253z" />
    <glyph glyph-name="backslash" unicode="\" horiz-adv-x="1044" 
d="M780 -400l-445 1929h125l444 -1929h-124z" />
    <glyph glyph-name="bracketright" unicode="]" horiz-adv-x="637" 
d="M358 -400h-368l20 113h253l305 1727h-253l20 113h368z" />
    <glyph glyph-name="asciicircum" unicode="^" horiz-adv-x="1074" 
d="M263 510h-129l567 848h149l268 -848h-129l-235 728z" />
    <glyph glyph-name="underscore" unicode="_" horiz-adv-x="1195" 
d="M1062 -89l-18 -105h-963l18 105h963z" />
    <glyph glyph-name="grave" unicode="`" horiz-adv-x="560" 
d="M572 1473l-114 334h138l83 -334h-107z" />
    <glyph glyph-name="a" unicode="a" horiz-adv-x="1095" 
d="M464 -20q-159 0 -247 79q-89 78 -67 208t155 216q131 86 313 86q84 0 163 -21q80 -21 127 -55l16 90q24 134 -45 211q-70 76 -209 76q-86 0 -176.5 -41.5t-161.5 -112.5l-62 76q86 87 198 138q114 50 221 50q192 0 290 -104q97 -103 67 -276l-106 -600h-116l31 174
q-58 -88 -163 -141q-106 -53 -228 -53zM271 273q-16 -92 44.5 -143t185.5 -51q140 0 254 96q113 95 135 219q-37 36 -117 58q-79 22 -169 22q-134 0 -225 -55q-92 -56 -108 -146z" />
    <glyph glyph-name="b" unicode="b" horiz-adv-x="1270" 
d="M319 182l-32 -182h-120l248 1408h120l-111 -633q71 90 188 148q116 57 246 57q134 2 235 -65t145 -183.5t17 -252.5q-37 -211 -202 -355t-372 -144q-128 0 -223.5 55t-138.5 147zM365 479q-29 -166 65 -277q94 -112 263 -112q161 0 288 112q128 113 156 277
q29 167 -58 279q-88 112 -249 112q-169 0 -302 -112q-135 -113 -163 -279z" />
    <glyph glyph-name="c" unicode="c" horiz-adv-x="1139" 
d="M614 -20q-140 -2 -247 65.5t-154 183.5t-20 251q38 212 212 356t395 144q134 0 235 -63q99 -64 143 -177l-103 -60q-39 87 -118 138t-177 51q-171 0 -304 -112q-134 -113 -162 -277q-29 -166 62 -278q92 -113 258 -113q103 0 200 52q99 52 167 136l83 -59
q-82 -109 -208 -173q-128 -65 -262 -65z" />
    <glyph glyph-name="d" unicode="d" horiz-adv-x="1295" 
d="M592 -20q-207 0 -321 144t-77 355t203 357q165 144 372 144q131 0 226 -57q96 -58 136 -148l111 633h120l-248 -1408h-120l32 182q-75 -92 -188 -146q-117 -56 -246 -56zM312 479q-29 -166 59 -277q88 -112 249 -112q169 0 302 112q134 113 162 277q29 167 -64 279
q-94 112 -263 112q-161 0 -288 -112q-129 -114 -157 -279z" />
    <glyph glyph-name="e" unicode="e" horiz-adv-x="1155" 
d="M598 -20q-218 0 -336 145q-118 143 -80 355q22 138 108 254t212 182t262 64q139 0 236.5 -60t134.5 -162q36 -100 15 -225q-8 -43 -21 -83h-830q-17 -159 76 -259q92 -101 245 -101q101 0 197 44t169 123l78 -65q-87 -103 -211 -157q-123 -55 -255 -55zM744 870
q-147 0 -265 -88q-119 -89 -155 -230h711q18 140 -65 229q-84 89 -226 89z" />
    <glyph glyph-name="f" unicode="f" horiz-adv-x="731" 
d="M390 854h-181l18 106h181l24 134q28 158 138 246q109 88 266 88q85 0 152 -27l-32 -93q-45 22 -131 22q-100 0 -176 -58q-77 -58 -99 -189l-22 -123h312l-18 -106h-312l-151 -854h-120z" />
    <glyph glyph-name="g" unicode="g" horiz-adv-x="1270" 
d="M500 -420q-128 0 -230.5 44.5t-166.5 128.5l92 79q116 -143 324 -143q188 0 317 96q130 98 158 260l25 140q-73 -91 -188 -148t-247 -57q-133 -3 -234.5 64t-145.5 184t-17 253q37 211 202 355t372 144q128 0 223.5 -55t138.5 -147l32 182h120l-156 -887
q-41 -226 -207 -359q-167 -134 -412 -134zM305 481q-29 -167 59 -278q87 -113 248 -113q169 0 303 113t162 278q29 166 -65 277q-94 112 -263 112q-161 0 -288 -112q-128 -113 -156 -277z" />
    <glyph glyph-name="h" unicode="h" horiz-adv-x="1222" 
d="M299 0h-120l248 1408h120l-108 -615q70 91 170.5 139t210.5 48q186 0 279 -102q92 -103 58 -292l-103 -586h-118l97 550q28 159 -36.5 239.5t-215.5 80.5q-138 0 -250 -92q-110 -91 -136 -234z" />
    <glyph glyph-name="i" unicode="i" horiz-adv-x="455" 
d="M456 960l-169 -960h-120l169 960h120zM498 1228q-25 -21 -58 -21t-50 21q-18 21 -12 54t31 54q24 21 57 21t51 -21t12 -54t-31 -54z" />
    <glyph glyph-name="j" unicode="j" horiz-adv-x="488" 
d="M-38 -420q-90 0 -139 25l34 103q48 -20 117 -20q158 0 193 200l189 1072h120l-191 -1083q-24 -140 -109.5 -218.5t-213.5 -78.5zM518 1228q-25 -21 -58 -21t-50 21q-18 21 -12 54t31 54q24 21 57 21t51 -21t12 -54t-31 -54z" />
    <glyph glyph-name="k" unicode="k" horiz-adv-x="1028" 
d="M993 -1h-149l-260 486l-236 -202l-50 -283h-119l248 1408h119l-171 -972l617 524h157l-467 -399z" />
    <glyph glyph-name="l" unicode="l" horiz-adv-x="455" 
d="M287 0h-120l248 1408h120z" />
    <glyph glyph-name="m" unicode="m" horiz-adv-x="1905" 
d="M287 0h-120l169 960h120l-29 -165q68 90 166 137.5t205 47.5q131 0 214.5 -58.5t106.5 -166.5q70 110 174.5 167.5t224.5 57.5q184 0 275 -105q92 -107 61 -284l-104 -591h-120l98 555q26 147 -40 230.5t-210 83.5q-131 0 -236 -90t-129 -230l-97 -549h-119l98 555
q25 146 -38 230t-199 84t-243 -90t-131 -230z" />
    <glyph glyph-name="n" unicode="n" horiz-adv-x="1199" 
d="M287 0h-120l169 960h120l-29 -167q70 91 170.5 139t210.5 48q187 0 280 -102t59 -292l-103 -586h-120l97 550q55 318 -252 318q-140 0 -250 -91t-136 -233z" />
    <glyph glyph-name="o" unicode="o" horiz-adv-x="1213" 
d="M602 -20q-141 -2 -248 65t-153.5 183t-19.5 252q38 213 209 356q171 144 389 144q141 2 248 -65t153.5 -183t20.5 -252q-38 -212 -209 -356q-172 -144 -390 -144zM461 758q-132 -113 -160 -278t63 -277q92 -113 258 -113t299 113q132 114 160 277q29 165 -63 278
q-91 112 -259 112t-298 -112z" />
    <glyph glyph-name="p" unicode="p" horiz-adv-x="1295" 
d="M332 185l-104 -585h-120l240 1360h120l-32 -182q75 92 188 146q117 56 246 56q207 0 321 -144t77 -355q-38 -212 -203 -356q-164 -145 -372 -145q-131 0 -226 57t-135 148zM378 481q-29 -167 65 -278q93 -113 262 -113q161 0 289 113t156 278q29 166 -59 277
q-88 112 -249 112q-169 0 -302 -112q-134 -113 -162 -277z" />
    <glyph glyph-name="q" unicode="q" horiz-adv-x="1291" 
d="M592 -20q-133 -3 -234.5 64t-145.5 184t-17 253q37 211 202 355t372 144q128 0 223.5 -55t138.5 -147l32 182h120l-240 -1360h-120l104 585q-73 -91 -188 -148t-247 -57zM313 481q-29 -167 59 -278q87 -113 248 -113q169 0 303 113t162 278q29 166 -65 277
q-94 112 -263 112q-161 0 -288 -112q-128 -113 -156 -277z" />
    <glyph glyph-name="r" unicode="r" horiz-adv-x="748" 
d="M384 543l-96 -543h-121l169 960h120l-27 -153q54 85 132 129t167 44q85 0 136 -25l-31 -112q-66 26 -131 26q-118 0 -204 -85q-87 -86 -114 -241z" />
    <glyph glyph-name="s" unicode="s" horiz-adv-x="962" 
d="M124 178l104 72q36 -75 107.5 -118t170.5 -43q108 0 185 44q75 43 89 117q13 73 -40 111q-55 38 -184 68q-126 30 -196 70q-41 21 -67 52q-53 63 -36 162q12 77 72 140t146.5 96t179.5 31q109 0 194 -45q84 -44 122 -111l-93 -73q-34 56 -97 89t-145 33q-103 0 -173 -43
q-71 -44 -84 -113q-14 -77 40 -112q53 -36 193 -72q152 -40 226 -97q85 -67 63 -186q-19 -118 -142 -195.5t-273 -74.5q-132 0 -227 52.5t-135 145.5z" />
    <glyph glyph-name="t" unicode="t" horiz-adv-x="772" 
d="M284 268l104 586h-183l18 106h182l55 308h122l-55 -308h338l-18 -106h-338l-99 -557q-18 -104 19.5 -156.5t118.5 -52.5q96 0 180 40l-3 -103q-29 -16 -88 -32q-56 -13 -115 -13q-134 0 -198 74.5t-40 213.5z" />
    <glyph glyph-name="u" unicode="u" horiz-adv-x="1189" 
d="M554 -20q-184 0 -276 102q-92 103 -58 292l103 586h120l-97 -550q-56 -318 247 -318q137 0 247 92t134 232l96 544h120l-169 -960h-120l29 167q-68 -91 -167.5 -139t-208.5 -48z" />
    <glyph glyph-name="v" unicode="v" horiz-adv-x="1041" 
d="M598 0h-156l-227 960h128l196 -850l496 850h128z" />
    <glyph glyph-name="w" unicode="w" horiz-adv-x="1642" 
d="M382 0l-147 960h128l116 -851l445 841h128l147 -842l416 852h128l-485 -960h-156l-146 774l-418 -774h-156z" />
    <glyph glyph-name="x" unicode="x" horiz-adv-x="1012" 
d="M576 404l-380 -404h-144l461 495l-281 465h147l229 -378l362 378h146l-445 -464l287 -496h-144z" />
    <glyph glyph-name="y" unicode="y" horiz-adv-x="1039" 
d="M141 -420q-111 0 -163 32l34 105q59 -27 139 -27q146 0 278 236l19 34l-240 1000h128l205 -852l495 852h132l-637 -1082q-93 -156 -185 -227t-205 -71z" />
    <glyph glyph-name="z" unicode="z" horiz-adv-x="929" 
d="M831 0h-721l18 103l682 751h-544l18 106h690l-18 -103l-682 -751h576z" />
    <glyph glyph-name="braceleft" unicode="{" horiz-adv-x="629" 
d="M155 519l20 116q7 -1 32 1q84 9 124 54.5t56 141.5l73 415q25 144 89 229q71 92 216 92q49 0 70 -3l-18 -102q-22 2 -46 2q-93 0 -137 -53t-70 -195l-71 -399q-34 -194 -150 -241q99 -47 65 -241l-70 -399q-25 -139 1 -195q26 -53 119 -53q25 0 47 2l-18 -102
q-22 -3 -71 -3q-94 0 -145.5 41.5t-56.5 114.5t10 165l73 415q8 57 6 98t-30.5 66.5t-86.5 31.5q-24 2 -31 1z" />
    <glyph glyph-name="bar" unicode="|" horiz-adv-x="515" 
d="M510 1758h113l-381 -2158h-113z" />
    <glyph glyph-name="braceright" unicode="}" horiz-adv-x="629" 
d="M59 -414q-49 0 -69 3l18 102q20 -2 45 -2q93 0 138 53q44 53 70 195l70 399q34 195 151 241q-100 46 -66 241l71 399q25 139 -1 195q-27 53 -120 53q-24 0 -46 -2l18 102q21 3 70 3q94 0 145.5 -41.5t57.5 -114.5q5 -73 -10 -165l-73 -415q-18 -96 5.5 -141.5
t104.5 -54.5q25 -2 32 -1l-20 -116q-6 1 -33 -1q-86 -9 -124 -56q-39 -48 -55 -140l-73 -415q-25 -146 -89 -229q-72 -92 -217 -92z" />
    <glyph glyph-name="asciitilde" unicode="~" horiz-adv-x="1100" 
d="M242 481l-63 86q63 60 145 100q81 40 159 40q108 0 198 -55q88 -56 175 -56q91 0 208 99l62 -86q-63 -60 -143 -99q-84 -41 -160 -41q-110 0 -198 56q-92 55 -176 55q-90 0 -207 -99z" />
    <glyph glyph-name="uni00A0" unicode="&#xa0;" horiz-adv-x="464" 
 />
    <glyph glyph-name="exclamdown" unicode="&#xa1;" horiz-adv-x="478" 
d="M227 -398h-121l183 990h102zM438 834q-29 -20 -59 -21t-50 21t-11 54q5 33 30 54t58 21t50.5 -21t12.5 -54q-6 -33 -31 -54z" />
    <glyph glyph-name="cent" unicode="&#xa2;" horiz-adv-x="1198" 
d="M585 1l32 182q-192 21 -294 162q-103 139 -68 335q35 195 186 334q151 140 351 162l29 164h111l-28 -162q120 -9 209 -71.5t128 -166.5l-104 -60q-36 79 -102 128t-151 59l-137 -775q89 13 172 62t144 123l84 -59q-73 -97 -186 -160q-113 -65 -233 -75l-32 -182h-111z
M376 680q-26 -150 47 -257q73 -109 214 -130l135 771q-148 -22 -259 -130q-111 -107 -137 -254z" />
    <glyph glyph-name="sterling" unicode="&#xa3;" horiz-adv-x="1216" 
d="M1107 112l-20 -112h-972l20 115q67 43 98 66q35 25 73 64q69 69 92 193l35 196h-199l17 100h196l44 247q31 180 168 288q136 107 316 107q136 0 228 -66t119 -186l-112 -53q-56 191 -250 191q-134 0 -228 -81q-95 -81 -119 -215l-41 -232h399l-17 -100h-398l-29 -163
q-17 -102 -63 -191q-53 -103 -170 -168h813z" />
    <glyph glyph-name="currency" unicode="&#xa4;" horiz-adv-x="1230" 
d="M228 171l-61 73l218 182q-58 112 -37 230q19 113 115 226l-151 178l89 76l146 -176q133 77 247 77q120 0 225 -78l207 176l60 -75l-212 -177q31 -51 40 -102q8 -50 -3 -125q-12 -62 -39.5 -113.5t-80.5 -115.5l156 -183l-91 -74l-151 182q-122 -73 -245 -73
q-118 0 -215 75zM449 655q-19 -108 49 -185t181 -77q116 0 214 77q95 76 115 185q19 112 -48 191q-69 79 -187 79q-115 0 -209 -78q-96 -80 -115 -192z" />
    <glyph glyph-name="yen" unicode="&#xa5;" horiz-adv-x="1309" 
d="M594 0l44 251h-339l18 100h339l26 151h-338l17 100h299l-351 756h145l317 -694l561 694h145l-617 -756h324l-17 -100h-365l-26 -151h364l-18 -100h-364l-44 -251h-120z" />
    <glyph glyph-name="brokenbar" unicode="&#xa6;" horiz-adv-x="515" 
d="M510 1758h113l-150 -848h-113zM279 449h113l-149 -848h-113z" />
    <glyph glyph-name="section" unicode="&#xa7;" horiz-adv-x="1151" 
d="M96 -83l102 69q42 -106 131.5 -162.5t212.5 -56.5q137 0 237 64q100 65 116 165q18 103 -63 168q-73 58 -224 109q-96 33 -148 59q-55 25 -113 71q-108 88 -80 251q23 120 129 199q-54 77 -34 192q25 142 162 238q136 95 311 95q131 0 231.5 -58.5t147.5 -161.5l-102 -68
q-39 83 -119 131t-178 48q-127 0 -221 -61q-94 -62 -111 -159q-9 -69 11.5 -113.5t77.5 -79.5q60 -37 179 -78q61 -21 109 -39q43 -18 101 -52q54 -33 88 -73q76 -95 54 -225q-11 -56 -45.5 -110.5t-78.5 -91.5q55 -82 36 -190q-26 -148 -164 -243q-140 -96 -326 -96
q-155 0 -270 68q-115 69 -159 191zM727 664q-196 71 -267 124q-66 -55 -79 -130q-19 -110 52 -171q36 -30 80 -52t118 -48q203 -68 284 -132q60 54 74 130q17 98 -47 162t-215 117z" />
    <glyph glyph-name="dieresis" unicode="&#xa8;" horiz-adv-x="777" 
d="M892 1562q-25 -21 -58 -21t-50 21q-18 21 -12 54t31 54q24 21 57 21t51 -21t12 -54t-31 -54zM542 1562q-25 -21 -58 -21t-50 21q-18 21 -12 54t31 54q24 21 57 21t51 -21t12 -54t-31 -54z" />
    <glyph glyph-name="copyright" unicode="&#xa9;" horiz-adv-x="1732" 
d="M860 -20q-142 0 -266 53.5t-208 147.5q-83 92 -119 223q-37 128 -11 276q25 145 109 277q81 129 199 222q116 92 259 146q144 53 284 53q141 0 265.5 -53t209.5 -146q83 -90 121 -223q37 -128 11 -276q-34 -196 -165 -358t-313 -252q-184 -90 -376 -90zM352 680
q-30 -169 32 -312q61 -142 193 -222q131 -81 298 -81t327 81t273 224t143 310q28 168 -33 310q-62 141 -194 224q-132 81 -299 81t-326 -81q-160 -82 -272 -224q-114 -144 -142 -310zM582 678q28 168 164 282q136 113 311 113q104 0 182.5 -49.5t113.5 -137.5l-78 -49
q-69 148 -234 148q-134 0 -237 -88q-106 -89 -128 -219q-23 -128 50 -215q72 -88 204 -88q80 0 158 40t135 108l61 -49q-69 -88 -166 -136q-100 -51 -204 -51q-171 0 -266 113t-66 278z" />
    <glyph glyph-name="ordfeminine" unicode="&#xaa;" horiz-adv-x="857" 
d="M493 750q-59 0 -107 20t-75 63.5t-17 102.5q17 90 101 139q83 49 195 49q96 0 168 -36l6 34q13 75 -27 119.5t-118 44.5q-106 0 -199 -93l-52 65q53 53 122.5 86.5t143.5 33.5q123 0 186 -67q62 -68 42 -178l-66 -371h-94l16 90q-42 -47 -103.5 -74.5t-121.5 -27.5z
M390 939q-9 -52 25 -78.5t103 -26.5t139 50q69 49 85 119q-24 18 -71 30t-94 12q-78 0 -128.5 -28.5t-58.5 -77.5zM776 647l-18 -101h-532l18 101h532z" />
    <glyph glyph-name="guillemotleft" unicode="&#xab;" horiz-adv-x="942" 
d="M537 86h-130l-202 394l341 395h130l-333 -395zM707 86l-202 394l341 395h130l-333 -395l194 -394h-130z" />
    <glyph glyph-name="logicalnot" unicode="&#xac;" horiz-adv-x="1331" 
d="M1246 448h-117l72 410h-950l21 120h1067z" />
    <glyph glyph-name="uni00AD" unicode="&#xad;" horiz-adv-x="875" 
d="M265 637h567l-21 -119h-567z" />
    <glyph glyph-name="registered" unicode="&#xae;" horiz-adv-x="1332" 
d="M757 541q-224 0 -352 149q-127 148 -90 365q21 139 113.5 258.5t229 188.5t280.5 66q146 3 260 -66t165.5 -188.5t24.5 -258.5q-25 -141 -117 -260q-93 -119 -229 -186q-138 -68 -285 -68zM405 1055q-23 -116 19.5 -216t135.5 -158t212 -56q121 -2 236 56t193.5 158
t96.5 216q32 182 -76 308q-110 125 -298 125q-185 0 -336 -125q-151 -126 -183 -308zM699 805h-85l89 506h216q80 0 120.5 -42t27.5 -113q-10 -52 -42.5 -89t-80.5 -51l86 -211h-99l-75 197h-122zM747 1078h129q42 0 69.5 21t33.5 57q6 37 -13.5 58t-61.5 21h-129z" />
    <glyph glyph-name="macron" unicode="&#xaf;" horiz-adv-x="872" 
d="M1025 1668l-19 -106h-592l19 106h592z" />
    <glyph glyph-name="degree" unicode="&#xb0;" horiz-adv-x="924" 
d="M580 678q-149 0 -233 101q-85 99 -59 247q26 149 146 251q121 101 269 101q149 0 235 -101q84 -102 58 -251q-25 -146 -146 -247t-270 -101zM402 1026q-18 -102 39 -172q55 -70 157 -70q101 0 181 70q81 71 99 172q18 104 -38 175t-156 71t-182 -71q-82 -72 -100 -175z
" />
    <glyph glyph-name="plusminus" unicode="&#xb1;" horiz-adv-x="1312" 
d="M677 457l69 394h-441l21 119h441l68 386h117l-68 -386h443l-21 -119h-443l-69 -394h-117zM1204 185l-22 -121h-1033l22 121h1033z" />
    <glyph glyph-name="twosuperior" unicode="&#xb2;" horiz-adv-x="762" 
d="M768 632l-17 -98h-559l9 52q13 74 76.5 142t174.5 143q20 13 63 39q26 15 71 46q26 18 62 46q66 53 79 122q12 69 -26 111t-109 42q-58 0 -111 -35t-93 -98l-86 46q43 83 131 136q85 52 179 52q117 0 183 -69t46 -183q-18 -98 -102 -170q-50 -43 -88 -69
q-37 -26 -125 -81q-166 -103 -190 -174h432z" />
    <glyph glyph-name="threesuperior" unicode="&#xb3;" horiz-adv-x="774" 
d="M213 692l107 54q18 -62 62.5 -96.5t108.5 -34.5q67 0 125 39t68 102q12 67 -33 107t-127 40h-110l17 96h110q73 0 126 38t65 106q11 61 -27 97.5t-106 36.5q-129 0 -208 -124l-87 51q47 78 130 126t184 48q114 0 182 -62t48 -171q-11 -62 -55 -111.5t-114 -80.5
q65 -25 98.5 -80.5t22.5 -118.5q-19 -111 -115 -176q-94 -64 -211 -64q-99 0 -168.5 47t-92.5 131z" />
    <glyph glyph-name="acute" unicode="&#xb4;" horiz-adv-x="560" 
d="M600 1807h138l-232 -334h-107z" />
    <glyph glyph-name="paragraph" unicode="&#xb6;" horiz-adv-x="1177" 
d="M724 565h-122q-178 0 -279 111q-100 111 -69 286q30 175 169 286q139 110 318 110h540l-14 -83h-307l-296 -1675h-111zM1178 1139l-272 -1539h-96l272 1539h96z" />
    <glyph glyph-name="periodcentered" unicode="&#xb7;" horiz-adv-x="441" 
d="M341 380q-29 -20 -59 -21t-50 21t-11 54q5 33 30 54t58 21t50.5 -21t12.5 -54q-6 -33 -31 -54z" />
    <glyph glyph-name="cedilla" unicode="&#xb8;" horiz-adv-x="582" 
d="M141 -437q-73 0 -126 18l18 99q51 -19 115 -19q140 0 152 75q15 81 -146 81h-49l114 210h87l-67 -129q91 -7 138.5 -50.5t34.5 -111.5q-14 -81 -86 -127t-185 -46z" />
    <glyph glyph-name="onesuperior" unicode="&#xb9;" horiz-adv-x="498" 
d="M440 534h-110l126 713h-174l19 111h284z" />
    <glyph glyph-name="ordmasculine" unicode="&#xba;" horiz-adv-x="938" 
d="M842 850q-107 -89 -240 -89t-208 89q-76 88 -53 219q22 129 130 220q107 89 240 89t208 -89t52 -220t-129 -219zM447 1069q-15 -86 36 -145q50 -59 138 -59t159 59q70 58 85 145q16 85 -34 146q-50 59 -138 59t-159 -59q-70 -60 -87 -146zM867 648l-18 -101h-570l18 101
h570z" />
    <glyph glyph-name="guillemotright" unicode="&#xbb;" horiz-adv-x="942" 
d="M905 480l-342 -394h-130l334 394l-195 395h130zM605 480l-342 -394h-130l334 394l-195 395h130z" />
    <glyph glyph-name="onequarter" unicode="&#xbc;" horiz-adv-x="1669" 
d="M1369 216h-431l15 82l521 526h112l-90 -511h121l-17 -97h-121l-38 -216h-110zM1437 1334l-967 -1334h-105l5 26l968 1332h103zM553 1243h-174l20 111h284l-146 -824h-110zM1448 666l-351 -353h289z" />
    <glyph glyph-name="onehalf" unicode="&#xbd;" horiz-adv-x="1688" 
d="M1565 0h-559l9 52q13 74 76.5 142.5t173.5 142.5q18 12 63 39q51 32 72 46q27 17 62 46q67 56 79 122q12 69 -26 111t-109 42q-58 0 -111.5 -35t-92.5 -98l-86 46q43 84 130 136q86 52 180 52q117 0 183 -69t45 -183q-12 -73 -67 -137q-19 -23 -67 -61q-48 -37 -79 -57
q-72 -47 -101 -65q-166 -103 -190 -174h432zM1387 1334l-967 -1334h-105l5 26l968 1332h103zM503 1243h-174l20 111h284l-146 -824h-110z" />
    <glyph glyph-name="threequarters" unicode="&#xbe;" horiz-adv-x="1752" 
d="M1429 0l38 216h-431l15 82l521 526h112l-90 -511h121l-17 -97h-121l-38 -216h-110zM481 520q-99 0 -168.5 47t-92.5 131l107 54q18 -62 62.5 -96.5t108.5 -34.5q66 0 125 39q58 39 68 102q12 67 -33 107t-127 40h-110l17 96h110q73 0 126 38t65 106q11 61 -27 97.5
t-106 36.5q-129 0 -208 -124l-87 51q47 78 130 126t184 48q114 0 182 -62q67 -62 48 -171q-11 -62 -55 -111.5t-114 -80.5q65 -25 98.5 -80.5t22.5 -118.5q-19 -111 -115 -176q-94 -64 -211 -64zM1588 1334l-967 -1334h-105l5 26l968 1332h103zM1546 666l-351 -353h289z" />
    <glyph glyph-name="questiondown" unicode="&#xbf;" horiz-adv-x="1006" 
d="M430 -416q-182 0 -278 98q-96 99 -68 256q15 82 72 163q57 80 182 188q3 3 20.5 18t32.5 28q45 39 50 43q11 9 39 36q26 23 37 38q48 63 53 78q22 59 29 94h109q0 -9 -5 -39q-15 -87 -83 -167q-68 -78 -212 -201q-110 -94 -148 -148q-42 -59 -54 -127q-19 -106 49 -176
q68 -68 192 -68q221 0 358 206l95 -50q-74 -123 -200 -196q-128 -74 -270 -74zM625 894q5 33 30.5 54t58.5 21t50 -21t12 -54q-6 -33 -31 -54t-58 -21t-50.5 21t-11.5 54z" />
    <glyph glyph-name="Agrave" unicode="&#xc0;" horiz-adv-x="1359" 
d="M365 347l-206 -347h-122l802 1358h157l324 -1358h-122l-84 347h-749zM1089 454l-191 796l-470 -796h661zM975 1473h-107l-114 334h138z" />
    <glyph glyph-name="Aacute" unicode="&#xc1;" horiz-adv-x="1359" 
d="M365 347l-206 -347h-122l802 1358h157l324 -1358h-122l-84 347h-749zM1089 454l-191 796l-470 -796h661zM1004 1473h-107l201 334h138z" />
    <glyph glyph-name="Acircumflex" unicode="&#xc2;" horiz-adv-x="1359" 
d="M365 347l-206 -347h-122l802 1358h157l324 -1358h-122l-84 347h-749zM898 1250l-470 -796h661zM762 1471h-123l328 368h72l198 -368h-123l-128 256z" />
    <glyph glyph-name="Atilde" unicode="&#xc3;" horiz-adv-x="1359" 
d="M365 347l-206 -347h-122l802 1358h157l324 -1358h-122l-84 347h-749zM1089 454l-191 796l-470 -796h661zM692 1548l-58 56q113 125 221 125q57 0 130 -40q74 -41 114 -41q37 0 68 18t76 61l58 -56q-113 -125 -216 -125q-55 0 -132 41q-76 40 -117 40q-37 0 -68 -18
t-76 -61z" />
    <glyph glyph-name="Adieresis" unicode="&#xc4;" horiz-adv-x="1359" 
d="M365 347l-206 -347h-122l802 1358h157l324 -1358h-122l-84 347h-749zM898 1250l-470 -796h661zM1183 1562q-25 -21 -58 -21t-50 21q-18 21 -12 54t31 54q24 21 57 21t51 -21t12 -54t-31 -54zM833 1562q-25 -21 -58 -21t-50 21q-18 21 -12 54t31 54q24 21 57 21t51 -21
t12 -54t-31 -54z" />
    <glyph glyph-name="Aring" unicode="&#xc5;" horiz-adv-x="1359" 
d="M365 347l-206 -347h-122l802 1358h157l324 -1358h-122l-84 347h-749zM898 1250l-470 -796h661zM1107 1547q-73 -60 -166 -60q-91 0 -144 60t-37 146q15 87 89 148q73 60 165 60t145 -60q52 -59 37 -148q-17 -89 -89 -146zM859 1693q-9 -52 18 -85.5t80 -33.5t92 33.5
t48 85.5t-18 86.5t-80 34.5t-92 -34.5t-48 -86.5z" />
    <glyph glyph-name="AE" unicode="&#xc6;" horiz-adv-x="1915" 
d="M122 0h-139l1079 1358h954l-19 -108h-766l-86 -492h661l-20 -109h-661l-95 -541h788l-19 -108h-908l61 347h-556zM1111 1250l-630 -796h490z" />
    <glyph glyph-name="Ccedilla" unicode="&#xc7;" horiz-adv-x="1479" 
d="M662 -183l90 165q-177 10 -308.5 105t-188 251.5t-21.5 339.5q34 196 153 357q117 161 292 252q173 91 368 91q180 0 318 -81.5t213 -229.5l-105 -68q-69 129 -185 198.5t-261 69.5q-158 2 -303.5 -75.5t-244 -214t-124.5 -299.5q-24 -122 1 -232t88 -189t162.5 -124.5
t219.5 -42.5q151 0 290.5 68.5t255.5 199.5l77 -68q-117 -137 -277 -219q-160 -83 -333 -90l-43 -83q91 -7 138.5 -50.5t34.5 -111.5q-14 -81 -86 -127t-185 -46q-74 0 -126 18l18 99q51 -19 115 -19q140 0 152 75q15 81 -146 81h-49z" />
    <glyph glyph-name="Egrave" unicode="&#xc8;" horiz-adv-x="1227" 
d="M1130 108l-19 -108h-908l239 1358h886l-19 -108h-766l-86 -492h661l-20 -109h-661l-95 -541h788zM865 1473l-114 334h138l83 -334h-107z" />
    <glyph glyph-name="Eacute" unicode="&#xc9;" horiz-adv-x="1227" 
d="M1130 108l-19 -108h-908l239 1358h886l-19 -108h-766l-86 -492h661l-20 -109h-661l-95 -541h788zM1068 1807h138l-232 -334h-107z" />
    <glyph glyph-name="Ecircumflex" unicode="&#xca;" horiz-adv-x="1227" 
d="M1130 108l-19 -108h-908l239 1358h886l-19 -108h-766l-86 -492h661l-20 -109h-661l-95 -541h788zM956 1727l-224 -256h-123l328 368h72l198 -368h-123z" />
    <glyph glyph-name="Edieresis" unicode="&#xcb;" horiz-adv-x="1227" 
d="M1130 108l-19 -108h-908l239 1358h886l-19 -108h-766l-86 -492h661l-20 -109h-661l-95 -541h788zM1159 1562q-25 -21 -58 -21t-50 21q-18 21 -12 54t31 54q24 21 57 21t51 -21t12 -54t-31 -54zM809 1562q-25 -21 -58 -21t-50 21q-18 21 -12 54t31 54q24 21 57 21t51 -21
t12 -54t-31 -54z" />
    <glyph glyph-name="Igrave" unicode="&#xcc;" horiz-adv-x="528" 
d="M323 0h-120l239 1358h120zM465 1473l-114 334h138l83 -334h-107z" />
    <glyph glyph-name="Iacute" unicode="&#xcd;" horiz-adv-x="528" 
d="M323 0h-120l239 1358h120zM675 1807h138l-232 -334h-107z" />
    <glyph glyph-name="Icircumflex" unicode="&#xce;" horiz-adv-x="528" 
d="M562 1358l-239 -1358h-120l239 1358h120zM570 1727l-224 -256h-123l328 368h72l198 -368h-123z" />
    <glyph glyph-name="Idieresis" unicode="&#xcf;" horiz-adv-x="528" 
d="M562 1358l-239 -1358h-120l239 1358h120zM767 1562q-25 -21 -58 -21t-50 21q-18 21 -12 54t31 54q24 21 57 21t51 -21t12 -54t-31 -54zM417 1562q-25 -21 -58 -21t-50 21q-18 21 -12 54t31 54q24 21 57 21t51 -21t12 -54t-31 -54z" />
    <glyph glyph-name="Eth" unicode="&#xd0;" horiz-adv-x="1532" 
d="M203 0l114 645h-151l18 104h151l107 609h501q201 0 349 -88q148 -89 212 -243q65 -158 31 -349q-35 -193 -153 -347q-120 -156 -298 -243q-177 -88 -380 -88h-501zM1001 749l-18 -104h-546l-95 -537h381q166 -2 316.5 73.5t250 207.5t124.5 289q31 157 -22 289
t-177 208.5t-291 74.5h-381l-88 -501h546z" />
    <glyph glyph-name="Ntilde" unicode="&#xd1;" horiz-adv-x="1623" 
d="M533 1193l-210 -1193h-120l239 1358h135l751 -1190l209 1190h120l-239 -1358h-134zM824 1548l-58 56q113 125 221 125q57 0 130 -40q74 -41 114 -41q37 0 68 18t76 61l58 -56q-113 -125 -216 -125q-55 0 -132 41q-76 40 -117 40q-37 0 -68 -18t-76 -61z" />
    <glyph glyph-name="Ograve" unicode="&#xd2;" horiz-adv-x="1620" 
d="M801 -20q-195 0 -337 88q-142 87 -204 246q-62 158 -27 358q36 201 155 364q119 161 292 252q173 90 368 90q198 0 342 -90q144 -92 205 -252q62 -163 26 -364q-35 -201 -153 -358q-118 -159 -293 -246q-175 -88 -374 -88zM353 672q-24 -124 0.5 -233.5t87.5 -186.5
t162 -120.5t218 -41.5q252 0 443 163q191 164 236 419q46 259 -87 428q-133 168 -384 168q-159 2 -304.5 -75.5t-244.5 -215.5t-127 -305zM1011 1473l-114 334h138l83 -334h-107z" />
    <glyph glyph-name="Oacute" unicode="&#xd3;" horiz-adv-x="1620" 
d="M801 -20q-195 0 -337 88q-142 87 -204 246q-62 158 -27 358q36 201 155 364q119 161 292 252q173 90 368 90q198 0 342 -90q144 -92 205 -252q62 -163 26 -364q-35 -201 -153 -358q-118 -159 -293 -246q-175 -88 -374 -88zM353 672q-24 -124 0.5 -233.5t87.5 -186.5
t162 -120.5t218 -41.5q252 0 443 163q191 164 236 419q46 259 -87 428q-133 168 -384 168q-159 2 -304.5 -75.5t-244.5 -215.5t-127 -305zM1386 1807l-232 -334h-107l201 334h138z" />
    <glyph glyph-name="Ocircumflex" unicode="&#xd4;" horiz-adv-x="1620" 
d="M801 -20q-195 0 -337 88q-142 87 -204 246q-62 158 -27 358q36 201 155 364q119 161 292 252q173 90 368 90q198 0 342 -90q144 -92 205 -252q62 -163 26 -364q-35 -201 -153 -358q-118 -159 -293 -246q-175 -88 -374 -88zM353 672q-24 -124 0.5 -233.5t87.5 -186.5
t162 -120.5t218 -41.5q252 0 443 163q191 164 236 419q46 259 -87 428q-133 168 -384 168q-159 2 -304.5 -75.5t-244.5 -215.5t-127 -305zM892 1471h-123l328 368h72l198 -368h-123l-128 256z" />
    <glyph glyph-name="Otilde" unicode="&#xd5;" horiz-adv-x="1620" 
d="M801 -20q-195 0 -337 88q-142 87 -204 246q-62 158 -27 358q36 201 155 364q119 161 292 252q173 90 368 90q198 0 342 -90q144 -92 205 -252q62 -163 26 -364q-35 -201 -153 -358q-118 -159 -293 -246q-175 -88 -374 -88zM353 672q-24 -124 0.5 -233.5t87.5 -186.5
t162 -120.5t218 -41.5q252 0 443 163q191 164 236 419q46 259 -87 428q-133 168 -384 168q-159 2 -304.5 -75.5t-244.5 -215.5t-127 -305zM823 1548l-58 56q113 125 221 125q57 0 130 -40q74 -41 114 -41q37 0 68 18t76 61l58 -56q-113 -125 -216 -125q-55 0 -132 41
q-76 40 -117 40q-37 0 -68 -18t-76 -61z" />
    <glyph glyph-name="Odieresis" unicode="&#xd6;" horiz-adv-x="1620" 
d="M801 -20q-195 0 -337 88q-142 87 -204 246q-62 158 -27 358q36 201 155 364q119 161 292 252q173 90 368 90q198 0 342 -90q144 -92 205 -252q62 -163 26 -364q-35 -201 -153 -358q-118 -159 -293 -246q-175 -88 -374 -88zM353 672q-24 -124 0.5 -233.5t87.5 -186.5
t162 -120.5t218 -41.5q252 0 443 163q191 164 236 419q46 259 -87 428q-133 168 -384 168q-159 2 -304.5 -75.5t-244.5 -215.5t-127 -305zM1314 1562q-25 -21 -58 -21t-50 21q-18 21 -12 54t31 54q24 21 57 21t51 -21t12 -54t-31 -54zM964 1562q-25 -21 -58 -21t-50 21
q-18 21 -12 54t31 54q24 21 57 21t51 -21t12 -54t-31 -54z" />
    <glyph glyph-name="multiply" unicode="&#xd7;" horiz-adv-x="1218" 
d="M1218 1151l67 -82l-478 -407l335 -407l-96 -82l-336 407l-478 -407l-68 82l479 407l-336 407l97 82l335 -407z" />
    <glyph glyph-name="Oslash" unicode="&#xd8;" horiz-adv-x="1620" 
d="M268 -36l132 151q-109 94 -153 239t-14 318q36 201 155 364q119 161 292 252q173 90 368 90q213 0 364 -106l162 186l71 -58l-163 -187q95 -97 132 -237t7 -304q-35 -201 -153 -358q-118 -159 -293 -246q-175 -88 -374 -88q-185 0 -325 81l-139 -159zM482 209l848 970
q-124 89 -301 89q-159 2 -304.5 -75.5t-244.5 -215.5t-127 -305q-26 -144 8 -264t121 -199zM1398 1118l-840 -963q113 -65 263 -65q252 0 443 163q191 164 236 419q24 134 -3 249t-99 197z" />
    <glyph glyph-name="Ugrave" unicode="&#xd9;" horiz-adv-x="1574" 
d="M782 -20q-262 0 -392 142q-130 141 -90 373l152 863h119l-152 -863q-31 -181 72 -292t311 -111t351 111q142 109 174 292l152 863h119l-152 -863q-40 -232 -220 -374q-180 -141 -444 -141zM1073 1473h-107l-114 334h138z" />
    <glyph glyph-name="Uacute" unicode="&#xda;" horiz-adv-x="1574" 
d="M782 -20q-262 0 -392 142q-130 141 -90 373l152 863h119l-152 -863q-31 -181 72 -292t311 -111t351 111q142 109 174 292l152 863h119l-152 -863q-40 -232 -220 -374q-180 -141 -444 -141zM1088 1473h-107l201 334h138z" />
    <glyph glyph-name="Ucircumflex" unicode="&#xdb;" horiz-adv-x="1574" 
d="M782 -20q-262 0 -392 142q-130 141 -90 373l152 863h119l-152 -863q-31 -181 72 -292t311 -111t351 111q142 109 174 292l152 863h119l-152 -863q-40 -232 -220 -374q-180 -141 -444 -141zM869 1471h-123l328 368h72l198 -368h-123l-128 256z" />
    <glyph glyph-name="Udieresis" unicode="&#xdc;" horiz-adv-x="1574" 
d="M782 -20q-262 0 -392 142q-130 141 -90 373l152 863h119l-152 -863q-31 -181 72 -292t311 -111t351 111q142 109 174 292l152 863h119l-152 -863q-40 -232 -220 -374q-180 -141 -444 -141zM1291 1562q-25 -21 -58 -21t-50 21q-18 21 -12 54t31 54q24 21 57 21t51 -21
t12 -54t-31 -54zM941 1562q-25 -21 -58 -21t-50 21q-18 21 -12 54t31 54q24 21 57 21t51 -21t12 -54t-31 -54z" />
    <glyph glyph-name="Yacute" unicode="&#xdd;" horiz-adv-x="1254" 
d="M661 539l-380 819h145l317 -694l561 694h145l-668 -818l-95 -540h-120zM1166 1807l-232 -334h-107l201 334h138z" />
    <glyph glyph-name="Thorn" unicode="&#xde;" horiz-adv-x="1353" 
d="M324 0h-121l239 1358h121l-38 -217h430q191 0 309 -110q59 -56 82.5 -147t3.5 -203q-24 -138 -107 -242q-84 -105 -200 -158q-117 -54 -249 -54h-430zM505 1029l-122 -692h406q176 0 295 92t147 250q30 171 -53.5 260.5t-266.5 89.5h-406z" />
    <glyph glyph-name="germandbls" unicode="&#xdf;" horiz-adv-x="1311" 
d="M472 980l-173 -979h-120l174 988q34 197 188 319q151 120 367 120q196 0 300 -102q102 -102 72 -270q-18 -100 -99 -192q-84 -93 -194 -128q161 -27 234 -123t44 -254q-30 -172 -157 -275q-128 -104 -306 -104q-106 0 -188 46q-84 47 -121 120l103 72q32 -59 93 -94
t133 -35q122 0 211 76q90 75 111 194q26 147 -65 223t-268 76q-14 0 -64 -2l19 110q151 6 263 92q111 87 130 197q21 119 -55 192q-77 74 -220 74q-156 0 -271 -95q-115 -94 -141 -246z" />
    <glyph glyph-name="agrave" unicode="&#xe0;" horiz-adv-x="1117" 
d="M473 -20q-159 0 -247 79q-89 78 -67 208t155 216q131 86 313 86q83 0 163 -21t127 -55l16 90q24 134 -45 211q-70 76 -209 76q-86 0 -176.5 -41.5t-161.5 -112.5l-62 76q85 87 198 138q114 50 221 50q192 0 290 -104q97 -103 67 -276l-106 -600h-116l31 174
q-58 -88 -163 -141q-106 -53 -228 -53zM280 273q-16 -92 44.5 -143t185.5 -51q140 0 254 96q112 95 135 219q-37 36 -117 58q-79 22 -169 22q-134 0 -225 -55q-92 -56 -108 -146zM693 1121l-114 334h138l83 -334h-107z" />
    <glyph glyph-name="aacute" unicode="&#xe1;" horiz-adv-x="1117" 
d="M473 -20q-159 0 -247 79q-89 78 -67 208t155 216q131 86 313 86q83 0 163 -21t127 -55l16 90q24 134 -45 211q-70 76 -209 76q-86 0 -176.5 -41.5t-161.5 -112.5l-62 76q85 87 198 138q114 50 221 50q192 0 290 -104q97 -103 67 -276l-106 -600h-116l31 174
q-58 -88 -163 -141q-106 -53 -228 -53zM280 273q-16 -92 44.5 -143t185.5 -51q140 0 254 96q112 95 135 219q-37 36 -117 58q-79 22 -169 22q-134 0 -225 -55q-92 -56 -108 -146zM788 1113h-107l201 334h138z" />
    <glyph glyph-name="acircumflex" unicode="&#xe2;" horiz-adv-x="1117" 
d="M473 -20q-159 0 -247 79q-89 78 -67 208t155 216q131 86 313 86q83 0 163 -21t127 -55l16 90q24 134 -45 211q-70 76 -209 76q-86 0 -176.5 -41.5t-161.5 -112.5l-62 76q85 87 198 138q114 50 221 50q192 0 290 -104q97 -103 67 -276l-106 -600h-116l31 174
q-58 -88 -163 -141q-106 -53 -228 -53zM280 273q-16 -92 44.5 -143t185.5 -51q140 0 254 96q112 95 135 219q-37 36 -117 58q-79 22 -169 22q-134 0 -225 -55q-92 -56 -108 -146zM543 1084h-123l328 368h72l198 -368h-123l-129 256z" />
    <glyph glyph-name="atilde" unicode="&#xe3;" horiz-adv-x="1117" 
d="M473 -20q-159 0 -247 79q-89 78 -67 208t155 216q131 86 313 86q83 0 163 -21t127 -55l16 90q24 134 -45 211q-70 76 -209 76q-86 0 -176.5 -41.5t-161.5 -112.5l-62 76q85 87 198 138q114 50 221 50q192 0 290 -104q97 -103 67 -276l-106 -600h-116l31 174
q-58 -88 -163 -141q-106 -53 -228 -53zM280 273q-16 -92 44.5 -143t185.5 -51q140 0 254 96q112 95 135 219q-37 36 -117 58q-79 22 -169 22q-134 0 -225 -55q-92 -56 -108 -146zM478 1188l-58 56q113 125 221 125q57 0 130 -40q74 -41 114 -41q37 0 68 18t76 61l58 -56
q-113 -125 -216 -125q-55 0 -132 41q-76 40 -117 40q-37 0 -68 -18t-76 -61z" />
    <glyph glyph-name="adieresis" unicode="&#xe4;" horiz-adv-x="1117" 
d="M473 -20q-159 0 -247 79q-89 78 -67 208t155 216q131 86 313 86q83 0 163 -21t127 -55l16 90q24 134 -45 211q-70 76 -209 76q-86 0 -176.5 -41.5t-161.5 -112.5l-62 76q85 87 198 138q114 50 221 50q192 0 290 -104q97 -103 67 -276l-106 -600h-116l31 174
q-58 -88 -163 -141q-106 -53 -228 -53zM280 273q-16 -92 44.5 -143t185.5 -51q140 0 254 96q112 95 135 219q-37 36 -117 58q-79 22 -169 22q-134 0 -225 -55q-92 -56 -108 -146zM978 1225q-29 -20 -59 -21t-50 21t-11 54q5 33 30 54t58 21t50.5 -21t12.5 -54
q-6 -33 -31 -54zM628 1225q-29 -20 -59 -21t-50 21t-11 54q5 33 30 54t58 21t50.5 -21t12.5 -54q-6 -33 -31 -54z" />
    <glyph glyph-name="aring" unicode="&#xe5;" horiz-adv-x="1117" 
d="M473 -20q-159 0 -247 79q-89 78 -67 208t155 216q131 86 313 86q83 0 163 -21t127 -55l16 90q24 134 -45 211q-70 76 -209 76q-86 0 -176.5 -41.5t-161.5 -112.5l-62 76q85 87 198 138q114 50 221 50q192 0 290 -104q97 -103 67 -276l-106 -600h-116l31 174
q-58 -88 -163 -141q-106 -53 -228 -53zM280 273q-16 -92 44.5 -143t185.5 -51q140 0 254 96q112 95 135 219q-37 36 -117 58q-79 22 -169 22q-134 0 -225 -55q-92 -56 -108 -146zM902 1145q-74 -60 -166 -60t-144 60q-53 60 -37 146q15 87 89 148q74 60 165 60q93 0 145 -60
q52 -59 37 -148q-17 -89 -89 -146zM654 1291q-9 -52 18 -85.5t80 -33.5t92 33.5t48 85.5t-18 86.5t-80 34.5t-92 -34.5t-48 -86.5z" />
    <glyph glyph-name="ae" unicode="&#xe6;" horiz-adv-x="1876" 
d="M467 -20q-155 0 -240 79q-86 78 -64 208t152 216q128 86 306 86q83 0 163 -21t127 -55l16 90q24 134 -45 211q-70 76 -209 76q-83 0 -171 -41.5t-157 -112.5l-62 76q82 86 193 138q111 50 216 50q141 0 231 -59.5t114 -166.5q85 106 199.5 166t237.5 60q209 0 313 -128
q103 -128 70 -319q-8 -43 -21 -83h-819q-17 -159 73 -259q90 -101 240 -101q99 0 194.5 44t168.5 123l78 -65q-85 -103 -210 -157q-123 -55 -253 -55q-143 0 -246 68.5t-146 186.5q-76 -117 -195 -186t-254 -69zM284 273q-16 -92 42 -143t178 -51q140 0 254 96
q112 95 135 219q-37 36 -117 58q-79 22 -169 22q-130 0 -218 -55q-89 -56 -105 -146zM1042 552h700q18 140 -65 229t-223 89q-144 0 -259 -88q-117 -88 -153 -230z" />
    <glyph glyph-name="ccedilla" unicode="&#xe7;" horiz-adv-x="1139" 
d="M451 -183l91 168q-188 26 -285 164q-98 141 -64 331q38 212 212 356t395 144q134 0 235 -63q99 -64 143 -177l-103 -60q-39 87 -118 138t-177 51q-171 0 -304 -112q-134 -113 -162 -277q-29 -166 62 -278q92 -113 258 -113q103 0 200 52q99 52 167 136l83 -59
q-78 -105 -202 -169q-125 -65 -254 -69l-43 -82q91 -7 138.5 -50.5t34.5 -111.5q-14 -81 -86 -127t-185 -46q-73 0 -126 18l18 99q51 -19 115 -19q140 0 152 75q15 81 -146 81h-49z" />
    <glyph glyph-name="egrave" unicode="&#xe8;" horiz-adv-x="1180" 
d="M610 -20q-218 0 -336 145q-118 143 -80 355q22 138 108 254t212 182t262 64q139 0 236.5 -60t134.5 -162q36 -100 15 -225q-8 -43 -21 -83h-830q-17 -159 76 -259q92 -101 245 -101q101 0 197 44t169 123l78 -65q-87 -103 -211 -157q-123 -55 -255 -55zM756 870
q-147 0 -265 -88q-119 -89 -155 -230h711q18 140 -65 229q-84 89 -226 89zM846 1121h-107l-114 334h138z" />
    <glyph glyph-name="eacute" unicode="&#xe9;" horiz-adv-x="1180" 
d="M610 -20q-218 0 -336 145q-118 143 -80 355q22 138 108 254t212 182t262 64q139 0 236.5 -60t134.5 -162q36 -100 15 -225q-8 -43 -21 -83h-830q-17 -159 76 -259q92 -101 245 -101q101 0 197 44t169 123l78 -65q-87 -103 -211 -157q-123 -55 -255 -55zM336 552h711
q18 140 -65 229q-84 89 -226 89q-147 0 -265 -88q-119 -89 -155 -230zM849 1113h-107l201 334h138z" />
    <glyph glyph-name="ecircumflex" unicode="&#xea;" horiz-adv-x="1180" 
d="M610 -20q-218 0 -336 145q-118 143 -80 355q22 138 108 254t212 182t262 64q139 0 236.5 -60t134.5 -162q36 -100 15 -225q-8 -43 -21 -83h-830q-17 -159 76 -259q92 -101 245 -101q101 0 197 44t169 123l78 -65q-87 -103 -211 -157q-123 -55 -255 -55zM336 552h711
q18 140 -65 229q-84 89 -226 89q-147 0 -265 -88q-119 -89 -155 -230zM612 1084h-123l328 368h72l198 -368h-123l-129 256z" />
    <glyph glyph-name="edieresis" unicode="&#xeb;" horiz-adv-x="1180" 
d="M610 -20q-218 0 -336 145q-118 143 -80 355q22 138 108 254t212 182t262 64q139 0 236.5 -60t134.5 -162q36 -100 15 -225q-8 -43 -21 -83h-830q-17 -159 76 -259q92 -101 245 -101q101 0 197 44t169 123l78 -65q-87 -103 -211 -157q-123 -55 -255 -55zM756 870
q-147 0 -265 -88q-119 -89 -155 -230h711q18 140 -65 229q-84 89 -226 89zM1045 1225q-29 -20 -59 -21t-50 21t-11 54q5 33 30 54t58 21t50.5 -21t12.5 -54q-6 -33 -31 -54zM695 1225q-29 -20 -59 -21t-50 21t-11 54q5 33 30 54t58 21t50.5 -21t12.5 -54q-6 -33 -31 -54z
" />
    <glyph glyph-name="igrave" unicode="&#xec;" horiz-adv-x="480" 
d="M299 0h-120l169 960h120zM375 1121l-114 334h138l83 -334h-107z" />
    <glyph glyph-name="iacute" unicode="&#xed;" horiz-adv-x="480" 
d="M299 0h-120l169 960h120zM593 1447h138l-232 -334h-107z" />
    <glyph glyph-name="icircumflex" unicode="&#xee;" horiz-adv-x="480" 
d="M299 0h-120l169 960h120zM254 1084h-123l328 368h72l198 -368h-123l-129 256z" />
    <glyph glyph-name="idieresis" unicode="&#xef;" horiz-adv-x="480" 
d="M299 0h-120l169 960h120zM684 1225q-29 -20 -59 -21t-50 21t-11 54q5 33 30 54t58 21t50.5 -21t12.5 -54q-6 -33 -31 -54zM334 1225q-29 -20 -59 -21t-50 21t-11 54q5 33 30 54t58 21t50.5 -21t12.5 -54q-6 -33 -31 -54z" />
    <glyph glyph-name="eth" unicode="&#xf0;" horiz-adv-x="1196" 
d="M586 -20q-214 0 -323 130q-110 131 -73 339q36 203 187 330t357 127q121 0 204.5 -48.5t124.5 -130.5q-2 141 -50.5 268t-143.5 223l-297 -195l-46 87l265 174q-81 62 -195 102l76 94q127 -48 225 -127l222 146l43 -88l-191 -126q131 -137 181 -330t11 -419
q-47 -260 -205 -408q-160 -148 -372 -148zM310 449q-28 -159 52 -259q79 -100 237 -100q157 0 272 100q114 98 143 259q27 154 -53 251q-81 96 -238 96t-271 -96q-115 -97 -142 -251z" />
    <glyph glyph-name="ntilde" unicode="&#xf1;" horiz-adv-x="1224" 
d="M395 544l-96 -544h-120l169 960h120l-29 -167q70 91 170.5 139t210.5 48q187 0 280 -102t59 -292l-103 -586h-120l97 550q55 318 -252 318q-140 0 -250 -91t-136 -233zM561 1188l-58 56q113 125 221 125q57 0 130 -40q74 -41 114 -41q37 0 68 18t76 61l58 -56
q-113 -125 -216 -125q-55 0 -132 41q-76 40 -117 40q-37 0 -68 -18t-76 -61z" />
    <glyph glyph-name="ograve" unicode="&#xf2;" horiz-adv-x="1238" 
d="M614 -20q-141 -2 -248 65t-153.5 183t-19.5 252q38 213 209 356q171 144 389 144q141 2 248 -65t153.5 -183t20.5 -252q-38 -212 -209 -356q-172 -144 -390 -144zM473 758q-132 -113 -160 -278t63 -277q92 -113 258 -113t299 113q132 114 160 277q29 165 -63 278
q-91 112 -259 112t-298 -112zM749 1121l-114 334h138l83 -334h-107z" />
    <glyph glyph-name="oacute" unicode="&#xf3;" horiz-adv-x="1238" 
d="M614 -20q-141 -2 -248 65t-153.5 183t-19.5 252q38 213 209 356q171 144 389 144q141 2 248 -65t153.5 -183t20.5 -252q-38 -212 -209 -356q-172 -144 -390 -144zM473 758q-132 -113 -160 -278t63 -277q92 -113 258 -113t299 113q132 114 160 277q29 165 -63 278
q-91 112 -259 112t-298 -112zM1113 1447l-232 -334h-107l201 334h138z" />
    <glyph glyph-name="ocircumflex" unicode="&#xf4;" horiz-adv-x="1238" 
d="M614 -20q-141 -2 -248 65t-153.5 183t-19.5 252q38 213 209 356q171 144 389 144q141 2 248 -65t153.5 -183t20.5 -252q-38 -212 -209 -356q-172 -144 -390 -144zM473 758q-132 -113 -160 -278t63 -277q92 -113 258 -113t299 113q132 114 160 277q29 165 -63 278
q-91 112 -259 112t-298 -112zM633 1084h-123l328 368h72l198 -368h-123l-129 256z" />
    <glyph glyph-name="otilde" unicode="&#xf5;" horiz-adv-x="1238" 
d="M614 -20q-141 -2 -248 65t-153.5 183t-19.5 252q38 213 209 356q171 144 389 144q141 2 248 -65t153.5 -183t20.5 -252q-38 -212 -209 -356q-172 -144 -390 -144zM473 758q-132 -113 -160 -278t63 -277q92 -113 258 -113t299 113q132 114 160 277q29 165 -63 278
q-91 112 -259 112t-298 -112zM568 1188l-58 56q113 125 221 125q57 0 130 -40q74 -41 114 -41q37 0 68 18t76 61l58 -56q-113 -125 -216 -125q-55 0 -132 41q-76 40 -117 40q-37 0 -68 -18t-76 -61z" />
    <glyph glyph-name="odieresis" unicode="&#xf6;" horiz-adv-x="1238" 
d="M614 -20q-141 -2 -248 65t-153.5 183t-19.5 252q38 213 209 356q171 144 389 144q141 2 248 -65t153.5 -183t20.5 -252q-38 -212 -209 -356q-172 -144 -390 -144zM473 758q-132 -113 -160 -278t63 -277q92 -113 258 -113t299 113q132 114 160 277q29 165 -63 278
q-91 112 -259 112t-298 -112zM1064 1225q-29 -20 -59 -21t-50 21t-11 54q5 33 30 54t58 21t50.5 -21t12.5 -54q-6 -33 -31 -54zM714 1225q-29 -20 -59 -21t-50 21t-11 54q5 33 30 54t58 21t50.5 -21t12.5 -54q-6 -33 -31 -54z" />
    <glyph glyph-name="divide" unicode="&#xf7;" horiz-adv-x="1260" 
d="M1226 620h-976l21 119h976zM865 1013q-25 -21 -58 -21t-50 21q-18 21 -12 54t31 54q24 21 57 21t51 -21t12 -54t-31 -54zM729 239q-29 -20 -59 -21t-50 21t-11 54q5 33 30 54t58 21t50.5 -21t12.5 -54q-6 -33 -31 -54z" />
    <glyph glyph-name="oslash" unicode="&#xf8;" horiz-adv-x="1238" 
d="M1067 895l194 197l66 -64l-194 -196q116 -143 80 -352q-38 -212 -209 -356q-172 -144 -390 -144q-148 0 -254 70l-175 -177l-65 60l171 174q-67 70 -92.5 166.5t-5.5 206.5q38 213 209 356q171 144 389 144q164 0 276 -85zM380 197l599 609q-85 64 -208 64
q-168 0 -298 -112q-132 -113 -160 -278q-30 -171 67 -283zM1043 740l-595 -601q80 -49 186 -49q166 0 299 113q132 114 160 277q27 150 -50 260z" />
    <glyph glyph-name="ugrave" unicode="&#xf9;" horiz-adv-x="1214" 
d="M566 -20q-184 0 -276 102q-92 103 -58 292l103 586h120l-97 -550q-56 -318 247 -318q137 0 247 92t134 232l96 544h120l-169 -960h-120l29 167q-68 -91 -167.5 -139t-208.5 -48zM842 1121h-107l-114 334h138z" />
    <glyph glyph-name="uacute" unicode="&#xfa;" horiz-adv-x="1214" 
d="M566 -20q-184 0 -276 102q-92 103 -58 292l103 586h120l-97 -550q-56 -318 247 -318q137 0 247 92t134 232l96 544h120l-169 -960h-120l29 167q-68 -91 -167.5 -139t-208.5 -48zM831 1113h-107l201 334h138z" />
    <glyph glyph-name="ucircumflex" unicode="&#xfb;" horiz-adv-x="1214" 
d="M566 -20q-184 0 -276 102q-92 103 -58 292l103 586h120l-97 -550q-56 -318 247 -318q137 0 247 92t134 232l96 544h120l-169 -960h-120l29 167q-68 -91 -167.5 -139t-208.5 -48zM621 1084h-123l328 368h72l198 -368h-123l-129 256z" />
    <glyph glyph-name="udieresis" unicode="&#xfc;" horiz-adv-x="1214" 
d="M566 -20q-184 0 -276 102q-92 103 -58 292l103 586h120l-97 -550q-56 -318 247 -318q137 0 247 92t134 232l96 544h120l-169 -960h-120l29 167q-68 -91 -167.5 -139t-208.5 -48zM1032 1225q-29 -20 -59 -21t-50 21t-11 54q5 33 30 54t58 21t50.5 -21t12.5 -54
q-6 -33 -31 -54zM682 1225q-29 -20 -59 -21t-50 21t-11 54q5 33 30 54t58 21t50.5 -21t12.5 -54q-6 -33 -31 -54z" />
    <glyph glyph-name="yacute" unicode="&#xfd;" horiz-adv-x="1064" 
d="M-10 -388l34 105q59 -27 139 -27q146 0 278 236l19 34l-240 1000h128l205 -852l495 852h132l-637 -1082q-93 -156 -185 -227t-205 -71q-111 0 -163 32zM1007 1447l-232 -334h-107l201 334h138z" />
    <glyph glyph-name="thorn" unicode="&#xfe;" horiz-adv-x="1295" 
d="M332 185l-104 -585h-120l319 1808h120l-111 -630q75 92 188 146q117 56 246 56q207 0 321 -144t77 -355q-38 -212 -203 -356q-164 -145 -372 -145q-131 0 -226 57t-135 148zM378 481q-29 -167 65 -278q93 -113 262 -113q161 0 289 113t156 278q29 166 -59 277
q-88 112 -249 112q-169 0 -302 -112q-134 -113 -162 -277z" />
    <glyph glyph-name="ydieresis" unicode="&#xff;" horiz-adv-x="1064" 
d="M-10 -388l34 105q59 -27 139 -27q146 0 278 236l19 34l-240 1000h128l205 -852l495 852h132l-637 -1082q-93 -156 -185 -227t-205 -71q-111 0 -163 32zM959 1225q-29 -20 -59 -21t-50 21t-11 54q5 33 30 54t58 21t50.5 -21t12.5 -54q-6 -33 -31 -54zM609 1225
q-29 -20 -59 -21t-50 21t-11 54q5 33 30 54t58 21t50.5 -21t12.5 -54q-6 -33 -31 -54z" />
    <glyph glyph-name="Amacron" unicode="&#x100;" horiz-adv-x="1359" 
d="M365 347l-206 -347h-122l802 1358h157l324 -1358h-122l-84 347h-749zM1089 454l-191 796l-470 -796h661zM1269 1668l-19 -106h-592l19 106h592z" />
    <glyph glyph-name="amacron" unicode="&#x101;" horiz-adv-x="1117" 
d="M473 -20q-159 0 -247 79q-89 78 -67 208t155 216q131 86 313 86q83 0 163 -21t127 -55l16 90q24 134 -45 211q-70 76 -209 76q-86 0 -176.5 -41.5t-161.5 -112.5l-62 76q85 87 198 138q114 50 221 50q192 0 290 -104q97 -103 67 -276l-106 -600h-116l31 174
q-58 -88 -163 -141q-106 -53 -228 -53zM280 273q-16 -92 44.5 -143t185.5 -51q140 0 254 96q112 95 135 219q-37 36 -117 58q-79 22 -169 22q-134 0 -225 -55q-92 -56 -108 -146zM1071 1332l-19 -106h-592l19 106h592z" />
    <glyph glyph-name="Abreve" unicode="&#x102;" horiz-adv-x="1359" 
d="M159 0h-122l802 1358h157l324 -1358h-122l-84 347h-749zM1089 454l-191 796l-470 -796h661zM942 1492q-112 0 -173 72q-61 70 -48 186h111q-8 -69 28 -113t100 -44t115 43.5t69 113.5h111q-25 -115 -113 -186q-87 -72 -200 -72z" />
    <glyph glyph-name="abreve" unicode="&#x103;" horiz-adv-x="1117" 
d="M473 -20q-159 0 -247 79q-89 78 -67 208t155 216q131 86 313 86q83 0 163 -21t127 -55l16 90q24 134 -45 211q-70 76 -209 76q-86 0 -176.5 -41.5t-161.5 -112.5l-62 76q85 87 198 138q114 50 221 50q192 0 290 -104q97 -103 67 -276l-106 -600h-116l31 174
q-58 -88 -163 -141q-106 -53 -228 -53zM280 273q-16 -92 44.5 -143t185.5 -51q140 0 254 96q112 95 135 219q-37 36 -117 58q-79 22 -169 22q-134 0 -225 -55q-92 -56 -108 -146zM741 1135q-111 0 -173 72q-62 71 -48 186h111q-8 -69 28 -113t100 -44t115 43.5t69 113.5h111
q-25 -115 -113 -186q-87 -72 -200 -72z" />
    <glyph glyph-name="Aogonek" unicode="&#x104;" horiz-adv-x="1359" 
d="M159 0h-122l802 1358h157l324 -1358q-105 -58 -171 -121q-67 -62 -76 -113q-12 -69 51 -90.5t176 26.5l16 -94q-80 -45 -181 -45q-99 0 -145.5 49.5t-31.5 136.5q25 142 239 254l-83 344h-749zM1089 454l-191 796l-470 -796h661z" />
    <glyph glyph-name="aogonek" unicode="&#x105;" horiz-adv-x="1117" 
d="M473 -20q-159 0 -247 79q-89 78 -67 208t155 216q131 86 313 86q83 0 163 -21t127 -55l16 90q24 134 -45 211q-70 76 -209 76q-86 0 -176.5 -41.5t-161.5 -112.5l-62 76q85 87 198 138q114 50 221 50q192 0 290 -104q97 -103 67 -276l-106 -600q-105 -58 -171 -121
q-67 -62 -76 -113q-12 -69 51 -90.5t176 26.5l16 -94q-79 -45 -181 -45q-99 0 -145.5 49.5t-31.5 136.5q28 148 247 258l30 167q-58 -88 -163 -141q-106 -53 -228 -53zM280 273q-16 -92 44.5 -143t185.5 -51q140 0 254 96q112 95 135 219q-37 36 -117 58q-79 22 -169 22
q-134 0 -225 -55q-92 -56 -108 -146z" />
    <glyph glyph-name="Cacute" unicode="&#x106;" horiz-adv-x="1479" 
d="M806 -20q-196 0 -338 91q-145 92 -206 251q-63 159 -28 356q34 196 153 357q117 161 292 252q173 91 368 91q180 0 318 -81.5t213 -229.5l-105 -68q-69 129 -185 198.5t-261 69.5q-158 2 -303.5 -75.5t-244 -214t-124.5 -299.5q-24 -122 1 -232t88 -189t162.5 -124.5
t219.5 -42.5q151 0 290.5 68.5t255.5 199.5l77 -68q-122 -144 -292 -227q-172 -83 -351 -83zM1370 1807l-232 -334h-107l201 334h138z" />
    <glyph glyph-name="cacute" unicode="&#x107;" horiz-adv-x="1139" 
d="M614 -20q-140 -2 -247 65.5t-154 183.5t-20 251q38 212 212 356t395 144q134 0 235 -63q99 -64 143 -177l-103 -60q-39 87 -118 138t-177 51q-171 0 -304 -112q-134 -113 -162 -277q-29 -166 62 -278q92 -113 258 -113q103 0 200 52q99 52 167 136l83 -59
q-82 -109 -208 -173q-128 -65 -262 -65zM849 1113h-107l201 334h138z" />
    <glyph glyph-name="Ccircumflex" unicode="&#x108;" horiz-adv-x="1479" 
d="M806 -20q-196 0 -338 91q-145 92 -206 251q-63 159 -28 356q34 196 153 357q117 161 292 252q173 91 368 91q180 0 318 -81.5t213 -229.5l-105 -68q-69 129 -185 198.5t-261 69.5q-158 2 -303.5 -75.5t-244 -214t-124.5 -299.5q-24 -122 1 -232t88 -189t162.5 -124.5
t219.5 -42.5q151 0 290.5 68.5t255.5 199.5l77 -68q-122 -144 -292 -227q-172 -83 -351 -83zM1102 1727l-224 -256h-123l328 368h72l198 -368h-123z" />
    <glyph glyph-name="ccircumflex" unicode="&#x109;" horiz-adv-x="1139" 
d="M614 -20q-140 -2 -247 65.5t-154 183.5t-20 251q38 212 212 356t395 144q134 0 235 -63q99 -64 143 -177l-103 -60q-39 87 -118 138t-177 51q-171 0 -304 -112q-134 -113 -162 -277q-29 -166 62 -278q92 -113 258 -113q103 0 200 52q99 52 167 136l83 -59
q-82 -109 -208 -173q-128 -65 -262 -65zM612 1084h-123l328 368h72l198 -368h-123l-129 256z" />
    <glyph glyph-name="Cdotaccent" unicode="&#x10a;" horiz-adv-x="1479" 
d="M806 -20q-196 0 -338 91q-145 92 -206 251q-63 159 -28 356q34 196 153 357q117 161 292 252q173 91 368 91q180 0 318 -81.5t213 -229.5l-105 -68q-69 129 -185 198.5t-261 69.5q-158 2 -303.5 -75.5t-244 -214t-124.5 -299.5q-24 -122 1 -232t88 -189t162.5 -124.5
t219.5 -42.5q151 0 290.5 68.5t255.5 199.5l77 -68q-122 -144 -292 -227q-172 -83 -351 -83zM1130 1562q-25 -21 -58 -21t-50 21q-18 21 -12 54t31 54q24 21 57 21t51 -21t12 -54t-31 -54z" />
    <glyph glyph-name="cdotaccent" unicode="&#x10b;" horiz-adv-x="1139" 
d="M614 -20q-140 -2 -247 65.5t-154 183.5t-20 251q38 212 212 356t395 144q134 0 235 -63q99 -64 143 -177l-103 -60q-39 87 -118 138t-177 51q-171 0 -304 -112q-134 -113 -162 -277q-29 -166 62 -278q92 -113 258 -113q103 0 200 52q99 52 167 136l83 -59
q-82 -109 -208 -173q-128 -65 -262 -65zM874 1228q-25 -21 -58 -21t-50 21q-18 21 -12 54t31 54q24 21 57 21t51 -21t12 -54t-31 -54z" />
    <glyph glyph-name="Ccaron" unicode="&#x10c;" horiz-adv-x="1479" 
d="M806 -20q-196 0 -338 91q-145 92 -206 251q-63 159 -28 356q34 196 153 357q117 161 292 252q173 91 368 91q180 0 318 -81.5t213 -229.5l-105 -68q-69 129 -185 198.5t-261 69.5q-158 2 -303.5 -75.5t-244 -214t-124.5 -299.5q-24 -122 1 -232t88 -189t162.5 -124.5
t219.5 -42.5q151 0 290.5 68.5t255.5 199.5l77 -68q-122 -144 -292 -227q-172 -83 -351 -83zM1101 1467h-72l-198 368h123l128 -256l224 256h123z" />
    <glyph glyph-name="ccaron" unicode="&#x10d;" horiz-adv-x="1139" 
d="M614 -20q-140 -2 -247 65.5t-154 183.5t-20 251q38 212 212 356t395 144q134 0 235 -63q99 -64 143 -177l-103 -60q-39 87 -118 138t-177 51q-171 0 -304 -112q-134 -113 -162 -277q-29 -166 62 -278q92 -113 258 -113q103 0 200 52q99 52 167 136l83 -59
q-82 -109 -208 -173q-128 -65 -262 -65zM759 1082l-198 368h123l129 -256l223 256h123l-328 -368h-72z" />
    <glyph glyph-name="Dcaron" unicode="&#x10e;" horiz-adv-x="1532" 
d="M704 0h-501l239 1358h501q201 0 349 -88q148 -89 212 -243q65 -158 31 -349q-35 -193 -153 -347q-120 -156 -298 -243q-177 -88 -380 -88zM543 1250l-201 -1142h381q166 -2 316.5 73.5t250 207.5t124.5 289q31 157 -22 289t-177 208.5t-291 74.5h-381zM900 1467l-198 368
h123l128 -256l224 256h123l-328 -368h-72z" />
    <glyph glyph-name="dcaron" unicode="&#x10f;" horiz-adv-x="1328" 
d="M592 -20q-207 0 -321 144t-77 355t203 357q165 144 372 144q131 0 226 -57q96 -58 136 -148l111 633h120l-248 -1408h-120l32 182q-75 -92 -188 -146q-117 -56 -246 -56zM312 479q-29 -166 59 -277q88 -112 249 -112q169 0 302 112q134 113 162 277q29 167 -64 279
q-94 112 -263 112q-161 0 -288 -112q-129 -114 -157 -279zM1567 1026h-93l67 382h131z" />
    <glyph glyph-name="Dcroat" unicode="&#x110;" horiz-adv-x="1532" 
d="M203 0l114 645h-151l18 104h151l107 609h501q201 0 349 -88q148 -89 212 -243q65 -158 31 -349q-35 -193 -153 -347q-120 -156 -298 -243q-177 -88 -380 -88h-501zM1001 749l-18 -104h-546l-95 -537h381q166 -2 316.5 73.5t250 207.5t124.5 289q31 157 -22 289
t-177 208.5t-291 74.5h-381l-88 -501h546z" />
    <glyph glyph-name="dcroat" unicode="&#x111;" horiz-adv-x="1356" 
d="M592 -20q-207 0 -321 144t-77 355t203 357q165 144 372 144q131 0 226 -57q96 -58 136 -148l66 377h-338l19 105h338l26 151h120l-27 -151h151l-19 -105h-150l-203 -1152h-120l32 182q-75 -92 -188 -146q-117 -56 -246 -56zM312 479q-29 -166 59 -277q88 -112 249 -112
q169 0 302 112q134 113 162 277q29 167 -64 279q-94 112 -263 112q-161 0 -288 -112q-129 -114 -157 -279z" />
    <glyph glyph-name="Emacron" unicode="&#x112;" horiz-adv-x="1227" 
d="M1130 108l-19 -108h-908l239 1358h886l-19 -108h-766l-86 -492h661l-20 -109h-661l-95 -541h788zM1244 1668l-19 -106h-592l19 106h592z" />
    <glyph glyph-name="emacron" unicode="&#x113;" horiz-adv-x="1180" 
d="M610 -20q-218 0 -336 145q-118 143 -80 355q22 138 108 254t212 182t262 64q139 0 236.5 -60t134.5 -162q36 -100 15 -225q-8 -43 -21 -83h-830q-17 -159 76 -259q92 -101 245 -101q101 0 197 44t169 123l78 -65q-87 -103 -211 -157q-123 -55 -255 -55zM756 870
q-147 0 -265 -88q-119 -89 -155 -230h711q18 140 -65 229q-84 89 -226 89zM1120 1332l-19 -106h-592l19 106h592z" />
    <glyph glyph-name="Ebreve" unicode="&#x114;" horiz-adv-x="1227" 
d="M1111 0h-908l239 1358h886l-19 -108h-766l-86 -492h661l-20 -109h-661l-95 -541h788zM905 1492q-111 0 -173 72q-62 70 -48 186h111q-8 -69 28 -113t100 -44t115 43.5t69 113.5h111q-25 -115 -113 -186q-87 -72 -200 -72z" />
    <glyph glyph-name="ebreve" unicode="&#x115;" horiz-adv-x="1180" 
d="M610 -20q-218 0 -336 145q-118 143 -80 355q22 138 108 254t212 182t262 64q139 0 236.5 -60t134.5 -162q36 -100 15 -225q-8 -43 -21 -83h-830q-17 -159 76 -259q92 -101 245 -101q101 0 197 44t169 123l78 -65q-87 -103 -211 -157q-123 -55 -255 -55zM756 870
q-147 0 -265 -88q-119 -89 -155 -230h711q18 140 -65 229q-84 89 -226 89zM789 1135q-111 0 -173 72q-62 71 -48 186h111q-8 -69 28 -113t100 -44t115 43.5t69 113.5h111q-25 -115 -113 -186q-87 -72 -200 -72z" />
    <glyph glyph-name="Edotaccent" unicode="&#x116;" horiz-adv-x="1227" 
d="M1130 108l-19 -108h-908l239 1358h886l-19 -108h-766l-86 -492h661l-20 -109h-661l-95 -541h788zM981 1562q-25 -21 -58 -21t-50 21q-18 21 -12 54t31 54q24 21 57 21t51 -21t12 -54t-31 -54z" />
    <glyph glyph-name="edotaccent" unicode="&#x117;" horiz-adv-x="1180" 
d="M610 -20q-218 0 -336 145q-118 143 -80 355q22 138 108 254t212 182t262 64q139 0 236.5 -60t134.5 -162q36 -100 15 -225q-8 -43 -21 -83h-830q-17 -159 76 -259q92 -101 245 -101q101 0 197 44t169 123l78 -65q-87 -103 -211 -157q-123 -55 -255 -55zM756 870
q-147 0 -265 -88q-119 -89 -155 -230h711q18 140 -65 229q-84 89 -226 89zM844 1228q-25 -21 -58 -21t-50 21q-18 21 -12 54t31 54q24 21 57 21t51 -21t12 -54t-31 -54z" />
    <glyph glyph-name="Eogonek" unicode="&#x118;" horiz-adv-x="1227" 
d="M983 0h-780l239 1358h886l-19 -108h-766l-86 -492h661l-20 -109h-661l-95 -541h788l-19 -108q-105 -58 -171 -121q-67 -62 -76 -113q-12 -69 51 -90.5t176 26.5l16 -94q-79 -45 -181 -45q-99 0 -145.5 49.5t-31.5 136.5q25 141 234 251z" />
    <glyph glyph-name="eogonek" unicode="&#x119;" horiz-adv-x="1180" 
d="M602 -20q-140 0 -243.5 67.5t-147.5 183t-17 249.5q22 138 108 254t212 182t262 64q139 0 236.5 -60t134.5 -162q36 -100 15 -225q-8 -43 -21 -83h-830q-17 -159 76 -259q92 -101 245 -101q101 0 197 44t169 123l78 -65q-122 -143 -310 -192q-105 -58 -171 -121
q-67 -62 -76 -113q-12 -69 51 -90.5t176 26.5l16 -94q-80 -45 -181 -45q-99 0 -145.5 49.5t-31.5 136.5q22 127 198 231zM756 870q-147 0 -265 -88q-119 -89 -155 -230h711q18 140 -65 229q-84 89 -226 89z" />
    <glyph glyph-name="Ecaron" unicode="&#x11a;" horiz-adv-x="1227" 
d="M1130 108l-19 -108h-908l239 1358h886l-19 -108h-766l-86 -492h661l-20 -109h-661l-95 -541h788zM889 1467l-198 368h123l128 -256l224 256h123l-328 -368h-72z" />
    <glyph glyph-name="ecaron" unicode="&#x11b;" horiz-adv-x="1180" 
d="M610 -20q-218 0 -336 145q-118 143 -80 355q22 138 108 254t212 182t262 64q139 0 236.5 -60t134.5 -162q36 -100 15 -225q-8 -43 -21 -83h-830q-17 -159 76 -259q92 -101 245 -101q101 0 197 44t169 123l78 -65q-87 -103 -211 -157q-123 -55 -255 -55zM756 870
q-147 0 -265 -88q-119 -89 -155 -230h711q18 140 -65 229q-84 89 -226 89zM749 1082l-198 368h123l129 -256l223 256h123l-328 -368h-72z" />
    <glyph glyph-name="Gcircumflex" unicode="&#x11c;" horiz-adv-x="1573" 
d="M807 -20q-197 0 -339 91q-145 92 -206 251q-63 159 -28 356q34 196 153 357q117 161 292 252q173 91 368 91q180 0 318 -81.5t213 -229.5l-105 -68q-69 129 -185 198.5t-261 69.5q-158 2 -303.5 -75.5t-244 -214t-124.5 -299.5q-32 -163 20 -299.5t172 -214t281 -74.5
q120 0 228 40.5t185 110.5q153 140 201 324h-512l19 108h636q-18 -144 -85.5 -272.5t-171.5 -222.5q-103 -93 -239 -145.5t-282 -52.5zM902 1471h-123l328 368h72l198 -368h-123l-128 256z" />
    <glyph glyph-name="gcircumflex" unicode="&#x11d;" horiz-adv-x="1295" 
d="M115 -247l92 79q116 -143 324 -143q188 0 317 96q130 98 158 260l25 140q-73 -91 -188 -148t-247 -57q-133 -3 -234.5 64t-145.5 184t-17 253q37 211 202 355t372 144q128 0 223.5 -55t138.5 -147l32 182h120l-156 -887q-41 -226 -207 -359q-167 -134 -412 -134
q-128 0 -230.5 44.5t-166.5 128.5zM317 481q-29 -167 59 -278q87 -113 248 -113q169 0 303 113t162 278q29 166 -65 277q-94 112 -263 112q-161 0 -288 -112q-128 -113 -156 -277zM599 1084h-123l328 368h72l198 -368h-123l-129 256z" />
    <glyph glyph-name="Gbreve" unicode="&#x11e;" horiz-adv-x="1573" 
d="M807 -20q-197 0 -339 91q-145 92 -206 251q-63 159 -28 356q34 196 153 357q117 161 292 252q173 91 368 91q180 0 318 -81.5t213 -229.5l-105 -68q-69 129 -185 198.5t-261 69.5q-158 2 -303.5 -75.5t-244 -214t-124.5 -299.5q-32 -163 20 -299.5t172 -214t281 -74.5
q120 0 228 40.5t185 110.5q153 140 201 324h-512l19 108h636q-18 -144 -85.5 -272.5t-171.5 -222.5q-103 -93 -239 -145.5t-282 -52.5zM1068 1499q-112 0 -173 72q-61 71 -48 186h111q-8 -69 28 -113t100 -44t115 43.5t69 113.5h111q-25 -115 -113 -186q-87 -72 -200 -72z
" />
    <glyph glyph-name="gbreve" unicode="&#x11f;" horiz-adv-x="1295" 
d="M512 -420q-128 0 -230.5 44.5t-166.5 128.5l92 79q116 -143 324 -143q188 0 317 96q130 98 158 260l25 140q-73 -91 -188 -148t-247 -57q-133 -3 -234.5 64t-145.5 184t-17 253q37 211 202 355t372 144q128 0 223.5 -55t138.5 -147l32 182h120l-156 -887
q-41 -226 -207 -359q-167 -134 -412 -134zM317 481q-29 -167 59 -278q87 -113 248 -113q169 0 303 113t162 278q29 166 -65 277q-94 112 -263 112q-161 0 -288 -112q-128 -113 -156 -277zM791 1135q-111 0 -173 72q-62 71 -48 186h111q-8 -69 28 -113t100 -44t115 43.5
t69 113.5h111q-25 -115 -113 -186q-87 -72 -200 -72z" />
    <glyph glyph-name="Gdotaccent" unicode="&#x120;" horiz-adv-x="1573" 
d="M807 -20q-197 0 -339 91q-145 92 -206 251q-63 159 -28 356q34 196 153 357q117 161 292 252q173 91 368 91q180 0 318 -81.5t213 -229.5l-105 -68q-69 129 -185 198.5t-261 69.5q-158 2 -303.5 -75.5t-244 -214t-124.5 -299.5q-32 -163 20 -299.5t172 -214t281 -74.5
q120 0 228 40.5t185 110.5q153 140 201 324h-512l19 108h636q-18 -144 -85.5 -272.5t-171.5 -222.5q-103 -93 -239 -145.5t-282 -52.5zM1129 1561q-25 -21 -58 -21t-50 21q-18 21 -12 54t31 54q24 21 57 21t51 -21t12 -54t-31 -54z" />
    <glyph glyph-name="gdotaccent" unicode="&#x121;" horiz-adv-x="1295" 
d="M512 -420q-128 0 -230.5 44.5t-166.5 128.5l92 79q116 -143 324 -143q188 0 317 96q130 98 158 260l25 140q-73 -91 -188 -148t-247 -57q-133 -3 -234.5 64t-145.5 184t-17 253q37 211 202 355t372 144q128 0 223.5 -55t138.5 -147l32 182h120l-156 -887
q-41 -226 -207 -359q-167 -134 -412 -134zM317 481q-29 -167 59 -278q87 -113 248 -113q169 0 303 113t162 278q29 166 -65 277q-94 112 -263 112q-161 0 -288 -112q-128 -113 -156 -277zM865 1228q-25 -21 -58 -21t-50 21q-18 21 -12 54t31 54q24 21 57 21t51 -21t12 -54
t-31 -54z" />
    <glyph glyph-name="uni0122" unicode="&#x122;" horiz-adv-x="1573" 
d="M807 -20q-197 0 -339 91q-145 92 -206 251q-63 159 -28 356q34 196 153 357q117 161 292 252q173 91 368 91q180 0 318 -81.5t213 -229.5l-105 -68q-69 129 -185 198.5t-261 69.5q-158 2 -303.5 -75.5t-244 -214t-124.5 -299.5q-32 -163 20 -299.5t172 -214t281 -74.5
q120 0 228 40.5t185 110.5q153 140 201 324h-512l19 108h636q-18 -144 -85.5 -272.5t-171.5 -222.5q-103 -93 -239 -145.5t-282 -52.5zM854 -128l-119 -380h-98l81 380h136z" />
    <glyph glyph-name="uni0123" unicode="&#x123;" horiz-adv-x="1295" 
d="M512 -420q-128 0 -230.5 44.5t-166.5 128.5l92 79q116 -143 324 -143q188 0 317 96q130 98 158 260l25 140q-73 -91 -188 -148t-247 -57q-133 -3 -234.5 64t-145.5 184t-17 253q37 211 202 355t372 144q128 0 223.5 -55t138.5 -147l32 182h120l-156 -887
q-41 -226 -207 -359q-167 -134 -412 -134zM317 481q-29 -167 59 -278q87 -113 248 -113q169 0 303 113t162 278q29 166 -65 277q-94 112 -263 112q-161 0 -288 -112q-128 -113 -156 -277zM1027 1496l-81 -380h-136l119 380h98z" />
    <glyph glyph-name="Hcircumflex" unicode="&#x124;" horiz-adv-x="1544" 
d="M437 645l-114 -645h-120l239 1358h120l-106 -603h896l106 603h120l-239 -1358h-120l114 645h-896zM1078 1727l-224 -256h-123l328 368h72l198 -368h-123z" />
    <glyph glyph-name="hcircumflex" unicode="&#x125;" horiz-adv-x="1222" 
d="M395 544l-96 -544h-120l248 1408h120l-108 -615q70 91 170.5 139t210.5 48q186 0 279 -102q92 -103 58 -292l-103 -586h-118l97 550q28 159 -36.5 239.5t-215.5 80.5q-138 0 -250 -92q-110 -91 -136 -234zM552 1745l-223 -256h-123l327 368h72l199 -368h-123z" />
    <glyph glyph-name="Hbar" unicode="&#x126;" horiz-adv-x="1623" 
d="M477 645l-114 -645h-120l193 1094h-174l18 104h174l28 160h120l-28 -160h896l28 160h120l-28 -160h173l-18 -104h-173l-193 -1094h-120l114 645h-896zM1392 755l60 339h-896l-60 -339h896z" />
    <glyph glyph-name="hbar" unicode="&#x127;" horiz-adv-x="1214" 
d="M387 544l-96 -544h-120l203 1152h-138l19 105h137l27 151h120l-27 -151h394l-19 -105h-393l-63 -359q70 91 170.5 139t210.5 48q186 0 279 -102q92 -103 58 -292l-103 -586h-118l97 550q28 159 -36.5 239.5t-215.5 80.5q-138 0 -250 -92q-110 -91 -136 -234z" />
    <glyph glyph-name="Itilde" unicode="&#x128;" horiz-adv-x="528" 
d="M562 1358l-239 -1358h-120l239 1358h120zM276 1548l-58 56q113 125 221 125q57 0 130 -40q74 -41 114 -41q37 0 68 18t76 61l58 -56q-113 -125 -216 -125q-55 0 -132 41q-76 40 -117 40q-37 0 -68 -18t-76 -61z" />
    <glyph glyph-name="itilde" unicode="&#x129;" horiz-adv-x="480" 
d="M299 0h-120l169 960h120zM188 1188l-58 56q113 125 221 125q57 0 130 -40q74 -41 114 -41q37 0 68 18t76 61l58 -56q-113 -125 -216 -125q-55 0 -132 41q-76 40 -117 40q-37 0 -68 -18t-76 -61z" />
    <glyph glyph-name="Imacron" unicode="&#x12a;" horiz-adv-x="528" 
d="M323 0h-120l239 1358h120zM853 1668l-19 -106h-592l19 106h592z" />
    <glyph glyph-name="imacron" unicode="&#x12b;" horiz-adv-x="480" 
d="M299 0h-120l169 960h120zM770 1332l-19 -106h-592l19 106h592z" />
    <glyph glyph-name="Ibreve" unicode="&#x12c;" horiz-adv-x="528" 
d="M562 1358l-239 -1358h-120l239 1358h120zM526 1492q-112 0 -173 72q-61 70 -48 186h111q-8 -69 28 -113t100 -44t115 43.5t69 113.5h111q-25 -115 -113 -186q-87 -72 -200 -72z" />
    <glyph glyph-name="ibreve" unicode="&#x12d;" horiz-adv-x="480" 
d="M468 960l-169 -960h-120l169 960h120zM439 1135q-111 0 -173 72q-62 71 -48 186h111q-8 -69 28 -113t100 -44t115 43.5t69 113.5h111q-25 -115 -113 -186q-87 -72 -200 -72z" />
    <glyph glyph-name="Iogonek" unicode="&#x12e;" horiz-adv-x="528" 
d="M138 -437q-99 0 -145.5 49.5t-31.5 136.5q26 147 243 256l238 1353h120l-239 -1358q-105 -58 -171 -121q-67 -62 -76 -113q-12 -69 51 -90.5t176 26.5l16 -94q-80 -45 -181 -45z" />
    <glyph glyph-name="iogonek" unicode="&#x12f;" horiz-adv-x="480" 
d="M114 -437q-99 0 -145.5 49.5t-31.5 136.5q26 147 243 256l168 955h120l-169 -960q-105 -58 -171 -121q-67 -62 -76 -113q-12 -69 51 -90.5t176 26.5l16 -94q-79 -45 -181 -45zM510 1228q-25 -21 -58 -21t-50 21q-18 21 -12 54t31 54q24 21 57 21t51 -21t12 -54t-31 -54z
" />
    <glyph glyph-name="Idotaccent" unicode="&#x130;" horiz-adv-x="528" 
d="M562 1358l-239 -1358h-120l239 1358h120zM593 1562q-25 -21 -58 -21t-50 21q-18 21 -12 54t31 54q24 21 57 21t51 -21t12 -54t-31 -54z" />
    <glyph glyph-name="dotlessi" unicode="&#x131;" horiz-adv-x="480" 
d="M299 0h-120l169 960h120z" />
    <glyph glyph-name="IJ" unicode="&#x132;" horiz-adv-x="1574" 
d="M607 148l92 81q46 -66 115 -102.5t148 -36.5q150 0 250 100q101 99 132 277l157 891h120l-160 -909q-37 -219 -176 -344q-140 -125 -343 -125q-108 0 -197 46q-91 45 -138 122zM562 1358l-239 -1358h-120l239 1358h120z" />
    <glyph glyph-name="ij" unicode="&#x133;" horiz-adv-x="988" 
d="M323 -395l34 103q48 -20 117 -20q158 0 193 200l189 1072h120l-191 -1083q-24 -140 -109.5 -218.5t-213.5 -78.5q-90 0 -139 25zM299 0h-120l169 960h120zM1018 1228q-25 -21 -58 -21t-50 21q-18 21 -12 54t31 54q24 21 57 21t51 -21t12 -54t-31 -54zM510 1228
q-25 -21 -58 -21t-50 21q-18 21 -12 54t31 54q24 21 57 21t51 -21t12 -54t-31 -54z" />
    <glyph glyph-name="Jcircumflex" unicode="&#x134;" horiz-adv-x="1026" 
d="M59 148l92 81q46 -66 115 -102.5t148 -36.5q150 0 250 100q101 99 132 277l157 891h120l-160 -909q-37 -219 -176 -344q-140 -125 -343 -125q-108 0 -197 46q-91 45 -138 122zM1081 1727l-224 -256h-123l328 368h72l198 -368h-123z" />
    <glyph glyph-name="jcircumflex" unicode="&#x135;" horiz-adv-x="488" 
d="M-38 -420q-90 0 -139 25l34 103q48 -20 117 -20q158 0 193 200l189 1072h120l-191 -1083q-24 -140 -109.5 -218.5t-213.5 -78.5zM481 1340l-223 -256h-123l328 368h72l198 -368h-123z" />
    <glyph glyph-name="uni0136" unicode="&#x136;" horiz-adv-x="1281" 
d="M323 0h-120l239 1358h120l-140 -797l879 797h154l-601 -542l401 -816h-151l-351 724l-359 -320zM593 -508h-98l81 380h136z" />
    <glyph glyph-name="uni0137" unicode="&#x137;" horiz-adv-x="1028" 
d="M993 -1h-149l-260 486l-236 -202l-50 -283h-119l248 1408h119l-171 -972l617 524h157l-467 -399zM591 -128l-119 -380h-98l81 380h136z" />
    <glyph glyph-name="kgreenlandic" unicode="&#x138;" horiz-adv-x="1028" 
d="M993 -1h-149l-260 486l-236 -202l-50 -283h-119l169 960h119l-92 -524l617 524h157l-467 -399z" />
    <glyph glyph-name="Lacute" unicode="&#x139;" horiz-adv-x="1207" 
d="M1164 110l-19 -110h-942l239 1358h120l-220 -1248h822zM679 1807h138l-232 -334h-107z" />
    <glyph glyph-name="lacute" unicode="&#x13a;" horiz-adv-x="480" 
d="M299 0h-120l248 1408h120zM649 1826h138l-232 -334h-107z" />
    <glyph glyph-name="uni013B" unicode="&#x13b;" horiz-adv-x="1207" 
d="M1164 110l-19 -110h-942l239 1358h120l-220 -1248h822zM594 -508h-98l81 380h136z" />
    <glyph glyph-name="uni013C" unicode="&#x13c;" horiz-adv-x="480" 
d="M299 0h-120l248 1408h120zM165 -508h-98l81 380h136z" />
    <glyph glyph-name="Lcaron" unicode="&#x13d;" horiz-adv-x="1207" 
d="M1164 110l-19 -110h-942l239 1358h120l-220 -1248h822zM994 954h-98l81 380h136z" />
    <glyph glyph-name="lcaron" unicode="&#x13e;" horiz-adv-x="513" 
d="M547 1408l-248 -1408h-120l248 1408h120zM855 1408l-128 -391h-83l82 391h129z" />
    <glyph glyph-name="Ldot" unicode="&#x13f;" horiz-adv-x="1207" 
d="M1164 110l-19 -110h-942l239 1358h120l-220 -1248h822zM993 622q-25 -21 -58 -21t-50 21q-18 21 -12 54t31 54q24 21 57 21t51 -21t12 -54t-31 -54z" />
    <glyph glyph-name="ldot" unicode="&#x140;" horiz-adv-x="691" 
d="M547 1408l-248 -1408h-120l248 1408h120zM749 623q-25 -21 -58.5 -21t-50.5 21q-16 21 -12 54q6 33 31 54t58 21t50.5 -21t11.5 -54q-5 -33 -30 -54z" />
    <glyph glyph-name="Lslash" unicode="&#x141;" horiz-adv-x="1267" 
d="M388 711l-219 -23l19 104l218 23l96 543h120l-94 -531l445 46l-18 -104l-445 -46l-108 -613h822l-19 -110h-942z" />
    <glyph glyph-name="lslash" unicode="&#x142;" horiz-adv-x="748" 
d="M313 0l87 495l-241 -93l20 113l241 93l141 800h120l-132 -750l242 94l-20 -113l-242 -94l-96 -545h-120z" />
    <glyph glyph-name="Nacute" unicode="&#x143;" horiz-adv-x="1623" 
d="M323 0h-120l239 1358h135l751 -1190l209 1190h120l-239 -1358h-134l-751 1193zM1123 1473h-107l201 334h138z" />
    <glyph glyph-name="nacute" unicode="&#x144;" horiz-adv-x="1224" 
d="M299 0h-120l169 960h120l-29 -167q70 91 170.5 139t210.5 48q187 0 280 -102t59 -292l-103 -586h-120l97 550q55 318 -252 318q-140 0 -250 -91t-136 -233zM881 1113h-107l201 334h138z" />
    <glyph glyph-name="uni0145" unicode="&#x145;" horiz-adv-x="1623" 
d="M533 1193l-210 -1193h-120l239 1358h135l751 -1190l209 1190h120l-239 -1358h-134zM842 -128l-119 -380h-98l81 380h136z" />
    <glyph glyph-name="uni0146" unicode="&#x146;" horiz-adv-x="1224" 
d="M299 0h-120l169 960h120l-29 -167q70 91 170.5 139t210.5 48q187 0 280 -102t59 -292l-103 -586h-120l97 550q55 318 -252 318q-140 0 -250 -91t-136 -233zM531 -508h-98l81 380h136z" />
    <glyph glyph-name="Ncaron" unicode="&#x147;" horiz-adv-x="1623" 
d="M533 1193l-210 -1193h-120l239 1358h135l751 -1190l209 1190h120l-239 -1358h-134zM1034 1467l-198 368h123l128 -256l224 256h123l-328 -368h-72z" />
    <glyph glyph-name="ncaron" unicode="&#x148;" horiz-adv-x="1224" 
d="M395 544l-96 -544h-120l169 960h120l-29 -167q70 91 170.5 139t210.5 48q187 0 280 -102t59 -292l-103 -586h-120l97 550q55 318 -252 318q-140 0 -250 -91t-136 -233zM853 1082h-72l-198 368h123l129 -256l223 256h123z" />
    <glyph glyph-name="napostrophe" unicode="&#x149;" horiz-adv-x="1370" 
d="M445 0h-120l169 960h120l-29 -167q70 91 170.5 139t210.5 48q187 0 280 -102t59 -292l-103 -586h-120l97 550q55 318 -252 318q-140 0 -250 -91t-136 -233zM298 932h-83l196 455h129z" />
    <glyph glyph-name="Eng" unicode="&#x14a;" horiz-adv-x="1623" 
d="M533 1193l-210 -1193h-120l239 1358h135l751 -1190l209 1190h120l-228 -1298l-33 -183q-24 -140 -109.5 -218.5t-213.5 -78.5q-90 0 -139 25l34 103q48 -20 117 -20q158 0 193 200l17 94z" />
    <glyph glyph-name="eng" unicode="&#x14b;" horiz-adv-x="1224" 
d="M299 0h-120l169 960h120l-29 -167q70 91 170.5 139t210.5 48q187 0 280 -102t59 -292l-125 -709q-24 -140 -109.5 -218.5t-213.5 -78.5q-90 0 -139 25l34 103q48 -20 117 -20q158 0 193 200l117 662q55 318 -252 318q-140 0 -250 -91t-136 -233z" />
    <glyph glyph-name="Omacron" unicode="&#x14c;" horiz-adv-x="1620" 
d="M801 -20q-195 0 -337 88q-142 87 -204 246q-62 158 -27 358q36 201 155 364q119 161 292 252q173 90 368 90q198 0 342 -90q144 -92 205 -252q62 -163 26 -364q-35 -201 -153 -358q-118 -159 -293 -246q-175 -88 -374 -88zM353 672q-24 -124 0.5 -233.5t87.5 -186.5
t162 -120.5t218 -41.5q252 0 443 163q191 164 236 419q46 259 -87 428q-133 168 -384 168q-159 2 -304.5 -75.5t-244.5 -215.5t-127 -305zM1380 1562h-592l19 106h592z" />
    <glyph glyph-name="omacron" unicode="&#x14d;" horiz-adv-x="1238" 
d="M614 -20q-141 -2 -248 65t-153.5 183t-19.5 252q38 213 209 356q171 144 389 144q141 2 248 -65t153.5 -183t20.5 -252q-38 -212 -209 -356q-172 -144 -390 -144zM473 758q-132 -113 -160 -278t63 -277q92 -113 258 -113t299 113q132 114 160 277q29 165 -63 278
q-91 112 -259 112t-298 -112zM1130 1226h-592l19 106h592z" />
    <glyph glyph-name="Obreve" unicode="&#x14e;" horiz-adv-x="1620" 
d="M801 -20q-195 0 -337 88q-142 87 -204 246q-62 158 -27 358q36 201 155 364q119 161 292 252q173 90 368 90q198 0 342 -90q144 -92 205 -252q62 -163 26 -364q-35 -201 -153 -358q-118 -159 -293 -246q-175 -88 -374 -88zM353 672q-24 -124 0.5 -233.5t87.5 -186.5
t162 -120.5t218 -41.5q252 0 443 163q191 164 236 419q46 259 -87 428q-133 168 -384 168q-159 2 -304.5 -75.5t-244.5 -215.5t-127 -305zM1072 1492q-111 0 -173 72q-61 70 -48 186h111q-8 -69 28 -113t100 -44t115 43.5t69 113.5h111q-25 -115 -113 -186q-87 -72 -200 -72
z" />
    <glyph glyph-name="obreve" unicode="&#x14f;" horiz-adv-x="1238" 
d="M614 -20q-141 -2 -248 65t-153.5 183t-19.5 252q38 213 209 356q171 144 389 144q141 2 248 -65t153.5 -183t20.5 -252q-38 -212 -209 -356q-172 -144 -390 -144zM473 758q-132 -113 -160 -278t63 -277q92 -113 258 -113t299 113q132 114 160 277q29 165 -63 278
q-91 112 -259 112t-298 -112zM818 1135q-112 0 -173 72q-61 71 -48 186h111q-8 -69 28 -113t100 -44t115 43.5t69 113.5h111q-25 -115 -113 -186q-87 -72 -200 -72z" />
    <glyph glyph-name="Ohungarumlaut" unicode="&#x150;" horiz-adv-x="1620" 
d="M801 -20q-195 0 -337 88q-142 87 -204 246q-62 158 -27 358q36 201 155 364q119 161 292 252q173 90 368 90q198 0 342 -90q144 -92 205 -252q62 -163 26 -364q-35 -201 -153 -358q-118 -159 -293 -246q-175 -88 -374 -88zM353 672q-24 -124 0.5 -233.5t87.5 -186.5
t162 -120.5t218 -41.5q252 0 443 163q191 164 236 419q46 259 -87 428q-133 168 -384 168q-159 2 -304.5 -75.5t-244.5 -215.5t-127 -305zM1499 1807l-232 -334h-107l201 334h138zM1169 1807l-232 -334h-107l201 334h138z" />
    <glyph glyph-name="ohungarumlaut" unicode="&#x151;" horiz-adv-x="1238" 
d="M614 -20q-141 -2 -248 65t-153.5 183t-19.5 252q38 213 209 356q171 144 389 144q141 2 248 -65t153.5 -183t20.5 -252q-38 -212 -209 -356q-172 -144 -390 -144zM473 758q-132 -113 -160 -278t63 -277q92 -113 258 -113t299 113q132 114 160 277q29 165 -63 278
q-91 112 -259 112t-298 -112zM1243 1447l-232 -334h-107l201 334h138zM681 1113h-107l201 334h138z" />
    <glyph glyph-name="OE" unicode="&#x152;" horiz-adv-x="2393" 
d="M801 -20q-195 0 -337 88q-142 87 -204 246q-62 158 -27 358q36 201 155 364q119 161 292 252q173 90 368 90q179 0 313 -80q133 -79 198 -221l49 281h886l-19 -108h-766l-86 -492h661l-20 -109h-661l-95 -541h788l-19 -108h-908l48 273q-114 -138 -275 -215
q-160 -78 -341 -78zM353 672q-24 -124 0.5 -233.5t87.5 -186.5t162 -120.5t218 -41.5q252 0 443 163q191 164 236 419q46 259 -87 428q-133 168 -384 168q-159 2 -304.5 -75.5t-244.5 -215.5t-127 -305z" />
    <glyph glyph-name="oe" unicode="&#x153;" horiz-adv-x="2070" 
d="M614 -20q-141 -2 -248 65t-153.5 183t-19.5 252q38 213 209 356q171 144 389 144q145 0 251 -71q106 -73 146 -193q82 124 208 193q128 71 269 71q139 0 236.5 -60t134.5 -162q36 -100 15 -225q-8 -43 -21 -83h-830q-17 -159 76 -259q92 -101 245 -101q101 0 197 44
t169 123l78 -65q-87 -103 -211 -157q-123 -55 -255 -55q-147 0 -250 72q-104 71 -143 193q-84 -121 -214 -193t-278 -72zM473 758q-132 -113 -160 -278t63 -277q92 -113 258 -113t299 113q132 114 160 277q29 165 -63 278q-91 112 -259 112t-298 -112zM1645 870
q-147 0 -265 -88q-119 -89 -155 -230h711q18 140 -65 229q-84 89 -226 89z" />
    <glyph glyph-name="Racute" unicode="&#x154;" horiz-adv-x="1324" 
d="M427 589l-104 -589h-120l239 1358h573q196 0 295 -104q98 -104 67 -281q-26 -146 -128 -245q-102 -100 -254 -129l243 -599h-141l-231 589h-439zM990 1248h-447l-97 -549h447q149 0 244 73.5t117 200.5q22 130 -46.5 202.5t-217.5 72.5zM1193 1807l-232 -334h-107
l201 334h138z" />
    <glyph glyph-name="racute" unicode="&#x155;" horiz-adv-x="773" 
d="M300 0h-121l169 960h120l-27 -153q54 85 132 129t167 44q85 0 136 -25l-31 -112q-66 26 -131 26q-118 0 -204 -85q-87 -86 -114 -241zM691 1113h-107l201 334h138z" />
    <glyph glyph-name="uni0156" unicode="&#x156;" horiz-adv-x="1324" 
d="M427 589l-104 -589h-120l239 1358h573q196 0 295 -104q98 -104 67 -281q-26 -146 -128 -245q-102 -100 -254 -129l243 -599h-141l-231 589h-439zM543 1248l-97 -549h447q149 0 244 73.5t117 200.5q22 130 -46.5 202.5t-217.5 72.5h-447zM581 -508h-98l81 380h136z" />
    <glyph glyph-name="uni0157" unicode="&#x157;" horiz-adv-x="773" 
d="M396 543l-96 -543h-121l169 960h120l-27 -153q54 85 132 129t167 44q85 0 136 -25l-31 -112q-66 26 -131 26q-118 0 -204 -85q-87 -86 -114 -241zM284 -128l-119 -380h-98l81 380h136z" />
    <glyph glyph-name="Rcaron" unicode="&#x158;" horiz-adv-x="1324" 
d="M323 0h-120l239 1358h573q196 0 295 -104q98 -104 67 -281q-26 -146 -128 -245q-102 -100 -254 -129l243 -599h-141l-231 589h-439zM543 1248l-97 -549h447q149 0 244 73.5t117 200.5q22 130 -46.5 202.5t-217.5 72.5h-447zM928 1467h-72l-198 368h123l128 -256l224 256
h123z" />
    <glyph glyph-name="rcaron" unicode="&#x159;" horiz-adv-x="773" 
d="M396 543l-96 -543h-121l169 960h120l-27 -153q54 85 132 129t167 44q85 0 136 -25l-31 -112q-66 26 -131 26q-118 0 -204 -85q-87 -86 -114 -241zM601 1082l-198 368h123l129 -256l223 256h123l-328 -368h-72z" />
    <glyph glyph-name="Sacute" unicode="&#x15a;" horiz-adv-x="1220" 
d="M638 -20q-167 0 -296 75t-177 204l101 68q53 -114 155.5 -175.5t236.5 -61.5q88 -2 170.5 27.5t141 86.5t70.5 129q10 56 -3.5 98t-58.5 77.5t-104 63.5t-160 64q-218 78 -306 163q-89 86 -65 223q15 83 65.5 153t123.5 114q148 89 314 89q163 0 269 -67
q107 -68 152 -170l-105 -68q-42 95 -128.5 144.5t-207.5 49.5q-128 0 -235 -65q-107 -66 -126 -178q-17 -93 56 -154q72 -62 249 -123q247 -85 331 -175q85 -92 60 -237q-15 -82 -64.5 -151t-122.5 -113q-151 -91 -336 -91zM1174 1807l-232 -334h-107l201 334h138z" />
    <glyph glyph-name="sacute" unicode="&#x15b;" horiz-adv-x="987" 
d="M498 -20q-132 0 -227 52.5t-135 145.5l104 72q36 -75 107.5 -118t170.5 -43q108 0 185 44q75 43 89 117q13 73 -40 111q-55 38 -184 68q-126 30 -196 70q-41 21 -67 52q-53 63 -36 162q12 77 72 140t146.5 96t179.5 31q109 0 194 -45q84 -44 122 -111l-93 -73
q-34 56 -97 89t-145 33q-103 0 -173 -43q-71 -44 -84 -113q-14 -77 40 -112q53 -36 193 -72q152 -40 226 -97q85 -67 63 -186q-19 -118 -142 -195.5t-273 -74.5zM743 1113h-107l201 334h138z" />
    <glyph glyph-name="Scircumflex" unicode="&#x15c;" horiz-adv-x="1220" 
d="M165 259l101 68q53 -114 155.5 -175.5t236.5 -61.5q88 -2 170.5 27.5t141 86.5t70.5 129q10 56 -3.5 98t-58.5 77.5t-104 63.5t-160 64q-218 78 -306 163q-89 86 -65 223q15 83 65.5 153t123.5 114q148 89 314 89q163 0 269 -67q107 -68 152 -170l-105 -68
q-42 95 -128.5 144.5t-207.5 49.5q-128 0 -235 -65q-107 -66 -126 -178q-17 -93 56 -154q72 -62 249 -123q247 -85 331 -175q85 -92 60 -237q-15 -82 -64.5 -151t-122.5 -113q-151 -91 -336 -91q-167 0 -296 75t-177 204zM695 1471h-123l328 368h72l198 -368h-123l-128 256z
" />
    <glyph glyph-name="scircumflex" unicode="&#x15d;" horiz-adv-x="987" 
d="M136 178l104 72q36 -75 107.5 -118t170.5 -43q108 0 185 44q75 43 89 117q13 73 -40 111q-55 38 -184 68q-126 30 -196 70q-41 21 -67 52q-53 63 -36 162q12 77 72 140t146.5 96t179.5 31q109 0 194 -45q84 -44 122 -111l-93 -73q-34 56 -97 89t-145 33q-103 0 -173 -43
q-71 -44 -84 -113q-14 -77 40 -112q53 -36 193 -72q152 -40 226 -97q85 -67 63 -186q-19 -118 -142 -195.5t-273 -74.5q-132 0 -227 52.5t-135 145.5zM516 1084h-123l328 368h72l198 -368h-123l-129 256z" />
    <glyph glyph-name="Scedilla" unicode="&#x15e;" horiz-adv-x="1220" 
d="M165 259l101 68q53 -114 155.5 -175.5t236.5 -61.5q88 -2 170.5 27.5t141 86.5t70.5 129q10 56 -3.5 98t-58.5 77.5t-104 63.5t-160 64q-218 78 -306 163q-89 86 -65 223q15 83 65.5 153t123.5 114q148 89 314 89q163 0 269 -67q107 -68 152 -170l-105 -68
q-42 95 -128.5 144.5t-207.5 49.5q-128 0 -235 -65q-107 -66 -126 -178q-17 -93 56 -154q72 -62 249 -123q247 -85 331 -175q85 -92 60 -237q-20 -108 -95 -188q-78 -82 -181 -122q-105 -40 -224 -45l-43 -82q91 -7 138.5 -50.5t34.5 -111.5q-14 -81 -86 -127t-185 -46
q-74 0 -126 18l18 99q51 -19 115 -19q140 0 152 75q15 81 -146 81h-49l90 166q-146 13 -255 87q-111 74 -154 189z" />
    <glyph glyph-name="scedilla" unicode="&#x15f;" horiz-adv-x="987" 
d="M136 178l104 72q36 -75 107.5 -118t170.5 -43q108 0 185 44q75 43 89 117q13 73 -40 111q-55 38 -184 68q-126 30 -196 70q-41 21 -67 52q-53 63 -36 162q12 77 72 140t146.5 96t179.5 31q109 0 194 -45q84 -44 122 -111l-93 -73q-34 56 -97 89t-145 33q-103 0 -173 -43
q-71 -44 -84 -113q-14 -77 40 -112q53 -36 193 -72q152 -40 226 -97q85 -67 63 -186q-19 -116 -132 -189q-113 -74 -259 -80l-43 -83q91 -7 138.5 -50.5t34.5 -111.5q-14 -81 -86 -127t-185 -46q-73 0 -126 18l18 99q51 -19 115 -19q140 0 152 75q15 81 -146 81h-49l90 166
q-108 12 -186 63t-113 132z" />
    <glyph glyph-name="Scaron" unicode="&#x160;" horiz-adv-x="1220" 
d="M638 -20q-167 0 -296 75t-177 204l101 68q53 -114 155.5 -175.5t236.5 -61.5q88 -2 170.5 27.5t141 86.5t70.5 129q10 56 -3.5 98t-58.5 77.5t-104 63.5t-160 64q-218 78 -306 163q-89 86 -65 223q15 83 65.5 153t123.5 114q148 89 314 89q163 0 269 -67
q107 -68 152 -170l-105 -68q-42 95 -128.5 144.5t-207.5 49.5q-128 0 -235 -65q-107 -66 -126 -178q-17 -93 56 -154q72 -62 249 -123q247 -85 331 -175q85 -92 60 -237q-15 -82 -64.5 -151t-122.5 -113q-151 -91 -336 -91zM840 1467l-198 368h123l128 -256l224 256h123
l-328 -368h-72z" />
    <glyph glyph-name="scaron" unicode="&#x161;" horiz-adv-x="987" 
d="M136 178l104 72q36 -75 107.5 -118t170.5 -43q108 0 185 44q75 43 89 117q13 73 -40 111q-55 38 -184 68q-126 30 -196 70q-41 21 -67 52q-53 63 -36 162q12 77 72 140t146.5 96t179.5 31q109 0 194 -45q84 -44 122 -111l-93 -73q-34 56 -97 89t-145 33q-103 0 -173 -43
q-71 -44 -84 -113q-14 -77 40 -112q53 -36 193 -72q152 -40 226 -97q85 -67 63 -186q-19 -118 -142 -195.5t-273 -74.5q-132 0 -227 52.5t-135 145.5zM661 1082l-198 368h123l129 -256l223 256h123l-328 -368h-72z" />
    <glyph glyph-name="uni0162" unicode="&#x162;" horiz-adv-x="1154" 
d="M516 0l220 1248h-461l19 110h1042l-19 -110h-461l-220 -1248h-15l-53 -102q91 -7 138.5 -50.5t34.5 -111.5q-14 -81 -86 -127t-185 -46q-74 0 -126 18l18 99q51 -19 115 -19q140 0 152 75q15 81 -146 81h-49l99 183h-17z" />
    <glyph glyph-name="uni0163" unicode="&#x163;" horiz-adv-x="797" 
d="M400 854h-183l18 106h182l55 308h122l-55 -308h338l-18 -106h-338l-99 -557q-18 -104 19.5 -156.5t118.5 -52.5q96 0 180 40l-3 -103q-29 -16 -88 -32q-56 -13 -115 -13q-27 0 -35 1l-43 -83q91 -7 138.5 -50.5t34.5 -111.5q-14 -81 -86 -127t-185 -46q-74 0 -126 18
l18 99q51 -19 115 -19q140 0 152 75q15 81 -146 81h-49l98 181q-77 27 -109.5 95.5t-14.5 174.5z" />
    <glyph glyph-name="Tcaron" unicode="&#x164;" horiz-adv-x="1154" 
d="M736 1248h-461l19 110h1042l-19 -110h-461l-220 -1248h-120zM871 1467h-72l-198 368h123l128 -256l224 256h123z" />
    <glyph glyph-name="tcaron" unicode="&#x165;" horiz-adv-x="797" 
d="M400 854h-183l18 106h182l55 308h122l-55 -308h338l-18 -106h-338l-99 -557q-18 -104 19.5 -156.5t118.5 -52.5q96 0 180 40l-3 -103q-29 -16 -88 -32q-56 -13 -115 -13q-134 0 -198 74.5t-40 213.5zM861 1128h-93l67 382h131z" />
    <glyph glyph-name="Tbar" unicode="&#x166;" horiz-adv-x="1220" 
d="M549 0l116 658h-382l18 104h382l86 486h-461l19 110h1042l-19 -110h-461l-86 -486h401l-18 -104h-401l-116 -658h-120z" />
    <glyph glyph-name="tbar" unicode="&#x167;" horiz-adv-x="816" 
d="M310 268l34 192h-157l19 105h157l51 289h-183l18 106h182l55 308h122l-55 -308h338l-18 -106h-338l-51 -289h329l-19 -105h-329l-29 -163q-18 -104 19.5 -156.5t118.5 -52.5q96 0 180 40l-3 -103q-29 -16 -88 -32q-56 -13 -115 -13q-134 0 -198 74.5t-40 213.5z" />
    <glyph glyph-name="Utilde" unicode="&#x168;" horiz-adv-x="1574" 
d="M782 -20q-262 0 -392 142q-130 141 -90 373l152 863h119l-152 -863q-31 -181 72 -292t311 -111t351 111q142 109 174 292l152 863h119l-152 -863q-40 -232 -220 -374q-180 -141 -444 -141zM800 1548l-58 56q113 125 221 125q57 0 130 -40q74 -41 114 -41q37 0 68 18
t76 61l58 -56q-113 -125 -216 -125q-55 0 -132 41q-76 40 -117 40q-37 0 -68 -18t-76 -61z" />
    <glyph glyph-name="utilde" unicode="&#x169;" horiz-adv-x="1214" 
d="M566 -20q-184 0 -276 102q-92 103 -58 292l103 586h120l-97 -550q-56 -318 247 -318q137 0 247 92t134 232l96 544h120l-169 -960h-120l29 167q-68 -91 -167.5 -139t-208.5 -48zM536 1188l-58 56q113 125 221 125q57 0 130 -40q74 -41 114 -41q37 0 68 18t76 61l58 -56
q-113 -125 -216 -125q-55 0 -132 41q-76 40 -117 40q-37 0 -68 -18t-76 -61z" />
    <glyph glyph-name="Umacron" unicode="&#x16a;" horiz-adv-x="1574" 
d="M782 -20q-262 0 -392 142q-130 141 -90 373l152 863h119l-152 -863q-31 -181 72 -292t311 -111t351 111q142 109 174 292l152 863h119l-152 -863q-40 -232 -220 -374q-180 -141 -444 -141zM1357 1562h-592l19 106h592z" />
    <glyph glyph-name="umacron" unicode="&#x16b;" horiz-adv-x="1214" 
d="M566 -20q-184 0 -276 102q-92 103 -58 292l103 586h120l-97 -550q-56 -318 247 -318q137 0 247 92t134 232l96 544h120l-169 -960h-120l29 167q-68 -91 -167.5 -139t-208.5 -48zM1098 1226h-592l19 106h592z" />
    <glyph glyph-name="Ubreve" unicode="&#x16c;" horiz-adv-x="1574" 
d="M782 -20q-262 0 -392 142q-130 141 -90 373l152 863h119l-152 -863q-31 -181 72 -292t311 -111t351 111q142 109 174 292l152 863h119l-152 -863q-40 -232 -220 -374q-180 -141 -444 -141zM1049 1492q-111 0 -173 72q-62 70 -48 186h111q-8 -69 28 -113t100 -44t115 43.5
t69 113.5h111q-25 -115 -113 -186q-87 -72 -200 -72z" />
    <glyph glyph-name="ubreve" unicode="&#x16d;" horiz-adv-x="1214" 
d="M566 -20q-184 0 -276 102q-92 103 -58 292l103 586h120l-97 -550q-56 -318 247 -318q137 0 247 92t134 232l96 544h120l-169 -960h-120l29 167q-68 -91 -167.5 -139t-208.5 -48zM796 1135q-112 0 -173 72q-61 71 -48 186h111q-8 -69 28 -113t100 -44t115 43.5t69 113.5
h111q-25 -115 -113 -186q-87 -72 -200 -72z" />
    <glyph glyph-name="Uring" unicode="&#x16e;" horiz-adv-x="1574" 
d="M782 -20q-262 0 -392 142q-130 141 -90 373l152 863h119l-152 -863q-31 -181 72 -292t311 -111t351 111q142 109 174 292l152 863h119l-152 -863q-40 -232 -220 -374q-180 -141 -444 -141zM1214 1547q-74 -60 -166 -60t-144 60q-53 60 -37 146q15 87 89 148q74 60 165 60
q93 0 145 -60q52 -59 37 -148q-17 -89 -89 -146zM966 1693q-9 -52 18 -85.5t80 -33.5t92 33.5t48 85.5t-18 86.5t-80 34.5t-92 -34.5t-48 -86.5z" />
    <glyph glyph-name="uring" unicode="&#x16f;" horiz-adv-x="1214" 
d="M566 -20q-184 0 -276 102q-92 103 -58 292l103 586h120l-97 -550q-56 -318 247 -318q137 0 247 92t134 232l96 544h120l-169 -960h-120l29 167q-68 -91 -167.5 -139t-208.5 -48zM954 1145q-74 -60 -166 -60t-144 60q-53 60 -37 146q15 87 89 148q74 60 165 60
q92 0 145 -60q52 -59 37 -148q-17 -89 -89 -146zM706 1291q-9 -52 18 -85.5t80 -33.5t92 33.5t48 85.5t-18 86.5t-80 34.5t-92 -34.5t-48 -86.5z" />
    <glyph glyph-name="Uhungarumlaut" unicode="&#x170;" horiz-adv-x="1574" 
d="M782 -20q-262 0 -392 142q-130 141 -90 373l152 863h119l-152 -863q-31 -181 72 -292t311 -111t351 111q142 109 174 292l152 863h119l-152 -863q-40 -232 -220 -374q-180 -141 -444 -141zM1472 1807l-232 -334h-107l201 334h138zM1143 1807l-232 -334h-107l201 334h138z
" />
    <glyph glyph-name="uhungarumlaut" unicode="&#x171;" horiz-adv-x="1214" 
d="M566 -20q-184 0 -276 102q-92 103 -58 292l103 586h120l-97 -550q-56 -318 247 -318q137 0 247 92t134 232l96 544h120l-169 -960h-120l29 167q-68 -91 -167.5 -139t-208.5 -48zM991 1113h-107l201 334h138zM893 1447l-232 -334h-107l201 334h138z" />
    <glyph glyph-name="Uogonek" unicode="&#x172;" horiz-adv-x="1574" 
d="M800 -20h-18q-262 0 -392 142q-130 141 -90 373l152 863h119l-152 -863q-31 -181 72 -292t311 -111t351 111q142 109 174 292l152 863h119l-152 -863q-33 -190 -161 -321t-322 -175q-104 -57 -170.5 -120t-75.5 -113q-12 -69 51 -90.5t176 26.5l16 -94q-79 -45 -181 -45
q-99 0 -145.5 49.5t-31.5 136.5q22 127 198 231z" />
    <glyph glyph-name="uogonek" unicode="&#x173;" horiz-adv-x="1214" 
d="M566 -20q-184 0 -276 102q-92 103 -58 292l103 586h120l-97 -550q-56 -318 247 -318q137 0 247 92t134 232l96 544h120l-169 -960q-105 -58 -171 -121q-67 -62 -76 -113q-12 -69 51 -90.5t176 26.5l16 -94q-79 -45 -181 -45q-99 0 -145.5 49.5t-31.5 136.5
q26 147 243 256l28 162q-68 -91 -167.5 -139t-208.5 -48z" />
    <glyph glyph-name="Wcircumflex" unicode="&#x174;" horiz-adv-x="2096" 
d="M500 0l-186 1358h127l162 -1208l619 1208h128l193 -1208l588 1208h127l-664 -1358h-145l-189 1206l-615 -1206h-145zM1354 1727l-224 -256h-123l328 368h72l198 -368h-123z" />
    <glyph glyph-name="wcircumflex" unicode="&#x175;" horiz-adv-x="1642" 
d="M538 0h-156l-147 960h128l116 -851l445 841h128l147 -842l416 852h128l-485 -960h-156l-146 774zM835 1084h-123l328 368h72l198 -368h-123l-129 256z" />
    <glyph glyph-name="Ycircumflex" unicode="&#x176;" horiz-adv-x="1254" 
d="M566 0l95 539l-380 819h145l317 -694l561 694h145l-668 -818l-95 -540h-120zM709 1471h-123l328 368h72l198 -368h-123l-128 256z" />
    <glyph glyph-name="ycircumflex" unicode="&#x177;" horiz-adv-x="1064" 
d="M153 -420q-111 0 -163 32l34 105q59 -27 139 -27q146 0 278 236l19 34l-240 1000h128l205 -852l495 852h132l-637 -1082q-93 -156 -185 -227t-205 -71zM764 1340l-223 -256h-123l328 368h72l198 -368h-123z" />
    <glyph glyph-name="Ydieresis" unicode="&#x178;" horiz-adv-x="1254" 
d="M566 0l95 539l-380 819h145l317 -694l561 694h145l-668 -818l-95 -540h-120zM1131 1562q-25 -21 -58 -21t-50 21q-18 21 -12 54t31 54q24 21 57 21t51 -21t12 -54t-31 -54zM781 1562q-25 -21 -58 -21t-50 21q-18 21 -12 54t31 54q24 21 57 21t51 -21t12 -54t-31 -54z" />
    <glyph glyph-name="Zacute" unicode="&#x179;" horiz-adv-x="1262" 
d="M107 0l18 100l1090 1148h-868l19 110h1005l-23 -133l-1066 -1115h893l-19 -110h-1049zM1008 1807h138l-232 -334h-107z" />
    <glyph glyph-name="zacute" unicode="&#x17a;" horiz-adv-x="929" 
d="M831 0h-721l18 103l682 751h-544l18 106h690l-18 -103l-682 -751h576zM795 1447h138l-232 -334h-107z" />
    <glyph glyph-name="Zdotaccent" unicode="&#x17b;" horiz-adv-x="1262" 
d="M1175 110l-19 -110h-1049l18 100l1090 1148h-868l19 110h1005l-23 -133l-1066 -1115h893zM950 1562q-25 -21 -58 -21t-50 21q-18 21 -12 54t31 54q24 21 57 21t51 -21t12 -54t-31 -54z" />
    <glyph glyph-name="zdotaccent" unicode="&#x17c;" horiz-adv-x="929" 
d="M831 0h-721l18 103l682 751h-544l18 106h690l-18 -103l-682 -751h576zM726 1228q-25 -21 -58 -21t-50 21q-18 21 -12 54t31 54q24 21 57 21t51 -21t12 -54t-31 -54z" />
    <glyph glyph-name="Zcaron" unicode="&#x17d;" horiz-adv-x="1262" 
d="M1156 0h-1049l18 100l1090 1148h-868l19 110h1005l-23 -133l-1066 -1115h893zM859 1467l-198 368h123l128 -256l224 256h123l-328 -368h-72z" />
    <glyph glyph-name="zcaron" unicode="&#x17e;" horiz-adv-x="929" 
d="M850 106l-19 -106h-721l18 103l682 751h-544l18 106h690l-18 -103l-682 -751h576zM610 1082l-198 368h123l129 -256l223 256h123l-328 -368h-72z" />
    <glyph glyph-name="uni018F" unicode="&#x18f;" horiz-adv-x="1558" 
d="M764 -20q-192 -2 -328.5 82.5t-193 237.5t-19.5 346q4 23 19 77h1205q26 237 -106 391q-132 153 -366 153q-145 0 -284.5 -69t-255.5 -199l-81 68q123 145 292 229q165 82 349 82q143 0 262.5 -53t195.5 -147q76 -95 105.5 -225t3.5 -275q-34 -193 -151 -356
q-114 -158 -287 -251q-170 -91 -360 -91zM1427 615h-1093q-34 -232 91 -378q125 -147 358 -147q223 0 402 148q180 147 242 377z" />
    <glyph glyph-name="florin" unicode="&#x192;" horiz-adv-x="1199" 
d="M248 -20q-41 0 -89 13q-54 16 -81 36l57 91q55 -36 132 -36q97 0 173.5 65.5t111.5 181.5l134 444h-195l29 97h198l46 155q49 164 154.5 252.5t259.5 88.5q41 0 90 -13q51 -13 81 -36l-57 -91q-56 36 -132 36q-96 0 -173 -65.5t-113 -181.5l-43 -145h300l-29 -97h-297
l-136 -454q-49 -163 -157.5 -252t-263.5 -89z" />
    <glyph glyph-name="uni019D" unicode="&#x19d;" horiz-adv-x="1623" 
d="M-23 -420q-90 0 -139 25l34 103q48 -20 117 -20q158 0 193 200l20 112h1l239 1358h135l751 -1190l209 1190h120l-239 -1358h-134l-751 1193l-210 -1193h-1l-22 -123q-24 -140 -109.5 -218.5t-213.5 -78.5z" />
    <glyph glyph-name="Gcaron" unicode="&#x1e6;" horiz-adv-x="1573" 
d="M807 -20q-197 0 -339 91q-145 92 -206 251q-63 159 -28 356q34 196 153 357q117 161 292 252q173 91 368 91q180 0 318 -81.5t213 -229.5l-105 -68q-69 129 -185 198.5t-261 69.5q-158 2 -303.5 -75.5t-244 -214t-124.5 -299.5q-32 -163 20 -299.5t172 -214t281 -74.5
q120 0 228 40.5t185 110.5q153 140 201 324h-512l19 108h636q-18 -144 -85.5 -272.5t-171.5 -222.5q-103 -93 -239 -145.5t-282 -52.5zM1026 1474l-198 368h123l129 -256l223 256h123l-328 -368h-72z" />
    <glyph glyph-name="gcaron" unicode="&#x1e7;" horiz-adv-x="1295" 
d="M512 -420q-128 0 -230.5 44.5t-166.5 128.5l92 79q116 -143 324 -143q188 0 317 96q130 98 158 260l25 140q-73 -91 -188 -148t-247 -57q-133 -3 -234.5 64t-145.5 184t-17 253q37 211 202 355t372 144q128 0 223.5 -55t138.5 -147l32 182h120l-156 -887
q-41 -226 -207 -359q-167 -134 -412 -134zM317 481q-29 -167 59 -278q87 -113 248 -113q169 0 303 113t162 278q29 166 -65 277q-94 112 -263 112q-161 0 -288 -112q-128 -113 -156 -277zM841 1082h-72l-198 368h123l129 -256l223 256h123z" />
    <glyph glyph-name="uni01EA" unicode="&#x1ea;" horiz-adv-x="1620" 
d="M818 -20h-17q-195 0 -337 88q-142 87 -204 246q-62 158 -27 358q36 201 155 364q119 161 292 252q173 90 368 90q198 0 342 -90q144 -92 205 -252q62 -163 26 -364q-43 -254 -220 -437t-420 -235q-102 -56 -170 -121q-67 -62 -76 -113q-12 -69 51 -90.5t176 26.5l16 -94
q-80 -45 -181 -45q-99 0 -145.5 49.5t-31.5 136.5q22 127 198 231zM353 672q-24 -124 0.5 -233.5t87.5 -186.5t162 -120.5t218 -41.5q252 0 443 163q191 164 236 419q46 259 -87 428q-133 168 -384 168q-159 2 -304.5 -75.5t-244.5 -215.5t-127 -305z" />
    <glyph glyph-name="uni01EB" unicode="&#x1eb;" horiz-adv-x="1238" 
d="M600 -20q-137 0 -240.5 68.5t-148 183.5t-18.5 248q38 213 209 356q171 144 389 144q141 2 248 -65t153.5 -183t20.5 -252q-32 -175 -155 -304q-124 -132 -296 -177q-102 -56 -169 -120q-67 -62 -76 -113q-12 -69 51 -90.5t176 26.5l16 -94q-79 -45 -181 -45
q-99 0 -145.5 49.5t-31.5 136.5q22 127 198 231zM473 758q-132 -113 -160 -278t63 -277q92 -113 258 -113t299 113q132 114 160 277q29 165 -63 278q-91 112 -259 112t-298 -112z" />
    <glyph glyph-name="Aringacute" unicode="&#x1fa;" horiz-adv-x="1359" 
d="M365 347l-206 -347h-122l802 1358h157l324 -1358h-122l-84 347h-749zM898 1250l-470 -796h661zM1107 1547q-73 -60 -166 -60q-91 0 -144 60t-37 146q15 87 89 148q73 60 165 60t145 -60q52 -59 37 -148q-17 -89 -89 -146zM859 1693q-9 -52 18 -85.5t80 -33.5t92 33.5
t48 85.5t-18 86.5t-80 34.5t-92 -34.5t-48 -86.5zM1098 1962h-107l201 334h138z" />
    <glyph glyph-name="aringacute" unicode="&#x1fb;" horiz-adv-x="1117" 
d="M473 -20q-159 0 -247 79q-89 78 -67 208t155 216q131 86 313 86q83 0 163 -21t127 -55l16 90q24 134 -45 211q-70 76 -209 76q-86 0 -176.5 -41.5t-161.5 -112.5l-62 76q85 87 198 138q114 50 221 50q192 0 290 -104q97 -103 67 -276l-106 -600h-116l31 174
q-58 -88 -163 -141q-106 -53 -228 -53zM280 273q-16 -92 44.5 -143t185.5 -51q140 0 254 96q112 95 135 219q-37 36 -117 58q-79 22 -169 22q-134 0 -225 -55q-92 -56 -108 -146zM902 1145q-74 -60 -166 -60t-144 60q-53 60 -37 146q15 87 89 148q74 60 165 60q93 0 145 -60
q52 -59 37 -148q-17 -89 -89 -146zM654 1291q-9 -52 18 -85.5t80 -33.5t92 33.5t48 85.5t-18 86.5t-80 34.5t-92 -34.5t-48 -86.5zM872 1567h-107l201 334h138z" />
    <glyph glyph-name="AEacute" unicode="&#x1fc;" horiz-adv-x="1868" 
d="M396 347l-274 -347h-139l1079 1358h954l-19 -108h-766l-86 -492h661l-20 -109h-661l-95 -541h788l-19 -108h-908l61 347h-556zM971 454l140 796l-630 -796h490zM1618 1473h-107l201 334h138z" />
    <glyph glyph-name="aeacute" unicode="&#x1fd;" horiz-adv-x="1876" 
d="M467 -20q-155 0 -240 79q-86 78 -64 208t152 216q128 86 306 86q83 0 163 -21t127 -55l16 90q24 134 -45 211q-70 76 -209 76q-83 0 -171 -41.5t-157 -112.5l-62 76q82 86 193 138q111 50 216 50q141 0 231 -59.5t114 -166.5q85 106 199.5 166t237.5 60q209 0 313 -128
q103 -128 70 -319q-8 -43 -21 -83h-819q-17 -159 73 -259q90 -101 240 -101q99 0 194.5 44t168.5 123l78 -65q-85 -103 -210 -157q-123 -55 -253 -55q-143 0 -246 68.5t-146 186.5q-76 -117 -195 -186t-254 -69zM284 273q-16 -92 42 -143t178 -51q140 0 254 96
q112 95 135 219q-37 36 -117 58q-79 22 -169 22q-130 0 -218 -55q-89 -56 -105 -146zM1042 552h700q18 140 -65 229t-223 89q-144 0 -259 -88q-117 -88 -153 -230zM1136 1113h-107l201 334h138z" />
    <glyph glyph-name="Oslashacute" unicode="&#x1fe;" horiz-adv-x="1620" 
d="M268 -36l132 151q-109 94 -153 239t-14 318q36 201 155 364q119 161 292 252q173 90 368 90q213 0 364 -106l162 186l71 -58l-163 -187q95 -97 132 -237t7 -304q-35 -201 -153 -358q-118 -159 -293 -246q-175 -88 -374 -88q-185 0 -325 81l-139 -159zM482 209l848 970
q-124 89 -301 89q-159 2 -304.5 -75.5t-244.5 -215.5t-127 -305q-26 -144 8 -264t121 -199zM1398 1118l-840 -963q113 -65 263 -65q252 0 443 163q191 164 236 419q24 134 -3 249t-99 197zM1386 1807l-232 -334h-107l201 334h138z" />
    <glyph glyph-name="oslashacute" unicode="&#x1ff;" horiz-adv-x="1238" 
d="M365 46l-160 -162l-66 60l156 159q-69 69 -95.5 167.5t-6.5 209.5q38 213 209 356q171 144 389 144q168 0 280 -88l186 189l67 -64l-187 -190q112 -142 76 -347q-38 -212 -209 -356q-172 -144 -390 -144q-142 0 -249 66zM384 193l599 610q-88 67 -212 67
q-168 0 -298 -112q-132 -113 -160 -278q-30 -174 71 -287zM1046 735l-592 -599q79 -46 180 -46q166 0 299 113q132 114 160 277q26 150 -47 255zM1113 1447l-232 -334h-107l201 334h138z" />
    <glyph glyph-name="uni0218" unicode="&#x218;" horiz-adv-x="1220" 
d="M165 259l101 68q53 -114 155.5 -175.5t236.5 -61.5q88 -2 170.5 27.5t141 86.5t70.5 129q10 56 -3.5 98t-58.5 77.5t-104 63.5t-160 64q-218 78 -306 163q-89 86 -65 223q15 83 65.5 153t123.5 114q148 89 314 89q163 0 269 -67q107 -68 152 -170l-105 -68
q-42 95 -128.5 144.5t-207.5 49.5q-128 0 -235 -65q-107 -66 -126 -178q-17 -93 56 -154q72 -62 249 -123q247 -85 331 -175q85 -92 60 -237q-15 -82 -64.5 -151t-122.5 -113q-151 -91 -336 -91q-167 0 -296 75t-177 204zM675 -128l-119 -380h-98l81 380h136z" />
    <glyph glyph-name="uni0219" unicode="&#x219;" horiz-adv-x="987" 
d="M136 178l104 72q36 -75 107.5 -118t170.5 -43q108 0 185 44q75 43 89 117q13 73 -40 111q-55 38 -184 68q-126 30 -196 70q-41 21 -67 52q-53 63 -36 162q12 77 72 140t146.5 96t179.5 31q109 0 194 -45q84 -44 122 -111l-93 -73q-34 56 -97 89t-145 33q-103 0 -173 -43
q-71 -44 -84 -113q-14 -77 40 -112q53 -36 193 -72q152 -40 226 -97q85 -67 63 -186q-19 -118 -142 -195.5t-273 -74.5q-132 0 -227 52.5t-135 145.5zM417 -508h-98l81 380h136z" />
    <glyph glyph-name="uni021A" unicode="&#x21a;" horiz-adv-x="1154" 
d="M516 0l220 1248h-461l19 110h1042l-19 -110h-461l-220 -1248h-120zM505 -508h-98l81 380h136z" />
    <glyph glyph-name="uni021B" unicode="&#x21b;" horiz-adv-x="797" 
d="M400 854h-183l18 106h182l55 308h122l-55 -308h338l-18 -106h-338l-99 -557q-18 -104 19.5 -156.5t118.5 -52.5q96 0 180 40l-3 -103q-29 -16 -88 -32q-56 -13 -115 -13q-134 0 -198 74.5t-40 213.5zM377 -508h-98l81 380h136z" />
    <glyph glyph-name="uni0232" unicode="&#x232;" horiz-adv-x="1254" 
d="M661 539l-380 819h145l317 -694l561 694h145l-668 -818l-95 -540h-120zM1216 1668l-19 -106h-592l19 106h592z" />
    <glyph glyph-name="uni0233" unicode="&#x233;" horiz-adv-x="1064" 
d="M-10 -388l34 105q59 -27 139 -27q146 0 278 236l19 34l-240 1000h128l205 -852l495 852h132l-637 -1082q-93 -156 -185 -227t-205 -71q-111 0 -163 32zM1072 1332l-19 -106h-592l19 106h592z" />
    <glyph glyph-name="uni0237" unicode="&#x237;" horiz-adv-x="488" 
d="M-38 -420q-90 0 -139 25l34 103q48 -20 117 -20q158 0 193 200l189 1072h120l-191 -1083q-24 -140 -109.5 -218.5t-213.5 -78.5z" />
    <glyph glyph-name="uni0259" unicode="&#x259;" horiz-adv-x="1180" 
d="M566 -19q-209 -1 -316 129t-71 318q8 43 21 83h830q16 160 -75 260t-245 100q-101 0 -197.5 -44t-169.5 -123l-77 65q86 102 211 158q124 54 254 54q217 0 336 -144q118 -145 81 -356q-38 -215 -204 -357q-167 -143 -378 -143zM1005 409h-711q-18 -140 66 -229t225 -89
q147 0 266 89q120 90 154 229z" />
    <glyph glyph-name="uni0272" unicode="&#x272;" horiz-adv-x="1224" 
d="M-47 -420q-90 0 -139 25l34 103q48 -20 117 -20q158 0 193 200l20 112h1l169 960h120l-29 -167q70 91 170.5 139t210.5 48q187 0 280 -102t59 -292l-103 -586h-120l97 550q55 318 -252 318q-140 0 -250 -91t-136 -233l-96 -544h-1l-22 -123q-24 -140 -109.5 -218.5
t-213.5 -78.5z" />
    <glyph glyph-name="circumflex" unicode="&#x2c6;" horiz-adv-x="878" 
d="M745 1727l-224 -256h-123l328 368h72l198 -368h-123z" />
    <glyph glyph-name="caron" unicode="&#x2c7;" horiz-adv-x="878" 
d="M661 1467l-198 368h123l128 -256l224 256h123l-328 -368h-72z" />
    <glyph glyph-name="breve" unicode="&#x2d8;" horiz-adv-x="794" 
d="M659 1492q-111 0 -173 72q-62 70 -48 186h111q-8 -69 28 -113t100 -44t115 43.5t69 113.5h111q-25 -115 -113 -186q-87 -72 -200 -72z" />
    <glyph glyph-name="dotaccent" unicode="&#x2d9;" horiz-adv-x="431" 
d="M544 1562q-25 -21 -58 -21t-50 21q-18 21 -12 54t31 54q24 21 57 21t51 -21t12 -54t-31 -54z" />
    <glyph glyph-name="ring" unicode="&#x2da;" horiz-adv-x="716" 
d="M785 1547q-73 -60 -166 -60q-91 0 -144 60t-37 146q15 87 89 148q73 60 165 60t145 -60q52 -59 37 -148q-17 -89 -89 -146zM537 1693q-9 -52 18 -85.5t80 -33.5t92 33.5t48 85.5t-18 86.5t-80 34.5t-92 -34.5t-48 -86.5z" />
    <glyph glyph-name="ogonek" unicode="&#x2db;" horiz-adv-x="611" 
d="M253 -437q-99 0 -145.5 49.5t-31.5 136.5q15 82 92 154t200 125l70 -28q-105 -58 -171 -121q-67 -62 -76 -113q-12 -69 51 -90.5t176 26.5l16 -94q-80 -45 -181 -45z" />
    <glyph glyph-name="tilde" unicode="&#x2dc;" horiz-adv-x="935" 
d="M480 1548l-58 56q113 125 221 125q57 0 130 -40q74 -41 114 -41q37 0 68 18t76 61l58 -56q-113 -125 -216 -125q-55 0 -132 41q-76 40 -117 40q-37 0 -68 -18t-76 -61z" />
    <glyph glyph-name="hungarumlaut" unicode="&#x2dd;" horiz-adv-x="906" 
d="M822 1473h-96l211 334h147zM757 1807l-262 -334h-96l211 334h147z" />
    <glyph glyph-name="acutecomb" unicode="&#x301;" horiz-adv-x="560" 
d="M682 2277h138l-231 -334h-107z" />
    <glyph glyph-name="uni030A" unicode="&#x30a;" horiz-adv-x="716" 
d="M785 1547q-73 -60 -166 -60q-91 0 -144 60t-37 146q15 87 89 148q73 60 165 60t145 -60q52 -59 37 -148q-17 -89 -89 -146zM537 1693q-9 -52 18 -85.5t80 -33.5t92 33.5t48 85.5t-18 86.5t-80 34.5t-92 -34.5t-48 -86.5z" />
    <glyph glyph-name="dotbelowcomb" unicode="&#x323;" horiz-adv-x="431" 
d="M210 -336q-26 -21 -59 -21t-50 21t-12 54q6 33 31 54t58 21t50.5 -21t11.5 -54q-4 -33 -30 -54z" />
    <glyph glyph-name="uni0326" unicode="&#x326;" horiz-adv-x="430" 
d="M147 -508h-98l81 380h136z" />
    <glyph glyph-name="uni03BC" unicode="&#x3bc;" horiz-adv-x="1246" 
d="M227 -400h-119l240 1360h119l-97 -549q-56 -317 257 -317q143 0 255 91q111 90 136 232l95 543h121l-169 -960h-120l30 168q-71 -93 -175 -140q-105 -48 -213 -48q-205 0 -273 108z" />
    <glyph glyph-name="pi" unicode="&#x3c0;" horiz-adv-x="1258" 
d="M416 988h-178l20 115h1062l-20 -115h-187l-112 -639q-28 -156 6 -214q35 -59 158 -50l-17 -98q-25 -4 -60 -4q-265 0 -209 317l121 688h-470l-174 -987h-114z" />
    <glyph glyph-name="Wgrave" unicode="&#x1e80;" horiz-adv-x="2096" 
d="M645 0h-145l-186 1358h127l162 -1208l619 1208h128l193 -1208l588 1208h127l-664 -1358h-145l-189 1206zM1343 1473h-107l-114 334h138z" />
    <glyph glyph-name="wgrave" unicode="&#x1e81;" horiz-adv-x="1642" 
d="M538 0h-156l-147 960h128l116 -851l445 841h128l147 -842l416 852h128l-485 -960h-156l-146 774zM945 1121l-114 334h138l83 -334h-107z" />
    <glyph glyph-name="Wacute" unicode="&#x1e82;" horiz-adv-x="2096" 
d="M645 0h-145l-186 1358h127l162 -1208l619 1208h128l193 -1208l588 1208h127l-664 -1358h-145l-189 1206zM1604 1807l-232 -334h-107l201 334h138z" />
    <glyph glyph-name="wacute" unicode="&#x1e83;" horiz-adv-x="1642" 
d="M538 0h-156l-147 960h128l116 -851l445 841h128l147 -842l416 852h128l-485 -960h-156l-146 774zM1316 1447l-232 -334h-107l201 334h138z" />
    <glyph glyph-name="Wdieresis" unicode="&#x1e84;" horiz-adv-x="2096" 
d="M645 0h-145l-186 1358h127l162 -1208l619 1208h128l193 -1208l588 1208h127l-664 -1358h-145l-189 1206zM1552 1562q-25 -21 -58 -21t-50 21q-18 21 -12 54t31 54q24 21 57 21t51 -21t12 -54t-31 -54zM1202 1562q-25 -21 -58 -21t-50 21q-18 21 -12 54t31 54q24 21 57 21
t51 -21t12 -54t-31 -54z" />
    <glyph glyph-name="wdieresis" unicode="&#x1e85;" horiz-adv-x="1642" 
d="M538 0h-156l-147 960h128l116 -851l445 841h128l147 -842l416 852h128l-485 -960h-156l-146 774zM1266 1225q-29 -20 -59 -21t-50 21t-11 54q5 33 30 54t58 21t50.5 -21t12.5 -54q-6 -33 -31 -54zM916 1225q-29 -20 -59 -21t-50 21t-11 54q5 33 30 54t58 21t50.5 -21
t12.5 -54q-6 -33 -31 -54z" />
    <glyph glyph-name="Germandbls" unicode="&#x1e9e;" horiz-adv-x="1421" 
d="M307 0h-120l147 836q43 244 226 393q182 149 438 149q155 0 268 -64q114 -65 154 -174l-11 -60l-510 -368h121q184 0 281 -99q98 -101 70 -257q-29 -167 -166 -271q-137 -105 -325 -105q-118 0 -211 48q-95 48 -138 126l103 77q41 -65 110 -103t156 -38q135 0 232 73
q98 72 117 187q20 114 -54 185q-73 70 -214 70h-245l20 118l538 390q-33 70 -122 112q-88 42 -199 42q-198 0 -341 -121t-178 -315z" />
    <glyph glyph-name="uni1EA0" unicode="&#x1ea0;" horiz-adv-x="1359" 
d="M159 0h-122l802 1358h157l324 -1358h-122l-84 347h-749zM898 1250l-470 -796h661zM674 -336q-26 -21 -59 -21t-50 21t-12 54q6 33 31 54t58 21t50.5 -21t11.5 -54q-4 -33 -30 -54z" />
    <glyph glyph-name="uni1EA1" unicode="&#x1ea1;" horiz-adv-x="1117" 
d="M473 -20q-159 0 -247 79q-89 78 -67 208t155 216q131 86 313 86q83 0 163 -21t127 -55l16 90q24 134 -45 211q-70 76 -209 76q-86 0 -176.5 -41.5t-161.5 -112.5l-62 76q85 87 198 138q114 50 221 50q192 0 290 -104q97 -103 67 -276l-106 -600h-116l31 174
q-58 -88 -163 -141q-106 -53 -228 -53zM280 273q-16 -92 44.5 -143t185.5 -51q140 0 254 96q112 95 135 219q-37 36 -117 58q-79 22 -169 22q-134 0 -225 -55q-92 -56 -108 -146zM544 -336q-26 -21 -59 -21t-50 21t-12 54q6 33 31 54t58 21t50.5 -21t11.5 -54
q-4 -33 -30 -54z" />
    <glyph glyph-name="uni1EB8" unicode="&#x1eb8;" horiz-adv-x="1227" 
d="M1130 108l-19 -108h-908l239 1358h886l-19 -108h-766l-86 -492h661l-20 -109h-661l-95 -541h788zM677 -336q-25 -21 -58.5 -21t-50.5 21q-16 21 -12 54q6 33 31 54t58 21t50.5 -21t11.5 -54q-5 -33 -30 -54z" />
    <glyph glyph-name="uni1EB9" unicode="&#x1eb9;" horiz-adv-x="1180" 
d="M610 -20q-218 0 -336 145q-118 143 -80 355q22 138 108 254t212 182t262 64q139 0 236.5 -60t134.5 -162q36 -100 15 -225q-8 -43 -21 -83h-830q-17 -159 76 -259q92 -101 245 -101q101 0 197 44t169 123l78 -65q-87 -103 -211 -157q-123 -55 -255 -55zM756 870
q-147 0 -265 -88q-119 -89 -155 -230h711q18 140 -65 229q-84 89 -226 89zM586 -336q-26 -21 -59 -21t-50 21t-12 54q6 33 31 54t58 21t50.5 -21t11.5 -54q-4 -33 -30 -54z" />
    <glyph glyph-name="uni1EBC" unicode="&#x1ebc;" horiz-adv-x="1227" 
d="M1111 0h-908l239 1358h886l-19 -108h-766l-86 -492h661l-20 -109h-661l-95 -541h788zM666 1548l-58 56q113 125 221 125q57 0 130 -40q74 -41 114 -41q37 0 68 18t76 61l58 -56q-113 -125 -216 -125q-55 0 -132 41q-76 40 -117 40q-37 0 -68 -18t-76 -61z" />
    <glyph glyph-name="uni1EBD" unicode="&#x1ebd;" horiz-adv-x="1180" 
d="M610 -20q-218 0 -336 145q-118 143 -80 355q22 138 108 254t212 182t262 64q139 0 236.5 -60t134.5 -162q36 -100 15 -225q-8 -43 -21 -83h-830q-17 -159 76 -259q92 -101 245 -101q101 0 197 44t169 123l78 -65q-87 -103 -211 -157q-123 -55 -255 -55zM336 552h711
q18 140 -65 229q-84 89 -226 89q-147 0 -265 -88q-119 -89 -155 -230zM539 1188l-58 56q113 125 221 125q57 0 130 -40q74 -41 114 -41q37 0 68 18t76 61l58 -56q-113 -125 -216 -125q-55 0 -132 41q-76 40 -117 40q-37 0 -68 -18t-76 -61z" />
    <glyph glyph-name="uni1ECA" unicode="&#x1eca;" horiz-adv-x="528" 
d="M562 1358l-239 -1358h-120l239 1358h120zM265 -336q-25 -21 -58.5 -21t-50.5 21q-16 21 -12 54q6 33 31 54t58 21t50.5 -21t11.5 -54q-5 -33 -30 -54z" />
    <glyph glyph-name="uni1ECB" unicode="&#x1ecb;" horiz-adv-x="480" 
d="M468 960l-169 -960h-120l169 960h120zM510 1228q-25 -21 -58 -21t-50 21q-18 21 -12 54t31 54q24 21 57 21t51 -21t12 -54t-31 -54zM235 -336q-26 -21 -59 -21t-50 21q-16 21 -12 54q6 33 31 54t58 21t50.5 -21t11.5 -54q-5 -33 -30 -54z" />
    <glyph glyph-name="uni1ECC" unicode="&#x1ecc;" horiz-adv-x="1620" 
d="M801 -20q-195 0 -337 88q-142 87 -204 246q-62 158 -27 358q36 201 155 364q119 161 292 252q173 90 368 90q198 0 342 -90q144 -92 205 -252q62 -163 26 -364q-35 -201 -153 -358q-118 -159 -293 -246q-175 -88 -374 -88zM353 672q-24 -124 0.5 -233.5t87.5 -186.5
t162 -120.5t218 -41.5q252 0 443 163q191 164 236 419q46 259 -87 428q-133 168 -384 168q-159 2 -304.5 -75.5t-244.5 -215.5t-127 -305zM805 -336q-25 -21 -58.5 -21t-50.5 21q-16 21 -12 54q6 33 31 54t58 21t50.5 -21t11.5 -54q-5 -33 -30 -54z" />
    <glyph glyph-name="uni1ECD" unicode="&#x1ecd;" horiz-adv-x="1238" 
d="M614 -20q-141 -2 -248 65t-153.5 183t-19.5 252q38 213 209 356q171 144 389 144q141 2 248 -65t153.5 -183t20.5 -252q-38 -212 -209 -356q-172 -144 -390 -144zM473 758q-132 -113 -160 -278t63 -277q92 -113 258 -113t299 113q132 114 160 277q29 165 -63 278
q-91 112 -259 112t-298 -112zM614 -336q-26 -21 -59 -21t-50 21t-12 54q6 33 31 54t58 21t50.5 -21t11.5 -54q-4 -33 -30 -54z" />
    <glyph glyph-name="uni1EE4" unicode="&#x1ee4;" horiz-adv-x="1574" 
d="M782 -20q-262 0 -392 142q-130 141 -90 373l152 863h119l-152 -863q-31 -181 72 -292t311 -111t351 111q142 109 174 292l152 863h119l-152 -863q-40 -232 -220 -374q-180 -141 -444 -141zM775 -336q-25 -21 -58.5 -21t-50.5 21q-16 21 -12 54q6 33 31 54t58 21t50.5 -21
t11.5 -54q-5 -33 -30 -54z" />
    <glyph glyph-name="uni1EE5" unicode="&#x1ee5;" horiz-adv-x="1214" 
d="M566 -20q-184 0 -276 102q-92 103 -58 292l103 586h120l-97 -550q-56 -318 247 -318q137 0 247 92t134 232l96 544h120l-169 -960h-120l29 167q-68 -91 -167.5 -139t-208.5 -48zM578 -336q-26 -21 -59 -21t-50 21t-12 54q6 33 31 54t58 21t50.5 -21t11.5 -54
q-4 -33 -30 -54z" />
    <glyph glyph-name="Ygrave" unicode="&#x1ef2;" horiz-adv-x="1254" 
d="M661 539l-380 819h145l317 -694l561 694h145l-668 -818l-95 -540h-120zM938 1473h-107l-114 334h138z" />
    <glyph glyph-name="ygrave" unicode="&#x1ef3;" horiz-adv-x="1064" 
d="M-10 -388l34 105q59 -27 139 -27q146 0 278 236l19 34l-240 1000h128l205 -852l495 852h132l-637 -1082q-93 -156 -185 -227t-205 -71q-111 0 -163 32zM763 1121h-107l-114 334h138z" />
    <glyph glyph-name="uni1EF8" unicode="&#x1ef8;" horiz-adv-x="1254" 
d="M661 539l-380 819h145l317 -694l561 694h145l-668 -818l-95 -540h-120zM640 1548l-58 56q113 125 221 125q57 0 130 -40q74 -41 114 -41q37 0 68 18t76 61l58 -56q-113 -125 -216 -125q-55 0 -132 41q-76 40 -117 40q-37 0 -68 -18t-76 -61z" />
    <glyph glyph-name="uni1EF9" unicode="&#x1ef9;" horiz-adv-x="1064" 
d="M153 -420q-111 0 -163 32l34 105q59 -27 139 -27q146 0 278 236l19 34l-240 1000h128l205 -852l495 852h132l-637 -1082q-93 -156 -185 -227t-205 -71zM477 1188l-58 56q113 125 221 125q57 0 130 -40q74 -41 114 -41q37 0 68 18t76 61l58 -56q-113 -125 -216 -125
q-55 0 -132 41q-76 40 -117 40q-37 0 -68 -18t-76 -61z" />
    <glyph glyph-name="uni2000" unicode="&#x2000;" horiz-adv-x="1148" 
 />
    <glyph glyph-name="uni2001" unicode="&#x2001;" horiz-adv-x="2296" 
 />
    <glyph glyph-name="uni2002" unicode="&#x2002;" horiz-adv-x="1148" 
 />
    <glyph glyph-name="uni2003" unicode="&#x2003;" horiz-adv-x="2296" 
 />
    <glyph glyph-name="uni2004" unicode="&#x2004;" horiz-adv-x="765" 
 />
    <glyph glyph-name="uni2005" unicode="&#x2005;" horiz-adv-x="574" 
 />
    <glyph glyph-name="uni2006" unicode="&#x2006;" horiz-adv-x="382" 
 />
    <glyph glyph-name="uni2007" unicode="&#x2007;" horiz-adv-x="382" 
 />
    <glyph glyph-name="uni2008" unicode="&#x2008;" horiz-adv-x="287" 
 />
    <glyph glyph-name="uni2009" unicode="&#x2009;" horiz-adv-x="459" 
 />
    <glyph glyph-name="uni200A" unicode="&#x200a;" horiz-adv-x="127" 
 />
    <glyph glyph-name="uni2010" unicode="&#x2010;" horiz-adv-x="964" 
d="M265 637h656l-21 -119h-656z" />
    <glyph glyph-name="uni2011" unicode="&#x2011;" horiz-adv-x="964" 
d="M265 637h656l-21 -119h-656z" />
    <glyph glyph-name="figuredash" unicode="&#x2012;" horiz-adv-x="964" 
d="M265 637h656l-21 -119h-656z" />
    <glyph glyph-name="endash" unicode="&#x2013;" horiz-adv-x="1294" 
d="M265 637h986l-21 -119h-986z" />
    <glyph glyph-name="emdash" unicode="&#x2014;" horiz-adv-x="2336" 
d="M265 637h2028l-21 -119h-2028z" />
    <glyph glyph-name="quoteleft" unicode="&#x2018;" horiz-adv-x="420" 
d="M585 1428l-182 -434h-125l202 434h105z" />
    <glyph glyph-name="quoteright" unicode="&#x2019;" horiz-adv-x="412" 
d="M286 994l182 434h125l-202 -434h-105z" />
    <glyph glyph-name="quotesinglbase" unicode="&#x201a;" horiz-adv-x="407" 
d="M-3 -255l183 434h125l-202 -434h-106z" />
    <glyph glyph-name="quotedblleft" unicode="&#x201c;" horiz-adv-x="650" 
d="M815 1428l-182 -434h-125l202 434h105zM585 1428l-182 -434h-125l202 434h105z" />
    <glyph glyph-name="quotedblright" unicode="&#x201d;" horiz-adv-x="642" 
d="M621 994h-105l182 434h125zM391 994h-105l182 434h125z" />
    <glyph glyph-name="quotedblbase" unicode="&#x201e;" horiz-adv-x="641" 
d="M332 -255h-105l182 434h125zM304 179l-202 -434h-105l182 434h125z" />
    <glyph glyph-name="dagger" unicode="&#x2020;" horiz-adv-x="776" 
d="M538 1197h-232l18 104h232l54 306h119l-54 -306h234l-18 -104h-234l-122 -690h-119z" />
    <glyph glyph-name="daggerdbl" unicode="&#x2021;" horiz-adv-x="847" 
d="M446 477l47 264h-232l18 104h232l75 425h-232l18 104h232l47 264h119l-47 -264h234l-18 -104h-234l-75 -425h234l-18 -104h-234l-47 -264h-119z" />
    <glyph glyph-name="bullet" unicode="&#x2022;" horiz-adv-x="612" 
d="M396 521q-66 0 -101.5 43t-23.5 109q12 67 63 111q49 43 116 43q68 0 104 -43.5t24 -110.5q-12 -65 -63 -109q-52 -43 -119 -43z" />
    <glyph glyph-name="ellipsis" unicode="&#x2026;" horiz-adv-x="1237" 
d="M1093 14q-25 -21 -58 -21t-50 21q-18 21 -12 54t31 54q24 21 57 21t51 -21t12 -54t-31 -54zM673 14q-25 -21 -58 -21t-50 21q-18 21 -12 54t31 54q24 21 57 21t51 -21t12 -54t-31 -54zM255 14q-25 -21 -58 -21t-50 21q-18 21 -12 54t31 54q24 21 57 21t51 -21t12 -54
t-31 -54z" />
    <glyph glyph-name="uni202F" unicode="&#x202f;" horiz-adv-x="459" 
 />
    <glyph glyph-name="perthousand" unicode="&#x2030;" horiz-adv-x="2615" 
d="M1641 79q-117 -99 -266 -99t-231 99q-83 98 -57 242q25 144 143 244q118 98 266 98q149 0 232 -98q82 -98 56 -244q-26 -144 -143 -242zM2438 79q-117 -99 -266 -99q-148 0 -231 99q-83 98 -57 242q25 144 143 244q118 98 266 98q149 0 232 -98q82 -98 56 -244
q-26 -144 -143 -242zM824 793q-118 -98 -266 -98q-150 0 -232 99q-83 98 -57 242q25 144 143 244q118 98 266 98q149 0 232 -98q82 -98 56 -244q-25 -145 -142 -243zM1195 321q-18 -101 38 -171q55 -70 160 -70t185 70q81 69 99 171t-38 173q-57 69 -161 69t-184 -69
q-81 -71 -99 -173zM377 1036q-18 -101 38 -171q55 -70 160 -70t185 70q81 69 99 171t-38 173q-57 69 -161 69t-184 -69q-81 -71 -99 -173zM1992 321q-18 -101 38 -171q55 -70 160 -70t185 70q81 69 99 171t-38 173q-57 69 -161 69q-105 0 -184 -69q-81 -71 -99 -173z
M1561 1334l-967 -1334h-105l5 26l968 1332h103z" />
    <glyph glyph-name="guilsinglleft" unicode="&#x2039;" horiz-adv-x="642" 
d="M343 480l194 -394h-130l-202 394l341 395h130z" />
    <glyph glyph-name="guilsinglright" unicode="&#x203a;" horiz-adv-x="642" 
d="M605 480l-342 -394h-130l334 394l-195 395h130z" />
    <glyph glyph-name="fraction" unicode="&#x2044;" horiz-adv-x="374" 
d="M-125 0h-105l5 26l968 1332h103l-4 -24z" />
    <glyph glyph-name="uni205F" unicode="&#x205f;" horiz-adv-x="574" 
 />
    <glyph glyph-name="uni2070" unicode="&#x2070;" horiz-adv-x="877" 
d="M791 630q-113 -116 -262 -116q-150 0 -222 116t-36 316q36 201 148 316q113 116 262 116q152 0 222 -115q71 -116 35 -317t-147 -316zM381 946q-27 -151 20 -242q46 -90 145 -90q98 0 177 90q78 90 105 242q27 154 -19 243q-46 90 -145 90q-98 0 -178 -90t-105 -243z" />
    <glyph glyph-name="uni2074" unicode="&#x2074;" horiz-adv-x="817" 
d="M597 534l38 216h-431l15 82l521 526h112l-90 -511h121l-17 -97h-121l-38 -216h-110zM652 847l63 353l-352 -353h289z" />
    <glyph glyph-name="uni2075" unicode="&#x2075;" horiz-adv-x="770" 
d="M461 514q-99 0 -166 46.5t-92 132.5l103 56q18 -61 64 -97t109 -36q82 0 143 49q60 48 72 120q15 81 -26 131t-128 50q-88 0 -167 -63l-84 36l113 419h468l-17 -97h-373l-65 -242q65 44 154 44q129 0 196 -75q68 -77 46 -201q-21 -120 -120 -197q-100 -76 -230 -76z" />
    <glyph glyph-name="uni2076" unicode="&#x2076;" horiz-adv-x="822" 
d="M513 513q-155 0 -219.5 97.5t-32.5 280.5q47 258 173 377q117 110 278 110q51 0 107.5 -16t93.5 -44l-56 -88q-66 48 -169 48q-208 0 -300 -305q95 104 236 104q124 0 193 -78q68 -80 46 -201q-23 -126 -120 -205q-100 -80 -230 -80zM372 794q-14 -81 30 -131
q44 -51 126 -51q83 0 146 51q63 50 76 131q14 81 -26.5 132t-120.5 51q-89 0 -153 -50q-65 -51 -78 -133z" />
    <glyph glyph-name="uni2077" unicode="&#x2077;" horiz-adv-x="693" 
d="M353 534h-120q209 387 494 726h-425l17 98h545l-15 -90q-306 -368 -496 -734z" />
    <glyph glyph-name="uni2078" unicode="&#x2078;" horiz-adv-x="813" 
d="M496 514q-126 0 -203 65t-57 177q26 141 171 208q-98 62 -78 178q19 108 111 173q90 63 208 63t187 -63q67 -64 48 -173q-21 -117 -139 -178q121 -69 96 -208q-18 -110 -118.5 -177t-225.5 -65zM348 759q-12 -67 34.5 -106t130.5 -39q81 0 143 38q61 37 73 107
q14 76 -32 118.5t-130 42.5t-144.5 -42.5t-74.5 -118.5zM441 1140q-10 -59 29.5 -95t112.5 -36t125.5 36t62.5 95q12 64 -27.5 101t-113.5 37q-73 0 -125 -37t-64 -101z" />
    <glyph glyph-name="uni2079" unicode="&#x2079;" horiz-adv-x="821" 
d="M233 573l57 88q64 -48 168 -48q209 0 301 305q-96 -104 -236 -104q-125 0 -192 79q-69 79 -47 200q23 126 120 205q98 80 229 80q155 0 219.5 -97.5t32.5 -280.5q-47 -258 -172 -376q-118 -111 -279 -111q-51 0 -107.5 16t-93.5 44zM396 1097q-14 -81 26.5 -132
t120.5 -51q89 0 154 51q64 50 77 132q15 81 -29 132q-44 50 -126 50q-83 0 -145 -50q-63 -51 -78 -132z" />
    <glyph glyph-name="uni2080" unicode="&#x2080;" horiz-adv-x="877" 
d="M696 96q-113 -116 -262 -116q-150 0 -221 116q-72 116 -36 316q34 199 148 316q113 116 262 116q151 0 221 -115q71 -116 36 -317q-36 -201 -148 -316zM287 412q-27 -151 20 -242q47 -90 145 -90t177 90q78 90 105 242q26 154 -20 243q-46 90 -145 90t-177 -90
q-80 -90 -105 -243z" />
    <glyph glyph-name="uni2081" unicode="&#x2081;" horiz-adv-x="498" 
d="M346 0h-110l126 713h-174l19 111h284z" />
    <glyph glyph-name="uni2082" unicode="&#x2082;" horiz-adv-x="762" 
d="M674 98l-17 -98h-559l9 52q13 74 76.5 142.5t173.5 142.5q18 12 63 39q51 32 72 46q27 17 62 46q67 56 79 122q12 69 -26 111t-109 42q-58 0 -111.5 -35t-92.5 -98l-86 46q43 84 130 136q86 52 180 52q117 0 183 -69t45 -183q-12 -73 -67 -137q-19 -23 -67 -61
q-48 -37 -79 -57q-72 -47 -101 -65q-166 -103 -190 -174h432z" />
    <glyph glyph-name="uni2083" unicode="&#x2083;" horiz-adv-x="774" 
d="M119 158l106 54q18 -62 63 -96.5t109 -34.5q67 0 125 39t68 102q12 67 -33 107t-127 40h-110l17 96h110q73 0 125.5 38t64.5 106q11 62 -26.5 98t-105.5 36q-129 0 -208 -124l-87 51q47 78 130 126t184 48q114 0 182 -62t48 -171q-11 -62 -55 -111.5t-114 -80.5
q64 -24 99 -80q33 -55 22 -119q-19 -111 -115 -176q-95 -64 -212 -64q-99 0 -168 47t-92 131z" />
    <glyph glyph-name="uni2084" unicode="&#x2084;" horiz-adv-x="819" 
d="M503 0l38 216h-431l15 82l521 526h112l-90 -511h121l-17 -97h-121l-38 -216h-110zM558 313l62 353l-351 -353h289z" />
    <glyph glyph-name="uni2085" unicode="&#x2085;" horiz-adv-x="770" 
d="M366 -20q-98 0 -165 46.5t-92 132.5l103 56q19 -62 64 -97.5t108 -35.5q82 0 143 49q61 48 73 120q15 81 -26 131t-128 50q-90 0 -167 -63l-85 36l114 419h468l-17 -97h-373l-65 -242q65 44 154 44q129 0 196 -75q68 -77 46 -201q-21 -121 -121 -197t-230 -76z" />
    <glyph glyph-name="uni2086" unicode="&#x2086;" horiz-adv-x="823" 
d="M420 -20q-155 0 -219.5 97.5t-32.5 280.5q47 258 173 377q117 110 278 110q51 0 107.5 -16t93.5 -44l-56 -88q-66 48 -169 48q-208 0 -300 -305q95 104 236 104q124 0 193 -78q68 -80 46 -201q-23 -126 -120 -205q-100 -80 -230 -80zM279 261q-14 -81 30 -131
q43 -51 126 -51t146 51q63 50 76 131q14 81 -26.5 132t-120.5 51q-89 0 -153 -50q-65 -51 -78 -133z" />
    <glyph glyph-name="uni2087" unicode="&#x2087;" horiz-adv-x="694" 
d="M259 0h-120q205 382 494 726h-425l17 98h545l-16 -90q-304 -367 -495 -734z" />
    <glyph glyph-name="uni2088" unicode="&#x2088;" horiz-adv-x="814" 
d="M402 -20q-126 0 -202 65t-57 177q26 141 171 208q-99 62 -78 178q19 108 111 173q90 63 208 63t187 -63q67 -64 48 -173q-21 -117 -139 -178q121 -69 96 -208q-19 -110 -120 -177t-225 -65zM255 225q-12 -67 34.5 -106t130.5 -39q81 0 143 38q61 37 73 107
q14 76 -32 118.5t-130 42.5t-144.5 -42.5t-74.5 -118.5zM348 606q-10 -59 29.5 -95t112.5 -36t125 36t63 95q12 64 -27.5 101t-113.5 37q-73 0 -125 -37t-64 -101z" />
    <glyph glyph-name="uni2089" unicode="&#x2089;" horiz-adv-x="823" 
d="M140 39l56 88q66 -48 169 -48q209 0 301 305q-96 -104 -237 -104q-125 0 -192 79q-68 79 -46 200q23 126 120 205q98 80 229 80q155 0 219.5 -97.5t32.5 -280.5q-47 -258 -172 -376q-118 -111 -279 -111q-51 0 -107.5 16t-93.5 44zM380 695q-64 -51 -77 -132t27 -132
t120 -51q90 0 154 51q64 50 77 132q13 81 -30 132q-44 50 -126 50q-83 0 -145 -50z" />
    <glyph glyph-name="Euro" unicode="&#x20ac;" horiz-adv-x="1477" 
d="M371 513h-158l18 100h147q7 69 24 137h-147l18 100h159q86 243 266 386q179 142 392 142q158 0 273.5 -79.5t177.5 -231.5l-108 -61q-111 261 -363 261q-164 0 -303 -111t-213 -306h598l-18 -100h-611q-17 -68 -24 -137h611l-18 -100h-598q5 -199 107 -310
q102 -113 268 -113q255 0 458 258l85 -58q-113 -149 -259.5 -229.5t-303.5 -80.5q-215 0 -347 144q-132 145 -131 389z" />
    <glyph glyph-name="trademark" unicode="&#x2122;" horiz-adv-x="1443" 
d="M878 818h-85l104 590h99l134 -433l285 433h99l-104 -590h-85l76 431l-261 -389h-61l-125 388zM428 818l90 510h-197l14 80h479l-14 -80h-197l-90 -510h-85z" />
    <glyph glyph-name="estimated" unicode="&#x212e;" horiz-adv-x="1781" 
d="M912 -20q-216 0 -394 93q-180 94 -280 253q-102 160 -102 351q0 190 104 353q103 160 283 255q179 93 389 93q157 0 301 -57t248 -152q103 -96 165 -227q61 -129 61 -274v-23h-1257q-11 0 -11 -9v-359q0 -24 17 -47q184 -177 478 -177q150 0 279.5 51.5t219.5 147.5h113
q-105 -125 -265 -198q-162 -74 -349 -74zM419 1077v-351q0 -13 11 -13h966q6 0 6 13v358q0 23 -17 46q-86 84 -209.5 129.5t-261.5 45.5q-294 0 -475 -175q-20 -25 -20 -53z" />
    <glyph glyph-name="onethird" unicode="&#x2153;" horiz-adv-x="1748" 
d="M1077 158l106 54q18 -62 63 -96.5t109 -34.5q67 0 125 39t68 102q12 67 -33 107t-127 40h-110l17 96h110q73 0 125.5 38t64.5 106q11 62 -26.5 98t-105.5 36q-129 0 -208 -124l-87 51q47 78 130 126t184 48q114 0 182 -62t48 -171q-11 -62 -55 -111.5t-114 -80.5
q64 -24 99 -80q33 -55 22 -119q-19 -111 -115 -176q-95 -64 -212 -64q-99 0 -168 47t-92 131zM1437 1334l-967 -1334h-105l5 26l968 1332h103zM553 1243h-174l20 111h284l-146 -824h-110z" />
    <glyph glyph-name="twothirds" unicode="&#x2154;" horiz-adv-x="1842" 
d="M1185 158l106 54q18 -62 63 -96.5t109 -34.5q66 0 125 39q58 39 68 102q12 67 -33 107t-127 40h-110l17 96h110q73 0 125.5 38t64.5 106q11 62 -26.5 98t-105.5 36q-129 0 -208 -124l-87 51q47 78 130 126t184 48q114 0 182 -62t48 -171q-11 -62 -55 -111.5t-114 -80.5
q64 -24 99 -80q33 -55 22 -119q-19 -111 -115 -176q-95 -64 -212 -64q-99 0 -168 47t-92 131zM764 540h-559l9 52q13 74 76.5 142t174.5 143q19 13 63 39q26 15 71 46q26 18 62 46q66 53 79 122q12 69 -26 111t-109 42q-58 0 -111 -35t-93 -98l-86 46q43 83 131 136
q85 52 179 52q117 0 183 -69t46 -183q-18 -98 -102 -170q-50 -43 -88 -69q-37 -26 -125 -81q-166 -103 -190 -174h432zM631 0h-105l5 26l968 1332h103l-4 -24z" />
    <glyph glyph-name="minus" unicode="&#x2212;" horiz-adv-x="1185" 
d="M272 751h903l-21 -121h-903z" />
    <glyph glyph-name="uni2215" unicode="&#x2215;" horiz-adv-x="845" 
d="M111 0h-105l5 26l968 1332h103l-4 -24z" />
    <glyph glyph-name="uni2219" unicode="&#x2219;" horiz-adv-x="469" 
d="M355 381q-29 -20 -59 -21t-50 21t-11 54q5 33 30 54t58 21t50.5 -21t12.5 -54q-6 -33 -31 -54z" />
    <glyph glyph-name="approxequal" unicode="&#x2248;" horiz-adv-x="1238" 
d="M296 341l-63 86q63 60 145 100q81 40 159 40q108 0 198 -55q88 -56 175 -56q91 0 208 99l63 -86q-61 -59 -144 -99q-84 -41 -160 -41q-110 0 -198 56q-90 55 -175 55q-91 0 -208 -99zM355 791l-62 86q64 61 144 100q81 40 159 40q107 0 199 -55q88 -56 175 -56
q90 0 207 99l63 -86q-62 -59 -144 -99q-84 -41 -160 -41q-110 0 -198 56q-90 55 -175 55q-91 0 -208 -99z" />
    <glyph glyph-name="notequal" unicode="&#x2260;" horiz-adv-x="1326" 
d="M548 361h-327l21 123h381l240 390h-552l22 123h606l189 305l77 -34l-168 -271h306l-22 -123h-361l-242 -390h534l-21 -123h-588l-206 -331l-71 36z" />
    <glyph glyph-name="lessequal" unicode="&#x2264;" horiz-adv-x="1343" 
d="M397 628h875l-21 -115h-1012l29 162l1098 488l-24 -134zM184 198h1012l-22 -123h-1012z" />
    <glyph glyph-name="greaterequal" unicode="&#x2265;" horiz-adv-x="1346" 
d="M271 513l21 115h874l-804 401l24 134l926 -488l-29 -162h-1012zM194 75l22 123h1012l-22 -123h-1012z" />
    <glyph glyph-name="uni25FC" unicode="&#x25fc;" horiz-adv-x="960" 
d="M0 0v960h960v-960h-960z" />
    <glyph glyph-name="foundryicon" horiz-adv-x="2281" 
d="M1582 553v349h66l8 -24l7 7q22 22 60 22q48 0 75.5 -35t27.5 -94q0 -60 -33 -96.5t-88 -36.5q-25 0 -42 10v-102h-81zM665 655v-102h-82v349h65l9 -24l8 7q19 22 58 22q48 0 75.5 -34.5t27.5 -94.5t-32.5 -96.5t-88.5 -36.5q-24 0 -40 10zM988 645q-57 0 -91 35t-34 93
q0 61 34 97.5t94 36.5t94 -34.5t34 -94.5q0 -61 -35 -97t-96 -36zM1384 638l-9 27l-89 237h89l51 -173h3l41 173h88l-80 -257q-19 -54 -48.5 -78t-77.5 -24q-33 0 -60 13l9 59q30 -6 46 -6q31 0 37 29zM1989 645q-59 0 -93.5 35t-34.5 93q0 61 34.5 97.5t93.5 36.5
q47 0 74 -26t27 -69q0 -31 -8 -52h-139q4 -49 55 -49q37 0 69 13l17 -58q-39 -21 -95 -21zM189 951v71h295v-71h-112v-302h-80v302h-103zM1168 649v302h-101v71h283v-71h-101v-302h-81zM438 649v253h81v-253h-81zM990 849q-45 0 -45 -71q0 -75 46 -75q45 0 45 72
q0 74 -46 74zM1799 376q-2 26 15.5 44t39.5 18t39 -17q25 -27 11 -69t-51 -38q-23 0 -38.5 17t-15.5 45zM1087 376q0 27 15.5 44.5t39.5 17.5q23 0 38.5 -17.5t15.5 -44.5t-15 -44.5t-40 -17.5q-24 0 -39 17t-15 45zM1696 844q-20 0 -33 -12v-117q17 -9 33 -9q21 0 33.5 19
t12.5 50q0 69 -46 69zM665 832v-117q9 -9 30 -9q48 0 48 69t-46 69q-20 0 -32 -12zM1853 431q-19 0 -31.5 -15t-12.5 -39q0 -25 12.5 -40.5t32.5 -15.5q19 0 31.5 14.5t12.5 38.5q0 26 -12.5 41.5t-32.5 15.5zM1110 417q-21 -23 -9.5 -61.5t41.5 -34.5q19 0 31.5 14.5
t12.5 38.5q0 26 -12.5 41.5t-32.5 15.5q-19 0 -31 -14zM995 316h-9v120h34q39 0 39 -35q0 -16 -11 -25.5t-29 -9.5h-24v-50zM1446 316v120h34q39 0 39 -35t-41 -35h-23v-50h-9zM262 316l-39 120h9l35 -110l35 105h9l35 -105l35 110h10l-40 -120h-10l-34 104l-35 -104h-10z
M1956 316h-8v120h14l45 -93l45 93h14v-120h-9v111l-46 -94h-8l-47 94v-111zM453 316l-39 120h9l35 -110l35 105h9l36 -105l34 110h10l-40 -120h-9l-35 104l-35 -104h-10zM654 316h-10l-39 120h9l35 -110l35 105h9l36 -105l35 110h9l-40 -120h-9l-35 104zM1983 849
q-36 0 -40 -46h70q4 21 -4 33.5t-26 12.5zM1478 430h-23v-58h25q30 0 30 28q0 30 -32 30zM1019 430h-24v-58h25q30 0 30 28q0 30 -31 30zM1683 376q0 27 16 44.5t42 17.5q16 0 27 -7l-1 -24h-6l-1 21q-12 3 -19 3q-22 0 -35 -14t-13 -40q0 -56 53 -56q13 0 22 4l3 -6
q-13 -5 -27 -5q-28 0 -44.5 17t-16.5 45zM1622 316h-67v120h65v-6h-57v-50h55v-7h-55v-51h59v-6zM1362 316v47l-42 73h10l37 -66l37 66h9l-42 -73v-47h-9zM1218 430v6h83v-6h-37v-114h-9v114h-37zM851 430h-38v6h84v-6h-38v-114h-8v114zM930 316v120h9v-120h-9zM1662 321
q0 -7 -7 -7t-7 7t7 7t7 -7zM804 321q0 -7 -7 -7t-7 7t7 7t7 -7z" />
    <glyph glyph-name="IJacute" horiz-adv-x="1574" 
d="M607 148l92 81q46 -66 115 -102.5t148 -36.5q150 0 250 100q101 99 132 277l157 891h120l-160 -909q-37 -219 -176 -344q-140 -125 -343 -125q-108 0 -197 46q-91 45 -138 122zM562 1358l-239 -1358h-120l239 1358h120zM1871 1807l-232 -334h-107l201 334h138zM816 1807
l-232 -334h-107l201 334h138z" />
    <glyph glyph-name="i.TRK" horiz-adv-x="480" 
d="M468 960l-169 -960h-120l169 960h120zM510 1228q-25 -21 -58 -21t-50 21q-18 21 -12 54t31 54q24 21 57 21t51 -21t12 -54t-31 -54z" />
    <glyph glyph-name="ijacute" horiz-adv-x="988" 
d="M323 -395l34 103q48 -20 117 -20q158 0 193 200l189 1072h120l-191 -1083q-24 -140 -109.5 -218.5t-213.5 -78.5q-90 0 -139 25zM468 960l-169 -960h-120l169 960h120zM1235 1447l-232 -334h-107l201 334h138zM723 1447l-232 -334h-107l201 334h138z" />
    <glyph glyph-name="zero.slash" horiz-adv-x="1254" 
d="M1151 1242l192 232l73 -55l-213 -259q92 -185 39 -481q-57 -324 -235 -511q-179 -188 -416 -188q-169 0 -278 100l-159 -194l-72 59l171 207q-125 190 -65 527q57 324 235 511q179 188 415 188q201 0 313 -136zM342 261l723 876q-86 128 -247 128q-178 0 -321 -158
q-142 -159 -189 -428q-46 -258 34 -418zM1109 1046l-711 -864q83 -87 214 -87q179 0 322 158q142 158 188 426q38 220 -13 367z" />
    <glyph glyph-name="Q.alt" horiz-adv-x="1620" 
d="M801 -20q-195 0 -337 88q-142 87 -204 246q-62 158 -27 358q36 201 155 364q119 161 292 252q173 90 368 90q198 0 342 -90q144 -92 205 -252q62 -163 26 -364q-41 -230 -187 -400q-146 -171 -358 -245l295 -312l-97 -89l-341 364q-69 -10 -132 -10zM353 672
q-24 -124 0.5 -233.5t87.5 -186.5t162 -120.5t218 -41.5q252 0 443 163q191 164 236 419q46 259 -87 428q-133 168 -384 168q-159 2 -304.5 -75.5t-244.5 -215.5t-127 -305z" />
    <glyph glyph-name="y.alt" horiz-adv-x="1072" 
d="M465 -38l-244 998h132l206 -854l498 854h132l-803 -1360h-131z" />
    <glyph glyph-name="yacute.alt" horiz-adv-x="1072" 
d="M465 -38l-244 998h132l206 -854l498 854h132l-803 -1360h-131zM771 1113h-107l201 334h138z" />
    <glyph glyph-name="ycircumflex.alt" horiz-adv-x="1072" 
d="M465 -38l-244 998h132l206 -854l498 854h132l-803 -1360h-131zM764 1341l-223 -256h-123l328 368h72l198 -368h-123z" />
    <glyph glyph-name="ydieresis.alt" horiz-adv-x="1072" 
d="M465 -38l-244 998h132l206 -854l498 854h132l-803 -1360h-131zM962 1229q-25 -21 -58 -21t-50 21q-18 21 -12 54t31 54q24 21 57 21t51 -21t12 -54t-31 -54zM612 1229q-25 -21 -58 -21t-50 21q-18 21 -12 54t31 54q24 21 57 21t51 -21t12 -54t-31 -54z" />
    <glyph glyph-name="ygrave.alt" horiz-adv-x="1072" 
d="M465 -38l-244 998h132l206 -854l498 854h132l-803 -1360h-131zM675 1121l-114 334h138l83 -334h-107z" />
    <glyph glyph-name="ymacron.alt" horiz-adv-x="1072" 
d="M465 -38l-244 998h132l206 -854l498 854h132l-803 -1360h-131zM1064 1302l-19 -106h-592l19 106h592z" />
    <glyph glyph-name="ytilde.alt" horiz-adv-x="1072" 
d="M465 -38l-244 998h132l206 -854l498 854h132l-803 -1360h-131zM477 1188l-58 56q113 125 221 125q57 0 130 -40q74 -41 114 -41q37 0 68 18t76 61l58 -56q-113 -125 -216 -125q-55 0 -132 41q-76 40 -117 40q-37 0 -68 -18t-76 -61z" />
    <glyph glyph-name="zero.slash.tnum" 
d="M1205 1265l173 209l73 -55l-188 -228q114 -187 58 -512q-57 -324 -238 -511q-182 -188 -423 -188q-187 0 -299 115l-172 -209l-72 59l186 225q-112 189 -56 509q57 324 238 511q182 188 422 188q187 0 298 -113zM1173 1081l-727 -883q88 -103 235 -103q183 0 329 158
q145 158 191 426q43 244 -28 402zM394 281l727 882q-89 102 -234 102q-184 0 -328 -158q-145 -159 -192 -428q-43 -241 27 -398z" />
    <glyph glyph-name="zero.tnum" 
d="M660 -20q-241 0 -355 188q-115 187 -58 511t238 511q182 188 422 188q242 0 357 -187q114 -188 57 -512t-238 -511q-182 -188 -423 -188zM367 679q-47 -269 42 -426q89 -158 272 -158t329 158q145 158 191 426q47 270 -41 428q-89 158 -273 158t-328 -158
q-145 -159 -192 -428z" />
    <glyph glyph-name="one.tnum" 
d="M1132 111l-20 -111h-860l20 111h382l200 1136h-347l19 111h467l-219 -1247h358z" />
    <glyph glyph-name="two.tnum" 
d="M1128 112l-20 -112h-872l11 61q15 86 83 182q24 33 70.5 78t85.5 77q40 33 92 69q67 46 89 60q11 7 40.5 26t47.5 30q34 22 58 37q4 2 55 35q32 21 55 39q71 53 97 81q55 57 74 92q30 56 40 106q22 129 -52 212q-75 82 -217 82q-105 0 -197.5 -55.5t-155.5 -154.5l-96 52
q70 119 199 195q128 74 268 74q194 0 299 -112q104 -114 73 -289q-22 -118 -100 -214q-35 -42 -95 -93q-64 -52 -117 -89q-59 -41 -147 -96q-373 -234 -412 -373h744z" />
    <glyph glyph-name="three.tnum" 
d="M262 237l113 62q66 -208 309 -208q126 -3 238 73.5t131 192.5q23 126 -65 201t-240 73h-151l20 112h151q135 0 237 69q102 68 125 199q20 114 -53 185q-74 71 -209 71q-223 0 -355 -201l-97 56q70 109 194 183q122 73 281 73q186 0 288 -102q101 -103 73 -262
q-19 -109 -97 -196q-77 -87 -192 -126q113 -32 173 -123q59 -94 38 -213q-21 -117 -101 -205q-79 -88 -185 -129q-106 -42 -220 -42q-157 0 -263.5 67t-142.5 190z" />
    <glyph glyph-name="four.tnum" 
d="M948 363h-703l18 103l841 892h138l-156 -886h204l-19 -109h-204l-64 -364h-119zM1097 1206l-687 -734h557z" />
    <glyph glyph-name="five.tnum" 
d="M246 237l113 62q30 -98 110.5 -153t197.5 -55q154 0 269 91q116 91 140 229q26 145 -54 234q-81 88 -241 88q-163 0 -287 -94l-103 45l182 674h722l-19 -112h-619l-135 -491q116 86 296 86q203 0 308 -119t71 -311q-33 -187 -188 -309t-362 -122q-154 0 -259.5 67
t-141.5 190z" />
    <glyph glyph-name="six.tnum" 
d="M718 -20q-241 0 -346 158t-54 450q87 490 354 677q160 113 369 113q190 0 302 -85l-61 -102q-115 77 -267 77q-206 0 -352 -145q-158 -156 -225 -495q67 104 184 171q116 65 252 65q204 0 317 -122q112 -123 78 -316q-34 -196 -191 -321t-360 -125zM437 419
q-26 -146 59 -237t237 -91q153 0 269 91q118 92 143 237q26 147 -58 241q-85 93 -237 93t-269 -93q-119 -95 -144 -241z" />
    <glyph glyph-name="seven.tnum" 
d="M482 0h-135q335 645 833 1245h-720l19 113h849l-20 -118q-508 -617 -826 -1240z" />
    <glyph glyph-name="eight.tnum" 
d="M1020 86q-151 -106 -360 -106t-322 106q-114 106 -85 273q43 244 316 348q-91 44 -134 120.5t-25 181.5q19 113 95 199q74 84 179 127q104 42 223 42q184 0 291 -98q106 -99 76 -270q-18 -105 -88 -181.5t-177 -120.5q235 -105 192 -348q-28 -166 -181 -273zM375 366
q-22 -124 61 -200q82 -75 244 -75q160 0 270 75q109 75 132 200q25 141 -62 218q-86 76 -240 76q-211 0 -327 -130q-61 -67 -78 -164zM529 1004q-19 -112 57 -179t212 -67t236 67q100 68 119 179q22 124 -54 193q-77 69 -212 69t-236 -69q-99 -68 -122 -193z" />
    <glyph glyph-name="nine.tnum" 
d="M304 65l61 102q115 -77 268 -77q206 0 353 146q157 155 224 494q-69 -105 -185 -170q-115 -66 -252 -66q-203 0 -316 123q-113 122 -79 315q35 197 191 322q155 124 360 124q240 0 347 -158q105 -158 54 -450q-36 -207 -107 -362t-168 -248q-190 -180 -449 -180
q-187 0 -302 85zM503 939q-26 -148 59 -240q84 -94 236 -94t270 94q118 93 143 240q25 145 -60 237q-85 91 -237 91q-154 0 -269 -91q-116 -91 -142 -237z" />
    <glyph glyph-name="plus.tnum" 
d="M632 151l83 471h-473l21 119h473l81 464h117l-81 -464h475l-21 -119h-475l-83 -471h-117z" />
    <glyph glyph-name="minus.tnum" 
d="M345 751h903l-21 -121h-903z" />
    <glyph glyph-name="plusminus.tnum" 
d="M687 457l69 394h-441l21 119h441l68 386h117l-68 -386h443l-21 -119h-443l-69 -394h-117zM1214 185l-22 -121h-1033l22 121h1033z" />
    <glyph glyph-name="equal.tnum" 
d="M335 997h1010l-22 -123h-1010zM244 484h1010l-21 -123h-1010z" />
    <glyph glyph-name="notequal.tnum" 
d="M550 361h-327l21 123h381l240 390h-552l22 123h606l189 305l77 -34l-168 -271h306l-22 -123h-361l-242 -390h534l-21 -123h-588l-206 -331l-71 36z" />
    <glyph glyph-name="approxequal.tnum" 
d="M342 341l-63 86q63 60 145 100q81 40 159 40q108 0 198 -55q88 -56 175 -56q91 0 208 99l63 -86q-61 -59 -144 -99q-84 -41 -160 -41q-110 0 -198 56q-90 55 -175 55q-91 0 -208 -99zM401 791l-62 86q64 61 144 100q81 40 159 40q107 0 199 -55q88 -56 175 -56
q90 0 207 99l63 -86q-62 -59 -144 -99q-84 -41 -160 -41q-110 0 -198 56q-90 55 -175 55q-91 0 -208 -99z" />
    <glyph glyph-name="multiply.tnum" 
d="M1274 1151l67 -82l-478 -407l335 -407l-96 -82l-336 407l-478 -407l-68 82l479 407l-336 407l97 82l335 -407z" />
    <glyph glyph-name="less.tnum" 
d="M423 678l759 -351l-23 -129l-849 398l28 160l992 412l-23 -128z" />
    <glyph glyph-name="greater.tnum" 
d="M1229 596l-989 -398l23 129l883 351l-758 362l23 128l846 -412z" />
    <glyph glyph-name="lessequal.tnum" 
d="M406 628h875l-21 -115h-1012l29 162l1098 488l-24 -134zM193 198h1012l-22 -123h-1012z" />
    <glyph glyph-name="greaterequal.tnum" 
d="M248 513l21 115h874l-804 401l24 134l926 -488l-29 -162h-1012zM171 75l22 123h1012l-22 -123h-1012z" />
    <glyph glyph-name="divide.tnum" 
d="M1261 620h-976l21 119h976zM898 1013q-25 -21 -58 -21t-50 21q-18 21 -12 54t31 54q24 21 57 21t51 -21t12 -54t-31 -54zM762 239q-29 -20 -59 -21t-50 21t-11 54q5 33 30 54t58 21t50.5 -21t12.5 -54q-6 -33 -31 -54z" />
    <glyph glyph-name="logicalnot.tnum" 
d="M1277 448h-117l72 410h-950l21 120h1067z" />
    <glyph glyph-name="numbersign.tnum" 
d="M387 376h-256l35 96h256l158 444h-257l34 95h256l124 347h114l-123 -347h338l123 347h115l-123 -347h260l-34 -95h-259l-158 -444h259l-36 -96h-257l-133 -377h-116l133 377h-337l-133 -377h-116zM695 916l-158 -444h337l159 444h-338z" />
    <glyph glyph-name="dollar.tnum" 
d="M219 259l101 68q44 -95 123 -153.5t183 -76.5l98 555q-192 73 -271 157q-79 82 -56 213q28 153 160 247q133 94 295 107l28 160h110l-28 -161q132 -12 224.5 -75.5t134.5 -158.5l-105 -68q-73 166 -274 190l-93 -525q230 -83 311 -171q80 -91 55 -232q-20 -108 -95 -188
q-77 -82 -180 -122q-105 -40 -224 -45l-28 -156h-110l28 161q-139 18 -242 91q-105 73 -145 183zM827 614l-92 -523q133 4 237 71q102 65 122 171q18 100 -43 160q-60 59 -224 121zM519 1024q-15 -80 39 -138t188 -110l86 488q-116 -12 -206 -75q-91 -65 -107 -165z" />
    <glyph glyph-name="Euro.tnum" 
d="M293 513h-158l18 100h147q7 69 24 137h-147l18 100h159q86 243 266 386q179 142 392 142q158 0 273.5 -79.5t177.5 -231.5l-108 -61q-111 261 -363 261q-164 0 -303 -111t-213 -306h598l-18 -100h-611q-17 -68 -24 -137h611l-18 -100h-598q5 -199 107 -310
q102 -113 268 -113q255 0 458 258l85 -58q-113 -149 -259.5 -229.5t-303.5 -80.5q-215 0 -347 144q-132 145 -131 389z" />
    <glyph glyph-name="yen.tnum" 
d="M604 0l44 251h-351l18 100h351l26 151h-350l17 100h311l-351 756h145l317 -694l561 694h145l-617 -756h312l-17 -100h-353l-26 -151h352l-18 -100h-352l-44 -251h-120z" />
    <glyph glyph-name="sterling.tnum" 
d="M1182 112l-20 -112h-972l20 115q67 43 98 66q34 25 73 64q69 69 92 193l35 196h-199l17 100h196l44 247q32 180 168 288q136 107 316 107q136 0 228 -66t119 -186l-112 -53q-56 191 -250 191q-133 0 -228 -81t-119 -215l-41 -232h399l-17 -100h-398l-29 -163
q-17 -102 -63 -191q-53 -103 -170 -168h813z" />
    <glyph glyph-name="currency.tnum" 
d="M278 171l-61 73l218 182q-58 112 -37 230q19 113 115 226l-151 178l89 76l146 -176q133 77 247 77q120 0 225 -78l207 176l60 -75l-212 -177q31 -51 40 -102q8 -50 -3 -125q-12 -62 -39.5 -113.5t-80.5 -115.5l156 -183l-91 -74l-151 182q-122 -73 -245 -73
q-118 0 -215 75zM499 655q-19 -108 49 -185t181 -77q116 0 214 77q95 76 115 185q19 112 -48 191q-69 79 -187 79q-114 0 -209 -78q-96 -80 -115 -192z" />
    <glyph glyph-name="florin.tnum" 
d="M318 -20q-41 0 -89 13q-54 16 -81 36l57 91q55 -36 132 -36q97 0 173.5 65.5t111.5 181.5l134 444h-195l29 97h198l46 155q49 164 154.5 252.5t259.5 88.5q41 0 90 -13q51 -13 81 -36l-57 -91q-56 36 -132 36q-96 0 -173 -65.5t-113 -181.5l-43 -145h300l-29 -97h-297
l-136 -454q-49 -163 -157.5 -252t-263.5 -89z" />
    <glyph glyph-name="cent.tnum" 
d="M638 1l32 181q-189 22 -290 163q-100 139 -66 333q34 193 184 332q148 137 347 163l29 167h111l-29 -163q123 -8 213 -71t130 -168l-103 -60q-35 79 -103.5 128.5t-155.5 58.5l-137 -775q89 10 175 59.5t147 125.5l83 -59q-73 -98 -187 -162q-112 -63 -237 -74l-32 -179
h-111zM435 678q-25 -147 45 -255q71 -108 209 -131l136 769q-148 -26 -256 -131t-134 -252z" />
    <glyph glyph-name="mu.tnum" 
d="M269 -400h-119l240 1360h119l-97 -549q-56 -317 257 -317q143 0 255 91q111 90 136 232l95 543h121l-169 -960h-120l30 168q-71 -93 -175 -140q-105 -48 -213 -48q-205 0 -273 108z" />
    <glyph glyph-name="pi.tnum" 
d="M473 988h-178l20 115h1062l-20 -115h-187l-112 -639q-28 -156 6 -214q35 -59 158 -50l-17 -98q-25 -4 -60 -4q-265 0 -209 317l121 688h-470l-174 -987h-114z" />
    <glyph glyph-name="degree.tnum" 
d="M783 678q-149 0 -233 101q-85 99 -59 247q26 149 146 251q121 101 269 101q149 0 235 -101q84 -102 58 -251q-25 -146 -146 -247t-270 -101zM605 1026q-18 -102 39 -172q55 -70 157 -70q101 0 181 70q81 71 99 172q18 104 -38 175t-156 71t-182 -71q-82 -72 -100 -175z
" />
    <glyph glyph-name="ordmasculine.tnum" 
d="M1038 850q-107 -89 -240 -89t-208 89q-76 88 -53 219q22 129 130 220q107 89 240 89t208 -89t52 -220t-129 -219zM643 1069q-15 -86 36 -145q50 -59 138 -59t159 59q70 58 85 145q16 85 -34 146q-50 59 -138 59t-159 -59q-70 -60 -87 -146zM1063 648l-18 -101h-570
l18 101h570z" />
    <glyph glyph-name="ordfeminine.tnum" 
d="M763 752q-93 0 -154 49t-46 137q17 90 101 139q85 49 196 49q95 0 167 -36l6 34q13 75 -27 119.5t-118 44.5q-105 0 -198 -93l-53 65q124 120 266 120q123 0 186 -67q62 -68 42 -178l-65 -371h-94l16 90q-41 -47 -103 -74.5t-122 -27.5zM659 941q-9 -52 25 -78.5
t103 -26.5t139 50q69 49 85 119q-24 19 -70 30.5t-94 11.5q-78 0 -129 -28.5t-59 -77.5zM1045 649l-17 -101h-532l17 101h532z" />
    <glyph glyph-name="zero.slash.onum" horiz-adv-x="1253" 
d="M322 62l-205 -207l-67 61l203 205q-148 156 -104 412q44 242 231 398q188 156 438 156q179 0 304 -86l205 207l67 -61l-203 -206q69 -75 95 -180t4 -228q-44 -243 -231 -397q-187 -156 -437 -156q-176 0 -300 82zM344 213l689 697q-97 67 -235 67q-195 0 -344 -125
q-149 -126 -183 -319t73 -320zM1100 849l-688 -696q96 -63 230 -63q195 0 344 125q147 124 182 318q33 193 -68 316z" />
    <glyph glyph-name="zero.onum" horiz-adv-x="1307" 
d="M649 -20q-162 -2 -281 69.5t-170.5 199.5t-21.5 284q44 242 231 398t438 156q249 0 382 -156q134 -156 90 -398q-44 -243 -231 -397q-188 -156 -437 -156zM481 852q-149 -126 -183 -319t71 -318q104 -125 300 -125q195 0 344 125q147 124 182 318q34 192 -70 319
q-105 125 -300 125t-344 -125z" />
    <glyph glyph-name="one.onum" horiz-adv-x="934" 
d="M930 111l-20 -111h-846l20 111h378l149 845h-347l19 111h467l-168 -956h348z" />
    <glyph glyph-name="two.onum" horiz-adv-x="1030" 
d="M984 110l-19 -110h-890l19 110l455 273q162 98 243 181t96 167q19 112 -44.5 176.5t-193.5 64.5q-96 0 -187 -54.5t-158 -152.5l-98 54q78 121 205 193q126 72 262 72q177 0 273 -98q95 -100 67 -254q-39 -218 -372 -417l-345 -205h687z" />
    <glyph glyph-name="three.onum" horiz-adv-x="1032" 
d="M48 -53l113 62q66 -208 309 -208q126 -3 238 73.5t131 192.5q23 126 -65 201t-240 73h-151l20 112h151q135 0 237 69q102 68 125 199q20 114 -53 185q-74 71 -209 71q-223 0 -355 -201l-97 56q70 109 194 183q122 73 281 73q186 0 288 -102q101 -103 73 -262
q-19 -109 -97 -196q-77 -87 -192 -126q113 -32 173 -123q59 -94 38 -213q-21 -117 -101 -206q-79 -87 -185 -129q-108 -41 -220 -41q-157 0 -264 67.5t-142 189.5z" />
    <glyph glyph-name="four.onum" horiz-adv-x="1107" 
d="M753 72h-703l18 103l841 892h138l-156 -886h204l-19 -109h-204l-64 -364h-119zM901 915l-686 -734h557z" />
    <glyph glyph-name="five.onum" horiz-adv-x="1015" 
d="M26 -54l113 62q31 -98 111.5 -153t197.5 -55q154 0 269 90q116 92 140 230q25 146 -54 234q-81 88 -241 88q-161 0 -288 -94l-103 45l183 674h722l-20 -112h-619l-134 -491q116 86 296 86q203 0 308 -119t71 -311q-33 -188 -188 -310q-154 -121 -362 -121
q-154 0 -260 67.5t-142 189.5z" />
    <glyph glyph-name="six.onum" horiz-adv-x="1122" 
d="M586 -20q-241 0 -346 158t-54 450q87 490 354 677q160 113 369 113q190 0 302 -85l-61 -102q-115 77 -267 77q-206 0 -352 -145q-158 -156 -225 -495q67 104 184 171q116 65 252 65q204 0 317 -122q112 -123 78 -316q-34 -196 -191 -321t-360 -125zM305 419
q-26 -146 59 -237t237 -91q153 0 269 91q118 92 143 237q26 147 -58 241q-85 93 -237 93t-269 -93q-119 -95 -144 -241z" />
    <glyph glyph-name="seven.onum" horiz-adv-x="895" 
d="M219 -291h-135q336 646 832 1245h-720l20 113h849l-21 -118q-507 -618 -825 -1240z" />
    <glyph glyph-name="eight.onum" horiz-adv-x="1105" 
d="M907 86q-151 -106 -360 -106t-322 106q-114 106 -85 273q43 244 316 348q-91 44 -134 120.5t-25 181.5q19 113 95 199q74 84 179 127q103 42 223 42q184 0 291 -98q106 -99 76 -270q-18 -105 -88 -181.5t-177 -120.5q236 -105 192 -348q-28 -166 -181 -273zM262 366
q-22 -124 61 -200q83 -75 244 -75t270 75t132 200q25 141 -62 218q-86 76 -240 76q-211 0 -327 -130q-61 -67 -78 -164zM416 1004q-19 -112 57 -179t212 -67t236 67q100 68 119 179q22 124 -54 193t-212 69t-236 -69q-99 -68 -122 -193z" />
    <glyph glyph-name="nine.onum" horiz-adv-x="1120" 
d="M90 -224l60 102q115 -77 268 -77q205 0 353 145q157 157 224 495q-69 -105 -185 -170q-116 -66 -252 -66q-204 0 -316 123q-112 121 -79 315q35 197 191 322q155 124 360 124q240 0 347 -158q105 -157 54 -450q-87 -489 -353 -677q-162 -113 -370 -113q-190 0 -302 85z
M288 650q-26 -148 59 -240q84 -94 236 -94t270 94q118 93 143 240q26 146 -59 237t-238 91t-268 -91q-118 -92 -143 -237z" />
    <glyph glyph-name="plus.onum" horiz-adv-x="1281" 
d="M581 8l83 471h-473l21 119h473l82 464h117l-82 -464h475l-21 -119h-475l-83 -471h-117z" />
    <glyph glyph-name="minus.onum" horiz-adv-x="1153" 
d="M231 608h903l-21 -121h-903z" />
    <glyph glyph-name="plusminus.onum" horiz-adv-x="1282" 
d="M636 314l70 394h-441l21 119h441l68 386h117l-68 -386h443l-21 -119h-443l-70 -394h-117zM1163 42l-21 -121h-1033l21 121h1033z" />
    <glyph glyph-name="equal.onum" horiz-adv-x="1316" 
d="M303 854h1010l-22 -123h-1010zM212 341h1010l-22 -123h-1010z" />
    <glyph glyph-name="notequal.onum" horiz-adv-x="1292" 
d="M498 218h-327l22 123h381l240 390h-552l22 123h606l188 305l77 -34l-167 -271h306l-22 -123h-361l-242 -390h534l-22 -123h-588l-205 -331l-72 36z" />
    <glyph glyph-name="approxequal.onum" horiz-adv-x="1226" 
d="M324 648l-63 86q63 60 145 100q81 40 159 40q107 0 199 -55q88 -56 175 -56q90 0 207 99l63 -86q-61 -58 -144 -99q-84 -41 -160 -41q-110 0 -198 56q-90 55 -175 55q-91 0 -208 -99zM265 198l-63 86q63 60 145 100q81 40 159 40q108 0 198 -55q88 -56 175 -56
q91 0 208 99l62 -86q-63 -60 -143 -99q-84 -41 -160 -41q-110 0 -198 56q-92 55 -176 55q-90 0 -207 -99z" />
    <glyph glyph-name="multiply.onum" horiz-adv-x="1172" 
d="M1170 1008l67 -82l-478 -407l335 -407l-97 -82l-335 407l-479 -407l-67 82l479 407l-336 407l97 82l335 -407z" />
    <glyph glyph-name="less.onum" horiz-adv-x="1169" 
d="M300 535l759 -351l-22 -129l-849 398l28 160l992 412l-23 -128z" />
    <glyph glyph-name="greater.onum" horiz-adv-x="1169" 
d="M1139 453l-989 -398l22 129l883 351l-757 362l23 128l846 -412z" />
    <glyph glyph-name="lessequal.onum" horiz-adv-x="1322" 
d="M358 485h875l-21 -115h-1012l29 162l1098 488l-24 -134zM145 55h1012l-22 -123h-1012z" />
    <glyph glyph-name="greaterequal.onum" horiz-adv-x="1324" 
d="M238 370l21 115h874l-804 401l24 134l926 -488l-29 -162h-1012zM161 -68l22 123h1012l-22 -123h-1012z" />
    <glyph glyph-name="divide.onum" horiz-adv-x="1226" 
d="M1184 477h-976l21 119h976zM826 870q-25 -21 -58 -21t-50 21q-18 21 -12 54t31 54q24 21 57 21t51 -21t12 -54t-31 -54zM690 96q-26 -21 -59 -21t-50 21t-12 54q6 33 31 54t58 21t50.5 -21t11.5 -54q-4 -33 -30 -54z" />
    <glyph glyph-name="logicalnot.onum" horiz-adv-x="1339" 
d="M1233 305h-117l72 410h-950l21 120h1067z" />
    <glyph glyph-name="numbersign.onum" horiz-adv-x="1363" 
d="M404 288h-259l35 96h258l114 321h-260l35 95h259l95 267h114l-95 -267h338l95 267h115l-95 -267h258l-35 -95h-257l-113 -321h257l-36 -96h-255l-102 -288h-116l102 288h-337l-102 -288h-116zM666 705l-113 -321h337l114 321h-338z" />
    <glyph glyph-name="dollar.onum" horiz-adv-x="1029" 
d="M156 220l104 65q67 -160 218 -186l69 392q-125 44 -194 107q-78 69 -58 188q21 121 123 194q104 75 231 88l25 142h111l-25 -143q98 -14 166.5 -67.5t98.5 -132.5l-98 -64q-24 57 -73 97.5t-114 54.5l-65 -371q78 -28 112 -44q36 -17 90 -55q94 -71 70 -209
q-23 -125 -131 -200q-109 -74 -247 -88l-26 -150h-111l27 150q-112 14 -191.5 77t-111.5 155zM652 456l-63 -358q89 12 155 60q66 46 78 117q11 59 -32 102.5t-138 78.5zM422 788q-10 -66 24 -100q33 -33 124 -67l59 336q-79 -14 -136 -59q-60 -47 -71 -110z" />
    <glyph glyph-name="Euro.onum" horiz-adv-x="1234" 
d="M333 384h-143l17 100h131q7 50 18 94h-136l18 100h150q70 179 213 289q143 108 314 108q125 0 212.5 -62.5t130.5 -180.5l-108 -58q-31 91 -96 140t-159 49q-116 0 -220 -77q-104 -78 -159 -208h418l-18 -100h-435q-12 -47 -18 -94h441l-17 -100h-426q7 -132 84 -212
t196 -80q188 0 325 176l85 -60q-75 -105 -192 -167q-115 -61 -238 -61q-178 0 -282 110q-103 109 -106 294z" />
    <glyph glyph-name="yen.onum" horiz-adv-x="1080" 
d="M513 192h-273l17 95h273l17 96h-273l16 95h253l-289 589h140l245 -499l421 499h140l-497 -589h270l-16 -95h-290l-17 -96h290l-17 -95h-290l-34 -192h-120z" />
    <glyph glyph-name="sterling.onum" horiz-adv-x="1023" 
d="M894 0h-766l18 101q90 56 138 113.5t60 132.5l25 139h-150l17 100h147l30 169q25 142 133 229q106 85 251 85q111 0 184.5 -55.5t95.5 -157.5l-105 -51q-42 155 -196 155q-93 0 -160 -56q-66 -55 -83 -150l-30 -168h310l-17 -100h-309l-21 -115q-32 -182 -149 -264h596z
" />
    <glyph glyph-name="currency.onum" horiz-adv-x="1198" 
d="M191 53l-61 73l218 182q-58 112 -37 230q19 113 115 226l-151 178l90 76l145 -176q133 77 247 77q120 0 225 -78l207 176l60 -75l-212 -177q31 -51 40 -102q8 -50 -3 -125q-12 -62 -39.5 -113.5t-80.5 -115.5l156 -183l-91 -74l-151 182q-122 -73 -245 -73
q-117 0 -214 75zM413 537q-19 -109 48 -185q68 -77 181 -77q116 0 214 77q96 77 116 185q19 112 -49 191q-69 79 -187 79q-115 0 -209 -79q-95 -80 -114 -191z" />
    <glyph glyph-name="florin.onum" horiz-adv-x="1191" 
d="M217 -159q-41 0 -90 13q-52 14 -80 36l57 91q56 -36 131 -36q96 0 173 65.5t113 181.5l133 444h-195l29 97h198l47 155q48 164 154 252.5t260 88.5q41 0 90 -13q52 -14 80 -36l-57 -91q-56 36 -132 36q-97 0 -173.5 -65.5t-111.5 -181.5l-44 -145h300l-29 -97h-297
l-136 -454q-49 -164 -157 -252.5t-263 -88.5z" />
    <glyph glyph-name="cent.onum" horiz-adv-x="1178" 
d="M552 -129l32 182q-192 23 -292 162q-102 140 -68 335q35 195 185 333q149 139 350 163l29 164h111l-28 -161q121 -10 210.5 -72.5t128.5 -166.5l-104 -60q-35 78 -102 127.5t-153 59.5l-137 -775q90 12 174.5 61t143.5 124l84 -59q-73 -97 -186 -160q-111 -64 -235 -76
l-32 -181h-111zM345 550q-26 -149 47 -256q72 -109 212 -130l135 769q-147 -22 -258 -130q-110 -107 -136 -253z" />
    <glyph glyph-name="mu.onum" horiz-adv-x="1246" 
d="M227 -400h-119l240 1360h119l-97 -549q-56 -317 257 -317q143 0 255 91q111 90 136 232l95 543h121l-169 -960h-120l30 168q-71 -93 -175 -140q-105 -48 -213 -48q-205 0 -273 108z" />
    <glyph glyph-name="pi.onum" horiz-adv-x="1258" 
d="M416 988h-178l20 115h1062l-20 -115h-187l-112 -639q-28 -156 6 -214q35 -59 158 -50l-17 -98q-25 -4 -60 -4q-265 0 -209 317l121 688h-470l-174 -987h-114z" />
    <glyph glyph-name="degree.onum" horiz-adv-x="950" 
d="M557 478q-149 0 -233 101q-84 100 -58 247q26 149 146 251q121 101 269 101q149 0 235 -101q84 -102 58 -251q-25 -146 -146 -247q-122 -101 -271 -101zM380 826q-18 -102 39 -172q55 -70 157 -70q101 0 181 70q81 71 99 172q18 104 -38 175t-156 71t-182 -71
q-82 -72 -100 -175z" />
    <glyph glyph-name="ordmasculine.onum" horiz-adv-x="938" 
d="M807 650q-107 -89 -240 -89t-208 89q-76 88 -53 219q22 129 130 220q107 89 240 89t208 -89t52 -220q-22 -131 -129 -219zM412 869q-15 -86 35 -145t138 -59t159 59t86 145q16 85 -34 146q-51 59 -139 59q-87 0 -158 -59q-70 -60 -87 -146zM832 448l-18 -101h-570l18 101
h570z" />
    <glyph glyph-name="ordfeminine.onum" horiz-adv-x="860" 
d="M461 552q-59 0 -107 20t-75 63.5t-17 102.5q17 90 101 139q83 49 195 49q96 0 168 -36l6 34q13 75 -27 119.5t-118 44.5q-106 0 -199 -93l-52 65q53 53 122.5 86.5t143.5 33.5q123 0 186 -67q62 -68 42 -178l-66 -371h-94l16 90q-42 -47 -103.5 -74.5t-121.5 -27.5z
M358 741q-9 -52 25 -78.5t103 -26.5t139 50q69 49 85 119q-24 19 -70.5 30.5t-94.5 11.5q-78 0 -128.5 -28.5t-58.5 -77.5zM744 449l-18 -101h-532l18 101h532z" />
    <glyph glyph-name="onehalf.onum" horiz-adv-x="1771" 
d="M1635 -140h-559l9 52q13 74 76.5 142t174.5 143q20 13 63 39q26 15 71 46q26 18 62 46q66 53 79 122q12 69 -26 111t-109 42q-58 0 -111 -35t-93 -98l-86 46q43 83 131 136q85 52 179 52q117 0 183 -69t46 -183q-18 -98 -102 -170q-50 -43 -88 -69q-37 -26 -125 -81
q-166 -105 -189 -174h432zM1458 1194l-968 -1334h-105l5 26l969 1332h103zM573 1103h-174l20 111h284l-145 -824h-110z" />
    <glyph glyph-name="onethird.onum" horiz-adv-x="1781" 
d="M1096 18l107 54q18 -62 63 -96.5t109 -34.5q67 0 124 39q58 39 68 102q12 67 -33 107t-127 40h-110l17 96h110q73 0 126 38t65 106q11 61 -27 97.5t-106 36.5q-129 0 -208 -124l-87 51q47 78 130 126t184 48q114 0 182 -62q67 -62 48 -171q-11 -62 -55 -111.5t-114 -80.5
q65 -25 98.5 -80.5t22.5 -118.5q-19 -111 -115 -176q-94 -64 -211 -64q-99 0 -168.5 47t-92.5 131zM1457 1194l-968 -1334h-105l5 26l969 1332h103zM397 390l125 713h-174l20 111h284l-145 -824h-110z" />
    <glyph glyph-name="onequarter.onum" horiz-adv-x="1703" 
d="M1389 76h-431l15 82l522 526h112l-90 -511h121l-18 -97h-121l-38 -216h-110zM1458 1194l-968 -1334h-105l5 26l969 1332h103zM573 1103h-174l20 111h284l-145 -824h-110zM1469 526l-351 -353h289z" />
    <glyph glyph-name="twothirds.onum" horiz-adv-x="1829" 
d="M1156 18l107 54q18 -62 63 -96.5t109 -34.5q67 0 124 39q58 39 68 102q12 67 -33 107t-127 40h-110l17 96h110q73 0 126 38t65 106q11 61 -27 97.5t-106 36.5q-129 0 -208 -124l-87 51q47 78 130 126t184 48q114 0 182 -62q67 -62 48 -171q-11 -62 -55 -111.5t-114 -80.5
q65 -25 98.5 -80.5t22.5 -118.5q-19 -111 -115 -176q-94 -64 -211 -64q-99 0 -168.5 47t-92.5 131zM736 400h-559l9 52q13 75 77 144t173 141q20 13 63 39q33 20 72 46q26 18 62 46q67 55 79 122q12 69 -26 111t-109 42q-58 0 -111.5 -35t-93.5 -98l-86 46q43 83 131 136
q85 52 179 52q117 0 183 -69t46 -183q-18 -98 -102 -170q-50 -43 -88 -69q-37 -26 -125 -81q-165 -104 -189 -174h432zM602 -140h-105l5 26l969 1332h103l-4 -24z" />
    <glyph glyph-name="threequarters.onum" horiz-adv-x="1738" 
d="M1398 -140l38 216h-431l15 82l522 526h112l-90 -511h121l-18 -97h-121l-38 -216h-110zM450 380q-99 0 -168.5 47t-92.5 131l107 54q18 -62 63 -96.5t109 -34.5q67 0 124 39t69 102q12 67 -33 107t-127 40h-110l17 96h110q73 0 125.5 38t64.5 106q11 62 -26.5 98
t-105.5 36q-64 0 -118.5 -33.5t-89.5 -90.5l-87 51q42 74 127 125q82 49 186 49q114 0 182 -62t48 -171q-10 -61 -54 -111t-115 -81q65 -24 98.5 -79.5t22.5 -119.5q-19 -110 -116.5 -176.5t-209.5 -63.5zM1558 1194l-968 -1334h-105l5 26l969 1332h103zM1516 526l-351 -353
h289z" />
    <glyph glyph-name="percent.onum" horiz-adv-x="1805" 
d="M794 651q-117 -99 -266 -99q-148 0 -231 98t-58 243t144 244q118 98 266 98t231 -98q82 -98 56 -244q-26 -145 -142 -242zM1612 -65q-118 -98 -266 -98t-231 98t-58 243t144 244q118 98 266 98t231 -98q82 -98 56 -244q-26 -144 -142 -243zM347 893q-17 -103 40 -171
q55 -70 159 -70q105 0 185 70q82 69 98 171q18 102 -38 173q-55 69 -160 69q-104 0 -185 -69q-81 -71 -99 -173zM1165 178q-17 -103 40 -171q55 -70 159 -70q105 0 185 70q82 69 98 171q18 102 -38 173q-55 69 -160 69q-104 0 -185 -69q-81 -71 -99 -173zM1532 1191
l-967 -1334h-105l4 26l969 1332h103z" />
    <glyph glyph-name="perthousand.onum" horiz-adv-x="2605" 
d="M1612 -65q-118 -98 -266 -98t-231 98t-58 243t144 244q118 98 266 98t231 -98q82 -98 56 -244q-26 -144 -142 -243zM2409 -65q-118 -98 -266 -98t-231 98t-58 243t144 244q118 98 266 98t231 -98q82 -98 56 -244q-26 -144 -142 -243zM794 651q-117 -99 -266 -99
q-148 0 -231 98t-58 243t144 244q118 98 266 98t231 -98q82 -98 56 -244q-26 -145 -142 -242zM1165 178q-17 -103 40 -171q55 -70 159 -70q105 0 185 70q82 69 98 171q18 102 -38 173q-55 69 -160 69q-104 0 -185 -69q-81 -71 -99 -173zM347 893q-17 -103 40 -171
q55 -70 159 -70q105 0 185 70q82 69 98 171q18 102 -38 173q-55 69 -160 69q-104 0 -185 -69q-81 -71 -99 -173zM1962 178q-17 -103 40 -171q55 -70 159 -70q105 0 185 70q82 69 98 171q18 102 -38 173q-56 69 -160 69t-185 -69q-81 -71 -99 -173zM1532 1191l-967 -1334
h-105l4 26l969 1332h103z" />
    <glyph glyph-name="zero.slash.onum.tnum" 
d="M361 62l-205 -207l-67 61l203 205q-148 156 -104 412q44 242 231 398t438 156q179 0 304 -86l205 207l67 -61l-203 -206q69 -75 95 -180t4 -228q-44 -243 -231 -397q-188 -156 -437 -156q-176 0 -300 82zM383 213l689 697q-97 67 -235 67q-195 0 -344 -125
q-149 -126 -183 -319t73 -320zM1139 849l-688 -696q96 -63 230 -63q195 0 344 125q147 124 182 318q33 193 -68 316z" />
    <glyph glyph-name="zero.onum.tnum" 
d="M661 -20q-162 -2 -281 69.5t-170.5 199.5t-21.5 284q44 242 231 398t438 156q249 0 382 -156q134 -156 90 -398q-44 -243 -231 -397q-188 -156 -437 -156zM493 852q-149 -126 -183 -319t71 -318q104 -125 300 -125q195 0 344 125q147 124 182 318q34 192 -70 319
q-105 125 -300 125t-344 -125z" />
    <glyph glyph-name="one.onum.tnum" 
d="M1137 111l-20 -111h-846l20 111h378l149 845h-347l19 111h467l-168 -956h348z" />
    <glyph glyph-name="two.onum.tnum" 
d="M1134 110l-19 -110h-890l19 110l455 273q162 98 243 181t96 167q19 112 -44.5 176.5t-193.5 64.5q-96 0 -187 -54.5t-158 -152.5l-98 54q78 121 205 193q126 72 262 72q177 0 273 -98q95 -100 67 -254q-39 -218 -372 -417l-345 -205h687z" />
    <glyph glyph-name="three.onum.tnum" 
d="M191 -53l113 62q66 -208 309 -208q126 -3 238 73.5t131 192.5q23 126 -65 201t-240 73h-151l20 112h151q135 0 237 69q102 68 125 199q20 114 -53 185q-74 71 -209 71q-223 0 -355 -201l-97 56q70 109 194 183q122 73 281 73q186 0 288 -102q101 -103 73 -262
q-19 -109 -97 -196q-76 -87 -192 -126q113 -32 173 -123q59 -94 38 -213q-21 -117 -101 -206q-79 -87 -185 -129q-108 -41 -220 -41q-157 0 -264 67.5t-142 189.5z" />
    <glyph glyph-name="four.onum.tnum" 
d="M887 72h-703l18 103l841 892h138l-156 -886h204l-19 -109h-204l-64 -364h-119zM1035 915l-686 -734h557z" />
    <glyph glyph-name="five.onum.tnum" 
d="M194 -54l113 62q31 -98 111.5 -153t197.5 -55q154 0 269 90q116 92 140 230q25 146 -54 234q-81 88 -241 88q-161 0 -288 -94l-103 45l183 674h722l-20 -112h-619l-134 -491q116 86 296 86q203 0 308 -119t71 -311q-33 -188 -188 -310q-154 -121 -362 -121
q-154 0 -260 67.5t-142 189.5z" />
    <glyph glyph-name="six.onum.tnum" 
d="M698 -20q-241 0 -346 158t-54 450q87 490 354 677q160 113 369 113q190 0 302 -85l-61 -102q-115 77 -267 77q-206 0 -352 -145q-158 -156 -225 -495q67 104 184 171q116 65 252 65q204 0 317 -122q112 -123 78 -316q-34 -196 -191 -321t-360 -125zM417 419
q-26 -146 59 -237t237 -91q153 0 269 91q118 92 143 237q26 147 -58 241q-85 93 -237 93t-269 -93q-119 -95 -144 -241z" />
    <glyph glyph-name="seven.onum.tnum" 
d="M441 -291h-135q336 646 832 1245h-720l20 113h849l-21 -118q-507 -618 -825 -1240z" />
    <glyph glyph-name="eight.onum.tnum" 
d="M1020 86q-151 -106 -360 -106t-322 106q-114 106 -85 273q43 244 316 348q-91 44 -134 120.5t-25 181.5q19 113 95 199q74 84 179 127q104 42 223 42q184 0 291 -98q106 -99 76 -270q-18 -105 -88 -181.5t-177 -120.5q235 -105 192 -348q-28 -166 -181 -273zM375 366
q-22 -124 61 -200q82 -75 244 -75q160 0 270 75q109 75 132 200q25 141 -62 218q-86 76 -240 76q-211 0 -327 -130q-61 -67 -78 -164zM529 1004q-19 -112 57 -179t212 -67t236 67q100 68 119 179q22 124 -54 193q-77 69 -212 69t-236 -69q-99 -68 -122 -193z" />
    <glyph glyph-name="nine.onum.tnum" 
d="M274 -224l60 102q115 -77 268 -77q205 0 353 145q157 157 224 495q-69 -105 -185 -170q-116 -66 -252 -66q-204 0 -316 123q-112 121 -79 315q35 197 191 322q155 124 360 124q240 0 347 -158q105 -157 54 -450q-87 -489 -353 -677q-162 -113 -370 -113q-190 0 -302 85z
M472 650q-26 -148 59 -240q84 -94 236 -94t270 94q118 93 143 240q26 146 -59 237t-238 91t-268 -91q-118 -92 -143 -237z" />
    <glyph glyph-name="plus.onum.tnum" 
d="M605 8l83 471h-473l21 119h473l82 464h117l-82 -464h475l-21 -119h-475l-83 -471h-117z" />
    <glyph glyph-name="minus.onum.tnum" 
d="M319 608h903l-21 -121h-903z" />
    <glyph glyph-name="plusminus.onum.tnum" 
d="M660 314l70 394h-441l21 119h441l68 386h117l-68 -386h443l-21 -119h-443l-70 -394h-117zM1187 42l-21 -121h-1033l21 121h1033z" />
    <glyph glyph-name="equal.onum.tnum" 
d="M310 854h1010l-22 -123h-1010zM219 341h1010l-22 -123h-1010z" />
    <glyph glyph-name="notequal.onum.tnum" 
d="M524 218h-327l22 123h381l240 390h-552l22 123h606l188 305l77 -34l-167 -271h306l-22 -123h-361l-242 -390h534l-22 -123h-588l-205 -331l-72 36z" />
    <glyph glyph-name="approxequal.onum.tnum" 
d="M376 648l-63 86q63 60 145 100q81 40 159 40q107 0 199 -55q88 -56 175 -56q90 0 207 99l63 -86q-61 -58 -144 -99q-84 -41 -160 -41q-110 0 -198 56q-90 55 -175 55q-91 0 -208 -99zM317 198l-63 86q63 60 145 100q81 40 159 40q108 0 198 -55q88 -56 175 -56
q91 0 208 99l62 -86q-63 -60 -143 -99q-84 -41 -160 -41q-110 0 -198 56q-92 55 -176 55q-90 0 -207 -99z" />
    <glyph glyph-name="multiply.onum.tnum" 
d="M1249 1008l67 -82l-478 -407l335 -407l-97 -82l-335 407l-479 -407l-67 82l479 407l-336 407l97 82l335 -407z" />
    <glyph glyph-name="less.onum.tnum" 
d="M396 535l759 -351l-22 -129l-849 398l28 160l992 412l-23 -128z" />
    <glyph glyph-name="greater.onum.tnum" 
d="M1203 453l-989 -398l22 129l883 351l-757 362l23 128l846 -412z" />
    <glyph glyph-name="lessequal.onum.tnum" 
d="M381 485h875l-21 -115h-1012l29 162l1098 488l-24 -134zM168 55h1012l-22 -123h-1012z" />
    <glyph glyph-name="greaterequal.onum.tnum" 
d="M223 370l21 115h874l-804 401l24 134l926 -488l-29 -162h-1012zM146 -68l22 123h1012l-22 -123h-1012z" />
    <glyph glyph-name="divide.onum.tnum" 
d="M1236 477h-976l21 119h976zM873 871q-25 -21 -58 -21t-50 21q-18 21 -12 54t31 54q24 21 57 21t51 -21t12 -54t-31 -54zM737 97q-29 -20 -59 -21t-50 21t-11 54q5 33 30 54t58 21t50.5 -21t12.5 -54q-6 -33 -31 -54z" />
    <glyph glyph-name="logicalnot.onum.tnum" 
d="M1251 305h-117l72 410h-950l21 120h1067z" />
    <glyph glyph-name="numbersign.onum.tnum" 
d="M386 288h-259l35 96h258l114 321h-260l35 95h259l95 267h114l-95 -267h338l95 267h115l-95 -267h258l-35 -95h-257l-113 -321h257l-36 -96h-255l-102 -288h-116l102 288h-337l-102 -288h-116zM648 705l-113 -321h337l114 321h-338z" />
    <glyph glyph-name="dollar.onum.tnum" 
d="M313 220l104 65q67 -160 218 -186l69 392q-125 44 -194 107q-78 69 -58 188q21 121 123 194q104 75 231 88l25 142h111l-25 -143q98 -14 166.5 -67.5t98.5 -132.5l-98 -64q-24 57 -73 97.5t-114 54.5l-65 -371q78 -28 112 -44q36 -17 90 -55q94 -71 70 -209
q-23 -125 -131 -200q-109 -74 -247 -88l-26 -150h-111l27 150q-112 14 -191.5 77t-111.5 155zM809 456l-63 -358q89 12 155 60q66 46 78 117q11 59 -32 102.5t-138 78.5zM579 788q-10 -66 24 -100q33 -33 124 -67l59 336q-79 -14 -136 -59q-60 -47 -71 -110z" />
    <glyph glyph-name="Euro.onum.tnum" 
d="M391 384h-143l17 100h131q7 50 18 94h-136l18 100h150q70 179 213 289q143 108 314 108q125 0 212.5 -62.5t130.5 -180.5l-108 -58q-31 91 -96 140t-159 49q-116 0 -220 -77q-104 -78 -159 -208h418l-18 -100h-435q-12 -47 -18 -94h441l-17 -100h-426q7 -132 84 -212
t196 -80q188 0 325 176l85 -60q-75 -105 -192 -167q-115 -61 -238 -61q-178 0 -282 110q-103 109 -106 294z" />
    <glyph glyph-name="yen.onum.tnum" 
d="M638 192h-273l17 95h273l17 96h-273l16 95h253l-289 589h140l245 -499l421 499h140l-497 -589h270l-16 -95h-290l-17 -96h290l-17 -95h-290l-34 -192h-120z" />
    <glyph glyph-name="sterling.onum.tnum" 
d="M1041 0h-766l18 101q90 56 138 113.5t60 132.5l25 139h-150l17 100h147l30 169q25 142 133 229q106 85 251 85q111 0 184.5 -55.5t95.5 -157.5l-105 -51q-42 155 -196 155q-93 0 -160 -56q-66 -55 -83 -150l-30 -168h310l-17 -100h-309l-21 -115q-32 -182 -149 -264h596z
" />
    <glyph glyph-name="currency.onum.tnum" 
d="M257 53l-61 73l218 182q-58 112 -37 230q19 113 115 226l-151 178l90 76l145 -176q133 77 247 77q120 0 225 -78l207 176l60 -75l-212 -177q31 -51 40 -102q8 -50 -3 -125q-12 -62 -39.5 -113.5t-80.5 -115.5l156 -183l-91 -74l-151 182q-122 -73 -245 -73
q-117 0 -214 75zM479 537q-19 -109 48 -185q68 -77 181 -77q116 0 214 77q96 77 116 185q19 112 -49 191q-69 79 -187 79q-115 0 -209 -79q-95 -80 -114 -191z" />
    <glyph glyph-name="florin.onum.tnum" 
d="M294 -159q-41 0 -90 13q-52 14 -80 36l57 91q55 -36 131 -36q96 0 173 65.5t113 181.5l133 444h-195l29 97h198l47 155q48 164 154 252.5t260 88.5q41 0 90 -13q52 -14 80 -36l-57 -91q-55 36 -132 36q-97 0 -173.5 -65.5t-111.5 -181.5l-44 -145h300l-29 -97h-297
l-136 -454q-49 -164 -157 -252.5t-263 -88.5z" />
    <glyph glyph-name="cent.onum.tnum" 
d="M618 -129l34 190q-192 23 -292 163q-103 140 -68 334q34 193 185 332q149 139 349 163l28 157h111l-27 -153q121 -9 210.5 -71.5t129.5 -167.5l-103 -60q-36 79 -103 128t-154 59l-136 -775q90 12 174.5 61t144.5 124l83 -59q-74 -98 -186 -161q-114 -64 -236 -75
l-33 -189h-111zM413 558q-26 -149 46 -256t212 -130l136 769q-149 -24 -258 -130q-110 -107 -136 -253z" />
    <glyph glyph-name="mu.onum.tnum" 
d="M269 -400h-119l240 1360h119l-97 -549q-56 -317 257 -317q143 0 255 91q111 90 136 232l95 543h121l-169 -960h-120l30 168q-71 -93 -175 -140q-105 -48 -213 -48q-205 0 -273 108z" />
    <glyph glyph-name="pi.onum.tnum" 
d="M473 988h-178l20 115h1062l-20 -115h-187l-112 -639q-28 -156 6 -214q35 -59 158 -50l-17 -98q-25 -4 -60 -4q-265 0 -209 317l121 688h-470l-174 -987h-114z" />
    <glyph glyph-name="degree.onum.tnum" 
d="M747 478q-149 0 -233 101q-84 100 -58 247q26 149 146 251q121 101 269 101q149 0 235 -101q84 -102 58 -251q-25 -146 -146 -247q-122 -101 -271 -101zM570 826q-18 -102 39 -172q55 -70 157 -70q101 0 181 70q81 71 99 172q18 104 -38 175t-156 71t-182 -71
q-82 -72 -100 -175z" />
    <glyph glyph-name="ordmasculine.onum.tnum" 
d="M1003 650q-107 -89 -240 -89t-208 89q-76 88 -53 219q22 129 130 220q107 89 240 89t208 -89t52 -220q-22 -131 -129 -219zM608 869q-15 -86 35 -145t138 -59t159 59t86 145q16 85 -34 146q-51 59 -139 59q-87 0 -158 -59q-70 -60 -87 -146zM1028 448l-18 -101h-570
l18 101h570z" />
    <glyph glyph-name="ordfeminine.onum.tnum" 
d="M727 552q-59 0 -107 20t-75 63.5t-17 102.5q17 90 101 139q83 49 195 49q96 0 168 -36l6 34q13 75 -27 119.5t-118 44.5q-106 0 -199 -93l-52 65q53 53 122.5 86.5t143.5 33.5q123 0 186 -67q62 -68 42 -178l-66 -371h-94l16 90q-42 -47 -103.5 -74.5t-121.5 -27.5z
M624 741q-9 -52 25 -78.5t103 -26.5t139 50q69 49 85 119q-24 19 -70.5 30.5t-94.5 11.5q-78 0 -128.5 -28.5t-58.5 -77.5zM1010 449l-18 -101h-532l18 101h532z" />
    <glyph glyph-name="A.smcp" horiz-adv-x="1070" 
d="M326 258l-148 -258h-126l580 1000h156l228 -1000h-126l-58 258h-506zM692 897l-305 -533h422z" />
    <glyph glyph-name="B.smcp" horiz-adv-x="1052" 
d="M597 0h-423l176 1000h408q139 0 215 -68q75 -68 51 -201q-10 -59 -52.5 -114t-104.5 -84q73 -28 107.5 -93t17.5 -155q-22 -125 -123 -205q-103 -80 -272 -80zM699 464h-323l-63 -358h323q91 0 154 46.5t78 131.5q15 83 -28.5 131.5t-140.5 48.5zM452 894l-57 -324h281
q86 0 148 43q63 43 76 116q13 76 -26.5 120.5t-130.5 44.5h-291z" />
    <glyph glyph-name="C.smcp" horiz-adv-x="1157" 
d="M622 -20q-142 -3 -250 65.5t-156 188.5t-21 262q39 222 214 373q173 151 393 151q143 0 245.5 -64.5t156.5 -176.5l-104 -69q-47 92 -128 146t-190 54q-169 0 -299 -118q-132 -119 -163 -296q-31 -174 61 -290t261 -116q104 0 205 51t186 148l78 -69q-97 -114 -224 -177
t-265 -63z" />
    <glyph glyph-name="D.smcp" horiz-adv-x="1187" 
d="M548 0h-374l176 1000h374q227 0 353 -143q125 -143 87 -360q-22 -139 -112 -254.5t-223.5 -180t-280.5 -62.5zM706 894h-254l-139 -787h254q175 0 309 111q133 111 163 279q30 170 -64 283q-95 114 -269 114z" />
    <glyph glyph-name="E.smcp" horiz-adv-x="971" 
d="M877 106l-19 -106h-684l176 1000h669l-18 -106h-549l-57 -322h473l-19 -106h-473l-63 -360h564z" />
    <glyph glyph-name="F.smcp" horiz-adv-x="969" 
d="M870 568l-19 -106h-476l-81 -462h-120l176 1000h704l-18 -106h-584l-58 -326h476z" />
    <glyph glyph-name="G.smcp" horiz-adv-x="1222" 
d="M623 -20q-142 -3 -250.5 67t-156.5 191t-20 263q39 222 213 370q173 149 393 149q143 0 247.5 -64t155.5 -182l-107 -70q-95 206 -316 206q-167 0 -298 -116q-132 -118 -163 -293q-31 -174 62 -293q91 -118 261 -118q162 0 275 100q102 90 138 215h-365l19 108h495
l-8 -46q-36 -205 -196 -346t-379 -141z" />
    <glyph glyph-name="H.smcp" horiz-adv-x="1208" 
d="M294 0h-120l176 1000h120l-76 -432h618l76 432h120l-176 -1000h-120l81 462h-618z" />
    <glyph glyph-name="I.smcp" horiz-adv-x="470" 
d="M294 0h-120l176 1000h120z" />
    <glyph glyph-name="J.smcp" horiz-adv-x="824" 
d="M296 -20q-84 0 -152 36.5t-108 102.5l97 88q72 -110 185 -110q98 0 164 66.5t87 185.5l114 651h120l-117 -668q-28 -162 -132 -257t-258 -95z" />
    <glyph glyph-name="K.smcp" horiz-adv-x="1021" 
d="M294 0h-120l176 1000h120l-94 -537l592 537h156l-449 -405l299 -595h-146l-252 505l-229 -207z" />
    <glyph glyph-name="L.smcp" horiz-adv-x="920" 
d="M909 106l-19 -106h-716l176 1000h120l-157 -894h596z" />
    <glyph glyph-name="M.smcp" horiz-adv-x="1376" 
d="M425 757l-133 -757h-118l176 1000h125l255 -750l520 750h126l-176 -1000h-118l133 757l-463 -662h-97z" />
    <glyph glyph-name="N.smcp" horiz-adv-x="1245" 
d="M292 0h-118l176 1000h120l513 -819l144 819h118l-176 -1000h-119l-513 821z" />
    <glyph glyph-name="O.smcp" horiz-adv-x="1252" 
d="M617 -20q-220 0 -340 144q-120 143 -81 367q40 227 213 378q172 151 392 151q145 2 253 -67.5t155 -192t19 -269.5q-41 -225 -213 -367q-173 -144 -398 -144zM321 491q-31 -175 59 -288q89 -113 257 -113q171 0 304 113q131 113 162 288q32 181 -59 300q-92 119 -263 119
q-166 0 -297 -119q-132 -121 -163 -300z" />
    <glyph glyph-name="P.smcp" horiz-adv-x="996" 
d="M366 410l-72 -410h-120l176 1000h411q147 0 221 -81q74 -83 51 -216t-126 -213q-104 -80 -250 -80h-291zM452 894l-67 -378h287q97 0 159 50t77 137q15 89 -28.5 140t-140.5 51h-287z" />
    <glyph glyph-name="Q.smcp" horiz-adv-x="1252" 
d="M603 -20q-220 0 -340 144q-120 143 -81 367q40 227 213 378q172 151 392 151q145 2 253 -67.5t155 -192t19 -269.5q-42 -235 -228 -380l102 -178l-109 -72l-104 181q-130 -62 -272 -62zM307 491q-31 -175 59 -288q89 -113 257 -113q102 0 198 44l-108 188l111 72
l107 -187q126 111 158 284q32 181 -59 300q-92 119 -263 119q-166 0 -297 -119q-132 -121 -163 -300z" />
    <glyph glyph-name="R.smcp" horiz-adv-x="990" 
d="M366 410l-72 -410h-120l176 1000h411q147 0 221 -81q74 -83 51 -216q-19 -112 -98 -189q-79 -76 -194 -97l169 -417h-143l-162 410h-239zM452 894l-67 -378h287q97 0 159 50t77 137q15 89 -28.5 140t-140.5 51h-287z" />
    <glyph glyph-name="S.smcp" horiz-adv-x="967" 
d="M139 203l107 66q34 -80 102 -129.5t159 -49.5q99 0 175 43q77 42 89 113q11 65 -39 108.5t-175 90.5q-55 21 -94 39t-81.5 46.5t-66.5 59t-36 74.5t-3 96q13 80 77 142q61 61 143 90q78 28 165 28q117 0 201.5 -51.5t121.5 -135.5l-103 -68q-31 65 -95.5 105t-144.5 40
q-88 0 -157 -39q-69 -38 -83 -109q-14 -77 47 -118q34 -24 57 -35q24 -12 75 -33q22 -9 41 -17q125 -54 160 -76q117 -71 120 -179q1 -22 -4 -57q-15 -85 -81 -147q-67 -63 -152 -91q-83 -29 -177 -29q-132 0 -223 64q-94 63 -125 159z" />
    <glyph glyph-name="T.smcp" horiz-adv-x="907" 
d="M550 894h-323l18 106h767l-18 -106h-324l-158 -894h-120z" />
    <glyph glyph-name="U.smcp" horiz-adv-x="1181" 
d="M916 86q-134 -106 -330 -106q-195 0 -292 106q-97 105 -67 279l112 635h121l-112 -635q-21 -123 48 -198t210 -75q140 0 236 75t117 198l112 635h121l-112 -635q-30 -174 -164 -279z" />
    <glyph glyph-name="V.smcp" horiz-adv-x="1074" 
d="M607 0h-142l-231 1000h136l194 -843l492 843h135z" />
    <glyph glyph-name="W.smcp" horiz-adv-x="1576" 
d="M513 0h-134l-136 1000h132l109 -815l417 815h121l134 -815l395 815h132l-489 -1000h-134l-129 819z" />
    <glyph glyph-name="X.smcp" horiz-adv-x="1026" 
d="M586 418l-389 -418h-147l476 515l-278 485h147l226 -387l361 387h148l-450 -485l295 -515h-149z" />
    <glyph glyph-name="Y.smcp" horiz-adv-x="1017" 
d="M445 0l69 394l-281 606h149l218 -479l385 479h149l-495 -606l-69 -394h-125z" />
    <glyph glyph-name="Z.smcp" horiz-adv-x="1018" 
d="M111 0l19 108l778 786h-624l18 106h763l-19 -111l-773 -783h651l-19 -106h-794z" />
    <glyph glyph-name="ampersand.smcp" horiz-adv-x="1075" 
d="M469 -21q-163 0 -253 81q-91 79 -68 204q18 102 111 175q77 61 166 98q-111 114 -92 228q19 117 120 186q100 68 227 68q120 0 186 -67q65 -68 47 -172q-27 -154 -308 -273l220 -251q45 54 62 120q17 65 21 157h118q-12 -222 -129 -348l160 -185h-168l-87 96
q-166 -117 -333 -117zM277 264q-13 -75 47 -125q59 -49 167 -49q152 0 248 78l-262 290q-67 -29 -117 -65q-69 -50 -83 -129zM457 768q-9 -51 11 -89q20 -40 72 -98q232 99 249 197q11 61 -24.5 100.5t-101.5 39.5q-73 0 -132 -40q-61 -40 -74 -110z" />
    <glyph glyph-name="Agrave.smcp" horiz-adv-x="1070" 
d="M326 258l-148 -258h-126l580 1000h156l228 -1000h-126l-58 258h-506zM809 364l-117 533l-305 -533h422zM785 1156h-107l-114 334h138z" />
    <glyph glyph-name="Aacute.smcp" horiz-adv-x="1070" 
d="M326 258l-148 -258h-126l580 1000h156l228 -1000h-126l-58 258h-506zM692 897l-305 -533h422zM802 1153h-107l201 334h138z" />
    <glyph glyph-name="Acircumflex.smcp" horiz-adv-x="1070" 
d="M178 0h-126l580 1000h156l228 -1000h-126l-58 258h-506zM809 364l-117 533l-305 -533h422zM556 1125h-123l328 368h72l198 -368h-123l-128 256z" />
    <glyph glyph-name="Adotbelow.smcp" horiz-adv-x="1070" 
d="M326 258l-148 -258h-126l580 1000h156l228 -1000h-126l-58 258h-506zM809 364l-117 533l-305 -533h422zM530 -336q-25 -21 -58.5 -21t-50.5 21t-12 54q6 33 31 54t58 21t50.5 -21t11.5 -54q-4 -33 -30 -54z" />
    <glyph glyph-name="Atilde.smcp" horiz-adv-x="1070" 
d="M326 258l-148 -258h-126l580 1000h156l228 -1000h-126l-58 258h-506zM692 897l-305 -533h422zM492 1233l-58 56q113 125 221 125q57 0 130 -40q74 -41 114 -41q37 0 68 18t76 61l58 -56q-113 -125 -216 -125q-55 0 -132 41q-76 40 -117 40q-37 0 -68 -18t-76 -61z" />
    <glyph glyph-name="Adieresis.smcp" horiz-adv-x="1070" 
d="M326 258l-148 -258h-126l580 1000h156l228 -1000h-126l-58 258h-506zM692 897l-305 -533h422zM986 1262q-25 -21 -58 -21t-50 21q-18 21 -12 54t31 54q24 21 57 21t51 -21t12 -54t-31 -54zM636 1262q-25 -21 -58 -21t-50 21q-18 21 -12 54t31 54q24 21 57 21t51 -21
t12 -54t-31 -54z" />
    <glyph glyph-name="Amacron.smcp" horiz-adv-x="1070" 
d="M326 258l-148 -258h-126l580 1000h156l228 -1000h-126l-58 258h-506zM809 364l-117 533l-305 -533h422zM1053 1265h-592l19 106h592z" />
    <glyph glyph-name="Abreve.smcp" horiz-adv-x="1070" 
d="M178 0h-126l580 1000h156l228 -1000h-126l-58 258h-506zM809 364l-117 533l-305 -533h422zM742 1180q-112 0 -173 72q-61 70 -48 186h111q-8 -69 28 -113t100 -44t115 43.5t69 113.5h111q-25 -115 -113 -186q-87 -72 -200 -72z" />
    <glyph glyph-name="Aring.smcp" horiz-adv-x="1070" 
d="M326 258l-148 -258h-126l580 1000h156l228 -1000h-126l-58 258h-506zM898 1185q-74 -60 -166 -60t-144 60q-53 60 -37 146q15 87 89 148q74 60 165 60q92 0 145 -60q52 -59 37 -148q-17 -89 -89 -146zM692 897l-305 -533h422zM650 1331q-9 -52 18 -85.5t80 -33.5t92 33.5
t48 85.5t-18 86.5t-80 34.5t-92 -34.5t-48 -86.5z" />
    <glyph glyph-name="Aringacute.smcp" horiz-adv-x="1070" 
d="M326 258l-148 -258h-126l580 1000h156l228 -1000h-126l-58 258h-506zM898 1185q-74 -60 -166 -60t-144 60q-53 60 -37 146q15 87 89 148q74 60 165 60q92 0 145 -60q52 -59 37 -148q-17 -89 -89 -146zM809 364l-117 533l-305 -533h422zM650 1331q-9 -52 18 -85.5
t80 -33.5t92 33.5t48 85.5t-18 86.5t-80 34.5t-92 -34.5t-48 -86.5zM862 1601h-107l201 334h138z" />
    <glyph glyph-name="Aogonek.smcp" horiz-adv-x="1070" 
d="M178 0h-126l580 1000h156l228 -1000q-105 -58 -171 -121q-67 -62 -76 -113q-12 -69 51 -90.5t176 26.5l16 -94q-80 -45 -181 -45q-99 0 -145.5 49.5t-31.5 136.5q26 143 236 252l-58 257h-506zM692 897l-305 -533h422z" />
    <glyph glyph-name="AE.smcp" horiz-adv-x="1505" 
d="M152 0h-141l800 1000h742l-18 -106h-549l-57 -322h473l-19 -106h-473l-63 -360h564l-19 -106h-684l44 249h-402zM866 898l-431 -543h335z" />
    <glyph glyph-name="AEacute.smcp" horiz-adv-x="1476" 
d="M152 0h-141l800 1000h742l-18 -106h-549l-57 -322h473l-19 -106h-473l-63 -360h564l-19 -106h-684l44 249h-402zM770 355l96 543l-431 -543h335zM1512 1487l-232 -334h-107l201 334h138z" />
    <glyph glyph-name="Cacute.smcp" horiz-adv-x="1157" 
d="M607 -20q-142 -3 -250 65.5t-156 188.5t-21 262q39 222 214 373q173 151 393 151q143 0 245.5 -64.5t156.5 -176.5l-104 -69q-47 92 -128 146t-190 54q-169 0 -299 -118q-132 -119 -163 -296q-31 -174 61 -290t261 -116q104 0 205 51t186 148l78 -69q-97 -114 -224 -177
t-265 -63zM1107 1487l-232 -334h-107l201 334h138z" />
    <glyph glyph-name="Ccircumflex.smcp" horiz-adv-x="1157" 
d="M607 -20q-142 -3 -250 65.5t-156 188.5t-21 262q39 222 214 373q173 151 393 151q143 0 245.5 -64.5t156.5 -176.5l-104 -69q-47 92 -128 146t-190 54q-169 0 -299 -118q-132 -119 -163 -296q-31 -174 61 -290t261 -116q104 0 205 51t186 148l78 -69q-97 -114 -224 -177
t-265 -63zM623 1125h-123l328 368h72l198 -368h-123l-128 256z" />
    <glyph glyph-name="Ccaron.smcp" horiz-adv-x="1157" 
d="M607 -20q-142 -3 -250 65.5t-156 188.5t-21 262q39 222 214 373q173 151 393 151q143 0 245.5 -64.5t156.5 -176.5l-104 -69q-47 92 -128 146t-190 54q-169 0 -299 -118q-132 -119 -163 -296q-31 -174 61 -290t261 -116q104 0 205 51t186 148l78 -69q-97 -114 -224 -177
t-265 -63zM759 1119l-198 368h123l129 -256l223 256h123l-328 -368h-72z" />
    <glyph glyph-name="Cdotaccent.smcp" horiz-adv-x="1157" 
d="M607 -20q-142 -3 -250 65.5t-156 188.5t-21 262q39 222 214 373q173 151 393 151q143 0 245.5 -64.5t156.5 -176.5l-104 -69q-47 92 -128 146t-190 54q-169 0 -299 -118q-132 -119 -163 -296q-31 -174 61 -290t261 -116q104 0 205 51t186 148l78 -69q-97 -114 -224 -177
t-265 -63zM895 1265q-29 -20 -59 -21t-50 21t-11 54q5 33 30 54t58 21t50.5 -21t12.5 -54q-6 -33 -31 -54z" />
    <glyph glyph-name="Ccedilla.smcp" horiz-adv-x="1157" 
d="M428 -183l92 170q-184 29 -278 171q-96 142 -62 338q39 222 214 373q173 151 393 151q143 0 245.5 -64.5t156.5 -176.5l-104 -69q-47 92 -128 146t-190 54q-169 0 -299 -118q-132 -119 -163 -296q-31 -174 61 -290t261 -116q104 0 205 51t186 148l78 -69
q-97 -113 -225 -177t-266 -63l-43 -82q91 -7 138.5 -50.5t34.5 -111.5q-14 -81 -86 -127t-185 -46q-74 0 -126 18l18 99q51 -19 115 -19q140 0 152 75q15 81 -146 81h-49z" />
    <glyph glyph-name="Dcaron.smcp" horiz-adv-x="1187" 
d="M548 0h-374l176 1000h374q227 0 353 -143q125 -143 87 -360q-22 -139 -112 -254.5t-223.5 -180t-280.5 -62.5zM452 894l-139 -787h254q175 0 309 111q133 111 163 279q30 170 -64 283q-95 114 -269 114h-254zM694 1119l-198 368h123l129 -256l223 256h123l-328 -368h-72z
" />
    <glyph glyph-name="Dcroat.smcp" horiz-adv-x="1204" 
d="M191 0l81 463h-127l17 100h128l77 437h374q227 0 353 -143q124 -143 87 -360q-22 -139 -112 -254.5t-223.5 -180t-280.5 -62.5h-374zM775 563l-17 -100h-365l-63 -356h254q176 0 309 111t163 279q30 170 -64 283q-95 114 -269 114h-254l-58 -331h364z" />
    <glyph glyph-name="Eth.smcp" horiz-adv-x="1204" 
d="M191 0l81 463h-127l17 100h128l77 437h374q227 0 353 -143q124 -143 87 -360q-22 -139 -112 -254.5t-223.5 -180t-280.5 -62.5h-374zM775 563l-17 -100h-365l-63 -356h254q176 0 309 111t163 279q30 170 -64 283q-95 114 -269 114h-254l-58 -331h364z" />
    <glyph glyph-name="Egrave.smcp" horiz-adv-x="971" 
d="M877 106l-19 -106h-684l176 1000h669l-18 -106h-549l-57 -322h473l-19 -106h-473l-63 -360h564zM668 1156l-114 334h138l83 -334h-107z" />
    <glyph glyph-name="Eacute.smcp" horiz-adv-x="971" 
d="M877 106l-19 -106h-684l176 1000h669l-18 -106h-549l-57 -322h473l-19 -106h-473l-63 -360h564zM861 1487h138l-232 -334h-107z" />
    <glyph glyph-name="Ecircumflex.smcp" horiz-adv-x="971" 
d="M858 0h-684l176 1000h669l-18 -106h-549l-57 -322h473l-19 -106h-473l-63 -360h564zM768 1381l-224 -256h-123l328 368h72l198 -368h-123z" />
    <glyph glyph-name="Ecaron.smcp" horiz-adv-x="971" 
d="M877 106l-19 -106h-684l176 1000h669l-18 -106h-549l-57 -322h473l-19 -106h-473l-63 -360h564zM686 1119l-198 368h123l129 -256l223 256h123l-328 -368h-72z" />
    <glyph glyph-name="Edieresis.smcp" horiz-adv-x="971" 
d="M877 106l-19 -106h-684l176 1000h669l-18 -106h-549l-57 -322h473l-19 -106h-473l-63 -360h564zM967 1262q-25 -21 -58 -21t-50 21q-18 21 -12 54t31 54q24 21 57 21t51 -21t12 -54t-31 -54zM617 1262q-25 -21 -58 -21t-50 21q-18 21 -12 54t31 54q24 21 57 21t51 -21
t12 -54t-31 -54z" />
    <glyph glyph-name="Etilde.smcp" horiz-adv-x="971" 
d="M858 0h-684l176 1000h669l-18 -106h-549l-57 -322h473l-19 -106h-473l-63 -360h564zM478 1233l-58 56q113 125 221 125q57 0 130 -40q74 -41 114 -41q37 0 68 18t76 61l58 -56q-113 -125 -216 -125q-55 0 -132 41q-76 40 -117 40q-37 0 -68 -18t-76 -61z" />
    <glyph glyph-name="Emacron.smcp" horiz-adv-x="971" 
d="M877 106l-19 -106h-684l176 1000h669l-18 -106h-549l-57 -322h473l-19 -106h-473l-63 -360h564zM1052 1371l-19 -106h-592l19 106h592z" />
    <glyph glyph-name="Ebreve.smcp" horiz-adv-x="971" 
d="M858 0h-684l176 1000h669l-18 -106h-549l-57 -322h473l-19 -106h-473l-63 -360h564zM737 1180q-111 0 -173 72q-62 70 -48 186h111q-8 -69 28 -113t100 -44t115 43.5t69 113.5h111q-25 -115 -113 -186q-87 -72 -200 -72z" />
    <glyph glyph-name="Edotaccent.smcp" horiz-adv-x="971" 
d="M877 106l-19 -106h-684l176 1000h669l-18 -106h-549l-57 -322h473l-19 -106h-473l-63 -360h564zM810 1265q-29 -20 -59 -21t-50 21t-11 54q5 33 30 54t58 21t50.5 -21t12.5 -54q-6 -33 -31 -54z" />
    <glyph glyph-name="Edotbelow.smcp" horiz-adv-x="971" 
d="M877 106l-19 -106h-684l176 1000h669l-18 -106h-549l-57 -322h473l-19 -106h-473l-63 -360h564zM528 -336q-26 -21 -59 -21t-50 21t-12 54q6 33 31 54t58 21t50.5 -21t11.5 -54q-4 -33 -30 -54z" />
    <glyph glyph-name="Eogonek.smcp" horiz-adv-x="971" 
d="M730 0h-556l176 1000h669l-18 -106h-549l-57 -322h473l-19 -106h-473l-63 -360h564l-19 -106q-105 -58 -171 -121q-67 -62 -76 -113q-12 -69 51 -90.5t176 26.5l16 -94q-79 -45 -181 -45q-99 0 -145.5 49.5t-31.5 136.5q25 141 234 251z" />
    <glyph glyph-name="Schwa.smcp" horiz-adv-x="1212" 
d="M583 -20q-144 -1 -245 62.5t-141 169.5t-15 233q8 43 20 83h869q18 170 -78 277q-96 106 -258 106q-108 0 -207 -45.5t-174 -131.5l-81 68q92 107 220 162q130 56 263 56q147 2 257 -68.5t157 -190.5t19 -261q-39 -222 -212 -371q-175 -149 -394 -149zM1046 428h-749
q-19 -150 69 -244q89 -95 237 -95q156 0 280 94t163 245z" />
    <glyph glyph-name="Gcircumflex.smcp" horiz-adv-x="1222" 
d="M623 -20q-142 -3 -250.5 67t-156.5 191t-20 263q39 222 213 370q173 149 393 149q143 0 247.5 -64t155.5 -182l-107 -70q-95 206 -316 206q-167 0 -298 -116q-132 -118 -163 -293q-31 -174 62 -293q91 -118 261 -118q162 0 275 100q102 90 138 215h-365l19 108h495
l-8 -46q-36 -205 -196 -346t-379 -141zM856 1381l-224 -256h-123l328 368h72l198 -368h-123z" />
    <glyph glyph-name="Gbreve.smcp" horiz-adv-x="1222" 
d="M623 -20q-142 -3 -250.5 67t-156.5 191t-20 263q39 222 213 370q173 149 393 149q143 0 247.5 -64t155.5 -182l-107 -70q-95 206 -316 206q-167 0 -298 -116q-132 -118 -163 -293q-31 -174 62 -293q91 -118 261 -118q162 0 275 100q102 90 138 215h-365l19 108h495
l-8 -46q-36 -205 -196 -346t-379 -141zM818 1180q-112 0 -173 72q-61 70 -48 186h111q-8 -69 28 -113t100 -44t115 43.5t69 113.5h111q-25 -115 -113 -186q-87 -72 -200 -72z" />
    <glyph glyph-name="Gcaron.smcp" horiz-adv-x="1222" 
d="M623 -20q-142 -3 -250.5 67t-156.5 191t-20 263q39 222 213 370q173 149 393 149q143 0 247.5 -64t155.5 -182l-107 -70q-95 206 -316 206q-167 0 -298 -116q-132 -118 -163 -293q-31 -174 62 -293q91 -118 261 -118q162 0 275 100q102 90 138 215h-365l19 108h495
l-8 -46q-36 -205 -196 -346t-379 -141zM771 1119l-198 368h123l129 -256l223 256h123l-328 -368h-72z" />
    <glyph glyph-name="Gdotaccent.smcp" horiz-adv-x="1222" 
d="M623 -20q-142 -3 -250.5 67t-156.5 191t-20 263q39 222 213 370q173 149 393 149q143 0 247.5 -64t155.5 -182l-107 -70q-95 206 -316 206q-167 0 -298 -116q-132 -118 -163 -293q-31 -174 62 -293q91 -118 261 -118q162 0 275 100q102 90 138 215h-365l19 108h495
l-8 -46q-36 -205 -196 -346t-379 -141zM888 1265q-29 -20 -59 -21t-50 21t-11 54q5 33 30 54t58 21t50.5 -21t12.5 -54q-6 -33 -31 -54z" />
    <glyph glyph-name="Gcommaaccent.smcp" horiz-adv-x="1222" 
d="M623 -20q-142 -3 -250.5 67t-156.5 191t-20 263q39 222 213 370q173 149 393 149q143 0 247.5 -64t155.5 -182l-107 -70q-95 206 -316 206q-167 0 -298 -116q-132 -118 -163 -293q-31 -174 62 -293q91 -118 261 -118q162 0 275 100q102 90 138 215h-365l19 108h495
l-8 -46q-36 -205 -196 -346t-379 -141zM644 -128l-119 -380h-98l81 380h136z" />
    <glyph glyph-name="Hcircumflex.smcp" horiz-adv-x="1208" 
d="M375 462l-81 -462h-120l176 1000h120l-76 -432h618l76 432h120l-176 -1000h-120l81 462h-618zM849 1381l-224 -256h-123l328 368h72l198 -368h-123z" />
    <glyph glyph-name="Hbar.smcp" horiz-adv-x="1260" 
d="M230 848h119l27 152h120l-27 -152h618l27 152h120l-27 -152h120l-18 -100h-119l-132 -748h-120l81 462h-618l-81 -462h-120l132 748h-120zM1038 568l32 180h-618l-32 -180h618z" />
    <glyph glyph-name="Igrave.smcp" horiz-adv-x="470" 
d="M294 0h-120l176 1000h120zM377 1156l-114 334h138l83 -334h-107z" />
    <glyph glyph-name="Iacute.smcp" horiz-adv-x="470" 
d="M294 0h-120l176 1000h120zM586 1487h138l-232 -334h-107z" />
    <glyph glyph-name="Ibreve.smcp" horiz-adv-x="470" 
d="M470 1000l-176 -1000h-120l176 1000h120zM442 1180q-112 0 -173 72q-61 70 -48 186h111q-8 -69 28 -113t100 -44t115 43.5t69 113.5h111q-25 -115 -113 -186q-87 -72 -200 -72z" />
    <glyph glyph-name="Icircumflex.smcp" horiz-adv-x="470" 
d="M294 0h-120l176 1000h120zM256 1125h-123l328 368h72l198 -368h-123l-128 256z" />
    <glyph glyph-name="Itilde.smcp" horiz-adv-x="470" 
d="M294 0h-120l176 1000h120zM191 1233l-58 56q113 125 221 125q57 0 130 -40q74 -41 114 -41q37 0 68 18t76 61l58 -56q-113 -125 -216 -125q-55 0 -132 41q-76 40 -117 40q-37 0 -68 -18t-76 -61z" />
    <glyph glyph-name="Idieresis.smcp" horiz-adv-x="470" 
d="M294 0h-120l176 1000h120zM685 1262q-25 -21 -58 -21t-50 21q-18 21 -12 54t31 54q24 21 57 21t51 -21t12 -54t-31 -54zM335 1262q-25 -21 -58 -21t-50 21q-18 21 -12 54t31 54q24 21 57 21t51 -21t12 -54t-31 -54z" />
    <glyph glyph-name="Imacron.smcp" horiz-adv-x="470" 
d="M294 0h-120l176 1000h120zM772 1371l-19 -106h-592l19 106h592z" />
    <glyph glyph-name="Idotaccent.smcp" horiz-adv-x="470" 
d="M470 1000l-176 -1000h-120l176 1000h120zM512 1265q-29 -20 -59 -21t-50 21t-11 54q5 33 30 54t58 21t50.5 -21t12.5 -54q-6 -33 -31 -54z" />
    <glyph glyph-name="Iogonek.smcp" horiz-adv-x="470" 
d="M109 -437q-99 0 -145.5 49.5t-31.5 136.5q26 147 243 256l175 995h120l-176 -1000q-105 -58 -171 -121q-67 -62 -76 -113q-12 -69 51 -90.5t176 26.5l16 -94q-79 -45 -181 -45z" />
    <glyph glyph-name="Idotbelow.smcp" horiz-adv-x="470" 
d="M294 0h-120l176 1000h120zM230 -336q-26 -21 -59 -21t-50 21t-12 54q6 33 31 54t58 21t50.5 -21t11.5 -54q-4 -33 -30 -54z" />
    <glyph glyph-name="Jcircumflex.smcp" horiz-adv-x="824" 
d="M36 119l97 88q72 -110 185 -110q98 0 164 66.5t87 185.5l114 651h120l-117 -668q-28 -162 -132 -257t-258 -95q-84 0 -152 36.5t-108 102.5zM584 1125h-123l328 368h72l198 -368h-123l-128 256z" />
    <glyph glyph-name="Kcommaaccent.smcp" horiz-adv-x="1021" 
d="M294 0h-120l176 1000h120l-94 -537l592 537h156l-449 -405l299 -595h-146l-252 505l-229 -207zM445 -508h-98l81 380h136z" />
    <glyph glyph-name="Lacute.smcp" horiz-adv-x="920" 
d="M909 106l-19 -106h-716l176 1000h120l-157 -894h596zM584 1487h138l-232 -334h-107z" />
    <glyph glyph-name="Lcaron.smcp" horiz-adv-x="924" 
d="M909 106l-19 -106h-716l176 1000h120l-157 -894h596zM767 600h-98l81 380h136z" />
    <glyph glyph-name="Lcommaaccent.smcp" horiz-adv-x="920" 
d="M909 106l-19 -106h-716l176 1000h120l-157 -894h596zM455 -508h-98l81 380h136z" />
    <glyph glyph-name="Lslash.smcp" horiz-adv-x="1000" 
d="M349 538l-163 -17l17 100l163 17l64 362h120l-61 -350l328 34l-18 -100l-328 -34l-78 -444h596l-19 -106h-716z" />
    <glyph glyph-name="Ldot.smcp" horiz-adv-x="922" 
d="M909 106l-19 -106h-716l176 1000h120l-157 -894h596zM809 441q-25 -21 -58.5 -21t-50.5 21q-16 21 -12 54q6 33 31 54t58 21t50.5 -21t11.5 -54q-5 -33 -30 -54z" />
    <glyph glyph-name="Nacute.smcp" horiz-adv-x="1245" 
d="M292 0h-118l176 1000h120l513 -819l144 819h118l-176 -1000h-119l-513 821zM860 1153h-107l201 334h138z" />
    <glyph glyph-name="Ncaron.smcp" horiz-adv-x="1245" 
d="M437 821l-145 -821h-118l176 1000h120l513 -819l144 819h118l-176 -1000h-119zM794 1119l-198 368h123l129 -256l223 256h123l-328 -368h-72z" />
    <glyph glyph-name="Ntilde.smcp" horiz-adv-x="1245" 
d="M437 821l-145 -821h-118l176 1000h120l513 -819l144 819h118l-176 -1000h-119zM587 1233l-58 56q113 125 221 125q57 0 130 -40q74 -41 114 -41q37 0 68 18t76 61l58 -56q-113 -125 -216 -125q-55 0 -132 41q-76 40 -117 40q-37 0 -68 -18t-76 -61z" />
    <glyph glyph-name="Ncommaaccent.smcp" horiz-adv-x="1245" 
d="M437 821l-145 -821h-118l176 1000h120l513 -819l144 819h118l-176 -1000h-119zM684 -128l-119 -380h-98l81 380h136z" />
    <glyph glyph-name="Nhookleft.smcp" horiz-adv-x="1245" 
d="M-52 -420q-90 0 -139 25l34 103q48 -20 117 -20q78 0 127.5 51t66.5 149l196 1112h120l513 -819l144 819h118l-176 -1000h-119l-513 821l-167 -944q-24 -140 -109 -218.5t-213 -78.5z" />
    </font>
</defs>
</svg>
