<?xml version="1.0" standalone="no"?>
<!DOCTYPE svg PUBLIC "-//W3C//DTD SVG 1.1//EN" "http://www.w3.org/Graphics/SVG/1.1/DTD/svg11.dtd" >
<svg xmlns="http://www.w3.org/2000/svg" xmlns:xlink="http://www.w3.org/1999/xlink" version="1.1">
<metadata>
Created by FontForge 20170731 at Sun Sep 13 23:32:46 2020
 By Aleksey,,,
Copyright (c) 2020 by TipoType Team. All rights reserved.
</metadata>
<defs>
<font id="Mundial-Black" horiz-adv-x="1432" >
  <font-face 
    font-family="Mundial Black"
    font-weight="900"
    font-stretch="normal"
    units-per-em="2048"
    panose-1="0 0 0 0 0 0 0 0 0 0"
    ascent="1638"
    descent="-410"
    x-height="960"
    cap-height="1358"
    bbox="-283 -548 2562 2296"
    underline-thickness="150"
    underline-position="-950"
    unicode-range="U+000D-FB04"
  />
<missing-glyph horiz-adv-x="1442" 
d="M722 776l-243 242l-97 -97l242 -240l-244 -245l97 -97l245 242l243 -242l97 97l-244 245l242 240l-97 97zM1230 0h-1018v1358h1018v-1358z" />
    <glyph glyph-name="f_f" unicode="ff" horiz-adv-x="1442" 
d="M163 0v658h-146v302h145v91q0 146 86 255q46 57 130.5 89.5t197.5 32.5q96 0 198 -32l-39 -301q-46 29 -108 29q-48 0 -76.5 -23.5t-28.5 -71.5v-69h300v74q0 59 13 113t45 106.5t81 90t127.5 61t177.5 23.5q114 0 228 -32l-39 -301q-60 29 -138 29q-62 0 -98.5 -27.5
t-36.5 -84.5v-52h249v-302h-234v-658h-374v658h-286v-658h-374z" />
    <glyph glyph-name="fi" unicode="fi" horiz-adv-x="1336" 
d="M17 658v302h145v91q0 147 84 255q45 57 127.5 89.5t192.5 32.5q96 0 198 -32l-39 -301q-46 29 -108 29q-44 0 -69.5 -23.5t-25.5 -71.5v-69h229v-302h-214v-658h-374v658h-146zM1210 0h-384v960h384v-960zM803 1256q0 96 58 154q59 59 152 59q95 0 154 -59t59 -154
q0 -93 -59 -152q-58 -58 -154 -58q-94 0 -152 58t-58 152z" />
    <glyph glyph-name="fl" unicode="fl" horiz-adv-x="1336" 
d="M17 658v302h145v91q0 146 86 255q46 57 130.5 89.5t197.5 32.5q96 0 198 -32l-39 -301q-46 29 -108 29q-48 0 -76.5 -23.5t-28.5 -71.5v-69h229v-302h-214v-658h-374v658h-146zM826 0v1408h384v-1408h-384z" />
    <glyph glyph-name="f_f_i" unicode="ffi" horiz-adv-x="1996" 
d="M163 0v658h-146v302h145v91q0 146 86 255q46 57 130.5 89.5t197.5 32.5q96 0 198 -32l-39 -301q-46 29 -108 29q-48 0 -76.5 -23.5t-28.5 -71.5v-69h300v91q0 146 86 255q46 57 130.5 89.5t197.5 32.5q96 0 198 -32l-39 -301q-46 29 -108 29q-48 0 -76.5 -23.5
t-28.5 -71.5v-69h229v-302h-214v-658h-374v658h-286v-658h-374zM1486 0v960h384v-960h-384zM1463 1256q0 96 58 154q59 59 152 59q95 0 154 -59t59 -154q0 -93 -59 -152q-58 -58 -154 -58q-94 0 -152 58t-58 152z" />
    <glyph glyph-name="f_f_l" unicode="ffl" horiz-adv-x="1996" 
d="M163 0v658h-146v302h145v91q0 146 86 255q46 57 130.5 89.5t197.5 32.5q96 0 198 -32l-39 -301q-46 29 -108 29q-48 0 -76.5 -23.5t-28.5 -71.5v-69h300v91q0 146 86 255q46 57 130.5 89.5t197.5 32.5q96 0 198 -32l-39 -301q-46 29 -108 29q-48 0 -76.5 -23.5
t-28.5 -71.5v-69h229v-302h-214v-658h-374v658h-286v-658h-374zM1870 0h-384v1408h384v-1408z" />
    <glyph glyph-name=".notdef" horiz-adv-x="1442" 
d="M722 776l-243 242l-97 -97l242 -240l-244 -245l97 -97l245 242l243 -242l97 97l-244 245l242 240l-97 97zM1230 0h-1018v1358h1018v-1358z" />
    <glyph glyph-name="uni0000" horiz-adv-x="82" 
 />
    <glyph glyph-name="uni0000" horiz-adv-x="82" 
 />
    <glyph glyph-name="uni000D" unicode="&#xd;" horiz-adv-x="566" 
 />
    <glyph glyph-name="space" unicode=" " horiz-adv-x="464" 
 />
    <glyph glyph-name="exclam" unicode="!" horiz-adv-x="648" 
d="M198 458l-73 900h396l-67 -900h-256zM466 37q-58 -57 -143 -57t-142 57q-58 55 -58 139q0 83 58 140q57 57 142 57t143 -57t58 -140q0 -84 -58 -139z" />
    <glyph glyph-name="quotedbl" unicode="&#x22;" horiz-adv-x="944" 
d="M142 918l-63 510h339l-63 -510h-213zM589 918l-63 510h339l-64 -510h-212z" />
    <glyph glyph-name="numbersign" unicode="#" horiz-adv-x="1456" 
d="M254 289h-208l48 273h210l46 249h-211l51 272h211l49 275h304l-46 -275h192l49 275h305l-48 -275h206l-48 -272h-210l-46 -249h210l-50 -273h-208l-51 -289h-306l51 289h-194l-50 -289h-306zM850 811h-195l-47 -249h195z" />
    <glyph glyph-name="dollar" unicode="$" horiz-adv-x="1265" 
d="M55 294l285 199q94 -138 235 -173v210q-71 21 -98 31q-39 13 -93 36q-54 22 -89.5 43.5t-74.5 55.5q-110 91 -116 267q0 117 67 209q66 93 172 144q107 51 232 60v160h131v-162q281 -31 451 -294l-271 -188q-66 108 -180 144v-204q181 -52 296 -117q69 -40 106 -80
q88 -95 88 -237q0 -92 -41 -170t-113 -129q-142 -103 -336 -117v-158h-131v159q-171 16 -304.5 96t-215.5 215zM782 346q28 23 28.5 53t-24.5 50q-26 21 -80 40v-175q47 9 76 32zM575 874v171q-85 -18 -85 -81q0 -53 85 -90z" />
    <glyph glyph-name="percent" unicode="%" horiz-adv-x="1769" 
d="M33 1000q0 164 105 271q105 106 271 106q167 0 273 -106t106 -271q0 -161 -106 -264q-106 -105 -273 -105q-165 0 -271 104q-105 103 -105 265zM1630 85q-106 -105 -273 -105q-165 0 -271 104q-105 103 -105 265q0 165 105 271t271 106q167 0 273 -106t106 -271
q0 -161 -106 -264zM1364 1334l-732 -1334h-227v26l734 1332h225v-24zM1243 350q0 -53 31.5 -87.5t81.5 -34.5q51 0 83.5 34.5t32.5 87.5q0 54 -32.5 88.5t-83.5 34.5q-50 0 -81.5 -34.5t-31.5 -88.5zM408 1124q-50 0 -81.5 -34.5t-31.5 -88.5q0 -53 31.5 -87.5t81.5 -34.5
q51 0 83.5 34.5t32.5 87.5q0 54 -32.5 88.5t-83.5 34.5z" />
    <glyph glyph-name="ampersand" unicode="&#x26;" horiz-adv-x="1457" 
d="M51 367q0 225 262 358q-130 146 -130 291q0 159 126 261q125 101 331 101q95 0 178 -29t139 -79q55 -49 85.5 -113t30.5 -133q0 -118 -88 -209q-81 -84 -184 -136l141 -139q40 64 30 193h319q6 -245 -122 -400l338 -333h-439l-93 90q-169 -110 -402 -110q-231 0 -376 108
q-146 108 -146 279zM401 407q0 -58 56 -94.5t148 -36.5q71 0 132 31l-231 226q-46 -17 -75.5 -53t-29.5 -73zM636 1093q-46 0 -76.5 -26.5t-30.5 -70.5q0 -29 14 -52q14 -24 57 -68q73 34 103.5 63t30.5 64q0 41 -27.5 65.5t-70.5 24.5z" />
    <glyph glyph-name="quotesingle" unicode="'" horiz-adv-x="497" 
d="M418 1428l-63 -510h-213l-63 510h339z" />
    <glyph glyph-name="parenleft" unicode="(" horiz-adv-x="720" 
d="M61 580q0 541 334 980h341q-176 -279 -241 -498t-65 -482q0 -267 64 -483q62 -216 240 -497h-340q-333 433 -333 980z" />
    <glyph glyph-name="parenright" unicode=")" horiz-adv-x="720" 
d="M325 -400h-341q178 282 242 498t64 482t-63 483q-64 217 -241 497h340q333 -434 333 -980q0 -541 -334 -980z" />
    <glyph glyph-name="asterisk" unicode="*" horiz-adv-x="944" 
d="M362 682l-207 143l139 160l-221 62l80 222l211 -74l-16 213h248l-16 -213l211 74l80 -222l-221 -62l139 -160l-207 -143l-110 181z" />
    <glyph glyph-name="plus" unicode="+" horiz-adv-x="1201" 
d="M21 521v326h387v362h380v-362h391v-326h-391v-370h-380v370h-387z" />
    <glyph glyph-name="comma" unicode="," horiz-adv-x="594" 
d="M4 -263l142 516h364l-210 -516h-296z" />
    <glyph glyph-name="hyphen" unicode="-" horiz-adv-x="965" 
d="M100 668h765v-274h-765v274z" />
    <glyph glyph-name="period" unicode="." horiz-adv-x="541" 
d="M128 37q-58 55 -58 139q0 83 58 140q57 57 142 57q84 0 143 -57q58 -57 58 -140q0 -84 -58 -139q-59 -57 -143 -57q-85 0 -142 57z" />
    <glyph glyph-name="slash" unicode="/" horiz-adv-x="1146" 
d="M775 1529h359l-762 -1929h-358z" />
    <glyph glyph-name="zero" unicode="0" horiz-adv-x="1325" 
d="M108 399q-36 123 -36 271t36 274q77 275 291 379q117 56 264 56t264 -56q212 -104 291 -379q35 -128 35 -274q0 -148 -36 -271q-77 -266 -291 -366q-117 -53 -263 -53t-263 53q-214 100 -292 366zM753 1020q-39 32 -90 32t-90 -32q-38 -31 -61 -86q-44 -107 -44 -254
q0 -76 11 -141t34 -118t61.5 -83.5t88.5 -30.5q64 0 109.5 52.5t65.5 137.5q19 79 19 183q-4 254 -104 340z" />
    <glyph glyph-name="one" unicode="1" horiz-adv-x="828" 
d="M677 0h-388v1028h-279v330h667v-1358z" />
    <glyph glyph-name="two" unicode="2" horiz-adv-x="1172" 
d="M342 878l-293 131q42 138 169 248q65 57 159 89.5t199 32.5q233 0 378 -124q144 -125 144 -328q0 -90 -46 -182q-33 -66 -121 -154q-30 -30 -78 -69q-49 -40 -81 -63q-21 -16 -84 -61q-15 -11 -55 -42q-35 -29 -37 -31h510v-325h-1010v142q0 85 22 139q26 69 62 110
q11 13 46 50q28 27 59 52q56 45 66 53q9 7 79 61q22 16 63 48q113 85 156 141q44 55 44 121q0 60 -38.5 96t-103.5 36t-121.5 -47.5t-87.5 -123.5z" />
    <glyph glyph-name="three" unicode="3" horiz-adv-x="1185" 
d="M578 -19q-200 0 -343 107q-132 98 -184 231l284 152q82 -160 232 -160q64 0 103.5 32.5t39.5 83.5q0 58 -40.5 93t-107.5 35h-197v260h207q51 0 90 36q39 35 39 82q0 55 -38 87.5t-95 32.5q-140 0 -223 -156l-272 137q59 154 198 249q140 95 316 95q211 0 360 -103
q74 -52 115.5 -133.5t41.5 -180.5q0 -110 -69 -181q-60 -61 -131 -85q81 -28 145 -106q64 -79 64 -192q0 -186 -148 -301t-387 -115z" />
    <glyph glyph-name="four" unicode="4" horiz-adv-x="1221" 
d="M617 0v317h-597v237l551 804h426v-739h184v-302h-184v-317h-380zM617 955l-203 -336h203v336z" />
    <glyph glyph-name="five" unicode="5" horiz-adv-x="1156" 
d="M548 -19q-362 0 -511 332l297 156q76 -159 209 -159q66 0 111 46q45 45 45 112t-45 110t-117 43q-54 0 -99.5 -28t-71.5 -70l-272 119l77 716h849v-326h-523l-18 -172q65 41 181 41q188 0 314 -123t126 -317q0 -215 -152 -347q-152 -133 -400 -133z" />
    <glyph glyph-name="six" unicode="6" horiz-adv-x="1255" 
d="M652 -20q-174 0 -298.5 69t-192.5 190q-89 153 -89 364q0 378 177 576.5t511 198.5q115 0 202 -21q89 -24 172 -67l-89 -291q-133 72 -278 72q-123 2 -211.5 -67t-105.5 -206q35 54 111.5 87.5t177.5 33.5q212 0 340 -119t128 -317q0 -229 -151 -365q-152 -138 -404 -138
zM776 588q-52 47 -130 47t-130 -47q-51 -48 -51 -122t51 -121q52 -47 130 -47t130 47q51 47 51 121t-51 122z" />
    <glyph glyph-name="seven" unicode="7" horiz-adv-x="1052" 
d="M28 1032v326h1011v-263q-334 -531 -508 -1095h-419q222 625 502 1032h-586z" />
    <glyph glyph-name="eight" unicode="8" horiz-adv-x="1221" 
d="M1003 94q-151 -114 -392 -114t-392 114q-151 112 -151 294q0 118 65 203q65 83 159 123q-84 28 -143 101q-58 71 -58 173q0 175 144 283q143 107 376 107q232 0 374 -107q141 -108 141 -283q0 -101 -58 -172q-58 -73 -146 -102q96 -38 164 -123q67 -83 67 -203
q0 -182 -150 -294zM457 412q0 -60 45 -98q44 -37 109 -37t109 37q45 38 45 98q0 64 -45 102q-44 37 -109 37t-109 -37q-45 -38 -45 -102zM486 964q0 -52 34 -87.5t91 -35.5q41 -2 72.5 21t44 56t6.5 69.5t-32 59.5q-34 33 -91 33q-55 0 -90 -33q-35 -35 -35 -83z" />
    <glyph glyph-name="nine" unicode="9" horiz-adv-x="1258" 
d="M519 429q-195 0 -326 107q-67 54 -104.5 142t-37.5 197q0 239 154 371q153 132 401 132q147 0 261 -48.5t183 -137.5q136 -175 136 -437q0 -378 -174 -576.5t-504 -198.5q-227 0 -384 91l69 293q145 -77 298 -77q169 0 254 109q48 62 58 154q-34 -46 -110 -84
q-74 -37 -174 -37zM470 1017q-49 -46 -49 -122t49 -122q50 -47 127 -47t127 47q49 46 49 122t-49 122t-127 46t-127 -46z" />
    <glyph glyph-name="colon" unicode=":" horiz-adv-x="599" 
d="M157 37q-58 55 -58 139q0 83 58 140q57 57 142 57t143 -57t58 -140q0 -84 -58 -139q-58 -57 -143 -57t-142 57zM157 644q-58 55 -58 139q0 83 58 140q57 57 142 57t143 -57t58 -140q0 -84 -58 -139q-58 -57 -143 -57t-142 57z" />
    <glyph glyph-name="semicolon" unicode=";" horiz-adv-x="630" 
d="M319 -263h-296l142 516h364zM191 644q-58 55 -58 139q0 83 58 140q57 57 142 57t143 -57t58 -140q0 -84 -58 -139q-58 -57 -143 -57t-142 57z" />
    <glyph glyph-name="less" unicode="&#x3c;" horiz-adv-x="1277" 
d="M1155 420v-370l-1086 492v277l1086 488v-371l-597 -255q17 -7 53 -23t98.5 -43t120.5 -52q162 -70 325 -143z" />
    <glyph glyph-name="equal" unicode="=" horiz-adv-x="1309" 
d="M1205 625v-330h-1101v330h1101zM104 736v329h1101v-329h-1101z" />
    <glyph glyph-name="greater" unicode="&#x3e;" horiz-adv-x="1277" 
d="M1208 818v-277l-1086 -488v371l597 255q-11 5 -271 119q-82 36 -194.5 85t-131.5 57v370z" />
    <glyph glyph-name="question" unicode="?" horiz-adv-x="1044" 
d="M327 892l-302 136q61 168 193 259t314 91q199 0 329 -110q129 -110 129 -287q0 -61 -18.5 -116.5t-48.5 -97t-66.5 -79t-73.5 -69.5t-67.5 -61t-51 -60t-22.5 -61h-292q-8 37 -8 75q0 128 100 223q37 34 83 72q99 79 99 144q0 46 -31.5 72t-85.5 26t-102 -41.5
t-78 -115.5zM645 37q-59 -57 -143 -57q-85 0 -142 57q-58 55 -58 139q0 83 58 140q57 57 142 57q84 0 143 -57q58 -57 58 -140q0 -84 -58 -139z" />
    <glyph glyph-name="at" unicode="@" horiz-adv-x="1847" 
d="M924 -324q-209 -1 -394.5 89.5t-305.5 249.5q-82 105 -127 240t-45 284q-1 228 98 414t270 299q226 155 524 155q168 0 323 -63q154 -63 268 -171q115 -109 182 -261q68 -154 68 -324q0 -237 -95 -371q-96 -135 -238 -136q-207 0 -290 155q-104 -165 -315 -165
q-177 0 -293 131t-116 326q0 197 111 329q110 131 281 131q149 0 229 -101l16 78h310v-600q0 -47 21 -75t62 -28q68 0 101 88.5t33 237.5q0 179 -85 325t-239 232q-154 85 -343 85q-205 2 -367 -85.5t-251 -246.5t-86 -361q0 -191 92 -349q90 -156 250 -246q157 -88 351 -88
q218 0 414 112l70 -153q-127 -69 -241 -103t-243 -34zM919 694q-70 0 -112 -45.5t-42 -119.5q0 -73 42 -118t112 -45q67 0 108.5 45t41.5 118q0 74 -41.5 119.5t-108.5 45.5z" />
    <glyph glyph-name="A" unicode="A" horiz-adv-x="1487" 
d="M498 227l-88 -227h-426l522 1358h476l521 -1358h-426l-88 227h-491zM899 528l-155 454l-156 -454h311z" />
    <glyph glyph-name="B" unicode="B" horiz-adv-x="1337" 
d="M841 0h-691v1358h646q196 0 317 -97t121 -265q0 -201 -192 -309q231 -85 231 -316q0 -159 -117 -265q-116 -106 -315 -106zM549 532v-215h170q56 0 92.5 31t36.5 74q0 47 -35 78.5t-94 31.5h-170zM549 1044v-216h156q53 0 85.5 31.5t32.5 77.5q0 44 -35.5 75.5
t-90.5 31.5h-148z" />
    <glyph glyph-name="C" unicode="C" horiz-adv-x="1421" 
d="M790 -20q-211 0 -378 92q-169 93 -259 251q-92 161 -92 358t92 357q91 157 259 250q166 90 378 90q189 0 349 -92q159 -93 242 -248l-290 -201q-101 192 -301 192q-148 0 -236 -96q-89 -97 -89 -252t90 -253q90 -99 235 -99q206 0 320 194l285 -199q-75 -151 -243 -247
q-169 -97 -362 -97z" />
    <glyph glyph-name="D" unicode="D" horiz-adv-x="1502" 
d="M748 0h-598v1358h598q140 0 270 -53q128 -54 221 -144q94 -92 147.5 -218t53.5 -263q0 -138 -54 -264q-55 -125 -147 -217q-92 -90 -221 -145q-129 -54 -270 -54zM727 1037h-178v-717h175q135 0 224 107q88 106 88 253t-87 252t-222 105z" />
    <glyph glyph-name="E" unicode="E" horiz-adv-x="1213" 
d="M1152 0h-1002v1358h992v-320h-594v-188h521v-319h-521v-212h604v-319z" />
    <glyph glyph-name="F" unicode="F" horiz-adv-x="1199" 
d="M549 0h-399v1358h1019v-319h-620v-200h486v-320h-486v-519z" />
    <glyph glyph-name="G" unicode="G" horiz-adv-x="1500" 
d="M61 680q0 147 53 276.5t150 223.5t233.5 146t292.5 52q179 0 331 -82t241 -225l-290 -201q-45 77 -118 118t-164 41q-148 0 -236 -96q-89 -97 -89 -252t90 -253q90 -99 235 -99q96 0 161 41t91 119h-298v292h700q5 -63 5 -128q0 -309 -183 -491q-185 -182 -476 -182
q-156 0 -292.5 53t-233.5 147q-96 94 -149.5 224t-53.5 276z" />
    <glyph glyph-name="H" unicode="H" horiz-adv-x="1616" 
d="M150 0v1358h399v-506h518v506h399v-1358h-399v533h-518v-533h-399z" />
    <glyph glyph-name="I" unicode="I" horiz-adv-x="699" 
d="M150 1358h399v-1358h-399v1358z" />
    <glyph glyph-name="J" unicode="J" horiz-adv-x="1119" 
d="M-20 232l251 239q85 -142 213 -142q63 0 101 44t38 116v869h399v-902q0 -217 -140 -346q-139 -130 -381 -130q-317 0 -481 252z" />
    <glyph glyph-name="K" unicode="K" horiz-adv-x="1484" 
d="M549 0h-399v1358h399v-501l463 501h478l-523 -556l546 -802h-467l-354 554l-143 -148v-406z" />
    <glyph glyph-name="L" unicode="L" horiz-adv-x="1208" 
d="M549 318h652v-318h-1051v1358h399v-1040z" />
    <glyph glyph-name="M" unicode="M" horiz-adv-x="1841" 
d="M544 0h-394v1358h417l353 -781l354 781h417v-1358h-394v676l-258 -599h-237l-258 599v-676z" />
    <glyph glyph-name="N" unicode="N" horiz-adv-x="1592" 
d="M538 0h-388v1358h325l579 -725v725h388v-1358h-311l-593 727v-727z" />
    <glyph glyph-name="O" unicode="O" horiz-adv-x="1560" 
d="M783 -20q-154 0 -287.5 51.5t-230.5 144.5q-96 93 -149.5 223.5t-53.5 281.5q-3 199 90.5 360t260 250.5t370.5 86.5q153 0 286 -51t228 -143q95 -93 148 -223.5t53 -280.5q0 -151 -53 -281.5t-148 -223.5q-95 -92 -228.5 -143.5t-285.5 -51.5zM467 680q0 -155 88 -249
q88 -96 230 -96q139 0 224 96q85 94 85 249q0 152 -85 246t-224 94q-142 0 -230 -94t-88 -246z" />
    <glyph glyph-name="P" unicode="P" horiz-adv-x="1332" 
d="M549 426v-426h-399v1358h675q128 2 238.5 -57.5t176 -167.5t63.5 -238q0 -199 -139 -334q-140 -135 -339 -135h-276zM759 1035h-210v-286h210q62 0 101 44q38 44 38 102q0 61 -38 100.5t-101 39.5z" />
    <glyph glyph-name="Q" unicode="Q" horiz-adv-x="1561" 
d="M829 -20q-154 0 -287.5 51.5t-230.5 144.5q-96 93 -149.5 223.5t-53.5 281.5q-3 199 90.5 360t260 250.5t370.5 86.5q153 0 286 -51t228 -143q95 -93 148 -223.5t53 -280.5q0 -158 -56 -291t-161 -229l113 -156l-251 -169l-124 179q-111 -34 -236 -34zM513 680
q0 -155 88 -249q89 -96 230 -96q15 0 20 1l-117 165l231 155l125 -178q50 86 50 202q0 152 -85 246t-224 94q-142 0 -230 -94t-88 -246z" />
    <glyph glyph-name="R" unicode="R" horiz-adv-x="1375" 
d="M547 455v-455h-397v1358h685q201 0 340 -127q138 -128 138 -323q0 -133 -65 -238t-179 -163l275 -508h-425l-239 456h-133zM768 1035h-221v-270h221q62 0 101 43q38 43 38 100q0 56 -38 91.5t-101 35.5z" />
    <glyph glyph-name="S" unicode="S" horiz-adv-x="1270" 
d="M66 294l285 199q60 -89 141.5 -136t175.5 -47q65 0 109 25.5t44 63.5q0 42 -44 65q-37 19 -178 62l-9 3t-11 3.5t-10 2.5q-117 35 -187 66q-91 39 -158 100q-105 94 -109 262q0 123 75 220q74 97 192 146q116 49 252 49q178 0 308.5 -75.5t225.5 -222.5l-271 -188
q-43 71 -114 114t-153 43q-56 0 -92.5 -22.5t-36.5 -62.5q0 -41 43.5 -68t139.5 -55q159 -45 271 -95q60 -27 106 -62q146 -113 146 -286q0 -98 -47 -180.5t-128 -133.5q-163 -104 -367 -104q-199 0 -353.5 81.5t-245.5 232.5z" />
    <glyph glyph-name="T" unicode="T" horiz-adv-x="1187" 
d="M389 1032h-387v326h1183v-326h-397v-1032h-399v1032z" />
    <glyph glyph-name="U" unicode="U" horiz-adv-x="1451" 
d="M135 497v861h399v-832q0 -99 52.5 -152.5t138.5 -53.5t139 54t53 152v832h399v-861q0 -129 -43.5 -228.5t-122.5 -162t-186 -94.5t-239 -32q-367 0 -514 228q-76 118 -76 289z" />
    <glyph glyph-name="V" unicode="V" horiz-adv-x="1391" 
d="M934 0h-474l-470 1358h428l279 -936l276 936h428z" />
    <glyph glyph-name="W" unicode="W" horiz-adv-x="1991" 
d="M825 0h-466l-355 1358h400l210 -892l222 873h320l221 -873l210 892h400l-355 -1358h-466l-170 582z" />
    <glyph glyph-name="X" unicode="X" horiz-adv-x="1414" 
d="M707 402l-272 -402h-456l499 694l-474 664h455l248 -363l248 363h456l-475 -664l499 -694h-456z" />
    <glyph glyph-name="Y" unicode="Y" horiz-adv-x="1430" 
d="M518 510l-529 848h472l261 -515l265 515h454l-525 -848v-510h-398v510z" />
    <glyph glyph-name="Z" unicode="Z" horiz-adv-x="1234" 
d="M1183 0h-1129v280l632 758h-616v320h1102v-288l-626 -741h637v-329z" />
    <glyph glyph-name="bracketleft" unicode="[" horiz-adv-x="851" 
d="M837 -137v-263h-690v1953h690v-263h-325v-1427h325z" />
    <glyph glyph-name="backslash" unicode="\" horiz-adv-x="1146" 
d="M1132 -400h-358l-762 1929h359z" />
    <glyph glyph-name="bracketright" unicode="]" horiz-adv-x="851" 
d="M704 1553v-1953h-690v263h325v1427h-325v263h690z" />
    <glyph glyph-name="asciicircum" unicode="^" horiz-adv-x="1295" 
d="M429 510h-400l482 848h277l478 -848h-401l-215 429z" />
    <glyph glyph-name="underscore" unicode="_" horiz-adv-x="1148" 
d="M1086 -46v-260h-1024v260h1024z" />
    <glyph glyph-name="grave" unicode="`" horiz-adv-x="847" 
d="M723 1473h-312l-287 334h432z" />
    <glyph glyph-name="a" unicode="a" horiz-adv-x="1119" 
d="M253 573l-191 219q60 68 182 128q121 60 263 60q219 0 356 -103q143 -108 143 -343v-534h-354v98q-37 -58 -110 -88q-72 -30 -149 -30q-146 0 -236 81q-91 81 -91 208q0 94 60 163q58 68 147 99q87 30 187 30q93 0 165 -19v3q0 55 -41 89t-112 34q-116 0 -219 -95z
M417 291q0 -29 23.5 -46.5t59.5 -17.5q55 0 90 34t35 86q-41 16 -97 16q-49 0 -80 -19.5t-31 -52.5z" />
    <glyph glyph-name="b" unicode="b" horiz-adv-x="1265" 
d="M508 0h-382v1408h384v-534q93 106 263 106q189 0 312 -143q123 -142 123 -358q0 -213 -123 -356t-312 -143q-168 0 -256 109zM505 480q0 -79 46.5 -128.5t121.5 -49.5q77 0 124.5 49.5t47.5 128.5q0 80 -47.5 130t-124.5 50q-75 0 -121.5 -50t-46.5 -130z" />
    <glyph glyph-name="c" unicode="c" horiz-adv-x="1070" 
d="M55 480q-3 138 64.5 253.5t189.5 181.5t271 64q153 0 270 -64.5t179 -184.5l-278 -190q-55 118 -164 118q-69 0 -119 -50q-50 -52 -50 -128q0 -81 50 -131q49 -49 123 -49q107 0 169 110l274 -192q-62 -111 -180 -174q-118 -64 -273 -64q-228 0 -377 143t-149 357z" />
    <glyph glyph-name="d" unicode="d" horiz-adv-x="1265" 
d="M57 479q0 215 123 358t312 143q170 0 263 -106v534h384v-1408h-382l-9 89q-88 -109 -256 -109q-189 0 -312 143t-123 356zM592 660q-77 0 -124.5 -50t-47.5 -130q0 -79 47.5 -128.5t124.5 -49.5q75 0 121.5 49.5t46.5 128.5q0 80 -46.5 130t-121.5 50z" />
    <glyph glyph-name="e" unicode="e" horiz-adv-x="1092" 
d="M56 482q-3 138 60.5 253t179 181t258.5 64q127 3 238 -54.5t178 -162.5t65 -232q0 -59 -15 -123h-605q8 -64 58 -98t124 -34q124 0 199 102l223 -201q-40 -63 -151 -126q-126 -71 -292 -71q-228 0 -374 141q-146 140 -146 361zM555 700q-55 0 -95 -35q-40 -34 -45 -83
h271q0 47 -38 83q-38 35 -93 35z" />
    <glyph glyph-name="f" unicode="f" horiz-adv-x="782" 
d="M163 0v658h-146v302h145v74q0 59 13 113t45 106.5t81 90t127.5 61t177.5 23.5q114 0 228 -32l-39 -301q-60 29 -138 29q-62 0 -98.5 -27.5t-36.5 -84.5v-52h249v-302h-234v-658h-374z" />
    <glyph glyph-name="g" unicode="g" horiz-adv-x="1265" 
d="M61 489q0 211 123 351t312 140q166 0 256 -109l9 89h382v-913q-1 -141 -74 -242t-195 -156q-151 -69 -334 -69q-162 0 -283 57t-186 128l197 232q107 -104 260 -104q89 0 157 47q67 46 67 117v32q-87 -89 -256 -89q-189 0 -312 140t-123 349zM596 660q-77 0 -124.5 -47
t-47.5 -123q0 -75 47.5 -121.5t124.5 -46.5q75 0 121.5 46.5t46.5 121.5q0 76 -46.5 123t-121.5 47z" />
    <glyph glyph-name="h" unicode="h" horiz-adv-x="1240" 
d="M510 530v-530h-384v1408h384v-514q97 86 273 86q153 0 249 -93q95 -93 95 -243v-644h-384v530q0 51 -32.5 83t-84.5 32t-84 -32t-32 -83z" />
    <glyph glyph-name="i" unicode="i" horiz-adv-x="636" 
d="M510 960v-960h-384v960h384zM103 1256q0 96 58 154q59 59 152 59q95 0 154 -59t59 -154q0 -93 -59 -152q-58 -58 -154 -58q-94 0 -152 58t-58 152z" />
    <glyph glyph-name="j" unicode="j" horiz-adv-x="599" 
d="M81 -420q-145 0 -241 47l32 288q55 -23 119 -23q52 0 80.5 32t28.5 95v941h373v-978q0 -120 -49 -206.5t-130 -136.5q-97 -59 -213 -59zM309 1046q-94 0 -152 58t-58 152q0 96 58 154q59 59 152 59q95 0 154 -59t59 -154q0 -93 -59 -152q-58 -58 -154 -58z" />
    <glyph glyph-name="k" unicode="k" horiz-adv-x="1211" 
d="M126 0v1408h385v-701l235 253h470l-387 -397l402 -563h-456l-214 338l-50 -52v-286h-385z" />
    <glyph glyph-name="l" unicode="l" horiz-adv-x="636" 
d="M126 1408h384v-1408h-384v1408z" />
    <glyph glyph-name="m" unicode="m" horiz-adv-x="1847" 
d="M126 0v960h345l15 -92q94 112 300 112q90 0 170 -39q79 -39 112 -112q112 151 313 151q126 0 232 -75q56 -39 88.5 -107.5t32.5 -153.5v-644h-383v530q0 51 -32.5 83t-84.5 32t-84 -32t-32 -83v-530h-375v530q0 51 -32.5 83t-84.5 32t-84 -32t-32 -83v-530h-384z" />
    <glyph glyph-name="n" unicode="n" horiz-adv-x="1240" 
d="M510 530v-530h-384v960h350l9 -92q43 52 121.5 82t176.5 30q153 0 249 -93q95 -93 95 -243v-644h-384v530q0 51 -32.5 83t-84.5 32t-84 -32t-32 -83z" />
    <glyph glyph-name="o" unicode="o" horiz-adv-x="1168" 
d="M967 119q-146 -139 -383 -139t-382 139q-147 138 -147 361q0 222 147 362q146 138 382 138t383 -138q146 -140 146 -362q0 -223 -146 -361zM464 610q-46 -49 -46 -130t46 -130q47 -50 120 -50t120 50q46 49 46 130t-46 130t-120 49t-120 -49z" />
    <glyph glyph-name="p" unicode="p" horiz-adv-x="1265" 
d="M126 -400v1360h382l9 -89q88 109 256 109q189 0 312 -142t123 -357t-123 -358t-312 -143q-170 0 -263 106v-486h-384zM673 658q-75 0 -121.5 -49.5t-46.5 -128.5q0 -80 46.5 -130t121.5 -50q77 0 124.5 50t47.5 130q0 79 -47.5 128.5t-124.5 49.5z" />
    <glyph glyph-name="q" unicode="q" horiz-adv-x="1261" 
d="M57 481q0 215 123 357t312 142q180 0 276 -109l9 89h362v-1360h-384v486q-93 -106 -263 -106q-189 0 -312 143t-123 358zM420 480q0 -80 47.5 -130t124.5 -50q75 0 121.5 50t46.5 130q0 79 -46.5 128.5t-121.5 49.5q-77 0 -124.5 -49.5t-47.5 -128.5z" />
    <glyph glyph-name="r" unicode="r" horiz-adv-x="872" 
d="M510 0h-384v960h350l14 -131q33 72 101.5 111.5t156.5 39.5q54 0 114 -18l-23 -322q-55 21 -113 21q-103 0 -159.5 -59.5t-56.5 -170.5v-431z" />
    <glyph glyph-name="s" unicode="s" horiz-adv-x="986" 
d="M52 161l209 197q41 -46 103.5 -72.5t130.5 -26.5q39 0 62 11t23 30q3 12 -13.5 21t-49.5 19q-3 1 -21 5.5t-33 8.5q-35 8 -67 18q-150 43 -228 114.5t-78 184.5q0 133 113 222q113 87 288 87q254 0 395 -166l-197 -202q-35 40 -85 64q-51 25 -99 25q-79 0 -79 -35
q0 -25 59 -43q4 -1 72 -22q10 -3 26 -8t19 -6q133 -40 223 -102q98 -69 98 -187q0 -140 -123 -229q-125 -89 -302 -89q-292 0 -446 181z" />
    <glyph glyph-name="t" unicode="t" horiz-adv-x="849" 
d="M157 369v289h-144v302h143v308h361v-308h284v-302h-270v-225q0 -67 30.5 -97t91.5 -30q87 0 167 33l20 -299q-42 -24 -120 -42q-80 -18 -158 -18q-89 0 -160.5 21t-127.5 65.5t-86.5 121t-30.5 181.5z" />
    <glyph glyph-name="u" unicode="u" horiz-adv-x="1240" 
d="M113 316v644h384v-530q0 -51 32.5 -83t84.5 -32t84 32t32 83v530h384v-960h-350l-9 92q-43 -52 -121.5 -82t-176.5 -30q-153 0 -248 93q-96 93 -96 243z" />
    <glyph glyph-name="v" unicode="v" horiz-adv-x="1155" 
d="M789 0h-423l-361 960h402l170 -595l171 595h402z" />
    <glyph glyph-name="w" unicode="w" horiz-adv-x="1612" 
d="M286 0l-273 960h377l135 -565l158 541h246l157 -541l136 565h377l-273 -960h-407l-114 380l-112 -380h-407z" />
    <glyph glyph-name="x" unicode="x" horiz-adv-x="1114" 
d="M341 490l-342 470h429l129 -211l124 211h426l-334 -470l342 -490h-411l-147 240l-145 -240h-406z" />
    <glyph glyph-name="y" unicode="y" horiz-adv-x="1153" 
d="M400 10l-402 950h398l181 -572l180 572h398l-428 -1078q-61 -155 -164.5 -228.5t-264.5 -73.5q-146 0 -243 54l54 281q60 -29 118 -29q66 0 109 28.5t64 95.5z" />
    <glyph glyph-name="z" unicode="z" horiz-adv-x="941" 
d="M898 0h-841v230l376 424h-371v306h806v-228l-379 -426h409v-306z" />
    <glyph glyph-name="braceleft" unicode="{" horiz-adv-x="815" 
d="M102 423h-92v295h92q63 0 88 27.5t25 90.5v316q0 208 111.5 315.5t330.5 107.5q73 0 143 -10v-271q-10 1 -38 1q-121 0 -157 -36q-36 -37 -36 -158v-289q0 -93 -32 -146q-32 -55 -105 -95q73 -42 105 -95q32 -55 32 -147v-256q0 -126 38 -173t155 -47q28 0 38 1v-267
q-67 -10 -141 -10q-219 0 -331.5 112t-112.5 324v292q0 63 -25 90.5t-88 27.5z" />
    <glyph glyph-name="bar" unicode="|" horiz-adv-x="625" 
d="M147 1758h331v-2158h-331v2158z" />
    <glyph glyph-name="braceright" unicode="}" horiz-adv-x="815" 
d="M15 1294v271q70 10 143 10q219 0 330.5 -107.5t111.5 -315.5v-316q0 -63 25 -90.5t88 -27.5h92v-295h-92q-63 0 -88 -27.5t-25 -90.5v-292q0 -212 -112.5 -324t-331.5 -112q-74 0 -141 10v267q10 -1 38 -1q117 0 155 47t38 173v256q0 92 32 147q32 53 105 95
q-73 40 -105 95q-32 53 -32 146v289q0 121 -36 158q-36 36 -157 36q-28 0 -38 -1z" />
    <glyph glyph-name="asciitilde" unicode="~" horiz-adv-x="1420" 
d="M232 340l-168 257q90 108 201 175q112 67 224 67q67 0 132.5 -20t110.5 -48q107 -68 186 -68q77 0 139 35q59 34 133 108l166 -256q-90 -108 -201 -175q-113 -68 -224 -68q-68 0 -133.5 20t-109.5 48q-107 68 -186 68q-78 0 -139 -35t-131 -108z" />
    <glyph glyph-name="uni00A0" unicode="&#xa0;" horiz-adv-x="566" 
 />
    <glyph glyph-name="exclamdown" unicode="&#xa1;" horiz-adv-x="621" 
d="M504 -395h-396l70 897h256zM167 644q-58 55 -58 139q0 83 58 140q57 57 142 57t143 -57t58 -140q0 -84 -58 -139q-58 -57 -143 -57t-142 57z" />
    <glyph glyph-name="cent" unicode="&#xa2;" horiz-adv-x="1129" 
d="M203 344q-128 139 -128 336q0 199 127 336q127 138 332 160v165h131v-165q131 -13 230.5 -76t153.5 -170l-278 -190q-41 83 -106 108v-340q68 21 115 102l274 -192q-55 -99 -156.5 -160.5t-232.5 -74.5v-183h-131v184q-204 21 -331 160zM534 516v325q-44 -22 -70 -65
t-26 -96q0 -57 25.5 -100t70.5 -64z" />
    <glyph glyph-name="sterling" unicode="&#xa3;" horiz-adv-x="1263" 
d="M1149 318v-319h-1087v257q87 47 125 100.5t37 120.5l-1 131h-154v179h153l-1 107q-1 225 145 355q146 129 378 129q172 0 295.5 -80.5t186.5 -232.5l-274 -159q-70 157 -194 157q-72 0 -117 -47q-46 -46 -46 -120v-109h297v-179h-297v-92q0 -34 -1 -50t-5.5 -37.5
t-15.5 -45.5q-16 -37 -49 -65h625z" />
    <glyph glyph-name="currency" unicode="&#xa4;" horiz-adv-x="1274" 
d="M238 887l-167 164l171 171l165 -165q107 62 229 62q124 0 233 -62l163 165l171 -171l-165 -164q61 -103 61 -225q0 -128 -66 -231l170 -170l-171 -171l-172 174q-106 -57 -224 -57q-116 0 -220 57l-174 -174l-171 171l170 170q-63 107 -63 231q0 123 60 225zM476 662
q0 -65 47 -112q46 -46 113 -46q69 0 116 46q48 46 48 112q0 67 -48 115q-49 47 -116 47q-66 0 -113 -47q-47 -49 -47 -115z" />
    <glyph glyph-name="yen" unicode="&#xa5;" horiz-adv-x="1485" 
d="M468 635l-451 723h472l261 -515l265 515h454l-448 -723h173v-130h-250v-107h250v-130h-250v-268h-398v268h-254v130h254v107h-254v130h176z" />
    <glyph glyph-name="brokenbar" unicode="&#xa6;" horiz-adv-x="625" 
d="M478 1758v-848h-331v848h331zM147 -401v848h331v-848h-331z" />
    <glyph glyph-name="section" unicode="&#xa7;" horiz-adv-x="1147" 
d="M590 -341q-185 0 -323 75t-209 218l254 174q106 -165 269 -165q58 0 98 23t40 60q5 34 -62 70q-14 8 -90 33q-15 4 -52 15q-59 17 -142 45q-41 13 -66 27q-76 36 -111 68q-54 48 -75 97q-27 62 -27 140q0 127 116 225q-97 91 -97 235q0 164 133 272q133 107 334 107
q170 0 300 -72q131 -74 198 -194l-253 -181q-96 145 -238 145q-54 0 -90 -20.5t-36 -55.5q0 -38 38 -62t125 -50q100 -30 152 -49q57 -21 124 -56q64 -35 101 -72q84 -86 84 -212q0 -144 -119 -227q99 -90 99 -231q0 -74 -27.5 -137t-74 -107.5t-107.5 -76t-128.5 -46.5
t-137.5 -15zM533 609q-64 20 -68 21q-37 -31 -37 -74q0 -39 38.5 -63.5t125.5 -50.5q66 -19 107 -33q44 32 44 79q0 26 -28 49t-70 38q-22 8 -93 29q-5 1 -12 3z" />
    <glyph glyph-name="dieresis" unicode="&#xa8;" horiz-adv-x="970" 
d="M513 1650q0 75 46.5 121.5t119.5 46.5q75 0 122 -47t47 -121t-47 -120t-122 -46q-73 0 -119.5 46t-46.5 120zM122 1650q0 75 46.5 121.5t120.5 46.5q73 0 120.5 -47t47.5 -121t-47 -120t-121 -46t-120.5 46t-46.5 120z" />
    <glyph glyph-name="copyright" unicode="&#xa9;" horiz-adv-x="1624" 
d="M83 680q0 148 61 277q60 131 160 222q100 93 232 146q135 53 275 53q193 0 359 -90q168 -92 269 -253q102 -162 102 -355q0 -148 -60 -278q-60 -131 -159 -223q-103 -94 -233 -145q-133 -54 -278 -54q-143 0 -277 54t-233 147q-99 92 -158 223q-60 130 -60 276zM179 680
q0 -126 50.5 -240.5t138.5 -197.5q87 -83 203 -130t240 -47q123 0 239.5 47.5t204.5 130.5t139 198t51 239q0 168 -87 310q-88 141 -234 224q-145 81 -313 81q-167 0 -312 -81q-146 -83 -232 -224q-88 -142 -88 -310zM409 678q0 168 115 282q116 113 291 113
q104 0 191 -49.5t138 -137.5l-70 -49q-94 148 -260 148q-134 0 -222 -88q-89 -89 -89 -219q0 -127 88 -215t220 -88q80 0 151 40t116 108l69 -49q-52 -87 -141 -136q-91 -51 -196 -51q-170 0 -286 113q-115 112 -115 278z" />
    <glyph glyph-name="ordfeminine" unicode="&#xaa;" horiz-adv-x="791" 
d="M105 934q0 83 69 134t181 51q71 0 121 -21v6q0 37 -32.5 61t-85.5 24q-87 0 -149 -65l-96 146q41 46 109 76q72 32 148 32q141 0 223 -64t82 -174v-378h-189v56q-28 -31 -73 -49.5t-97 -18.5q-94 0 -153 51q-58 51 -58 133zM680 490h-569v165h569v-165zM306 948
q0 -21 16.5 -33t43.5 -12q42 0 76 25t34 48q-32 21 -93 21q-36 0 -56.5 -13t-20.5 -36z" />
    <glyph glyph-name="guillemotleft" unicode="&#xab;" horiz-adv-x="1213" 
d="M1148 86h-335l-272 395l272 394h335l-254 -394zM339 86l-272 395l272 394h335l-254 -394l254 -395h-335z" />
    <glyph glyph-name="logicalnot" unicode="&#xac;" horiz-adv-x="1292" 
d="M1183 342h-386v332h-750v326h1136v-658z" />
    <glyph glyph-name="uni00AD" unicode="&#xad;" horiz-adv-x="890" 
d="M100 668h690v-274h-690v274z" />
    <glyph glyph-name="registered" unicode="&#xae;" horiz-adv-x="1224" 
d="M609 541q-145 -3 -269 66.5t-195.5 189t-68.5 258.5q-3 139 68.5 258.5t195.5 188.5t269 66q145 3 271 -66t199 -188.5t70 -258.5q3 -139 -70 -259t-199 -189t-271 -66zM609 1488q-186 0 -314 -125q-129 -126 -129 -308q0 -181 129 -305q128 -125 314 -125q188 0 319 125
t131 305q0 182 -130 308q-131 125 -320 125zM504 805h-85v506h216q80 0 127.5 -42t47.5 -113q0 -51 -26.5 -88.5t-71.5 -51.5l123 -211h-99l-110 197h-122v-197zM504 1235v-157h129q42 0 65.5 21t23.5 57t-23.5 57.5t-65.5 21.5h-129z" />
    <glyph glyph-name="macron" unicode="&#xaf;" horiz-adv-x="839" 
d="M124 1720h591v-234h-591v234z" />
    <glyph glyph-name="degree" unicode="&#xb0;" horiz-adv-x="824" 
d="M410 678q-158 0 -257 96t-99 250q0 158 99 255q100 98 257 98q160 0 261 -98q99 -97 99 -255q0 -154 -100 -250t-260 -96zM333 1108q-30 -32 -30 -83t30 -82q29 -32 76 -32q50 0 80.5 31.5t30.5 82.5t-31 83t-80 32q-47 0 -76 -32z" />
    <glyph glyph-name="plusminus" unicode="&#xb1;" horiz-adv-x="1283" 
d="M451 431v307h-366v326h366v295h381v-295h365v-326h-365v-307h-381zM1193 291v-313h-1100v313h1100z" />
    <glyph glyph-name="twosuperior" unicode="&#xb2;" horiz-adv-x="725" 
d="M263 1062l-184 113q31 88 121 146q88 57 196 57q142 0 227 -73q86 -74 86 -194q0 -81 -51 -154q-20 -30 -56 -66q-45 -44 -130 -110q-40 -31 -60 -48h303v-199h-607v85q0 76 46.5 141.5t139.5 140.5q110 88 135 116q39 43 39 79q0 33 -23.5 52.5t-57.5 19.5
q-39 0 -72 -28t-52 -78z" />
    <glyph glyph-name="threesuperior" unicode="&#xb3;" horiz-adv-x="727" 
d="M379 514q-101 0 -186 52q-87 54 -118 131l161 112q6 -10 23 -32q16 -19 28 -29q39 -33 88 -33q39 0 65 22t26 55q0 35 -20.5 56.5t-54.5 21.5h-120v160h120q28 0 49 23t21 52q0 31 -24 52.5t-59 21.5q-90 0 -138 -100l-161 110q37 84 123 136q88 53 187 53q142 0 230 -70
q87 -70 87 -184q0 -57 -34.5 -104.5t-90.5 -67.5q59 -19 95 -71t36 -115q0 -113 -92 -182q-91 -70 -241 -70z" />
    <glyph glyph-name="acute" unicode="&#xb4;" horiz-adv-x="847" 
d="M291 1807h432l-287 -334h-312z" />
    <glyph glyph-name="paragraph" unicode="&#xb6;" horiz-adv-x="1409" 
d="M590 382h-36q-226 0 -374 136q-149 137 -149 352t149 352q148 136 374 136h775v-260h-486v-1498h-253v782zM1203 -400h-253v1394h253v-1394z" />
    <glyph glyph-name="periodcentered" unicode="&#xb7;" horiz-adv-x="583" 
d="M149 399q-58 55 -58 139q0 83 58 140q57 57 142 57t143 -57t58 -140q0 -84 -58 -139q-58 -57 -143 -57t-142 57z" />
    <glyph glyph-name="cedilla" unicode="&#xb8;" horiz-adv-x="680" 
d="M244 -481q-104 0 -170 30v182q54 -22 126 -22q53 0 83.5 14.5t30.5 39.5q0 26 -32 40.5t-88 14.5h-67l82 209h177l-30 -101q105 -15 161.5 -66t56.5 -133q0 -96 -98.5 -153t-231.5 -55z" />
    <glyph glyph-name="onesuperior" unicode="&#xb9;" horiz-adv-x="526" 
d="M446 534h-234v625h-186v199h420v-824z" />
    <glyph glyph-name="ordmasculine" unicode="&#xba;" horiz-adv-x="865" 
d="M100 1049q0 145 92 237q91 91 239 91q150 0 242 -91q92 -92 92 -237q0 -143 -92 -232q-94 -89 -242 -89q-147 0 -239 89t-92 232zM125 480v166h621v-166h-621zM430 1161q-46 0 -74.5 -31t-28.5 -80t28.5 -79.5t74.5 -30.5q48 0 77.5 30.5t29.5 79.5q0 50 -29.5 80.5
t-77.5 30.5z" />
    <glyph glyph-name="guillemotright" unicode="&#xbb;" horiz-adv-x="1213" 
d="M1146 480l-272 -394h-335l254 394l-254 395h335zM319 480l-254 395h335l272 -395l-272 -394h-335z" />
    <glyph glyph-name="onequarter" unicode="&#xbc;" horiz-adv-x="1618" 
d="M864 190v142l343 492h255v-453h111v-181h-111v-190h-228v190h-370zM332 0v26l734 1332h225v-24l-732 -1334h-227zM260 530v625h-186v199h420v-824h-234zM1234 371v204l-142 -204h142z" />
    <glyph glyph-name="onehalf" unicode="&#xbd;" horiz-adv-x="1678" 
d="M1198 528l-184 113q31 88 121 146q89 57 196 57q142 0 227 -73q86 -74 86 -194q0 -81 -51 -154q-20 -30 -56 -66q-45 -44 -130 -110q-41 -31 -60 -48h303v-199h-607v85q0 76 46.5 141.5t139.5 140.5q110 88 135 116q39 43 39 79q0 33 -23.5 52.5t-57.5 19.5
q-39 0 -72 -28t-52 -78zM332 0v26l734 1332h225v-24l-732 -1334h-227zM260 530v625h-186v199h420v-824h-234z" />
    <glyph glyph-name="threequarters" unicode="&#xbe;" horiz-adv-x="1821" 
d="M101 703l161 112q6 -10 23 -32q16 -19 28 -29q39 -33 88 -33q39 0 65 22t26 55q0 35 -20.5 56.5t-54.5 21.5h-120v160h120q28 0 49 23t21 52q0 31 -24 52.5t-59 21.5q-90 0 -138 -100l-161 110q37 84 123 136q88 53 187 53q142 0 230 -70q87 -71 87 -184
q0 -57 -34.5 -104.5t-90.5 -67.5q59 -19 95 -71t36 -115q0 -113 -92 -182q-91 -70 -241 -70q-101 0 -186 52q-87 54 -118 131zM1082 190v142l343 492h255v-453h111v-181h-111v-190h-228v190h-370zM1469 1334l-732 -1334h-227v26l734 1332h225v-24zM1452 575l-142 -204h142
v204z" />
    <glyph glyph-name="questiondown" unicode="&#xbf;" horiz-adv-x="1032" 
d="M6 -19q0 61 18.5 116.5t48.5 97t66.5 79t73.5 69.5t67.5 61t51 60t22.5 61h292q8 -37 8 -75q0 -65 -28 -123t-72 -99q-35 -34 -82 -72q-100 -80 -100 -145q0 -46 31.5 -72t85.5 -26t102 41.5t78 115.5l302 -136q-61 -168 -193 -259t-314 -91q-199 0 -329 110
q-129 110 -129 287zM637 646q-59 -57 -143 -57t-143 57q-58 57 -58 140t58 140q59 56 143 56t143 -56q57 -57 57 -140t-57 -140z" />
    <glyph glyph-name="Agrave" unicode="&#xc0;" horiz-adv-x="1487" 
d="M498 227l-88 -227h-426l522 1358h476l521 -1358h-426l-88 227h-491zM579 1473l-287 334h432l167 -334h-312zM899 528l-155 454l-156 -454h311z" />
    <glyph glyph-name="Aacute" unicode="&#xc1;" horiz-adv-x="1487" 
d="M498 227l-88 -227h-426l522 1358h476l521 -1358h-426l-88 227h-491zM911 1473h-312l167 334h432zM899 528l-155 454l-156 -454h311z" />
    <glyph glyph-name="Acircumflex" unicode="&#xc2;" horiz-adv-x="1487" 
d="M410 0h-426l522 1358h476l521 -1358h-426l-88 227h-491zM743 1631l-104 -160h-311l287 370h257l287 -370h-312zM899 528l-155 454l-156 -454h311z" />
    <glyph glyph-name="Atilde" unicode="&#xc3;" horiz-adv-x="1487" 
d="M410 0h-426l522 1358h476l521 -1358h-426l-88 227h-491zM479 1465l-140 127q114 230 288 230q74 0 144 -46t112 -46q60 0 129 77l137 -117q-37 -75 -90 -129t-106 -76q-48 -22 -99 -22q-36 -1 -85 22t-93.5 46t-71.5 21q-60 0 -125 -87zM744 982l-156 -454h311z" />
    <glyph glyph-name="Adieresis" unicode="&#xc4;" horiz-adv-x="1487" 
d="M410 0h-426l522 1358h476l521 -1358h-426l-88 227h-491zM381 1650q0 75 46.5 121.5t120.5 46.5t121 -47t47 -121t-47 -120t-121 -46t-120.5 46t-46.5 120zM772 1650q0 75 46.5 121.5t119.5 46.5q75 0 122 -47t47 -121t-47 -120t-122 -46q-73 0 -119.5 46t-46.5 120z
M744 982l-156 -454h311z" />
    <glyph glyph-name="Aring" unicode="&#xc5;" horiz-adv-x="1487" 
d="M498 227l-88 -227h-426l522 1358h476l521 -1358h-426l-88 227h-491zM512 1690q0 99 66 165q64 66 165 66q99 0 166 -66q66 -66 66 -165q0 -98 -66 -162q-67 -66 -166 -66q-100 0 -165 65q-66 65 -66 163zM744 982l-156 -454h311zM707 1729q-16 -17 -16 -38t16 -37
q15 -16 36 -16t37 16q15 16 15 37t-15 38q-16 17 -37 17t-36 -17z" />
    <glyph glyph-name="AE" unicode="&#xc6;" horiz-adv-x="1976" 
d="M481 227l-126 -227h-425l742 1358h1233v-320h-594v-188h521v-319h-521v-212h604v-319h-1002v227h-432zM913 1062l-288 -534h288v534z" />
    <glyph glyph-name="Ccedilla" unicode="&#xc7;" horiz-adv-x="1421" 
d="M612 -182l66 169q-277 36 -446 229q-171 192 -171 465q0 197 92 357q91 157 259 250q166 90 378 90q189 0 349 -92q159 -93 242 -248l-290 -201q-101 192 -301 192q-148 0 -236 -96q-89 -97 -89 -252t90 -253q90 -99 235 -99q206 0 320 194l285 -199q-68 -137 -215 -230
q-147 -95 -322 -111l-17 -57q105 -15 161.5 -66t56.5 -133q0 -96 -98.5 -153t-231.5 -55q-104 0 -170 30v182q54 -22 126 -22q53 0 83.5 14.5t30.5 39.5q0 26 -31.5 40.5t-88.5 14.5h-67z" />
    <glyph glyph-name="Egrave" unicode="&#xc8;" horiz-adv-x="1213" 
d="M1152 0h-1002v1358h992v-320h-594v-188h521v-319h-521v-212h604v-319zM522 1473l-287 334h432l167 -334h-312z" />
    <glyph glyph-name="Eacute" unicode="&#xc9;" horiz-adv-x="1213" 
d="M1152 0h-1002v1358h992v-320h-594v-188h521v-319h-521v-212h604v-319zM1073 1807l-287 -334h-312l167 334h432z" />
    <glyph glyph-name="Ecircumflex" unicode="&#xca;" horiz-adv-x="1213" 
d="M1152 319v-319h-1002v1358h992v-320h-594v-188h521v-319h-521v-212h604zM545 1471h-311l287 370h257l287 -370h-312l-104 160z" />
    <glyph glyph-name="Edieresis" unicode="&#xcb;" horiz-adv-x="1213" 
d="M150 0v1358h992v-320h-594v-188h521v-319h-521v-212h604v-319h-1002zM689 1650q0 75 46.5 121.5t119.5 46.5q75 0 122 -47t47 -121t-47 -120t-122 -46q-73 0 -119.5 46t-46.5 120zM586 1530q-46 -46 -121 -46q-74 0 -120 46q-47 47 -47 120q0 75 46.5 121.5t120.5 46.5
t121 -47t47 -121q0 -73 -47 -120z" />
    <glyph glyph-name="Igrave" unicode="&#xcc;" horiz-adv-x="699" 
d="M150 1358h399v-1358h-399v1358zM506 1473h-312l-287 334h432z" />
    <glyph glyph-name="Iacute" unicode="&#xcd;" horiz-adv-x="699" 
d="M150 1358h399v-1358h-399v1358zM361 1807h432l-287 -334h-312z" />
    <glyph glyph-name="Icircumflex" unicode="&#xce;" horiz-adv-x="699" 
d="M549 1358v-1358h-399v1358h399zM245 1471h-311l287 370h257l287 -370h-312l-104 160z" />
    <glyph glyph-name="Idieresis" unicode="&#xcf;" horiz-adv-x="699" 
d="M549 1358v-1358h-399v1358h399zM377 1650q0 75 46.5 121.5t119.5 46.5q75 0 122 -47t47 -121t-47 -120t-122 -46q-73 0 -119.5 46t-46.5 120zM-14 1650q0 75 46.5 121.5t120.5 46.5q73 0 120.5 -47t47.5 -121t-47 -120t-121 -46t-120.5 46t-46.5 120z" />
    <glyph glyph-name="Eth" unicode="&#xd0;" horiz-adv-x="1607" 
d="M201 605h-134v184h134v569h598q140 0 270 -53q128 -54 221 -144q94 -92 147.5 -218t53.5 -263q0 -138 -54 -264q-55 -125 -147 -217q-92 -90 -221 -145q-129 -54 -270 -54h-598v605zM600 1037v-248h246v-184h-246v-285h175q135 0 224 107q88 106 88 253t-87 252t-222 105
h-178z" />
    <glyph glyph-name="Ntilde" unicode="&#xd1;" horiz-adv-x="1592" 
d="M150 0v1358h325l579 -725v725h388v-1358h-311l-593 727v-727h-388zM531 1465l-140 127q114 230 288 230q74 0 144 -46t112 -46q60 0 129 77l137 -117q-37 -75 -90 -129t-106 -76q-48 -22 -99 -22q-36 -1 -85 22t-93.5 46t-71.5 21q-60 0 -125 -87z" />
    <glyph glyph-name="Ograve" unicode="&#xd2;" horiz-adv-x="1560" 
d="M783 -20q-154 0 -287.5 51.5t-230.5 144.5q-96 93 -149.5 223.5t-53.5 281.5q-3 199 90.5 360t260 250.5t370.5 86.5q153 0 286 -51t228 -143q95 -93 148 -223.5t53 -280.5q0 -151 -53 -281.5t-148 -223.5q-95 -92 -228.5 -143.5t-285.5 -51.5zM785 1020q-142 0 -230 -94
t-88 -246q0 -155 88 -249q88 -96 230 -96q139 0 224 96q85 94 85 249q0 152 -85 246t-224 94zM642 1473l-287 334h432l167 -334h-312z" />
    <glyph glyph-name="Oacute" unicode="&#xd3;" horiz-adv-x="1560" 
d="M783 -20q-154 0 -287.5 51.5t-230.5 144.5q-96 93 -149.5 223.5t-53.5 281.5q-3 199 90.5 360t260 250.5t370.5 86.5q153 0 286 -51t228 -143q95 -93 148 -223.5t53 -280.5q0 -151 -53 -281.5t-148 -223.5q-95 -92 -228.5 -143.5t-285.5 -51.5zM467 680q0 -155 88 -249
q88 -96 230 -96q139 0 224 96q85 94 85 249q0 152 -85 246t-224 94q-142 0 -230 -94t-88 -246zM965 1473h-312l167 334h432z" />
    <glyph glyph-name="Ocircumflex" unicode="&#xd4;" horiz-adv-x="1560" 
d="M62 681q-3 199 90.5 360t260 250.5t370.5 86.5q153 0 286 -51t228 -143q95 -93 148 -223.5t53 -280.5q0 -151 -53 -281.5t-148 -223.5q-95 -92 -228.5 -143.5t-285.5 -51.5q-154 0 -287.5 51.5t-230.5 144.5q-96 93 -149.5 223.5t-53.5 281.5zM467 680q0 -155 88 -249
q88 -96 230 -96q139 0 224 96q85 94 85 249q0 152 -85 246t-224 94q-142 0 -230 -94t-88 -246zM676 1471h-311l287 370h257l287 -370h-312l-104 160z" />
    <glyph glyph-name="Otilde" unicode="&#xd5;" horiz-adv-x="1560" 
d="M783 -20q-154 0 -287.5 51.5t-230.5 144.5q-96 93 -149.5 223.5t-53.5 281.5q-3 199 90.5 360t260 250.5t370.5 86.5q153 0 286 -51t228 -143q95 -93 148 -223.5t53 -280.5q0 -151 -53 -281.5t-148 -223.5q-95 -92 -228.5 -143.5t-285.5 -51.5zM467 680q0 -155 88 -249
q88 -96 230 -96q139 0 224 96q85 94 85 249q0 152 -85 246t-224 94q-142 0 -230 -94t-88 -246zM515 1465l-140 127q114 230 288 230q74 0 144 -46t112 -46q60 0 129 77l137 -117q-37 -75 -90 -129t-106 -76q-48 -22 -99 -22q-36 -1 -85 22t-93.5 46t-71.5 21q-60 0 -125 -87
z" />
    <glyph glyph-name="Odieresis" unicode="&#xd6;" horiz-adv-x="1560" 
d="M62 681q-3 199 90.5 360t260 250.5t370.5 86.5q153 0 286 -51t228 -143q95 -93 148 -223.5t53 -280.5q0 -151 -53 -281.5t-148 -223.5q-95 -92 -228.5 -143.5t-285.5 -51.5q-154 0 -287.5 51.5t-230.5 144.5q-96 93 -149.5 223.5t-53.5 281.5zM467 680q0 -155 88 -249
q88 -96 230 -96q139 0 224 96q85 94 85 249q0 152 -85 246t-224 94q-142 0 -230 -94t-88 -246zM808 1650q0 75 46.5 121.5t119.5 46.5q75 0 122 -47t47 -121t-47 -120t-122 -46q-73 0 -119.5 46t-46.5 120zM705 1530q-46 -46 -121 -46q-74 0 -120 46q-47 47 -47 120
q0 75 46.5 121.5t120.5 46.5t121 -47t47 -121q0 -73 -47 -120z" />
    <glyph glyph-name="multiply" unicode="&#xd7;" horiz-adv-x="1244" 
d="M67 371l314 312q-86 86 -159 158q-146 144 -156 154l245 246l310 -306l310 306l246 -246l-317 -312l318 -312l-247 -245l-310 306l-310 -306z" />
    <glyph glyph-name="Oslash" unicode="&#xd8;" horiz-adv-x="1560" 
d="M62 681q-3 199 90.5 360t260 250.5t370.5 86.5q184 0 340 -74l111 160l128 -88l-108 -155q117 -96 180.5 -235t63.5 -306q0 -151 -53 -281.5t-148 -223.5q-95 -92 -228.5 -143.5t-285.5 -51.5q-187 0 -343 74l-117 -168l-125 89l112 161q-119 94 -183.5 235t-64.5 310z
M533 457l376 539q-56 24 -124 24q-142 0 -230 -94t-88 -246q0 -132 66 -223zM1030 900l-376 -539q61 -26 131 -26q139 0 224 96q85 94 85 249q0 129 -64 220z" />
    <glyph glyph-name="Ugrave" unicode="&#xd9;" horiz-adv-x="1451" 
d="M135 497v861h399v-832q0 -99 52.5 -152.5t138.5 -53.5t139 54t53 152v832h399v-861q0 -129 -43.5 -228.5t-122.5 -162t-186 -94.5t-239 -32q-367 0 -514 228q-76 118 -76 289zM573 1473l-287 334h432l167 -334h-312z" />
    <glyph glyph-name="Uacute" unicode="&#xda;" horiz-adv-x="1451" 
d="M135 497v861h399v-832q0 -99 52.5 -152.5t138.5 -53.5t139 54t53 152v832h399v-861q0 -129 -43.5 -228.5t-122.5 -162t-186 -94.5t-239 -32q-367 0 -514 228q-76 118 -76 289zM889 1473h-312l167 334h432z" />
    <glyph glyph-name="Ucircumflex" unicode="&#xdb;" horiz-adv-x="1451" 
d="M135 497v861h399v-832q0 -99 52.5 -152.5t138.5 -53.5t139 54t53 152v832h399v-861q0 -129 -43.5 -228.5t-122.5 -162t-186 -94.5t-239 -32q-367 0 -514 228q-76 118 -76 289zM621 1471h-311l287 370h257l287 -370h-312l-104 160z" />
    <glyph glyph-name="Udieresis" unicode="&#xdc;" horiz-adv-x="1451" 
d="M725 -20q-367 0 -514 228q-76 118 -76 289v861h399v-832q0 -99 52.5 -152.5t138.5 -53.5t139 54t53 152v832h399v-861q0 -129 -43.5 -228.5t-122.5 -162t-186 -94.5t-239 -32zM754 1650q0 75 46.5 121.5t119.5 46.5q75 0 122 -47t47 -121t-47 -120t-122 -46
q-73 0 -119.5 46t-46.5 120zM651 1530q-46 -46 -121 -46q-74 0 -120 46q-47 47 -47 120q0 75 46.5 121.5t120.5 46.5t121 -47t47 -121q0 -73 -47 -120z" />
    <glyph glyph-name="Yacute" unicode="&#xdd;" horiz-adv-x="1430" 
d="M518 0v510l-529 848h472l261 -515l265 515h454l-525 -848v-510h-398zM868 1473h-312l167 334h432z" />
    <glyph glyph-name="Thorn" unicode="&#xde;" horiz-adv-x="1434" 
d="M549 0h-399v1358h399v-182h288q122 0 223.5 -37.5t168.5 -104.5q137 -137 137 -347q0 -213 -137 -356q-67 -70 -168.5 -109t-223.5 -39h-288v-183zM549 847v-336h220q90 0 141 44t51 124q0 168 -192 168h-220z" />
    <glyph glyph-name="germandbls" unicode="&#xdf;" horiz-adv-x="1401" 
d="M500 0h-374v940q0 228 152 359q152 129 406 129q245 0 400 -113q153 -114 153 -293q0 -100 -58 -173t-133 -102q113 -25 201 -113q46 -46 73 -116.5t27 -151.5q0 -168 -121 -277t-317 -109q-112 0 -207.5 37t-150.5 100l189 243q58 -60 124 -60q51 0 82.5 31t31.5 80
q0 70 -57.5 108t-159.5 38q-69 0 -114 -9v271q99 2 148 41.5t49 104.5q0 60 -43 94.5t-115 34.5q-83 0 -134.5 -47t-51.5 -131v-916z" />
    <glyph glyph-name="agrave" unicode="&#xe0;" horiz-adv-x="1119" 
d="M253 573l-191 219q60 68 182 128q121 60 263 60q219 0 356 -103q143 -108 143 -343v-534h-354v98q-37 -58 -110 -88q-72 -30 -149 -30q-146 0 -236 81q-91 81 -91 208q0 94 60 163q58 68 147 99q87 30 187 30q93 0 165 -19v3q0 55 -41 89t-112 34q-116 0 -219 -95z
M382 1121l-287 334h432l167 -334h-312zM528 363q-49 0 -80 -19.5t-31 -52.5q0 -29 23.5 -46.5t59.5 -17.5q55 0 90 34t35 86q-41 16 -97 16z" />
    <glyph glyph-name="aacute" unicode="&#xe1;" horiz-adv-x="1119" 
d="M253 573l-191 219q60 68 182 128q121 60 263 60q219 0 356 -103q143 -108 143 -343v-534h-354v98q-37 -58 -110 -88q-72 -30 -149 -30q-146 0 -236 81q-91 81 -91 208q0 94 60 163q58 68 147 99q87 30 187 30q93 0 165 -19v3q0 55 -41 89t-112 34q-116 0 -219 -95z
M711 1113h-312l167 334h432zM417 291q0 -29 23.5 -46.5t59.5 -17.5q55 0 90 34t35 86q-41 16 -97 16q-49 0 -80 -19.5t-31 -52.5z" />
    <glyph glyph-name="acircumflex" unicode="&#xe2;" horiz-adv-x="1119" 
d="M253 573l-191 219q60 68 182 128q121 60 263 60q219 0 356 -103q143 -108 143 -343v-534h-354v98q-37 -58 -110 -88q-72 -30 -149 -30q-146 0 -236 81q-91 81 -91 208q0 94 60 163q58 68 147 99q87 30 187 30q93 0 165 -19v3q0 55 -41 89t-112 34q-116 0 -219 -95z
M432 1084h-311l287 370h257l287 -370h-312l-104 160zM417 291q0 -29 23.5 -46.5t59.5 -17.5q55 0 90 34t35 86q-41 16 -97 16q-49 0 -80 -19.5t-31 -52.5z" />
    <glyph glyph-name="atilde" unicode="&#xe3;" horiz-adv-x="1119" 
d="M253 573l-191 219q60 68 182 128q121 60 263 60q219 0 356 -103q143 -108 143 -343v-534h-354v98q-37 -58 -110 -88q-72 -30 -149 -30q-146 0 -236 81q-91 81 -91 208q0 94 60 163q58 68 147 99q87 30 187 30q93 0 165 -19v3q0 55 -41 89t-112 34q-116 0 -219 -95z
M275 1105l-140 127q114 230 288 230q74 0 144 -46t112 -46q60 0 129 77l137 -117q-37 -75 -90 -129t-106 -76q-48 -22 -99 -22q-36 -1 -85 22t-93.5 46t-71.5 21q-60 0 -125 -87zM528 363q-49 0 -80 -19.5t-31 -52.5q0 -29 23.5 -46.5t59.5 -17.5q55 0 90 34t35 86
q-41 16 -97 16z" />
    <glyph glyph-name="adieresis" unicode="&#xe4;" horiz-adv-x="1119" 
d="M253 573l-191 219q60 68 182 128q121 60 263 60q219 0 356 -103q143 -108 143 -343v-534h-354v98q-37 -58 -110 -88q-72 -30 -149 -30q-146 0 -236 81q-91 81 -91 208q0 94 60 163q58 68 147 99q87 30 187 30q93 0 165 -19v3q0 55 -41 89t-112 34q-116 0 -219 -95z
M452 1193q-46 -46 -121 -46q-74 0 -120 46q-47 47 -47 120q0 75 46.5 121.5t120.5 46.5t121 -47t47 -121q0 -73 -47 -120zM721 1147q-73 0 -119.5 46t-46.5 120q0 75 46.5 121.5t119.5 46.5q75 0 122 -47t47 -121t-47 -120t-122 -46zM417 291q0 -29 23.5 -46.5t59.5 -17.5
q55 0 90 34t35 86q-41 16 -97 16q-49 0 -80 -19.5t-31 -52.5z" />
    <glyph glyph-name="aring" unicode="&#xe5;" horiz-adv-x="1119" 
d="M253 573l-191 219q60 68 182 128q121 60 263 60q219 0 356 -103q143 -108 143 -343v-534h-354v98q-37 -58 -110 -88q-72 -30 -149 -30q-146 0 -236 81q-91 81 -91 208q0 94 60 163q58 68 147 99q87 30 187 30q93 0 165 -19v3q0 55 -41 89t-112 34q-116 0 -219 -95z
M318 1288q0 99 66 165q64 66 165 66q99 0 166 -66q66 -66 66 -165q0 -98 -66 -162q-67 -66 -166 -66q-100 0 -165 65q-66 65 -66 163zM417 291q0 -29 23.5 -46.5t59.5 -17.5q55 0 90 34t35 86q-41 16 -97 16q-49 0 -80 -19.5t-31 -52.5zM586 1327q-16 17 -37 17t-36 -17
q-16 -17 -16 -38t16 -37q15 -16 36 -16t37 16q15 16 15 37t-15 38z" />
    <glyph glyph-name="ae" unicode="&#xe6;" horiz-adv-x="1634" 
d="M254 573l-191 219q60 68 182 128q121 60 263 60q190 0 292 -119q125 119 305 119q125 3 233.5 -54.5t173.5 -162.5t64 -232q0 -59 -15 -123h-585q7 -64 54.5 -98t117.5 -34q119 0 197 95l215 -194q-44 -71 -161 -133q-118 -64 -272 -64q-209 0 -343 140
q-119 -140 -330 -140q-172 0 -279 81q-108 81 -108 208q0 94 60 163q59 68 147 99q87 30 187 30q93 0 165 -19v3q0 55 -41 89t-112 34q-116 0 -219 -95zM976 582h251q0 46 -35 83q-35 35 -86 35t-88 -34t-42 -84zM529 372q-49 0 -80 -19.5t-31 -52.5q0 -29 23.5 -46.5
t59.5 -17.5q55 0 90 34t35 86q-41 16 -97 16z" />
    <glyph glyph-name="ccedilla" unicode="&#xe7;" horiz-adv-x="1070" 
d="M55 480q-3 138 64.5 253.5t189.5 181.5t271 64q153 0 270 -64.5t179 -184.5l-278 -190q-55 118 -164 118q-69 0 -119 -50q-50 -52 -50 -128q0 -81 50 -131q49 -49 123 -49q107 0 169 110l274 -192q-55 -100 -157 -161.5t-234 -73.5l-17 -57q105 -15 161.5 -66t56.5 -133
q0 -96 -98.5 -153t-231.5 -55q-104 0 -170 30v182q54 -22 126 -22q53 0 83.5 14.5t30.5 39.5q0 26 -32 40.5t-88 14.5h-67l68 173q-184 34 -297 170q-113 134 -113 319z" />
    <glyph glyph-name="egrave" unicode="&#xe8;" horiz-adv-x="1092" 
d="M576 -20q-228 0 -374 141q-146 140 -146 361q-3 138 60.5 253t179 181t258.5 64q127 3 238 -54.5t178 -162.5t65 -232q0 -59 -15 -123h-605q8 -64 58 -98t124 -34q124 0 199 102l223 -201q-40 -63 -151 -126q-126 -71 -292 -71zM408 1121l-287 334h432l167 -334h-312z
M415 582h271q0 47 -38 83q-38 35 -93 35t-95 -35q-40 -34 -45 -83z" />
    <glyph glyph-name="eacute" unicode="&#xe9;" horiz-adv-x="1092" 
d="M56 482q-3 138 60.5 253t179 181t258.5 64q127 3 238 -54.5t178 -162.5t65 -232q0 -59 -15 -123h-605q8 -64 58 -98t124 -34q124 0 199 102l223 -201q-40 -63 -151 -126q-126 -71 -292 -71q-228 0 -374 141q-146 140 -146 361zM727 1113h-312l167 334h432zM555 700
q-55 0 -95 -35q-40 -34 -45 -83h271q0 47 -38 83q-38 35 -93 35z" />
    <glyph glyph-name="ecircumflex" unicode="&#xea;" horiz-adv-x="1092" 
d="M576 -20q-228 0 -374 141q-146 140 -146 361q-3 138 60.5 253t179 181t258.5 64q127 3 238 -54.5t178 -162.5t65 -232q0 -59 -15 -123h-605q8 -64 58 -98t124 -34q124 0 199 102l223 -201q-40 -63 -151 -126q-126 -71 -292 -71zM546 1244l-104 -160h-311l287 370h257
l287 -370h-312zM555 700q-55 0 -95 -35q-40 -34 -45 -83h271q0 47 -38 83q-38 35 -93 35z" />
    <glyph glyph-name="edieresis" unicode="&#xeb;" horiz-adv-x="1092" 
d="M56 482q-3 138 60.5 253t179 181t258.5 64q127 3 238 -54.5t178 -162.5t65 -232q0 -59 -15 -123h-605q8 -64 58 -98t124 -34q124 0 199 102l223 -201q-40 -63 -151 -126q-126 -71 -292 -71q-228 0 -374 141q-146 140 -146 361zM471 1193q-46 -46 -121 -46q-74 0 -120 46
q-47 47 -47 120q0 75 46.5 121.5t120.5 46.5t121 -47t47 -121q0 -73 -47 -120zM740 1147q-73 0 -119.5 46t-46.5 120q0 75 46.5 121.5t119.5 46.5q75 0 122 -47t47 -121t-47 -120t-122 -46zM415 582h271q0 47 -38 83q-38 35 -93 35t-95 -35q-40 -34 -45 -83z" />
    <glyph glyph-name="igrave" unicode="&#xec;" horiz-adv-x="636" 
d="M510 960v-960h-384v960h384zM470 1121h-312l-287 334h432z" />
    <glyph glyph-name="iacute" unicode="&#xed;" horiz-adv-x="636" 
d="M510 960v-960h-384v960h384zM332 1447h432l-287 -334h-312z" />
    <glyph glyph-name="icircumflex" unicode="&#xee;" horiz-adv-x="636" 
d="M510 960v-960h-384v960h384zM213 1084h-311l287 370h257l287 -370h-312l-104 160z" />
    <glyph glyph-name="idieresis" unicode="&#xef;" horiz-adv-x="636" 
d="M510 0h-384v960h384v-960zM346 1313q0 75 46.5 121.5t119.5 46.5q75 0 122 -47t47 -121t-47 -120t-122 -46q-73 0 -119.5 46t-46.5 120zM243 1193q-46 -46 -121 -46q-74 0 -120 46q-47 46 -47 120q0 75 46.5 121.5t120.5 46.5t121 -47t47 -121q0 -73 -47 -120z" />
    <glyph glyph-name="eth" unicode="&#xf0;" horiz-adv-x="1194" 
d="M58 461q0 204 128 332q127 127 334 127q77 0 139.5 -26.5t85.5 -69.5q-12 66 -72.5 135t-159.5 129l-194 -144l-97 136l123 91q-69 28 -152 51l177 258q137 -39 253 -103l172 128l93 -137l-117 -87q167 -132 258.5 -316t91.5 -412q0 -258 -140 -416q-141 -157 -387 -157
q-238 0 -387 134t-149 347zM708 579q-47 45 -119 45q-73 0 -118 -45t-45 -118q0 -72 45 -116.5t118 -44.5t118.5 44.5t45.5 116.5q0 73 -45 118z" />
    <glyph glyph-name="ntilde" unicode="&#xf1;" horiz-adv-x="1240" 
d="M126 0v960h350l9 -92q43 52 121.5 82t176.5 30q153 0 249 -93q95 -93 95 -243v-644h-384v530q0 51 -32.5 83t-84.5 32t-84 -32t-32 -83v-530h-384zM365 1105l-140 127q114 230 288 230q74 0 144 -46t112 -46q60 0 129 77l137 -117q-37 -75 -90 -129t-106 -76
q-48 -22 -99 -22q-36 -1 -85 22t-93.5 46t-71.5 21q-61 0 -125 -87z" />
    <glyph glyph-name="ograve" unicode="&#xf2;" horiz-adv-x="1168" 
d="M967 119q-146 -139 -383 -139t-382 139q-147 138 -147 361q0 222 147 362q146 138 382 138t383 -138q146 -140 146 -362q0 -223 -146 -361zM442 1121l-287 334h432l167 -334h-312zM704 610q-46 49 -120 49t-120 -49t-46 -130t46 -130q47 -50 120 -50t120 50q46 49 46 130
t-46 130z" />
    <glyph glyph-name="oacute" unicode="&#xf3;" horiz-adv-x="1168" 
d="M202 119q-147 138 -147 361q0 222 147 362q146 138 382 138t383 -138q146 -140 146 -362q0 -223 -146 -361q-146 -139 -383 -139t-382 139zM767 1113h-312l167 334h432zM704 610q-46 49 -120 49t-120 -49t-46 -130t46 -130q47 -50 120 -50t120 50q46 49 46 130t-46 130z
" />
    <glyph glyph-name="ocircumflex" unicode="&#xf4;" horiz-adv-x="1168" 
d="M202 119q-147 138 -147 361q0 222 147 362q146 138 382 138t383 -138q146 -140 146 -362q0 -223 -146 -361q-146 -139 -383 -139t-382 139zM480 1084h-311l287 370h257l287 -370h-312l-104 160zM464 610q-46 -49 -46 -130t46 -130q47 -50 120 -50t120 50q46 49 46 130
t-46 130t-120 49t-120 -49z" />
    <glyph glyph-name="otilde" unicode="&#xf5;" horiz-adv-x="1168" 
d="M967 119q-146 -139 -383 -139t-382 139q-147 138 -147 361q0 222 147 362q146 138 382 138t383 -138q146 -140 146 -362q0 -223 -146 -361zM319 1105l-140 127q114 230 288 230q74 0 144 -46t112 -46q60 0 129 77l137 -117q-37 -75 -90 -129t-106 -76q-48 -22 -99 -22
q-36 -1 -85 22t-93.5 46t-71.5 21q-61 0 -125 -87zM464 610q-46 -49 -46 -130t46 -130q47 -50 120 -50t120 50q46 49 46 130t-46 130t-120 49t-120 -49z" />
    <glyph glyph-name="odieresis" unicode="&#xf6;" horiz-adv-x="1168" 
d="M967 119q-146 -139 -383 -139t-382 139q-147 138 -147 361q0 222 147 362q146 138 382 138t383 -138q146 -140 146 -362q0 -223 -146 -361zM704 610q-46 49 -120 49t-120 -49t-46 -130t46 -130q47 -50 120 -50t120 50q46 49 46 130t-46 130zM612 1313q0 75 46.5 121.5
t119.5 46.5q75 0 122 -47t47 -121t-47 -120t-122 -46q-73 0 -119.5 46t-46.5 120zM221 1313q0 75 46.5 121.5t120.5 46.5t121 -47.5t47 -120.5q0 -74 -47 -120t-121 -46t-120.5 46t-46.5 120z" />
    <glyph glyph-name="divide" unicode="&#xf7;" horiz-adv-x="1283" 
d="M1195 821v-283h-1107v283h1107zM500 121q-58 55 -58 139q0 83 58 140q57 57 142 57q84 0 143 -57q58 -57 58 -140q0 -84 -58 -139q-59 -57 -143 -57q-85 0 -142 57zM785 960q-59 -57 -143 -57q-85 0 -142 57q-58 55 -58 139q0 83 58 140q57 57 142 57q84 0 143 -57
q58 -57 58 -140q0 -84 -58 -139z" />
    <glyph glyph-name="oslash" unicode="&#xf8;" horiz-adv-x="1168" 
d="M55 480q0 222 147 362q146 138 382 138q152 0 271 -61l149 183l104 -85l-143 -175q148 -139 148 -362t-146 -361q-146 -139 -383 -139q-151 0 -272 61l-149 -183l-103 83l143 176q-148 139 -148 363zM735 560l-205 -252q29 -8 54 -8q74 0 120 50t46 130q0 44 -15 80z
M433 399l204 252q-27 8 -53 8q-74 0 -120 -49.5t-46 -129.5q0 -45 15 -81z" />
    <glyph glyph-name="ugrave" unicode="&#xf9;" horiz-adv-x="1240" 
d="M457 -20q-153 0 -248 93q-96 93 -96 243v644h384v-530q0 -51 32.5 -83t84.5 -32t84 32t32 83v530h384v-960h-350l-9 92q-43 -52 -121.5 -82t-176.5 -30zM492 1121l-287 334h432l167 -334h-312z" />
    <glyph glyph-name="uacute" unicode="&#xfa;" horiz-adv-x="1240" 
d="M113 316v644h384v-530q0 -51 32.5 -83t84.5 -32t84 32t32 83v530h384v-960h-350l-9 92q-43 -52 -121.5 -82t-176.5 -30q-153 0 -248 93q-96 93 -96 243zM1064 1447l-287 -334h-312l167 334h432z" />
    <glyph glyph-name="ucircumflex" unicode="&#xfb;" horiz-adv-x="1240" 
d="M113 316v644h384v-530q0 -51 32.5 -83t84.5 -32t84 32t32 83v530h384v-960h-350l-9 92q-43 -52 -121.5 -82t-176.5 -30q-153 0 -248 93q-96 93 -96 243zM622 1244l-104 -160h-311l287 370h257l287 -370h-312z" />
    <glyph glyph-name="udieresis" unicode="&#xfc;" horiz-adv-x="1240" 
d="M113 316v644h384v-530q0 -51 32.5 -83t84.5 -32t84 32t32 83v530h384v-960h-350l-9 92q-43 -52 -121.5 -82t-176.5 -30q-153 0 -248 93q-96 93 -96 243zM648 1313q0 75 46.5 121.5t119.5 46.5q75 0 122 -47t47 -121t-47 -120t-122 -46q-73 0 -119.5 46t-46.5 120z
M545 1193q-46 -46 -121 -46q-74 0 -120 46q-47 47 -47 120q0 75 46.5 121.5t120.5 46.5t121 -47t47 -121q0 -73 -47 -120z" />
    <glyph glyph-name="yacute" unicode="&#xfd;" horiz-adv-x="1153" 
d="M400 10l-402 950h398l181 -572l180 572h398l-428 -1078q-61 -155 -164.5 -228.5t-264.5 -73.5q-146 0 -243 54l54 281q60 -29 118 -29q66 0 109 28.5t64 95.5zM766 1113h-312l167 334h432z" />
    <glyph glyph-name="thorn" unicode="&#xfe;" horiz-adv-x="1265" 
d="M510 -400h-384v1808h384v-546l7 9q88 109 256 109q189 0 312 -142t123 -357t-123 -358t-312 -143q-170 0 -263 106v-486zM673 658q-75 0 -121.5 -49.5t-46.5 -128.5q0 -80 46.5 -130t121.5 -50q77 0 124.5 50t47.5 130q0 79 -47.5 128.5t-124.5 49.5z" />
    <glyph glyph-name="ydieresis" unicode="&#xff;" horiz-adv-x="1153" 
d="M400 10l-402 950h398l181 -572l180 572h398l-428 -1078q-61 -155 -164.5 -228.5t-264.5 -73.5q-146 0 -243 54l54 281q60 -29 118 -29q66 0 109 28.5t64 95.5zM771 1147q-73 0 -119.5 46t-46.5 120q0 75 46.5 121.5t119.5 46.5q75 0 122 -47t47 -121t-47 -120t-122 -46z
M214 1313q0 75 46.5 121.5t120.5 46.5q73 0 120.5 -47.5t47.5 -120.5q0 -74 -47 -120t-121 -46t-120.5 46t-46.5 120z" />
    <glyph glyph-name="Amacron" unicode="&#x100;" horiz-adv-x="1487" 
d="M410 0h-426l522 1358h476l521 -1358h-426l-88 227h-491zM1039 1486h-591v234h591v-234zM899 528l-155 454l-156 -454h311z" />
    <glyph glyph-name="amacron" unicode="&#x101;" horiz-adv-x="1119" 
d="M253 573l-191 219q60 68 182 128q121 60 263 60q219 0 356 -103q143 -108 143 -343v-534h-354v98q-37 -58 -110 -88q-72 -30 -149 -30q-146 0 -236 81q-91 81 -91 208q0 94 60 163q58 68 147 99q87 30 187 30q93 0 165 -19v3q0 55 -41 89t-112 34q-116 0 -219 -95z
M226 1150v234h591v-234h-591zM417 291q0 -29 23.5 -46.5t59.5 -17.5q55 0 90 34t35 86q-41 16 -97 16q-49 0 -80 -19.5t-31 -52.5z" />
    <glyph glyph-name="Abreve" unicode="&#x102;" horiz-adv-x="1487" 
d="M410 0h-426l522 1358h476l521 -1358h-426l-88 227h-491zM396 1809h249q-2 -61 24.5 -97.5t73.5 -36.5q48 0 74.5 36.5t23.5 97.5h250q0 -162 -94 -257q-95 -96 -254 -96q-157 0 -252 96q-95 97 -95 257zM744 982l-156 -454h311z" />
    <glyph glyph-name="abreve" unicode="&#x103;" horiz-adv-x="1119" 
d="M253 573l-191 219q60 68 182 128q121 60 263 60q219 0 356 -103q143 -108 143 -343v-534h-354v98q-37 -58 -110 -88q-72 -30 -149 -30q-146 0 -236 81q-91 81 -91 208q0 94 60 163q58 68 147 99q87 30 187 30q93 0 165 -19v3q0 55 -41 89t-112 34q-116 0 -219 -95z
M564 1099q-158 0 -252 96q-95 97 -95 257h249q-2 -61 24.5 -97.5t73.5 -36.5q48 0 74.5 36.5t23.5 97.5h250q0 -162 -94 -257q-94 -96 -254 -96zM417 291q0 -29 23.5 -46.5t59.5 -17.5q55 0 90 34t35 86q-41 16 -97 16q-49 0 -80 -19.5t-31 -52.5z" />
    <glyph glyph-name="Aogonek" unicode="&#x104;" horiz-adv-x="1487" 
d="M410 0h-426l522 1358h476l521 -1358h-184q-93 -48 -144.5 -94.5t-51.5 -83.5q0 -31 22.5 -49t60.5 -18q62 0 119 27l64 -206q-93 -57 -230 -57q-129 0 -204 60q-76 61 -76 161q0 148 198 260l-88 227h-491zM899 528l-155 454l-156 -454h311z" />
    <glyph glyph-name="aogonek" unicode="&#x105;" horiz-adv-x="1119" 
d="M253 573l-191 219q60 68 182 128q121 60 263 60q219 0 356 -103q143 -108 143 -343v-534h-113q-93 -48 -144.5 -94.5t-51.5 -83.5q0 -31 22.5 -49t60.5 -18q62 0 119 27l64 -206q-93 -57 -230 -57q-129 0 -204 60q-76 61 -76 161q0 149 199 261v97q-37 -58 -110 -88
q-72 -30 -149 -30q-146 0 -236 81q-91 81 -91 208q0 94 60 163q58 68 147 99q87 30 187 30q93 0 165 -19v3q0 55 -41 89t-112 34q-116 0 -219 -95zM417 291q0 -29 23.5 -46.5t59.5 -17.5q55 0 90 34t35 86q-41 16 -97 16q-49 0 -80 -19.5t-31 -52.5z" />
    <glyph glyph-name="Cacute" unicode="&#x106;" horiz-adv-x="1421" 
d="M153 323q-92 161 -92 358t92 357q91 157 259 250q166 90 378 90q189 0 349 -92q159 -93 242 -248l-290 -201q-101 192 -301 192q-148 0 -236 -96q-89 -97 -89 -252t90 -253q90 -99 235 -99q206 0 320 194l285 -199q-75 -151 -243 -247q-169 -97 -362 -97q-211 0 -378 92
q-169 93 -259 251zM946 1473h-312l167 334h432z" />
    <glyph glyph-name="cacute" unicode="&#x107;" horiz-adv-x="1070" 
d="M55 480q-3 138 64.5 253.5t189.5 181.5t271 64q153 0 270 -64.5t179 -184.5l-278 -190q-55 118 -164 118q-69 0 -119 -50q-50 -52 -50 -128q0 -81 50 -131q49 -49 123 -49q107 0 169 110l274 -192q-62 -111 -180 -174q-118 -64 -273 -64q-228 0 -377 143t-149 357z
M747 1113h-312l167 334h432z" />
    <glyph glyph-name="Ccircumflex" unicode="&#x108;" horiz-adv-x="1421" 
d="M790 -20q-211 0 -378 92q-169 93 -259 251q-92 161 -92 358t92 357q91 157 259 250q166 90 378 90q189 0 349 -92q159 -93 242 -248l-290 -201q-101 192 -301 192q-148 0 -236 -96q-89 -97 -89 -252t90 -253q90 -99 235 -99q206 0 320 194l285 -199q-75 -151 -243 -247
q-169 -97 -362 -97zM807 1631l-104 -160h-311l287 370h257l287 -370h-312z" />
    <glyph glyph-name="ccircumflex" unicode="&#x109;" horiz-adv-x="1070" 
d="M581 -20q-228 0 -377 143t-149 357q-3 138 64.5 253.5t189.5 181.5t271 64q153 0 270 -64.5t179 -184.5l-278 -190q-55 118 -164 118q-69 0 -119 -50q-50 -52 -50 -128q0 -81 50 -131q49 -49 123 -49q107 0 169 110l274 -192q-62 -111 -180 -174q-118 -64 -273 -64z
M473 1084h-311l287 370h257l287 -370h-312l-104 160z" />
    <glyph glyph-name="Cdotaccent" unicode="&#x10a;" horiz-adv-x="1421" 
d="M153 323q-92 161 -92 358t92 357q91 157 259 250q166 90 378 90q189 0 349 -92q159 -93 242 -248l-290 -201q-101 192 -301 192q-148 0 -236 -96q-89 -97 -89 -252t90 -253q90 -99 235 -99q206 0 320 194l285 -199q-75 -151 -243 -247q-169 -97 -362 -97q-211 0 -378 92
q-169 93 -259 251zM589 1663q0 96 58 154q59 59 152 59q95 0 154 -59t59 -154q0 -93 -59 -152q-58 -58 -154 -58q-94 0 -152 58t-58 152z" />
    <glyph glyph-name="cdotaccent" unicode="&#x10b;" horiz-adv-x="1070" 
d="M55 480q-3 138 64.5 253.5t189.5 181.5t271 64q153 0 270 -64.5t179 -184.5l-278 -190q-55 118 -164 118q-69 0 -119 -50q-50 -52 -50 -128q0 -81 50 -131q49 -49 123 -49q107 0 169 110l274 -192q-62 -111 -180 -174q-118 -64 -273 -64q-228 0 -377 143t-149 357z
M584 1119q-94 0 -152 58t-58 152q0 96 58 154q59 59 152 59q95 0 154 -59t59 -154q0 -93 -59 -152q-58 -58 -154 -58z" />
    <glyph glyph-name="Ccaron" unicode="&#x10c;" horiz-adv-x="1421" 
d="M790 -20q-211 0 -378 92q-169 93 -259 251q-92 161 -92 358t92 357q91 157 259 250q166 90 378 90q189 0 349 -92q159 -93 242 -248l-290 -201q-101 192 -301 192q-148 0 -236 -96q-89 -97 -89 -252t90 -253q90 -99 235 -99q206 0 320 194l285 -199q-75 -151 -243 -247
q-169 -97 -362 -97zM669 1481l-287 370h311l104 -160l104 160h312l-287 -370h-257z" />
    <glyph glyph-name="ccaron" unicode="&#x10d;" horiz-adv-x="1070" 
d="M55 480q-3 138 64.5 253.5t189.5 181.5t271 64q153 0 270 -64.5t179 -184.5l-278 -190q-55 118 -164 118q-69 0 -119 -50q-50 -52 -50 -128q0 -81 50 -131q49 -49 123 -49q107 0 169 110l274 -192q-62 -111 -180 -174q-118 -64 -273 -64q-228 0 -377 143t-149 357z
M441 1096l-287 370h311l104 -160l104 160h312l-287 -370h-257z" />
    <glyph glyph-name="Dcaron" unicode="&#x10e;" horiz-adv-x="1502" 
d="M150 0v1358h598q140 0 270 -53q128 -54 221 -144q94 -92 147.5 -218t53.5 -263q0 -138 -54 -264q-55 -125 -147 -217q-92 -90 -221 -145q-129 -54 -270 -54h-598zM727 1037h-178v-717h175q135 0 224 107q88 106 88 253t-87 252t-222 105zM819 1481h-257l-287 370h311
l104 -160l104 160h312z" />
    <glyph glyph-name="dcaron" unicode="&#x10f;" horiz-adv-x="1338" 
d="M492 -20q-189 0 -312 143t-123 356q0 215 123 358t312 143q170 0 263 -106v534h384v-1408h-382l-9 89q-88 -109 -256 -109zM1246 946l-7 462h342l-79 -462h-256zM592 660q-77 0 -124.5 -50t-47.5 -130q0 -79 47.5 -128.5t124.5 -49.5q75 0 121.5 49.5t46.5 128.5
q0 80 -46.5 130t-121.5 50z" />
    <glyph glyph-name="Dcroat" unicode="&#x110;" horiz-adv-x="1553" 
d="M201 605h-134v184h134v569h598q140 0 270 -53q128 -54 221 -144q94 -92 147.5 -218t53.5 -263q0 -138 -54 -264q-55 -125 -147 -217q-92 -90 -221 -145q-129 -54 -270 -54h-598v605zM600 1037v-248h246v-184h-246v-285h175q135 0 224 107q88 106 88 253t-87 252t-222 105
h-178z" />
    <glyph glyph-name="dcroat" unicode="&#x111;" horiz-adv-x="1192" 
d="M57 479q0 215 123 358t312 143q170 0 263 -106v217h-221v184h221v133h384v-133h99v-184h-99v-1091h-382l-9 89q-88 -109 -256 -109q-189 0 -312 143t-123 356zM592 660q-77 0 -124.5 -50t-47.5 -130q0 -79 47.5 -128.5t124.5 -49.5q75 0 121.5 49.5t46.5 128.5
q0 80 -46.5 130t-121.5 50z" />
    <glyph glyph-name="Emacron" unicode="&#x112;" horiz-adv-x="1213" 
d="M1152 319v-319h-1002v1358h992v-320h-594v-188h521v-319h-521v-212h604zM933 1720v-234h-591v234h591z" />
    <glyph glyph-name="emacron" unicode="&#x113;" horiz-adv-x="1092" 
d="M576 -20q-228 0 -374 141q-146 140 -146 361q-3 138 60.5 253t179 181t258.5 64q127 3 238 -54.5t178 -162.5t65 -232q0 -59 -15 -123h-605q8 -64 58 -98t124 -34q124 0 199 102l223 -201q-40 -63 -151 -126q-126 -71 -292 -71zM842 1384v-234h-591v234h591zM415 582h271
q0 47 -38 83q-38 35 -93 35t-95 -35q-40 -34 -45 -83z" />
    <glyph glyph-name="Ebreve" unicode="&#x114;" horiz-adv-x="1213" 
d="M1152 319v-319h-1002v1358h992v-320h-594v-188h521v-319h-521v-212h604zM308 1809h249q-2 -61 24.5 -97.5t73.5 -36.5q48 0 74.5 36.5t23.5 97.5h250q0 -162 -94 -257q-95 -96 -254 -96q-157 0 -252 96q-95 97 -95 257z" />
    <glyph glyph-name="ebreve" unicode="&#x115;" horiz-adv-x="1092" 
d="M576 -20q-228 0 -374 141q-146 140 -146 361q-3 138 60.5 253t179 181t258.5 64q127 3 238 -54.5t178 -162.5t65 -232q0 -59 -15 -123h-605q8 -64 58 -98t124 -34q124 0 199 102l223 -201q-40 -63 -151 -126q-126 -71 -292 -71zM546 1099q-158 0 -252 96q-95 97 -95 257
h249q-2 -61 24.5 -97.5t73.5 -36.5q48 0 74.5 36.5t23.5 97.5h250q0 -162 -94 -257q-94 -96 -254 -96zM555 700q-55 0 -95 -35q-40 -34 -45 -83h271q0 47 -38 83q-38 35 -93 35z" />
    <glyph glyph-name="Edotaccent" unicode="&#x116;" horiz-adv-x="1213" 
d="M1152 0h-1002v1358h992v-320h-594v-188h521v-319h-521v-212h604v-319zM452 1663q0 96 58 154q59 59 152 59q95 0 154 -59t59 -154q0 -93 -59 -152q-58 -58 -154 -58q-94 0 -152 58t-58 152z" />
    <glyph glyph-name="edotaccent" unicode="&#x117;" horiz-adv-x="1092" 
d="M576 -20q-228 0 -374 141q-146 140 -146 361q-3 138 60.5 253t179 181t258.5 64q127 3 238 -54.5t178 -162.5t65 -232q0 -59 -15 -123h-605q8 -64 58 -98t124 -34q124 0 199 102l223 -201q-40 -63 -151 -126q-126 -71 -292 -71zM555 1119q-94 0 -152 58t-58 152
q0 96 58 154q59 59 152 59q95 0 154 -59t59 -154q0 -93 -59 -152q-58 -58 -154 -58zM555 700q-55 0 -95 -35q-40 -34 -45 -83h271q0 47 -38 83q-38 35 -93 35z" />
    <glyph glyph-name="Eogonek" unicode="&#x118;" horiz-adv-x="1213" 
d="M150 0v1358h992v-320h-594v-188h521v-319h-521v-212h604v-319h-1q-93 -48 -144.5 -94.5t-51.5 -83.5q0 -31 22.5 -49t60.5 -18q62 0 119 27l64 -206q-93 -57 -230 -57q-129 0 -204 60q-76 61 -76 161q0 148 198 260h-759z" />
    <glyph glyph-name="eogonek" unicode="&#x119;" horiz-adv-x="1092" 
d="M56 482q-3 138 60.5 253t179 181t258.5 64q127 3 238 -54.5t178 -162.5t65 -232q0 -59 -15 -123h-605q8 -64 58 -98t124 -34q124 0 199 102l223 -201q-31 -48 -109 -101q-78 -52 -182 -78q-90 -47 -141 -93.5t-51 -82.5q0 -31 22.5 -49t60.5 -18q62 0 119 27l64 -206
q-93 -57 -230 -57q-129 0 -204 60q-76 61 -76 161q0 140 178 249q-187 31 -300 166q-114 133 -114 327zM555 700q-55 0 -95 -35q-40 -34 -45 -83h271q0 47 -38 83q-38 35 -93 35z" />
    <glyph glyph-name="Ecaron" unicode="&#x11a;" horiz-adv-x="1213" 
d="M1152 319v-319h-1002v1358h992v-320h-594v-188h521v-319h-521v-212h604zM796 1481h-257l-287 370h311l104 -160l104 160h312z" />
    <glyph glyph-name="ecaron" unicode="&#x11b;" horiz-adv-x="1092" 
d="M576 -20q-228 0 -374 141q-146 140 -146 361q-3 138 60.5 253t179 181t258.5 64q127 3 238 -54.5t178 -162.5t65 -232q0 -59 -15 -123h-605q8 -64 58 -98t124 -34q124 0 199 102l223 -201q-40 -63 -151 -126q-126 -71 -292 -71zM428 1096l-287 370h311l104 -160l104 160
h312l-287 -370h-257zM415 582h271q0 47 -38 83q-38 35 -93 35t-95 -35q-40 -34 -45 -83z" />
    <glyph glyph-name="Gcircumflex" unicode="&#x11c;" horiz-adv-x="1500" 
d="M61 680q0 147 53 276.5t150 223.5t233.5 146t292.5 52q179 0 331 -82t241 -225l-290 -201q-45 77 -118 118t-164 41q-148 0 -236 -96q-89 -97 -89 -252t90 -253q90 -99 235 -99q96 0 161 41t91 119h-298v292h700q5 -63 5 -128q0 -309 -183 -491q-185 -182 -476 -182
q-156 0 -292.5 53t-233.5 147q-96 94 -149.5 224t-53.5 276zM666 1471h-311l287 370h257l287 -370h-312l-104 160z" />
    <glyph glyph-name="gcircumflex" unicode="&#x11d;" horiz-adv-x="1265" 
d="M496 0q-189 0 -312 140t-123 349q0 211 123 351t312 140q166 0 256 -109l9 89h382v-913q-1 -141 -74 -242t-195 -156q-151 -69 -334 -69q-162 0 -283 57t-186 128l197 232q107 -104 260 -104q89 0 157 47q67 46 67 117v32q-87 -89 -256 -89zM654 1244l-104 -160h-311
l287 370h257l287 -370h-312zM596 660q-77 0 -124.5 -47t-47.5 -123q0 -75 47.5 -121.5t124.5 -46.5q75 0 121.5 46.5t46.5 121.5q0 76 -46.5 123t-121.5 47z" />
    <glyph glyph-name="Gbreve" unicode="&#x11e;" horiz-adv-x="1500" 
d="M790 -20q-156 0 -292.5 53t-233.5 147q-96 94 -149.5 224t-53.5 276q0 147 53 276.5t150 223.5t233.5 146t292.5 52q179 0 331 -82t241 -225l-290 -201q-45 77 -118 118t-164 41q-148 0 -236 -96q-89 -97 -89 -252t90 -253q90 -99 235 -99q96 0 161 41t91 119h-298v292
h700q5 -63 5 -128q0 -309 -183 -491q-185 -182 -476 -182zM750 1456q-158 0 -252 96q-95 97 -95 257h249q-2 -61 24.5 -97.5t73.5 -36.5q48 0 74.5 36.5t23.5 97.5h250q0 -162 -94 -257q-94 -96 -254 -96z" />
    <glyph glyph-name="gbreve" unicode="&#x11f;" horiz-adv-x="1265" 
d="M61 489q0 211 123 351t312 140q166 0 256 -109l9 89h382v-913q-1 -141 -74 -242t-195 -156q-151 -69 -334 -69q-162 0 -283 57t-186 128l197 232q107 -104 260 -104q89 0 157 47q67 46 67 117v32q-87 -89 -256 -89q-189 0 -312 140t-123 349zM228 1456h249
q-2 -61 24.5 -97.5t73.5 -36.5q48 0 74.5 36.5t23.5 97.5h250q0 -162 -94 -257q-95 -96 -254 -96q-157 0 -252 96q-95 97 -95 257zM596 660q-77 0 -124.5 -47t-47.5 -123q0 -75 47.5 -121.5t124.5 -46.5q75 0 121.5 46.5t46.5 121.5q0 76 -46.5 123t-121.5 47z" />
    <glyph glyph-name="Gdotaccent" unicode="&#x120;" horiz-adv-x="1500" 
d="M790 -20q-156 0 -292.5 53t-233.5 147q-96 94 -149.5 224t-53.5 276q0 147 53 276.5t150 223.5t233.5 146t292.5 52q179 0 331 -82t241 -225l-290 -201q-45 77 -118 118t-164 41q-148 0 -236 -96q-89 -97 -89 -252t90 -253q90 -99 235 -99q96 0 161 41t91 119h-298v292
h700q5 -63 5 -128q0 -309 -183 -491q-185 -182 -476 -182zM569 1663q0 96 58 154q59 59 152 59q95 0 154 -59t59 -154q0 -93 -59 -152q-58 -58 -154 -58q-94 0 -152 58t-58 152z" />
    <glyph glyph-name="gdotaccent" unicode="&#x121;" horiz-adv-x="1265" 
d="M61 489q0 211 123 351t312 140q166 0 256 -109l9 89h382v-913q-1 -141 -74 -242t-195 -156q-151 -69 -334 -69q-162 0 -283 57t-186 128l197 232q107 -104 260 -104q89 0 157 47q67 46 67 117v32q-87 -89 -256 -89q-189 0 -312 140t-123 349zM396 1329q0 96 58 154
q59 59 152 59q95 0 154 -59t59 -154q0 -93 -59 -152q-58 -58 -154 -58q-94 0 -152 58t-58 152zM424 490q0 -75 47.5 -121.5t124.5 -46.5q75 0 121.5 46.5t46.5 121.5q0 76 -46.5 123t-121.5 47q-77 0 -124.5 -47t-47.5 -123z" />
    <glyph glyph-name="uni0122" unicode="&#x122;" horiz-adv-x="1500" 
d="M790 -20q-156 0 -292.5 53t-233.5 147q-96 94 -149.5 224t-53.5 276q0 147 53 276.5t150 223.5t233.5 146t292.5 52q179 0 331 -82t241 -225l-290 -201q-45 77 -118 118t-164 41q-148 0 -236 -96q-89 -97 -89 -252t90 -253q90 -99 235 -99q96 0 161 41t91 119h-298v292
h700q5 -63 5 -128q0 -309 -183 -491q-185 -182 -476 -182zM852 -548h-256l-7 462h342z" />
    <glyph glyph-name="uni0123" unicode="&#x123;" horiz-adv-x="1265" 
d="M61 489q0 211 123 351t312 140q166 0 256 -109l9 89h382v-913q-1 -141 -74 -242t-195 -156q-151 -69 -334 -69q-162 0 -283 57t-186 128l197 232q107 -104 260 -104q89 0 157 47q67 46 67 117v32q-87 -89 -256 -89q-189 0 -312 140t-123 349zM687 1563l7 -462h-342
l79 462h256zM596 660q-77 0 -124.5 -47t-47.5 -123q0 -75 47.5 -121.5t124.5 -46.5q75 0 121.5 46.5t46.5 121.5q0 76 -46.5 123t-121.5 47z" />
    <glyph glyph-name="Hcircumflex" unicode="&#x124;" horiz-adv-x="1616" 
d="M150 0v1358h399v-506h518v506h399v-1358h-399v533h-518v-533h-399zM808 1631l-104 -160h-311l287 370h257l287 -370h-312z" />
    <glyph glyph-name="hcircumflex" unicode="&#x125;" horiz-adv-x="1240" 
d="M510 0h-384v1408h384v-514q97 86 273 86q153 0 249 -93q95 -93 95 -243v-644h-384v530q0 51 -32.5 83t-84.5 32t-84 -32t-32 -83v-530zM305 1649l-104 -160h-311l287 370h257l287 -370h-312z" />
    <glyph glyph-name="Hbar" unicode="&#x126;" horiz-adv-x="1548" 
d="M1432 1358v-170h100v-184h-100v-1004h-399v533h-518v-533h-399v1004h-100v184h100v170h399v-170h518v170h399zM1033 852v152h-518v-152h518z" />
    <glyph glyph-name="hbar" unicode="&#x127;" horiz-adv-x="1240" 
d="M126 1092h-106v184h106v132h384v-132h234v-184h-234v-198q97 86 273 86q153 0 249 -93q95 -93 95 -243v-644h-384v530q0 51 -32.5 83t-84.5 32t-84 -32t-32 -83v-530h-384v1092z" />
    <glyph glyph-name="Itilde" unicode="&#x128;" horiz-adv-x="699" 
d="M150 0v1358h399v-1358h-399zM74 1465l-140 127q114 230 288 230q74 0 144 -46t112 -46q60 0 129 77l137 -117q-37 -75 -90 -129t-106 -76q-48 -22 -99 -22q-36 -1 -85 22t-93.5 46t-71.5 21q-61 0 -125 -87z" />
    <glyph glyph-name="itilde" unicode="&#x129;" horiz-adv-x="636" 
d="M510 960v-960h-384v960h384zM53 1105l-140 127q114 230 288 230q74 0 144 -46t112 -46q60 0 129 77l137 -117q-37 -75 -90 -129t-106 -76q-48 -22 -99 -22q-36 -1 -85 22t-93.5 46t-71.5 21q-60 0 -125 -87z" />
    <glyph glyph-name="Imacron" unicode="&#x12a;" horiz-adv-x="699" 
d="M150 1358h399v-1358h-399v1358zM54 1720h591v-234h-591v234z" />
    <glyph glyph-name="imacron" unicode="&#x12b;" horiz-adv-x="636" 
d="M510 960v-960h-384v960h384zM22 1384h591v-234h-591v234z" />
    <glyph glyph-name="Ibreve" unicode="&#x12c;" horiz-adv-x="699" 
d="M549 1358v-1358h-399v1358h399zM2 1809h249q-2 -61 24.5 -97.5t73.5 -36.5q48 0 74.5 36.5t23.5 97.5h250q0 -162 -94 -257q-95 -96 -254 -96q-157 0 -252 96q-95 97 -95 257z" />
    <glyph glyph-name="ibreve" unicode="&#x12d;" horiz-adv-x="636" 
d="M510 960v-960h-384v960h384zM-30 1452h249q-2 -61 24.5 -97.5t73.5 -36.5q48 0 74.5 36.5t23.5 97.5h250q0 -162 -94 -257q-95 -96 -254 -96q-157 0 -252 96q-95 97 -95 257z" />
    <glyph glyph-name="Iogonek" unicode="&#x12e;" horiz-adv-x="699" 
d="M44 -260q0 148 198 260h-92v1358h399v-1358h-65q-93 -48 -144.5 -94.5t-51.5 -83.5q0 -31 22.5 -49t60.5 -18q62 0 119 27l64 -206q-93 -57 -230 -57q-129 0 -204 60q-76 61 -76 161z" />
    <glyph glyph-name="iogonek" unicode="&#x12f;" horiz-adv-x="636" 
d="M6 -260q0 148 198 260h-78v960h384v-960h-64q-93 -48 -144.5 -94.5t-51.5 -83.5q0 -31 22.5 -49t60.5 -18q62 0 119 27l64 -206q-93 -57 -230 -57q-129 0 -204 60q-76 61 -76 161zM316 1119q-94 0 -152 58t-58 152q0 96 58 154q59 59 152 59q95 0 154 -59t59 -154
q0 -93 -59 -152q-58 -58 -154 -58z" />
    <glyph glyph-name="Idotaccent" unicode="&#x130;" horiz-adv-x="699" 
d="M150 0v1358h399v-1358h-399zM138 1663q0 96 58 154q59 59 152 59q95 0 154 -59t59 -154q0 -93 -59 -152q-58 -58 -154 -58q-94 0 -152 58t-58 152z" />
    <glyph glyph-name="dotlessi" unicode="&#x131;" horiz-adv-x="636" 
d="M510 960v-960h-384v960h384z" />
    <glyph glyph-name="IJ" unicode="&#x132;" horiz-adv-x="1727" 
d="M597 232l251 239q85 -142 213 -142q63 0 101 44t38 116v869h399v-902q0 -217 -140 -346q-139 -130 -381 -130q-318 0 -481 252zM150 0v1358h399v-1358h-399z" />
    <glyph glyph-name="ij" unicode="&#x133;" horiz-adv-x="1179" 
d="M420 -373l32 288q55 -23 119 -23q52 0 80.5 32t28.5 95v941h373v-978q0 -120 -49 -206.5t-130 -136.5q-97 -59 -213 -59q-145 0 -241 47zM126 0v960h384v-960h-384zM866 1046q-94 0 -152 58t-58 152q0 96 58 154q59 59 152 59q95 0 154 -59t59 -154q0 -93 -59 -152
q-58 -58 -154 -58zM313 1046q-94 0 -152 58t-58 152q0 96 58 154q59 59 152 59q95 0 154 -59t59 -154q0 -93 -59 -152q-58 -58 -154 -58z" />
    <glyph glyph-name="Jcircumflex" unicode="&#x134;" horiz-adv-x="1119" 
d="M-20 232l251 239q85 -142 213 -142q63 0 101 44t38 116v869h399v-902q0 -217 -140 -346q-139 -130 -381 -130q-317 0 -481 252zM680 1471h-311l287 370h257l287 -370h-312l-104 160z" />
    <glyph glyph-name="jcircumflex" unicode="&#x135;" horiz-adv-x="599" 
d="M81 -420q-145 0 -241 47l32 288q55 -23 119 -23q52 0 80.5 32t28.5 95v941h373v-978q0 -120 -49 -206.5t-130 -136.5q-97 -59 -213 -59zM299 1244l-104 -160h-311l287 370h257l287 -370h-312z" />
    <glyph glyph-name="uni0136" unicode="&#x136;" horiz-adv-x="1484" 
d="M549 0h-399v1358h399v-501l463 501h478l-523 -556l546 -802h-467l-354 554l-143 -148v-406zM867 -548h-256l-7 462h342z" />
    <glyph glyph-name="uni0137" unicode="&#x137;" horiz-adv-x="1211" 
d="M511 0h-385v1408h385v-701l235 253h470l-387 -397l402 -563h-456l-214 338l-50 -52v-286zM471 -548l-7 462h342l-79 -462h-256z" />
    <glyph glyph-name="kgreenlandic" unicode="&#x138;" horiz-adv-x="1211" 
d="M511 0h-385v960h385v-253l235 253h470l-387 -397l402 -563h-456l-214 338l-50 -52v-286z" />
    <glyph glyph-name="Lacute" unicode="&#x139;" horiz-adv-x="1208" 
d="M549 318h652v-318h-1051v1358h399v-1040zM356 1807h432l-287 -334h-312z" />
    <glyph glyph-name="lacute" unicode="&#x13a;" horiz-adv-x="636" 
d="M126 1408h384v-1408h-384v1408zM319 1826h432l-287 -334h-312z" />
    <glyph glyph-name="uni013B" unicode="&#x13b;" horiz-adv-x="1208" 
d="M549 318h652v-318h-1051v1358h399v-1040zM776 -548h-256l-7 462h342z" />
    <glyph glyph-name="uni013C" unicode="&#x13c;" horiz-adv-x="636" 
d="M126 1408h384v-1408h-384v1408zM399 -548h-256l-7 462h342z" />
    <glyph glyph-name="Lcaron" unicode="&#x13d;" horiz-adv-x="1208" 
d="M1201 318v-318h-1051v1358h399v-1040h652zM725 896l-7 462h342l-79 -462h-256z" />
    <glyph glyph-name="lcaron" unicode="&#x13e;" horiz-adv-x="709" 
d="M126 0v1408h384v-1408h-384zM616 946l-7 462h342l-79 -462h-256z" />
    <glyph glyph-name="Ldot" unicode="&#x13f;" horiz-adv-x="1211" 
d="M1201 318v-318h-1051v1358h399v-1040h652zM736 718q0 84 60 142q58 58 138 58q82 0 143 -60q60 -60 60 -140q0 -82 -62 -138t-141 -56q-80 0 -139 59t-59 135z" />
    <glyph glyph-name="ldot" unicode="&#x140;" horiz-adv-x="958" 
d="M126 0v1408h384v-1408h-384zM753 480q-94 0 -152 58t-58 152q0 96 58 154q59 59 152 59q95 0 154 -59t59 -154q0 -93 -59 -152q-58 -58 -154 -58z" />
    <glyph glyph-name="Lslash" unicode="&#x141;" horiz-adv-x="1297" 
d="M638 1358v-474l239 14v-194l-239 -14v-372h652v-318h-1051v666l-198 -12v194l198 12v498h399z" />
    <glyph glyph-name="lslash" unicode="&#x142;" horiz-adv-x="691" 
d="M538 1408v-653l118 47v-184l-118 -44v-574h-384v431l-119 -44v170l119 47v804h384z" />
    <glyph glyph-name="Nacute" unicode="&#x143;" horiz-adv-x="1592" 
d="M150 0v1358h325l579 -725v725h388v-1358h-311l-593 727v-727h-388zM1231 1807l-287 -334h-312l167 334h432z" />
    <glyph glyph-name="nacute" unicode="&#x144;" horiz-adv-x="1240" 
d="M510 530v-530h-384v960h350l9 -92q43 52 121.5 82t176.5 30q153 0 249 -93q95 -93 95 -243v-644h-384v530q0 51 -32.5 83t-84.5 32t-84 -32t-32 -83zM837 1113h-312l167 334h432z" />
    <glyph glyph-name="uni0145" unicode="&#x145;" horiz-adv-x="1592" 
d="M150 0v1358h325l579 -725v725h388v-1358h-311l-593 727v-727h-388zM652 -548l-7 462h342l-79 -462h-256z" />
    <glyph glyph-name="uni0146" unicode="&#x146;" horiz-adv-x="1240" 
d="M126 0v960h350l9 -92q43 52 121.5 82t176.5 30q153 0 249 -93q95 -93 95 -243v-644h-384v530q0 51 -32.5 83t-84.5 32t-84 -32t-32 -83v-530h-384zM733 -548h-256l-7 462h342z" />
    <glyph glyph-name="Ncaron" unicode="&#x147;" horiz-adv-x="1592" 
d="M538 0h-388v1358h325l579 -725v725h388v-1358h-311l-593 727v-727zM668 1481l-287 370h311l104 -160l104 160h312l-287 -370h-257z" />
    <glyph glyph-name="ncaron" unicode="&#x148;" horiz-adv-x="1240" 
d="M126 0v960h350l9 -92q43 52 121.5 82t176.5 30q153 0 249 -93q95 -93 95 -243v-644h-384v530q0 51 -32.5 83t-84.5 32t-84 -32t-32 -83v-530h-384zM778 1096h-257l-287 370h311l104 -160l104 160h312z" />
    <glyph glyph-name="napostrophe" unicode="&#x149;" horiz-adv-x="1478" 
d="M748 0h-384v960h350l9 -92q43 52 121.5 82t176.5 30q153 0 249 -93q95 -93 95 -243v-644h-384v530q0 51 -32.5 83t-84.5 32t-84 -32t-32 -83v-530zM487 1428l-198 -516h-291l137 516h352z" />
    <glyph glyph-name="Eng" unicode="&#x14a;" horiz-adv-x="1592" 
d="M150 0v1358h325l579 -725v725h388v-1376q0 -102 -37.5 -182t-98.5 -126.5t-130.5 -70t-140.5 -23.5q-145 0 -241 47l32 288q55 -23 119 -23q52 0 80.5 32t28.5 95v75l-516 633v-727h-388z" />
    <glyph glyph-name="eng" unicode="&#x14b;" horiz-adv-x="1240" 
d="M510 0h-384v960h350l9 -92q43 52 121.5 82t176.5 30q153 0 249 -93q95 -93 95 -243v-662q0 -102 -35.5 -182t-93 -126.5t-123 -70t-131.5 -23.5q-135 0 -221 47l32 288q44 -23 99 -23q89 0 89 127v511q0 51 -32.5 83t-84.5 32t-84 -32t-32 -83v-530z" />
    <glyph glyph-name="Omacron" unicode="&#x14c;" horiz-adv-x="1560" 
d="M783 -20q-154 0 -287.5 51.5t-230.5 144.5q-96 93 -149.5 223.5t-53.5 281.5q-3 199 90.5 360t260 250.5t370.5 86.5q153 0 286 -51t228 -143q95 -93 148 -223.5t53 -280.5q0 -151 -53 -281.5t-148 -223.5q-95 -92 -228.5 -143.5t-285.5 -51.5zM467 680q0 -155 88 -249
q88 -96 230 -96q139 0 224 96q85 94 85 249q0 152 -85 246t-224 94q-142 0 -230 -94t-88 -246zM1076 1720v-234h-591v234h591z" />
    <glyph glyph-name="omacron" unicode="&#x14d;" horiz-adv-x="1168" 
d="M202 119q-147 138 -147 361q0 222 147 362q146 138 382 138t383 -138q146 -140 146 -362q0 -223 -146 -361q-146 -139 -383 -139t-382 139zM289 1150v234h591v-234h-591zM704 610q-46 49 -120 49t-120 -49t-46 -130t46 -130q47 -50 120 -50t120 50q46 49 46 130t-46 130z
" />
    <glyph glyph-name="Obreve" unicode="&#x14e;" horiz-adv-x="1560" 
d="M783 -20q-154 0 -287.5 51.5t-230.5 144.5q-96 93 -149.5 223.5t-53.5 281.5q-3 199 90.5 360t260 250.5t370.5 86.5q153 0 286 -51t228 -143q95 -93 148 -223.5t53 -280.5q0 -151 -53 -281.5t-148 -223.5q-95 -92 -228.5 -143.5t-285.5 -51.5zM467 680q0 -155 88 -249
q88 -96 230 -96q139 0 224 96q85 94 85 249q0 152 -85 246t-224 94q-142 0 -230 -94t-88 -246zM780 1456q-158 0 -252 96q-95 97 -95 257h249q-2 -61 24.5 -97.5t73.5 -36.5q48 0 74.5 36.5t23.5 97.5h250q0 -162 -94 -257q-94 -96 -254 -96z" />
    <glyph glyph-name="obreve" unicode="&#x14f;" horiz-adv-x="1168" 
d="M967 119q-146 -139 -383 -139t-382 139q-147 138 -147 361q0 222 147 362q146 138 382 138t383 -138q146 -140 146 -362q0 -223 -146 -361zM584 1099q-158 0 -252 96q-95 97 -95 257h249q-2 -61 24.5 -97.5t73.5 -36.5q48 0 74.5 36.5t23.5 97.5h250q0 -162 -94 -257
q-94 -96 -254 -96zM704 610q-46 49 -120 49t-120 -49t-46 -130t46 -130q47 -50 120 -50t120 50q46 49 46 130t-46 130z" />
    <glyph glyph-name="Ohungarumlaut" unicode="&#x150;" horiz-adv-x="1560" 
d="M62 681q-3 199 90.5 360t260 250.5t370.5 86.5q153 0 286 -51t228 -143q95 -93 148 -223.5t53 -280.5q0 -151 -53 -281.5t-148 -223.5q-95 -92 -228.5 -143.5t-285.5 -51.5q-154 0 -287.5 51.5t-230.5 144.5q-96 93 -149.5 223.5t-53.5 281.5zM467 680q0 -155 88 -249
q88 -96 230 -96q139 0 224 96q85 94 85 249q0 152 -85 246t-224 94q-142 0 -230 -94t-88 -246zM1450 1807l-287 -334h-312l167 334h432zM673 1473h-312l167 334h432z" />
    <glyph glyph-name="ohungarumlaut" unicode="&#x151;" horiz-adv-x="1168" 
d="M202 119q-147 138 -147 361q0 222 147 362q146 138 382 138t383 -138q146 -140 146 -362q0 -223 -146 -361q-146 -139 -383 -139t-382 139zM1245 1447l-308 -334h-291l197 334h402zM543 1113h-291l167 334h372zM464 610q-46 -49 -46 -130t46 -130q47 -50 120 -50t120 50
q46 49 46 130t-46 130t-120 49t-120 -49z" />
    <glyph glyph-name="OE" unicode="&#x152;" horiz-adv-x="2249" 
d="M800 -20q-159 -2 -297.5 50t-236 145t-152 224.5t-52.5 281.5q-2 150 52.5 280.5t152 222.5t236 144t297.5 50q202 0 369 -116v96h1014v-320h-685v-191h619v-318h-619v-211h690v-318h-1019v96q-167 -116 -369 -116zM466 680q0 -154 93 -249q91 -96 243 -96q146 0 238 96
q90 95 90 249q0 152 -90 246q-91 94 -238 94q-152 0 -243 -94q-93 -94 -93 -246z" />
    <glyph glyph-name="oe" unicode="&#x153;" horiz-adv-x="1745" 
d="M584 -20q-237 0 -382 139q-147 138 -147 361q0 222 147 362q146 138 382 138q204 0 319 -115q125 115 303 115q127 3 238 -54.5t178 -162.5t65 -232q0 -59 -15 -123h-605q9 -66 65 -102q55 -37 129 -37q54 0 103.5 25.5t77.5 68.5l227 -152q-141 -231 -441 -231
q-186 0 -319 124q-137 -124 -325 -124zM705 609q-47 50 -121 50t-120 -49t-46 -130t46 -130q47 -50 120 -50q74 0 121 50t47 130q0 79 -47 129zM1207 700q-55 0 -95 -35q-40 -34 -45 -83h271q0 47 -38 83q-38 35 -93 35z" />
    <glyph glyph-name="Racute" unicode="&#x154;" horiz-adv-x="1375" 
d="M150 0v1358h685q201 0 340 -127q138 -128 138 -323q0 -133 -65 -238t-179 -163l275 -508h-425l-239 456h-133v-455h-397zM1112 1807l-287 -334h-312l167 334h432zM547 1035v-270h221q62 0 101 43q38 43 38 100q0 56 -38 91.5t-101 35.5h-221z" />
    <glyph glyph-name="racute" unicode="&#x155;" horiz-adv-x="872" 
d="M126 0v960h350l14 -131q33 72 101.5 111.5t156.5 39.5q54 0 114 -18l-23 -322q-55 21 -113 21q-103 0 -159.5 -59.5t-56.5 -170.5v-431h-384zM934 1447l-287 -334h-312l167 334h432z" />
    <glyph glyph-name="uni0156" unicode="&#x156;" horiz-adv-x="1375" 
d="M547 0h-397v1358h685q201 0 340 -127q138 -128 138 -323q0 -133 -65 -238t-179 -163l275 -508h-425l-239 456h-133v-455zM539 -548l-7 462h342l-79 -462h-256zM768 1035h-221v-270h221q62 0 101 43q38 43 38 100q0 56 -38 91.5t-101 35.5z" />
    <glyph glyph-name="uni0157" unicode="&#x157;" horiz-adv-x="872" 
d="M126 0v960h350l14 -131q33 72 101.5 111.5t156.5 39.5q54 0 114 -18l-23 -322q-55 21 -113 21q-103 0 -159.5 -59.5t-56.5 -170.5v-431h-384zM406 -548h-256l-7 462h342z" />
    <glyph glyph-name="Rcaron" unicode="&#x158;" horiz-adv-x="1375" 
d="M150 0v1358h685q201 0 340 -127q138 -128 138 -323q0 -133 -65 -238t-179 -163l275 -508h-425l-239 456h-133v-455h-397zM540 1481l-287 370h311l104 -160l104 160h312l-287 -370h-257zM768 1035h-221v-270h221q62 0 101 43q38 43 38 100q0 56 -38 91.5t-101 35.5z" />
    <glyph glyph-name="rcaron" unicode="&#x159;" horiz-adv-x="872" 
d="M126 0v960h350l14 -131q33 72 101.5 111.5t156.5 39.5q54 0 114 -18l-23 -322q-55 21 -113 21q-103 0 -159.5 -59.5t-56.5 -170.5v-431h-384zM638 1096h-257l-287 370h311l104 -160l104 160h312z" />
    <glyph glyph-name="Sacute" unicode="&#x15a;" horiz-adv-x="1270" 
d="M66 294l285 199q60 -89 141.5 -136t175.5 -47q65 0 109 25.5t44 63.5q0 42 -44 65q-37 19 -178 62l-9 3t-11 3.5t-10 2.5q-117 35 -187 66q-91 39 -158 100q-105 94 -109 262q0 123 75 220q74 97 192 146q116 49 252 49q178 0 308.5 -75.5t225.5 -222.5l-271 -188
q-43 71 -114 114t-153 43q-56 0 -92.5 -22.5t-36.5 -62.5q0 -41 43.5 -68t139.5 -55q159 -45 271 -95q60 -27 106 -62q146 -113 146 -286q0 -98 -47 -180.5t-128 -133.5q-163 -104 -367 -104q-199 0 -353.5 81.5t-245.5 232.5zM1101 1807l-287 -334h-312l167 334h432z" />
    <glyph glyph-name="sacute" unicode="&#x15b;" horiz-adv-x="986" 
d="M52 161l209 197q41 -46 103.5 -72.5t130.5 -26.5q39 0 62 11t23 30q3 12 -13.5 21t-49.5 19q-3 1 -21 5.5t-33 8.5q-35 8 -67 18q-150 43 -228 114.5t-78 184.5q0 133 113 222q113 87 288 87q254 0 395 -166l-197 -202q-35 40 -85 64q-51 25 -99 25q-79 0 -79 -35
q0 -25 59 -43q4 -1 72 -22q10 -3 26 -8t19 -6q133 -40 223 -102q98 -69 98 -187q0 -140 -123 -229q-125 -89 -302 -89q-292 0 -446 181zM635 1113h-312l167 334h432z" />
    <glyph glyph-name="Scircumflex" unicode="&#x15c;" horiz-adv-x="1270" 
d="M66 294l285 199q60 -89 141.5 -136t175.5 -47q65 0 109 25.5t44 63.5q0 42 -44 65q-37 19 -178 62l-9 3t-11 3.5t-10 2.5q-117 35 -187 66q-91 39 -158 100q-105 94 -109 262q0 123 75 220q74 97 192 146q116 49 252 49q178 0 308.5 -75.5t225.5 -222.5l-271 -188
q-43 71 -114 114t-153 43q-56 0 -92.5 -22.5t-36.5 -62.5q0 -41 43.5 -68t139.5 -55q159 -45 271 -95q60 -27 106 -62q146 -113 146 -286q0 -98 -47 -180.5t-128 -133.5q-163 -104 -367 -104q-199 0 -353.5 81.5t-245.5 232.5zM670 1631l-104 -160h-311l287 370h257
l287 -370h-312z" />
    <glyph glyph-name="scircumflex" unicode="&#x15d;" horiz-adv-x="986" 
d="M52 161l209 197q41 -46 103.5 -72.5t130.5 -26.5q39 0 62 11t23 30q3 12 -13.5 21t-49.5 19q-3 1 -21 5.5t-33 8.5q-35 8 -67 18q-150 43 -228 114.5t-78 184.5q0 133 113 222q113 87 288 87q254 0 395 -166l-197 -202q-35 40 -85 64q-51 25 -99 25q-79 0 -79 -35
q0 -25 59 -43q4 -1 72 -22q10 -3 26 -8t19 -6q133 -40 223 -102q98 -69 98 -187q0 -140 -123 -229q-125 -89 -302 -89q-292 0 -446 181zM510 1244l-104 -160h-311l287 370h257l287 -370h-312z" />
    <glyph glyph-name="Scedilla" unicode="&#x15e;" horiz-adv-x="1270" 
d="M483 -182l67 170q-159 21 -283 99.5t-201 206.5l285 199q60 -89 141.5 -136t175.5 -47q65 0 109 25.5t44 63.5q0 42 -44 65q-37 19 -178 62l-9 3t-11 3.5t-10 2.5q-117 35 -187 66q-91 39 -158 100q-105 94 -109 262q0 123 75 220q74 97 192 146q116 49 252 49
q178 0 308.5 -75.5t225.5 -222.5l-271 -188q-43 71 -114 114t-153 43q-56 0 -92.5 -22.5t-36.5 -62.5q0 -41 43.5 -68t139.5 -55q159 -45 271 -95q60 -27 106 -62q146 -113 146 -286q0 -90 -40 -167.5t-110 -128.5q-140 -102 -328 -119l-17 -57q105 -15 161.5 -66t56.5 -133
q0 -96 -98.5 -153t-231.5 -55q-104 0 -170 30v182q54 -22 126 -22q53 0 83.5 14.5t30.5 39.5q0 26 -32 40.5t-88 14.5h-67z" />
    <glyph glyph-name="scedilla" unicode="&#x15f;" horiz-adv-x="986" 
d="M315 -182l67 170q-207 28 -330 173l209 197q41 -46 103.5 -72.5t130.5 -26.5q39 0 62 11t23 30q3 12 -13.5 21t-49.5 19q-3 1 -21 5.5t-33 8.5q-35 8 -67 18q-150 43 -228 114.5t-78 184.5q0 133 113 222q113 87 288 87q254 0 395 -166l-197 -202q-35 40 -85 64
q-51 25 -99 25q-79 0 -79 -35q0 -25 59 -43q4 -1 72 -22q10 -3 26 -8t19 -6q133 -40 223 -102q98 -69 98 -187q0 -128 -102 -213q-104 -86 -260 -102l-17 -57q105 -15 161.5 -66t56.5 -133q0 -96 -98.5 -153t-231.5 -55q-104 0 -170 30v182q54 -22 126 -22q53 0 83.5 14.5
t30.5 39.5q0 26 -32 40.5t-88 14.5h-67z" />
    <glyph glyph-name="Scaron" unicode="&#x160;" horiz-adv-x="1270" 
d="M665 -20q-199 0 -353.5 81.5t-245.5 232.5l285 199q60 -89 141.5 -136t175.5 -47q65 0 109 25.5t44 63.5q0 42 -44 65q-37 19 -178 62l-9 3t-11 3.5t-10 2.5q-117 35 -187 66q-91 39 -158 100q-105 94 -109 262q0 123 75 220q74 97 192 146q116 49 252 49
q178 0 308.5 -75.5t225.5 -222.5l-271 -188q-43 71 -114 114t-153 43q-56 0 -92.5 -22.5t-36.5 -62.5q0 -41 43.5 -68t139.5 -55q159 -45 271 -95q60 -27 106 -62q146 -113 146 -286q0 -98 -47 -180.5t-128 -133.5q-163 -104 -367 -104zM535 1481l-287 370h311l104 -160
l104 160h312l-287 -370h-257z" />
    <glyph glyph-name="scaron" unicode="&#x161;" horiz-adv-x="986" 
d="M52 161l209 197q41 -46 103.5 -72.5t130.5 -26.5q39 0 62 11t23 30q3 12 -13.5 21t-49.5 19q-3 1 -21 5.5t-33 8.5q-35 8 -67 18q-150 43 -228 114.5t-78 184.5q0 133 113 222q113 87 288 87q254 0 395 -166l-197 -202q-35 40 -85 64q-51 25 -99 25q-79 0 -79 -35
q0 -25 59 -43q4 -1 72 -22q10 -3 26 -8t19 -6q133 -40 223 -102q98 -69 98 -187q0 -140 -123 -229q-125 -89 -302 -89q-292 0 -446 181zM377 1096l-287 370h311l104 -160l104 160h312l-287 -370h-257z" />
    <glyph glyph-name="uni0162" unicode="&#x162;" horiz-adv-x="1187" 
d="M389 0v1032h-387v326h1183v-326h-397v-1032h-132l-22 -74q105 -15 161.5 -66t56.5 -133q0 -96 -98.5 -153t-231.5 -55q-104 0 -170 30v182q54 -22 126 -22q53 0 83.5 14.5t30.5 39.5q0 26 -32 40.5t-88 14.5h-67l71 182h-87z" />
    <glyph glyph-name="uni0163" unicode="&#x163;" horiz-adv-x="861" 
d="M169 369v289h-144v302h143v308h361v-308h284v-302h-270v-225q0 -67 30.5 -97t91.5 -30q87 0 167 33l20 -299q-42 -24 -120 -42q-80 -18 -158 -18q-33 0 -42 1l-16 -55q105 -15 161.5 -66t56.5 -133q0 -96 -98.5 -153t-231.5 -55q-104 0 -170 30v182q54 -22 126 -22
q53 0 83.5 14.5t30.5 39.5q0 26 -32 40.5t-88 14.5h-67l78 200q-196 85 -196 351z" />
    <glyph glyph-name="Tcaron" unicode="&#x164;" horiz-adv-x="1187" 
d="M389 1032h-387v326h1183v-326h-397v-1032h-399v1032zM722 1481h-257l-287 370h311l104 -160l104 160h312z" />
    <glyph glyph-name="tcaron" unicode="&#x165;" horiz-adv-x="849" 
d="M157 369v289h-144v302h143v308h361v-308h284v-302h-270v-225q0 -67 30.5 -97t91.5 -30q87 0 167 33l20 -299q-42 -24 -120 -42q-80 -18 -158 -18q-89 0 -160.5 21t-127.5 65.5t-86.5 121t-30.5 181.5zM611 1052l-7 462h342l-79 -462h-256z" />
    <glyph glyph-name="Tbar" unicode="&#x166;" horiz-adv-x="1253" 
d="M422 786v246h-387v326h1183v-326h-397v-246h257v-184h-257v-602h-399v602h-247v184h247z" />
    <glyph glyph-name="tbar" unicode="&#x167;" horiz-adv-x="872" 
d="M175 658h-144v302h143v308h361v-308h284v-302h-270v-64h249v-194h-247q13 -94 120 -94q87 0 167 33l20 -299q-42 -24 -120 -42q-80 -18 -158 -18q-89 0 -160.5 21t-127.5 65.5t-86.5 121t-30.5 181.5v31h-120v194h120v64z" />
    <glyph glyph-name="Utilde" unicode="&#x168;" horiz-adv-x="1451" 
d="M135 497v861h399v-832q0 -99 52.5 -152.5t138.5 -53.5t139 54t53 152v832h399v-861q0 -129 -43.5 -228.5t-122.5 -162t-186 -94.5t-239 -32q-367 0 -514 228q-76 118 -76 289zM461 1465l-140 127q114 230 288 230q74 0 144 -46t112 -46q60 0 129 77l137 -117
q-37 -75 -90 -129t-106 -76q-48 -22 -99 -22q-36 -1 -85 22t-93.5 46t-71.5 21q-60 0 -125 -87z" />
    <glyph glyph-name="utilde" unicode="&#x169;" horiz-adv-x="1240" 
d="M457 -20q-153 0 -248 93q-96 93 -96 243v644h384v-530q0 -51 32.5 -83t84.5 -32t84 32t32 83v530h384v-960h-350l-9 92q-43 -52 -121.5 -82t-176.5 -30zM355 1105l-140 127q114 230 288 230q74 0 144 -46t112 -46q60 0 129 77l137 -117q-37 -75 -90 -129t-106 -76
q-48 -22 -99 -22q-36 -1 -85 22t-93.5 46t-71.5 21q-60 0 -125 -87z" />
    <glyph glyph-name="Umacron" unicode="&#x16a;" horiz-adv-x="1451" 
d="M135 497v861h399v-832q0 -99 52.5 -152.5t138.5 -53.5t139 54t53 152v832h399v-861q0 -129 -43.5 -228.5t-122.5 -162t-186 -94.5t-239 -32q-367 0 -514 228q-76 118 -76 289zM430 1486v234h591v-234h-591z" />
    <glyph glyph-name="umacron" unicode="&#x16b;" horiz-adv-x="1240" 
d="M113 316v644h384v-530q0 -51 32.5 -83t84.5 -32t84 32t32 83v530h384v-960h-350l-9 92q-43 -52 -121.5 -82t-176.5 -30q-153 0 -248 93q-96 93 -96 243zM916 1384v-234h-591v234h591z" />
    <glyph glyph-name="Ubreve" unicode="&#x16c;" horiz-adv-x="1451" 
d="M135 497v861h399v-832q0 -99 52.5 -152.5t138.5 -53.5t139 54t53 152v832h399v-861q0 -129 -43.5 -228.5t-122.5 -162t-186 -94.5t-239 -32q-367 0 -514 228q-76 118 -76 289zM725 1456q-157 0 -252 96q-95 97 -95 257h249q-2 -61 24.5 -97.5t73.5 -36.5q48 0 74.5 36.5
t23.5 97.5h250q0 -162 -94 -257q-95 -96 -254 -96z" />
    <glyph glyph-name="ubreve" unicode="&#x16d;" horiz-adv-x="1240" 
d="M113 316v644h384v-530q0 -51 32.5 -83t84.5 -32t84 32t32 83v530h384v-960h-350l-9 92q-43 -52 -121.5 -82t-176.5 -30q-153 0 -248 93q-96 93 -96 243zM263 1452h249q-2 -61 24.5 -97.5t73.5 -36.5q48 0 74.5 36.5t23.5 97.5h250q0 -162 -94 -257q-94 -96 -254 -96
q-158 0 -252 96q-95 97 -95 257z" />
    <glyph glyph-name="Uring" unicode="&#x16e;" horiz-adv-x="1451" 
d="M725 -20q-367 0 -514 228q-76 118 -76 289v861h399v-832q0 -99 52.5 -152.5t138.5 -53.5t139 54t53 152v832h399v-861q0 -129 -43.5 -228.5t-122.5 -162t-186 -94.5t-239 -32zM494 1690q0 99 66 165q64 66 165 66q99 0 166 -66q66 -66 66 -165q0 -98 -66 -162
q-67 -66 -166 -66q-100 0 -165 65q-66 65 -66 163zM762 1729q-16 17 -37 17t-36 -17q-16 -17 -16 -38t16 -37q15 -16 36 -16t37 16q15 16 15 37t-15 38z" />
    <glyph glyph-name="uring" unicode="&#x16f;" horiz-adv-x="1240" 
d="M113 316v644h384v-530q0 -51 32.5 -83t84.5 -32t84 32t32 83v530h384v-960h-350l-9 92q-43 -52 -121.5 -82t-176.5 -30q-153 0 -248 93q-96 93 -96 243zM379 1288q0 99 66 165q65 66 165 66q98 0 166 -66q66 -66 66 -165q0 -98 -66 -162q-68 -66 -166 -66q-100 0 -165 65
q-66 65 -66 163zM647 1327q-16 17 -37 17t-36 -17q-16 -17 -16 -38t16 -37q15 -16 36 -16t37 16q15 16 15 37t-15 38z" />
    <glyph glyph-name="Uhungarumlaut" unicode="&#x170;" horiz-adv-x="1451" 
d="M135 497v861h399v-832q0 -99 52.5 -152.5t138.5 -53.5t139 54t53 152v832h399v-861q0 -129 -43.5 -228.5t-122.5 -162t-186 -94.5t-239 -32q-367 0 -514 228q-76 118 -76 289zM1061 1473h-291l197 334h402zM667 1473h-291l167 334h372z" />
    <glyph glyph-name="uhungarumlaut" unicode="&#x171;" horiz-adv-x="1240" 
d="M113 316v644h384v-530q0 -51 32.5 -83t84.5 -32t84 32t32 83v530h384v-960h-350l-9 92q-43 -52 -121.5 -82t-176.5 -30q-153 0 -248 93q-96 93 -96 243zM1262 1447l-308 -334h-291l197 334h402zM808 1447l-248 -334h-291l167 334h372z" />
    <glyph glyph-name="Uogonek" unicode="&#x172;" horiz-adv-x="1451" 
d="M135 497v861h399v-832q0 -99 52.5 -152.5t138.5 -53.5t139 54t53 152v832h399v-861q0 -204 -106 -331.5t-300 -167.5q-90 -47 -141 -93.5t-51 -82.5q0 -31 22.5 -49t60.5 -18q62 0 119 27l64 -206q-93 -57 -230 -57q-129 0 -204 60q-76 61 -76 161q0 136 170 243
q-237 20 -372 149q-137 131 -137 365z" />
    <glyph glyph-name="uogonek" unicode="&#x173;" horiz-adv-x="1240" 
d="M113 316v644h384v-530q0 -51 32.5 -83t84.5 -32t84 32t32 83v530h384v-960h-110q-93 -48 -144.5 -94.5t-51.5 -83.5q0 -31 22.5 -49t60.5 -18q62 0 119 27l64 -206q-93 -57 -230 -57q-129 0 -204 60q-76 61 -76 161q0 148 200 261l-9 91q-43 -52 -121.5 -82t-176.5 -30
q-153 0 -248 93q-96 93 -96 243z" />
    <glyph glyph-name="Wcircumflex" unicode="&#x174;" horiz-adv-x="1991" 
d="M825 0h-466l-355 1358h400l210 -892l222 873h320l221 -873l210 892h400l-355 -1358h-466l-170 582zM891 1471h-311l287 370h257l287 -370h-312l-104 160z" />
    <glyph glyph-name="wcircumflex" unicode="&#x175;" horiz-adv-x="1612" 
d="M286 0l-273 960h377l135 -565l158 541h246l157 -541l136 565h377l-273 -960h-407l-114 380l-112 -380h-407zM702 1084h-311l287 370h257l287 -370h-312l-104 160z" />
    <glyph glyph-name="Ycircumflex" unicode="&#x176;" horiz-adv-x="1430" 
d="M518 0v510l-529 848h472l261 -515l265 515h454l-525 -848v-510h-398zM611 1471h-311l287 370h257l287 -370h-312l-104 160z" />
    <glyph glyph-name="ycircumflex" unicode="&#x177;" horiz-adv-x="1153" 
d="M400 10l-402 950h398l181 -572l180 572h398l-428 -1078q-61 -155 -164.5 -228.5t-264.5 -73.5q-146 0 -243 54l54 281q60 -29 118 -29q66 0 109 28.5t64 95.5zM472 1084h-311l287 370h257l287 -370h-312l-104 160z" />
    <glyph glyph-name="Ydieresis" unicode="&#x178;" horiz-adv-x="1430" 
d="M518 510l-529 848h472l261 -515l265 515h454l-525 -848v-510h-398v510zM909 1484q-73 0 -119.5 46t-46.5 120q0 75 46.5 121.5t119.5 46.5q75 0 122 -47t47 -121t-47 -120t-122 -46zM640 1530q-46 -46 -121 -46q-74 0 -120 46q-47 47 -47 120q0 75 46.5 121.5t120.5 46.5
t121 -47t47 -121q0 -73 -47 -120z" />
    <glyph glyph-name="Zacute" unicode="&#x179;" horiz-adv-x="1234" 
d="M1183 0h-1129v280l632 758h-616v320h1102v-288l-626 -741h637v-329zM651 1807h432l-287 -334h-312z" />
    <glyph glyph-name="zacute" unicode="&#x17a;" horiz-adv-x="941" 
d="M898 0h-841v230l376 424h-371v306h806v-228l-379 -426h409v-306zM472 1447h432l-287 -334h-312z" />
    <glyph glyph-name="Zdotaccent" unicode="&#x17b;" horiz-adv-x="1234" 
d="M54 0v280l632 758h-616v320h1102v-288l-626 -741h637v-329h-1129zM626 1453q-94 0 -152 58t-58 152q0 96 58 154q59 59 152 59q95 0 154 -59t59 -154q0 -93 -59 -152q-58 -58 -154 -58z" />
    <glyph glyph-name="zdotaccent" unicode="&#x17c;" horiz-adv-x="941" 
d="M57 0v230l376 424h-371v306h806v-228l-379 -426h409v-306h-841zM479 1119q-94 0 -152 58t-58 152q0 96 58 154q59 59 152 59q95 0 154 -59t59 -154q0 -93 -59 -152q-58 -58 -154 -58z" />
    <glyph glyph-name="Zcaron" unicode="&#x17d;" horiz-adv-x="1234" 
d="M1183 0h-1129v280l632 758h-616v320h1102v-288l-626 -741h637v-329zM756 1481h-257l-287 370h311l104 -160l104 160h312z" />
    <glyph glyph-name="zcaron" unicode="&#x17e;" horiz-adv-x="941" 
d="M898 0h-841v230l376 424h-371v306h806v-228l-379 -426h409v-306zM647 1096h-257l-287 370h311l104 -160l104 160h312z" />
    <glyph glyph-name="uni018F" unicode="&#x18f;" horiz-adv-x="1467" 
d="M56 633q0 79 13 154h934q-17 104 -97 169t-195 65q-176 0 -287 -162l-312 192q90 152 250 240q159 87 346 87q198 3 359 -88t251.5 -253t87.5 -361q0 -147 -51.5 -277t-143.5 -223q-91 -93 -217 -145t-266 -52q-139 0 -263.5 47.5t-214.5 133.5q-91 86 -142.5 209
t-51.5 264zM1005 525h-560q14 -91 93 -146q78 -57 191 -57q108 0 185 58q78 57 91 145z" />
    <glyph glyph-name="florin" unicode="&#x192;" horiz-adv-x="1211" 
d="M20 38l79 273q40 -25 103 -25q158 0 176 121l28 194h-146l43 298h145l13 87q27 179 161 286q133 106 330 106q60 0 124 -16q70 -18 107 -38l-87 -270q-52 32 -116 32q-67 0 -112.5 -32t-53.5 -85l-11 -70h258l-43 -298h-243l-33 -226q-27 -185 -156 -290
q-130 -105 -330 -105q-60 0 -128 18q-69 18 -108 40z" />
    <glyph glyph-name="uni019D" unicode="&#x19d;" horiz-adv-x="1592" 
d="M-110 -373l32 288q55 -23 119 -23q52 0 80.5 32t28.5 95v1339h325l579 -725v725h388v-1358h-311l-593 727v-745q0 -102 -37.5 -182t-98.5 -126.5t-130.5 -70t-140.5 -23.5q-145 0 -241 47z" />
    <glyph glyph-name="Gcaron" unicode="&#x1e6;" horiz-adv-x="1500" 
d="M790 -20q-156 0 -292.5 53t-233.5 147q-96 94 -149.5 224t-53.5 276q0 147 53 276.5t150 223.5t233.5 146t292.5 52q179 0 331 -82t241 -225l-290 -201q-45 77 -118 118t-164 41q-148 0 -236 -96q-89 -97 -89 -252t90 -253q90 -99 235 -99q96 0 161 41t91 119h-298v292
h700q5 -63 5 -128q0 -309 -183 -491q-185 -182 -476 -182zM652 1481l-287 370h311l104 -160l104 160h312l-287 -370h-257z" />
    <glyph glyph-name="gcaron" unicode="&#x1e7;" horiz-adv-x="1265" 
d="M61 489q0 211 123 351t312 140q166 0 256 -109l9 89h382v-913q-1 -141 -74 -242t-195 -156q-151 -69 -334 -69q-162 0 -283 57t-186 128l197 232q107 -104 260 -104q89 0 157 47q67 46 67 117v32q-87 -89 -256 -89q-189 0 -312 140t-123 349zM709 1095h-257l-287 370h311
l104 -160l104 160h312zM596 660q-77 0 -124.5 -47t-47.5 -123q0 -75 47.5 -121.5t124.5 -46.5q75 0 121.5 46.5t46.5 121.5q0 76 -46.5 123t-121.5 47z" />
    <glyph glyph-name="uni01EA" unicode="&#x1ea;" horiz-adv-x="1560" 
d="M696 -16q-283 29 -458 220q-176 191 -176 477q-3 199 90.5 360t260 250.5t370.5 86.5q153 0 286 -51t228 -143q95 -93 148 -223.5t53 -280.5q0 -259 -146 -443q-145 -184 -388 -238q-195 -102 -195 -177q0 -31 22.5 -49t60.5 -18q62 0 119 27l64 -206q-93 -57 -230 -57
q-129 0 -204 60q-76 61 -76 161q0 138 171 244zM467 680q0 -155 88 -249q88 -96 230 -96q139 0 224 96q85 94 85 249q0 152 -85 246t-224 94q-142 0 -230 -94t-88 -246z" />
    <glyph glyph-name="uni01EB" unicode="&#x1eb;" horiz-adv-x="1168" 
d="M480 -12q-194 30 -309 163q-116 134 -116 329q0 222 147 362q146 138 382 138t383 -138q146 -140 146 -362q0 -181 -101 -311q-100 -129 -273 -171q-91 -48 -141.5 -94t-50.5 -82q0 -31 22.5 -49t60.5 -18q62 0 119 27l64 -206q-93 -57 -230 -57q-129 0 -204 60
q-76 61 -76 161q0 140 177 248zM704 610q-46 49 -120 49t-120 -49t-46 -130t46 -130q47 -50 120 -50t120 50q46 49 46 130t-46 130z" />
    <glyph glyph-name="Aringacute" unicode="&#x1fa;" horiz-adv-x="1487" 
d="M498 227l-88 -227h-426l522 1358h476l521 -1358h-426l-88 227h-491zM743 1462q-100 0 -165 65q-66 65 -66 163q0 99 66 165q64 66 165 66q99 0 166 -66q66 -66 66 -165q0 -98 -66 -162q-67 -66 -166 -66zM896 1962h-312l167 334h432zM744 982l-156 -454h311zM780 1729
q-16 17 -37 17t-36 -17q-16 -17 -16 -38t16 -37q15 -16 36 -16t37 16q15 16 15 37t-15 38z" />
    <glyph glyph-name="aringacute" unicode="&#x1fb;" horiz-adv-x="1119" 
d="M253 573l-191 219q60 68 182 128q121 60 263 60q219 0 356 -103q143 -108 143 -343v-534h-354v98q-37 -58 -110 -88q-72 -30 -149 -30q-146 0 -236 81q-91 81 -91 208q0 94 60 163q58 68 147 99q87 30 187 30q93 0 165 -19v3q0 55 -41 89t-112 34q-116 0 -219 -95z
M549 1060q-100 0 -165 65q-66 65 -66 163q0 99 66 165q64 66 165 66q99 0 166 -66q66 -66 66 -165q0 -98 -66 -162q-67 -66 -166 -66zM985 1901l-287 -334h-312l167 334h432zM417 291q0 -29 23.5 -46.5t59.5 -17.5q55 0 90 34t35 86q-41 16 -97 16q-49 0 -80 -19.5
t-31 -52.5zM586 1327q-16 17 -37 17t-36 -17q-16 -17 -16 -38t16 -37q15 -16 36 -16t37 16q15 16 15 37t-15 38z" />
    <glyph glyph-name="AEacute" unicode="&#x1fc;" horiz-adv-x="2071" 
d="M355 0h-425l742 1358h1233v-320h-594v-188h521v-319h-521v-212h604v-319h-1002v227h-432zM1797 1807l-287 -334h-312l167 334h432zM913 528v534l-288 -534h288z" />
    <glyph glyph-name="aeacute" unicode="&#x1fd;" horiz-adv-x="1634" 
d="M254 573l-191 219q60 68 182 128q121 60 263 60q190 0 292 -119q125 119 305 119q125 3 233.5 -54.5t173.5 -162.5t64 -232q0 -59 -15 -123h-585q7 -64 54.5 -98t117.5 -34q119 0 197 95l215 -194q-44 -71 -161 -133q-118 -64 -272 -64q-209 0 -343 140
q-119 -140 -330 -140q-172 0 -279 81q-108 81 -108 208q0 94 60 163q59 68 147 99q87 30 187 30q93 0 165 -19v3q0 55 -41 89t-112 34q-116 0 -219 -95zM1254 1447l-287 -334h-312l167 334h432zM976 582h251q0 46 -35 83q-35 35 -86 35t-88 -34t-42 -84zM529 372
q-49 0 -80 -19.5t-31 -52.5q0 -29 23.5 -46.5t59.5 -17.5q55 0 90 34t35 86q-41 16 -97 16z" />
    <glyph glyph-name="Oslashacute" unicode="&#x1fe;" horiz-adv-x="1560" 
d="M198 -25l112 161q-119 94 -183.5 235t-64.5 310q-3 199 90.5 360t260 250.5t370.5 86.5q184 0 340 -74l111 160l128 -88l-108 -155q117 -96 180.5 -235t63.5 -306q0 -151 -53 -281.5t-148 -223.5q-95 -92 -228.5 -143.5t-285.5 -51.5q-187 0 -343 74l-117 -168zM533 457
l376 539q-56 24 -124 24q-142 0 -230 -94t-88 -246q0 -132 66 -223zM1030 900l-376 -539q61 -26 131 -26q139 0 224 96q85 94 85 249q0 129 -64 220zM958 1473h-312l167 334h432z" />
    <glyph glyph-name="oslashacute" unicode="&#x1ff;" horiz-adv-x="1168" 
d="M60 -58l143 176q-148 139 -148 362q0 222 147 362q146 138 382 138q155 0 271 -61l149 184l104 -85l-143 -175q148 -139 148 -363q0 -223 -146 -361q-146 -139 -383 -139q-153 0 -272 61l-149 -182zM1024 1447l-287 -334h-312l167 334h432zM735 560l-206 -252
q29 -8 55 -8q74 0 120 50t46 130q0 46 -15 80zM433 400l204 251q-29 8 -53 8q-74 0 -120 -49.5t-46 -129.5q0 -44 15 -80z" />
    <glyph glyph-name="uni0218" unicode="&#x218;" horiz-adv-x="1270" 
d="M66 294l285 199q60 -89 141.5 -136t175.5 -47q65 0 109 25.5t44 63.5q0 42 -44 65q-37 19 -178 62l-9 3t-11 3.5t-10 2.5q-117 35 -187 66q-91 39 -158 100q-105 94 -109 262q0 123 75 220q74 97 192 146q116 49 252 49q178 0 308.5 -75.5t225.5 -222.5l-271 -188
q-43 71 -114 114t-153 43q-56 0 -92.5 -22.5t-36.5 -62.5q0 -41 43.5 -68t139.5 -55q159 -45 271 -95q60 -27 106 -62q146 -113 146 -286q0 -98 -47 -180.5t-128 -133.5q-163 -104 -367 -104q-199 0 -353.5 81.5t-245.5 232.5zM502 -548l-7 462h342l-79 -462h-256z" />
    <glyph glyph-name="uni0219" unicode="&#x219;" horiz-adv-x="986" 
d="M498 -20q-292 0 -446 181l209 197q41 -46 103.5 -72.5t130.5 -26.5q39 0 62 11t23 30q3 12 -13.5 21t-49.5 19q-3 1 -21 5.5t-33 8.5q-35 8 -67 18q-150 43 -228 114.5t-78 184.5q0 133 113 222q113 87 288 87q254 0 395 -166l-197 -202q-35 40 -85 64q-51 25 -99 25
q-79 0 -79 -35q0 -25 59 -43q4 -1 72 -22q10 -3 26 -8t19 -6q133 -40 223 -102q98 -69 98 -187q0 -140 -123 -229q-125 -89 -302 -89zM329 -548l-7 462h342l-79 -462h-256z" />
    <glyph glyph-name="uni021A" unicode="&#x21a;" horiz-adv-x="1187" 
d="M2 1032v326h1183v-326h-397v-1032h-399v1032h-387zM427 -548l-7 462h342l-79 -462h-256z" />
    <glyph glyph-name="uni021B" unicode="&#x21b;" horiz-adv-x="861" 
d="M169 369v289h-144v302h143v308h361v-308h284v-302h-270v-225q0 -67 30.5 -97t91.5 -30q87 0 167 33l20 -299q-42 -24 -120 -42q-80 -18 -158 -18q-89 0 -160.5 21t-127.5 65.5t-86.5 121t-30.5 181.5zM287 -548l-7 462h342l-79 -462h-256z" />
    <glyph glyph-name="uni0232" unicode="&#x232;" horiz-adv-x="1430" 
d="M518 0v510l-529 848h472l261 -515l265 515h454l-525 -848v-510h-398zM420 1486v234h591v-234h-591z" />
    <glyph glyph-name="uni0233" unicode="&#x233;" horiz-adv-x="1153" 
d="M400 10l-402 950h398l181 -572l180 572h398l-428 -1078q-61 -155 -164.5 -228.5t-264.5 -73.5q-146 0 -243 54l54 281q60 -29 118 -29q66 0 109 28.5t64 95.5zM281 1150v234h591v-234h-591z" />
    <glyph glyph-name="uni0237" unicode="&#x237;" horiz-adv-x="599" 
d="M-160 -373l32 288q55 -23 119 -23q52 0 80.5 32t28.5 95v941h373v-978q0 -120 -49 -206.5t-130 -136.5q-97 -59 -213 -59q-145 0 -241 47z" />
    <glyph glyph-name="uni0259" unicode="&#x259;" horiz-adv-x="1106" 
d="M-11 429q0 59 15 123h605q-8 64 -58 98t-124 34q-124 0 -199 -102l-223 201q40 63 151 126q126 71 292 71q229 0 375 -140q145 -141 145 -362q3 -138 -60.5 -253t-179.5 -181t-258 -64q-127 -3 -238 54.5t-178 162.5t-65 232zM609 378h-271q0 -47 38 -82q38 -36 93 -36
t96 35q39 35 44 83z" />
    <glyph glyph-name="uni0272" unicode="&#x272;" horiz-adv-x="1240" 
d="M-94 -373l32 288q44 -23 99 -23q89 0 89 127v941h350l9 -92q43 52 121.5 82t176.5 30q153 0 249 -93q95 -93 95 -243v-644h-384v530q0 51 -32.5 83t-84.5 32t-84 -32t-32 -83v-548q0 -102 -35.5 -182t-93 -126.5t-123 -70t-131.5 -23.5q-135 0 -221 47z" />
    <glyph glyph-name="circumflex" unicode="&#x2c6;" horiz-adv-x="1079" 
d="M435 1471h-311l287 370h257l287 -370h-312l-104 160z" />
    <glyph glyph-name="caron" unicode="&#x2c7;" horiz-adv-x="1079" 
d="M668 1481h-257l-287 370h311l104 -160l104 160h312z" />
    <glyph glyph-name="breve" unicode="&#x2d8;" horiz-adv-x="923" 
d="M114 1809h249q-2 -61 24.5 -97.5t73.5 -36.5q48 0 74.5 36.5t23.5 97.5h250q0 -162 -94 -257q-95 -96 -254 -96q-157 0 -252 96q-95 97 -95 257z" />
    <glyph glyph-name="dotaccent" unicode="&#x2d9;" horiz-adv-x="671" 
d="M124 1663q0 96 58 154q59 59 152 59q95 0 154 -59t59 -154q0 -93 -59 -152q-58 -58 -154 -58q-94 0 -152 58t-58 152z" />
    <glyph glyph-name="ring" unicode="&#x2da;" horiz-adv-x="711" 
d="M355 1462q-100 0 -165 65q-66 65 -66 163q0 99 66 165q64 66 165 66q99 0 166 -66q66 -66 66 -165q0 -98 -66 -162q-67 -66 -166 -66zM319 1729q-16 -17 -16 -38t16 -37q15 -16 36 -16t37 16q15 16 15 37t-15 38q-16 17 -37 17t-36 -17z" />
    <glyph glyph-name="ogonek" unicode="&#x2db;" horiz-adv-x="706" 
d="M105 -260q0 176 275 299l165 -39q-93 -48 -144.5 -94.5t-51.5 -83.5q0 -31 22.5 -49t60.5 -18q62 0 119 27l64 -206q-93 -57 -230 -57q-129 0 -204 60q-76 61 -76 161z" />
    <glyph glyph-name="tilde" unicode="&#x2dc;" horiz-adv-x="1058" 
d="M264 1465l-140 127q114 230 288 230q74 0 144 -46t112 -46q60 0 129 77l137 -117q-37 -75 -90 -129t-106 -76q-48 -22 -99 -22q-36 -1 -85 22t-93.5 46t-71.5 21q-61 0 -125 -87z" />
    <glyph glyph-name="hungarumlaut" unicode="&#x2dd;" horiz-adv-x="1271" 
d="M829 1473h-291l197 334h402zM683 1807l-248 -334h-291l167 334h372z" />
    <glyph glyph-name="acutecomb" unicode="&#x301;" horiz-adv-x="847" 
d="M291 2277h432l-287 -334h-312z" />
    <glyph glyph-name="uni030A" unicode="&#x30a;" horiz-adv-x="711" 
d="M355 1462q-100 0 -165 65q-66 65 -66 163q0 99 66 165q64 66 165 66q99 0 166 -66q66 -66 66 -165q0 -98 -66 -162q-67 -66 -166 -66zM319 1729q-16 -17 -16 -38t16 -37q15 -16 36 -16t37 16q15 16 15 37t-15 38q-16 17 -37 17t-36 -17z" />
    <glyph glyph-name="dotbelowcomb" unicode="&#x323;" horiz-adv-x="649" 
d="M124 -287q0 83 60 141q59 59 138 59q82 0 143 -61q60 -60 60 -139q0 -82 -62 -138t-141 -56q-81 0 -139 58q-59 59 -59 136z" />
    <glyph glyph-name="uni0326" unicode="&#x326;" horiz-adv-x="590" 
d="M387 -548h-256l-7 462h342z" />
    <glyph glyph-name="uni03BC" unicode="&#x3bc;" horiz-adv-x="1253" 
d="M494 -19v-380h-368v1359h384v-530q0 -51 32.5 -83t84.5 -32t84 32t32 83v530h384v-960h-350l-9 92q-39 -49 -111 -78t-163 -33z" />
    <glyph glyph-name="pi" unicode="&#x3c0;" horiz-adv-x="1404" 
d="M11 802v327h1340v-164q-1 -73 -1 -163h-151v-404q0 -55 38 -79.5t100 -14.5v-314q-8 -4 -49 -7q-40 -3 -56 -3q-190 0 -299 91t-109 282v449h-279v-804h-375v804h-159z" />
    <glyph glyph-name="Wgrave" unicode="&#x1e80;" horiz-adv-x="1991" 
d="M825 0h-466l-355 1358h400l210 -892l222 873h320l221 -873l210 892h400l-355 -1358h-466l-170 582zM829 1473l-287 334h432l167 -334h-312z" />
    <glyph glyph-name="wgrave" unicode="&#x1e81;" horiz-adv-x="1612" 
d="M286 0l-273 960h377l135 -565l158 541h246l157 -541l136 565h377l-273 -960h-407l-114 380l-112 -380h-407zM958 1121h-312l-287 334h432z" />
    <glyph glyph-name="Wacute" unicode="&#x1e82;" horiz-adv-x="1991" 
d="M825 0h-466l-355 1358h400l210 -892l222 873h320l221 -873l210 892h400l-355 -1358h-466l-170 582zM1454 1807l-287 -334h-312l167 334h432z" />
    <glyph glyph-name="wacute" unicode="&#x1e83;" horiz-adv-x="1612" 
d="M693 0h-407l-273 960h377l135 -565l158 541h246l157 -541l136 565h377l-273 -960h-407l-114 380zM1287 1447l-287 -334h-312l167 334h432z" />
    <glyph glyph-name="Wdieresis" unicode="&#x1e84;" horiz-adv-x="1991" 
d="M825 0h-466l-355 1358h400l210 -892l222 873h320l221 -873l210 892h400l-355 -1358h-466l-170 582zM1190 1484q-73 0 -119.5 46t-46.5 120q0 75 46.5 121.5t119.5 46.5q75 0 122 -47t47 -121t-47 -120t-122 -46zM921 1530q-46 -46 -121 -46q-74 0 -120 46q-47 47 -47 120
q0 75 46.5 121.5t120.5 46.5t121 -47t47 -121q0 -73 -47 -120z" />
    <glyph glyph-name="wdieresis" unicode="&#x1e85;" horiz-adv-x="1612" 
d="M286 0l-273 960h377l135 -565l158 541h246l157 -541l136 565h377l-273 -960h-407l-114 380l-112 -380h-407zM834 1313q0 75 46.5 121.5t119.5 46.5q75 0 122 -47t47 -121t-47 -120t-122 -46q-73 0 -119.5 46t-46.5 120zM731 1193q-46 -46 -121 -46q-74 0 -120 46
q-47 47 -47 120q0 75 46.5 121.5t120.5 46.5t121 -47t47 -121q0 -73 -47 -120z" />
    <glyph glyph-name="Germandbls" unicode="&#x1e9e;" horiz-adv-x="1472" 
d="M519 790v-790h-385v822q-3 154 78 282.5t226.5 202t321.5 71.5q102 0 199.5 -26.5t170.5 -70.5q135 -82 198 -170v-161l-272 -198q158 -14 258 -114t100 -262q0 -170 -128 -283q-130 -113 -321 -113q-251 0 -393 157l223 226q49 -60 125 -60q49 0 81.5 31.5t32.5 79.5
q0 55 -45 86.5t-121 31.5h-208v221l299 233q-68 65 -197 65q-106 0 -174 -74q-69 -73 -69 -187z" />
    <glyph glyph-name="uni1EA0" unicode="&#x1ea0;" horiz-adv-x="1487" 
d="M498 227l-88 -227h-426l522 1358h476l521 -1358h-426l-88 227h-491zM741 -481q-81 0 -139 58q-59 59 -59 136q0 83 60 141q59 59 138 59q83 0 143 -61q60 -60 60 -139q0 -82 -62 -138t-141 -56zM744 982l-156 -454h311z" />
    <glyph glyph-name="uni1EA1" unicode="&#x1ea1;" horiz-adv-x="1119" 
d="M253 573l-191 219q60 68 182 128q121 60 263 60q219 0 356 -103q143 -108 143 -343v-534h-354v98q-37 -58 -110 -88q-72 -30 -149 -30q-146 0 -236 81q-91 81 -91 208q0 94 60 163q58 68 147 99q87 30 187 30q93 0 165 -19v3q0 55 -41 89t-112 34q-116 0 -219 -95z
M567 -481q-81 0 -139 58q-59 59 -59 136q0 83 60 141q59 59 138 59q83 0 143 -61q60 -60 60 -139q0 -82 -62 -138t-141 -56zM417 291q0 -29 23.5 -46.5t59.5 -17.5q55 0 90 34t35 86q-41 16 -97 16q-49 0 -80 -19.5t-31 -52.5z" />
    <glyph glyph-name="uni1EB8" unicode="&#x1eb8;" horiz-adv-x="1213" 
d="M1152 0h-1002v1358h992v-320h-594v-188h521v-319h-521v-212h604v-319zM464 -287q0 83 60 141q59 59 138 59q82 0 143 -61q60 -60 60 -139q0 -82 -62 -138t-141 -56q-81 0 -139 58q-59 59 -59 136z" />
    <glyph glyph-name="uni1EB9" unicode="&#x1eb9;" horiz-adv-x="1092" 
d="M576 -20q-228 0 -374 141q-146 140 -146 361q-3 138 60.5 253t179 181t258.5 64q127 3 238 -54.5t178 -162.5t65 -232q0 -59 -15 -123h-605q8 -64 58 -98t124 -34q124 0 199 102l223 -201q-40 -63 -151 -126q-126 -71 -292 -71zM574 -481q-81 0 -139 58q-59 59 -59 136
q0 83 60 141q59 59 138 59q82 0 143 -61q60 -60 60 -139q0 -82 -62 -138t-141 -56zM555 700q-55 0 -95 -35q-40 -34 -45 -83h271q0 47 -38 83q-38 35 -93 35z" />
    <glyph glyph-name="uni1EBC" unicode="&#x1ebc;" horiz-adv-x="1213" 
d="M1152 0h-1002v1358h992v-320h-594v-188h521v-319h-521v-212h604v-319zM394 1465l-140 127q114 230 288 230q74 0 144 -46t112 -46q60 0 129 77l137 -117q-37 -75 -90 -129t-106 -76q-48 -22 -99 -22q-36 -1 -85 22t-93.5 46t-71.5 21q-61 0 -125 -87z" />
    <glyph glyph-name="uni1EBD" unicode="&#x1ebd;" horiz-adv-x="1092" 
d="M56 482q-3 138 60.5 253t179 181t258.5 64q127 3 238 -54.5t178 -162.5t65 -232q0 -59 -15 -123h-605q8 -64 58 -98t124 -34q124 0 199 102l223 -201q-40 -63 -151 -126q-126 -71 -292 -71q-228 0 -374 141q-146 140 -146 361zM281 1105l-140 127q114 230 288 230
q74 0 144 -46t112 -46q60 0 129 77l137 -117q-37 -75 -90 -129t-106 -76q-48 -22 -99 -22q-36 -1 -85 22t-93.5 46t-71.5 21q-60 0 -125 -87zM415 582h271q0 47 -38 83q-38 35 -93 35t-95 -35q-40 -34 -45 -83z" />
    <glyph glyph-name="uni1ECA" unicode="&#x1eca;" horiz-adv-x="699" 
d="M150 0v1358h399v-1358h-399zM149 -287q0 83 60 141q59 59 138 59q83 0 143 -61q60 -60 60 -139q0 -82 -62 -138t-141 -56q-81 0 -139 58q-59 59 -59 136z" />
    <glyph glyph-name="uni1ECB" unicode="&#x1ecb;" horiz-adv-x="636" 
d="M126 0v960h384v-960h-384zM316 1119q-94 0 -152 58t-58 152q0 96 58 154q59 59 152 59q95 0 154 -59t59 -154q0 -93 -59 -152q-58 -58 -154 -58zM315 -481q-81 0 -139 58q-59 59 -59 136q0 83 60 141q59 59 138 59q83 0 143 -61q60 -60 60 -139q0 -82 -62 -138t-141 -56z
" />
    <glyph glyph-name="uni1ECC" unicode="&#x1ecc;" horiz-adv-x="1560" 
d="M783 -20q-154 0 -287.5 51.5t-230.5 144.5q-96 93 -149.5 223.5t-53.5 281.5q-3 199 90.5 360t260 250.5t370.5 86.5q153 0 286 -51t228 -143q95 -93 148 -223.5t53 -280.5q0 -151 -53 -281.5t-148 -223.5q-95 -92 -228.5 -143.5t-285.5 -51.5zM467 680q0 -155 88 -249
q88 -96 230 -96q139 0 224 96q85 94 85 249q0 152 -85 246t-224 94q-142 0 -230 -94t-88 -246zM580 -287q0 83 60 141q59 59 138 59q82 0 143 -61q60 -60 60 -139q0 -82 -62 -138t-141 -56q-81 0 -139 58q-59 59 -59 136z" />
    <glyph glyph-name="uni1ECD" unicode="&#x1ecd;" horiz-adv-x="1168" 
d="M967 119q-146 -139 -383 -139t-382 139q-147 138 -147 361q0 222 147 362q146 138 382 138t383 -138q146 -140 146 -362q0 -223 -146 -361zM384 -287q0 83 60 141q59 59 138 59q82 0 143 -61q60 -60 60 -139q0 -82 -62 -138t-141 -56q-81 0 -139 58q-59 59 -59 136z
M704 610q-46 49 -120 49t-120 -49t-46 -130t46 -130q47 -50 120 -50t120 50q46 49 46 130t-46 130z" />
    <glyph glyph-name="uni1EE4" unicode="&#x1ee4;" horiz-adv-x="1451" 
d="M135 497v861h399v-832q0 -99 52.5 -152.5t138.5 -53.5t139 54t53 152v832h399v-861q0 -129 -43.5 -228.5t-122.5 -162t-186 -94.5t-239 -32q-367 0 -514 228q-76 118 -76 289zM525 -287q0 83 60 141q59 59 138 59q83 0 143 -61q60 -60 60 -139q0 -82 -62 -138t-141 -56
q-81 0 -139 58q-59 59 -59 136z" />
    <glyph glyph-name="uni1EE5" unicode="&#x1ee5;" horiz-adv-x="1240" 
d="M113 316v644h384v-530q0 -51 32.5 -83t84.5 -32t84 32t32 83v530h384v-960h-350l-9 92q-43 -52 -121.5 -82t-176.5 -30q-153 0 -248 93q-96 93 -96 243zM652 -481q-81 0 -139 58q-59 59 -59 136q0 83 60 141q59 59 138 59q82 0 143 -61q60 -60 60 -139q0 -82 -62 -138
t-141 -56z" />
    <glyph glyph-name="Ygrave" unicode="&#x1ef2;" horiz-adv-x="1430" 
d="M518 0v510l-529 848h472l261 -515l265 515h454l-525 -848v-510h-398zM885 1473h-312l-287 334h432z" />
    <glyph glyph-name="ygrave" unicode="&#x1ef3;" horiz-adv-x="1153" 
d="M400 10l-402 950h398l181 -572l180 572h398l-428 -1078q-61 -155 -164.5 -228.5t-264.5 -73.5q-146 0 -243 54l54 281q60 -29 118 -29q66 0 109 28.5t64 95.5zM419 1121l-287 334h432l167 -334h-312z" />
    <glyph glyph-name="uni1EF8" unicode="&#x1ef8;" horiz-adv-x="1430" 
d="M518 510l-529 848h472l261 -515l265 515h454l-525 -848v-510h-398v510zM450 1465l-140 127q114 230 288 230q74 0 144 -46t112 -46q60 0 129 77l137 -117q-37 -75 -90 -129t-106 -76q-48 -22 -99 -22q-36 -1 -85 22t-93.5 46t-71.5 21q-61 0 -125 -87z" />
    <glyph glyph-name="uni1EF9" unicode="&#x1ef9;" horiz-adv-x="1153" 
d="M400 10l-402 950h398l181 -572l180 572h398l-428 -1078q-61 -155 -164.5 -228.5t-264.5 -73.5q-146 0 -243 54l54 281q60 -29 118 -29q66 0 109 28.5t64 95.5zM312 1105l-140 127q114 230 288 230q74 0 144 -46t112 -46q60 0 129 77l137 -117q-37 -75 -90 -129t-106 -76
q-48 -22 -99 -22q-36 -1 -85 22t-93.5 46t-71.5 21q-61 0 -125 -87z" />
    <glyph glyph-name="uni2000" unicode="&#x2000;" horiz-adv-x="1148" 
 />
    <glyph glyph-name="uni2001" unicode="&#x2001;" horiz-adv-x="2296" 
 />
    <glyph glyph-name="uni2002" unicode="&#x2002;" horiz-adv-x="1148" 
 />
    <glyph glyph-name="uni2003" unicode="&#x2003;" horiz-adv-x="2296" 
 />
    <glyph glyph-name="uni2004" unicode="&#x2004;" horiz-adv-x="765" 
 />
    <glyph glyph-name="uni2005" unicode="&#x2005;" horiz-adv-x="574" 
 />
    <glyph glyph-name="uni2006" unicode="&#x2006;" horiz-adv-x="382" 
 />
    <glyph glyph-name="uni2007" unicode="&#x2007;" horiz-adv-x="382" 
 />
    <glyph glyph-name="uni2008" unicode="&#x2008;" horiz-adv-x="287" 
 />
    <glyph glyph-name="uni2009" unicode="&#x2009;" horiz-adv-x="459" 
 />
    <glyph glyph-name="uni200A" unicode="&#x200a;" horiz-adv-x="127" 
 />
    <glyph glyph-name="uni2010" unicode="&#x2010;" horiz-adv-x="965" 
d="M100 668h765v-274h-765v274z" />
    <glyph glyph-name="uni2011" unicode="&#x2011;" horiz-adv-x="965" 
d="M100 668h765v-274h-765v274z" />
    <glyph glyph-name="figuredash" unicode="&#x2012;" horiz-adv-x="965" 
d="M100 668h765v-274h-765v274z" />
    <glyph glyph-name="endash" unicode="&#x2013;" horiz-adv-x="1243" 
d="M100 668h1043v-274h-1043v274z" />
    <glyph glyph-name="emdash" unicode="&#x2014;" horiz-adv-x="2258" 
d="M100 668h2058v-274h-2058v274z" />
    <glyph glyph-name="quoteleft" unicode="&#x2018;" horiz-adv-x="571" 
d="M539 1428l-137 -516h-352l198 516h291z" />
    <glyph glyph-name="quoteright" unicode="&#x2019;" horiz-adv-x="563" 
d="M58 912l137 516h352l-198 -516h-291z" />
    <glyph glyph-name="quotesinglbase" unicode="&#x201a;" horiz-adv-x="557" 
d="M-11 -284l137 516h352l-198 -516h-291z" />
    <glyph glyph-name="quotedblleft" unicode="&#x201c;" horiz-adv-x="1021" 
d="M852 912h-352l198 516h291zM539 1428l-137 -516h-352l198 516h291z" />
    <glyph glyph-name="quotedblright" unicode="&#x201d;" horiz-adv-x="1013" 
d="M799 912h-291l137 516h352zM349 912h-291l137 516h352z" />
    <glyph glyph-name="quotedblbase" unicode="&#x201e;" horiz-adv-x="1012" 
d="M730 -284h-291l137 516h352zM280 -284h-291l137 516h352z" />
    <glyph glyph-name="dagger" unicode="&#x2020;" horiz-adv-x="822" 
d="M42 1126v250h223v232h291v-232h225v-250h-225v-619h-291v619h-223z" />
    <glyph glyph-name="daggerdbl" unicode="&#x2021;" horiz-adv-x="893" 
d="M300 1194h-223v251h223v193h291v-193h225v-251h-225v-275h225v-251h-225v-191h-291v191h-223v251h223v275z" />
    <glyph glyph-name="bullet" unicode="&#x2022;" horiz-adv-x="852" 
d="M99 662q0 136 94 229q95 92 232 92q139 0 234 -92q95 -93 95 -229q0 -135 -95 -228t-234 -93q-137 0 -232 93q-94 93 -94 228z" />
    <glyph glyph-name="ellipsis" unicode="&#x2026;" horiz-adv-x="1588" 
d="M1175 37q-58 55 -58 139q0 83 58 140q57 57 142 57t143 -57t58 -140q0 -84 -58 -139q-58 -57 -143 -57t-142 57zM935 37q-59 -57 -143 -57q-85 0 -142 57q-58 55 -58 139q0 83 58 140q57 57 142 57q84 0 143 -57q58 -57 58 -140q0 -84 -58 -139zM128 37q-58 55 -58 139
q0 83 58 140q57 57 142 57q84 0 143 -57q58 -57 58 -140q0 -84 -58 -139q-59 -57 -143 -57q-85 0 -142 57z" />
    <glyph glyph-name="uni202F" unicode="&#x202f;" horiz-adv-x="459" 
 />
    <glyph glyph-name="perthousand" unicode="&#x2030;" horiz-adv-x="2587" 
d="M33 1000q0 164 105 271q105 106 271 106q167 0 273 -106t106 -271q0 -161 -106 -264q-106 -105 -273 -105q-165 0 -271 104q-105 103 -105 265zM1630 85q-106 -105 -273 -105q-165 0 -271 104q-105 103 -105 265q0 165 105 271t271 106q167 0 273 -106t106 -271
q0 -161 -106 -264zM2445 85q-107 -105 -273 -105q-165 0 -271 104q-105 103 -105 265q0 165 105 271t271 106q167 0 273 -106t106 -271q0 -161 -106 -264zM1364 1334l-732 -1334h-227v26l734 1332h225v-24zM2171 473q-50 0 -81.5 -34.5t-31.5 -88.5q0 -53 31.5 -87.5
t81.5 -34.5q51 0 83.5 34.5t32.5 87.5q0 54 -32.5 88.5t-83.5 34.5zM1243 350q0 -53 31.5 -87.5t81.5 -34.5q51 0 83.5 34.5t32.5 87.5q0 54 -32.5 88.5t-83.5 34.5q-50 0 -81.5 -34.5t-31.5 -88.5zM408 1124q-50 0 -81.5 -34.5t-31.5 -88.5q0 -53 31.5 -87.5t81.5 -34.5
q51 0 83.5 34.5t32.5 87.5q0 54 -32.5 88.5t-83.5 34.5z" />
    <glyph glyph-name="guilsinglleft" unicode="&#x2039;" horiz-adv-x="739" 
d="M674 84h-335l-272 395l272 394h335l-254 -394z" />
    <glyph glyph-name="guilsinglright" unicode="&#x203a;" horiz-adv-x="739" 
d="M672 478l-272 -394h-335l254 394l-254 395h335z" />
    <glyph glyph-name="fraction" unicode="&#x2044;" horiz-adv-x="388" 
d="M-56 0h-227v26l734 1332h225v-24z" />
    <glyph glyph-name="uni205F" unicode="&#x205f;" horiz-adv-x="574" 
 />
    <glyph glyph-name="uni2070" unicode="&#x2070;" horiz-adv-x="822" 
d="M80 947q0 90 21.5 167t64.5 136.5t113.5 93.5t161.5 34q119 0 202 -59.5t120.5 -154.5t36.5 -217q0 -263 -157 -374q-83 -59 -202 -59q-117 0 -200.5 57t-122.5 156q-38 96 -38 220zM441 1179q-61 0 -90 -68q-29 -69 -29 -164q0 -101 30 -167q28 -67 89 -67q60 0 88 67
q29 69 29 167q1 61 -10.5 111.5t-39 85t-67.5 35.5z" />
    <glyph glyph-name="uni2074" unicode="&#x2074;" horiz-adv-x="756" 
d="M396 724h-370v142l343 492h255v-453h111v-181h-111v-190h-228v190zM396 905v204l-142 -204h142z" />
    <glyph glyph-name="uni2075" unicode="&#x2075;" horiz-adv-x="701" 
d="M340 515q-64 0 -119.5 18t-90.5 46q-66 52 -88 97l-9 19l175 99q0 -1 4.5 -8t15.5 -20t24 -24q32 -28 76 -28q39 0 66.5 25.5t27.5 64.5q0 42 -28.5 70t-71.5 28q-60 0 -94 -49l-169 64l46 441h510v-198h-314l-11 -108q34 28 97 28q124 0 200 -76t76 -201
q0 -128 -89 -208t-234 -80z" />
    <glyph glyph-name="uni2076" unicode="&#x2076;" horiz-adv-x="781" 
d="M432 514q-164 0 -258 106q-95 107 -95 289q0 227 102 348t299 121q94 0 162 -27q61 -24 82 -42l11 -8l-78 -180q-67 51 -158 51q-70 0 -123 -41q-53 -43 -52 -111q19 31 64.5 51t98.5 20q119 0 198 -78q79 -79 79 -197q0 -139 -90 -220q-89 -82 -242 -82zM323 811
q0 -47 29 -75.5t74 -28.5q47 0 76 28.5t29 75.5t-29.5 77t-75.5 30q-43 0 -73 -31t-30 -76z" />
    <glyph glyph-name="uni2077" unicode="&#x2077;" horiz-adv-x="659" 
d="M63 1160v198h619v-158q-213 -331 -317 -666h-253q116 330 315 626h-364z" />
    <glyph glyph-name="uni2078" unicode="&#x2078;" horiz-adv-x="765" 
d="M402 514q-120 0 -219 56q-51 29 -81 81t-30 117q0 69 37 121.5t100 82.5q-124 52 -124 168q0 61 27.5 109.5t76.5 75.5q93 53 213 53q58 0 112 -13.5t101 -40.5t75.5 -74.5t28.5 -109.5q0 -115 -125 -168q65 -31 103.5 -83t38.5 -121q0 -67 -30.5 -119t-82.5 -80
q-101 -55 -221 -55zM312 786q0 -39 25.5 -63t63.5 -24q39 0 64.5 24t25.5 63q0 35 -26.5 59t-63.5 24t-63 -24t-26 -59zM401 1188q-30 0 -51 -19.5t-21 -46.5q0 -32 20 -53.5t52 -21.5t52.5 22t20.5 53q0 27 -21 46.5t-52 19.5z" />
    <glyph glyph-name="uni2079" unicode="&#x2079;" horiz-adv-x="780" 
d="M345 801q-118 0 -197 79q-80 78 -80 196q0 138 90 221q90 81 242 81q165 0 259 -106t94 -289q0 -227 -102 -348t-299 -121q-93 0 -161 27q-63 25 -83 42l-11 8l78 180q67 -51 158 -51q71 0 123 42q53 41 52 110q-19 -31 -64.5 -51t-98.5 -20zM406 1185q-47 0 -76 -28.5
t-29 -75.5t29.5 -77t75.5 -30q43 0 73 31t30 76q0 47 -29 75.5t-74 28.5z" />
    <glyph glyph-name="uni2080" unicode="&#x2080;" horiz-adv-x="822" 
d="M51 413q0 90 21.5 167t64.5 136.5t113.5 93.5t161.5 34q119 0 202 -59.5t120.5 -154.5t36.5 -217q0 -263 -157 -374q-81 -59 -202 -59q-117 0 -200.5 57t-122.5 156q-38 96 -38 220zM412 645q-61 0 -90 -68q-29 -69 -29 -164q0 -101 30 -167q28 -67 89 -67q60 0 88 67
q29 69 29 167q1 61 -10.5 111.5t-39 85t-67.5 35.5z" />
    <glyph glyph-name="uni2081" unicode="&#x2081;" horiz-adv-x="526" 
d="M429 0h-234v625h-186v199h420v-824z" />
    <glyph glyph-name="uni2082" unicode="&#x2082;" horiz-adv-x="725" 
d="M223 528l-184 113q31 88 121 146q89 57 196 57q142 0 227 -73q86 -74 86 -194q0 -81 -51 -154q-20 -30 -56 -66q-45 -44 -130 -110q-40 -31 -60 -48h303v-199h-607v85q0 76 46.5 141.5t139.5 140.5q110 88 135 116q39 43 39 79q0 33 -23.5 52.5t-57.5 19.5q-39 0 -72 -28
t-52 -78z" />
    <glyph glyph-name="uni2083" unicode="&#x2083;" horiz-adv-x="727" 
d="M342 -20q-101 0 -186 52q-87 54 -118 131l161 112q6 -10 23 -32q16 -19 28 -29q39 -33 88 -33q39 0 65 22t26 55q0 35 -20.5 56.5t-54.5 21.5h-120v160h120q28 0 49 23t21 52q0 31 -24 52.5t-59 21.5q-90 0 -138 -100l-161 110q37 84 123 136q88 53 187 53q142 0 230 -70
q87 -70 87 -184q0 -57 -34.5 -104.5t-90.5 -67.5q59 -19 95 -71t36 -115q0 -113 -92 -182q-91 -70 -241 -70z" />
    <glyph glyph-name="uni2084" unicode="&#x2084;" horiz-adv-x="758" 
d="M389 190h-370v142l343 492h255v-453h111v-181h-111v-190h-228v190zM389 371v204l-142 -204h142z" />
    <glyph glyph-name="uni2085" unicode="&#x2085;" horiz-adv-x="701" 
d="M335 -19q-64 0 -119.5 18t-90.5 46q-66 52 -88 97l-9 19l175 99q0 -1 4.5 -8t15.5 -20t24 -24q32 -28 76 -28q39 0 66.5 25.5t27.5 64.5q0 42 -28.5 70t-71.5 28q-60 0 -94 -49l-169 64l46 441h510v-198h-314l-11 -108q34 28 97 28q124 0 200 -76t76 -201
q0 -128 -89 -208t-234 -80z" />
    <glyph glyph-name="uni2086" unicode="&#x2086;" horiz-adv-x="782" 
d="M405 -20q-164 0 -258 106q-95 107 -95 289q0 227 102 348t299 121q94 0 162 -27q56 -22 83 -42l10 -8l-78 -180q-68 51 -158 51q-70 0 -123 -41q-53 -43 -52 -111q19 31 64.5 51t98.5 20q118 0 198 -78q79 -79 79 -197q0 -139 -90 -220q-89 -82 -242 -82zM296 277
q0 -47 29 -75.5t74 -28.5q47 0 76 28.5t29 75.5t-29.5 77t-75.5 30q-43 0 -73 -31t-30 -76z" />
    <glyph glyph-name="uni2087" unicode="&#x2087;" horiz-adv-x="660" 
d="M27 626v198h619v-158q-213 -331 -317 -666h-253q116 330 315 626h-364z" />
    <glyph glyph-name="uni2088" unicode="&#x2088;" horiz-adv-x="766" 
d="M381 -20q-123 0 -219 56q-51 29 -81 81t-30 117q0 69 37 121.5t100 82.5q-124 52 -124 168q0 61 27.5 109.5t76.5 75.5q93 53 213 53q58 0 112 -13.5t101 -40.5t75.5 -74.5t28.5 -109.5q0 -115 -125 -168q65 -31 103.5 -83t38.5 -121q0 -67 -30.5 -119t-82.5 -80
q-101 -55 -221 -55zM291 252q0 -39 25.5 -63t63.5 -24q39 0 64.5 24t25.5 63q0 35 -26.5 59t-63.5 24t-63 -24t-26 -59zM380 654q-30 0 -51 -19.5t-21 -46.5q0 -32 20 -53.5t52 -21.5t52.5 22t20.5 53q0 27 -21 46.5t-52 19.5z" />
    <glyph glyph-name="uni2089" unicode="&#x2089;" horiz-adv-x="782" 
d="M346 267q-118 0 -197 79q-80 78 -80 196q0 138 90 221q90 81 242 81q165 0 259 -106t94 -289q0 -227 -102 -348t-299 -121q-95 0 -161 28q-61 24 -84 41l-10 8l78 180q67 -51 158 -51q70 0 123 42q53 41 52 110q-19 -31 -64.5 -51t-98.5 -20zM407 651q-47 0 -76 -28.5
t-29 -75.5t29.5 -77t75.5 -30q43 0 73 31t30 76q0 47 -29 75.5t-74 28.5z" />
    <glyph glyph-name="Euro" unicode="&#x20ac;" horiz-adv-x="1473" 
d="M235 497h-165v130h152q-1 9 -1 43q0 8 2 64h-153v130h169q46 241 211 379q164 135 415 135q199 0 338 -87t195 -237l-347 -166q-27 80 -78.5 123t-120.5 43q-155 0 -204 -190h284v-130h-303q-1 -11 -1 -54q0 -42 1 -53h303v-130h-283q52 -190 217 -190q77 0 136 56
q57 54 86 135l324 -170q-66 -166 -206 -257t-341 -91q-259 0 -422 136q-165 136 -208 381z" />
    <glyph glyph-name="trademark" unicode="&#x2122;" horiz-adv-x="1335" 
d="M681 818h-85v590h99l210 -433l209 433h99v-590h-85v431l-193 -389h-61l-193 388v-430zM231 818v510h-197v80h479v-80h-197v-510h-85z" />
    <glyph glyph-name="estimated" unicode="&#x212e;" horiz-adv-x="1673" 
d="M859 -20q-215 0 -394 93q-180 94 -280 253q-102 160 -102 351q0 190 104 353q103 160 283 255q179 93 389 93q157 0 301 -57t248 -152q103 -96 165 -227q61 -129 61 -274v-23h-1257q-11 0 -11 -9v-359q0 -24 17 -47q185 -177 478 -177q150 0 279.5 51.5t219.5 147.5h113
q-105 -125 -265 -198q-162 -74 -349 -74zM366 1077v-351q0 -13 11 -13h966q6 0 6 13v358q0 23 -17 46q-86 84 -209.5 129.5t-261.5 45.5q-294 0 -475 -175q-20 -25 -20 -53z" />
    <glyph glyph-name="onethird" unicode="&#x2153;" horiz-adv-x="1681" 
d="M1317 -20q-101 0 -186 52q-87 54 -118 131l161 112q6 -10 23 -32q16 -19 28 -29q39 -33 88 -33q39 0 65 22t26 55q0 35 -20.5 56.5t-54.5 21.5h-120v160h120q28 0 49 23t21 52q0 31 -24 52.5t-59 21.5q-90 0 -138 -100l-161 110q37 84 123 136q88 53 187 53
q142 0 230 -70q87 -70 87 -184q0 -57 -34.5 -104.5t-90.5 -67.5q59 -19 95 -71t36 -115q0 -113 -92 -182q-91 -70 -241 -70zM334 0v26l734 1332h225v-24l-732 -1334h-227zM74 1155v199h420v-824h-234v625h-186z" />
    <glyph glyph-name="twothirds" unicode="&#x2154;" horiz-adv-x="1909" 
d="M275 1068l-184 113q31 88 121 146q89 57 196 57q142 0 227 -73q86 -74 86 -194q0 -81 -51 -154q-20 -30 -56 -66q-45 -44 -130 -110q-40 -31 -60 -48h303v-199h-607v85q0 76 46.5 141.5t139.5 140.5q110 88 135 116q39 43 39 79q0 33 -23.5 52.5t-57.5 19.5
q-39 0 -72 -28t-52 -78zM1559 -20q-101 0 -186 52q-87 54 -118 131l161 112q6 -10 23 -32q16 -19 28 -29q39 -33 88 -33q39 0 65 22t26 55q0 35 -20.5 56.5t-54.5 21.5h-120v160h120q28 0 49 23t21 52q0 31 -24 52.5t-59 21.5q-90 0 -138 -100l-161 110q37 84 123 136
q88 53 187 53q142 0 230 -70q87 -70 87 -184q0 -57 -34.5 -104.5t-90.5 -67.5q59 -19 95 -71t36 -115q0 -113 -92 -182q-91 -70 -241 -70zM564 0v26l734 1332h225v-24l-732 -1334h-227z" />
    <glyph glyph-name="minus" unicode="&#x2212;" horiz-adv-x="1173" 
d="M1086 840v-326h-999v326h999z" />
    <glyph glyph-name="uni2215" unicode="&#x2215;" horiz-adv-x="859" 
d="M180 0h-227v26l734 1332h225v-24z" />
    <glyph glyph-name="uni2219" unicode="&#x2219;" horiz-adv-x="611" 
d="M163 399q-58 55 -58 139q0 83 58 140q57 57 142 57t143 -57t58 -140q0 -84 -58 -139q-58 -57 -143 -57t-142 57z" />
    <glyph glyph-name="approxequal" unicode="&#x2248;" horiz-adv-x="1457" 
d="M259 203l-155 251q70 108 179 168q108 60 228 60q131 0 241 -61q108 -61 186 -61q80 0 140 23q58 22 124 81l170 -231q-76 -96 -186 -159q-109 -64 -236 -64q-19 0 -38.5 2.5t-34 5.5t-34.5 10t-31 10.5t-32 14l-28 14t-29.5 15.5t-26.5 14q-88 46 -183 46
q-137 0 -254 -139zM250 709l-165 241q193 208 425 208q68 0 134.5 -18t109.5 -43q104 -61 185 -61q113 0 222 106l156 -239q-95 -113 -181 -160t-184 -47q-107 0 -223 66t-215 66q-56 0 -110 -21t-84 -42q-36 -27 -70 -56z" />
    <glyph glyph-name="notequal" unicode="&#x2260;" horiz-adv-x="1293" 
d="M104 307v287h385l77 172h-462v286h590l192 429l179 -74l-160 -355h284v-286h-413l-77 -172h490v-287h-620l-187 -417l-172 79l151 338h-257z" />
    <glyph glyph-name="lessequal" unicode="&#x2264;" horiz-adv-x="1368" 
d="M587 768h639v-319h-1118v434l1093 526v-398zM96 274h1145v-312h-1145v312z" />
    <glyph glyph-name="greaterequal" unicode="&#x2265;" horiz-adv-x="1371" 
d="M1261 449h-1118v319h639l-614 243v398l1093 -526v-434zM1273 -38h-1145v312h1145v-312z" />
    <glyph glyph-name="uni25FC" unicode="&#x25fc;" horiz-adv-x="960" 
d="M0 0v960h960v-960h-960z" />
    <glyph glyph-name="foundryicon" horiz-adv-x="2383" 
d="M1715 655v-102h-81v349h66l8 -24l7 7q22 22 60 22q48 0 75.5 -35t27.5 -94q0 -60 -33 -96.5t-88 -36.5q-25 0 -42 10zM717 655v-102h-82v349h65l9 -24l8 7q19 22 58 22q48 0 75.5 -34.5t27.5 -94.5t-32.5 -96.5t-88.5 -36.5q-24 0 -40 10zM915 773q0 61 34 97.5t94 36.5
t94 -34.5t34 -94.5q0 -61 -35 -97t-96 -36q-57 0 -91 35t-34 93zM1427 665l-89 237h89l51 -173h3l41 173h88l-80 -257q-19 -54 -48.5 -78t-77.5 -24q-33 0 -60 13l9 59q30 -6 46 -6q31 0 37 29zM2041 645q-59 0 -93.5 35t-34.5 93q0 61 34.5 97.5t93.5 36.5q47 0 74 -26
t27 -69q0 -31 -8 -52h-139q4 -49 55 -49q37 0 69 13l17 -58q-39 -21 -95 -21zM344 951h-103v71h295v-71h-112v-302h-80v302zM1119 951v71h283v-71h-101v-302h-81v302h-101zM571 649h-81v253h81v-253zM1042 849q-45 0 -45 -71q0 -75 46 -75q45 0 45 72q0 74 -46 74zM1905 314
q-23 0 -38.5 17t-15.5 45q-2 26 15.5 44t39.5 18t39 -17q25 -27 11 -69t-51 -38zM1193 314q-24 0 -39 17t-15 45q0 27 15.5 44.5t39.5 17.5q23 0 38.5 -17.5t15.5 -44.5t-15 -44.5t-40 -17.5zM1748 844q-20 0 -33 -12v-117q17 -9 33 -9q21 0 33.5 19t12.5 50q0 69 -46 69z
M717 832v-117q9 -9 30 -9q48 0 48 69t-46 69q-20 0 -32 -12zM1874 417q-21 -23 -9.5 -61.5t41.5 -34.5q19 0 31.5 14.5t12.5 38.5q0 26 -12.5 41.5t-32.5 15.5q-19 0 -31 -14zM1193 431q-19 0 -31.5 -15t-12.5 -39q0 -25 12.5 -40.5t32.5 -15.5q19 0 31.5 14.5t12.5 38.5
q0 26 -12.5 41.5t-32.5 15.5zM1047 316h-9v120h34q39 0 39 -35q0 -16 -11 -25.5t-29 -9.5h-24v-50zM1507 366v-50h-9v120h34q39 0 39 -35t-41 -35h-23zM324 316h-10l-39 120h9l35 -110l35 105h9l35 -105l35 110h10l-40 -120h-10l-34 104zM2008 316h-8v120h14l45 -93l45 93
h14v-120h-9v111l-46 -94h-8l-47 94v-111zM505 316l-39 120h9l35 -110l35 105h9l36 -105l34 110h10l-40 -120h-9l-35 104l-35 -104h-10zM706 316h-10l-39 120h9l35 -110l35 105h9l36 -105l35 110h9l-40 -120h-9l-35 104zM1995 803h70q4 21 -4 33.5t-26 12.5q-36 0 -40 -46z
M1507 430v-58h25q30 0 30 28q0 30 -32 30h-23zM1071 430h-24v-58h25q30 0 30 28q0 30 -31 30zM1796 314q-28 0 -44.5 17t-16.5 45q0 27 16 44.5t42 17.5q16 0 27 -7l-1 -24h-6l-1 21q-12 3 -19 3q-22 0 -35 -14t-13 -40q0 -56 53 -56q13 0 22 4l3 -6q-13 -5 -27 -5z
M1674 316h-67v120h65v-6h-57v-50h55v-7h-55v-51h59v-6zM1414 316v47l-42 73h10l37 -66l37 66h9l-42 -73v-47h-9zM1307 316v114h-37v6h83v-6h-37v-114h-9zM865 430v6h84v-6h-38v-114h-8v114h-38zM991 436v-120h-9v120h9zM1707 314q-7 0 -7 7t7 7t7 -7t-7 -7zM849 314
q-7 0 -7 7t7 7t7 -7t-7 -7z" />
    <glyph glyph-name="IJacute" horiz-adv-x="1727" 
d="M597 232l251 239q85 -142 213 -142q63 0 101 44t38 116v869h399v-902q0 -217 -140 -346q-139 -130 -381 -130q-318 0 -481 252zM549 1358v-1358h-399v1358h399zM1546 1473h-312l167 334h432zM789 1807l-287 -334h-312l167 334h432z" />
    <glyph glyph-name="i.TRK" horiz-adv-x="636" 
d="M510 960v-960h-384v960h384zM106 1329q0 96 58 154q59 59 152 59q95 0 154 -59t59 -154q0 -93 -59 -152q-58 -58 -154 -58q-94 0 -152 58t-58 152z" />
    <glyph glyph-name="ijacute" horiz-adv-x="1179" 
d="M420 -373l32 288q55 -23 119 -23q52 0 80.5 32t28.5 95v941h373v-978q0 -120 -49 -206.5t-130 -136.5q-97 -59 -213 -59q-145 0 -241 47zM510 960v-960h-384v960h384zM1022 1113h-312l167 334h432zM763 1447l-287 -334h-312l167 334h432z" />
    <glyph glyph-name="zero.slash" horiz-adv-x="1274" 
d="M948 1297l141 207l149 -97l-157 -232q146 -191 146 -505q0 -299 -142 -489q-71 -96 -186.5 -148.5t-261.5 -52.5q-180 0 -313 79l-139 -205l-149 97l154 228q-144 185 -144 491q0 299 141 499q71 100 187 155t263 55q181 0 311 -82zM450 561l297 439q-45 52 -110 52
q-50 0 -89 -31.5t-62 -86.5q-44 -107 -44 -254q0 -65 8 -119zM824 796l-297 -438q45 -51 110 -51q64 0 109.5 52.5t65.5 137.5q19 79 19 183q0 67 -7 116z" />
    <glyph glyph-name="Q.alt" horiz-adv-x="1560" 
d="M62 681q-3 199 90.5 360t260 250.5t370.5 86.5q153 0 286 -51t228 -143q95 -93 148 -223.5t53 -280.5q0 -197 -86 -354q-87 -156 -240 -246l269 -242l-223 -239l-416 381h-19q-154 0 -287.5 51.5t-230.5 144.5q-96 93 -149.5 223.5t-53.5 281.5zM785 1020
q-142 0 -230 -94t-88 -246q0 -155 88 -249q88 -96 230 -96q139 0 224 96q85 94 85 249q0 152 -85 246t-224 94z" />
    <glyph glyph-name="y.alt" horiz-adv-x="1227" 
d="M415 30l-416 930h418l204 -578l200 578h409l-570 -1363h-402z" />
    <glyph glyph-name="yacute.alt" horiz-adv-x="1227" 
d="M415 30l-416 930h418l204 -578l200 578h409l-570 -1363h-402zM1074 1447l-287 -334h-312l167 334h432z" />
    <glyph glyph-name="ycircumflex.alt" horiz-adv-x="1227" 
d="M415 30l-416 930h418l204 -578l200 578h409l-570 -1363h-402zM613 1245l-104 -160h-311l287 370h257l287 -370h-312z" />
    <glyph glyph-name="ydieresis.alt" horiz-adv-x="1227" 
d="M415 30l-416 930h418l204 -578l200 578h409l-570 -1363h-402zM808 1151q-73 0 -119.5 46t-46.5 120q0 75 46.5 121.5t119.5 46.5q75 0 122 -47t47 -121t-47 -120t-122 -46zM539 1197q-46 -46 -121 -46q-74 0 -120 46q-47 47 -47 120q0 75 46.5 121.5t120.5 46.5t121 -47
t47 -121q0 -73 -47 -120z" />
    <glyph glyph-name="ygrave.alt" horiz-adv-x="1227" 
d="M258 -403l157 433l-416 930h418l204 -578l200 578h409l-570 -1363h-402zM800 1121h-312l-287 334h432z" />
    <glyph glyph-name="ymacron.alt" horiz-adv-x="1227" 
d="M415 30l-416 930h418l204 -578l200 578h409l-570 -1363h-402zM909 1120h-591v234h591v-234z" />
    <glyph glyph-name="ytilde.alt" horiz-adv-x="1227" 
d="M415 30l-416 930h418l204 -578l200 578h409l-570 -1363h-402zM349 1105l-140 127q114 230 288 230q74 0 144 -46t112 -46q60 0 129 77l137 -117q-37 -75 -90 -129t-106 -76q-48 -22 -99 -22q-36 -1 -85 22t-93.5 46t-71.5 21q-60 0 -125 -87z" />
    <glyph glyph-name="zero.slash.tnum" 
d="M1028 1297l140 207l169 -97l-166 -245q136 -188 136 -492q0 -299 -142 -489q-71 -96 -186.5 -148.5t-261.5 -52.5q-172 0 -299 72l-134 -198l-169 97l155 228q-144 181 -144 491q0 299 141 499q71 100 187 155t263 55q180 0 311 -82zM529 562l298 438q-46 52 -110 52
q-50 0 -89 -31.5t-62 -86.5q-44 -107 -44 -254q0 -69 7 -118zM906 772l-288 -426q42 -39 99 -39q64 0 109.5 52.5t65.5 137.5q19 79 19 183q0 50 -5 92z" />
    <glyph glyph-name="zero.tnum" 
d="M162 399q-36 123 -36 271t36 274q77 275 291 379q117 56 264 56t264 -56q212 -104 291 -379q35 -128 35 -274q0 -148 -36 -271q-77 -266 -291 -366q-117 -53 -263 -53t-263 53q-214 100 -292 366zM807 1020q-39 32 -90 32t-90 -32q-38 -31 -61 -86q-44 -107 -44 -254
q0 -76 11 -141t34 -118t61.5 -83.5t88.5 -30.5q64 0 109.5 52.5t65.5 137.5q19 79 19 183q-4 254 -104 340z" />
    <glyph glyph-name="one.tnum" 
d="M1226 0h-979v327h308v701h-279v330h667v-1031h283v-327z" />
    <glyph glyph-name="two.tnum" 
d="M481 878l-293 131q42 138 169 248q65 57 159 89.5t199 32.5q233 0 378 -124q144 -125 144 -328q0 -90 -46 -182q-33 -66 -121 -154q-30 -30 -78 -69q-50 -40 -81 -63q-21 -16 -84 -61q-15 -11 -55 -42q-35 -29 -37 -31h510v-325h-1010v142q0 85 22 139q26 69 62 110
q11 13 46 50q28 27 59 52q56 45 66 53q9 7 79 61q23 16 63 48q112 85 156 141q44 55 44 121q0 60 -38.5 96t-103.5 36t-121.5 -47.5t-87.5 -123.5z" />
    <glyph glyph-name="three.tnum" 
d="M712 -19q-200 0 -343 107q-132 98 -184 231l284 152q82 -160 232 -160q64 0 103.5 32.5t39.5 83.5q0 58 -40.5 93t-107.5 35h-197v260h207q51 0 90 36q39 35 39 82q0 55 -38 87.5t-95 32.5q-140 0 -223 -156l-272 137q59 154 198 249q140 95 316 95q211 0 360 -103
q74 -52 115.5 -133.5t41.5 -180.5q0 -110 -69 -181q-60 -61 -131 -85q81 -28 145 -106q64 -79 64 -192q0 -186 -148 -301t-387 -115z" />
    <glyph glyph-name="four.tnum" 
d="M743 0v317h-597v237l551 804h426v-739h184v-302h-184v-317h-380zM743 955l-203 -336h203v336z" />
    <glyph glyph-name="five.tnum" 
d="M706 -19q-362 0 -511 332l297 156q76 -159 209 -159q66 0 111 46q45 45 45 112t-45 110t-117 43q-54 0 -99.5 -28t-71.5 -70l-272 119l77 716h849v-326h-523l-18 -172q65 41 181 41q188 0 314 -123t126 -317q0 -215 -152 -347q-152 -133 -400 -133z" />
    <glyph glyph-name="six.tnum" 
d="M749 -20q-174 0 -298.5 69t-192.5 190q-89 153 -89 364q0 378 177 576.5t511 198.5q115 0 202 -21q89 -24 172 -67l-89 -291q-134 72 -278 72q-123 2 -211.5 -67t-105.5 -206q35 54 111.5 87.5t177.5 33.5q212 0 340 -119t128 -317q0 -229 -151 -365q-151 -138 -404 -138
zM873 588q-52 47 -130 47t-130 -47q-51 -48 -51 -122t51 -121q52 -47 130 -47t130 47q51 47 51 121t-51 122z" />
    <glyph glyph-name="seven.tnum" 
d="M240 1032v326h1011v-263q-334 -531 -508 -1095h-419q222 625 502 1032h-586z" />
    <glyph glyph-name="eight.tnum" 
d="M1109 94q-151 -114 -392 -114q-240 0 -392 114q-151 112 -151 294q0 118 65 203q65 83 159 123q-84 28 -143 101q-58 71 -58 173q0 175 144 283q143 107 376 107q232 0 374 -107q141 -108 141 -283q0 -101 -58 -172q-58 -73 -146 -102q96 -38 164 -123q67 -83 67 -203
q0 -182 -150 -294zM563 412q0 -60 45 -98q44 -37 109 -37t109 37q45 38 45 98q0 64 -45 102q-44 37 -109 37t-109 -37q-45 -38 -45 -102zM592 964q0 -52 34 -87.5t91 -35.5q41 -2 72.5 21t44 56t6.5 69.5t-32 59.5q-34 33 -91 33q-55 0 -90 -33q-35 -35 -35 -83z" />
    <glyph glyph-name="nine.tnum" 
d="M545 441q-212 0 -340 119t-128 317q0 228 152 366q152 137 403 137q174 0 298.5 -69t192.5 -190q89 -153 89 -364q0 -378 -177 -576.5t-511 -198.5q-117 0 -201 22q-88 21 -173 66l89 291q133 -72 278 -72q123 -3 211.5 66.5t105.5 206.5q-35 -54 -111.5 -87.5
t-177.5 -33.5zM768 1015q-52 47 -130 47t-130 -47q-51 -46 -51 -121q0 -74 51 -121q51 -48 130 -48t130 48q51 47 51 121q0 75 -51 121z" />
    <glyph glyph-name="plus.tnum" 
d="M137 521v326h387v362h380v-362h391v-326h-391v-370h-380v370h-387z" />
    <glyph glyph-name="minus.tnum" 
d="M1215 840v-326h-999v326h999z" />
    <glyph glyph-name="plusminus.tnum" 
d="M526 431v307h-366v326h366v295h381v-295h365v-326h-365v-307h-381zM1268 291v-313h-1100v313h1100z" />
    <glyph glyph-name="equal.tnum" 
d="M1266 625v-330h-1101v330h1101zM165 736v329h1101v-329h-1101z" />
    <glyph glyph-name="notequal.tnum" 
d="M173 307v287h385l77 172h-462v286h590l192 429l179 -74l-160 -355h284v-286h-413l-77 -172h490v-287h-620l-187 -417l-172 79l151 338h-257z" />
    <glyph glyph-name="approxequal.tnum" 
d="M246 203l-155 251q70 108 179 168q108 60 228 60q131 0 241 -61q108 -61 186 -61q80 0 140 23q58 22 124 81l170 -231q-77 -96 -186 -159q-109 -64 -236 -64q-19 0 -38.5 2.5t-34 5.5t-34.5 10t-31 10.5t-32 14l-28 14t-29.5 15.5t-26.5 14q-88 46 -183 46
q-137 0 -254 -139zM237 709l-165 241q193 208 425 208q68 0 134.5 -18t109.5 -43q104 -61 185 -61q113 0 222 106l156 -239q-95 -113 -181 -160t-184 -47q-107 0 -223 66t-215 66q-56 0 -110 -21t-84 -42q-36 -27 -70 -56z" />
    <glyph glyph-name="multiply.tnum" 
d="M161 371l314 312q-86 86 -159 158q-146 144 -156 154l245 246l310 -306l310 306l246 -246l-317 -312l318 -312l-247 -245l-310 306l-310 -306z" />
    <glyph glyph-name="less.tnum" 
d="M1259 420v-370l-1086 492v277l1086 488v-371l-597 -255q17 -7 53 -23t98.5 -43t120.5 -52q162 -70 325 -143z" />
    <glyph glyph-name="greater.tnum" 
d="M1259 542l-1086 -492v370q63 27 326 143q59 26 120 52.5t98 42.5t53 23l-597 255v371l1086 -488v-277z" />
    <glyph glyph-name="lessequal.tnum" 
d="M634 768h639v-319h-1118v434l1093 526v-398zM143 274h1145v-312h-1145v312z" />
    <glyph glyph-name="greaterequal.tnum" 
d="M1276 449h-1118v319h639l-614 243v398l1093 -526v-434zM1288 -38h-1145v312h1145v-312z" />
    <glyph glyph-name="divide.tnum" 
d="M1269 821v-283h-1107v283h1107zM574 121q-58 55 -58 139q0 83 58 140q57 57 142 57q84 0 143 -57q58 -57 58 -140q0 -84 -58 -139q-59 -57 -143 -57q-85 0 -142 57zM859 960q-59 -57 -143 -57q-85 0 -142 57q-58 55 -58 139q0 83 58 140q57 57 142 57q84 0 143 -57
q58 -57 58 -140q0 -84 -58 -139z" />
    <glyph glyph-name="logicalnot.tnum" 
d="M1284 342h-386v332h-750v326h1136v-658z" />
    <glyph glyph-name="numbersign.tnum" 
d="M241 289h-208l48 273h210l46 249h-211l51 272h211l49 275h304l-46 -275h192l49 275h305l-48 -275h206l-48 -272h-210l-46 -249h210l-50 -273h-208l-51 -289h-306l51 289h-194l-50 -289h-306zM837 811h-195l-47 -249h195z" />
    <glyph glyph-name="dollar.tnum" 
d="M146 294l285 199q91 -134 228 -172v211q-67 21 -97 31q-42 14 -92 36q-94 39 -162 99q-107 91 -113 265q0 115 65 207q64 91 170 144q101 51 229 62v160h131v-162q287 -29 458 -294l-271 -188q-66 111 -187 146v-204q192 -55 300 -117q67 -38 107 -81q90 -95 90 -238
q0 -113 -58.5 -199t-158.5 -140q-121 -67 -280 -78v-157h-131v160q-168 16 -299.5 96t-213.5 214zM870 345q30 23 31 54t-25 52q-27 21 -86 40v-178q47 7 80 32zM659 877v166q-78 -20 -78 -79q0 -50 78 -87z" />
    <glyph glyph-name="Euro.tnum" 
d="M268 497h-165v130h152q-1 9 -1 43q0 8 2 64h-153v130h169q46 241 211 379q163 135 415 135q198 0 338 -87t195 -237l-347 -166q-27 80 -78.5 123t-120.5 43q-155 0 -204 -190h284v-130h-303q-1 -11 -1 -54q0 -42 1 -53h303v-130h-283q52 -190 217 -190q77 0 136 56
q57 54 86 135l324 -170q-66 -166 -206 -257t-341 -91q-259 0 -422 136q-165 136 -208 381z" />
    <glyph glyph-name="yen.tnum" 
d="M441 635l-451 723h472l261 -515l265 515h454l-448 -723h173v-130h-250v-107h250v-130h-250v-268h-398v268h-254v130h254v107h-254v130h176z" />
    <glyph glyph-name="sterling.tnum" 
d="M1251 318v-319h-1087v257q87 47 125 100.5t37 120.5l-1 131h-154v179h153l-1 107q-1 225 145 355q146 129 378 129q172 0 295.5 -80.5t186.5 -232.5l-274 -159q-70 157 -194 157q-72 0 -117 -47q-46 -46 -46 -120v-109h297v-179h-297v-92q0 -34 -1 -50t-5.5 -37.5
t-15.5 -45.5q-16 -37 -49 -65h625z" />
    <glyph glyph-name="currency.tnum" 
d="M317 887l-167 164l171 171l165 -165q107 62 229 62q124 0 233 -62l163 165l171 -171l-165 -164q61 -103 61 -225q0 -128 -66 -231l170 -170l-171 -171l-172 174q-107 -57 -224 -57t-220 57l-174 -174l-171 171l170 170q-63 107 -63 231q0 123 60 225zM555 662
q0 -65 47 -112q46 -46 113 -46q69 0 116 46q48 46 48 112q0 67 -48 115q-49 47 -116 47q-66 0 -113 -47q-47 -49 -47 -115z" />
    <glyph glyph-name="florin.tnum" 
d="M198 38l79 273q40 -25 103 -25q158 0 176 121l28 194h-146l43 298h145l13 87q27 179 161 286q133 106 330 106q60 0 124 -16q70 -18 107 -38l-87 -270q-52 32 -116 32q-67 0 -112.5 -32t-53.5 -85l-11 -70h258l-43 -298h-243l-33 -226q-27 -185 -156 -290
q-130 -105 -330 -105q-60 0 -128 18q-69 18 -108 40z" />
    <glyph glyph-name="cent.tnum" 
d="M227 678q0 198 128 337q128 138 332 159v167h131v-167q130 -13 229.5 -76t153.5 -170l-278 -190q-38 83 -105 107v-339q69 22 114 102l274 -192q-55 -100 -156 -161t-232 -74v-181h-131v181q-206 23 -332 161q-128 139 -128 336zM687 514v326q-45 -22 -71 -65t-26 -97
q0 -58 26 -100.5t71 -63.5z" />
    <glyph glyph-name="mu.tnum" 
d="M661 -19v-380h-368v1359h384v-530q0 -51 32.5 -83t84.5 -32t84 32t32 83v530h384v-960h-350l-9 92q-39 -49 -111 -78t-163 -33z" />
    <glyph glyph-name="pi.tnum" 
d="M61 802v327h1340v-164q-1 -73 -1 -163h-151v-404q0 -55 38 -79.5t100 -14.5v-314q-8 -4 -49 -7q-40 -3 -56 -3q-190 0 -299 91t-109 282v449h-279v-804h-375v804h-159z" />
    <glyph glyph-name="degree.tnum" 
d="M714 678q-158 0 -257 96t-99 250q0 158 99 255q100 98 257 98q160 0 261 -98q99 -97 99 -255q0 -154 -100 -250q-101 -96 -260 -96zM637 1108q-30 -32 -30 -83t30 -82q29 -32 76 -32q50 0 80.5 31.5t30.5 82.5t-31 83t-80 32q-47 0 -76 -32z" />
    <glyph glyph-name="ordmasculine.tnum" 
d="M383 1049q0 145 92 237q91 91 239 91q150 0 242 -91q92 -92 92 -237q0 -143 -92 -232q-94 -89 -242 -89q-147 0 -239 89t-92 232zM408 480v166h621v-166h-621zM713 1161q-46 0 -74.5 -31t-28.5 -80t28.5 -79.5t74.5 -30.5q48 0 77.5 30.5t29.5 79.5q0 50 -29.5 80.5
t-77.5 30.5z" />
    <glyph glyph-name="ordfeminine.tnum" 
d="M424 936q0 83 69 134t181 51q72 0 121 -21v6q0 37 -32.5 61t-85.5 24q-87 0 -149 -65l-96 146q41 46 109 76q72 32 148 32q141 0 223 -64t82 -174v-378h-189v56q-28 -31 -73 -49.5t-97 -18.5q-95 0 -153 51t-58 133zM999 492h-569v165h569v-165zM625 950q0 -21 16.5 -33
t43.5 -12q42 0 76 25t34 48q-31 21 -93 21q-36 0 -56.5 -13t-20.5 -36z" />
    <glyph glyph-name="zero.slash.onum" horiz-adv-x="1295" 
d="M68 -43l149 179q-162 153 -162 397q0 245 165 400q163 154 427 154q169 0 302 -67l156 188l121 -96l-149 -180q163 -154 163 -399q0 -246 -165 -399q-164 -154 -428 -154q-169 0 -303 68l-155 -187zM847 655l-282 -341q39 -13 82 -13q101 0 166 65q64 64 64 167
q0 67 -30 122zM446 414l282 339q-35 13 -81 13q-102 0 -165 -65q-64 -65 -64 -168q0 -67 28 -119z" />
    <glyph glyph-name="zero.onum" horiz-adv-x="1349" 
d="M1102 134q-164 -154 -428 -154t-427 154q-165 153 -165 399q0 245 165 400q163 154 427 154q263 0 428 -153q165 -154 165 -401q0 -246 -165 -399zM509 701q-64 -65 -64 -168t64 -167q63 -65 165 -65q101 0 166 65q64 64 64 167t-64 168q-65 65 -166 65q-102 0 -165 -65z
" />
    <glyph glyph-name="one.onum" horiz-adv-x="1084" 
d="M64 0v318h327v431h-289v318h677v-749h283v-318h-998z" />
    <glyph glyph-name="two.onum" horiz-adv-x="1152" 
d="M345 624l-282 158q67 141 199 223q133 83 291 83q228 0 367 -102q138 -102 138 -270q0 -229 -349 -391h380v-324h-994v263l-1 3l366 214q105 61 154 107q45 44 45 95q0 37 -30.5 60.5t-79.5 23.5q-66 0 -119.5 -39t-84.5 -104z" />
    <glyph glyph-name="three.onum" horiz-adv-x="1199" 
d="M582 -309q-200 0 -343 107q-132 98 -184 231l284 152q82 -160 232 -160q64 0 103.5 32.5t39.5 83.5q0 58 -40.5 93t-107.5 35h-197v260h207q51 0 90 36q39 35 39 82q0 55 -38 87.5t-95 32.5q-140 0 -223 -156l-272 137q59 154 198 249q140 95 316 95q211 0 360 -103
q74 -52 115.5 -133.5t41.5 -180.5q0 -110 -69 -181q-60 -61 -131 -85q81 -28 145 -106q64 -79 64 -192q0 -186 -148 -301t-387 -115z" />
    <glyph glyph-name="four.onum" horiz-adv-x="1240" 
d="M634 -291v317h-597v237l551 804h426v-739h184v-302h-184v-317h-380zM634 664l-203 -336h203v336z" />
    <glyph glyph-name="five.onum" horiz-adv-x="1155" 
d="M547 -310q-362 0 -511 332l297 156q76 -159 209 -159q66 0 111 46q45 45 45 112t-45 110t-117 43q-54 0 -99.5 -28t-71.5 -70l-272 119l77 716h849v-326h-523l-18 -172q65 41 181 41q188 0 314 -123t126 -317q0 -214 -152 -348q-153 -132 -400 -132z" />
    <glyph glyph-name="six.onum" horiz-adv-x="1275" 
d="M662 -20q-174 0 -298.5 69t-192.5 190q-89 153 -89 364q0 378 177 576.5t511 198.5q115 0 202 -21q89 -24 172 -67l-89 -291q-134 72 -278 72q-123 2 -211.5 -67t-105.5 -206q35 54 111.5 87.5t177.5 33.5q212 0 340 -119t128 -317q0 -229 -151 -365q-152 -138 -404 -138
zM786 588q-52 47 -130 47t-130 -47q-51 -48 -51 -122t51 -121q52 -47 130 -47t130 47q51 47 51 121t-51 122z" />
    <glyph glyph-name="seven.onum" horiz-adv-x="1055" 
d="M28 741v326h1011v-263q-334 -531 -508 -1095h-419q222 625 502 1032h-586z" />
    <glyph glyph-name="eight.onum" horiz-adv-x="1240" 
d="M1012 94q-152 -114 -392 -114t-392 114q-151 112 -151 294q0 118 65 203q64 83 159 123q-84 28 -143 101q-58 71 -58 173q0 175 144 283q143 107 376 107q232 0 374 -107q141 -108 141 -283q0 -101 -58 -172q-58 -73 -146 -102q96 -38 164 -123q67 -83 67 -203
q0 -182 -150 -294zM466 412q0 -60 45 -98q44 -37 109 -37t109 37q45 38 45 98q0 64 -45 102q-44 37 -109 37t-109 -37q-45 -38 -45 -102zM495 964q0 -52 34 -87.5t91 -35.5q41 -2 72.5 21t44 56t6.5 69.5t-32 59.5q-35 33 -91 33t-90 -33q-35 -35 -35 -83z" />
    <glyph glyph-name="nine.onum" horiz-adv-x="1273" 
d="M576 151q-212 0 -340 119t-128 317q0 228 152 366q152 137 403 137q174 0 298.5 -69t192.5 -190q89 -153 89 -364q0 -378 -177 -576.5t-511 -198.5q-115 0 -201 21q-90 23 -173 67l89 291q134 -72 278 -72q123 -3 211.5 66.5t105.5 206.5q-35 -54 -111.5 -87.5
t-177.5 -33.5zM799 725q-52 47 -130 47t-130 -47q-51 -47 -51 -121t51 -121q51 -48 130 -48t130 48q51 47 51 121t-51 121z" />
    <glyph glyph-name="plus.onum" horiz-adv-x="1296" 
d="M69 373v326h387v362h380v-362h391v-326h-391v-370h-380v370h-387z" />
    <glyph glyph-name="minus.onum" horiz-adv-x="1171" 
d="M1085 692v-326h-999v326h999z" />
    <glyph glyph-name="plusminus.onum" horiz-adv-x="1283" 
d="M451 283v307h-366v326h366v295h381v-295h365v-326h-365v-307h-381zM1193 143v-313h-1100v313h1100z" />
    <glyph glyph-name="equal.onum" horiz-adv-x="1329" 
d="M1215 477v-330h-1101v330h1101zM114 588v329h1101v-329h-1101z" />
    <glyph glyph-name="notequal.onum" horiz-adv-x="1289" 
d="M95 159v287h385l77 172h-462v286h590l192 429l179 -74l-160 -355h284v-286h-413l-77 -172h490v-287h-620l-187 -417l-172 79l151 338h-257z" />
    <glyph glyph-name="approxequal.onum" horiz-adv-x="1475" 
d="M268 55l-155 251q70 108 179 168q108 60 228 60q131 0 241 -61q108 -61 186 -61q80 0 140 23q58 22 124 81l170 -231q-77 -96 -186 -159q-109 -64 -236 -64q-19 0 -38.5 2.5t-34 5.5t-34.5 10t-31 10.5t-32 14l-28 14t-29.5 15.5t-26.5 14q-88 46 -183 46
q-137 0 -254 -139zM259 561l-165 241q193 208 425 208q68 0 134.5 -18t109.5 -43q104 -61 185 -61q113 0 222 106l156 -239q-95 -113 -181 -160t-184 -47q-107 0 -223 66t-215 66q-56 0 -110 -21t-84 -42q-36 -27 -70 -56z" />
    <glyph glyph-name="multiply.onum" horiz-adv-x="1228" 
d="M59 223l314 312q-86 86 -159 158q-146 144 -156 154l245 246l310 -306l310 306l246 -246l-317 -312l318 -312l-247 -245l-310 306l-310 -306z" />
    <glyph glyph-name="less.onum" horiz-adv-x="1258" 
d="M1156 272v-370l-1086 492v277l1086 488v-371l-597 -255q17 -7 53 -23t98.5 -43t120.5 -52q162 -70 325 -143z" />
    <glyph glyph-name="greater.onum" horiz-adv-x="1258" 
d="M1188 394l-1086 -492v370q133 60 326 143q59 26 120 52.5t98 42.5t53 23l-597 255v371l1086 -488v-277z" />
    <glyph glyph-name="lessequal.onum" horiz-adv-x="1377" 
d="M588 620h639v-319h-1118v434l1093 526v-398zM97 126h1145v-312h-1145v312z" />
    <glyph glyph-name="greaterequal.onum" horiz-adv-x="1379" 
d="M1268 301h-1118v319h639l-614 243v398l1093 -526v-434zM1280 -186h-1145v312h1145v-312z" />
    <glyph glyph-name="divide.onum" horiz-adv-x="1279" 
d="M1193 673v-283h-1107v283h1107zM498 -28q-58 57 -58 140t58 140q57 57 142 57q84 0 143 -57q58 -57 58 -140t-58 -140q-59 -56 -143 -56t-142 56zM783 812q-59 -57 -143 -57q-85 0 -142 57q-58 55 -58 139q0 83 58 140q57 57 142 57q84 0 143 -57q58 -57 58 -140
q0 -84 -58 -139z" />
    <glyph glyph-name="logicalnot.onum" horiz-adv-x="1330" 
d="M1210 194h-386v332h-750v326h1136v-658z" />
    <glyph glyph-name="numbersign.onum" horiz-adv-x="1347" 
d="M260 220h-204l44 237h203l32 177h-203l44 237h201l36 196h267l-36 -196h163l36 196h267l-36 -196h220l-44 -237h-218l-32 -177h218l-44 -237h-217l-40 -220h-267l40 220h-163l-40 -220h-267zM602 634l-32 -177h163l32 177h-163z" />
    <glyph glyph-name="dollar.onum" horiz-adv-x="1105" 
d="M79 251l237 167q77 -112 198 -140v122q-92 23 -159 50q-79 31 -137 81q-95 77 -95 220q0 141 111 232q110 90 270 104v146h121v-148q263 -30 380 -254l-230 -164q-65 95 -160 123v-121q146 -41 242 -94q55 -31 86 -64q71 -76 71 -191q0 -74 -32 -136.5t-89 -104.5
q-113 -84 -268 -98v-162h-121v163q-145 13 -255 81.5t-170 187.5zM675 322q0 26 -60 48v-96q60 10 60 48zM514 701v92q-51 -11 -51 -42q0 -29 51 -50z" />
    <glyph glyph-name="Euro.onum" horiz-adv-x="1227" 
d="M520 505h270v-108h-256q37 -142 158 -142q66 0 108 48q42 47 59 106l288 -134q-63 -144 -178.5 -219.5t-278.5 -75.5q-204 0 -334 110q-130 109 -163 307h-113v108h103v22q0 35 1 44h-104v108h117q38 194 166 303q129 108 327 108q160 0 279 -77q116 -76 166 -215
l-286 -137q-49 154 -162 154q-114 0 -151 -136h254v-108h-270q-1 -8 -1 -37q0 -23 1 -29z" />
    <glyph glyph-name="yen.onum" horiz-adv-x="1347" 
d="M415 504l-387 563h384l261 -408l262 408h384l-387 -563h133v-115h-212v-86h200v-115h-200v-188h-359v188h-200v115h200v86h-211v115h132z" />
    <glyph glyph-name="sterling.onum" horiz-adv-x="1092" 
d="M216 379v64h-126v171h124v80q0 184 117 289q116 104 303 104q77 0 143.5 -22.5t107 -52.5t74 -71.5t47 -67t24.5 -51.5l5 -15l-242 -134q-2 13 -19 43q-14 21 -28 37q-41 43 -101 43q-47 0 -75.5 -28t-28.5 -74v-80h224v-171h-224v-34q0 -85 -57 -131h476v-278h-860v223
q63 36 89.5 73t26.5 83z" />
    <glyph glyph-name="currency.onum" horiz-adv-x="1272" 
d="M237 739l-167 164l171 171l165 -165q107 62 229 62q124 0 233 -62l163 165l171 -171l-165 -164q61 -103 61 -225q0 -128 -66 -231l170 -170l-171 -171l-172 174q-107 -57 -224 -57t-220 57l-174 -174l-171 171l170 170q-63 107 -63 231q0 123 60 225zM475 514
q0 -65 47 -112q46 -46 113 -46q69 0 116 46q48 46 48 112q0 67 -48 115q-49 47 -116 47q-66 0 -113 -47q-47 -49 -47 -115z" />
    <glyph glyph-name="florin.onum" horiz-adv-x="1233" 
d="M28 -101l79 273q40 -25 103 -25q158 0 176 121l28 194h-146l43 298h145l13 87q27 179 161 286q133 106 330 106q60 0 124 -16q70 -18 107 -38l-87 -270q-52 32 -116 32q-67 0 -112.5 -32t-53.5 -85l-11 -70h258l-43 -298h-243l-33 -226q-27 -185 -156 -290
q-130 -105 -330 -105q-60 0 -128 18q-69 18 -108 40z" />
    <glyph glyph-name="cent.onum" horiz-adv-x="1139" 
d="M546 -200v182q-204 23 -330 161q-127 137 -127 335q0 199 127 336q126 136 330 159v168h131v-167q132 -12 231.5 -75.5t154.5 -170.5l-278 -190q-40 84 -108 109v-342q72 23 117 103l274 -192q-55 -100 -157 -161.5t-234 -73.5v-181h-131zM452 478q0 -57 25 -99.5
t69 -63.5v323q-43 -22 -68.5 -64.5t-25.5 -95.5z" />
    <glyph glyph-name="mu.onum" horiz-adv-x="1283" 
d="M509 -19v-380h-368v1359h384v-530q0 -51 32.5 -83t84.5 -32t84 32t32 83v530h384v-960h-350l-9 92q-39 -49 -111 -78t-163 -33z" />
    <glyph glyph-name="pi.onum" horiz-adv-x="1434" 
d="M26 802v327h1340v-164q-1 -73 -1 -163h-151v-404q0 -55 38 -79.5t100 -14.5v-314q-8 -4 -49 -7t-56 -3q-190 0 -299 91t-109 282v449h-279v-804h-375v804h-159z" />
    <glyph glyph-name="degree.onum" horiz-adv-x="880" 
d="M438 479q-158 0 -257 96t-99 250q0 157 99 255q100 98 257 98q160 0 261 -98q99 -98 99 -255q0 -154 -100 -250t-260 -96zM361 909q-30 -31 -30 -83q0 -50 30 -82q29 -32 76 -32q50 0 80.5 31.5t30.5 82.5t-31 83t-80 32q-47 0 -76 -32z" />
    <glyph glyph-name="ordmasculine.onum" horiz-adv-x="895" 
d="M115 850q0 145 92 237q91 91 239 91q150 0 242 -91q92 -92 92 -237q0 -143 -92 -232q-94 -89 -242 -89q-147 0 -239 89t-92 232zM140 281v166h621v-166h-621zM445 962q-46 0 -74.5 -31t-28.5 -80t28.5 -79.5t74.5 -30.5q48 0 77.5 30.5t29.5 79.5q0 50 -29.5 80.5
t-77.5 30.5z" />
    <glyph glyph-name="ordfeminine.onum" horiz-adv-x="824" 
d="M123 736q0 83 69 134t181 51q71 0 121 -21v6q0 37 -32.5 61t-85.5 24q-87 0 -149 -65l-96 146q41 46 109 76q72 32 148 32q141 0 223 -64t82 -174v-378h-189v56q-28 -31 -73 -49.5t-97 -18.5q-94 0 -153 51q-58 51 -58 133zM698 292h-569v165h569v-165zM324 750
q0 -21 16.5 -33t43.5 -12q42 0 76 25t34 48q-32 21 -93 21q-36 0 -56.5 -13t-20.5 -36z" />
    <glyph glyph-name="onehalf.onum" horiz-adv-x="1764" 
d="M1221 388l-184 113q31 88 121 146q88 57 196 57q142 0 227 -73q86 -74 86 -194q0 -81 -51 -154q-20 -30 -56 -66q-45 -44 -130 -110q-40 -31 -60 -48h303v-199h-607v85q0 76 46.5 141.5t139.5 140.5q110 88 135 116q39 43 39 79q0 33 -23.5 52.5t-57.5 19.5
q-39 0 -72 -28t-52 -78zM355 -140v26l734 1332h225v-24l-732 -1334h-227zM303 390v625h-186v199h420v-824h-234z" />
    <glyph glyph-name="onethird.onum" horiz-adv-x="1764" 
d="M1339 -160q-101 0 -186 52q-87 54 -118 131l161 112q6 -10 23 -32q16 -19 28 -29q39 -33 88 -33q39 0 65 22t26 55q0 35 -20.5 56.5t-54.5 21.5h-120v160h120q28 0 49 23t21 52q0 31 -24 52.5t-59 21.5q-90 0 -138 -100l-161 110q37 84 123 136q88 53 187 53
q142 0 230 -70q87 -70 87 -184q0 -57 -34.5 -104.5t-90.5 -67.5q59 -19 95 -71t36 -115q0 -112 -92 -183q-92 -69 -241 -69zM334 -140v26l734 1332h225v-24l-732 -1334h-227zM116 1015v199h420v-824h-234v625h-186z" />
    <glyph glyph-name="onequarter.onum" horiz-adv-x="1672" 
d="M907 50v142l343 492h255v-453h111v-181h-111v-190h-228v190h-370zM345 -140v26l734 1332h225v-24l-732 -1334h-227zM303 390v625h-186v199h420v-824h-234zM1277 231v204l-142 -204h142z" />
    <glyph glyph-name="twothirds.onum" horiz-adv-x="1923" 
d="M246 928l-184 113q31 88 121 146q89 57 196 57q142 0 227 -73q86 -74 86 -194q0 -81 -51 -154q-20 -30 -56 -66q-45 -44 -130 -110q-41 -31 -60 -48h303v-199h-607v85q0 76 46.5 141.5t139.5 140.5q110 88 135 116q39 43 39 79q0 33 -23.5 52.5t-57.5 19.5q-39 0 -72 -28
t-52 -78zM1500 -160q-101 0 -186 52q-87 54 -118 131l161 112q6 -10 23 -32q16 -19 28 -29q39 -33 88 -33q39 0 65 22t26 55q0 35 -20.5 56.5t-54.5 21.5h-120v160h120q28 0 49 23t21 52q0 31 -24 52.5t-59 21.5q-90 0 -138 -100l-161 110q37 84 123 136q88 53 187 53
q142 0 230 -70q87 -70 87 -184q0 -57 -34.5 -104.5t-90.5 -67.5q59 -19 95 -71t36 -115q0 -112 -92 -183q-91 -69 -241 -69zM495 -140v26l734 1332h225v-24l-732 -1334h-227z" />
    <glyph glyph-name="threequarters.onum" horiz-adv-x="1807" 
d="M357 380q-101 0 -186 52q-87 54 -118 131l161 112q6 -10 23 -32q16 -19 28 -29q39 -33 88 -33q39 0 65 22t26 55q0 35 -20.5 56.5t-54.5 21.5h-120v160h120q28 0 49 23t21 52q0 31 -24 52.5t-59 21.5q-90 0 -138 -100l-161 110q37 84 123 136q88 53 187 53q142 0 230 -70
q87 -70 87 -184q0 -57 -34.5 -104.5t-90.5 -67.5q59 -19 95 -71t36 -115q0 -113 -92 -182q-91 -70 -241 -70zM1054 50v142l343 492h255v-453h111v-181h-111v-190h-228v190h-370zM472 -140v26l734 1332h225v-24l-732 -1334h-227zM1424 435l-142 -204h142v204z" />
    <glyph glyph-name="percent.onum" horiz-adv-x="1789" 
d="M44 852q0 165 105 271t271 106q167 0 273 -106t106 -271q0 -161 -106 -264q-107 -105 -273 -105q-165 0 -271 104q-105 103 -105 265zM1641 -64q-107 -104 -273 -104q-165 0 -271 104q-105 104 -105 265q0 165 105 271t271 106q167 0 273 -106t106 -271q0 -160 -106 -265
zM1375 1186l-732 -1334h-227v26l734 1332h225v-24zM1254 202q0 -53 31.5 -87.5t81.5 -34.5q51 0 83.5 34.5t32.5 87.5q0 54 -32.5 88.5t-83.5 34.5q-50 0 -81.5 -34.5t-31.5 -88.5zM419 976q-50 0 -81.5 -34.5t-31.5 -88.5q0 -53 31.5 -87.5t81.5 -34.5q51 0 83.5 34.5
t32.5 87.5q0 54 -32.5 88.5t-83.5 34.5z" />
    <glyph glyph-name="perthousand.onum" horiz-adv-x="2607" 
d="M44 852q0 165 105 271t271 106q167 0 273 -106t106 -271q0 -161 -106 -264q-107 -105 -273 -105q-165 0 -271 104q-105 103 -105 265zM1641 -64q-107 -104 -273 -104q-165 0 -271 104q-105 104 -105 265q0 165 105 271t271 106q167 0 273 -106t106 -271q0 -160 -106 -265
zM2456 -64q-107 -104 -273 -104q-165 0 -271 104q-105 104 -105 265q0 165 105 271t271 106q167 0 273 -106t106 -271q0 -160 -106 -265zM1375 1186l-732 -1334h-227v26l734 1332h225v-24zM2182 325q-50 0 -81.5 -34.5t-31.5 -88.5q0 -53 31.5 -87.5t81.5 -34.5
q51 0 83.5 34.5t32.5 87.5q0 54 -32.5 88.5t-83.5 34.5zM1254 202q0 -53 31.5 -87.5t81.5 -34.5q51 0 83.5 34.5t32.5 87.5q0 54 -32.5 88.5t-83.5 34.5q-50 0 -81.5 -34.5t-31.5 -88.5zM419 976q-50 0 -81.5 -34.5t-31.5 -88.5q0 -53 31.5 -87.5t81.5 -34.5q51 0 83.5 34.5
t32.5 87.5q0 54 -32.5 88.5t-83.5 34.5z" />
    <glyph glyph-name="zero.slash.onum.tnum" 
d="M137 -43l149 179q-162 153 -162 397q0 245 165 400q163 154 427 154q169 0 302 -67l156 188l121 -96l-149 -180q163 -154 163 -399q0 -246 -165 -399q-164 -154 -428 -154q-169 0 -303 68l-155 -187zM916 655l-282 -341q39 -13 82 -13q101 0 166 65q64 64 64 167
q0 67 -30 122zM515 414l282 339q-35 13 -81 13q-102 0 -165 -65q-64 -65 -64 -168q0 -67 28 -119z" />
    <glyph glyph-name="zero.onum.tnum" 
d="M1144 134q-164 -154 -428 -154t-427 154q-165 153 -165 399q0 245 165 400q163 154 427 154q263 0 428 -153q165 -154 165 -401q0 -246 -165 -399zM551 701q-64 -65 -64 -168t64 -167q63 -65 165 -65q101 0 166 65q64 64 64 167t-64 168q-65 65 -166 65q-102 0 -165 -65z
" />
    <glyph glyph-name="one.onum.tnum" 
d="M217 0v318h327v431h-289v318h677v-749h283v-318h-998z" />
    <glyph glyph-name="two.onum.tnum" 
d="M475 624l-282 158q67 141 199 223q133 83 291 83q227 0 367 -102q138 -102 138 -270q0 -229 -349 -391h380v-324h-994v263l-1 3l366 214q105 61 154 107q45 44 45 95q0 37 -30.5 60.5t-79.5 23.5q-66 0 -119.5 -39t-84.5 -104z" />
    <glyph glyph-name="three.onum.tnum" 
d="M702 -309q-200 0 -343 107q-132 98 -184 231l284 152q82 -160 232 -160q64 0 103.5 32.5t39.5 83.5q0 58 -40.5 93t-107.5 35h-197v260h207q51 0 90 36q39 35 39 82q0 55 -38 87.5t-95 32.5q-140 0 -223 -156l-272 137q59 154 198 249q140 95 316 95q211 0 360 -103
q74 -52 115.5 -133.5t41.5 -180.5q0 -110 -69 -181q-60 -61 -131 -85q81 -28 145 -106q64 -79 64 -192q0 -186 -148 -301t-387 -115z" />
    <glyph glyph-name="four.onum.tnum" 
d="M733 -291v317h-597v237l551 804h426v-739h184v-302h-184v-317h-380zM733 664l-203 -336h203v336z" />
    <glyph glyph-name="five.onum.tnum" 
d="M706 -310q-362 0 -511 332l297 156q76 -159 209 -159q66 0 111 46q45 45 45 112t-45 110t-117 43q-54 0 -99.5 -28t-71.5 -70l-272 119l77 716h849v-326h-523l-18 -172q65 41 181 41q188 0 314 -123t126 -317q0 -214 -152 -348q-153 -132 -400 -132z" />
    <glyph glyph-name="six.onum.tnum" 
d="M739 -20q-174 0 -298.5 69t-192.5 190q-89 153 -89 364q0 378 177 576.5t511 198.5q115 0 202 -21q89 -24 172 -67l-89 -291q-134 72 -278 72q-123 2 -211.5 -67t-105.5 -206q35 54 111.5 87.5t177.5 33.5q212 0 340 -119t128 -317q0 -229 -151 -365q-151 -138 -404 -138
zM863 588q-52 47 -130 47t-130 -47q-51 -48 -51 -122t51 -121q52 -47 130 -47t130 47q51 47 51 121t-51 122z" />
    <glyph glyph-name="seven.onum.tnum" 
d="M231 741v326h1011v-263q-334 -531 -508 -1095h-419q222 625 502 1032h-586z" />
    <glyph glyph-name="eight.onum.tnum" 
d="M1109 94q-151 -114 -392 -114q-240 0 -392 114q-151 112 -151 294q0 118 65 203q65 83 159 123q-84 28 -143 101q-58 71 -58 173q0 175 144 283q143 107 376 107q232 0 374 -107q141 -108 141 -283q0 -101 -58 -172q-58 -73 -146 -102q96 -38 164 -123q67 -83 67 -203
q0 -182 -150 -294zM563 412q0 -60 45 -98q44 -37 109 -37t109 37q45 38 45 98q0 64 -45 102q-44 37 -109 37t-109 -37q-45 -38 -45 -102zM592 964q0 -52 34 -87.5t91 -35.5q41 -2 72.5 21t44 56t6.5 69.5t-32 59.5q-34 33 -91 33q-55 0 -90 -33q-35 -35 -35 -83z" />
    <glyph glyph-name="nine.onum.tnum" 
d="M525 151q-212 0 -340 119t-128 317q0 228 152 366q152 137 403 137q174 0 298.5 -69t192.5 -190q89 -153 89 -364q0 -378 -177 -576.5t-511 -198.5q-116 0 -201 21q-90 23 -173 67l89 291q133 -72 278 -72q123 -3 211.5 66.5t105.5 206.5q-35 -54 -111.5 -87.5
t-177.5 -33.5zM748 725q-52 47 -130 47t-130 -47q-51 -47 -51 -121t51 -121q51 -48 130 -48t130 48q51 47 51 121t-51 121z" />
    <glyph glyph-name="plus.onum.tnum" 
d="M137 373v326h387v362h380v-362h391v-326h-391v-370h-380v370h-387z" />
    <glyph glyph-name="minus.onum.tnum" 
d="M1215 692v-326h-999v326h999z" />
    <glyph glyph-name="plusminus.onum.tnum" 
d="M526 283v307h-366v326h366v295h381v-295h365v-326h-365v-307h-381zM1268 143v-313h-1100v313h1100z" />
    <glyph glyph-name="equal.onum.tnum" 
d="M1266 477v-330h-1101v330h1101zM165 588v329h1101v-329h-1101z" />
    <glyph glyph-name="notequal.onum.tnum" 
d="M173 159v287h385l77 172h-462v286h590l192 429l179 -74l-160 -355h284v-286h-413l-77 -172h490v-287h-620l-187 -417l-172 79l151 338h-257z" />
    <glyph glyph-name="approxequal.onum.tnum" 
d="M246 55l-155 251q70 108 179 168q108 60 228 60q131 0 241 -61q108 -61 186 -61q80 0 140 23q58 22 124 81l170 -231q-77 -96 -186 -159q-109 -64 -236 -64q-19 0 -38.5 2.5t-34 5.5t-34.5 10t-31 10.5t-32 14l-28 14t-29.5 15.5t-26.5 14q-88 46 -183 46
q-137 0 -254 -139zM237 561l-165 241q193 208 425 208q68 0 134.5 -18t109.5 -43q104 -61 185 -61q113 0 222 106l156 -239q-95 -113 -181 -160t-184 -47q-107 0 -223 66t-215 66q-56 0 -110 -21t-84 -42q-36 -27 -70 -56z" />
    <glyph glyph-name="multiply.onum.tnum" 
d="M161 223l314 312q-86 86 -159 158q-146 144 -156 154l245 246l310 -306l310 306l246 -246l-317 -312l318 -312l-247 -245l-310 306l-310 -306z" />
    <glyph glyph-name="less.onum.tnum" 
d="M1259 272v-370l-1086 492v277l1086 488v-371l-597 -255q17 -7 53 -23t98.5 -43t120.5 -52q162 -70 325 -143z" />
    <glyph glyph-name="greater.onum.tnum" 
d="M1259 394l-1086 -492v370q133 60 326 143q59 26 120 52.5t98 42.5t53 23l-597 255v371l1086 -488v-277z" />
    <glyph glyph-name="lessequal.onum.tnum" 
d="M634 620h639v-319h-1118v434l1093 526v-398zM143 126h1145v-312h-1145v312z" />
    <glyph glyph-name="greaterequal.onum.tnum" 
d="M1276 301h-1118v319h639l-614 243v398l1093 -526v-434zM1288 -186h-1145v312h1145v-312z" />
    <glyph glyph-name="divide.onum.tnum" 
d="M1269 673v-283h-1107v283h1107zM574 -28q-58 57 -58 140t58 140q57 57 142 57q84 0 143 -57q58 -57 58 -140t-58 -140q-59 -56 -143 -56t-142 56zM859 812q-59 -57 -143 -57q-85 0 -142 57q-58 55 -58 139q0 83 58 140q57 57 142 57q84 0 143 -57q58 -57 58 -140
q0 -84 -58 -139z" />
    <glyph glyph-name="logicalnot.onum.tnum" 
d="M1284 194h-386v332h-750v326h1136v-658z" />
    <glyph glyph-name="numbersign.onum.tnum" 
d="M301 220h-204l44 237h203l32 177h-203l44 237h201l36 196h267l-36 -196h163l36 196h267l-36 -196h220l-44 -237h-218l-32 -177h218l-44 -237h-217l-40 -220h-267l40 220h-163l-40 -220h-267zM643 634l-32 -177h163l32 177h-163z" />
    <glyph glyph-name="dollar.onum.tnum" 
d="M249 251l237 167q77 -112 198 -140v122q-92 23 -159 50q-79 31 -137 81q-95 77 -95 220q0 141 111 232q110 90 270 104v146h121v-148q263 -30 380 -254l-230 -164q-65 95 -160 123v-121q146 -41 242 -94q55 -31 86 -64q71 -76 71 -191q0 -74 -32 -136.5t-89 -104.5
q-113 -84 -268 -98v-162h-121v163q-145 13 -255 81.5t-170 187.5zM845 322q0 26 -60 48v-96q60 10 60 48zM684 701v92q-51 -11 -51 -42q0 -29 51 -50z" />
    <glyph glyph-name="Euro.onum.tnum" 
d="M648 505h270v-108h-256q37 -142 158 -142q66 0 108 48q42 47 59 106l288 -134q-63 -144 -178.5 -219.5t-278.5 -75.5q-204 0 -334 110q-130 109 -163 307h-113v108h103v22q0 35 1 44h-104v108h117q38 194 166 303q129 108 327 108q160 0 279 -77q116 -76 166 -215
l-286 -137q-49 154 -162 154q-114 0 -151 -136h254v-108h-270q-1 -8 -1 -37q0 -23 1 -29z" />
    <glyph glyph-name="yen.onum.tnum" 
d="M458 504l-387 563h384l261 -408l262 408h384l-387 -563h133v-115h-212v-86h200v-115h-200v-188h-359v188h-200v115h200v86h-211v115h132z" />
    <glyph glyph-name="sterling.onum.tnum" 
d="M426 379v64h-126v171h124v80q0 184 117 289q116 104 303 104q77 0 143.5 -22.5t107 -52.5t74 -71.5t47 -67t24.5 -51.5l5 -15l-242 -134q-2 13 -19 43q-14 21 -28 37q-41 43 -101 43q-47 0 -75.5 -28t-28.5 -74v-80h224v-171h-224v-34q0 -85 -57 -131h476v-278h-860v223
q63 36 89.5 73t26.5 83z" />
    <glyph glyph-name="currency.onum.tnum" 
d="M356 739l-167 164l171 171l165 -165q107 62 229 62q124 0 233 -62l163 165l171 -171l-165 -164q61 -103 61 -225q0 -128 -66 -231l170 -170l-171 -171l-172 174q-107 -57 -224 -57q-116 0 -220 57l-174 -174l-171 171l170 170q-63 107 -63 231q0 123 60 225zM594 514
q0 -65 47 -112q46 -46 113 -46q69 0 116 46q48 46 48 112q0 67 -48 115q-49 47 -116 47q-66 0 -113 -47q-47 -49 -47 -115z" />
    <glyph glyph-name="florin.onum.tnum" 
d="M152 -101l79 273q40 -25 103 -25q158 0 176 121l28 194h-146l43 298h145l13 87q27 179 161 286q133 106 330 106q60 0 124 -16q70 -18 107 -38l-87 -270q-52 32 -116 32q-67 0 -112.5 -32t-53.5 -85l-11 -70h258l-43 -298h-243l-33 -226q-27 -185 -156 -290
q-130 -105 -330 -105q-60 0 -128 18q-69 18 -108 40z" />
    <glyph glyph-name="cent.onum.tnum" 
d="M682 -120v182q-203 23 -328 161q-127 137 -127 335q0 197 126 335q125 137 329 160v168h131v-167q132 -12 232 -75t156 -171l-278 -190q-40 85 -110 109v-342q72 19 119 103l274 -192q-55 -100 -157.5 -161.5t-235.5 -73.5v-181h-131zM590 558q0 -115 92 -162v321
q-42 -22 -67 -64t-25 -95z" />
    <glyph glyph-name="mu.onum.tnum" 
d="M661 -19v-380h-368v1359h384v-530q0 -51 32.5 -83t84.5 -32t84 32t32 83v530h384v-960h-350l-9 92q-39 -49 -111 -78t-163 -33z" />
    <glyph glyph-name="pi.onum.tnum" 
d="M61 802v327h1340v-164q-1 -73 -1 -163h-151v-404q0 -55 38 -79.5t100 -14.5v-314q-8 -4 -49 -7q-40 -3 -56 -3q-190 0 -299 91t-109 282v449h-279v-804h-375v804h-159z" />
    <glyph glyph-name="degree.onum.tnum" 
d="M714 479q-158 0 -257 96t-99 250q0 157 99 255q100 98 257 98q160 0 261 -98q99 -98 99 -255q0 -154 -100 -250q-101 -96 -260 -96zM637 909q-30 -31 -30 -83q0 -50 30 -82q29 -32 76 -32q50 0 80.5 31.5t30.5 82.5t-31 83t-80 32q-47 0 -76 -32z" />
    <glyph glyph-name="ordmasculine.onum.tnum" 
d="M383 850q0 145 92 237q91 91 239 91q150 0 242 -91q92 -92 92 -237q0 -143 -92 -232q-94 -89 -242 -89q-147 0 -239 89t-92 232zM408 281v166h621v-166h-621zM713 962q-46 0 -74.5 -31t-28.5 -80t28.5 -79.5t74.5 -30.5q48 0 77.5 30.5t29.5 79.5q0 50 -29.5 80.5
t-77.5 30.5z" />
    <glyph glyph-name="ordfeminine.onum.tnum" 
d="M426 736q0 83 69 134t181 51q72 0 121 -21v6q0 37 -32.5 61t-85.5 24q-87 0 -149 -65l-96 146q41 46 109 76q72 32 148 32q141 0 223 -64t82 -174v-378h-189v56q-28 -31 -73 -49.5t-97 -18.5q-95 0 -153 51t-58 133zM1001 292h-569v165h569v-165zM627 750q0 -21 16.5 -33
t43.5 -12q42 0 76 25t34 48q-31 21 -93 21q-36 0 -56.5 -13t-20.5 -36z" />
    <glyph glyph-name="A.smcp" horiz-adv-x="1192" 
d="M378 0h-379l386 1030h422l386 -1030h-379l-47 157h-342zM698 418l-102 303l-102 -303h204z" />
    <glyph glyph-name="B.smcp" horiz-adv-x="1097" 
d="M700 0h-579v1030h547q155 0 250 -76q96 -76 96 -207q0 -70 -33.5 -130t-91.5 -94q74 -29 113.5 -91.5t39.5 -142.5q0 -123 -93 -206q-94 -83 -249 -83zM471 406v-148h130q30 0 50 22t20 51q0 33 -19 54t-51 21h-130zM471 772v-149h120q28 0 45 22t17 54q0 29 -19 51
t-49 22h-114z" />
    <glyph glyph-name="C.smcp" horiz-adv-x="1100" 
d="M55 518q0 229 154.5 380.5t402.5 151.5q149 0 273 -76q125 -77 183 -203l-262 -174q-28 66 -78 105t-116 39q-88 0 -147 -62q-60 -61 -60 -161q0 -101 61 -165q62 -66 147 -66q129 0 199 135l258 -167q-62 -125 -189 -200t-277 -75q-119 -1 -223 40.5t-176 114t-112 172
t-38 211.5z" />
    <glyph glyph-name="D.smcp" horiz-adv-x="1205" 
d="M617 0h-496v1029h496q93 0 176 -26t147.5 -73t111.5 -110t72 -141t25 -163q0 -105 -38.5 -200t-108.5 -165q-70 -71 -170.5 -111t-214.5 -40zM597 760h-106v-491h103q89 0 147 73t58 174q0 100 -57 172t-145 72z" />
    <glyph glyph-name="E.smcp" horiz-adv-x="991" 
d="M933 0h-812v1029h804v-269h-434v-109h381v-257h-381v-126h442v-268z" />
    <glyph glyph-name="F.smcp" horiz-adv-x="972" 
d="M491 0h-370v1030h815v-284h-445v-133h363v-272h-363v-341z" />
    <glyph glyph-name="G.smcp" horiz-adv-x="1180" 
d="M55 517q0 231 157 382q155 151 405 151q152 0 271 -67t180 -172l-253 -182q-67 112 -194 112q-97 0 -156 -63q-60 -63 -60 -161q0 -105 60 -174q58 -70 153 -70q52 0 94 23t59 62h-195v218h553v-78q0 -164 -69 -282q-69 -119 -184 -177q-114 -59 -264 -59
q-248 0 -402 153q-155 152 -155 384z" />
    <glyph glyph-name="H.smcp" horiz-adv-x="1317" 
d="M121 0v1030h370v-377h335v377h370v-1030h-370v370h-335v-370h-370z" />
    <glyph glyph-name="I.smcp" horiz-adv-x="622" 
d="M121 1030h380v-1030h-380v1030z" />
    <glyph glyph-name="J.smcp" horiz-adv-x="937" 
d="M-6 184l210 203q70 -102 153 -102q48 0 74 28.5t26 77.5v639h370v-663q0 -181 -120 -284q-119 -103 -327 -103q-128 0 -233 59q-107 59 -153 145z" />
    <glyph glyph-name="K.smcp" horiz-adv-x="1184" 
d="M491 0h-370v1029h370v-315l272 315h417l-383 -420l395 -609h-405l-223 368l-73 -80v-288z" />
    <glyph glyph-name="L.smcp" horiz-adv-x="966" 
d="M121 1030h370v-746h455v-284h-825v1030z" />
    <glyph glyph-name="M.smcp" horiz-adv-x="1457" 
d="M471 0h-350v1029h422l185 -530l186 530h422v-1029h-350v465l-150 -408h-211l-154 408v-465z" />
    <glyph glyph-name="N.smcp" horiz-adv-x="1273" 
d="M481 457v-457h-360v1030h273l398 -457v457h360v-1030h-273z" />
    <glyph glyph-name="O.smcp" horiz-adv-x="1221" 
d="M612 -20q-247 0 -402 149q-154 148 -154 388q0 237 154 385t402 148q246 0 400 -148q153 -148 153 -386t-153 -387q-154 -149 -400 -149zM406 516q0 -108 58 -173q57 -66 149 -66q91 0 147 66q55 65 55 173q0 105 -55 169q-56 65 -147 65q-92 0 -149 -65
q-58 -64 -58 -169z" />
    <glyph glyph-name="P.smcp" horiz-adv-x="1075" 
d="M491 312v-312h-370v1029h547q156 0 266 -101q109 -100 109 -255q0 -154 -109 -257q-110 -104 -266 -104h-177zM620 759h-129v-176h129q33 0 54.5 26.5t21.5 63.5q0 38 -20.5 62t-55.5 24z" />
    <glyph glyph-name="Q.smcp" horiz-adv-x="1221" 
d="M659 -20q-247 0 -402 149q-154 148 -154 388q0 237 154 385t402 148q246 0 400 -148q153 -148 153 -386q0 -262 -178 -409l72 -100l-199 -133l-90 124q-74 -18 -158 -18zM453 516q0 -96 47.5 -160.5t126.5 -76.5l-66 94l182 128l87 -123q32 59 32 138q0 105 -55 169
q-56 65 -147 65q-92 0 -149 -65q-58 -64 -58 -169z" />
    <glyph glyph-name="R.smcp" horiz-adv-x="1110" 
d="M491 323v-323h-370v1030h576q157 0 266 -100t109 -257q0 -95 -46.5 -173t-127.5 -126l187 -374h-371l-143 323h-80zM624 764h-133v-176h133q35 0 58 25.5t23 62.5q0 39 -21.5 63.5t-59.5 24.5z" />
    <glyph glyph-name="S.smcp" horiz-adv-x="1018" 
d="M50 199l227 198q50 -68 115 -103t130 -35q91 0 91 41q0 28 -36 44q-34 16 -148 49q-190 55 -272 147q-68 75 -68 185q0 140 121 233q121 92 304 92q140 0 252 -59q112 -60 167 -150l-217 -182q-86 111 -198 111q-37 0 -60 -11.5t-23 -30.5q0 -22 29.5 -37t114.5 -42
q7 -2 19 -5.5t16 -5.5q135 -44 206 -88q46 -28 75 -63q64 -76 64 -189q0 -141 -121 -229q-122 -89 -317 -89q-160 0 -279 57t-192 162z" />
    <glyph glyph-name="T.smcp" horiz-adv-x="962" 
d="M296 746h-280v284h930v-284h-280v-746h-370v746z" />
    <glyph glyph-name="U.smcp" horiz-adv-x="1178" 
d="M110 378v652h370v-614q0 -66 29.5 -100.5t79.5 -34.5t79.5 34.5t29.5 100.5v614h370v-652q0 -197 -130 -297q-131 -101 -349 -101q-217 0 -348 101t-131 297z" />
    <glyph glyph-name="V.smcp" horiz-adv-x="1107" 
d="M749 0h-388l-356 1029h366l185 -615l181 615h366z" />
    <glyph glyph-name="W.smcp" horiz-adv-x="1540" 
d="M283 0l-269 1029h344l134 -577l141 564h275l141 -565l133 578h344l-268 -1029h-384l-104 377l-105 -377h-382z" />
    <glyph glyph-name="X.smcp" horiz-adv-x="1140" 
d="M387 0h-390l378 526l-359 503h388l166 -242l165 242h391l-361 -503l379 -526h-390l-183 272z" />
    <glyph glyph-name="Y.smcp" horiz-adv-x="1132" 
d="M387 385l-383 644h391l172 -336l170 336h391l-383 -644v-385h-358v385z" />
    <glyph glyph-name="Z.smcp" horiz-adv-x="993" 
d="M935 0h-877v227l444 533h-433v269h857v-233l-438 -528h447v-268z" />
    <glyph glyph-name="ampersand.smcp" horiz-adv-x="1210" 
d="M48 301q0 83 58 153q58 68 144 97q-40 39 -66 93.5t-26 102.5q0 79 30.5 139t84 95.5t119.5 53t143 17.5q89 0 161 -25t114 -67q83 -85 83 -190q0 -75 -55 -142q-56 -68 -140 -119l92 -90q6 9 10 18t7 18.5t4.5 16t2 17t0.5 15v16v14.5h285q6 -203 -88 -310l236 -231
h-379l-80 83q-51 -42 -133 -69q-83 -27 -170 -27q-252 0 -374 145q-63 73 -63 176zM378 336q0 -38 30 -67.5t76 -29.5q59 0 101 33l-153 143q-54 -33 -54 -79zM537 661q51 41 51 80q0 19 -14.5 35.5t-37.5 16.5q-25 0 -40.5 -16.5t-15.5 -41.5q0 -26 57 -74z" />
    <glyph glyph-name="Agrave.smcp" horiz-adv-x="1192" 
d="M378 0h-379l386 1030h422l386 -1030h-379l-47 157h-342zM747 1156h-312l-287 334h432zM596 721l-102 -303h204z" />
    <glyph glyph-name="Aacute.smcp" horiz-adv-x="1192" 
d="M378 0h-379l386 1030h422l386 -1030h-379l-47 157h-342zM1046 1487l-287 -334h-312l167 334h432zM698 418l-102 303l-102 -303h204z" />
    <glyph glyph-name="Acircumflex.smcp" horiz-adv-x="1192" 
d="M378 0h-379l386 1030h422l386 -1030h-379l-47 157h-342zM596 1285l-104 -160h-311l287 370h257l287 -370h-312zM698 418l-102 303l-102 -303h204z" />
    <glyph glyph-name="Adotbelow.smcp" horiz-adv-x="1192" 
d="M378 0h-379l386 1030h422l386 -1030h-379l-47 157h-342zM396 -287q0 83 60 141q59 59 138 59q82 0 143 -61q60 -60 60 -139q0 -82 -62 -138t-141 -56q-81 0 -139 58q-59 59 -59 136zM698 418l-102 303l-102 -303h204z" />
    <glyph glyph-name="Atilde.smcp" horiz-adv-x="1192" 
d="M378 0h-379l386 1030h422l386 -1030h-379l-47 157h-342zM331 1150l-140 127q114 230 288 230q74 0 144 -46t112 -46q60 0 129 77l137 -117q-37 -75 -90 -129t-106 -76q-48 -22 -99 -22q-36 -2 -85 21t-94 46t-71 22q-60 0 -125 -87zM698 418l-102 303l-102 -303h204z" />
    <glyph glyph-name="Adieresis.smcp" horiz-adv-x="1192" 
d="M378 0h-379l386 1030h422l386 -1030h-379l-47 157h-342zM233 1350q0 75 46.5 121.5t120.5 46.5t121 -47t47 -121t-47 -120t-121 -46t-120.5 46t-46.5 120zM624 1350q0 75 46.5 121.5t119.5 46.5q75 0 122 -47t47 -121t-47 -120t-122 -46q-73 0 -119.5 46t-46.5 120z
M698 418l-102 303l-102 -303h204z" />
    <glyph glyph-name="Amacron.smcp" horiz-adv-x="1192" 
d="M378 0h-379l386 1030h422l386 -1030h-379l-47 157h-342zM301 1189v234h591v-234h-591zM698 418l-102 303l-102 -303h204z" />
    <glyph glyph-name="Abreve.smcp" horiz-adv-x="1192" 
d="M378 0h-379l386 1030h422l386 -1030h-379l-47 157h-342zM249 1497h249q-2 -61 24.5 -97.5t73.5 -36.5q48 0 74.5 36.5t23.5 97.5h250q0 -162 -94 -257q-94 -96 -254 -96q-158 0 -252 96q-95 97 -95 257zM596 721l-102 -303h204z" />
    <glyph glyph-name="Aring.smcp" horiz-adv-x="1192" 
d="M378 0h-379l386 1030h422l386 -1030h-379l-47 157h-342zM596 1100q-100 0 -165 65q-66 65 -66 163q0 99 66 165q65 66 165 66q98 0 166 -66q66 -66 66 -165q0 -98 -66 -162q-68 -66 -166 -66zM596 721l-102 -303h204zM633 1367q-16 17 -37 17t-36 -17q-16 -17 -16 -38
t16 -37q15 -16 36 -16t37 16q15 16 15 37t-15 38z" />
    <glyph glyph-name="Aringacute.smcp" horiz-adv-x="1192" 
d="M378 0h-379l386 1030h422l386 -1030h-379l-47 157h-342zM596 1100q-100 0 -165 65q-66 65 -66 163q0 99 66 165q65 66 165 66q98 0 166 -66q66 -66 66 -165q0 -98 -66 -162q-68 -66 -166 -66zM1036 1935l-287 -334h-312l167 334h432zM698 418l-102 303l-102 -303h204z
M633 1367q-16 17 -37 17t-36 -17q-16 -17 -16 -38t16 -37q15 -16 36 -16t37 16q15 16 15 37t-15 38z" />
    <glyph glyph-name="Aogonek.smcp" horiz-adv-x="1192" 
d="M378 0h-379l386 1030h422l386 -1030h-137q-93 -48 -144.5 -94.5t-51.5 -83.5q0 -31 22.5 -49t60.5 -18q62 0 119 27l64 -206q-93 -57 -230 -57q-129 0 -204 60q-76 61 -76 161q0 148 198 260l-47 157h-342zM596 721l-102 -303h204z" />
    <glyph glyph-name="AE.smcp" horiz-adv-x="1591" 
d="M406 157l-70 -157h-378l537 1029h1030v-269h-434v-109h381v-257h-381v-126h442v-268h-812v157h-315zM721 418v425l-209 -425h209z" />
    <glyph glyph-name="AEacute.smcp" horiz-adv-x="1591" 
d="M406 157l-70 -157h-378l537 1029h1030v-269h-434v-109h381v-257h-381v-126h442v-268h-812v157h-315zM1179 1153h-312l167 334h432zM721 418v425l-209 -425h209z" />
    <glyph glyph-name="Cacute.smcp" horiz-adv-x="1100" 
d="M55 518q0 229 154.5 380.5t402.5 151.5q149 0 273 -76q125 -77 183 -203l-262 -174q-28 66 -78 105t-116 39q-88 0 -147 -62q-60 -61 -60 -161q0 -101 61 -165q62 -66 147 -66q129 0 199 135l258 -167q-62 -125 -189 -200t-277 -75q-119 -1 -223 40.5t-176 114t-112 172
t-38 211.5zM753 1153h-312l167 334h432z" />
    <glyph glyph-name="Ccircumflex.smcp" horiz-adv-x="1100" 
d="M55 518q0 229 154.5 380.5t402.5 151.5q149 0 273 -76q125 -77 183 -203l-262 -174q-28 66 -78 105t-116 39q-88 0 -147 -62q-60 -61 -60 -161q0 -101 61 -165q62 -66 147 -66q129 0 199 135l258 -167q-62 -125 -189 -200t-277 -75q-119 -1 -223 40.5t-176 114t-112 172
t-38 211.5zM489 1125h-311l287 370h257l287 -370h-312l-104 160z" />
    <glyph glyph-name="Ccaron.smcp" horiz-adv-x="1100" 
d="M604 -20q-119 -1 -223 40.5t-176 114t-112 172t-38 211.5q0 229 154.5 380.5t402.5 151.5q149 0 273 -76q125 -77 183 -203l-262 -174q-28 66 -78 105t-116 39q-88 0 -147 -62q-60 -61 -60 -161q0 -101 61 -165q62 -66 147 -66q129 0 199 135l258 -167
q-62 -125 -189 -200t-277 -75zM484 1133l-287 370h311l104 -160l104 160h312l-287 -370h-257z" />
    <glyph glyph-name="Cdotaccent.smcp" horiz-adv-x="1100" 
d="M55 518q0 229 154.5 380.5t402.5 151.5q149 0 273 -76q125 -77 183 -203l-262 -174q-28 66 -78 105t-116 39q-88 0 -147 -62q-60 -61 -60 -161q0 -101 61 -165q62 -66 147 -66q129 0 199 135l258 -167q-62 -125 -189 -200t-277 -75q-119 -1 -223 40.5t-176 114t-112 172
t-38 211.5zM408 1366q0 96 58 154q59 59 152 59q95 0 154 -59t59 -154q0 -93 -59 -152q-58 -58 -154 -58q-94 0 -152 58t-58 152z" />
    <glyph glyph-name="Ccedilla.smcp" horiz-adv-x="1100" 
d="M431 -182l67 170q-202 34 -322 180q-121 145 -121 350q0 229 154.5 380.5t402.5 151.5q149 0 273 -76q125 -77 183 -203l-262 -174q-28 66 -78 105t-116 39q-88 0 -147 -62q-60 -61 -60 -161q0 -101 61 -165q62 -66 147 -66q129 0 199 135l258 -167q-54 -109 -159 -181
q-106 -73 -234 -89l-17 -59q105 -15 161.5 -66t56.5 -133q0 -96 -98.5 -153t-231.5 -55q-104 0 -170 30v182q54 -22 126 -22q53 0 83.5 14.5t30.5 39.5q0 26 -32 40.5t-88 14.5h-67z" />
    <glyph glyph-name="Dcaron.smcp" horiz-adv-x="1205" 
d="M617 0h-496v1029h496q93 0 176 -26t147.5 -73t111.5 -110t72 -141t25 -163q0 -105 -38.5 -200t-108.5 -165q-70 -71 -170.5 -111t-214.5 -40zM706 1133h-257l-287 370h311l104 -160l104 160h312zM491 760v-491h103q89 0 147 73t58 174q0 100 -57 172t-145 72h-106z" />
    <glyph glyph-name="Dcroat.smcp" horiz-adv-x="1225" 
d="M58 445v158h83v426h496q93 0 176 -26t147.5 -73t111.5 -110t72 -141t25 -163q0 -105 -38.5 -200t-108.5 -165q-70 -71 -170.5 -111t-214.5 -40h-496v445h-83zM511 760v-157h158v-158h-158v-176h103q89 0 147 73t58 174q0 100 -57 172t-145 72h-106z" />
    <glyph glyph-name="Eth.smcp" horiz-adv-x="1225" 
d="M58 445v158h83v426h496q93 0 176 -26t147.5 -73t111.5 -110t72 -141t25 -163q0 -105 -38.5 -200t-108.5 -165q-70 -71 -170.5 -111t-214.5 -40h-496v445h-83zM511 760v-157h158v-158h-158v-176h103q89 0 147 73t58 174q0 100 -57 172t-145 72h-106z" />
    <glyph glyph-name="Egrave.smcp" horiz-adv-x="991" 
d="M933 268v-268h-812v1029h804v-269h-434v-109h381v-257h-381v-126h442zM719 1156h-312l-287 334h432z" />
    <glyph glyph-name="Eacute.smcp" horiz-adv-x="991" 
d="M933 0h-812v1029h804v-269h-434v-109h381v-257h-381v-126h442v-268zM978 1487l-287 -334h-312l167 334h432z" />
    <glyph glyph-name="Ecircumflex.smcp" horiz-adv-x="991" 
d="M933 268v-268h-812v1029h804v-269h-434v-109h381v-257h-381v-126h442zM411 1125h-311l287 370h257l287 -370h-312l-104 160z" />
    <glyph glyph-name="Ecaron.smcp" horiz-adv-x="991" 
d="M933 268v-268h-812v1029h804v-269h-434v-109h381v-257h-381v-126h442zM387 1133l-287 370h311l104 -160l104 160h312l-287 -370h-257z" />
    <glyph glyph-name="Edieresis.smcp" horiz-adv-x="991" 
d="M121 0v1029h804v-269h-434v-109h381v-257h-381v-126h442v-268h-812zM534 1350q0 75 46.5 121.5t119.5 46.5q75 0 122 -47t47 -121t-47 -120t-122 -46q-73 0 -119.5 46t-46.5 120zM431 1230q-46 -46 -121 -46q-74 0 -120 46q-47 47 -47 120q0 75 46.5 121.5t120.5 46.5
t121 -47t47 -121q0 -73 -47 -120z" />
    <glyph glyph-name="Etilde.smcp" horiz-adv-x="991" 
d="M933 268v-268h-812v1029h804v-269h-434v-109h381v-257h-381v-126h442zM240 1150l-140 127q114 230 288 230q74 0 144 -46t112 -46q60 0 129 77l137 -117q-37 -75 -90 -129t-106 -76q-48 -22 -99 -22q-36 -2 -85 21t-94 46t-71 22q-61 0 -125 -87z" />
    <glyph glyph-name="Emacron.smcp" horiz-adv-x="991" 
d="M933 268v-268h-812v1029h804v-269h-434v-109h381v-257h-381v-126h442zM791 1423v-234h-591v234h591z" />
    <glyph glyph-name="Ebreve.smcp" horiz-adv-x="991" 
d="M933 268v-268h-812v1029h804v-269h-434v-109h381v-257h-381v-126h442zM211 1497h249q-2 -61 24.5 -97.5t73.5 -36.5q48 0 74.5 36.5t23.5 97.5h250q0 -162 -94 -257q-94 -96 -254 -96q-158 0 -252 96q-95 97 -95 257z" />
    <glyph glyph-name="Edotaccent.smcp" horiz-adv-x="991" 
d="M933 0h-812v1029h804v-269h-434v-109h381v-257h-381v-126h442v-268zM356 1366q0 96 58 154q59 59 152 59q95 0 154 -59t59 -154q0 -93 -59 -152q-58 -58 -154 -58q-94 0 -152 58t-58 152z" />
    <glyph glyph-name="Edotbelow.smcp" horiz-adv-x="991" 
d="M933 0h-812v1029h804v-269h-434v-109h381v-257h-381v-126h442v-268zM356 -287q0 83 60 141q59 59 138 59q82 0 143 -61q60 -60 60 -139q0 -82 -62 -138t-141 -56q-81 0 -139 58q-59 59 -59 136z" />
    <glyph glyph-name="Eogonek.smcp" horiz-adv-x="991" 
d="M121 0v1029h804v-269h-434v-109h381v-257h-381v-126h442v-268q-93 -48 -144.5 -94.5t-51.5 -83.5q0 -31 22.5 -49t60.5 -18q62 0 119 27l64 -206q-93 -57 -230 -57q-129 0 -204 60q-76 61 -76 161q0 148 198 260h-570z" />
    <glyph glyph-name="Schwa.smcp" horiz-adv-x="1151" 
d="M54 461q0 64 13 132h668q-8 68 -67 112q-58 43 -144 43q-64 0 -121.5 -30.5t-91.5 -77.5l-240 162q162 248 479 248q240 0 395 -150q153 -152 153 -388t-149 -385q-149 -148 -383 -148q-219 0 -365 137q-147 136 -147 345zM739 405h-339q0 -59 48 -103q49 -44 119 -44
q68 0 118 44t54 103z" />
    <glyph glyph-name="Gcircumflex.smcp" horiz-adv-x="1180" 
d="M55 517q0 231 157 382q155 151 405 151q152 0 271 -67t180 -172l-253 -182q-67 112 -194 112q-97 0 -156 -63q-60 -63 -60 -161q0 -105 60 -174q58 -70 153 -70q52 0 94 23t59 62h-195v218h553v-78q0 -164 -69 -282q-69 -119 -184 -177q-114 -59 -264 -59
q-248 0 -402 153q-155 152 -155 384zM618 1285l-104 -160h-311l287 370h257l287 -370h-312z" />
    <glyph glyph-name="Gbreve.smcp" horiz-adv-x="1180" 
d="M55 517q0 231 157 382q155 151 405 151q152 0 271 -67t180 -172l-253 -182q-67 112 -194 112q-97 0 -156 -63q-60 -63 -60 -161q0 -105 60 -174q58 -70 153 -70q52 0 94 23t59 62h-195v218h553v-78q0 -164 -69 -282q-69 -119 -184 -177q-114 -59 -264 -59
q-248 0 -402 153q-155 152 -155 384zM612 1144q-158 0 -252 96q-95 97 -95 257h249q-2 -61 24.5 -97.5t73.5 -36.5q48 0 74.5 36.5t23.5 97.5h250q0 -162 -94 -257q-94 -96 -254 -96z" />
    <glyph glyph-name="Gcaron.smcp" horiz-adv-x="1180" 
d="M612 -20q-248 0 -402 153q-155 152 -155 384q0 231 157 382q155 151 405 151q152 0 271 -67t180 -172l-253 -182q-67 112 -194 112q-97 0 -156 -63q-60 -63 -60 -161q0 -105 60 -174q58 -70 153 -70q52 0 94 23t59 62h-195v218h553v-78q0 -164 -69 -282
q-69 -119 -184 -177q-114 -59 -264 -59zM484 1133l-287 370h311l104 -160l104 160h312l-287 -370h-257z" />
    <glyph glyph-name="Gdotaccent.smcp" horiz-adv-x="1180" 
d="M55 517q0 231 157 382q155 151 405 151q152 0 271 -67t180 -172l-253 -182q-67 112 -194 112q-97 0 -156 -63q-60 -63 -60 -161q0 -105 60 -174q58 -70 153 -70q52 0 94 23t59 62h-195v218h553v-78q0 -164 -69 -282q-69 -119 -184 -177q-114 -59 -264 -59
q-248 0 -402 153q-155 152 -155 384zM410 1366q0 96 58 154q59 59 152 59q95 0 154 -59t59 -154q0 -93 -59 -152q-58 -58 -154 -58q-94 0 -152 58t-58 152z" />
    <glyph glyph-name="Gcommaaccent.smcp" horiz-adv-x="1180" 
d="M612 -20q-248 0 -402 153q-155 152 -155 384q0 231 157 382q155 151 405 151q152 0 271 -67t180 -172l-253 -182q-67 112 -194 112q-97 0 -156 -63q-60 -63 -60 -161q0 -105 60 -174q58 -70 153 -70q52 0 94 23t59 62h-195v218h553v-78q0 -164 -69 -282
q-69 -119 -184 -177q-114 -59 -264 -59zM465 -548l-7 462h342l-79 -462h-256z" />
    <glyph glyph-name="Hcircumflex.smcp" horiz-adv-x="1317" 
d="M491 0h-370v1030h370v-377h335v377h370v-1030h-370v370h-335v-370zM554 1125h-311l287 370h257l287 -370h-312l-104 160z" />
    <glyph glyph-name="Hbar.smcp" horiz-adv-x="1287" 
d="M1181 1030v-132h77v-153h-77v-745h-370v370h-335v-370h-370v745h-77v153h77v132h370v-132h335v132h370zM811 653v92h-335v-92h335z" />
    <glyph glyph-name="Igrave.smcp" horiz-adv-x="622" 
d="M121 1030h380v-1030h-380v1030zM462 1156h-312l-287 334h432z" />
    <glyph glyph-name="Iacute.smcp" horiz-adv-x="622" 
d="M121 1030h380v-1030h-380v1030zM320 1487h432l-287 -334h-312z" />
    <glyph glyph-name="Ibreve.smcp" horiz-adv-x="622" 
d="M501 1030v-1030h-380v1030h380zM-37 1497h249q-2 -61 24.5 -97.5t73.5 -36.5q48 0 74.5 36.5t23.5 97.5h250q0 -162 -94 -257q-94 -96 -254 -96q-158 0 -252 96q-95 95 -95 257z" />
    <glyph glyph-name="Icircumflex.smcp" horiz-adv-x="622" 
d="M501 1030v-1030h-380v1030h380zM206 1125h-311l287 370h257l287 -370h-312l-104 160z" />
    <glyph glyph-name="Itilde.smcp" horiz-adv-x="622" 
d="M121 0v1030h380v-1030h-380zM46 1150l-140 127q114 230 288 230q74 0 144 -46t112 -46q60 0 129 77l137 -117q-37 -75 -90 -129t-106 -76q-48 -22 -99 -22q-36 -2 -85 21t-94 46t-71 22q-61 0 -125 -87z" />
    <glyph glyph-name="Idieresis.smcp" horiz-adv-x="622" 
d="M121 0v1030h380v-1030h-380zM339 1350q0 75 46.5 121.5t119.5 46.5q75 0 122 -47t47 -121t-47 -120t-122 -46q-73 0 -119.5 46t-46.5 120zM236 1230q-46 -46 -121 -46q-74 0 -121 46q-46 46 -46 120q0 75 46.5 121.5t120.5 46.5t121 -47t47 -121q0 -73 -47 -120z" />
    <glyph glyph-name="Imacron.smcp" horiz-adv-x="622" 
d="M121 1030h380v-1030h-380v1030zM15 1423h591v-234h-591v234z" />
    <glyph glyph-name="Idotaccent.smcp" horiz-adv-x="622" 
d="M121 0v1030h380v-1030h-380zM99 1366q0 96 58 154q59 59 152 59q95 0 154 -59t59 -154q0 -93 -59 -152q-58 -58 -154 -58q-94 0 -152 58t-58 152z" />
    <glyph glyph-name="Iogonek.smcp" horiz-adv-x="622" 
d="M-1 -260q0 148 198 260h-76v1030h380v-1030h-62q-93 -48 -144.5 -94.5t-51.5 -83.5q0 -31 22.5 -49t60.5 -18q62 0 119 27l64 -206q-93 -57 -230 -57q-129 0 -204 60q-76 61 -76 161z" />
    <glyph glyph-name="Idotbelow.smcp" horiz-adv-x="622" 
d="M121 0v1030h380v-1030h-380zM110 -287q0 83 60 141q59 59 138 59q82 0 143 -61q60 -60 60 -139q0 -82 -62 -138t-141 -56q-81 0 -139 58q-59 59 -59 136z" />
    <glyph glyph-name="Jcircumflex.smcp" horiz-adv-x="937" 
d="M-6 184l210 203q70 -102 153 -102q48 0 74 28.5t26 77.5v639h370v-663q0 -181 -120 -284q-119 -103 -327 -103q-128 0 -233 59q-107 59 -153 145zM537 1125h-311l287 370h257l287 -370h-312l-104 160z" />
    <glyph glyph-name="Kcommaaccent.smcp" horiz-adv-x="1184" 
d="M121 0v1029h370v-315l272 315h417l-383 -420l395 -609h-405l-223 368l-73 -80v-288h-370zM453 -548l-7 462h342l-79 -462h-256z" />
    <glyph glyph-name="Lacute.smcp" horiz-adv-x="966" 
d="M121 1030h370v-746h455v-284h-825v1030zM314 1487h432l-287 -334h-312z" />
    <glyph glyph-name="Lcaron.smcp" horiz-adv-x="966" 
d="M846 566h-256l-7 462h342zM121 1030h370v-746h455v-284h-825v1030z" />
    <glyph glyph-name="Lcommaaccent.smcp" horiz-adv-x="966" 
d="M121 1030h370v-746h455v-284h-825v1030zM647 -548h-256l-7 462h342z" />
    <glyph glyph-name="Lslash.smcp" horiz-adv-x="1005" 
d="M160 0v507l-121 -7v139l121 7v384h370v-362l143 9v-139l-143 -9v-245h455v-284h-825z" />
    <glyph glyph-name="Ldot.smcp" horiz-adv-x="966" 
d="M121 0v1030h370v-746h455v-284h-825zM732 376q-80 0 -139 59t-59 135q0 84 60 142q58 58 138 58q82 0 143 -60q60 -60 60 -140q0 -82 -62 -138t-141 -56z" />
    <glyph glyph-name="Nacute.smcp" horiz-adv-x="1273" 
d="M481 0h-360v1030h273l398 -457v457h360v-1030h-273l-398 457v-457zM789 1153h-312l167 334h432z" />
    <glyph glyph-name="Ncaron.smcp" horiz-adv-x="1273" 
d="M481 0h-360v1030h273l398 -457v457h360v-1030h-273l-398 457v-457zM508 1133l-287 370h311l104 -160l104 160h312l-287 -370h-257z" />
    <glyph glyph-name="Ntilde.smcp" horiz-adv-x="1273" 
d="M121 0v1030h273l398 -457v457h360v-1030h-273l-398 457v-457h-360zM352 1150l-140 127q114 230 288 230q74 0 144 -46t112 -46q60 0 129 77l137 -117q-37 -75 -90 -129t-106 -76q-48 -22 -99 -22q-36 -2 -85 21t-94 46t-71 22q-60 0 -125 -87z" />
    <glyph glyph-name="Ncommaaccent.smcp" horiz-adv-x="1273" 
d="M121 0v1030h273l398 -457v457h360v-1030h-273l-398 457v-457h-360zM521 -548l-7 462h342l-79 -462h-256z" />
    <glyph glyph-name="Nhookleft.smcp" horiz-adv-x="1273" 
d="M-89 -378l32 293q41 -23 90 -23q88 0 88 107v1031h273l398 -457v457h360v-1030h-273l-398 457v-485q0 -179 -101 -286q-100 -106 -260 -106q-126 0 -209 42z" />
    <glyph glyph-name="Eng.smcp" horiz-adv-x="1273" 
d="M481 0h-360v1030h273l398 -457v457h360v-1058q0 -179 -101 -286q-100 -106 -260 -106q-127 0 -209 42l32 293q41 -23 90 -23q88 0 88 107v101l-311 357v-457z" />
    <glyph glyph-name="Ograve.smcp" horiz-adv-x="1221" 
d="M612 -20q-247 0 -402 149q-154 148 -154 388q0 237 154 385t402 148q246 0 400 -148q153 -148 153 -386t-153 -387q-154 -149 -400 -149zM613 750q-92 0 -149 -65q-58 -64 -58 -169q0 -108 58 -173q57 -66 149 -66q91 0 147 66q55 65 55 173q0 105 -55 169
q-56 65 -147 65zM457 1156l-287 334h432l167 -334h-312z" />
    <glyph glyph-name="Oacute.smcp" horiz-adv-x="1221" 
d="M612 -20q-247 0 -402 149q-154 148 -154 388q0 237 154 385t402 148q246 0 400 -148q153 -148 153 -386t-153 -387q-154 -149 -400 -149zM406 516q0 -108 58 -173q57 -66 149 -66q91 0 147 66q55 65 55 173q0 105 -55 169q-56 65 -147 65q-92 0 -149 -65
q-58 -64 -58 -169zM787 1153h-312l167 334h432z" />
    <glyph glyph-name="Ocircumflex.smcp" horiz-adv-x="1221" 
d="M56 517q0 237 154 385t402 148q246 0 400 -148q153 -148 153 -386t-153 -387q-154 -149 -400 -149q-247 0 -402 149q-154 148 -154 388zM506 1125h-311l287 370h257l287 -370h-312l-104 160zM406 516q0 -108 58 -173q57 -66 149 -66q91 0 147 66q55 65 55 173
q0 105 -55 169q-56 65 -147 65q-92 0 -149 -65q-58 -64 -58 -169z" />
    <glyph glyph-name="Otilde.smcp" horiz-adv-x="1221" 
d="M612 -20q-247 0 -402 149q-154 148 -154 388q0 237 154 385t402 148q246 0 400 -148q153 -148 153 -386t-153 -387q-154 -149 -400 -149zM346 1150l-140 127q114 230 288 230q74 0 144 -46t112 -46q60 0 129 77l137 -117q-37 -75 -90 -129t-106 -76q-48 -22 -99 -22
q-36 -2 -85 21t-94 46t-71 22q-60 0 -125 -87zM406 516q0 -108 58 -173q57 -66 149 -66q91 0 147 66q55 65 55 173q0 105 -55 169q-56 65 -147 65q-92 0 -149 -65q-58 -64 -58 -169z" />
    <glyph glyph-name="Odieresis.smcp" horiz-adv-x="1221" 
d="M56 517q0 237 154 385t402 148q246 0 400 -148q153 -148 153 -386t-153 -387q-154 -149 -400 -149q-247 0 -402 149q-154 148 -154 388zM406 516q0 -108 58 -173q57 -66 149 -66q91 0 147 66q55 65 55 173q0 105 -55 169q-56 65 -147 65q-92 0 -149 -65q-58 -64 -58 -169
zM639 1350q0 75 46.5 121.5t119.5 46.5q75 0 122 -47t47 -121t-47 -120t-122 -46q-73 0 -119.5 46t-46.5 120zM536 1230q-46 -46 -121 -46q-74 0 -120 46q-47 47 -47 120q0 75 46.5 121.5t120.5 46.5t121 -47t47 -121q0 -73 -47 -120z" />
    <glyph glyph-name="Omacron.smcp" horiz-adv-x="1221" 
d="M56 517q0 237 154 385t402 148q246 0 400 -148q153 -148 153 -386t-153 -387q-154 -149 -400 -149q-247 0 -402 149q-154 148 -154 388zM406 516q0 -108 58 -173q57 -66 149 -66q91 0 147 66q55 65 55 173q0 105 -55 169q-56 65 -147 65q-92 0 -149 -65q-58 -64 -58 -169
zM906 1423v-234h-591v234h591z" />
    <glyph glyph-name="Obreve.smcp" horiz-adv-x="1221" 
d="M612 -20q-247 0 -402 149q-154 148 -154 388q0 237 154 385t402 148q246 0 400 -148q153 -148 153 -386t-153 -387q-154 -149 -400 -149zM610 1144q-158 0 -252 96q-95 97 -95 257h249q-2 -61 24.5 -97.5t73.5 -36.5q48 0 74.5 36.5t23.5 97.5h250q0 -162 -94 -257
q-94 -96 -254 -96zM406 516q0 -108 58 -173q57 -66 149 -66q91 0 147 66q55 65 55 173q0 105 -55 169q-56 65 -147 65q-92 0 -149 -65q-58 -64 -58 -169z" />
    <glyph glyph-name="Ohungarumlaut.smcp" horiz-adv-x="1221" 
d="M56 517q0 237 154 385t402 148q246 0 400 -148q153 -148 153 -386t-153 -387q-154 -149 -400 -149q-247 0 -402 149q-154 148 -154 388zM406 516q0 -108 58 -173q57 -66 149 -66q91 0 147 66q55 65 55 173q0 105 -55 169q-56 65 -147 65q-92 0 -149 -65q-58 -64 -58 -169
zM1285 1487l-308 -334h-291l197 334h402zM583 1153h-291l167 334h372z" />
    <glyph glyph-name="Odotbelow.smcp" horiz-adv-x="1221" 
d="M612 -20q-247 0 -402 149q-154 148 -154 388q0 237 154 385t402 148q246 0 400 -148q153 -148 153 -386t-153 -387q-154 -149 -400 -149zM406 516q0 -108 58 -173q57 -66 149 -66q91 0 147 66q55 65 55 173q0 105 -55 169q-56 65 -147 65q-92 0 -149 -65
q-58 -64 -58 -169zM410 -287q0 83 60 141q59 59 138 59q82 0 143 -61q60 -60 60 -139q0 -82 -62 -138t-141 -56q-81 0 -139 58q-59 59 -59 136z" />
    <glyph glyph-name="Oogonek.smcp" horiz-adv-x="1221" 
d="M511 -13q-206 30 -331 174q-124 143 -124 356q0 237 154 385t402 148q246 0 400 -148q153 -148 153 -386q0 -196 -105 -334q-107 -138 -287 -183q-93 -48 -143.5 -94t-50.5 -83q0 -31 22.5 -49t60.5 -18q62 0 119 27l64 -206q-93 -57 -230 -57q-129 0 -204 60
q-76 61 -76 161q0 137 176 247zM613 750q-92 0 -149 -65q-58 -64 -58 -169q0 -108 58 -173q57 -66 149 -66q91 0 147 66q55 65 55 173q0 105 -55 169q-56 65 -147 65z" />
    <glyph glyph-name="Oslash.smcp" horiz-adv-x="1280" 
d="M928 983l157 190l121 -96l-154 -186q143 -146 143 -375q0 -238 -153 -387q-154 -149 -400 -149q-162 0 -289 67l-158 -190l-121 96l155 187q-143 149 -143 377q0 237 154 385t402 148q161 0 286 -67zM827 620l-269 -325q37 -18 85 -18q91 0 147 66q55 65 55 173
q0 58 -18 104zM454 411l268 324q-36 15 -79 15q-92 0 -149 -65q-58 -64 -58 -169q0 -58 18 -105z" />
    <glyph glyph-name="Oslashacute.smcp" horiz-adv-x="1274" 
d="M350 47l-158 -190l-121 96l155 187q-143 149 -143 377q0 237 154 385t402 148q161 0 286 -67l157 190l121 -96l-154 -186q143 -146 143 -375q0 -238 -153 -387q-154 -149 -400 -149q-162 0 -289 67zM1105 1471l-287 -334h-312l167 334h432zM824 620l-269 -325
q37 -18 85 -18q92 0 147 66q55 65 55 173q0 58 -18 104zM451 411l268 324q-36 15 -79 15q-92 0 -149 -65q-58 -64 -58 -169q0 -58 18 -105z" />
    <glyph glyph-name="OE.smcp" horiz-adv-x="1687" 
d="M607 -20q-244 0 -398 149q-153 149 -153 386q0 239 153 387q152 148 398 148q144 0 248 -79v59h774v-265h-449v-123h405v-257h-405v-120h447v-265h-772v64q-102 -84 -248 -84zM405 515q0 -106 58 -170q57 -66 147 -66q99 0 159 66q60 65 60 170t-60 171q-62 65 -159 65
q-90 0 -147 -66q-58 -65 -58 -170z" />
    <glyph glyph-name="Racute.smcp" horiz-adv-x="1110" 
d="M491 0h-370v1030h576q157 0 266 -100t109 -257q0 -95 -46.5 -173t-127.5 -126l187 -374h-371l-143 323h-80v-323zM693 1153h-312l167 334h432zM624 764h-133v-176h133q35 0 58 25.5t23 62.5q0 39 -21.5 63.5t-59.5 24.5z" />
    <glyph glyph-name="Rcaron.smcp" horiz-adv-x="1110" 
d="M121 0v1030h576q157 0 266 -100t109 -257q0 -95 -46.5 -173t-127.5 -126l187 -374h-371l-143 323h-80v-323h-370zM410 1133l-287 370h311l104 -160l104 160h312l-287 -370h-257zM491 764v-176h133q35 0 58 25.5t23 62.5q0 39 -21.5 63.5t-59.5 24.5h-133z" />
    <glyph glyph-name="Rcommaaccent.smcp" horiz-adv-x="1110" 
d="M491 323v-323h-370v1030h576q157 0 266 -100t109 -257q0 -95 -46.5 -173t-127.5 -126l187 -374h-371l-143 323h-80zM405 -548l-7 462h342l-79 -462h-256zM624 764h-133v-176h133q35 0 58 25.5t23 62.5q0 39 -21.5 63.5t-59.5 24.5z" />
    <glyph glyph-name="Sacute.smcp" horiz-adv-x="1018" 
d="M50 199l227 198q50 -68 115 -103t130 -35q91 0 91 41q0 28 -36 44q-34 16 -148 49q-190 55 -272 147q-68 75 -68 185q0 140 121 233q121 92 304 92q140 0 252 -59q112 -60 167 -150l-217 -182q-86 111 -198 111q-37 0 -60 -11.5t-23 -30.5q0 -22 29.5 -37t114.5 -42
q7 -2 19 -5.5t16 -5.5q135 -44 206 -88q46 -28 75 -63q64 -76 64 -189q0 -141 -121 -229q-122 -89 -317 -89q-160 0 -279 57t-192 162zM682 1153h-312l167 334h432z" />
    <glyph glyph-name="Scircumflex.smcp" horiz-adv-x="1018" 
d="M521 -20q-160 0 -279 57t-192 162l227 198q50 -68 115 -103t130 -35q91 0 91 41q0 28 -36 44q-34 16 -148 49q-190 55 -272 147q-68 75 -68 185q0 140 121 233q121 92 304 92q140 0 252 -59q112 -60 167 -150l-217 -182q-86 111 -198 111q-37 0 -60 -11.5t-23 -30.5
q0 -22 29.5 -37t114.5 -42q7 -2 19 -5.5t16 -5.5q135 -44 206 -88q46 -28 75 -63q64 -76 64 -189q0 -141 -121 -229q-122 -89 -317 -89zM536 1285l-104 -160h-311l287 370h257l287 -370h-312z" />
    </font>
</defs>
</svg>
