<?xml version="1.0" standalone="no"?>
<!DOCTYPE svg PUBLIC "-//W3C//DTD SVG 1.1//EN" "http://www.w3.org/Graphics/SVG/1.1/DTD/svg11.dtd" >
<svg xmlns="http://www.w3.org/2000/svg" xmlns:xlink="http://www.w3.org/1999/xlink" version="1.1">
<metadata>
Created by FontForge 20170731 at Sun Sep 13 23:32:23 2020
 By Aleksey,,,
Copyright (c) 2020 by TipoType Team. All rights reserved.
</metadata>
<defs>
<font id="Mundial-Regular" horiz-adv-x="1350" >
  <font-face 
    font-family="Mundial"
    font-weight="400"
    font-stretch="normal"
    units-per-em="2048"
    panose-1="0 0 0 0 0 0 0 0 0 0"
    ascent="1638"
    descent="-410"
    x-height="960"
    cap-height="1358"
    bbox="-257 -518 2619 2296"
    underline-thickness="150"
    underline-position="-950"
    unicode-range="U+000D-FB04"
  />
<missing-glyph horiz-adv-x="1360" 
d="M681 776l-243 242l-97 -97l242 -240l-244 -245l97 -97l245 242l243 -242l97 97l-244 245l242 240l-97 97zM1189 0h-1018v1358h1018v-1358z" />
    <glyph glyph-name="f_f" unicode="ff" horiz-adv-x="1417" 
d="M224 792h-181v168h184v104q0 171 100 267.5t272 96.5q92 0 159 -35l-21 -164q-54 25 -129 25q-97 0 -143 -48.5t-46 -152.5v-93h493v104q0 171 100 267.5t272 96.5q92 0 159 -35l-21 -164q-54 25 -129 25q-97 0 -143 -48.5t-46 -152.5v-93h283v-168h-280v-792h-198v792
h-487v-792h-198v792z" />
    <glyph glyph-name="fi" unicode="fi" horiz-adv-x="1234" 
d="M224 0v792h-181v168h184v104q0 171 100 267.5t272 96.5q92 0 159 -35l-21 -164q-54 25 -129 25q-97 0 -143 -48.5t-46 -152.5v-93h283v-168h-280v-792h-198zM983 1160q-54 0 -88 34t-34 88t34 88t88 34q55 0 89 -33.5t34 -88.5t-34 -88.5t-89 -33.5zM1082 0h-198v960h198
v-960z" />
    <glyph glyph-name="fl" unicode="fl" horiz-adv-x="1234" 
d="M224 0v792h-181v168h184v104q0 171 100 267.5t272 96.5q92 0 159 -35l-21 -164q-54 25 -129 25q-97 0 -143 -48.5t-46 -152.5v-93h283v-168h-280v-792h-198zM884 0v1408h198v-1408h-198z" />
    <glyph glyph-name="f_f_i" unicode="ffi" horiz-adv-x="1919" 
d="M224 0v792h-181v168h184v104q0 171 100 267.5t272 96.5q92 0 159 -35l-21 -164q-54 25 -129 25q-97 0 -143 -48.5t-46 -152.5v-93h493v104q0 171 100 267.5t272 96.5q92 0 159 -35l-21 -164q-54 25 -129 25q-97 0 -143 -48.5t-46 -152.5v-93h283v-168h-280v-792h-198v792
h-487v-792h-198zM1668 1160q-54 0 -88 34t-34 88t34 88t88 34q55 0 89 -33.5t34 -88.5t-34 -88.5t-89 -33.5zM1767 960v-960h-198v960h198z" />
    <glyph glyph-name="f_f_l" unicode="ffl" horiz-adv-x="1919" 
d="M224 0v792h-181v168h184v104q0 171 100 267.5t272 96.5q92 0 159 -35l-21 -164q-54 25 -129 25q-97 0 -143 -48.5t-46 -152.5v-93h493v104q0 171 100 267.5t272 96.5q92 0 159 -35l-21 -164q-54 25 -129 25q-97 0 -143 -48.5t-46 -152.5v-93h283v-168h-280v-792h-198v792
h-487v-792h-198zM1767 0h-198v1408h198v-1408z" />
    <glyph glyph-name=".notdef" horiz-adv-x="1360" 
d="M681 776l-243 242l-97 -97l242 -240l-244 -245l97 -97l245 242l243 -242l97 97l-244 245l242 240l-97 97zM1189 0h-1018v1358h1018v-1358z" />
    <glyph glyph-name="uni0000" horiz-adv-x="0" 
 />
    <glyph glyph-name="uni0000" horiz-adv-x="0" 
 />
    <glyph glyph-name="uni000D" unicode="&#xd;" horiz-adv-x="470" 
 />
    <glyph glyph-name="space" unicode=" " horiz-adv-x="470" 
 />
    <glyph glyph-name="exclam" unicode="!" horiz-adv-x="545" 
d="M185 368l-31 990h241l-38 -990h-172zM359 16q-36 -36 -88 -36q-53 0 -87 36q-35 35 -35 86q0 50 35 87q34 36 87 36q52 0 88 -36q35 -37 35 -87q0 -51 -35 -86z" />
    <glyph glyph-name="quotedbl" unicode="&#x22;" horiz-adv-x="770" 
d="M479 918l-33 510h219l-33 -510h-153zM138 918l-33 510h219l-33 -510h-153z" />
    <glyph glyph-name="numbersign" unicode="#" horiz-adv-x="1418" 
d="M315 352h-243l28 154h245q11 64 33 189t33 189h-244l27 153h241l57 321h175l-54 -321h309l58 321h176l-56 -321h248l-27 -153h-247l-67 -378h246l-29 -154h-243l-66 -353h-178l66 353h-310l-67 -353h-178zM901 884h-315l-67 -378h315z" />
    <glyph glyph-name="dollar" unicode="$" horiz-adv-x="1197" 
d="M81 288l157 109q84 -173 264 -216v437q-173 59 -270 139q-109 88 -108 243q2 105 56 186t137 126q82 45 185 60v164h180v-165q137 -19 238 -95q99 -75 153 -178l-163 -114q-37 69 -96 119.5t-132 70.5v-405q17 -6 35 -12t36.5 -12.5t26.5 -9.5q47 -19 87 -37
q79 -37 143 -95q86 -82 92 -238q0 -84 -35.5 -154.5t-95.5 -116.5t-133.5 -74.5t-155.5 -36.5v-159h-180v165q-150 22 -260 104t-161 195zM891 363q0 65 -49 109t-160 85v-383q95 15 152 65.5t57 123.5zM335 1001q0 -61 38.5 -98.5t128.5 -71.5v346q-76 -18 -121.5 -64.5
t-45.5 -111.5z" />
    <glyph glyph-name="percent" unicode="%" horiz-adv-x="1837" 
d="M444 622q-165 0 -274 109q-111 109 -111 269t111 269q109 109 274 109q166 0 276 -108q110 -110 110 -270q0 -159 -110 -269q-109 -109 -276 -109zM1392 -20q-165 0 -274 109q-111 109 -111 269t111 269q109 109 274 109q166 0 276 -108q110 -110 110 -270
q0 -159 -110 -269q-109 -109 -276 -109zM479 0v26l734 1332h145v-24l-732 -1334h-147zM1239 513q-62 -64 -62 -155q0 -92 62 -154q61 -63 153 -63q94 0 156 63q61 61 61 154t-61 155q-62 62 -156 62q-91 0 -153 -62zM444 1217q-91 0 -153 -62q-62 -64 -62 -155
q0 -92 62 -154q61 -63 153 -63q94 0 156 63q61 61 61 154t-61 155q-62 62 -156 62z" />
    <glyph glyph-name="ampersand" unicode="&#x26;" horiz-adv-x="1369" 
d="M77 355q0 110 73 204t212 164q-85 84 -121.5 154.5t-36.5 148.5q0 155 113 254q113 98 290 98q169 0 278 -93q108 -93 108 -237q0 -222 -330 -362l320 -305q40 64 40 191q0 71 -15 170h188q12 -106 12 -165q0 -193 -90 -313l275 -264h-272l-131 122q-184 -142 -415 -142
q-219 0 -359 105q-139 105 -139 270zM275 365q0 -93 87 -151q85 -60 220 -60q172 0 278 94l-373 355q-62 -30 -104 -59q-31 -20 -55 -46q-53 -61 -53 -133zM397 1031q0 -49 25 -97q10 -19 33 -44q23 -27 36 -39q14 -16 46 -45q137 60 200 114.5t63 121.5q0 74 -53 119.5
t-138 45.5q-95 0 -153 -49q-59 -50 -59 -127z" />
    <glyph glyph-name="quotesingle" unicode="'" horiz-adv-x="429" 
d="M324 1428l-33 -510h-153l-33 510h219z" />
    <glyph glyph-name="parenleft" unicode="(" horiz-adv-x="596" 
d="M87 580q0 192 42 373q42 180 104 320q65 145 152 287h197q-8 -11 -31 -51q-21 -37 -69 -139q-55 -117 -88 -215q-38 -106 -70 -267q-31 -155 -31 -308q0 -223 58 -428q24 -90 57 -182q61 -172 162 -344l16 -26h-200q-126 167 -212 436q-87 268 -87 544z" />
    <glyph glyph-name="parenright" unicode=")" horiz-adv-x="596" 
d="M210 -400h-200q16 25 32 51q18 31 70 139q53 114 89 215q40 113 71 267q31 155 31 308q0 219 -57 429q-23 83 -56 181q-58 164 -160 344l-16 26h197q91 -149 153 -287q60 -135 103 -320q42 -182 42 -373q0 -274 -86 -544q-88 -270 -213 -436z" />
    <glyph glyph-name="asterisk" unicode="*" horiz-adv-x="924" 
d="M384 1408h156l-10 -271l247 91l48 -149l-257 -74l180 -229l-126 -92l-160 237l-160 -237l-126 92l180 229l-257 74l48 149l246 -91z" />
    <glyph glyph-name="plus" unicode="+" horiz-adv-x="1159" 
d="M47 583v197h427v425h208v-425h429v-197h-429v-432h-208v432h-427z" />
    <glyph glyph-name="comma" unicode="," horiz-adv-x="475" 
d="M30 -263l127 516h208l-160 -516h-175z" />
    <glyph glyph-name="hyphen" unicode="-" horiz-adv-x="908" 
d="M126 667h656v-184h-656v184z" />
    <glyph glyph-name="period" unicode="." horiz-adv-x="437" 
d="M131 16q-35 35 -35 86q0 50 35 87q35 36 87 36t88 -36q35 -37 35 -87q0 -51 -35 -86q-36 -36 -88 -36t-87 36z" />
    <glyph glyph-name="slash" unicode="/" horiz-adv-x="1078" 
d="M825 1529h215l-786 -1929h-214z" />
    <glyph glyph-name="zero" unicode="0" horiz-adv-x="1279" 
d="M1035 170q-147 -190 -395 -190t-395 190q-147 189 -147 509q0 319 147 509t395 190t395 -190q146 -191 146 -509q0 -319 -146 -509zM640 1180q-150 0 -241 -136t-91 -365q0 -231 91 -365q91 -135 241 -135t241 136q90 135 90 364t-91 365t-240 136z" />
    <glyph glyph-name="one" unicode="1" horiz-adv-x="682" 
d="M505 0h-210v1168h-259v190h469v-1358z" />
    <glyph glyph-name="two" unicode="2" horiz-adv-x="1097" 
d="M252 977l-177 85q49 140 174 228q124 88 275 88q201 0 331 -116q128 -117 128 -301q0 -87 -33 -170q-22 -54 -89 -131q-40 -45 -122 -107q-34 -25 -69 -50q-17 -12 -39 -29t-28 -21q-63 -48 -91 -70q-40 -31 -80 -66q-93 -79 -94 -118h667v-199h-910v91q6 116 55 194
q44 70 81 108l48 48q17 17 53 47q51 41 53 42q26 19 56 42q37 28 51 39q74 58 94 73q24 20 73 65q39 37 58 67q46 72 46 141q0 99 -66 160q-68 62 -173 62q-88 0 -162 -54q-74 -56 -110 -148z" />
    <glyph glyph-name="three" unicode="3" horiz-adv-x="1111" 
d="M77 285l176 97q39 -96 118 -150.5t180 -54.5q107 0 177 58q70 57 70 145q0 96 -77 156t-200 60h-169v183h169q105 0 175 55q70 54 70 158q0 85 -66 139q-67 53 -170 53q-98 0 -171 -57q-74 -59 -107 -138l-175 94q55 137 177 216q119 79 272 79q200 0 328 -107
q127 -106 127 -276q0 -101 -53 -183q-52 -82 -142 -117q103 -34 165 -121q62 -88 62 -197q0 -172 -129 -284q-131 -113 -329 -113q-166 0 -292 81q-127 81 -186 224z" />
    <glyph glyph-name="four" unicode="4" horiz-adv-x="1164" 
d="M691 350h-645v175l604 833h248v-823h200v-184h-200v-352h-207v351zM691 535v564l-401 -564h401z" />
    <glyph glyph-name="five" unicode="5" horiz-adv-x="1104" 
d="M534 -20q-163 0 -287 82q-126 82 -184 228l175 97q39 -97 118.5 -153.5t181.5 -56.5q118 0 194 71q75 70 75 178q0 110 -71 186q-70 75 -198 75q-136 0 -246 -99l-159 65l64 705h759v-199h-579l-33 -350q86 63 210 63q206 0 337 -122q131 -123 131 -324q0 -198 -139 -322
t-349 -124z" />
    <glyph glyph-name="six" unicode="6" horiz-adv-x="1189" 
d="M634 -20q-111 0 -201 33.5t-151.5 92t-103.5 141t-61 178t-19 205.5q0 339 147 538q75 102 195 156t275 54q192 0 323 -77l-61 -179q-120 66 -258 66q-388 0 -412 -463q50 83 143 122q94 38 194 38q180 0 319 -103q71 -52 111.5 -140.5t40.5 -200.5q0 -205 -135 -333
q-137 -128 -346 -128zM616 699q-120 0 -197 -71q-78 -72 -78 -191q0 -121 79 -197q80 -77 200 -77q125 0 203 75q77 75 77 196q0 124 -75.5 194.5t-208.5 70.5z" />
    <glyph glyph-name="seven" unicode="7" horiz-adv-x="969" 
d="M54 1159v199h876v-172q-352 -576 -558 -1186h-228q210 630 546 1159h-636z" />
    <glyph glyph-name="eight" unicode="8" horiz-adv-x="1176" 
d="M587 -20q-221 0 -357 111q-136 109 -136 290q0 236 232 333q-180 88 -180 293q0 169 121 271q120 102 320 102q203 0 324 -102t121 -271q0 -99 -47.5 -175.5t-140.5 -118.5q238 -97 238 -332q0 -182 -136 -291q-137 -110 -359 -110zM587 617q-129 0 -206 -60t-77 -162
q0 -101 78 -165q79 -65 205 -65q129 0 209 65q78 64 78 165q0 102 -77 162q-78 60 -210 60zM353 998q0 -91 63.5 -145.5t170.5 -54.5q109 0 173.5 54.5t64.5 145.5q0 85 -65 141q-65 55 -173 55q-105 0 -169 -55q-65 -56 -65 -141z" />
    <glyph glyph-name="nine" unicode="9" horiz-adv-x="1187" 
d="M553 473q-216 0 -346 121t-130 323q0 212 134 337q133 124 355 124q133 0 236 -50t165 -141q122 -179 122 -459q0 -336 -144 -537q-74 -102 -192 -156.5t-271 -54.5q-201 0 -338 92l71 178q122 -78 253 -78q174 0 287 120q112 120 120 341q-47 -78 -130.5 -119
t-191.5 -41zM574 1195q-129 0 -205 -73q-77 -74 -77 -198q0 -128 73.5 -196.5t207.5 -68.5q124 0 196 79q72 78 72 183q0 109 -72 192q-72 82 -195 82z" />
    <glyph glyph-name="colon" unicode=":" horiz-adv-x="495" 
d="M160 16q-35 35 -35 86q0 50 35 87q34 36 87 36q52 0 88 -36q35 -37 35 -87q0 -51 -35 -86q-36 -36 -88 -36q-53 0 -87 36zM160 771q-35 35 -35 86q0 50 35 87q34 36 87 36q52 0 88 -36q35 -37 35 -87q0 -51 -35 -86q-36 -36 -88 -36q-53 0 -87 36z" />
    <glyph glyph-name="semicolon" unicode=";" horiz-adv-x="525" 
d="M224 -263h-175l127 516h208zM193 771q-35 35 -35 86q0 50 35 87q35 36 87 36t88 -36q35 -37 35 -87q0 -51 -35 -86q-36 -36 -88 -36t-87 36z" />
    <glyph glyph-name="less" unicode="&#x3c;" horiz-adv-x="1152" 
d="M1004 384v-217l-909 401v218l909 412v-217l-694 -303z" />
    <glyph glyph-name="equal" unicode="=" horiz-adv-x="1314" 
d="M1184 531v-201h-1054v201h1054zM130 826v200h1054v-200h-1054z" />
    <glyph glyph-name="greater" unicode="&#x3e;" horiz-adv-x="1152" 
d="M148 384l694 294l-694 303v217l909 -412v-218l-909 -401v217z" />
    <glyph glyph-name="question" unicode="?" horiz-adv-x="1012" 
d="M228 977l-177 85q50 143 173 229q124 87 276 87q192 0 312 -105q120 -106 120 -275q0 -84 -44 -170q-14 -28 -52 -76q-29 -35 -57 -65q-14 -15 -65 -66l-21 -21q-35 -35 -57 -59q-22 -25 -40 -55q-42 -62 -34 -165h-191q-8 43 -8 76q0 70 37 148q11 24 44 66q32 41 48 57
q4 5 12 13t20.5 22t23.5 25q93 97 121 137q43 62 43 129q0 83 -59 134t-156 51q-90 0 -159.5 -54.5t-109.5 -147.5zM560 14q-34 -34 -89 -34q-54 0 -88 34t-34 88t34 88t88 34q55 0 89 -34t34 -88t-34 -88z" />
    <glyph glyph-name="at" unicode="@" horiz-adv-x="1910" 
d="M78 535q0 193 72 358q69 163 193 277q124 113 288 175.5t345 62.5q169 0 325 -63q155 -63 270 -171q115 -110 183 -263q68 -156 68 -326q0 -241 -95 -371.5t-269 -130.5q-86 0 -149 47t-98 130q-34 -67 -119 -110t-195 -43q-177 0 -292 117q-116 116 -116 306t117 309
q115 118 291 118q190 0 291 -128l9 111h148v-545q0 -180 145 -180q88 0 136 105q48 103 48 265q0 139 -52.5 265.5t-146.5 218.5q-95 92 -227.5 144.5t-280.5 52.5q-334 0 -539 -202q-206 -203 -206 -531q0 -204 97 -370q97 -165 265 -260q168 -93 372 -93q210 0 417 108
l58 -120q-239 -132 -475 -132q-178 0 -337 64q-162 65 -280 177q-118 111 -190 277q-71 165 -71 351zM650 536q0 -117 73 -197q73 -81 189 -81q117 0 193 82q76 80 76 196q0 115 -76 192q-77 78 -193 78q-117 0 -189 -77q-73 -77 -73 -193z" />
    <glyph glyph-name="A" unicode="A" horiz-adv-x="1370" 
d="M342 283l-108 -283h-224l561 1358h228l561 -1358h-224l-108 283h-686zM685 1123l-280 -665h560z" />
    <glyph glyph-name="B" unicode="B" horiz-adv-x="1317" 
d="M802 0h-626v1358h586q186 0 301 -110q113 -110 113 -270q0 -84 -40 -158q-40 -75 -109 -116q95 -41 147 -124q53 -86 53 -187q0 -168 -121 -280q-122 -113 -304 -113zM802 603h-415v-415h415q97 0 157 61t60 148q0 84 -61 145t-156 61zM387 1171v-391h375q92 0 147 57
q55 55 55 136q0 79 -54 139q-56 59 -148 59h-375z" />
    <glyph glyph-name="C" unicode="C" horiz-adv-x="1439" 
d="M87 679q0 195 92 356q91 161 252 252q160 91 354 91q185 0 342 -87q158 -87 255 -244l-163 -114q-163 246 -434 246q-209 0 -343 -141q-135 -141 -135 -359q0 -217 137 -359q136 -141 346 -141q135 0 247.5 61.5t192.5 178.5l157 -109q-96 -156 -253 -243t-344 -87
q-144 0 -274.5 53.5t-224.5 147.5q-95 94 -149.5 224t-54.5 274z" />
    <glyph glyph-name="D" unicode="D" horiz-adv-x="1508" 
d="M176 0v1357h546q199 0 359 -88q159 -89 249 -243q90 -156 90 -348q3 -142 -50.5 -268.5t-147 -217.5t-224 -143t-276.5 -49h-546zM386 1169v-979h333q138 -2 250 63.5t172.5 178t58.5 246.5q0 208 -134 350q-134 141 -347 141h-333z" />
    <glyph glyph-name="E" unicode="E" horiz-adv-x="1236" 
d="M1149 0h-973v1358h952v-191h-742v-374h637v-191h-637v-411h763v-191z" />
    <glyph glyph-name="F" unicode="F" horiz-adv-x="1177" 
d="M386 0h-210v1358h945v-191h-735v-379h577v-191h-577v-597z" />
    <glyph glyph-name="G" unicode="G" horiz-adv-x="1525" 
d="M790 -20q-144 0 -274.5 53.5t-224.5 147.5q-95 94 -149.5 224t-54.5 274q0 195 92 356q91 161 252 252q160 91 354 91q181 0 331.5 -81t248.5 -227l-163 -114q-85 115 -185.5 169t-231.5 54q-209 0 -344 -141t-135 -359q0 -217 137 -359q137 -141 347 -141q188 0 301 97
q113 98 135 244h-468v190h686q4 -32 4 -79q0 -132 -44.5 -250t-127.5 -208q-84 -91 -210 -142t-276 -51z" />
    <glyph glyph-name="H" unicode="H" horiz-adv-x="1508" 
d="M176 0v1358h210v-570h736v570h210v-1358h-210v598h-736v-598h-210z" />
    <glyph glyph-name="I" unicode="I" horiz-adv-x="562" 
d="M176 1358h210v-1358h-210v1358z" />
    <glyph glyph-name="J" unicode="J" horiz-adv-x="1041" 
d="M413 -20q-128 0 -233 54t-174 154l138 141q117 -155 268 -155q121 0 188.5 82.5t67.5 231.5v870h210v-885q0 -231 -123 -362q-125 -131 -342 -131z" />
    <glyph glyph-name="K" unicode="K" horiz-adv-x="1310" 
d="M386 0h-210v1358h210v-675l622 675h271l-510 -554l544 -804h-256l-436 662l-235 -253v-409z" />
    <glyph glyph-name="L" unicode="L" horiz-adv-x="1193" 
d="M387 191h773v-191h-984v1358h211v-1167z" />
    <glyph glyph-name="M" unicode="M" horiz-adv-x="1788" 
d="M388 0h-212v1358h249l469 -966l470 966h248v-1358h-212v973l-431 -877h-150l-431 877v-973z" />
    <glyph glyph-name="N" unicode="N" horiz-adv-x="1599" 
d="M386 1025v-1025h-210v1358h210l827 -1035v1035h210v-1358h-212z" />
    <glyph glyph-name="O" unicode="O" horiz-adv-x="1579" 
d="M789 -20q-198 0 -358 88t-251 248q-92 160 -92 361q0 200 92 361q92 162 251 251q161 89 358 89q148 0 278.5 -52t224.5 -145q94 -95 146.5 -225.5t52.5 -278.5q0 -203 -91 -361q-91 -160 -251 -248t-360 -88zM308 679q0 -225 133 -362q133 -138 348 -138q218 0 350 138
q132 136 132 362q0 221 -132 361q-133 139 -350 139q-213 0 -347 -140t-134 -360z" />
    <glyph glyph-name="P" unicode="P" horiz-adv-x="1250" 
d="M386 506v-506h-210v1357h558q209 0 335 -117q126 -118 126 -308q0 -188 -126 -307q-128 -119 -335 -119h-348zM725 1166h-339v-468h339q119 0 185 66t66 168t-65 169q-67 65 -186 65z" />
    <glyph glyph-name="Q" unicode="Q" horiz-adv-x="1580" 
d="M789 -20q-198 0 -358 88t-251 248q-92 160 -92 361q0 200 92 361q92 162 251 251q161 89 358 89q148 0 278.5 -52t224.5 -145q94 -95 146.5 -225.5t52.5 -278.5q0 -163 -61 -300t-173 -233l162 -219l-156 -108l-167 226q-141 -63 -307 -63zM789 1179q-213 0 -347 -140
t-134 -360q0 -225 133 -362q133 -138 348 -138q96 0 183 30l-153 207l154 112l160 -217q138 138 138 368q0 221 -132 361q-133 139 -350 139z" />
    <glyph glyph-name="R" unicode="R" horiz-adv-x="1333" 
d="M176 0v1357h584q211 0 337 -111q125 -111 125 -301q0 -137 -73 -237.5t-202 -145.5l329 -562h-244l-307 533h-339v-533h-210zM750 1168h-364v-448h364q120 0 186.5 60.5t66.5 164.5q0 105 -65.5 164t-187.5 59z" />
    <glyph glyph-name="S" unicode="S" horiz-adv-x="1202" 
d="M92 288l157 109q52 -108 148 -168t226 -60q120 0 200 53q79 52 79 141q0 80 -71 128q-73 48 -237 100q-79 25 -148 52q-56 21 -124 59q-64 34 -102 75q-86 92 -85 223q1 72 27.5 134t71 106.5t103.5 76t125 46.5t135 15q176 0 300 -79t187 -201l-163 -114
q-47 86 -131 146q-84 57 -193 57q-103 0 -177 -50t-74 -136q0 -21 4 -39t15.5 -34t21 -27.5t33 -25t38.5 -21.5t49 -20.5t53.5 -19.5t63.5 -22q18 -7 25 -8q192 -66 269 -107q147 -80 181 -206q14 -50 14 -106q0 -91 -42 -167t-114 -123q-145 -95 -330 -95q-192 0 -332 86
q-142 86 -203 222z" />
    <glyph glyph-name="T" unicode="T" horiz-adv-x="1160" 
d="M476 1161h-448v197h1104v-197h-447v-1161h-209v1161z" />
    <glyph glyph-name="U" unicode="U" horiz-adv-x="1463" 
d="M1148 119q-154 -139 -416 -139t-416 139q-155 140 -155 372v867h208v-858q0 -148 99 -237q97 -88 264 -88t264 88q98 89 98 237v858h208v-867q0 -233 -154 -372z" />
    <glyph glyph-name="V" unicode="V" horiz-adv-x="1328" 
d="M789 0h-250l-523 1358h219l429 -1134l429 1134h219z" />
    <glyph glyph-name="W" unicode="W" horiz-adv-x="2039" 
d="M408 0l-378 1358h210l338 -1169l329 1147h225l329 -1147l337 1169h211l-378 -1358h-339l-273 1006l-272 -1006h-339z" />
    <glyph glyph-name="X" unicode="X" horiz-adv-x="1286" 
d="M268 0h-263l502 698l-477 660h262l351 -501l349 501h263l-476 -660l502 -698h-263l-375 532z" />
    <glyph glyph-name="Y" unicode="Y" horiz-adv-x="1269" 
d="M530 522l-515 836h250l369 -614l370 614h250l-515 -836v-522h-209v522z" />
    <glyph glyph-name="Z" unicode="Z" horiz-adv-x="1206" 
d="M1129 0h-1049v166l765 1001h-755v191h1029v-169l-767 -998h777v-191z" />
    <glyph glyph-name="bracketleft" unicode="[" horiz-adv-x="651" 
d="M611 -257v-143h-438v1953h438v-143h-253v-1667h253z" />
    <glyph glyph-name="backslash" unicode="\" horiz-adv-x="1078" 
d="M824 -400l-786 1929h215l785 -1929h-214z" />
    <glyph glyph-name="bracketright" unicode="]" horiz-adv-x="651" 
d="M293 -257v1667h-253v143h438v-1953h-438v143h253z" />
    <glyph glyph-name="asciicircum" unicode="^" horiz-adv-x="1155" 
d="M298 510h-243l418 848h209l418 -848h-243l-280 598z" />
    <glyph glyph-name="underscore" unicode="_" horiz-adv-x="1139" 
d="M1051 -89v-170h-963v170h963z" />
    <glyph glyph-name="grave" unicode="`" horiz-adv-x="674" 
d="M524 1473h-171l-203 334h222z" />
    <glyph glyph-name="a" unicode="a" horiz-adv-x="1091" 
d="M88 273q0 135 118 220q117 84 306 84q148 0 242 -45v52q0 91 -68 151q-68 59 -178 59q-78 0 -151 -37t-124 -96l-125 124q59 77 172 137q109 58 231 58q203 0 322 -102t119 -277v-601h-194v124q-44 -68 -123 -106t-176 -38q-163 0 -266 78q-105 78 -105 215zM288 280
q0 -64 57 -101q55 -37 143 -37q115 0 191 69q75 69 75 169q-37 19 -102.5 32.5t-134.5 13.5q-105 0 -167 -37t-62 -109z" />
    <glyph glyph-name="b" unicode="b" horiz-adv-x="1257" 
d="M350 0h-198v1408h198v-579q118 151 342 151q207 0 345 -138q137 -139 137 -357q0 -219 -138 -362t-344 -143q-224 0 -342 151v-131zM351 485q0 -136 91 -231q90 -96 226 -96t222 96q86 95 86 231q0 134 -86 226q-85 91 -222 91t-227 -91t-90 -226z" />
    <glyph glyph-name="c" unicode="c" horiz-adv-x="1097" 
d="M590 -20q-218 0 -363 145q-146 146 -146 356q-2 135 67.5 251.5t190 183.5t259.5 64q140 0 254 -69t183 -194l-153 -104q-45 84 -122 132.5t-166 48.5q-136 0 -225 -89q-88 -89 -88 -224t88 -224q88 -91 221 -91q93 0 168.5 46.5t126.5 133.5l149 -105
q-67 -120 -184 -191q-116 -70 -260 -70z" />
    <glyph glyph-name="d" unicode="d" horiz-adv-x="1257" 
d="M83 485q0 219 138 357q137 138 344 138q224 0 342 -151v579h198v-1408h-198v131q-118 -151 -342 -151q-206 0 -344 143t-138 362zM589 802q-137 0 -222 -91q-86 -92 -86 -226q0 -136 86 -231q85 -96 222 -96q135 0 227 96q90 96 90 231t-90 226t-227 91z" />
    <glyph glyph-name="e" unicode="e" horiz-adv-x="1123" 
d="M82 479q0 216 140 359q139 142 356 142q134 1 241.5 -62t165 -169.5t55.5 -233.5q0 -49 -8 -92h-745q8 -110 91 -183q85 -74 207 -74q184 0 288 164l146 -106q-65 -116 -183 -180t-251 -64q-217 0 -360 143t-143 356zM292 571h547q-9 102 -84 166q-74 64 -179 64
q-110 0 -187 -64q-78 -64 -97 -166z" />
    <glyph glyph-name="f" unicode="f" horiz-adv-x="732" 
d="M224 0v792h-181v168h184v104q0 168 99 266q100 98 273 98q92 0 159 -35l-21 -164q-54 25 -129 25q-97 0 -143 -48.5t-46 -152.5v-93h283v-168h-280v-792h-198z" />
    <glyph glyph-name="g" unicode="g" horiz-adv-x="1257" 
d="M569 -20q-206 0 -344 143t-138 362t138 357q136 138 344 138q224 0 342 -151v131h198v-885q0 -227 -143 -361t-385 -134q-132 0 -250 53.5t-199 152.5l130 129q143 -155 323 -155q149 0 237 79q89 80 89 211v81q-115 -151 -342 -151zM593 802q-137 0 -222 -91
q-86 -92 -86 -226q0 -136 86 -231q85 -96 222 -96q135 0 227 96q90 96 90 231t-90 226t-227 91z" />
    <glyph glyph-name="h" unicode="h" horiz-adv-x="1183" 
d="M350 541v-541h-198v1408h199v-569q30 45 94 89q79 52 201 52q191 0 294 -109q104 -110 104 -288v-583h-198v541q0 119 -61.5 185t-169.5 66q-115 0 -189 -67q-76 -67 -76 -184z" />
    <glyph glyph-name="i" unicode="i" horiz-adv-x="502" 
d="M350 960v-960h-198v960h198zM163 1194q-34 34 -34 88t34 88t88 34q55 0 89 -34t34 -88t-34 -88t-89 -34q-54 0 -88 34z" />
    <glyph glyph-name="j" unicode="j" horiz-adv-x="512" 
d="M25 -420q-95 0 -159 30l21 164q54 -20 124 -20q79 0 115 46t36 145v1015h198v-1026q0 -170 -85 -262t-250 -92zM350 1194q-34 -34 -89 -34q-54 0 -88 34t-34 88t34 88t88 34q55 0 89 -34t34 -88t-34 -88z" />
    <glyph glyph-name="k" unicode="k" horiz-adv-x="1065" 
d="M152 0v1408h200v-865l419 417h272l-413 -402l429 -558h-251l-322 419l-134 -134v-285h-200z" />
    <glyph glyph-name="l" unicode="l" horiz-adv-x="502" 
d="M152 1408h198v-1408h-198v1408z" />
    <glyph glyph-name="m" unicode="m" horiz-adv-x="1860" 
d="M351 0h-199v960h199v-121q30 46 93 89q79 52 198 52t206.5 -46.5t135.5 -132.5q47 77 137 128t206 51q188 0 291 -109t103 -288v-583h-199v541q0 119 -60 185t-166 66q-109 0 -182 -64t-78 -175v-553h-199v541q0 119 -60 185t-166 66q-112 0 -185 -67q-75 -67 -75 -184
v-541z" />
    <glyph glyph-name="n" unicode="n" horiz-adv-x="1188" 
d="M350 541v-541h-198v960h199v-121q30 45 94 89q79 52 201 52q193 0 298 -108q105 -110 105 -289v-583h-198v541q0 119 -62 185t-174 66q-115 0 -189 -67q-76 -67 -76 -184z" />
    <glyph glyph-name="o" unicode="o" horiz-adv-x="1182" 
d="M955 124q-145 -144 -364 -144t-364 144q-146 144 -146 356t146 356q145 144 364 144t364 -144q146 -144 146 -356t-146 -356zM368 704q-89 -91 -89 -224t89 -224q88 -90 223 -90t224 90q88 89 88 224t-88 224q-89 90 -224 90t-223 -90z" />
    <glyph glyph-name="p" unicode="p" horiz-adv-x="1257" 
d="M350 -400h-198v1360h198v-131q118 151 342 151q206 0 344 -142t138 -363q0 -218 -137 -357q-138 -138 -345 -138q-224 0 -342 151v-531zM351 475q0 -133 90 -225t227 -92t222 91q86 92 86 226q0 135 -86 232q-86 95 -222 95t-226 -96q-91 -95 -91 -231z" />
    <glyph glyph-name="q" unicode="q" horiz-adv-x="1253" 
d="M83 475q0 221 138 363t344 142q224 0 342 -151v131h198v-1360h-198v531q-118 -151 -342 -151q-207 0 -344 138q-138 138 -138 357zM281 475q0 -134 86 -226q85 -91 222 -91t227 92t90 225q0 135 -90 231q-92 96 -227 96q-136 0 -222 -95q-86 -97 -86 -232z" />
    <glyph glyph-name="r" unicode="r" horiz-adv-x="769" 
d="M351 523v-523h-199v960h199v-131q78 151 250 151q68 0 115 -18l17 -6l-21 -182q-59 22 -117 22q-89 0 -161 -54q-83 -62 -83 -219z" />
    <glyph glyph-name="s" unicode="s" horiz-adv-x="962" 
d="M78 202l147 119q43 -75 112 -117t156 -42q79 0 129.5 29t50.5 77q0 50 -43 75q-45 25 -157 50q-163 36 -252 96q-101 67 -101 205q0 128 102 207q101 79 253 79q127 0 228 -56q99 -56 152 -142l-133 -114q-92 131 -247 131q-72 0 -115.5 -28t-43.5 -74q4 -35 20 -54.5
t58 -34.5q44 -17 134 -38q168 -42 250 -101q95 -70 95 -201q0 -128 -111 -208q-112 -80 -269 -80q-139 0 -249 60q-111 59 -166 162z" />
    <glyph glyph-name="t" unicode="t" horiz-adv-x="782" 
d="M210 288v504h-171v168h174v308h193v-308h305v-168h-303v-480q0 -75 41 -114t116 -39q78 0 156 33l26 -170q-81 -42 -210 -42q-153 0 -239 82q-88 81 -88 226z" />
    <glyph glyph-name="u" unicode="u" horiz-adv-x="1191" 
d="M139 377v583h198v-541q0 -119 62 -185t172 -66q117 0 194 68q76 67 76 183v541h198v-960h-199v121q-30 -46 -94 -88q-80 -53 -206 -53q-193 0 -296 109q-105 108 -105 288z" />
    <glyph glyph-name="v" unicode="v" horiz-adv-x="1054" 
d="M645 0h-236l-378 960h213l283 -766l283 766h213z" />
    <glyph glyph-name="w" unicode="w" horiz-adv-x="1576" 
d="M592 0h-270l-283 960h209l211 -766l224 756h210l224 -756l211 766h209l-283 -960h-270l-196 683z" />
    <glyph glyph-name="x" unicode="x" horiz-adv-x="1020" 
d="M253 0h-228l362 490l-354 470h228l249 -338l249 338h228l-354 -470l362 -490h-228l-257 359z" />
    <glyph glyph-name="y" unicode="y" horiz-adv-x="1080" 
d="M417 -69l21 55l-414 974h218l299 -756l297 756h218l-460 -1082q-53 -119 -104 -181q-34 -39 -72 -64q-86 -53 -218 -53q-92 0 -159 35l21 164q54 -25 129 -25q91 0 140 43q50 44 84 134z" />
    <glyph glyph-name="z" unicode="z" horiz-adv-x="903" 
d="M834 0h-751v165l495 627h-485v168h710v-165l-495 -627h526v-168z" />
    <glyph glyph-name="braceleft" unicode="{" horiz-adv-x="703" 
d="M36 499v156q10 -1 42 1q88 8 121.5 49t33.5 127v375q0 181 81 274q80 93 278 93q32 0 70 -3v-158q-74 2 -120 -7t-78 -35q-62 -50 -62 -204v-349q0 -194 -108 -241q118 -58 118 -240v-336q0 -90 11.5 -139.5t41.5 -77.5q30 -27 73 -35.5t124 -6.5v-157q-35 -4 -70 -4
q-203 0 -284 106q-75 98 -75 274v361q0 86 -33 127t-119 49q-35 2 -45 1z" />
    <glyph glyph-name="bar" unicode="|" horiz-adv-x="539" 
d="M173 1758h193v-2158h-193v2158z" />
    <glyph glyph-name="braceright" unicode="}" horiz-adv-x="703" 
d="M301 818v349q0 154 -61 204q-33 26 -79 35t-120 7v158q37 3 70 3q198 0 279 -93q80 -94 80 -274v-375q0 -86 33.5 -127t121.5 -49q32 -2 42 -1v-156q-10 1 -45 -1q-86 -8 -119 -49t-33 -127v-361q0 -176 -75 -274q-81 -106 -284 -106q-35 0 -70 4v157q81 -2 124 6.5
t73 35.5q30 28 41.5 77.5t11.5 139.5v336q0 182 118 240q-108 47 -108 241z" />
    <glyph glyph-name="asciitilde" unicode="~" horiz-adv-x="1163" 
d="M211 442l-121 156q169 148 310 148q110 0 190 -51t172 -51q65 0 126 37q4 3 15 10t23.5 16t25.5 18l121 -156q-169 -148 -310 -148q-109 0 -185 52q-75 51 -176 51q-82 0 -191 -82z" />
    <glyph glyph-name="uni00A0" unicode="&#xa0;" horiz-adv-x="470" 
 />
    <glyph glyph-name="exclamdown" unicode="&#xa1;" horiz-adv-x="520" 
d="M345 592l38 -990h-241l31 990h172zM344 771q-36 -36 -88 -36t-87 36q-35 35 -35 86q0 50 35 87q35 36 87 36t88 -36q35 -37 35 -87q0 -51 -35 -86z" />
    <glyph glyph-name="cent" unicode="&#xa2;" horiz-adv-x="1156" 
d="M108 680q0 180 114 317q114 135 291 171v173h171v-165q122 -14 220 -81.5t158 -178.5l-153 -104q-37 68 -96 114t-129 60v-614q144 28 228 173l149 -105q-60 -106 -158.5 -173.5t-218.5 -83.5v-183h-171v189q-179 35 -291 171q-114 136 -114 320zM513 382v594
q-92 -31 -149 -112q-56 -80 -56 -184q0 -103 56 -185q56 -81 149 -113z" />
    <glyph glyph-name="sterling" unicode="&#xa3;" horiz-adv-x="1206" 
d="M1088 189v-189h-1000v174q67 41 105 76t62 85q25 51 25 119v149h-185v178h182v184q0 190 122 303q121 112 311 112q148 0 267 -78q118 -79 166 -223l-174 -89q-89 192 -260 192q-109 0 -171.5 -62t-62.5 -169v-170h384v-178h-383v-118q0 -199 -120 -296h732z" />
    <glyph glyph-name="currency" unicode="&#xa4;" horiz-adv-x="1221" 
d="M268 854l-171 169l147 147l169 -170q94 53 196 53q105 0 200 -53l168 170l147 -147l-170 -169q52 -89 52 -193q0 -109 -57 -198l175 -173l-147 -147l-175 177q-93 -48 -193 -48q-98 0 -188 48l-177 -177l-147 147l174 173q-54 91 -54 198q0 105 51 193zM608 887
q-92 0 -157 -66q-66 -66 -66 -160q0 -91 66 -155q65 -65 157 -65q95 0 163 65q67 64 67 155q0 94 -67 160t-163 66z" />
    <glyph glyph-name="yen" unicode="&#xa5;" horiz-adv-x="1364" 
d="M250 612h270l-477 746h250l389 -623l390 623h250l-478 -746h268v-115h-325v-138h313v-115h-313v-244h-209v244h-317v115h317v138h-328v115z" />
    <glyph glyph-name="brokenbar" unicode="&#xa6;" horiz-adv-x="539" 
d="M366 1758v-848h-193v848h193zM173 -399v848h193v-848h-193z" />
    <glyph glyph-name="section" unicode="&#xa7;" horiz-adv-x="1124" 
d="M553 -342q-171 0 -289 75q-119 77 -180 196l147 106q118 -199 328 -199q111 0 179 45q68 47 68 123t-65 120q-67 44 -224 92q-72 23 -131 45q-52 19 -111 51q-58 31 -92 67q-79 83 -79 204q0 129 125 215q-102 92 -102 233q0 145 123 246q124 101 299 101q165 0 281 -71
q117 -73 175 -182l-143 -103q-48 77 -128 125q-83 50 -185 50q-101 0 -159 -48q-59 -48 -59 -117q0 -77 67 -120q67 -44 225 -92q69 -21 132 -44q53 -20 111 -51q56 -31 92 -67q78 -81 78 -205q0 -130 -125 -214q102 -91 102 -234q0 -147 -129 -247q-130 -100 -331 -100z
M561 645q-117 34 -191 67q-70 -46 -70 -119q0 -69 66 -113q67 -45 213 -88q106 -30 192 -67q69 48 69 118q0 69 -65 114q-69 46 -214 88z" />
    <glyph glyph-name="dieresis" unicode="&#xa8;" horiz-adv-x="894" 
d="M535 1530q-34 34 -34 88t34 88t88 34q55 0 89 -34t34 -88t-34 -88t-89 -34q-54 0 -88 34zM182 1530q-34 34 -34 88t34 88t88 34q55 0 89 -34t34 -88t-34 -88t-89 -34q-54 0 -88 34z" />
    <glyph glyph-name="copyright" unicode="&#xa9;" horiz-adv-x="1676" 
d="M109 680q0 148 61 277q60 131 160 222q100 93 232 146q135 53 275 53q193 0 359 -90q168 -92 269 -253q102 -162 102 -355q0 -148 -60 -278q-60 -131 -159 -223q-103 -94 -233 -145q-133 -54 -278 -54q-143 0 -277 54t-233 147q-99 92 -158 223q-60 130 -60 276zM205 680
q0 -126 50.5 -240.5t138.5 -197.5q87 -83 203 -130t240 -47q123 0 239.5 47.5t204.5 130.5t139 198t51 239q0 168 -87 310q-88 141 -234 224q-145 81 -313 81q-167 0 -312 -81q-146 -83 -232 -224q-88 -142 -88 -310zM435 678q0 168 115 282q116 113 291 113
q104 0 191 -49.5t138 -137.5l-70 -49q-94 148 -260 148q-134 0 -222 -88q-89 -89 -89 -219q0 -127 88 -215t220 -88q80 0 151 40t116 108l69 -49q-52 -87 -141 -136q-92 -51 -196 -51q-170 0 -286 113q-115 112 -115 278z" />
    <glyph glyph-name="ordfeminine" unicode="&#xaa;" horiz-adv-x="822" 
d="M367 750q-104 0 -169 49q-67 49 -67 135t75 139q74 53 195 53q83 0 147 -27v30q0 54 -42 89t-108 35q-97 0 -171 -80l-83 87q40 49 109 83q70 35 147 35q129 0 205 -64q75 -64 75 -174v-378h-130v78q-27 -42 -75.5 -66t-107.5 -24zM685 655v-140h-554v140h554zM267 938
q0 -36 33.5 -58t85.5 -22q69 0 116 41q46 40 46 97q-56 29 -144 29q-62 0 -99.5 -22.5t-37.5 -64.5z" />
    <glyph glyph-name="guillemotleft" unicode="&#xab;" horiz-adv-x="1066" 
d="M765 86l-272 394l272 395h210l-254 -395l254 -394h-210zM575 86h-210l-272 394l272 395h210l-254 -395z" />
    <glyph glyph-name="logicalnot" unicode="&#xac;" horiz-adv-x="1304" 
d="M1169 408h-208v373h-888v197h1096v-570z" />
    <glyph glyph-name="uni00AD" unicode="&#xad;" horiz-adv-x="819" 
d="M126 667h567v-184h-567v184z" />
    <glyph glyph-name="registered" unicode="&#xae;" horiz-adv-x="1276" 
d="M635 541q-145 -3 -269 66.5t-195.5 189t-68.5 258.5q-3 139 68.5 258.5t195.5 188.5t269 66q145 3 271 -66t199 -188.5t70 -258.5q3 -139 -70 -259t-199 -189t-271 -66zM635 1488q-186 0 -314 -125q-129 -126 -129 -308q0 -181 129 -305q128 -125 314 -125q188 0 319 125
t131 305q0 182 -130 308q-131 125 -320 125zM530 805h-85v506h216q80 0 127.5 -42t47.5 -113q0 -51 -26.5 -88.5t-71.5 -51.5l123 -211h-99l-110 197h-122v-197zM530 1235v-157h129q42 0 65.5 21t23.5 57t-23.5 57.5t-65.5 21.5h-129z" />
    <glyph glyph-name="macron" unicode="&#xaf;" horiz-adv-x="891" 
d="M150 1675h591v-144h-591v144z" />
    <glyph glyph-name="degree" unicode="&#xb0;" horiz-adv-x="875" 
d="M436 678q-159 0 -257 97q-99 96 -99 251q0 158 99 255q98 97 257 97q160 0 260 -97q99 -97 99 -255q0 -155 -99 -251q-100 -97 -260 -97zM234 1025q0 -91 56 -149q56 -57 146 -57t145 57q55 56 55 149q0 96 -55 154t-145 58t-146 -59t-56 -153z" />
    <glyph glyph-name="plusminus" unicode="&#xb1;" horiz-adv-x="1277" 
d="M127 798v197h407v361h208v-361h409v-197h-409v-368h-208v368h-407zM1165 44h-1054v199h1054v-199z" />
    <glyph glyph-name="twosuperior" unicode="&#xb2;" horiz-adv-x="745" 
d="M205 1083l-140 73q33 100 115 161t178 61q126 0 212 -77q85 -76 85 -205q0 -70 -33 -118q-38 -57 -78 -90q-35 -28 -46 -36q-16 -14 -51 -36l-46 -32q-2 -2 -6.5 -5t-13 -9t-14.5 -10q-9 -6 -21.5 -15t-15.5 -11q-39 -29 -52 -47h391v-153h-592v72q1 50 27 105
q15 33 63 83q12 12 81 68q3 2 44 31q37 26 42 29q81 58 114 94t33 84q0 57 -33.5 91t-87.5 34q-49 0 -91 -38t-64 -104z" />
    <glyph glyph-name="threesuperior" unicode="&#xb3;" horiz-adv-x="753" 
d="M64 723l139 80q22 -60 70 -98.5t102 -38.5t87.5 29.5t33.5 74.5q0 53 -39 86t-100 33h-129v131h129q54 0 87.5 29.5t33.5 77.5q0 43 -32.5 70.5t-83.5 27.5q-56 0 -97.5 -35t-63.5 -94l-137 80q34 86 111 144q76 58 185 58q126 0 211 -66t85 -183q0 -53 -30.5 -100.5
t-78.5 -71.5q53 -22 91 -75q37 -52 37 -114q0 -119 -88 -186q-89 -68 -209 -68q-108 0 -191.5 55t-122.5 154z" />
    <glyph glyph-name="acute" unicode="&#xb4;" horiz-adv-x="674" 
d="M302 1807h222l-203 -334h-171z" />
    <glyph glyph-name="paragraph" unicode="&#xb6;" horiz-adv-x="1277" 
d="M673 453h-139q-205 0 -341 127q-136 126 -136 326t136 326q137 126 341 126h637v-123h-347v-1635h-151v853zM1106 -400h-136v1499h136v-1499z" />
    <glyph glyph-name="periodcentered" unicode="&#xb7;" horiz-adv-x="479" 
d="M152 378q-35 35 -35 86q0 50 35 87q34 36 87 36q52 0 88 -36q35 -37 35 -87q0 -51 -35 -86q-36 -36 -88 -36q-53 0 -87 36z" />
    <glyph glyph-name="cedilla" unicode="&#xb8;" horiz-adv-x="678" 
d="M100 -422l35 123q57 -26 123 -26q116 0 116 66q0 69 -130 69h-69l84 217h118l-36 -118q96 -8 150.5 -53t54.5 -118q0 -91 -73.5 -143t-203.5 -52q-101 0 -169 35z" />
    <glyph glyph-name="onesuperior" unicode="&#xb9;" horiz-adv-x="482" 
d="M36 1205l-1 153h324v-824h-153v671h-170z" />
    <glyph glyph-name="ordmasculine" unicode="&#xba;" horiz-adv-x="896" 
d="M126 1066q0 138 91 225q90 87 230 87q141 0 232 -87t91 -225q0 -137 -91 -222q-92 -86 -232 -86q-139 0 -230 86q-91 85 -91 222zM279 1065q0 -74 46.5 -120t121.5 -46q74 0 119.5 46t45.5 120q0 77 -46 124.5t-119 47.5q-75 0 -121.5 -47.5t-46.5 -124.5zM136 515v140
h624v-140h-624z" />
    <glyph glyph-name="guillemotright" unicode="&#xbb;" horiz-adv-x="1066" 
d="M973 480l-272 -394h-210l254 394l-254 395h210zM91 86l254 394l-254 395h210l272 -395l-272 -394h-210z" />
    <glyph glyph-name="onequarter" unicode="&#xbc;" horiz-adv-x="1573" 
d="M824 197v125l387 502h166v-482h118v-144h-118v-198h-153v197h-400zM269 0v26l734 1332h145v-24l-732 -1334h-147zM254 1201h-170l-1 153h324v-824h-153v671zM1224 342v260l-200 -260h200z" />
    <glyph glyph-name="onehalf" unicode="&#xbd;" horiz-adv-x="1671" 
d="M1113 549l-140 73q33 100 115 161t178 61q126 0 212 -77q85 -76 85 -205q0 -70 -33 -118q-38 -57 -78 -90q-35 -28 -46 -36q-16 -14 -51 -36q-9 -6 -20 -13.5t-17 -12t-9 -6.5l-34 -24q-8 -6 -20.5 -15t-16.5 -11q-39 -29 -52 -47h391v-153h-592v72q1 50 27 105
q15 33 63 83q12 12 81 68q3 2 44 31q37 26 42 29q81 58 114 94t33 84q0 57 -33.5 91t-87.5 34q-49 0 -91 -38t-64 -104zM1178 1334l-732 -1334h-147v26l734 1332h145v-24zM84 1201l-1 153h324v-824h-153v671h-170z" />
    <glyph glyph-name="threequarters" unicode="&#xbe;" horiz-adv-x="1821" 
d="M424 520q-108 0 -191.5 55t-122.5 154l139 80q22 -60 70 -98.5t102 -38.5t87.5 29.5t33.5 74.5q0 53 -39 86t-100 33h-129v131h129q54 0 87.5 29.5t33.5 77.5q0 43 -32.5 70.5t-83.5 27.5q-56 0 -97.5 -35t-63.5 -94l-137 80q34 86 111 144q76 58 185 58q126 0 211 -66
t85 -183q0 -53 -30.5 -100.5t-78.5 -71.5q53 -22 91 -75q37 -52 37 -114q0 -119 -88 -186q-89 -68 -209 -68zM1487 197h-400v125l387 502h166v-482h118v-144h-118v-198h-153v197zM522 0v26l734 1332h145v-24l-732 -1334h-147zM1487 602l-200 -260h200v260z" />
    <glyph glyph-name="questiondown" unicode="&#xbf;" horiz-adv-x="1000" 
d="M506 -416q-192 0 -312 105q-120 106 -120 275q0 112 71 213q49 69 150 168q8 7 18 17q47 47 58 60q15 16 40 54q41 63 33 165h191q8 -43 8 -76q0 -68 -36 -147q-13 -26 -45 -67q-23 -30 -47 -56q-3 -3 -57 -61q-93 -97 -121 -137q-43 -61 -43 -129q0 -83 59 -134t156 -51
q91 0 160 54t109 148l177 -85q-49 -141 -173 -229q-124 -87 -276 -87zM623 772q-34 -34 -88 -34t-88 34q-35 35 -35 88t35 88q34 34 88 34t88 -34t34 -88t-34 -88z" />
    <glyph glyph-name="Agrave" unicode="&#xc0;" horiz-adv-x="1370" 
d="M234 0h-224l561 1358h228l561 -1358h-224l-108 283h-686zM965 458l-280 665l-280 -665h560zM595 1473l-203 334h222l152 -334h-171z" />
    <glyph glyph-name="Aacute" unicode="&#xc1;" horiz-adv-x="1370" 
d="M342 283l-108 -283h-224l561 1358h228l561 -1358h-224l-108 283h-686zM965 458l-280 665l-280 -665h560zM765 1473h-171l152 334h222z" />
    <glyph glyph-name="Acircumflex" unicode="&#xc2;" horiz-adv-x="1370" 
d="M342 283l-108 -283h-224l561 1358h228l561 -1358h-224l-108 283h-686zM965 458l-280 665l-280 -665h560zM550 1471h-189l287 370h74l287 -370h-189l-135 187z" />
    <glyph glyph-name="Atilde" unicode="&#xc3;" horiz-adv-x="1370" 
d="M234 0h-224l561 1358h228l561 -1358h-224l-108 283h-686zM965 458l-280 665l-280 -665h560zM447 1520l-103 87q96 160 217 160q40 1 84 -20t83.5 -42t68.5 -20q42 0 71 18t62 64l95 -95q-49 -80 -101.5 -114.5t-128.5 -34.5q-46 -2 -121.5 38.5t-101.5 38.5
q-37 0 -62 -17q-26 -17 -63 -63z" />
    <glyph glyph-name="Adieresis" unicode="&#xc4;" horiz-adv-x="1370" 
d="M342 283l-108 -283h-224l561 1358h228l561 -1358h-224l-108 283h-686zM685 1123l-280 -665h560zM773 1530q-34 34 -34 88t34 88t88 34q55 0 89 -34t34 -88t-34 -88t-89 -34q-54 0 -88 34zM597 1530q-34 -34 -89 -34q-54 0 -88 34t-34 88t34 88t88 34q55 0 89 -34t34 -88
t-34 -88z" />
    <glyph glyph-name="Aring" unicode="&#xc5;" horiz-adv-x="1370" 
d="M342 283l-108 -283h-224l561 1358h228l561 -1358h-224l-108 283h-686zM685 1123l-280 -665h560zM834 1551q-57 -54 -149 -54t-149 54t-57 141q0 88 57 143q56 55 149 55t149 -55q57 -55 57 -143q0 -87 -57 -141zM685 1778q-39 0 -62.5 -24t-23.5 -63q0 -36 23.5 -58.5
t62.5 -22.5q38 0 61.5 22.5t23.5 58.5q0 39 -23.5 63t-61.5 24z" />
    <glyph glyph-name="AE" unicode="&#xc6;" horiz-adv-x="1979" 
d="M364 283l-178 -283h-230l836 1358h1079v-191h-742v-374h637v-191h-637v-411h763v-191h-973v283h-555zM919 458v709l-445 -709h445z" />
    <glyph glyph-name="Ccedilla" unicode="&#xc7;" horiz-adv-x="1439" 
d="M648 -190l67 174q-174 14 -319 110t-228.5 251t-80.5 334q0 195 92 356q91 161 252 252q160 91 354 91q185 0 342 -87q158 -87 255 -244l-163 -114q-163 246 -434 246q-209 0 -343 -141q-135 -141 -135 -359q0 -217 137 -359q136 -141 346 -141q135 0 247.5 61.5
t192.5 178.5l157 -109q-91 -147 -234 -232q-146 -87 -317 -97l-22 -72q96 -8 150.5 -53t54.5 -118q0 -91 -73.5 -143t-203.5 -52q-101 0 -169 35l35 123q57 -26 123 -26q116 0 116 66q0 69 -130 69h-69z" />
    <glyph glyph-name="Egrave" unicode="&#xc8;" horiz-adv-x="1236" 
d="M1149 191v-191h-973v1358h952v-191h-742v-374h637v-191h-637v-411h763zM598 1473l-203 334h222l152 -334h-171z" />
    <glyph glyph-name="Eacute" unicode="&#xc9;" horiz-adv-x="1236" 
d="M1149 191v-191h-973v1358h952v-191h-742v-374h637v-191h-637v-411h763zM751 1473h-171l152 334h222z" />
    <glyph glyph-name="Ecircumflex" unicode="&#xca;" horiz-adv-x="1236" 
d="M176 0v1358h952v-191h-742v-374h637v-191h-637v-411h763v-191h-973zM675 1658l-135 -187h-189l287 370h74l287 -370h-189z" />
    <glyph glyph-name="Edieresis" unicode="&#xcb;" horiz-adv-x="1236" 
d="M176 0v1358h952v-191h-742v-374h637v-191h-637v-411h763v-191h-973zM952 1530q-34 -34 -89 -34q-54 0 -88 34t-34 88t34 88t88 34q55 0 89 -34t34 -88t-34 -88zM422 1530q-34 34 -34 88t34 88t88 34q55 0 89 -34t34 -88t-34 -88t-89 -34q-54 0 -88 34z" />
    <glyph glyph-name="Igrave" unicode="&#xcc;" horiz-adv-x="562" 
d="M176 1358h210v-1358h-210v1358zM362 1473h-171l-203 334h222z" />
    <glyph glyph-name="Iacute" unicode="&#xcd;" horiz-adv-x="562" 
d="M176 1358h210v-1358h-210v1358zM352 1807h222l-203 -334h-171z" />
    <glyph glyph-name="Icircumflex" unicode="&#xce;" horiz-adv-x="562" 
d="M176 0v1358h210v-1358h-210zM146 1471h-189l287 370h74l287 -370h-189l-135 187z" />
    <glyph glyph-name="Idieresis" unicode="&#xcf;" horiz-adv-x="562" 
d="M176 0v1358h210v-1358h-210zM369 1530q-34 34 -34 88t34 88t88 34q55 0 89 -34t34 -88t-34 -88t-89 -34q-54 0 -88 34zM193 1530q-34 -34 -89 -34q-54 0 -88 34t-34 88t34 88t88 34q55 0 89 -34t34 -88t-34 -88z" />
    <glyph glyph-name="Eth" unicode="&#xd0;" horiz-adv-x="1520" 
d="M188 0v603h-135v184h135v570h546q199 0 359 -88q159 -89 249 -243q90 -156 90 -348q3 -142 -50.5 -268.5t-147 -217.5t-224 -143t-276.5 -49h-546zM850 787v-184h-452v-413h333q138 -2 250 63.5t172.5 178t58.5 246.5q0 208 -134 350q-133 141 -347 141h-333v-382h452z
" />
    <glyph glyph-name="Ntilde" unicode="&#xd1;" horiz-adv-x="1599" 
d="M386 0h-210v1358h210l827 -1035v1035h210v-1358h-212l-825 1025v-1025zM562 1520l-103 87q96 160 217 160q40 1 84 -20t83.5 -42t68.5 -20q42 0 71 18t62 64l95 -95q-49 -80 -101.5 -114.5t-128.5 -34.5q-46 -2 -121.5 38.5t-101.5 38.5q-37 0 -62 -17t-63 -63z" />
    <glyph glyph-name="Ograve" unicode="&#xd2;" horiz-adv-x="1579" 
d="M789 -20q-198 0 -358 88t-251 248q-92 160 -92 361q0 200 92 361q92 162 251 251q161 89 358 89q148 0 278.5 -52t224.5 -145q94 -95 146.5 -225.5t52.5 -278.5q0 -203 -91 -361q-91 -160 -251 -248t-360 -88zM308 679q0 -225 133 -362q133 -138 348 -138q218 0 350 138
q132 136 132 362q0 221 -132 361q-133 139 -350 139q-213 0 -347 -140t-134 -360zM691 1473l-203 334h222l152 -334h-171z" />
    <glyph glyph-name="Oacute" unicode="&#xd3;" horiz-adv-x="1579" 
d="M88 677q0 200 92 361q92 162 251 251q161 89 358 89q148 0 278.5 -52t224.5 -145q94 -95 146.5 -225.5t52.5 -278.5q0 -203 -91 -361q-91 -160 -251 -248t-360 -88q-198 0 -358 88t-251 248q-92 160 -92 361zM789 1179q-213 0 -347 -140t-134 -360q0 -225 133 -362
q133 -138 348 -138q218 0 350 138q132 136 132 362q0 221 -132 361q-133 139 -350 139zM868 1473h-171l152 334h222z" />
    <glyph glyph-name="Ocircumflex" unicode="&#xd4;" horiz-adv-x="1579" 
d="M789 -20q-198 0 -358 88t-251 248q-92 160 -92 361q0 200 92 361q92 162 251 251q161 89 358 89q148 0 278.5 -52t224.5 -145q94 -95 146.5 -225.5t52.5 -278.5q0 -203 -91 -361q-91 -160 -251 -248t-360 -88zM789 1179q-213 0 -347 -140t-134 -360q0 -225 133 -362
q133 -138 348 -138q218 0 350 138q132 136 132 362q0 221 -132 361q-133 139 -350 139zM790 1658l-135 -187h-189l287 370h74l287 -370h-189z" />
    <glyph glyph-name="Otilde" unicode="&#xd5;" horiz-adv-x="1579" 
d="M789 -20q-198 0 -358 88t-251 248q-92 160 -92 361q0 200 92 361q92 162 251 251q161 89 358 89q148 0 278.5 -52t224.5 -145q94 -95 146.5 -225.5t52.5 -278.5q0 -203 -91 -361q-91 -160 -251 -248t-360 -88zM308 679q0 -225 133 -362q133 -138 348 -138q218 0 350 138
q132 136 132 362q0 221 -132 361q-133 139 -350 139q-213 0 -347 -140t-134 -360zM552 1520l-103 87q96 160 217 160q40 1 84 -20t83.5 -42t68.5 -20q42 0 71 18t62 64l95 -95q-49 -80 -101.5 -114.5t-128.5 -34.5q-46 -2 -121.5 38.5t-101.5 38.5q-37 0 -62 -17t-63 -63z
" />
    <glyph glyph-name="Odieresis" unicode="&#xd6;" horiz-adv-x="1579" 
d="M88 677q0 200 92 361q92 162 251 251q161 89 358 89q148 0 278.5 -52t224.5 -145q94 -95 146.5 -225.5t52.5 -278.5q0 -203 -91 -361q-91 -160 -251 -248t-360 -88q-198 0 -358 88t-251 248q-92 160 -92 361zM308 679q0 -225 133 -362q133 -138 348 -138q218 0 350 138
q132 136 132 362q0 221 -132 361q-133 139 -350 139q-213 0 -347 -140t-134 -360zM878 1530q-34 34 -34 88t34 88t88 34q55 0 89 -34t34 -88t-34 -88t-89 -34q-54 0 -88 34zM702 1530q-34 -34 -89 -34q-54 0 -88 34t-34 88t34 88t88 34q55 0 89 -34t34 -88t-34 -88z" />
    <glyph glyph-name="multiply" unicode="&#xd7;" horiz-adv-x="1186" 
d="M236 178l-144 144l357 357l-357 357l145 144l356 -357l357 357l144 -144l-357 -357l357 -357l-144 -144l-357 357z" />
    <glyph glyph-name="Oslash" unicode="&#xd8;" horiz-adv-x="1579" 
d="M194 -15l117 169q-107 96 -165 230.5t-58 292.5q0 200 92 361q92 162 251 251q161 89 358 89q175 0 325 -72l119 170l153 -103l-119 -170q108 -96 166 -231.5t58 -294.5q0 -203 -91 -361q-91 -160 -251 -248t-360 -88q-178 0 -325 72l-117 -170zM1147 1030l-565 -810
q94 -41 207 -41q218 0 350 138q132 136 132 362q0 214 -124 351zM432 327l565 811q-97 41 -208 41q-213 0 -347 -140t-134 -360q0 -216 124 -352z" />
    <glyph glyph-name="Ugrave" unicode="&#xd9;" horiz-adv-x="1463" 
d="M1148 119q-154 -139 -416 -139t-416 139q-155 140 -155 372v867h208v-858q0 -148 99 -237q97 -88 264 -88t264 88q98 89 98 237v858h208v-867q0 -233 -154 -372zM645 1473l-203 334h222l152 -334h-171z" />
    <glyph glyph-name="Uacute" unicode="&#xda;" horiz-adv-x="1463" 
d="M1148 119q-154 -139 -416 -139t-416 139q-155 140 -155 372v867h208v-858q0 -148 99 -237q97 -88 264 -88t264 88q98 89 98 237v858h208v-867q0 -233 -154 -372zM1014 1807l-203 -334h-171l152 334h222z" />
    <glyph glyph-name="Ucircumflex" unicode="&#xdb;" horiz-adv-x="1463" 
d="M161 491v867h208v-858q0 -148 99 -237q97 -88 264 -88t264 88q98 89 98 237v858h208v-867q0 -233 -154 -372t-416 -139t-416 139q-155 140 -155 372zM597 1471h-189l287 370h74l287 -370h-189l-135 187z" />
    <glyph glyph-name="Udieresis" unicode="&#xdc;" horiz-adv-x="1463" 
d="M161 491v867h208v-858q0 -148 99 -237q97 -88 264 -88t264 88q98 89 98 237v858h208v-867q0 -233 -154 -372t-416 -139t-416 139q-155 140 -155 372zM997 1530q-34 -34 -89 -34q-54 0 -88 34t-34 88t34 88t88 34q55 0 89 -34t34 -88t-34 -88zM644 1530q-34 -34 -89 -34
q-54 0 -88 34t-34 88t34 88t88 34q55 0 89 -34t34 -88t-34 -88z" />
    <glyph glyph-name="Yacute" unicode="&#xdd;" horiz-adv-x="1269" 
d="M530 522l-515 836h250l369 -614l370 614h250l-515 -836v-522h-209v522zM914 1807l-203 -334h-171l152 334h222z" />
    <glyph glyph-name="Thorn" unicode="&#xde;" horiz-adv-x="1359" 
d="M386 213v-213h-210v1358h210v-203h405q198 0 332 -114q67 -58 104.5 -151t37.5 -209q0 -141 -65 -250q-65 -107 -173 -163q-106 -55 -236 -55h-405zM386 964v-562h366q125 0 210 76q84 75 84 201q0 137 -83 211t-211 74h-366z" />
    <glyph glyph-name="germandbls" unicode="&#xdf;" horiz-adv-x="1304" 
d="M350 0h-198v954q0 216 142 345q141 129 378 129q206 0 336 -102t130 -267q0 -113 -61.5 -199t-171.5 -126q148 -26 233 -124q86 -101 86 -247q0 -170 -112 -276t-290 -106q-123 0 -224.5 53.5t-160.5 150.5l148 120q41 -70 102.5 -108.5t133.5 -38.5q91 0 147 59
q55 58 55 153q0 119 -90.5 185t-254.5 66h-91v172q161 0 257 66t96 176q0 97 -75 159q-75 60 -196 60q-142 0 -231 -86q-88 -85 -88 -225v-943z" />
    <glyph glyph-name="agrave" unicode="&#xe0;" horiz-adv-x="1091" 
d="M88 273q0 135 118 220q117 84 306 84q148 0 242 -45v52q0 91 -68 151q-68 59 -178 59q-78 0 -151 -37t-124 -96l-125 124q59 77 172 137q109 58 231 58q203 0 322 -102t119 -277v-601h-194v124q-44 -68 -123 -106t-176 -38q-163 0 -266 78q-105 78 -105 215zM288 280
q0 -64 57 -101q55 -37 143 -37q115 0 191 69q75 69 75 169q-37 19 -102.5 32.5t-134.5 13.5q-105 0 -167 -37t-62 -109zM598 1121h-171l-203 334h222z" />
    <glyph glyph-name="aacute" unicode="&#xe1;" horiz-adv-x="1091" 
d="M459 -20q-163 0 -266 78q-105 78 -105 215q0 135 118 220q117 84 306 84q148 0 242 -45v52q0 91 -68 151q-68 59 -178 59q-78 0 -151 -37t-124 -96l-125 124q59 77 172 137q109 58 231 58q203 0 322 -102t119 -277v-601h-194v124q-44 -68 -123 -106t-176 -38zM288 280
q0 -64 57 -101q55 -37 143 -37q115 0 191 69q75 69 75 169q-37 19 -102.5 32.5t-134.5 13.5q-105 0 -167 -37t-62 -109zM802 1447l-203 -334h-171l152 334h222z" />
    <glyph glyph-name="acircumflex" unicode="&#xe2;" horiz-adv-x="1091" 
d="M88 273q0 135 118 220q117 84 306 84q148 0 242 -45v52q0 91 -68 151q-68 59 -178 59q-78 0 -151 -37t-124 -96l-125 124q59 77 172 137q109 58 231 58q203 0 322 -102t119 -277v-601h-194v124q-44 -68 -123 -106t-176 -38q-163 0 -266 78q-105 78 -105 215zM517 426
q-105 0 -167 -37t-62 -109q0 -64 57 -101q55 -37 143 -37q115 0 191 69q75 69 75 169q-37 19 -102.5 32.5t-134.5 13.5zM379 1084h-189l287 370h74l287 -370h-189l-135 187z" />
    <glyph glyph-name="atilde" unicode="&#xe3;" horiz-adv-x="1091" 
d="M88 273q0 135 118 220q117 84 306 84q148 0 242 -45v52q0 91 -68 151q-68 59 -178 59q-78 0 -151 -37t-124 -96l-125 124q59 77 172 137q109 58 231 58q203 0 322 -102t119 -277v-601h-194v124q-44 -68 -123 -106t-176 -38q-163 0 -266 78q-105 78 -105 215zM288 280
q0 -64 57 -101q55 -37 143 -37q115 0 191 69q75 69 75 169q-37 19 -102.5 32.5t-134.5 13.5q-105 0 -167 -37t-62 -109zM257 1160l-103 87q96 160 217 160q40 1 84 -20t83.5 -42t68.5 -20q42 0 71 18t62 64l95 -95q-49 -80 -101.5 -114.5t-128.5 -34.5q-46 -2 -121.5 38.5
t-101.5 38.5q-37 0 -62 -17q-26 -17 -63 -63z" />
    <glyph glyph-name="adieresis" unicode="&#xe4;" horiz-adv-x="1091" 
d="M459 -20q-163 0 -266 78q-105 78 -105 215q0 135 118 220q117 84 306 84q148 0 242 -45v52q0 91 -68 151q-68 59 -178 59q-78 0 -151 -37t-124 -96l-125 124q59 77 172 137q109 58 231 58q203 0 322 -102t119 -277v-601h-194v124q-44 -68 -123 -106t-176 -38zM517 426
q-105 0 -167 -37t-62 -109q0 -64 57 -101q55 -37 143 -37q115 0 191 69q75 69 75 169q-37 19 -102.5 32.5t-134.5 13.5zM766 1193q-34 -34 -89 -34q-54 0 -88 34t-34 88t34 88t88 34q55 0 89 -34t34 -88t-34 -88zM236 1193q-34 34 -34 88t34 88t88 34q55 0 89 -34t34 -88
t-34 -88t-89 -34q-54 0 -88 34z" />
    <glyph glyph-name="aring" unicode="&#xe5;" horiz-adv-x="1091" 
d="M459 -20q-163 0 -266 78q-105 78 -105 215q0 135 118 220q117 84 306 84q148 0 242 -45v52q0 91 -68 151q-68 59 -178 59q-78 0 -151 -37t-124 -96l-125 124q59 77 172 137q109 58 231 58q203 0 322 -102t119 -277v-601h-194v124q-44 -68 -123 -106t-176 -38zM299 1290
q0 88 57 143q56 55 149 55t149 -55q57 -55 57 -143q0 -87 -57 -141t-149 -54t-149 54t-57 141zM517 426q-105 0 -167 -37t-62 -109q0 -64 57 -101q55 -37 143 -37q115 0 191 69q75 69 75 169q-37 19 -102.5 32.5t-134.5 13.5zM505 1376q-39 0 -62.5 -24t-23.5 -63
q0 -36 23.5 -58.5t62.5 -22.5q38 0 61.5 22.5t23.5 58.5q0 39 -23.5 63t-61.5 24z" />
    <glyph glyph-name="ae" unicode="&#xe6;" horiz-adv-x="1787" 
d="M459 -20q-96 0 -179 35t-136 103q-55 70 -55 161q0 96 59 167q59 70 147 101q90 32 196 32q142 0 263 -56v61q0 90 -67 150q-68 60 -172 60q-91 0 -161 -40q-73 -42 -109 -92l-136 125q153 193 409 193q115 0 214 -47q96 -46 147 -128q57 83 156 130q97 45 210 45
q203 0 331 -134q127 -133 127 -331q0 -49 -8 -92h-745q8 -110 91 -183q84 -75 207 -75q85 0 160 41.5t125 119.5l156 -99q-68 -119 -187 -183q-121 -64 -254 -64q-129 0 -237 53.5t-173 154.5q-112 -208 -379 -208zM297 281q0 -61 54 -95q52 -34 131 -34q148 0 228 97
q42 51 42 120q-38 27 -101 42t-131 15q-94 0 -159 -36q-64 -37 -64 -109zM955 571h551q-16 102 -88 166q-73 64 -175 64q-111 0 -190 -64q-78 -64 -98 -166z" />
    <glyph glyph-name="ccedilla" unicode="&#xe7;" horiz-adv-x="1097" 
d="M81 481q-2 135 67.5 251.5t190 183.5t259.5 64q140 0 254 -69t183 -194l-153 -104q-45 84 -122 132.5t-166 48.5q-136 0 -225 -89q-88 -89 -88 -224t88 -224q88 -91 221 -91q93 0 168.5 46.5t126.5 133.5l149 -105q-63 -114 -171.5 -183t-239.5 -77l-22 -72
q96 -8 150.5 -53t54.5 -118q0 -91 -73.5 -143t-203.5 -52q-101 0 -169 35l35 123q57 -26 123 -26q116 0 116 66q0 69 -130 69h-69l68 177q-185 29 -303 168q-119 139 -119 326z" />
    <glyph glyph-name="egrave" unicode="&#xe8;" horiz-adv-x="1123" 
d="M82 479q0 216 140 359q139 142 356 142q134 1 241.5 -62t165 -169.5t55.5 -233.5q0 -49 -8 -92h-745q8 -110 91 -183q85 -74 207 -74q184 0 288 164l146 -106q-65 -116 -183 -180t-251 -64q-217 0 -360 143t-143 356zM576 801q-110 0 -187 -64q-78 -64 -97 -166h547
q-9 102 -84 166q-74 64 -179 64zM490 1121l-203 334h222l152 -334h-171z" />
    <glyph glyph-name="eacute" unicode="&#xe9;" horiz-adv-x="1123" 
d="M82 479q0 216 140 359q139 142 356 142q134 1 241.5 -62t165 -169.5t55.5 -233.5q0 -49 -8 -92h-745q8 -110 91 -183q85 -74 207 -74q184 0 288 164l146 -106q-65 -116 -183 -180t-251 -64q-217 0 -360 143t-143 356zM292 571h547q-9 102 -84 166q-74 64 -179 64
q-110 0 -187 -64q-78 -64 -97 -166zM875 1447l-203 -334h-171l152 334h222z" />
    <glyph glyph-name="ecircumflex" unicode="&#xea;" horiz-adv-x="1123" 
d="M585 -20q-217 0 -360 143t-143 356q0 216 140 359q139 142 356 142q134 1 241.5 -62t165 -169.5t55.5 -233.5q0 -49 -8 -92h-745q8 -110 91 -183q85 -74 207 -74q184 0 288 164l146 -106q-65 -116 -183 -180t-251 -64zM576 801q-110 0 -187 -64q-78 -64 -97 -166h547
q-9 102 -84 166q-74 64 -179 64zM575 1271l-135 -187h-189l287 370h74l287 -370h-189z" />
    <glyph glyph-name="edieresis" unicode="&#xeb;" horiz-adv-x="1123" 
d="M82 479q0 216 140 359q139 142 356 142q134 1 241.5 -62t165 -169.5t55.5 -233.5q0 -49 -8 -92h-745q8 -110 91 -183q85 -74 207 -74q184 0 288 164l146 -106q-65 -116 -183 -180t-251 -64q-217 0 -360 143t-143 356zM576 801q-110 0 -187 -64q-78 -64 -97 -166h547
q-9 102 -84 166q-74 64 -179 64zM666 1193q-34 34 -34 88t34 88t88 34q55 0 89 -34t34 -88t-34 -88t-89 -34q-54 0 -88 34zM313 1193q-34 34 -34 88t34 88t88 34q55 0 89 -34t34 -88t-34 -88t-89 -34q-54 0 -88 34z" />
    <glyph glyph-name="igrave" unicode="&#xec;" horiz-adv-x="502" 
d="M350 960v-960h-198v960h198zM336 1121h-171l-203 334h222z" />
    <glyph glyph-name="iacute" unicode="&#xed;" horiz-adv-x="502" 
d="M350 960v-960h-198v960h198zM319 1447h222l-203 -334h-171z" />
    <glyph glyph-name="icircumflex" unicode="&#xee;" horiz-adv-x="502" 
d="M350 960v-960h-198v960h198zM116 1084h-190l288 370h74l287 -370h-189l-135 187z" />
    <glyph glyph-name="idieresis" unicode="&#xef;" horiz-adv-x="502" 
d="M350 0h-198v960h198v-960zM339 1193q-34 34 -34 88t34 88t88 34q55 0 89 -34t34 -88t-34 -88t-89 -34q-54 0 -88 34zM163 1193q-34 -34 -89 -34q-54 0 -89 34q-34 34 -34 88t34 88q35 34 89 34q55 0 89 -34t34 -88t-34 -88z" />
    <glyph glyph-name="eth" unicode="&#xf0;" horiz-adv-x="1145" 
d="M565 -20q-214 0 -347 127q-134 128 -134 330q0 209 129 339t337 130q83 0 157 -34q73 -34 105 -75q-11 86 -69.5 181t-152.5 175l-215 -160l-97 136l166 123q-80 43 -164 69l99 159q120 -40 228 -107l196 145l93 -137l-152 -113q146 -136 224 -321t78 -405
q0 -252 -132 -406q-134 -156 -349 -156zM753 649q-77 81 -198 81q-122 0 -197 -81q-76 -82 -76 -212q0 -121 76 -196q75 -75 197 -75q121 0 198 75q75 75 75 196q0 129 -75 212z" />
    <glyph glyph-name="ntilde" unicode="&#xf1;" horiz-adv-x="1188" 
d="M152 0v960h199v-121q30 45 94 89q79 52 201 52q193 0 298 -108q105 -110 105 -289v-583h-198v541q0 119 -62 185t-174 66q-115 0 -189 -67q-76 -67 -76 -184v-541h-198zM365 1160l-103 87q96 160 217 160q40 1 84 -20t83.5 -42t68.5 -20q42 0 71 18t62 64l95 -95
q-49 -80 -101.5 -114.5t-128.5 -34.5q-46 -2 -121.5 38.5t-101.5 38.5q-37 0 -62 -17q-26 -17 -63 -63z" />
    <glyph glyph-name="ograve" unicode="&#xf2;" horiz-adv-x="1182" 
d="M955 124q-145 -144 -364 -144t-364 144q-146 144 -146 356t146 356q145 144 364 144t364 -144q146 -144 146 -356t-146 -356zM368 704q-89 -91 -89 -224t89 -224q88 -90 223 -90t224 90q88 89 88 224t-88 224q-89 90 -224 90t-223 -90zM504 1121l-203 334h222l152 -334
h-171z" />
    <glyph glyph-name="oacute" unicode="&#xf3;" horiz-adv-x="1182" 
d="M227 124q-146 144 -146 356t146 356q145 144 364 144t364 -144q146 -144 146 -356t-146 -356q-145 -144 -364 -144t-364 144zM815 704q-89 90 -224 90t-223 -90q-89 -91 -89 -224t89 -224q88 -90 223 -90t224 90q88 89 88 224t-88 224zM672 1113h-171l152 334h222z" />
    <glyph glyph-name="ocircumflex" unicode="&#xf4;" horiz-adv-x="1182" 
d="M227 124q-146 144 -146 356t146 356q145 144 364 144t364 -144q146 -144 146 -356t-146 -356q-145 -144 -364 -144t-364 144zM368 704q-89 -91 -89 -224t89 -224q88 -90 223 -90t224 90q88 89 88 224t-88 224q-89 90 -224 90t-223 -90zM456 1084h-189l287 370h74
l287 -370h-189l-135 187z" />
    <glyph glyph-name="otilde" unicode="&#xf5;" horiz-adv-x="1182" 
d="M955 124q-145 -144 -364 -144t-364 144q-146 144 -146 356t146 356q145 144 364 144t364 -144q146 -144 146 -356t-146 -356zM368 704q-89 -91 -89 -224t89 -224q88 -90 223 -90t224 90q88 89 88 224t-88 224q-89 90 -224 90t-223 -90zM354 1160l-103 87q96 160 217 160
q40 1 84 -20t83.5 -42t68.5 -20q42 0 71 18t62 64l95 -95q-49 -80 -101.5 -114.5t-128.5 -34.5q-46 -2 -121.5 38.5t-101.5 38.5q-37 0 -62 -17t-63 -63z" />
    <glyph glyph-name="odieresis" unicode="&#xf6;" horiz-adv-x="1182" 
d="M227 124q-146 144 -146 356t146 356q145 144 364 144t364 -144q146 -144 146 -356t-146 -356q-145 -144 -364 -144t-364 144zM368 704q-89 -91 -89 -224t89 -224q88 -90 223 -90t224 90q88 89 88 224t-88 224q-89 90 -224 90t-223 -90zM679 1193q-34 34 -34 88t34 88
t88 34q55 0 89 -34t34 -88t-34 -88t-89 -34q-54 0 -88 34zM503 1193q-34 -34 -89 -34q-54 0 -88 34t-34 88t34 88t88 34q55 0 89 -34t34 -88t-34 -88z" />
    <glyph glyph-name="divide" unicode="&#xf7;" horiz-adv-x="1306" 
d="M114 581v197h1078v-197h-1078zM565 179q-34 34 -34 88t34 88t88 34q55 0 89 -34t34 -88t-34 -88t-89 -34q-54 0 -88 34zM742 1008q-34 -34 -89 -34q-54 0 -88 34t-34 88t34 88t88 34q55 0 89 -34t34 -88t-34 -88z" />
    <glyph glyph-name="oslash" unicode="&#xf8;" horiz-adv-x="1196" 
d="M845 923l166 203l119 -106l-157 -192q138 -142 138 -348q0 -212 -146 -356q-145 -144 -364 -144q-145 0 -266 69l-175 -214l-119 106l171 209q-121 139 -121 330q0 212 146 356q145 144 364 144q130 0 244 -57zM849 676l-391 -478q69 -32 143 -32q135 0 224 90
q88 89 88 224q0 111 -64 196zM339 305l382 467q-56 22 -120 22q-135 0 -223 -90q-89 -91 -89 -224q0 -98 50 -175z" />
    <glyph glyph-name="ugrave" unicode="&#xf9;" horiz-adv-x="1191" 
d="M139 377v583h198v-541q0 -119 62 -185t172 -66q117 0 194 68q76 67 76 183v541h198v-960h-199v121q-30 -46 -94 -88q-80 -53 -206 -53q-193 0 -296 109q-105 108 -105 288zM524 1121l-203 334h222l152 -334h-171z" />
    <glyph glyph-name="uacute" unicode="&#xfa;" horiz-adv-x="1191" 
d="M139 377v583h198v-541q0 -119 62 -185t172 -66q117 0 194 68q76 67 76 183v541h198v-960h-199v121q-30 -46 -94 -88q-80 -53 -206 -53q-193 0 -296 109q-105 108 -105 288zM869 1447l-203 -334h-171l152 334h222z" />
    <glyph glyph-name="ucircumflex" unicode="&#xfb;" horiz-adv-x="1191" 
d="M139 377v583h198v-541q0 -119 62 -185t172 -66q117 0 194 68q76 67 76 183v541h198v-960h-199v121q-30 -46 -94 -88q-80 -53 -206 -53q-193 0 -296 109q-105 108 -105 288zM581 1271l-135 -187h-189l287 370h74l287 -370h-189z" />
    <glyph glyph-name="udieresis" unicode="&#xfc;" horiz-adv-x="1191" 
d="M139 377v583h198v-541q0 -119 62 -185t172 -66q117 0 194 68q76 67 76 183v541h198v-960h-199v121q-30 -46 -94 -88q-80 -53 -206 -53q-193 0 -296 109q-105 108 -105 288zM688 1193q-34 34 -34 88t34 88t88 34q55 0 89 -34t34 -88t-34 -88t-89 -34q-54 0 -88 34z
M335 1193q-34 34 -34 88t34 88t88 34q55 0 89 -34t34 -88t-34 -88t-89 -34q-54 0 -88 34z" />
    <glyph glyph-name="yacute" unicode="&#xfd;" horiz-adv-x="1080" 
d="M417 -69l21 55l-414 974h218l299 -756l297 756h218l-460 -1082q-53 -119 -104 -181q-34 -39 -72 -64q-86 -53 -218 -53q-92 0 -159 35l21 164q54 -25 129 -25q91 0 140 43q50 44 84 134zM612 1113h-171l152 334h222z" />
    <glyph glyph-name="thorn" unicode="&#xfe;" horiz-adv-x="1257" 
d="M350 -400h-198v1808h198v-579q118 151 342 151q206 0 344 -142t138 -363q0 -218 -137 -357q-138 -138 -345 -138q-224 0 -342 151v-531zM351 475q0 -133 90 -225t227 -92t222 91q86 92 86 226q0 135 -86 232q-86 95 -222 95t-226 -96q-91 -95 -91 -231z" />
    <glyph glyph-name="ydieresis" unicode="&#xff;" horiz-adv-x="1080" 
d="M438 -14l-414 974h218l299 -756l297 756h218l-460 -1082q-53 -119 -104 -181q-34 -39 -72 -64q-86 -53 -218 -53q-92 0 -159 35l21 164q54 -25 129 -25q91 0 140 43q50 44 84 134zM787 1193q-34 -34 -89 -34q-54 0 -88 34t-34 88t34 88t88 34q55 0 89 -34t34 -88t-34 -88
zM257 1193q-34 34 -34 88t34 88t88 34q55 0 89 -34t34 -88t-34 -88t-89 -34q-54 0 -88 34z" />
    <glyph glyph-name="Amacron" unicode="&#x100;" horiz-adv-x="1370" 
d="M342 283l-108 -283h-224l561 1358h228l561 -1358h-224l-108 283h-686zM965 458l-280 665l-280 -665h560zM980 1675v-144h-591v144h591z" />
    <glyph glyph-name="amacron" unicode="&#x101;" horiz-adv-x="1091" 
d="M88 273q0 135 118 220q117 84 306 84q148 0 242 -45v52q0 91 -68 151q-68 59 -178 59q-78 0 -151 -37t-124 -96l-125 124q59 77 172 137q109 58 231 58q203 0 322 -102t119 -277v-601h-194v124q-44 -68 -123 -106t-176 -38q-163 0 -266 78q-105 78 -105 215zM288 280
q0 -64 57 -101q55 -37 143 -37q115 0 191 69q75 69 75 169q-37 19 -102.5 32.5t-134.5 13.5q-105 0 -167 -37t-62 -109zM785 1195h-591v144h591v-144z" />
    <glyph glyph-name="Abreve" unicode="&#x102;" horiz-adv-x="1370" 
d="M234 0h-224l561 1358h228l561 -1358h-224l-108 283h-686zM685 1123l-280 -665h560zM408 1770h161q7 -61 38 -97t78 -36q50 0 81 36t35 97h161q-6 -130 -82 -203q-76 -75 -195 -75t-194 75q-75 72 -83 203z" />
    <glyph glyph-name="abreve" unicode="&#x103;" horiz-adv-x="1091" 
d="M459 -20q-163 0 -266 78q-105 78 -105 215q0 135 118 220q117 84 306 84q148 0 242 -45v52q0 91 -68 151q-68 59 -178 59q-78 0 -151 -37t-124 -96l-125 124q59 77 172 137q109 58 231 58q203 0 322 -102t119 -277v-601h-194v124q-44 -68 -123 -106t-176 -38zM517 426
q-105 0 -167 -37t-62 -109q0 -64 57 -101q55 -37 143 -37q115 0 191 69q75 69 75 169q-37 19 -102.5 32.5t-134.5 13.5zM688 1210q-76 -75 -195 -75t-194 75q-75 72 -83 203h161q7 -61 38 -97t78 -36q50 0 81 36t35 97h161q-6 -130 -82 -203z" />
    <glyph glyph-name="Aogonek" unicode="&#x104;" horiz-adv-x="1370" 
d="M234 0h-224l561 1358h228l561 -1358h-50q-191 -129 -191 -219q0 -36 26 -56.5t72 -20.5q59 0 114 27l45 -140q-78 -48 -186 -48q-112 0 -176 51t-64 140q0 142 186 266l-108 283h-686zM965 458l-280 665l-280 -665h560z" />
    <glyph glyph-name="aogonek" unicode="&#x105;" horiz-adv-x="1091" 
d="M459 -20q-163 0 -266 78q-105 78 -105 215q0 135 118 220q117 84 306 84q148 0 242 -45v52q0 91 -68 151q-68 59 -178 59q-78 0 -151 -37t-124 -96l-125 124q59 77 172 137q109 58 231 58q203 0 322 -102t119 -277v-601h-19q-191 -129 -191 -219q0 -36 26 -56.5t72 -20.5
q58 0 114 27l45 -140q-78 -48 -186 -48q-112 0 -176 51t-64 140q0 140 185 266v124q-44 -68 -123 -106t-176 -38zM288 280q0 -64 57 -101q55 -37 143 -37q115 0 191 69q75 69 75 169q-37 19 -102.5 32.5t-134.5 13.5q-105 0 -167 -37t-62 -109z" />
    <glyph glyph-name="Cacute" unicode="&#x106;" horiz-adv-x="1439" 
d="M790 -20q-144 0 -274.5 53.5t-224.5 147.5q-95 94 -149.5 224t-54.5 274q0 195 92 356q91 161 252 252q160 91 354 91q185 0 342 -87q158 -87 255 -244l-163 -114q-163 246 -434 246q-209 0 -343 -141q-135 -141 -135 -359q0 -217 137 -359q136 -141 346 -141
q135 0 247.5 61.5t192.5 178.5l157 -109q-96 -156 -253 -243t-344 -87zM879 1473h-171l152 334h222z" />
    <glyph glyph-name="cacute" unicode="&#x107;" horiz-adv-x="1096" 
d="M589 -20q-218 0 -363 145q-146 146 -146 356q-2 135 67.5 251.5t190 183.5t259.5 64q140 0 254 -69t183 -194l-153 -104q-45 84 -122 132.5t-166 48.5q-136 0 -225 -89q-88 -89 -88 -224t88 -224q88 -91 221 -91q93 0 168.5 46.5t126.5 133.5l149 -105
q-67 -120 -184 -191q-116 -70 -260 -70zM691 1113h-171l152 334h222z" />
    <glyph glyph-name="Ccircumflex" unicode="&#x108;" horiz-adv-x="1439" 
d="M790 -20q-144 0 -274.5 53.5t-224.5 147.5q-95 94 -149.5 224t-54.5 274q0 195 92 356q91 161 252 252q160 91 354 91q185 0 342 -87q158 -87 255 -244l-163 -114q-163 246 -434 246q-209 0 -343 -141q-135 -141 -135 -359q0 -217 137 -359q136 -141 346 -141
q135 0 247.5 61.5t192.5 178.5l157 -109q-96 -156 -253 -243t-344 -87zM792 1658l-135 -187h-189l287 370h74l287 -370h-189z" />
    <glyph glyph-name="ccircumflex" unicode="&#x109;" horiz-adv-x="1096" 
d="M589 -20q-218 0 -363 145q-146 146 -146 356q-2 135 67.5 251.5t190 183.5t259.5 64q140 0 254 -69t183 -194l-153 -104q-45 84 -122 132.5t-166 48.5q-136 0 -225 -89q-88 -89 -88 -224t88 -224q88 -91 221 -91q93 0 168.5 46.5t126.5 133.5l149 -105
q-67 -120 -184 -191q-116 -70 -260 -70zM441 1084h-189l287 370h74l287 -370h-189l-135 187z" />
    <glyph glyph-name="Cdotaccent" unicode="&#x10a;" horiz-adv-x="1439" 
d="M87 679q0 195 92 356q91 161 252 252q160 91 354 91q185 0 342 -87q158 -87 255 -244l-163 -114q-163 246 -434 246q-209 0 -343 -141q-135 -141 -135 -359q0 -217 137 -359q136 -141 346 -141q135 0 247.5 61.5t192.5 178.5l157 -109q-96 -156 -253 -243t-344 -87
q-144 0 -274.5 53.5t-224.5 147.5q-95 94 -149.5 224t-54.5 274zM698 1528q-34 34 -34 88t34 88t88 34q55 0 89 -34t34 -88t-34 -88t-89 -34q-54 0 -88 34z" />
    <glyph glyph-name="cdotaccent" unicode="&#x10b;" horiz-adv-x="1096" 
d="M589 -20q-218 0 -363 145q-146 146 -146 356q-2 135 67.5 251.5t190 183.5t259.5 64q140 0 254 -69t183 -194l-153 -104q-45 84 -122 132.5t-166 48.5q-136 0 -225 -89q-88 -89 -88 -224t88 -224q88 -91 221 -91q93 0 168.5 46.5t126.5 133.5l149 -105
q-67 -120 -184 -191q-116 -70 -260 -70zM496 1194q-34 34 -34 88t34 88t88 34q55 0 89 -34t34 -88t-34 -88t-89 -34q-54 0 -88 34z" />
    <glyph glyph-name="Ccaron" unicode="&#x10c;" horiz-adv-x="1439" 
d="M87 679q0 195 92 356q91 161 252 252q160 91 354 91q185 0 342 -87q158 -87 255 -244l-163 -114q-163 246 -434 246q-209 0 -343 -141q-135 -141 -135 -359q0 -217 137 -359q136 -141 346 -141q135 0 247.5 61.5t192.5 178.5l157 -109q-96 -156 -253 -243t-344 -87
q-144 0 -274.5 53.5t-224.5 147.5q-95 94 -149.5 224t-54.5 274zM821 1481h-74l-287 370h189l135 -187l135 187h189z" />
    <glyph glyph-name="ccaron" unicode="&#x10d;" horiz-adv-x="1096" 
d="M80 481q-2 135 67.5 251.5t190 183.5t259.5 64q140 0 254 -69t183 -194l-153 -104q-45 84 -122 132.5t-166 48.5q-136 0 -225 -89q-88 -89 -88 -224t88 -224q88 -91 221 -91q93 0 168.5 46.5t126.5 133.5l149 -105q-67 -120 -184 -191q-116 -70 -260 -70q-218 0 -363 145
q-146 146 -146 356zM546 1096l-287 370h189l135 -187l135 187h189l-287 -370h-74z" />
    <glyph glyph-name="Dcaron" unicode="&#x10e;" horiz-adv-x="1508" 
d="M176 0v1357h546q199 0 359 -88q159 -89 249 -243q90 -156 90 -348q3 -142 -50.5 -268.5t-147 -217.5t-224 -143t-276.5 -49h-546zM719 1169h-333v-979h333q138 -2 250 63.5t172.5 178t58.5 246.5q0 208 -134 350q-134 141 -347 141zM646 1481l-287 370h189l135 -187
l135 187h189l-287 -370h-74z" />
    <glyph glyph-name="dcaron" unicode="&#x10f;" horiz-adv-x="1337" 
d="M1462 1410l-41 -402h-166v402h207zM83 485q0 219 138 357q137 138 344 138q224 0 342 -151v579h198v-1408h-198v131q-118 -151 -342 -151q-206 0 -344 143t-138 362zM281 485q0 -137 86 -232t222 -95q137 0 227 95t90 232t-90 227t-227 90q-136 0 -222 -90.5t-86 -226.5z
" />
    <glyph glyph-name="Dcroat" unicode="&#x110;" horiz-adv-x="1520" 
d="M188 0v603h-135v184h135v570h546q195 0 353.5 -84.5t251.5 -240.5t93 -354q3 -142 -50.5 -268.5t-147 -217.5t-224 -143t-276.5 -49h-546zM850 787v-184h-452v-413h333q138 -2 250 63.5t172.5 178t58.5 246.5q0 208 -134 350q-133 141 -347 141h-333v-382h452z" />
    <glyph glyph-name="dcroat" unicode="&#x111;" horiz-adv-x="1257" 
d="M565 -20q-206 0 -344 143t-138 362t138 357q137 138 344 138q224 0 342 -151v271h-349v168h349v140h198v-140h128v-168h-128v-1100h-198v131q-118 -151 -342 -151zM281 485q0 -137 86 -232t222 -95q137 0 227 95t90 232t-90 227t-227 90q-136 0 -222 -90.5t-86 -226.5z
" />
    <glyph glyph-name="Emacron" unicode="&#x112;" horiz-adv-x="1236" 
d="M961 1675v-144h-591v144h591zM1149 191v-191h-973v1358h952v-191h-742v-374h637v-191h-637v-411h763z" />
    <glyph glyph-name="emacron" unicode="&#x113;" horiz-adv-x="1123" 
d="M268 1195v144h591v-144h-591zM585 -20q-217 0 -360 141.5t-143 357.5q0 218 139.5 359.5t356.5 141.5q134 1 241.5 -62t165 -169.5t55.5 -233.5q0 -49 -8 -92h-745q8 -115 94 -186t204 -71q184 0 288 164l146 -106q-64 -115 -181.5 -179.5t-252.5 -64.5zM292 571h547
q-9 103 -83.5 166.5t-179.5 63.5q-107 0 -185.5 -62.5t-98.5 -167.5z" />
    <glyph glyph-name="Ebreve" unicode="&#x114;" horiz-adv-x="1236" 
d="M941 1770q-6 -125 -79.5 -201.5t-197.5 -76.5q-123 0 -196.5 76.5t-80.5 201.5h161q7 -61 38 -97t78 -36q50 0 81 36t35 97h161zM1149 0h-973v1358h952v-191h-742v-374h637v-191h-637v-411h763v-191z" />
    <glyph glyph-name="ebreve" unicode="&#x115;" horiz-adv-x="1123" 
d="M302 1413h161q7 -61 38 -97t78 -36q50 0 81 36t35 97h161q-6 -125 -79.5 -201.5t-197.5 -76.5q-123 0 -196.5 76.5t-80.5 201.5zM82 479q0 218 139.5 359.5t356.5 141.5q134 1 241.5 -62t165 -169.5t55.5 -233.5q0 -49 -8 -92h-745q8 -115 94 -186t204 -71q184 0 288 164
l146 -106q-64 -115 -181.5 -179.5t-252.5 -64.5q-217 0 -360 141.5t-143 357.5zM576 801q-107 0 -185.5 -62.5t-98.5 -167.5h547q-9 103 -83.5 166.5t-179.5 63.5z" />
    <glyph glyph-name="Edotaccent" unicode="&#x116;" horiz-adv-x="1236" 
d="M672 1494q-54 0 -88 34t-34 88t34 88t88 34q55 0 89 -33.5t34 -88.5t-34 -88.5t-89 -33.5zM176 0v1358h952v-191h-742v-374h637v-191h-637v-411h763v-191h-973z" />
    <glyph glyph-name="edotaccent" unicode="&#x117;" horiz-adv-x="1123" 
d="M700 1282q0 -55 -34 -88.5t-89 -33.5q-54 0 -88 34t-34 88t34 88t88 34q55 0 89 -33.5t34 -88.5zM82 479q0 218 139.5 359.5t356.5 141.5q134 1 241.5 -62t165 -169.5t55.5 -233.5q0 -49 -8 -92h-745q8 -115 94 -186t204 -71q184 0 288 164l146 -106
q-64 -115 -181.5 -179.5t-252.5 -64.5q-217 0 -360 141.5t-143 357.5zM292 571h547q-9 103 -83.5 166.5t-179.5 63.5q-107 0 -185.5 -62.5t-98.5 -167.5z" />
    <glyph glyph-name="Eogonek" unicode="&#x118;" horiz-adv-x="1236" 
d="M176 0v1358h952v-191h-742v-374h637v-191h-637v-411h763v-191q-191 -129 -191 -219q0 -36 26 -56.5t72 -20.5q58 0 114 27l45 -140q-78 -48 -186 -48q-112 0 -176 51t-64 140q0 140 185 266h-798z" />
    <glyph glyph-name="eogonek" unicode="&#x119;" horiz-adv-x="1123" 
d="M82 479q0 218 139.5 359.5t356.5 141.5q134 1 241.5 -62t165 -169.5t55.5 -233.5q0 -49 -8 -92h-745q8 -115 94 -186t204 -71q184 0 288 164l146 -106q-46 -83 -122.5 -140.5t-172.5 -84.5q-189 -129 -189 -218q0 -36 26 -56.5t72 -20.5q59 0 114 27l45 -140
q-78 -48 -186 -48q-112 0 -176 51t-64 140q0 130 161 249q-130 13 -231.5 81t-157.5 176.5t-56 238.5zM576 801q-107 0 -185.5 -62.5t-98.5 -167.5h547q-9 103 -83.5 166.5t-179.5 63.5z" />
    <glyph glyph-name="Ecaron" unicode="&#x11a;" horiz-adv-x="1236" 
d="M701 1481h-74l-287 370h189l135 -187l135 187h189zM176 0v1358h952v-191h-742v-374h637v-191h-637v-411h763v-191h-973z" />
    <glyph glyph-name="ecaron" unicode="&#x11b;" horiz-adv-x="1123" 
d="M535 1096l-287 370h189l135 -187l135 187h189l-287 -370h-74zM82 479q0 218 139.5 359.5t356.5 141.5q134 1 241.5 -62t165 -169.5t55.5 -233.5q0 -49 -8 -92h-745q8 -115 94 -186t204 -71q184 0 288 164l146 -106q-64 -115 -181.5 -179.5t-252.5 -64.5
q-217 0 -360 141.5t-143 357.5zM292 571h547q-9 103 -83.5 166.5t-179.5 63.5q-107 0 -185.5 -62.5t-98.5 -167.5z" />
    <glyph glyph-name="Gcircumflex" unicode="&#x11c;" horiz-adv-x="1525" 
d="M776 1658l-135 -187h-189l287 370h74l287 -370h-189zM790 -20q-145 0 -275 54t-224 147t-149 222.5t-55 275.5t53 275t145 222.5t222 147.5t278 54q181 0 331.5 -81t248.5 -227l-163 -114q-85 115 -185.5 169t-231.5 54q-213 0 -346 -142.5t-133 -357.5q0 -216 135 -358
t349 -142q188 0 301 97q113 98 135 244h-468v190h686q4 -32 4 -79q0 -132 -44.5 -250t-127.5 -208q-84 -91 -210 -142t-276 -51z" />
    <glyph glyph-name="gcircumflex" unicode="&#x11d;" horiz-adv-x="1257" 
d="M463 1084h-189l287 370h74l287 -370h-189l-135 187zM569 -20q-206 0 -344 143t-138 362t138 357q136 138 344 138q224 0 342 -151v131h198v-885q0 -233 -146 -364t-382 -131q-132 0 -250 53.5t-199 152.5l130 129q143 -155 323 -155q142 0 234 76t92 214v81
q-115 -151 -342 -151zM285 485q0 -137 86 -232t222 -95q137 0 227 95t90 232t-90 227t-227 90q-136 0 -222 -90.5t-86 -226.5z" />
    <glyph glyph-name="Gbreve" unicode="&#x11e;" horiz-adv-x="1525" 
d="M1036 1770q-6 -125 -79.5 -201.5t-197.5 -76.5q-123 0 -196.5 76.5t-80.5 201.5h161q7 -61 38 -97t78 -36q50 0 81 36t35 97h161zM790 -20q-145 0 -275 54t-224 147t-149 222.5t-55 275.5t53 275t145 222.5t222 147.5t278 54q181 0 331.5 -81t248.5 -227l-163 -114
q-85 115 -185.5 169t-231.5 54q-213 0 -346 -142.5t-133 -357.5q0 -216 135 -358t349 -142q188 0 301 97q113 98 135 244h-468v190h686q4 -32 4 -79q0 -132 -44.5 -250t-127.5 -208q-84 -91 -210 -142t-276 -51z" />
    <glyph glyph-name="gbreve" unicode="&#x11f;" horiz-adv-x="1257" 
d="M854 1413q-6 -125 -79.5 -201.5t-197.5 -76.5q-123 0 -196.5 76.5t-80.5 201.5h161q7 -61 38 -97t78 -36q50 0 81 36t35 97h161zM569 -20q-206 0 -344 143t-138 362t138 357q136 138 344 138q224 0 342 -151v131h198v-885q0 -233 -146 -364t-382 -131q-132 0 -250 53.5
t-199 152.5l130 129q143 -155 323 -155q142 0 234 76t92 214v81q-115 -151 -342 -151zM593 802q-136 0 -222 -90.5t-86 -226.5q0 -137 86 -232t222 -95q137 0 227 95t90 232t-90 227t-227 90z" />
    <glyph glyph-name="Gdotaccent" unicode="&#x120;" horiz-adv-x="1525" 
d="M763 1494q-54 0 -88 34t-34 88t34 88t88 34q55 0 89 -33.5t34 -88.5t-34 -88.5t-89 -33.5zM790 -20q-145 0 -275 54t-224 147t-149 222.5t-55 275.5t53 275t145 222.5t222 147.5t278 54q181 0 331.5 -81t248.5 -227l-163 -114q-85 115 -185.5 169t-231.5 54
q-213 0 -346 -142.5t-133 -357.5q0 -216 135 -358t349 -142q188 0 301 97q113 98 135 244h-468v190h686q4 -32 4 -79q0 -132 -44.5 -250t-127.5 -208q-84 -91 -210 -142t-276 -51z" />
    <glyph glyph-name="gdotaccent" unicode="&#x121;" horiz-adv-x="1257" 
d="M592 1160q-54 0 -88 34t-34 88t34 88t88 34q55 0 89 -33.5t34 -88.5t-34 -88.5t-89 -33.5zM569 -20q-206 0 -344 143t-138 362t138 357q136 138 344 138q224 0 342 -151v131h198v-885q0 -233 -146 -364t-382 -131q-132 0 -250 53.5t-199 152.5l130 129q143 -155 323 -155
q142 0 234 76t92 214v81q-115 -151 -342 -151zM285 485q0 -137 86 -232t222 -95q137 0 227 95t90 232t-90 227t-227 90q-136 0 -222 -90.5t-86 -226.5z" />
    <glyph glyph-name="uni0122" unicode="&#x122;" horiz-adv-x="1525" 
d="M790 -20q-145 0 -275 54t-224 147t-149 222.5t-55 275.5t53 275t145 222.5t222 147.5t278 54q181 0 331.5 -81t248.5 -227l-163 -114q-85 115 -185.5 169t-231.5 54q-213 0 -346 -142.5t-133 -357.5q0 -216 135 -358t349 -142q188 0 301 97q113 98 135 244h-468v190h686
q4 -32 4 -79q0 -132 -44.5 -250t-127.5 -208q-84 -91 -210 -142t-276 -51zM904 -116l-55 -402h-166l14 402h207z" />
    <glyph glyph-name="uni0123" unicode="&#x123;" horiz-adv-x="1257" 
d="M714 1104h-207l55 402h166zM569 -20q-206 0 -344 143t-138 362t138 357q136 138 344 138q224 0 342 -151v131h198v-885q0 -233 -146 -364t-382 -131q-132 0 -250 53.5t-199 152.5l130 129q143 -155 323 -155q142 0 234 76t92 214v81q-115 -151 -342 -151zM593 802
q-136 0 -222 -90.5t-86 -226.5q0 -137 86 -232t222 -95q137 0 227 95t90 232t-90 227t-227 90z" />
    <glyph glyph-name="Hcircumflex" unicode="&#x124;" horiz-adv-x="1508" 
d="M754 1658l-135 -187h-189l287 370h74l287 -370h-189zM176 0v1358h210v-570h736v570h210v-1358h-210v598h-736v-598h-210z" />
    <glyph glyph-name="hcircumflex" unicode="&#x125;" horiz-adv-x="1183" 
d="M245 1676l-135 -187h-189l287 370h74l287 -370h-189zM152 0v1408h199v-569q30 45 94 89q79 52 201 52q185 0 291.5 -106t106.5 -291v-583h-198v541q0 119 -61.5 185t-169.5 66q-117 0 -191 -68t-74 -183v-541h-198z" />
    <glyph glyph-name="Hbar" unicode="&#x126;" horiz-adv-x="1586" 
d="M1371 1358v-158h173v-180h-173v-1020h-210v598h-736v-598h-210v1020h-173v180h173v158h210v-158h736v158h210zM1161 788v232h-736v-232h736z" />
    <glyph glyph-name="hbar" unicode="&#x127;" horiz-adv-x="1183" 
d="M152 0v1100h-146v168h146v140h199v-140h349v-168h-349v-261q30 45 94 89q79 52 201 52q185 0 291.5 -106t106.5 -291v-583h-198v541q0 119 -61.5 185t-169.5 66q-117 0 -191 -68t-74 -183v-541h-198z" />
    <glyph glyph-name="Itilde" unicode="&#x128;" horiz-adv-x="562" 
d="M44 1520l-104 87q97 160 218 160q40 1 84 -20t83.5 -42t68.5 -20q42 0 71 18t62 64l95 -95q-49 -80 -101.5 -114.5t-128.5 -34.5q-46 -2 -121.5 38.5t-101.5 38.5q-28 0 -52 -12.5t-37.5 -26.5t-35.5 -41zM386 1358v-1358h-210v1358h210z" />
    <glyph glyph-name="itilde" unicode="&#x129;" horiz-adv-x="502" 
d="M13 1160l-103 87q96 160 217 160q40 1 84 -20t83.5 -42t68.5 -20q42 0 71 18t62 64l95 -95q-49 -80 -101.5 -114.5t-128.5 -34.5q-46 -2 -121.5 38.5t-101.5 38.5q-28 0 -52 -12.5t-37.5 -26.5t-35.5 -41zM350 960v-960h-198v960h198z" />
    <glyph glyph-name="Imacron" unicode="&#x12a;" horiz-adv-x="562" 
d="M-15 1675h592v-144h-592v144zM176 1358h210v-1358h-210v1358z" />
    <glyph glyph-name="imacron" unicode="&#x12b;" horiz-adv-x="502" 
d="M-45 1339h591v-144h-591v144zM350 960v-960h-198v960h198z" />
    <glyph glyph-name="Ibreve" unicode="&#x12c;" horiz-adv-x="562" 
d="M4 1770h161q7 -61 38 -97t78 -36q50 0 81 36t35 97h161q-6 -125 -79.5 -201.5t-197.5 -76.5q-123 0 -196.5 76.5t-80.5 201.5zM386 1358v-1358h-210v1358h210z" />
    <glyph glyph-name="ibreve" unicode="&#x12d;" horiz-adv-x="502" 
d="M-27 1413h162q7 -61 38 -97t78 -36q50 0 81 36t35 97h161q-6 -125 -79.5 -201.5t-197.5 -76.5t-197.5 76.5t-80.5 201.5zM350 0h-198v960h198v-960z" />
    <glyph glyph-name="Iogonek" unicode="&#x12e;" horiz-adv-x="562" 
d="M8 -266q0 140 185 266h-17v1358h210v-1358h-18q-191 -129 -191 -219q0 -36 26 -56.5t72 -20.5q59 0 114 27l45 -140q-78 -48 -186 -48q-112 0 -176 51t-64 140z" />
    <glyph glyph-name="iogonek" unicode="&#x12f;" horiz-adv-x="502" 
d="M379 1282q0 -55 -34 -88.5t-89 -33.5q-54 0 -88 34t-34 88t34 88t88 34q55 0 89 -33.5t34 -88.5zM-23 -266q0 140 185 266h-10v960h198v-960h-13q-191 -129 -191 -219q0 -36 26 -56.5t72 -20.5q58 0 114 27l45 -140q-78 -48 -186 -48q-112 0 -176 51t-64 140z" />
    <glyph glyph-name="Idotaccent" unicode="&#x130;" horiz-adv-x="562" 
d="M284 1494q-54 0 -88 34t-34 88t34 88t88 34q55 0 89 -33.5t34 -88.5t-34 -88.5t-89 -33.5zM176 0v1358h210v-1358h-210z" />
    <glyph glyph-name="dotlessi" unicode="&#x131;" horiz-adv-x="502" 
d="M350 960v-960h-198v960h198z" />
    <glyph glyph-name="IJ" unicode="&#x132;" horiz-adv-x="1614" 
d="M986 -20q-128 0 -233 54t-174 154l138 141q117 -155 268 -155q121 0 188.5 82.5t67.5 231.5v870h210v-885q0 -227 -120.5 -360t-344.5 -133zM176 0v1358h210v-1358h-210z" />
    <glyph glyph-name="ij" unicode="&#x133;" horiz-adv-x="991" 
d="M740 1160q-54 0 -88 34t-34 88t34 88t88 34q55 0 89 -33.5t34 -88.5t-34 -88.5t-89 -33.5zM373 1282q0 -55 -34 -88.5t-89 -33.5q-54 0 -88 34t-34 88t34 88t88 34q55 0 89 -33.5t34 -88.5zM504 -420q-94 0 -159 30l21 164q54 -20 124 -20q79 0 115 46t36 145v1015h198
v-1026q0 -170 -85 -262t-250 -92zM152 0v960h198v-960h-198z" />
    <glyph glyph-name="Jcircumflex" unicode="&#x134;" horiz-adv-x="1041" 
d="M762 1658l-135 -187h-189l287 370h74l287 -370h-189zM6 188l138 141q117 -155 268 -155q121 0 188.5 82.5t67.5 231.5v870h210v-885q0 -227 -120.5 -360t-344.5 -133q-128 0 -233 54t-174 154z" />
    <glyph glyph-name="jcircumflex" unicode="&#x135;" horiz-adv-x="512" 
d="M254 1271l-135 -187h-189l287 370h74l287 -370h-189zM25 -420q-95 0 -159 30l21 164q54 -20 124 -20q79 0 115 46t36 145v1015h198v-1026q0 -170 -85 -262t-250 -92z" />
    <glyph glyph-name="uni0136" unicode="&#x136;" horiz-adv-x="1310" 
d="M176 0v1358h210v-675l622 675h271l-510 -554l544 -804h-256l-436 662l-235 -253v-409h-210zM799 -116l-55 -402h-166l14 402h207z" />
    <glyph glyph-name="uni0137" unicode="&#x137;" horiz-adv-x="1065" 
d="M352 0h-200v1408h200v-865l419 417h272l-413 -402l429 -558h-251l-322 419l-134 -134v-285zM609 -518h-166l14 402h207z" />
    <glyph glyph-name="kgreenlandic" unicode="&#x138;" horiz-adv-x="1065" 
d="M352 0h-200v960h200v-417l419 417h272l-413 -402l429 -558h-251l-322 419l-134 -134v-285z" />
    <glyph glyph-name="Lacute" unicode="&#x139;" horiz-adv-x="1193" 
d="M347 1807h222l-203 -334h-171zM387 191h773v-191h-984v1358h211v-1167z" />
    <glyph glyph-name="lacute" unicode="&#x13a;" horiz-adv-x="502" 
d="M315 1826h222l-203 -334h-171zM152 1408h198v-1408h-198v1408z" />
    <glyph glyph-name="uni013B" unicode="&#x13b;" horiz-adv-x="1193" 
d="M387 191h773v-191h-984v1358h211v-1167zM725 -518h-166l14 402h207z" />
    <glyph glyph-name="uni013C" unicode="&#x13c;" horiz-adv-x="502" 
d="M152 1408h198v-1408h-198v1408zM301 -518h-166l14 402h207z" />
    <glyph glyph-name="Lcaron" unicode="&#x13d;" horiz-adv-x="1198" 
d="M387 191h773v-191h-984v1358h211v-1167zM909 938h-166l14 402h207z" />
    <glyph glyph-name="lcaron" unicode="&#x13e;" horiz-adv-x="582" 
d="M350 1408v-1408h-198v1408h198zM707 1408l-41 -402h-166v402h207z" />
    <glyph glyph-name="Ldot" unicode="&#x13f;" horiz-adv-x="1196" 
d="M1160 191v-191h-984v1358h211v-1167h773zM872 553q-54 0 -88 34t-34 88t34 88t88 34q55 0 89 -33.5t34 -88.5t-34 -88.5t-89 -33.5z" />
    <glyph glyph-name="ldot" unicode="&#x140;" horiz-adv-x="713" 
d="M152 0v1408h198v-1408h-198zM730 677q0 -55 -34 -88.5t-89 -33.5q-54 0 -88 34t-34 88t34 88t88 34q55 0 89 -33.5t34 -88.5z" />
    <glyph glyph-name="Lslash" unicode="&#x141;" horiz-adv-x="1295" 
d="M489 1358v-488l372 28v-174l-372 -28v-505h773v-191h-984v680l-211 -16v174l211 16v504h211z" />
    <glyph glyph-name="lslash" unicode="&#x142;" horiz-adv-x="726" 
d="M274 445l-203 -84v178l203 84v785h198v-702l203 84v-178l-203 -84v-528h-198v445z" />
    <glyph glyph-name="Nacute" unicode="&#x143;" horiz-adv-x="1599" 
d="M1094 1807l-203 -334h-171l152 334h222zM386 1025v-1025h-210v1358h210l827 -1035v1035h210v-1358h-212z" />
    <glyph glyph-name="nacute" unicode="&#x144;" horiz-adv-x="1188" 
d="M727 1113h-171l152 334h222zM350 541v-541h-198v960h199v-121q30 45 94 89q79 52 201 52q188 0 295.5 -105t107.5 -292v-583h-198v541q0 119 -62 185t-174 66q-117 0 -191 -68t-74 -183z" />
    <glyph glyph-name="uni0145" unicode="&#x145;" horiz-adv-x="1599" 
d="M386 1025v-1025h-210v1358h210l827 -1035v1035h210v-1358h-212zM845 -518h-166l14 402h207z" />
    <glyph glyph-name="uni0146" unicode="&#x146;" horiz-adv-x="1188" 
d="M152 0v960h199v-121q30 45 94 89q79 52 201 52q188 0 295.5 -105t107.5 -292v-583h-198v541q0 119 -62 185t-174 66q-117 0 -191 -68t-74 -183v-541h-198zM722 -116l-55 -402h-166l14 402h207z" />
    <glyph glyph-name="Ncaron" unicode="&#x147;" horiz-adv-x="1599" 
d="M763 1481l-287 370h189l135 -187l135 187h189l-287 -370h-74zM386 1025v-1025h-210v1358h210l827 -1035v1035h210v-1358h-212z" />
    <glyph glyph-name="ncaron" unicode="&#x148;" horiz-adv-x="1188" 
d="M592 1096l-287 370h189l135 -187l135 187h189l-287 -370h-74zM350 0h-198v960h199v-121q30 45 94 89q79 52 201 52q188 0 295.5 -105t107.5 -292v-583h-198v541q0 119 -62 185t-174 66q-117 0 -191 -68t-74 -183v-541z" />
    <glyph glyph-name="napostrophe" unicode="&#x149;" horiz-adv-x="1441" 
d="M393 1428l-183 -516h-186l137 516h232zM405 0v960h199v-121q30 45 94 89q79 52 201 52q188 0 295.5 -105t107.5 -292v-583h-198v541q0 119 -62 185t-174 66q-117 0 -191 -68t-74 -183v-541h-198z" />
    <glyph glyph-name="Eng" unicode="&#x14a;" horiz-adv-x="1599" 
d="M176 0v1358h210l827 -1035v1035h210v-1444q0 -161 -82.5 -247.5t-242.5 -86.5q-86 0 -141 30l21 164q45 -20 106 -20q68 0 98.5 40.5t30.5 130.5v75h-2l-825 1025v-1025h-210z" />
    <glyph glyph-name="eng" unicode="&#x14b;" horiz-adv-x="1188" 
d="M350 541v-541h-198v960h199v-121q30 45 94 89q79 52 201 52q188 0 295.5 -105t107.5 -292v-679q0 -155 -78 -239.5t-227 -84.5q-84 0 -139 30l21 164q45 -20 104 -20q63 0 92 39t29 122v626q0 119 -62 185t-174 66q-117 0 -191 -68t-74 -183z" />
    <glyph glyph-name="Omacron" unicode="&#x14c;" horiz-adv-x="1579" 
d="M1085 1675v-144h-591v144h591zM88 677q0 149 52.5 278.5t144.5 222.5t222.5 146.5t281.5 53.5q200 0 360.5 -90t251 -250.5t90.5 -360.5t-89 -359t-249.5 -248.5t-363.5 -89.5q-199 0 -358.5 88t-251 247.5t-91.5 361.5zM308 679q0 -221 130.5 -360.5t350.5 -139.5
q221 0 351.5 138.5t130.5 361.5q0 221 -131 360.5t-351 139.5q-217 0 -349 -141t-132 -359z" />
    <glyph glyph-name="omacron" unicode="&#x14d;" horiz-adv-x="1182" 
d="M887 1339v-144h-591v144h591zM591 -20q-217 0 -363.5 142t-146.5 358t146.5 358t363.5 142t363.5 -142t146.5 -358t-146.5 -358t-363.5 -142zM591 794q-135 0 -223.5 -89.5t-88.5 -224.5t88.5 -224.5t223.5 -89.5q136 0 224 89t88 225t-88 225t-224 89z" />
    <glyph glyph-name="Obreve" unicode="&#x14e;" horiz-adv-x="1579" 
d="M513 1770h161q7 -61 38 -97t78 -36q50 0 81 36t35 97h161q-6 -125 -79.5 -201.5t-197.5 -76.5q-123 0 -196.5 76.5t-80.5 201.5zM789 -20q-199 0 -358.5 88t-251 247.5t-91.5 361.5q0 149 52.5 278.5t144.5 222.5t222.5 146.5t281.5 53.5q200 0 360.5 -90t251 -250.5
t90.5 -360.5t-89 -359t-249.5 -248.5t-363.5 -89.5zM789 1179q-217 0 -349 -141t-132 -359q0 -221 130.5 -360.5t350.5 -139.5q221 0 351.5 138.5t130.5 361.5q0 221 -131 360.5t-351 139.5z" />
    <glyph glyph-name="obreve" unicode="&#x14f;" horiz-adv-x="1182" 
d="M868 1413q-6 -125 -79.5 -201.5t-197.5 -76.5q-123 0 -196.5 76.5t-80.5 201.5h161q7 -61 38 -97t78 -36q50 0 81 36t35 97h161zM1101 480q0 -216 -146.5 -358t-363.5 -142t-363.5 142t-146.5 358t146.5 358t363.5 142t363.5 -142t146.5 -358zM903 480q0 136 -88 225
t-224 89q-135 0 -223.5 -89.5t-88.5 -224.5t88.5 -224.5t223.5 -89.5q136 0 224 89t88 225z" />
    <glyph glyph-name="Ohungarumlaut" unicode="&#x150;" horiz-adv-x="1579" 
d="M1234 1807l-203 -334h-171l152 334h222zM701 1473h-171l152 334h222zM789 -20q-199 0 -358.5 88t-251 247.5t-91.5 361.5q0 149 52.5 278.5t144.5 222.5t222.5 146.5t281.5 53.5q200 0 360.5 -90t251 -250.5t90.5 -360.5t-89 -359t-249.5 -248.5t-363.5 -89.5zM789 1179
q-217 0 -349 -141t-132 -359q0 -221 130.5 -360.5t350.5 -139.5q221 0 351.5 138.5t130.5 361.5q0 221 -131 360.5t-351 139.5z" />
    <glyph glyph-name="ohungarumlaut" unicode="&#x151;" horiz-adv-x="1182" 
d="M1055 1447l-203 -334h-171l152 334h222zM522 1113h-171l152 334h222zM1101 480q0 -216 -146.5 -358t-363.5 -142t-363.5 142t-146.5 358t146.5 358t363.5 142t363.5 -142t146.5 -358zM903 480q0 136 -88 225t-224 89q-135 0 -223.5 -89.5t-88.5 -224.5t88.5 -224.5
t223.5 -89.5q136 0 224 89t88 225z" />
    <glyph glyph-name="OE" unicode="&#x152;" horiz-adv-x="2307" 
d="M790 -21q-149 0 -279 51.5t-223 142.5t-146.5 220.5t-53.5 278.5q0 202 89.5 363t250 252t362.5 91q283 0 459 -182v162h950v-191h-740v-374h635v-191h-635v-411h761v-191h-971v157q-175 -178 -459 -178zM310 674q0 -219 131.5 -357.5t348.5 -138.5q214 0 341.5 140
t127.5 356q0 219 -126.5 362t-342.5 143q-219 0 -349.5 -142t-130.5 -363z" />
    <glyph glyph-name="oe" unicode="&#x153;" horiz-adv-x="1907" 
d="M586 -20q-214 0 -359.5 142.5t-145.5 357.5q0 213 144.5 356.5t360.5 143.5q122 0 226 -52t168 -143q60 91 163 143t226 52q200 0 327 -132t127 -333q0 -49 -8 -92h-741q8 -115 94.5 -186.5t203.5 -71.5q85 0 159.5 42t122.5 119l155 -99q-65 -117 -182.5 -182
t-254.5 -65q-118 0 -224.5 51.5t-169.5 145.5q-71 -94 -172 -145.5t-220 -51.5zM1079 571h548q-15 102 -86.5 166t-173.5 64q-108 0 -188 -63t-100 -167zM586 794q-134 0 -221.5 -90t-87.5 -224t87.5 -224t221.5 -90t225 90t91 224q0 135 -90.5 224.5t-225.5 89.5z" />
    <glyph glyph-name="Racute" unicode="&#x154;" horiz-adv-x="1333" 
d="M914 1807l-203 -334h-171l152 334h222zM176 0v1357h584q203 0 332.5 -107t129.5 -305q0 -137 -73 -237.5t-202 -145.5l329 -562h-244l-307 533h-339v-533h-210zM750 1168h-364v-448h364q120 0 186.5 60.5t66.5 164.5q0 105 -65.5 164t-187.5 59z" />
    <glyph glyph-name="racute" unicode="&#x155;" horiz-adv-x="769" 
d="M537 1113h-171l152 334h222zM351 523v-523h-199v960h199v-131q78 151 250 151q68 0 115 -18l17 -6l-21 -182q-59 22 -117 22q-89 0 -161 -54q-83 -62 -83 -219z" />
    <glyph glyph-name="uni0156" unicode="&#x156;" horiz-adv-x="1333" 
d="M176 0v1357h584q203 0 332.5 -107t129.5 -305q0 -137 -73 -237.5t-202 -145.5l329 -562h-244l-307 533h-339v-533h-210zM750 1168h-364v-448h364q120 0 186.5 60.5t66.5 164.5q0 105 -65.5 164t-187.5 59zM780 -116l-55 -402h-166l14 402h207z" />
    <glyph glyph-name="uni0157" unicode="&#x157;" horiz-adv-x="769" 
d="M351 523v-523h-199v960h199v-131q78 151 250 151q68 0 115 -18l17 -6l-21 -182q-59 22 -117 22q-89 0 -161 -54q-83 -62 -83 -219zM301 -518h-166l14 402h207z" />
    <glyph glyph-name="Rcaron" unicode="&#x158;" horiz-adv-x="1333" 
d="M567 1481l-287 370h189l135 -187l135 187h189l-287 -370h-74zM176 0v1357h584q203 0 332.5 -107t129.5 -305q0 -137 -73 -237.5t-202 -145.5l329 -562h-244l-307 533h-339v-533h-210zM750 1168h-364v-448h364q120 0 186.5 60.5t66.5 164.5q0 105 -65.5 164t-187.5 59z
" />
    <glyph glyph-name="rcaron" unicode="&#x159;" horiz-adv-x="769" 
d="M412 1096l-287 370h189l135 -187l135 187h189l-287 -370h-74zM351 0h-199v960h199v-131q78 151 250 151q68 0 115 -18l17 -6l-21 -182q-59 22 -117 22q-89 0 -161 -54q-83 -62 -83 -219v-523z" />
    <glyph glyph-name="Sacute" unicode="&#x15a;" horiz-adv-x="1202" 
d="M693 1473h-171l152 334h222zM92 288l157 109q52 -108 148 -168t226 -60q48 0 94.5 10.5t89 32t69 61t26.5 90.5q0 80 -71 128q-73 48 -237 100q-288 93 -374 186q-86 92 -85 223q1 72 27.5 134t71 106.5t103.5 76t125 46.5t135 15q176 0 300 -79t187 -201l-163 -114
q-51 95 -135.5 149t-188.5 54q-44 0 -87 -11t-80.5 -32.5t-60.5 -58.5t-23 -84q0 -21 4 -39t15.5 -34t21 -27.5t33 -25t38.5 -21.5t49 -20.5t53.5 -19.5t63.5 -22q18 -7 25 -8q192 -66 269 -107q98 -53 146.5 -129t48.5 -183q0 -94 -43.5 -169.5t-114.5 -121.5t-155.5 -70
t-172.5 -24q-192 0 -332 86q-142 86 -203 222z" />
    <glyph glyph-name="sacute" unicode="&#x15b;" horiz-adv-x="962" 
d="M563 1113h-171l152 334h222zM78 202l147 119q43 -75 112 -117t156 -42q79 0 129.5 29t50.5 77q0 50 -43 75q-45 25 -157 50q-163 36 -252 96q-101 67 -101 205q0 70 31 126t82.5 90t113.5 52t128 18q117 0 219.5 -51.5t160.5 -146.5l-133 -114q-92 131 -247 131
q-72 0 -115.5 -28t-43.5 -74q4 -35 20 -54.5t58 -34.5q44 -17 134 -38q60 -15 101 -28t91.5 -37.5t80.5 -54t51 -76.5t21 -106q0 -71 -35 -128t-91 -91t-121.5 -51.5t-132.5 -17.5q-131 0 -244 56.5t-171 165.5z" />
    <glyph glyph-name="Scircumflex" unicode="&#x15c;" horiz-adv-x="1202" 
d="M589 1658l-135 -187h-189l287 370h74l287 -370h-189zM627 -20q-192 0 -332 86q-142 86 -203 222l157 109q52 -108 148 -168t226 -60q48 0 94.5 10.5t89 32t69 61t26.5 90.5q0 80 -71 128q-73 48 -237 100q-288 93 -374 186q-86 92 -85 223q1 72 27.5 134t71 106.5
t103.5 76t125 46.5t135 15q176 0 300 -79t187 -201l-163 -114q-51 95 -135.5 149t-188.5 54q-44 0 -87 -11t-80.5 -32.5t-60.5 -58.5t-23 -84q0 -21 4 -39t15.5 -34t21 -27.5t33 -25t38.5 -21.5t49 -20.5t53.5 -19.5t63.5 -22q18 -7 25 -8q192 -66 269 -107
q98 -53 146.5 -129t48.5 -183q0 -94 -43.5 -169.5t-114.5 -121.5t-155.5 -70t-172.5 -24z" />
    <glyph glyph-name="scircumflex" unicode="&#x15d;" horiz-adv-x="962" 
d="M368 1084h-189l287 370h74l287 -370h-189l-135 187zM493 -20q-131 0 -244 56.5t-171 165.5l147 119q43 -75 112 -117t156 -42q79 0 129.5 29t50.5 77q0 50 -43 75q-45 25 -157 50q-163 36 -252 96q-101 67 -101 205q0 70 31 126t82.5 90t113.5 52t128 18
q117 0 219.5 -51.5t160.5 -146.5l-133 -114q-92 131 -247 131q-72 0 -115.5 -28t-43.5 -74q4 -35 20 -54.5t58 -34.5q44 -17 134 -38q60 -15 101 -28t91.5 -37.5t80.5 -54t51 -76.5t21 -106q0 -71 -35 -128t-91 -91t-121.5 -51.5t-132.5 -17.5z" />
    <glyph glyph-name="Scedilla" unicode="&#x15e;" horiz-adv-x="1202" 
d="M92 288l157 109q52 -108 148 -168t226 -60q48 0 94.5 10.5t89 32t69 61t26.5 90.5q0 80 -71 128q-73 48 -237 100q-288 93 -374 186q-86 92 -85 223q1 72 27.5 134t71 106.5t103.5 76t125 46.5t135 15q176 0 300 -79t187 -201l-163 -114q-51 95 -135.5 149t-188.5 54
q-44 0 -87 -11t-80.5 -32.5t-60.5 -58.5t-23 -84q0 -21 4 -39t15.5 -34t21 -27.5t33 -25t38.5 -21.5t49 -20.5t53.5 -19.5t63.5 -22q18 -7 25 -8q192 -66 269 -107q98 -53 146.5 -129t48.5 -183q0 -88 -38.5 -160.5t-103 -118.5t-142.5 -73t-163 -32l-22 -72
q96 -8 150.5 -53t54.5 -118q0 -91 -73.5 -143t-203.5 -52q-101 0 -169 35l35 123q57 -26 123 -26q116 0 116 66q0 69 -130 69h-69l68 174q-149 16 -271.5 95t-182.5 209z" />
    <glyph glyph-name="scedilla" unicode="&#x15f;" horiz-adv-x="962" 
d="M78 202l147 119q43 -75 112 -117t156 -42q79 0 129.5 29t50.5 77q0 50 -43 75q-45 25 -157 50q-163 36 -252 96q-101 67 -101 205q0 70 31 126t82.5 90t113.5 52t128 18q117 0 219.5 -51.5t160.5 -146.5l-133 -114q-92 131 -247 131q-72 0 -115.5 -28t-43.5 -74
q4 -35 20 -54.5t58 -34.5q44 -17 134 -38q60 -15 101 -28t91.5 -37.5t80.5 -54t51 -76.5t21 -106q0 -65 -29.5 -118.5t-78 -88t-106.5 -54.5t-120 -25l-22 -73q96 -8 150.5 -53t54.5 -118q0 -91 -73.5 -143t-203.5 -52q-101 0 -169 35l35 123q57 -26 123 -26q116 0 116 66
q0 69 -130 69h-69l68 175q-113 14 -203 71.5t-138 145.5z" />
    <glyph glyph-name="Scaron" unicode="&#x160;" horiz-adv-x="1202" 
d="M565 1481l-287 370h189l135 -187l135 187h189l-287 -370h-74zM627 -20q-192 0 -332 86q-142 86 -203 222l157 109q52 -108 148 -168t226 -60q48 0 94.5 10.5t89 32t69 61t26.5 90.5q0 80 -71 128q-73 48 -237 100q-288 93 -374 186q-86 92 -85 223q1 72 27.5 134
t71 106.5t103.5 76t125 46.5t135 15q176 0 300 -79t187 -201l-163 -114q-51 95 -135.5 149t-188.5 54q-44 0 -87 -11t-80.5 -32.5t-60.5 -58.5t-23 -84q0 -21 4 -39t15.5 -34t21 -27.5t33 -25t38.5 -21.5t49 -20.5t53.5 -19.5t63.5 -22q18 -7 25 -8q192 -66 269 -107
q98 -53 146.5 -129t48.5 -183q0 -94 -43.5 -169.5t-114.5 -121.5t-155.5 -70t-172.5 -24z" />
    <glyph glyph-name="scaron" unicode="&#x161;" horiz-adv-x="962" 
d="M461 1096l-287 370h189l135 -187l135 187h189l-287 -370h-74zM493 -20q-131 0 -244 56.5t-171 165.5l147 119q43 -75 112 -117t156 -42q79 0 129.5 29t50.5 77q0 50 -43 75q-45 25 -157 50q-163 36 -252 96q-101 67 -101 205q0 70 31 126t82.5 90t113.5 52t128 18
q117 0 219.5 -51.5t160.5 -146.5l-133 -114q-92 131 -247 131q-72 0 -115.5 -28t-43.5 -74q4 -35 20 -54.5t58 -34.5q44 -17 134 -38q60 -15 101 -28t91.5 -37.5t80.5 -54t51 -76.5t21 -106q0 -71 -35 -128t-91 -91t-121.5 -51.5t-132.5 -17.5z" />
    <glyph glyph-name="uni0162" unicode="&#x162;" horiz-adv-x="1160" 
d="M476 0v1161h-448v197h1104v-197h-447v-1161h-42l-28 -91q96 -8 150.5 -53t54.5 -118q0 -91 -73.5 -143t-203.5 -52q-101 0 -169 35l35 123q57 -26 123 -26q116 0 116 66q0 69 -130 69h-69l74 190h-47z" />
    <glyph glyph-name="uni0163" unicode="&#x163;" horiz-adv-x="782" 
d="M210 288v504h-171v168h174v308h193v-308h305v-168h-303v-480q0 -75 41 -114t116 -39q78 0 156 33l26 -170q-81 -42 -210 -42q-7 0 -47 2l-22 -73q96 -8 150.5 -53t54.5 -118q0 -91 -73.5 -143t-203.5 -52q-101 0 -169 35l35 123q57 -26 123 -26q116 0 116 66
q0 69 -130 69h-69l77 199q-81 34 -125 105.5t-44 173.5z" />
    <glyph glyph-name="Tcaron" unicode="&#x164;" horiz-adv-x="1160" 
d="M543 1481l-287 370h189l135 -187l135 187h189l-287 -370h-74zM476 1161h-448v197h1104v-197h-447v-1161h-209v1161z" />
    <glyph glyph-name="tcaron" unicode="&#x165;" horiz-adv-x="782" 
d="M536 1108v402h207l-41 -402h-166zM210 792h-171v168h174v308h193v-308h305v-168h-303v-480q0 -75 41 -114t116 -39q78 0 156 33l26 -170q-81 -42 -210 -42q-149 0 -238 80t-89 228v504z" />
    <glyph glyph-name="Tbar" unicode="&#x166;" horiz-adv-x="1226" 
d="M509 795v366h-448v197h1104v-197h-447v-366h346v-174h-346v-621h-209v621h-348v174h348z" />
    <glyph glyph-name="tbar" unicode="&#x167;" horiz-adv-x="801" 
d="M224 589v203h-171v168h174v308h193v-308h305v-168h-303v-203h293v-162h-293v-115q0 -75 41 -114t116 -39q78 0 156 33l26 -170q-81 -42 -210 -42q-149 0 -238 80t-89 228v139h-161v162h161z" />
    <glyph glyph-name="Utilde" unicode="&#x168;" horiz-adv-x="1463" 
d="M494 1520l-103 87q96 160 217 160q40 1 84 -20t83.5 -42t68.5 -20q42 0 71 18t62 64l95 -95q-49 -80 -101.5 -114.5t-128.5 -34.5q-46 -2 -121.5 38.5t-101.5 38.5q-28 0 -52 -12.5t-37.5 -26.5t-35.5 -41zM1302 491q0 -124 -44 -222.5t-121.5 -161t-180.5 -95
t-224 -32.5q-262 0 -416 139q-155 140 -155 372v867h208v-858q0 -155 102 -240t261 -85t260.5 84.5t101.5 240.5v858h208v-867z" />
    <glyph glyph-name="utilde" unicode="&#x169;" horiz-adv-x="1191" 
d="M344 1160l-103 87q96 160 217 160q40 1 84 -20t83.5 -42t68.5 -20q42 0 71 18t62 64l95 -95q-49 -80 -101.5 -114.5t-128.5 -34.5q-46 -2 -121.5 38.5t-101.5 38.5q-28 0 -52 -12.5t-37.5 -26.5t-35.5 -41zM139 377v583h198v-541q0 -119 62 -185t172 -66q118 0 194 67.5
t76 183.5v541h198v-960h-199v121q-30 -46 -94 -88q-80 -53 -206 -53q-186 0 -293.5 105.5t-107.5 291.5z" />
    <glyph glyph-name="Umacron" unicode="&#x16a;" horiz-adv-x="1463" 
d="M1027 1531h-591v144h591v-144zM1302 491q0 -124 -44 -222.5t-121.5 -161t-180.5 -95t-224 -32.5q-262 0 -416 139q-155 140 -155 372v867h208v-858q0 -155 102 -240t261 -85t260.5 84.5t101.5 240.5v858h208v-867z" />
    <glyph glyph-name="umacron" unicode="&#x16b;" horiz-adv-x="1191" 
d="M282 1195v144h591v-144h-591zM139 377v583h198v-541q0 -119 62 -185t172 -66q118 0 194 67.5t76 183.5v541h198v-960h-199v121q-30 -46 -94 -88q-80 -53 -206 -53q-186 0 -293.5 105.5t-107.5 291.5z" />
    <glyph glyph-name="Ubreve" unicode="&#x16c;" horiz-adv-x="1463" 
d="M455 1770h161q7 -61 38 -97t78 -36q50 0 81 36t35 97h161q-6 -125 -79.5 -201.5t-197.5 -76.5q-123 0 -196.5 76.5t-80.5 201.5zM161 491v867h208v-858q0 -155 102 -240t261 -85t260.5 84.5t101.5 240.5v858h208v-867q0 -124 -44 -222.5t-121.5 -161t-180.5 -95
t-224 -32.5q-262 0 -416 139q-155 140 -155 372z" />
    <glyph glyph-name="ubreve" unicode="&#x16d;" horiz-adv-x="1191" 
d="M847 1413q-6 -125 -79.5 -201.5t-197.5 -76.5q-123 0 -196.5 76.5t-80.5 201.5h161q7 -61 38 -97t78 -36q50 0 81 36t35 97h161zM139 377v583h198v-541q0 -119 62 -185t172 -66q118 0 194 67.5t76 183.5v541h198v-960h-199v121q-30 -46 -94 -88q-80 -53 -206 -53
q-186 0 -293.5 105.5t-107.5 291.5z" />
    <glyph glyph-name="Uring" unicode="&#x16e;" horiz-adv-x="1463" 
d="M938 1692q0 -89 -58 -142t-148 -53t-148 53t-58 142q0 90 57.5 144t148.5 54t148.5 -54t57.5 -144zM646 1691q0 -36 23.5 -58.5t62.5 -22.5q38 0 61.5 22.5t23.5 58.5q0 39 -23.5 63t-61.5 24q-39 0 -62.5 -24t-23.5 -63zM161 491v867h208v-858q0 -155 102 -240t261 -85
t260.5 84.5t101.5 240.5v858h208v-867q0 -124 -44 -222.5t-121.5 -161t-180.5 -95t-224 -32.5q-262 0 -416 139q-155 140 -155 372z" />
    <glyph glyph-name="uring" unicode="&#x16f;" horiz-adv-x="1191" 
d="M356 1290q0 90 57.5 144t148.5 54t148.5 -54t57.5 -144q0 -89 -58 -142t-148 -53t-148 53t-58 142zM562 1376q-39 0 -62.5 -24t-23.5 -63q0 -36 23.5 -58.5t62.5 -22.5q38 0 61.5 22.5t23.5 58.5q0 39 -23.5 63t-61.5 24zM139 377v583h198v-541q0 -119 62 -185t172 -66
q118 0 194 67.5t76 183.5v541h198v-960h-199v121q-30 -46 -94 -88q-80 -53 -206 -53q-186 0 -293.5 105.5t-107.5 291.5z" />
    <glyph glyph-name="Uhungarumlaut" unicode="&#x170;" horiz-adv-x="1463" 
d="M1186 1807l-203 -334h-171l152 334h222zM857 1807l-203 -334h-171l152 334h222zM1302 491q0 -124 -44 -222.5t-121.5 -161t-180.5 -95t-224 -32.5q-262 0 -416 139q-155 140 -155 372v867h208v-858q0 -155 102 -240t261 -85t260.5 84.5t101.5 240.5v858h208v-867z" />
    <glyph glyph-name="uhungarumlaut" unicode="&#x171;" horiz-adv-x="1191" 
d="M836 1113h-171l152 334h222zM506 1113h-171l152 334h222zM139 377v583h198v-541q0 -119 62 -185t172 -66q118 0 194 67.5t76 183.5v541h198v-960h-199v121q-30 -46 -94 -88q-80 -53 -206 -53q-186 0 -293.5 105.5t-107.5 291.5z" />
    <glyph glyph-name="Uogonek" unicode="&#x172;" horiz-adv-x="1463" 
d="M161 491v867h208v-858q0 -155 102 -240t261 -85t260.5 84.5t101.5 240.5v858h208v-867q0 -190 -104 -319t-290 -173q-190 -129 -190 -218q0 -36 26 -56.5t72 -20.5q58 0 114 27l45 -140q-78 -48 -186 -48q-112 0 -176 51t-64 140q0 129 158 246q-117 3 -216 38t-173 98
t-115.5 159.5t-41.5 215.5z" />
    <glyph glyph-name="uogonek" unicode="&#x173;" horiz-adv-x="1191" 
d="M139 377v583h198v-541q0 -119 62 -185t172 -66q118 0 194 67.5t76 183.5v541h198v-960h-24q-191 -129 -191 -219q0 -36 26 -56.5t72 -20.5q58 0 114 27l45 -140q-78 -48 -186 -48q-112 0 -176 51t-64 140q0 140 185 266v121q-30 -46 -94 -88q-80 -53 -206 -53
q-186 0 -293.5 105.5t-107.5 291.5z" />
    <glyph glyph-name="Wcircumflex" unicode="&#x174;" horiz-adv-x="2039" 
d="M1020 1658l-135 -187h-189l287 370h74l287 -370h-189zM408 0l-378 1358h210l338 -1169l329 1147h225l329 -1147l337 1169h211l-378 -1358h-339l-273 1006l-272 -1006h-339z" />
    <glyph glyph-name="wcircumflex" unicode="&#x175;" horiz-adv-x="1576" 
d="M788 1271l-135 -187h-189l287 370h74l287 -370h-189zM322 0l-283 960h209l211 -766l224 756h210l224 -756l211 766h209l-283 -960h-270l-196 683l-196 -683h-270z" />
    <glyph glyph-name="Ycircumflex" unicode="&#x176;" horiz-adv-x="1269" 
d="M635 1658l-135 -187h-189l287 370h74l287 -370h-189zM530 0v522l-515 836h250l369 -614l370 614h250l-515 -836v-522h-209z" />
    <glyph glyph-name="ycircumflex" unicode="&#x177;" horiz-adv-x="1080" 
d="M398 1084h-189l287 370h74l287 -370h-189l-135 187zM438 -14l-414 974h218l299 -756l297 756h218l-460 -1082q-35 -78 -66 -127.5t-76 -91t-106.5 -60.5t-145.5 -19q-92 0 -159 35l21 164q54 -25 129 -25q90 0 140 43t84 134z" />
    <glyph glyph-name="Ydieresis" unicode="&#x178;" horiz-adv-x="1269" 
d="M811 1496q-54 0 -88 34t-34 88t34 88t88 34q55 0 89 -33.5t34 -88.5t-34 -88.5t-89 -33.5zM581 1618q0 -55 -34 -88.5t-89 -33.5q-54 0 -88 34t-34 88t34 88t88 34q55 0 89 -33.5t34 -88.5zM530 522l-515 836h250l369 -614l370 614h250l-515 -836v-522h-209v522z" />
    <glyph glyph-name="Zacute" unicode="&#x179;" horiz-adv-x="1206" 
d="M657 1807h222l-203 -334h-171zM1129 0h-1049v166l765 1001h-755v191h1029v-169l-767 -998h777v-191z" />
    <glyph glyph-name="zacute" unicode="&#x17a;" horiz-adv-x="903" 
d="M512 1447h222l-203 -334h-171zM834 0h-751v165l495 627h-485v168h710v-165l-495 -627h526v-168z" />
    <glyph glyph-name="Zdotaccent" unicode="&#x17b;" horiz-adv-x="1206" 
d="M585 1494q-54 0 -88 34t-34 88t34 88t88 34q55 0 89 -33.5t34 -88.5t-34 -88.5t-89 -33.5zM1129 0h-1049v166l765 1001h-755v191h1029v-169l-767 -998h777v-191z" />
    <glyph glyph-name="zdotaccent" unicode="&#x17c;" horiz-adv-x="903" 
d="M447 1160q-54 0 -88 34t-34 88t34 88t88 34q55 0 89 -33.5t34 -88.5t-34 -88.5t-89 -33.5zM834 0h-751v165l495 627h-485v168h710v-165l-495 -627h526v-168z" />
    <glyph glyph-name="Zcaron" unicode="&#x17d;" horiz-adv-x="1206" 
d="M636 1481h-74l-287 370h189l135 -187l135 187h189zM1129 0h-1049v166l765 1001h-755v191h1029v-169l-767 -998h777v-191z" />
    <glyph glyph-name="zcaron" unicode="&#x17e;" horiz-adv-x="903" 
d="M489 1096h-74l-287 370h189l135 -187l135 187h189zM834 0h-751v165l495 627h-485v168h710v-165l-495 -627h526v-168z" />
    <glyph glyph-name="uni018F" unicode="&#x18f;" horiz-adv-x="1522" 
d="M82 644q0 48 6 96h1125q-17 193 -149.5 316t-326.5 123q-271 0 -434 -246l-163 114q98 158 254.5 244.5t342.5 86.5q195 0 354.5 -90.5t251.5 -251t92 -357.5q0 -195 -93 -355.5t-254.5 -252t-355.5 -91.5q-145 0 -270.5 53.5t-207.5 146.5q-82 92 -127 212t-45 252z
M1204 562h-898q6 -142 114 -258q53 -57 134.5 -91t177.5 -34q179 0 307.5 104t164.5 279z" />
    <glyph glyph-name="florin" unicode="&#x192;" horiz-adv-x="1163" 
d="M254 -20q-114 0 -208 66l86 165q58 -42 126 -42t116.5 43.5t57.5 117.5l48 396h-182l22 176h184l17 135q20 153 121 246.5t254 93.5q119 0 213 -65l-86 -165q-59 42 -126 42q-68 0 -117.5 -43.5t-58.5 -117.5l-16 -126h282l-22 -176h-279l-52 -405q-20 -153 -123.5 -247
t-256.5 -94z" />
    <glyph glyph-name="uni019D" unicode="&#x19d;" horiz-adv-x="1599" 
d="M-80 -390l21 164q45 -20 106 -20q68 0 98.5 40.5t30.5 130.5v1433h210l827 -1035v1035h210v-1358h-212l-825 1025v-1111q0 -161 -82.5 -247.5t-242.5 -86.5q-85 0 -141 30z" />
    <glyph glyph-name="Gcaron" unicode="&#x1e6;" horiz-adv-x="1525" 
d="M813 1481h-74l-287 370h189l135 -187l135 187h189zM790 -20q-145 0 -275 54t-224 147t-149 222.5t-55 275.5t53 275t145 222.5t222 147.5t278 54q181 0 331.5 -81t248.5 -227l-163 -114q-85 115 -185.5 169t-231.5 54q-213 0 -346 -142.5t-133 -357.5q0 -216 135 -358
t349 -142q188 0 301 97q113 98 135 244h-468v190h686q4 -32 4 -79q0 -132 -44.5 -250t-127.5 -208q-84 -91 -210 -142t-276 -51z" />
    <glyph glyph-name="gcaron" unicode="&#x1e7;" horiz-adv-x="1257" 
d="M578 1096l-287 370h189l135 -187l135 187h189l-287 -370h-74zM569 -20q-206 0 -344 143t-138 362t138 357q136 138 344 138q224 0 342 -151v131h198v-885q0 -233 -146 -364t-382 -131q-132 0 -250 53.5t-199 152.5l130 129q143 -155 323 -155q142 0 234 76t92 214v81
q-115 -151 -342 -151zM593 802q-136 0 -222 -90.5t-86 -226.5q0 -137 86 -232t222 -95q137 0 227 95t90 232t-90 227t-227 90z" />
    <glyph glyph-name="uni01EA" unicode="&#x1ea;" horiz-adv-x="1579" 
d="M764 -20q-194 6 -348 96t-241 247t-87 354q0 149 52.5 278.5t144.5 222.5t222.5 146.5t281.5 53.5q200 0 360.5 -90t251 -250.5t90.5 -360.5q0 -252 -141.5 -437t-384.5 -241q-190 -127 -190 -218q0 -36 26 -56.5t72 -20.5q59 0 114 27l45 -140q-78 -48 -186 -48
q-112 0 -176 51t-64 140q0 129 158 246zM308 679q0 -221 130.5 -360.5t350.5 -139.5q221 0 351.5 138.5t130.5 361.5q0 221 -131 360.5t-351 139.5q-217 0 -349 -141t-132 -359z" />
    <glyph glyph-name="uni01EB" unicode="&#x1eb;" horiz-adv-x="1182" 
d="M538 -18q-199 20 -328 159.5t-129 338.5q0 216 146.5 358t363.5 142t363.5 -142t146.5 -358q0 -172 -100 -303.5t-266 -177.5q-189 -129 -189 -218q0 -36 26 -56.5t72 -20.5q58 0 114 27l45 -140q-78 -48 -186 -48q-112 0 -176 51t-64 140q0 132 161 248zM591 794
q-135 0 -223.5 -89.5t-88.5 -224.5t88.5 -224.5t223.5 -89.5q136 0 224 89t88 225t-88 225t-224 89z" />
    <glyph glyph-name="Aringacute" unicode="&#x1fa;" horiz-adv-x="1370" 
d="M1036 2296l-203 -334h-171l152 334h222zM890 1692q0 -89 -58 -142t-148 -53t-148 53t-58 142q0 90 57.5 144t148.5 54t148.5 -54t57.5 -144zM684 1778q-39 0 -62.5 -24t-23.5 -63q0 -36 23.5 -58.5t62.5 -22.5q38 0 61.5 22.5t23.5 58.5q0 39 -23.5 63t-61.5 24zM342 283
l-108 -283h-224l561 1358h228l561 -1358h-224l-108 283h-686zM965 458l-280 665l-280 -665h560z" />
    <glyph glyph-name="aringacute" unicode="&#x1fb;" horiz-adv-x="1091" 
d="M592 1567h-171l152 334h222zM289 1290q0 90 57.5 144t148.5 54t148.5 -54t57.5 -144q0 -89 -58 -142t-148 -53t-148 53t-58 142zM495 1376q-39 0 -62.5 -24t-23.5 -63q0 -36 23.5 -58.5t62.5 -22.5q38 0 61.5 22.5t23.5 58.5q0 39 -23.5 63t-61.5 24zM459 -20
q-56 0 -108.5 10.5t-100.5 33.5t-84 56.5t-57 83t-21 109.5q0 135 118 220q117 84 306 84q148 0 242 -45v52q0 99 -72 154.5t-174 55.5q-78 0 -151 -37t-124 -96l-125 124q59 77 172 137q109 58 231 58q92 0 170.5 -23t139.5 -68.5t96 -119t35 -168.5v-601h-194v124
q-44 -68 -123 -106t-176 -38zM288 280q0 -49 33.5 -81.5t76.5 -44.5t90 -12q109 0 187.5 65.5t78.5 172.5q-37 19 -102.5 32.5t-134.5 13.5q-105 0 -167 -37t-62 -109z" />
    <glyph glyph-name="AEacute" unicode="&#x1fc;" horiz-adv-x="1979" 
d="M1638 1807l-203 -334h-171l152 334h222zM186 0h-230l836 1358h1079v-191h-742v-374h637v-191h-637v-411h763v-191h-973v283h-555zM919 1167l-445 -709h445v709z" />
    <glyph glyph-name="aeacute" unicode="&#x1fd;" horiz-adv-x="1787" 
d="M1172 1447l-203 -334h-171l152 334h222zM89 279q0 96 59 167q113 133 343 133q142 0 263 -56v61q0 96 -70 153t-169 57q-91 0 -161 -40q-73 -42 -109 -92l-136 125q153 193 409 193q110 0 208.5 -44.5t152.5 -130.5q58 86 157 130.5t209 44.5q201 0 329.5 -131.5
t128.5 -333.5q0 -49 -8 -92h-745q8 -115 94 -186.5t204 -71.5q85 0 160 41.5t125 119.5l156 -99q-66 -117 -184.5 -182t-256.5 -65q-129 0 -237 53.5t-173 154.5q-112 -208 -379 -208q-91 0 -174 33t-139.5 103t-56.5 163zM955 571h551q-17 103 -88.5 166.5t-174.5 63.5
q-109 0 -188.5 -62t-99.5 -168zM520 426q-39 0 -75 -6.5t-71 -22t-56 -45.5t-21 -71q0 -45 30.5 -75.5t70.5 -42t84 -11.5q67 0 127 23.5t101.5 74.5t41.5 119q-38 27 -101 42t-131 15z" />
    <glyph glyph-name="Oslashacute" unicode="&#x1fe;" horiz-adv-x="1579" 
d="M1071 1807l-203 -334h-171l152 334h222zM194 -15l117 169q-107 96 -165 230.5t-58 292.5q0 149 52.5 278.5t144.5 222.5t222.5 146.5t281.5 53.5q175 0 325 -72l119 170l153 -103l-119 -170q108 -96 166 -231.5t58 -294.5q0 -200 -89 -359t-249.5 -248.5t-363.5 -89.5
q-178 0 -325 72l-117 -170zM432 327l565 811q-97 41 -208 41q-217 0 -349 -141t-132 -359q0 -216 124 -352zM1147 1030l-565 -810q94 -41 207 -41q221 0 351.5 138.5t130.5 361.5q0 214 -124 351z" />
    <glyph glyph-name="oslashacute" unicode="&#x1ff;" horiz-adv-x="1191" 
d="M881 1447l-203 -334h-171l152 334h222zM322 55l-160 -196l-103 83l160 197q-132 139 -132 341q0 216 146.5 358t363.5 142q138 0 255 -63l151 186l104 -85l-147 -181q147 -144 147 -357q0 -216 -146.5 -358t-363.5 -142q-153 0 -275 75zM343 292l387 475q-64 27 -133 27
q-135 0 -223.5 -89.5t-88.5 -224.5q0 -106 58 -188zM836 686l-393 -482q71 -38 154 -38q136 0 224 89t88 225q0 121 -73 206z" />
    <glyph glyph-name="uni0218" unicode="&#x218;" horiz-adv-x="1202" 
d="M92 288l157 109q52 -108 148 -168t226 -60q48 0 94.5 10.5t89 32t69 61t26.5 90.5q0 80 -71 128q-73 48 -237 100q-288 93 -374 186q-86 92 -85 223q1 72 27.5 134t71 106.5t103.5 76t125 46.5t135 15q176 0 300 -79t187 -201l-163 -114q-51 95 -135.5 149t-188.5 54
q-44 0 -87 -11t-80.5 -32.5t-60.5 -58.5t-23 -84q0 -21 4 -39t15.5 -34t21 -27.5t33 -25t38.5 -21.5t49 -20.5t53.5 -19.5t63.5 -22q18 -7 25 -8q192 -66 269 -107q98 -53 146.5 -129t48.5 -183q0 -94 -43.5 -169.5t-114.5 -121.5t-155.5 -70t-172.5 -24q-192 0 -332 86
q-142 86 -203 222zM726 -116l-55 -402h-166l14 402h207z" />
    <glyph glyph-name="uni0219" unicode="&#x219;" horiz-adv-x="962" 
d="M78 202l147 119q43 -75 112 -117t156 -42q79 0 129.5 29t50.5 77q0 50 -43 75q-45 25 -157 50q-163 36 -252 96q-101 67 -101 205q0 70 31 126t82.5 90t113.5 52t128 18q117 0 219.5 -51.5t160.5 -146.5l-133 -114q-92 131 -247 131q-72 0 -115.5 -28t-43.5 -74
q4 -35 20 -54.5t58 -34.5q44 -17 134 -38q60 -15 101 -28t91.5 -37.5t80.5 -54t51 -76.5t21 -106q0 -71 -35 -128t-91 -91t-121.5 -51.5t-132.5 -17.5q-131 0 -244 56.5t-171 165.5zM612 -116l-55 -402h-166l14 402h207z" />
    <glyph glyph-name="uni021A" unicode="&#x21a;" horiz-adv-x="1160" 
d="M28 1161v197h1104v-197h-447v-1161h-209v1161h-448zM679 -116l-55 -402h-166l14 402h207z" />
    <glyph glyph-name="uni021B" unicode="&#x21b;" horiz-adv-x="782" 
d="M39 792v168h174v308h193v-308h305v-168h-303v-480q0 -75 41 -114t116 -39q78 0 156 33l26 -170q-81 -42 -210 -42q-149 0 -238 80t-89 228v504h-171zM556 -116l-55 -402h-166l14 402h207z" />
    <glyph glyph-name="uni0232" unicode="&#x232;" horiz-adv-x="1269" 
d="M930 1531h-591v144h591v-144zM530 0v522l-515 836h250l369 -614l370 614h250l-515 -836v-522h-209z" />
    <glyph glyph-name="uni0233" unicode="&#x233;" horiz-adv-x="1080" 
d="M834 1339v-144h-591v144h591zM417 -69l21 55l-414 974h218l299 -756l297 756h218l-460 -1082q-35 -78 -66 -127.5t-76 -91t-106.5 -60.5t-145.5 -19q-92 0 -159 35l21 164q54 -25 129 -25q90 0 140 43t84 134z" />
    <glyph glyph-name="uni0237" unicode="&#x237;" horiz-adv-x="512" 
d="M-134 -390l21 164q54 -20 124 -20q79 0 115 46t36 145v1015h198v-1026q0 -170 -85 -262t-250 -92q-95 0 -159 30z" />
    <glyph glyph-name="uni0259" unicode="&#x259;" horiz-adv-x="1123" 
d="M545 -20q-134 -1 -241.5 62t-165 169.5t-55.5 233.5q0 49 8 92h745q-8 115 -94 186t-204 71q-184 0 -288 -164l-146 106q64 114 182 179t252 65q217 0 360 -141t143 -358q0 -218 -139.5 -359.5t-356.5 -141.5zM831 389h-547q9 -102 84.5 -166t178.5 -64q107 0 185.5 62.5
t98.5 167.5z" />
    <glyph glyph-name="uni0272" unicode="&#x272;" horiz-adv-x="1188" 
d="M-94 -390l21 164q45 -20 104 -20q63 0 92 39t29 122v1045h199v-121q30 45 94 89q79 52 201 52q188 0 295.5 -105t107.5 -292v-583h-198v541q0 119 -62 185t-174 66q-117 0 -191 -68t-74 -183v-381h1l-1 -256q0 -155 -78 -239.5t-227 -84.5q-84 0 -139 30z" />
    <glyph glyph-name="circumflex" unicode="&#x2c6;" horiz-adv-x="948" 
d="M339 1471h-189l287 370h74l287 -370h-189l-135 187z" />
    <glyph glyph-name="caron" unicode="&#x2c7;" horiz-adv-x="948" 
d="M511 1481h-74l-287 370h189l135 -187l135 187h189z" />
    <glyph glyph-name="breve" unicode="&#x2d8;" horiz-adv-x="834" 
d="M140 1770h161q7 -61 38 -97t78 -36q50 0 81 36t35 97h161q-6 -125 -79.5 -201.5t-197.5 -76.5q-123 0 -196.5 76.5t-80.5 201.5z" />
    <glyph glyph-name="dotaccent" unicode="&#x2d9;" horiz-adv-x="545" 
d="M272 1494q-54 0 -88 34t-34 88t34 88t88 34q55 0 89 -33.5t34 -88.5t-34 -88.5t-89 -33.5z" />
    <glyph glyph-name="ring" unicode="&#x2da;" horiz-adv-x="712" 
d="M562 1692q0 -89 -58 -142t-148 -53t-148 53t-58 142q0 90 57.5 144t148.5 54t148.5 -54t57.5 -144zM270 1691q0 -36 23.5 -58.5t62.5 -22.5q38 0 61.5 22.5t23.5 58.5q0 39 -23.5 63t-61.5 24q-39 0 -62.5 -24t-23.5 -63z" />
    <glyph glyph-name="ogonek" unicode="&#x2db;" horiz-adv-x="674" 
d="M131 -266q0 49 23 96.5t62 86t79.5 68t85.5 54.5l110 -39q-191 -129 -191 -219q0 -36 26 -56.5t72 -20.5q58 0 114 27l45 -140q-78 -48 -186 -48q-112 0 -176 51t-64 140z" />
    <glyph glyph-name="tilde" unicode="&#x2dc;" horiz-adv-x="981" 
d="M253 1520l-103 87q96 160 217 160q40 1 84 -20t83.5 -42t68.5 -20q42 0 71 18t62 64l95 -95q-49 -80 -101.5 -114.5t-128.5 -34.5q-46 -2 -121.5 38.5t-101.5 38.5q-28 0 -52 -12.5t-37.5 -26.5t-35.5 -41z" />
    <glyph glyph-name="hungarumlaut" unicode="&#x2dd;" horiz-adv-x="996" 
d="M643 1473h-171l152 334h222zM524 1807l-203 -334h-171l152 334h222z" />
    <glyph glyph-name="acutecomb" unicode="&#x301;" horiz-adv-x="674" 
d="M302 2277h222l-203 -334h-171z" />
    <glyph glyph-name="uni030A" unicode="&#x30a;" horiz-adv-x="712" 
d="M562 1692q0 -89 -58 -142t-148 -53t-148 53t-58 142q0 90 57.5 144t148.5 54t148.5 -54t57.5 -144zM270 1691q0 -36 23.5 -58.5t62.5 -22.5q38 0 61.5 22.5t23.5 58.5q0 39 -23.5 63t-61.5 24q-39 0 -62.5 -24t-23.5 -63z" />
    <glyph glyph-name="dotbelowcomb" unicode="&#x323;" horiz-adv-x="545" 
d="M272 -404q-54 0 -88 34t-34 88t34 88t88 34q55 0 89 -33.5t34 -88.5t-34 -88.5t-89 -33.5z" />
    <glyph glyph-name="uni0326" unicode="&#x326;" horiz-adv-x="521" 
d="M316 -518h-166l14 402h207z" />
    <glyph glyph-name="uni03BC" unicode="&#x3bc;" horiz-adv-x="1196" 
d="M152 -400v1361h199v-571q7 -105 67.5 -163.5t162.5 -58.5q116 0 190.5 68t74.5 183v541h198v-960h-199v121q-30 -46 -94 -88q-78 -53 -201 -53q-131 0 -199 61v-441h-199z" />
    <glyph glyph-name="pi" unicode="&#x3c0;" horiz-adv-x="1320" 
d="M37 889v198h1204v-198h-190v-585q0 -81 30 -110.5t111 -29.5q26 0 44 3v-181q-27 -6 -78 -6q-302 0 -302 299v610h-427v-889h-195v889h-197z" />
    <glyph glyph-name="Wgrave" unicode="&#x1e80;" horiz-adv-x="2039" 
d="M925 1473l-203 334h222l152 -334h-171zM408 0l-378 1358h210l338 -1169l329 1147h225l329 -1147l337 1169h211l-378 -1358h-339l-273 1006l-272 -1006h-339z" />
    <glyph glyph-name="wgrave" unicode="&#x1e81;" horiz-adv-x="1576" 
d="M687 1121l-203 334h222l152 -334h-171zM322 0l-283 960h209l211 -766l224 756h210l224 -756l211 766h209l-283 -960h-270l-196 683l-196 -683h-270z" />
    <glyph glyph-name="Wacute" unicode="&#x1e82;" horiz-adv-x="2039" 
d="M1329 1807l-203 -334h-171l152 334h222zM747 0h-339l-378 1358h210l338 -1169l329 1147h225l329 -1147l337 1169h211l-378 -1358h-339l-273 1006z" />
    <glyph glyph-name="wacute" unicode="&#x1e83;" horiz-adv-x="1576" 
d="M1105 1447l-203 -334h-171l152 334h222zM592 0h-270l-283 960h209l211 -766l224 756h210l224 -756l211 766h209l-283 -960h-270l-196 683z" />
    <glyph glyph-name="Wdieresis" unicode="&#x1e84;" horiz-adv-x="2039" 
d="M1319 1618q0 -55 -34 -88.5t-89 -33.5q-54 0 -88 34t-34 88t34 88t88 34q55 0 89 -33.5t34 -88.5zM843 1496q-54 0 -88 34t-34 88t34 88t88 34q55 0 89 -33.5t34 -88.5t-34 -88.5t-89 -33.5zM747 0h-339l-378 1358h210l338 -1169l329 1147h225l329 -1147l337 1169h211
l-378 -1358h-339l-273 1006z" />
    <glyph glyph-name="wdieresis" unicode="&#x1e85;" horiz-adv-x="1576" 
d="M1087 1281q0 -55 -34 -88.5t-89 -33.5q-54 0 -88 34t-34 88t34 88t88 34q55 0 89 -33.5t34 -88.5zM734 1281q0 -55 -34 -88.5t-89 -33.5q-54 0 -88 34t-34 88t34 88t88 34q55 0 89 -33.5t34 -88.5zM592 0h-270l-283 960h209l211 -766l224 756h210l224 -756l211 766h209
l-283 -960h-270l-196 683z" />
    <glyph glyph-name="Germandbls" unicode="&#x1e9e;" horiz-adv-x="1391" 
d="M160 0v825q0 168 76.5 294.5t208 192.5t298.5 66q147 0 278 -65t201 -185v-71l-361 -316h27q114 0 207.5 -41t152.5 -126t59 -200q0 -183 -125.5 -288.5t-312.5 -105.5q-131 0 -244 56.5t-171 165.5l147 119q44 -70 115 -111.5t153 -41.5q94 0 160 54t66 146
q0 95 -71 149.5t-170 54.5h-274v132l420 381q-33 45 -105 72t-157 27q-163 0 -266 -100.5t-103 -263.5v-820h-209z" />
    <glyph glyph-name="uni1EA0" unicode="&#x1ea0;" horiz-adv-x="1370" 
d="M342 283l-108 -283h-224l561 1358h228l561 -1358h-224l-108 283h-686zM965 458l-280 665l-280 -665h560zM684 -404q-54 0 -88 34t-34 88t34 88t88 34q55 0 89 -33.5t34 -88.5t-34 -88.5t-89 -33.5z" />
    <glyph glyph-name="uni1EA1" unicode="&#x1ea1;" horiz-adv-x="1091" 
d="M459 -20q-56 0 -108.5 10.5t-100.5 33.5t-84 56.5t-57 83t-21 109.5q0 135 118 220q117 84 306 84q148 0 242 -45v52q0 99 -72 154.5t-174 55.5q-78 0 -151 -37t-124 -96l-125 124q59 77 172 137q109 58 231 58q92 0 170.5 -23t139.5 -68.5t96 -119t35 -168.5v-601h-194
v124q-44 -68 -123 -106t-176 -38zM288 280q0 -49 33.5 -81.5t76.5 -44.5t90 -12q109 0 187.5 65.5t78.5 172.5q-37 19 -102.5 32.5t-134.5 13.5q-105 0 -167 -37t-62 -109zM501 -404q-54 0 -88 34t-34 88t34 88t88 34q55 0 89 -33.5t34 -88.5t-34 -88.5t-89 -33.5z" />
    <glyph glyph-name="uni1EB8" unicode="&#x1eb8;" horiz-adv-x="1236" 
d="M176 0v1358h952v-191h-742v-374h637v-191h-637v-411h763v-191h-973zM711 -404q-54 0 -88 34t-34 88t34 88t88 34q55 0 89 -33.5t34 -88.5t-34 -88.5t-89 -33.5z" />
    <glyph glyph-name="uni1EB9" unicode="&#x1eb9;" horiz-adv-x="1123" 
d="M82 479q0 218 139.5 359.5t356.5 141.5q134 1 241.5 -62t165 -169.5t55.5 -233.5q0 -49 -8 -92h-745q8 -115 94 -186t204 -71q184 0 288 164l146 -106q-64 -115 -181.5 -179.5t-252.5 -64.5q-217 0 -360 141.5t-143 357.5zM292 571h547q-9 103 -83.5 166.5t-179.5 63.5
q-107 0 -185.5 -62.5t-98.5 -167.5zM602 -404q-54 0 -88 34t-34 88t34 88t88 34q55 0 89 -33.5t34 -88.5t-34 -88.5t-89 -33.5z" />
    <glyph glyph-name="uni1EBC" unicode="&#x1ebc;" horiz-adv-x="1236" 
d="M433 1520l-103 87q96 160 217 160q40 1 84 -20t83.5 -42t68.5 -20q42 0 71 18t62 64l95 -95q-49 -80 -101.5 -114.5t-128.5 -34.5q-46 -2 -121.5 38.5t-101.5 38.5q-28 0 -52 -12.5t-37.5 -26.5t-35.5 -41zM176 0v1358h952v-191h-742v-374h637v-191h-637v-411h763v-191
h-973z" />
    <glyph glyph-name="uni1EBD" unicode="&#x1ebd;" horiz-adv-x="1123" 
d="M320 1160l-103 87q96 160 217 160q40 1 84 -20t83.5 -42t68.5 -20q42 0 71 18t62 64l95 -95q-49 -80 -101.5 -114.5t-128.5 -34.5q-46 -2 -121.5 38.5t-101.5 38.5q-28 0 -52 -12.5t-37.5 -26.5t-35.5 -41zM585 -20q-217 0 -360 141.5t-143 357.5q0 218 139.5 359.5
t356.5 141.5q134 1 241.5 -62t165 -169.5t55.5 -233.5q0 -49 -8 -92h-745q8 -115 94 -186t204 -71q184 0 288 164l146 -106q-64 -115 -181.5 -179.5t-252.5 -64.5zM576 801q-107 0 -185.5 -62.5t-98.5 -167.5h547q-9 103 -83.5 166.5t-179.5 63.5z" />
    <glyph glyph-name="uni1ECA" unicode="&#x1eca;" horiz-adv-x="562" 
d="M176 0v1358h210v-1358h-210zM283 -404q-54 0 -88 34t-34 88t34 88t88 34q55 0 89 -33.5t34 -88.5t-34 -88.5t-89 -33.5z" />
    <glyph glyph-name="uni1ECB" unicode="&#x1ecb;" horiz-adv-x="502" 
d="M381 1282q0 -55 -34 -88.5t-89 -33.5q-54 0 -88 34t-34 88t34 88t88 34q55 0 89 -33.5t34 -88.5zM152 0v960h198v-960h-198zM379 -282q0 -55 -34 -88.5t-89 -33.5q-54 0 -88 34t-34 88t34 88t88 34q55 0 89 -33.5t34 -88.5z" />
    <glyph glyph-name="uni1ECC" unicode="&#x1ecc;" horiz-adv-x="1579" 
d="M789 -20q-199 0 -358.5 88t-251 247.5t-91.5 361.5q0 149 52.5 278.5t144.5 222.5t222.5 146.5t281.5 53.5q200 0 360.5 -90t251 -250.5t90.5 -360.5t-89 -359t-249.5 -248.5t-363.5 -89.5zM308 679q0 -221 130.5 -360.5t350.5 -139.5q221 0 351.5 138.5t130.5 361.5
q0 221 -131 360.5t-351 139.5q-217 0 -349 -141t-132 -359zM789 -404q-54 0 -88 34t-34 88t34 88t88 34q55 0 89 -33.5t34 -88.5t-34 -88.5t-89 -33.5z" />
    <glyph glyph-name="uni1ECD" unicode="&#x1ecd;" horiz-adv-x="1182" 
d="M1101 480q0 -216 -146.5 -358t-363.5 -142t-363.5 142t-146.5 358t146.5 358t363.5 142t363.5 -142t146.5 -358zM591 794q-135 0 -223.5 -89.5t-88.5 -224.5t88.5 -224.5t223.5 -89.5q136 0 224 89t88 225t-88 225t-224 89zM591 -404q-54 0 -88 34t-34 88t34 88t88 34
q55 0 89 -33.5t34 -88.5t-34 -88.5t-89 -33.5z" />
    <glyph glyph-name="uni1EE4" unicode="&#x1ee4;" horiz-adv-x="1463" 
d="M1302 491q0 -124 -44 -222.5t-121.5 -161t-180.5 -95t-224 -32.5q-262 0 -416 139q-155 140 -155 372v867h208v-858q0 -155 102 -240t261 -85t260.5 84.5t101.5 240.5v858h208v-867zM731 -404q-54 0 -88 34t-34 88t34 88t88 34q55 0 89 -33.5t34 -88.5t-34 -88.5
t-89 -33.5z" />
    <glyph glyph-name="uni1EE5" unicode="&#x1ee5;" horiz-adv-x="1191" 
d="M139 377v583h198v-541q0 -119 62 -185t172 -66q118 0 194 67.5t76 183.5v541h198v-960h-199v121q-30 -46 -94 -88q-80 -53 -206 -53q-186 0 -293.5 105.5t-107.5 291.5zM729 -282q0 -55 -34 -88.5t-89 -33.5q-54 0 -88 34t-34 88t34 88t88 34q55 0 89 -33.5t34 -88.5z
" />
    <glyph glyph-name="Ygrave" unicode="&#x1ef2;" horiz-adv-x="1269" 
d="M544 1473l-203 334h222l152 -334h-171zM530 522l-515 836h250l369 -614l370 614h250l-515 -836v-522h-209v522z" />
    <glyph glyph-name="ygrave" unicode="&#x1ef3;" horiz-adv-x="1080" 
d="M457 1121l-203 334h222l152 -334h-171zM438 -14l-414 974h218l299 -756l297 756h218l-460 -1082q-35 -78 -66 -127.5t-76 -91t-106.5 -60.5t-145.5 -19q-92 0 -159 35l21 164q54 -25 129 -25q90 0 140 43t84 134z" />
    <glyph glyph-name="uni1EF8" unicode="&#x1ef8;" horiz-adv-x="1269" 
d="M383 1520l-103 87q96 160 217 160q40 1 84 -20t83.5 -42t68.5 -20q42 0 71 18t62 64l95 -95q-49 -80 -101.5 -114.5t-128.5 -34.5q-46 -2 -121.5 38.5t-101.5 38.5q-28 0 -52 -12.5t-37.5 -26.5t-35.5 -41zM530 522l-515 836h250l369 -614l370 614h250l-515 -836v-522
h-209v522z" />
    <glyph glyph-name="uni1EF9" unicode="&#x1ef9;" horiz-adv-x="1080" 
d="M272 1160l-103 87q96 160 217 160q40 1 84 -20t83.5 -42t68.5 -20q42 0 71 18t62 64l95 -95q-49 -80 -101.5 -114.5t-128.5 -34.5q-46 -2 -121.5 38.5t-101.5 38.5q-28 0 -52 -12.5t-37.5 -26.5t-35.5 -41zM417 -69l21 55l-414 974h218l299 -756l297 756h218l-460 -1082
q-35 -78 -66 -127.5t-76 -91t-106.5 -60.5t-145.5 -19q-92 0 -159 35l21 164q54 -25 129 -25q90 0 140 43t84 134z" />
    <glyph glyph-name="uni2000" unicode="&#x2000;" horiz-adv-x="1148" 
 />
    <glyph glyph-name="uni2001" unicode="&#x2001;" horiz-adv-x="2296" 
 />
    <glyph glyph-name="uni2002" unicode="&#x2002;" horiz-adv-x="1148" 
 />
    <glyph glyph-name="uni2003" unicode="&#x2003;" horiz-adv-x="2296" 
 />
    <glyph glyph-name="uni2004" unicode="&#x2004;" horiz-adv-x="765" 
 />
    <glyph glyph-name="uni2005" unicode="&#x2005;" horiz-adv-x="574" 
 />
    <glyph glyph-name="uni2006" unicode="&#x2006;" horiz-adv-x="382" 
 />
    <glyph glyph-name="uni2007" unicode="&#x2007;" horiz-adv-x="382" 
 />
    <glyph glyph-name="uni2008" unicode="&#x2008;" horiz-adv-x="287" 
 />
    <glyph glyph-name="uni2009" unicode="&#x2009;" horiz-adv-x="459" 
 />
    <glyph glyph-name="uni200A" unicode="&#x200a;" horiz-adv-x="127" 
 />
    <glyph glyph-name="uni2010" unicode="&#x2010;" horiz-adv-x="908" 
d="M126 667h656v-184h-656v184z" />
    <glyph glyph-name="uni2011" unicode="&#x2011;" horiz-adv-x="908" 
d="M126 667h656v-184h-656v184z" />
    <glyph glyph-name="figuredash" unicode="&#x2012;" horiz-adv-x="908" 
d="M126 667h656v-184h-656v184z" />
    <glyph glyph-name="endash" unicode="&#x2013;" horiz-adv-x="1238" 
d="M126 667h986v-184h-986v184z" />
    <glyph glyph-name="emdash" unicode="&#x2014;" horiz-adv-x="2280" 
d="M126 667h2028v-184h-2028v184z" />
    <glyph glyph-name="quoteleft" unicode="&#x2018;" horiz-adv-x="503" 
d="M445 1428l-137 -516h-232l183 516h186z" />
    <glyph glyph-name="quoteright" unicode="&#x2019;" horiz-adv-x="495" 
d="M84 912l137 516h232l-183 -516h-186z" />
    <glyph glyph-name="quotesinglbase" unicode="&#x201a;" horiz-adv-x="489" 
d="M15 -282l137 516h232l-183 -516h-186z" />
    <glyph glyph-name="quotedblleft" unicode="&#x201c;" horiz-adv-x="903" 
d="M708 912h-232l183 516h186zM445 1428l-137 -516h-232l183 516h186z" />
    <glyph glyph-name="quotedblright" unicode="&#x201d;" horiz-adv-x="895" 
d="M670 912h-186l137 516h232zM270 912h-186l137 516h232z" />
    <glyph glyph-name="quotedblbase" unicode="&#x201e;" horiz-adv-x="894" 
d="M601 -288h-186l137 516h232zM201 -288h-186l137 516h232z" />
    <glyph glyph-name="dagger" unicode="&#x2020;" horiz-adv-x="760" 
d="M68 1177v144h232v286h159v-286h234v-144h-234v-670h-159v670h-232z" />
    <glyph glyph-name="daggerdbl" unicode="&#x2021;" horiz-adv-x="831" 
d="M335 1250h-232v144h232v244h159v-244h234v-144h-234v-385h234v-144h-234v-244h-159v244h-232v144h232v385z" />
    <glyph glyph-name="bullet" unicode="&#x2022;" horiz-adv-x="649" 
d="M324 471q-85 0 -142 57.5t-57 142.5q0 86 57 143.5t142 57.5q86 0 143.5 -58t57.5 -143t-58 -142.5t-143 -57.5z" />
    <glyph glyph-name="ellipsis" unicode="&#x2026;" horiz-adv-x="1276" 
d="M1057 -20q-52 0 -87 35t-35 87t35 87.5t87 35.5t87.5 -35.5t35.5 -87.5t-35.5 -87t-87.5 -35zM760 102q0 -52 -35.5 -87t-87.5 -35t-87 35t-35 87t35 87.5t87 35.5t87.5 -35.5t35.5 -87.5zM218 -20q-52 0 -87 35t-35 87t35 87.5t87 35.5t87.5 -35.5t35.5 -87.5t-35.5 -87
t-87.5 -35z" />
    <glyph glyph-name="uni202F" unicode="&#x202f;" horiz-adv-x="459" 
 />
    <glyph glyph-name="perthousand" unicode="&#x2030;" horiz-adv-x="2681" 
d="M444 622q-163 0 -274 108t-111 270t111 270t274 108q165 0 275.5 -107t110.5 -271t-111 -271t-275 -107zM479 0v26l734 1332h145v-24l-732 -1334h-147zM444 1217q-92 0 -153.5 -62.5t-61.5 -154.5t61.5 -154.5t153.5 -62.5q94 0 155.5 61.5t61.5 155.5t-61.5 155.5
t-155.5 61.5zM1392 -20q-163 0 -274 108t-111 270t111 270t274 108q165 0 275.5 -107t110.5 -271t-111 -271t-275 -107zM2233 -20q-163 0 -274 108t-111 270t111 270t274 108q165 0 275.5 -107t110.5 -271t-111 -271t-275 -107zM2233 575q-92 0 -153.5 -62.5t-61.5 -154.5
t61.5 -154.5t153.5 -62.5q94 0 155.5 61.5t61.5 155.5t-61 155.5t-156 61.5zM1392 575q-92 0 -153.5 -62.5t-61.5 -154.5t61.5 -154.5t153.5 -62.5q94 0 155.5 61.5t61.5 155.5t-61.5 155.5t-155.5 61.5z" />
    <glyph glyph-name="guilsinglleft" unicode="&#x2039;" horiz-adv-x="666" 
d="M321 480l254 -394h-210l-272 394l272 395h210z" />
    <glyph glyph-name="guilsinglright" unicode="&#x203a;" horiz-adv-x="666" 
d="M573 480l-272 -394h-210l254 394l-254 395h210z" />
    <glyph glyph-name="fraction" unicode="&#x2044;" horiz-adv-x="360" 
d="M-110 0h-147v26l734 1332h145v-24z" />
    <glyph glyph-name="uni205F" unicode="&#x205f;" horiz-adv-x="574" 
 />
    <glyph glyph-name="uni2070" unicode="&#x2070;" horiz-adv-x="849" 
d="M424 514q-88 0 -156.5 36.5t-109 98.5t-61 137.5t-20.5 159.5q0 85 20 160.5t60.5 137.5t109 98t157.5 36q72 0 131 -24t98.5 -64.5t67 -96.5t39.5 -117.5t12 -129.5q0 -85 -20.5 -160.5t-61 -137.5t-109 -98t-157.5 -36zM424 1225q-78 0 -124.5 -75.5t-46.5 -203.5
q0 -44 8 -88.5t26 -89.5t53.5 -73t83.5 -28t83.5 28t54 72.5t26.5 89.5t8 89q0 128 -47 203.5t-125 75.5z" />
    <glyph glyph-name="uni2074" unicode="&#x2074;" horiz-adv-x="770" 
d="M445 731h-400v125l387 502h166v-482h118v-144h-118v-198h-153v197zM445 876v260l-200 -260h200z" />
    <glyph glyph-name="uni2075" unicode="&#x2075;" horiz-adv-x="746" 
d="M362 514q-106 0 -187.5 55t-120.5 154l131 80q23 -64 72 -100.5t105 -36.5q60 0 99.5 37.5t39.5 93.5q0 58 -42 96t-105 38q-85 0 -137 -58l-119 51l41 434h499v-153h-348l-15 -156q43 25 109 25q128 0 210.5 -75t82.5 -202q0 -129 -92 -206t-223 -77z" />
    <glyph glyph-name="uni2076" unicode="&#x2076;" horiz-adv-x="801" 
d="M415 514q-91 0 -159 32t-106 90q-73 110 -73 264q0 81 13 151t42 131t73 104t110 67.5t149 24.5q148 0 248 -72l-59 -139q-79 56 -184 56q-87 0 -142.5 -52.5t-61.5 -148.5q29 33 76 52t99 19q125 0 207.5 -76t82.5 -200q0 -72 -26.5 -131t-71.5 -95.5t-100.5 -56.5
t-116.5 -20zM266 808q0 -63 41.5 -103.5t104.5 -40.5q61 0 102 41t41 106q0 62 -40.5 103.5t-102.5 41.5q-63 0 -104.5 -42.5t-41.5 -105.5z" />
    <glyph glyph-name="uni2077" unicode="&#x2077;" horiz-adv-x="675" 
d="M53 1205v153h583v-124q-224 -347 -349 -700h-182q119 343 329 671h-381z" />
    <glyph glyph-name="uni2078" unicode="&#x2078;" horiz-adv-x="778" 
d="M76 765q0 66 35 119t98 83q-50 27 -79 75t-29 104q0 76 43.5 130t107 78t137.5 24q73 0 136.5 -24.5t107.5 -79t44 -128.5q0 -54 -29 -102.5t-77 -76.5q61 -30 95.5 -83t34.5 -119q0 -63 -26.5 -112.5t-71.5 -79t-99.5 -44.5t-114.5 -15q-130 -2 -221.5 66t-91.5 185z
M391 1244q-55 0 -89.5 -31.5t-34.5 -81.5t34.5 -80.5t89.5 -30.5q54 0 87.5 30.5t33.5 80.5t-33.5 81.5t-87.5 31.5zM251 776q0 -61 39 -94t101 -33t101 33.5t39 93.5q0 62 -39 95t-101 33t-101 -33t-39 -95z" />
    <glyph glyph-name="uni2079" unicode="&#x2079;" horiz-adv-x="800" 
d="M360 799q-124 0 -207 76.5t-83 199.5q0 72 26.5 131t71.5 95.5t100.5 56.5t116.5 20q91 0 159.5 -32t106.5 -89q72 -109 72 -265q0 -81 -13 -151t-42 -131t-73 -104t-110 -67.5t-149 -24.5q-148 0 -248 72l59 139q79 -56 184 -56q87 0 142.5 52.5t61.5 148.5
q-29 -33 -76 -52t-99 -19zM388 1228q-61 0 -102 -41t-41 -106q0 -62 41 -103.5t102 -41.5q64 0 105 42t41 106q0 63 -41.5 103.5t-104.5 40.5z" />
    <glyph glyph-name="uni2080" unicode="&#x2080;" horiz-adv-x="849" 
d="M424 -20q-88 0 -156.5 36.5t-109 98.5t-61 137.5t-20.5 159.5q0 85 20 160.5t60.5 137.5t109 98t157.5 36q72 0 131 -24t98.5 -64.5t67 -96.5t39.5 -117.5t12 -129.5q0 -85 -20.5 -160.5t-61 -137.5t-109 -98t-157.5 -36zM424 691q-78 0 -124.5 -75.5t-46.5 -203.5
q0 -44 8 -88.5t26 -89.5t53.5 -73t83.5 -28t83.5 28t54 72.5t26.5 89.5t8 89q0 128 -47 203.5t-125 75.5z" />
    <glyph glyph-name="uni2081" unicode="&#x2081;" horiz-adv-x="482" 
d="M36 671l-1 153h324v-824h-153v671h-170z" />
    <glyph glyph-name="uni2082" unicode="&#x2082;" horiz-adv-x="745" 
d="M205 549l-140 73q32 97 112.5 159.5t180.5 62.5q129 0 213 -77.5t84 -204.5q0 -70 -33 -118q-48 -71 -124 -126q-16 -14 -51 -36q-9 -6 -20 -13.5t-17 -12t-9 -6.5q-2 -2 -6.5 -5t-13 -9t-14.5 -10q-9 -6 -21.5 -15t-15.5 -11q-39 -29 -52 -47h391v-153h-592v72
q1 50 27 105q25 53 92 109.5t138 101.5q81 58 114 94t33 84q0 57 -33.5 91t-87.5 34q-49 0 -91 -38t-64 -104z" />
    <glyph glyph-name="uni2083" unicode="&#x2083;" horiz-adv-x="753" 
d="M64 189l139 80q22 -60 70 -98.5t102 -38.5t87.5 29.5t33.5 74.5q0 53 -39 86t-100 33h-129v131h129q54 0 87.5 29.5t33.5 77.5q0 43 -32.5 70.5t-83.5 27.5q-56 0 -97.5 -35t-63.5 -94l-137 80q38 94 116.5 148t179.5 54q80 0 145.5 -26.5t108 -84t42.5 -138.5
q0 -53 -30.5 -100.5t-78.5 -71.5q56 -23 92 -76t36 -113q0 -119 -87.5 -186.5t-209.5 -67.5q-108 0 -191.5 55t-122.5 154z" />
    <glyph glyph-name="uni2084" unicode="&#x2084;" horiz-adv-x="772" 
d="M445 197h-400v125l387 502h166v-482h118v-144h-118v-198h-153v197zM445 342v260l-200 -260h200z" />
    <glyph glyph-name="uni2085" unicode="&#x2085;" horiz-adv-x="746" 
d="M362 -20q-106 0 -187.5 55t-120.5 154l131 80q23 -64 72 -100.5t105 -36.5q60 0 99.5 37.5t39.5 93.5q0 58 -42 96t-105 38q-85 0 -137 -58l-119 51l41 434h499v-153h-348l-15 -156q43 25 109 25q128 0 210.5 -75t82.5 -202q0 -129 -92 -206t-223 -77z" />
    <glyph glyph-name="uni2086" unicode="&#x2086;" horiz-adv-x="802" 
d="M416 -20q-91 0 -159 32t-106 90q-73 110 -73 264q0 81 13 151t42 131t73 104t110 67.5t149 24.5q147 0 248 -72l-59 -139q-79 56 -184 56q-87 0 -142.5 -52.5t-61.5 -148.5q29 33 76 52t99 19q125 0 207.5 -76t82.5 -200q0 -72 -26.5 -131t-71.5 -95.5t-100.5 -56.5
t-116.5 -20zM267 274q0 -63 41.5 -103.5t104.5 -40.5q61 0 102 41t41 106q0 62 -40.5 103.5t-102.5 41.5q-63 0 -104.5 -42.5t-41.5 -105.5z" />
    <glyph glyph-name="uni2087" unicode="&#x2087;" horiz-adv-x="676" 
d="M53 671v153h583v-124q-224 -347 -349 -700h-182q119 343 329 671h-381z" />
    <glyph glyph-name="uni2088" unicode="&#x2088;" horiz-adv-x="779" 
d="M77 231q0 66 35 119t98 83q-50 27 -79 75t-29 104q0 76 43.5 130t107 78t137.5 24q73 0 136.5 -24.5t107.5 -79t44 -128.5q0 -54 -29 -102.5t-77 -76.5q61 -30 95.5 -83t34.5 -119q0 -63 -26.5 -112.5t-71.5 -79t-99.5 -44.5t-114.5 -15q-130 -2 -221.5 66t-91.5 185z
M392 710q-55 0 -89.5 -31.5t-34.5 -81.5t34.5 -80.5t89.5 -30.5q54 0 87.5 30.5t33.5 80.5t-33.5 81.5t-87.5 31.5zM252 242q0 -61 39 -94t101 -33t101 33.5t39 93.5q0 62 -39 95t-101 33t-101 -33t-39 -95z" />
    <glyph glyph-name="uni2089" unicode="&#x2089;" horiz-adv-x="802" 
d="M361 265q-124 0 -207 76.5t-83 199.5q0 72 26.5 131t71.5 95.5t100.5 56.5t116.5 20q91 0 159.5 -32t106.5 -89q72 -109 72 -265q0 -81 -13 -151t-42 -131t-73 -104t-110 -67.5t-149 -24.5q-147 0 -248 72l59 139q79 -56 184 -56q87 0 142.5 52.5t61.5 148.5
q-29 -33 -76 -52t-99 -19zM389 694q-61 0 -102 -41t-41 -106q0 -62 41 -103.5t102 -41.5q64 0 105 42t41 106q0 63 -41.5 103.5t-104.5 40.5z" />
    <glyph glyph-name="Euro" unicode="&#x20ac;" horiz-adv-x="1444" 
d="M459 627h509v-130h-488q37 -141 132.5 -229.5t234.5 -88.5q216 0 345 231l165 -100q-81 -159 -211.5 -244.5t-295.5 -85.5q-232 0 -390.5 142.5t-204.5 374.5h-159v130h142q-1 11 -1 52q0 7 2 55h-143v130h159q48 231 204 372.5t386 141.5q159 0 291 -86.5t216 -244.5
l-173 -99q-126 231 -337 231q-139 0 -233 -87.5t-130 -227.5h489v-130h-509q-2 -48 -2 -55q0 -6 2 -52z" />
    <glyph glyph-name="trademark" unicode="&#x2122;" horiz-adv-x="1387" 
d="M707 818h-85v590h99l210 -433l209 433h99v-590h-85v431l-193 -389h-61l-193 388v-430zM257 818v510h-197v80h479v-80h-197v-510h-85z" />
    <glyph glyph-name="estimated" unicode="&#x212e;" horiz-adv-x="1725" 
d="M885 -20q-215 0 -394 93q-176 92 -279 251t-103 353q0 122 42 232.5t116 195t171.5 146.5t212.5 94.5t234 32.5q151 0 295.5 -54.5t253.5 -154.5q106 -98 166 -229t60 -272v-23h-1257q-11 0 -11 -9v-359q0 -24 17 -47q185 -177 478 -177q150 0 279.5 51.5t219.5 147.5
h113q-111 -132 -273.5 -202t-340.5 -70zM392 1077v-351q0 -13 11 -13h966q6 0 6 13v358q0 23 -17 46q-86 84 -209.5 129.5t-261.5 45.5q-294 0 -475 -175q-20 -25 -20 -53z" />
    <glyph glyph-name="onethird" unicode="&#x2153;" horiz-adv-x="1662" 
d="M1158 1334l-732 -1334h-147v26l734 1332h145v-24zM84 1201l-1 153h324v-824h-153v671h-170zM957 189l139 80q22 -60 70 -98.5t102 -38.5t87.5 29.5t33.5 74.5q0 53 -39 86t-100 33h-129v131h129q54 0 87.5 29.5t33.5 77.5q0 43 -32.5 70.5t-83.5 27.5q-56 0 -97.5 -35
t-63.5 -94l-137 80q38 94 116.5 148t179.5 54q80 0 145.5 -26.5t108 -84t42.5 -138.5q0 -53 -30.5 -100.5t-78.5 -71.5q56 -23 92 -76t36 -113q0 -119 -87.5 -186.5t-209.5 -67.5q-108 0 -191.5 55t-122.5 154z" />
    <glyph glyph-name="twothirds" unicode="&#x2154;" horiz-adv-x="1917" 
d="M217 1089l-140 73q32 97 112.5 159.5t180.5 62.5q129 0 213 -77.5t84 -204.5q0 -70 -33 -118q-48 -71 -124 -126q-16 -14 -51 -36q-9 -6 -20 -13.5t-17 -12t-9 -6.5q-2 -2 -6.5 -5t-13 -9t-14.5 -10q-8 -6 -21 -15t-16 -11q-39 -29 -52 -47h391v-153h-592v72q1 50 27 105
q25 53 92 109.5t138 101.5q81 58 114 94t33 84q0 57 -33.5 91t-87.5 34q-49 0 -91 -38t-64 -104zM1407 1334l-732 -1334h-147v26l734 1332h145v-24zM1333 562l-137 80q38 94 116.5 148t179.5 54q80 0 145.5 -26.5t108 -84t42.5 -138.5q0 -53 -30.5 -100.5t-78.5 -71.5
q56 -23 92 -76t36 -113q0 -119 -87.5 -186.5t-209.5 -67.5q-108 0 -191.5 55t-122.5 154l139 80q22 -60 70 -98.5t102 -38.5t87.5 29.5t33.5 74.5q0 53 -39 86t-100 33h-129v131h129q54 0 87.5 29.5t33.5 77.5q0 43 -32.5 70.5t-83.5 27.5q-56 0 -97.5 -35t-63.5 -94z" />
    <glyph glyph-name="minus" unicode="&#x2212;" horiz-adv-x="1159" 
d="M1046 782v-197h-933v197h933z" />
    <glyph glyph-name="uni2215" unicode="&#x2215;" horiz-adv-x="831" 
d="M126 0h-147v26l734 1332h145v-24z" />
    <glyph glyph-name="uni2219" unicode="&#x2219;" horiz-adv-x="507" 
d="M253 342q-52 0 -87 35t-35 87t35 87.5t87 35.5t87.5 -35.5t35.5 -87.5t-35.5 -87t-87.5 -35z" />
    <glyph glyph-name="approxequal" unicode="&#x2248;" horiz-adv-x="1205" 
d="M227 748l-116 156q169 148 310 148q110 0 190 -51t172 -51q38 0 74 12t58.5 26t62.5 43l116 -156q-169 -148 -310 -148q-109 0 -185 52q-75 51 -176 51q-87 0 -196 -82zM227 310l-116 156q169 148 310 148q110 0 190 -51t172 -51q38 0 74 12t58.5 26t62.5 43l116 -156
q-169 -148 -310 -148q-109 0 -185 52q-75 51 -176 51q-87 0 -196 -82z" />
    <glyph glyph-name="notequal" unicode="&#x2260;" horiz-adv-x="1314" 
d="M289 74l116 256h-275v201h366l133 295h-499v200h590l145 320l160 -59l-119 -261h278v-200h-370l-134 -295h504v-201h-596l-146 -320z" />
    <glyph glyph-name="lessequal" unicode="&#x2264;" horiz-adv-x="1335" 
d="M363 684h819v-203h-1054v285l1045 490v-224zM122 276h1054v-201h-1054v201z" />
    <glyph glyph-name="greaterequal" unicode="&#x2265;" horiz-adv-x="1333" 
d="M154 481v203h819l-810 348v224l1045 -490v-285h-1054zM155 75v201h1054v-201h-1054z" />
    <glyph glyph-name="uni25FC" unicode="&#x25fc;" horiz-adv-x="960" 
d="M0 0v960h960v-960h-960z" />
    <glyph glyph-name="foundryicon" horiz-adv-x="2301" 
d="M303 951h-103v71h295v-71h-112v-302h-80v302zM1078 951v71h283v-71h-101v-302h-81v302h-101zM1674 655v-102h-81v349h66l8 -24l7 7q22 22 60 22q48 0 75.5 -35t27.5 -94q0 -60 -33 -96.5t-88 -36.5q-25 0 -42 10zM676 655v-102h-82v349h65l9 -24l8 7q19 22 58 22
q48 0 75.5 -34.5t27.5 -94.5t-32.5 -96.5t-88.5 -36.5q-24 0 -40 10zM874 773q0 61 34 97.5t94 36.5t94 -34.5t34 -94.5q0 -61 -35 -97t-96 -36q-57 0 -91 35t-34 93zM2000 645q-59 0 -93.5 35t-34.5 93q0 61 34.5 97.5t93.5 36.5q47 0 74 -26t27 -69q0 -31 -8 -52h-139
q4 -49 55 -49q39 0 69 13l17 -58q-39 -21 -95 -21zM1386 665l-89 237h89l51 -173h3l41 173h88l-80 -257q-19 -54 -48.5 -78t-77.5 -24q-33 0 -60 13l9 59q30 -6 46 -6q31 0 37 29zM530 649h-81v253h81v-253zM1001 849q-45 0 -45 -71q0 -75 46 -75q45 0 45 72q0 74 -46 74z
M1954 803h70q4 21 -4 33.5t-26 12.5q-36 0 -40 -46zM1707 844q-19 0 -33 -12v-117q16 -9 33 -9q21 0 33.5 19t12.5 50q0 69 -46 69zM676 832v-117q9 -9 30 -9q48 0 48 69t-46 69q-20 0 -32 -12zM1864 314q-23 0 -38.5 17t-15.5 45q-2 27 15.5 44.5t41.5 17.5q23 0 37 -17
q25 -27 11 -69t-51 -38zM1152 314q-24 0 -39 17t-15 45q0 27 15.5 44.5t39.5 17.5q23 0 38.5 -17.5t15.5 -44.5t-15 -44.5t-40 -17.5zM1755 314q-28 0 -44.5 17t-16.5 45q0 27 16 44.5t42 17.5q16 0 27 -7l-1 -24h-6l-1 21q-12 3 -19 3q-22 0 -35 -14t-13 -40q0 -56 53 -56
q13 0 22 4l3 -6q-13 -5 -27 -5zM950 436v-120h-9v120h9zM283 316h-10l-39 120h9l35 -110l35 105h9l35 -105l35 110h10l-40 -120h-10l-34 104zM1006 316h-9v120h34q39 0 39 -35q0 -16 -11 -25.5t-29 -9.5h-24v-50zM1466 366v-50h-9v120h34q39 0 39 -35t-41 -35h-23zM464 316
l-39 120h9l35 -110l35 105h9l36 -105l34 110h10l-40 -120h-9l-35 104l-35 -104h-10zM1967 316h-8v120h14l45 -93l45 93h14v-120h-9v111l-46 -94h-8l-47 94v-111zM665 316h-10l-39 120h9l35 -110l35 105h9l36 -105l35 110h9l-40 -120h-9l-35 104zM1373 316v47l-42 73h10
l37 -66l37 66h9l-42 -73v-47h-9zM1633 316h-67v120h65v-6h-57v-50h55v-7h-55v-51h59v-6zM1266 316v114h-37v6h83v-6h-37v-114h-9zM824 430v6h84v-6h-38v-114h-8v114h-38zM1833 417q-21 -23 -9.5 -61.5t41.5 -34.5q19 0 31.5 14.5t12.5 38.5q0 26 -12.5 41.5t-32.5 15.5
q-19 0 -31 -14zM1152 431q-19 0 -31.5 -15t-12.5 -39q0 -25 12.5 -40.5t32.5 -15.5q19 0 31.5 14.5t12.5 38.5q0 26 -12.5 41.5t-32.5 15.5zM1030 430h-24v-58h25q30 0 30 28q0 30 -31 30zM1466 430v-58h25q30 0 30 28q0 30 -32 30h-23zM1666 314q-7 0 -7 7t7 7t7 -7t-7 -7z
M808 314q-7 0 -7 7t7 7t7 -7t-7 -7z" />
    <glyph glyph-name="IJacute" horiz-adv-x="1644" 
d="M1458 1473h-171l152 334h222zM574 1807l-203 -334h-171l152 334h222zM609 188l138 141q117 -155 268 -155q121 0 188.5 82.5t67.5 231.5v870h210v-885q0 -227 -120.5 -360t-344.5 -133q-128 0 -233 54t-174 154zM386 0h-210v1358h210v-1358z" />
    <glyph glyph-name="i.TRK" horiz-adv-x="502" 
d="M257 1160q-54 0 -88 34t-34 88t34 88t88 34q55 0 89 -33.5t34 -88.5t-34 -88.5t-89 -33.5zM350 960v-960h-198v960h198z" />
    <glyph glyph-name="ijacute" horiz-adv-x="1006" 
d="M1040 1447l-203 -334h-171l152 334h222zM530 1447l-203 -334h-171l152 334h222zM360 -390l21 164q54 -20 124 -20q79 0 115 46t36 145v1015h198v-1026q0 -170 -85 -262t-250 -92q-95 0 -159 30zM152 0v960h198v-960h-198z" />
    <glyph glyph-name="zero.slash" horiz-adv-x="1319" 
d="M966 1280l152 224l142 -92l-177 -260q121 -184 121 -473q0 -319 -146 -509q-147 -190 -395 -190q-177 0 -308 102l-155 -227l-135 96l175 258q-119 185 -119 470q0 319 147 509t395 190q173 0 303 -98zM375 408l474 700q-78 72 -186 72q-150 0 -241 -136t-91 -365
q0 -156 44 -271zM949 955l-477 -700q79 -76 191 -76q150 0 241 136q90 135 90 364q0 157 -45 276z" />
    <glyph glyph-name="Q.alt" horiz-adv-x="1579" 
d="M789 -20q-199 0 -358.5 88t-251 247.5t-91.5 361.5q0 149 52.5 278.5t144.5 222.5t222.5 146.5t281.5 53.5q200 0 360.5 -90t251 -250.5t90.5 -360.5t-91 -362.5t-263 -252.5l321 -291l-139 -146l-405 364q-62 -9 -125 -9zM789 1179q-217 0 -349 -141t-132 -359
q0 -221 130.5 -360.5t350.5 -139.5q221 0 351.5 138.5t130.5 361.5q0 221 -131 360.5t-351 139.5z" />
    <glyph glyph-name="y.alt" horiz-adv-x="1080" 
d="M425 0l-400 960h218l285 -742l311 742h218l-598 -1360h-194z" />
    <glyph glyph-name="yacute.alt" horiz-adv-x="1080" 
d="M609 1113h-171l152 334h222zM265 -400l160 400l-400 960h218l285 -742l311 742h218l-598 -1360h-194z" />
    <glyph glyph-name="ycircumflex.alt" horiz-adv-x="1080" 
d="M521 1272l-135 -187h-189l287 370h74l287 -370h-189zM425 0l-400 960h218l285 -742l311 742h218l-598 -1360h-194z" />
    <glyph glyph-name="ydieresis.alt" horiz-adv-x="1080" 
d="M834 1285q0 -55 -34 -88.5t-89 -33.5q-54 0 -88 34t-34 88t34 88t88 34q55 0 89 -33.5t34 -88.5zM481 1285q0 -55 -34 -88.5t-89 -33.5q-54 0 -88 34t-34 88t34 88t88 34q55 0 89 -33.5t34 -88.5zM425 0l-400 960h218l285 -742l311 742h218l-598 -1360h-194z" />
    <glyph glyph-name="ygrave.alt" horiz-adv-x="1080" 
d="M477 1121l-203 334h222l152 -334h-171zM265 -400l160 400l-400 960h218l285 -742l311 742h218l-598 -1360h-194z" />
    <glyph glyph-name="ymacron.alt" horiz-adv-x="1080" 
d="M212 1165v144h591v-144h-591zM425 0l-400 960h218l285 -742l311 742h218l-598 -1360h-194z" />
    <glyph glyph-name="ytilde.alt" horiz-adv-x="1080" 
d="M273 1160l-103 87q96 160 217 160q40 1 84 -20t83.5 -42t68.5 -20q42 0 71 18t62 64l95 -95q-49 -80 -101.5 -114.5t-128.5 -34.5q-46 -2 -121.5 38.5t-101.5 38.5q-28 0 -52 -12.5t-37.5 -26.5t-35.5 -41zM425 0l-400 960h218l285 -742l311 742h218l-598 -1360h-194z
" />
    <glyph glyph-name="zero.slash.tnum" 
d="M979 1279l152 225l142 -92l-177 -261q120 -185 120 -472q0 -319 -146 -509q-147 -190 -395 -190q-177 0 -308 102l-154 -227l-135 96l175 257q-120 184 -120 471q0 319 147 509t395 190q173 0 304 -99zM387 407l475 700q-80 73 -187 73q-150 0 -241 -136t-91 -365
q0 -152 44 -272zM961 954l-476 -700q80 -75 190 -75q150 0 241 136q90 135 90 364q0 157 -45 275z" />
    <glyph glyph-name="zero.tnum" 
d="M1071 170q-147 -190 -395 -190t-395 190q-147 189 -147 509q0 319 147 509t395 190t395 -190q146 -191 146 -509q0 -319 -146 -509zM676 1180q-150 0 -241 -136t-91 -365q0 -231 91 -365q91 -135 241 -135t241 136q90 135 90 364t-91 365t-240 136z" />
    <glyph glyph-name="one.tnum" 
d="M1146 0h-899v190h351v978h-309v190h519v-1168h338v-190z" />
    <glyph glyph-name="two.tnum" 
d="M378 977l-177 85q50 141 174.5 228.5t274.5 87.5q196 0 327.5 -112.5t131.5 -304.5q0 -91 -29.5 -160t-92.5 -141q-56 -63 -191 -157q-87 -64 -158 -120q-40 -31 -80 -66q-93 -79 -94 -118h667v-199h-910v91q6 116 55 194q44 70 81 108l48 48q17 17 53 47q51 41 53 42
q26 19 56 42q76 58 145 112q38 31 64.5 56.5t55 60.5t43 74.5t14.5 81.5q0 102 -68 162t-171 60q-92 0 -164.5 -56t-107.5 -146z" />
    <glyph glyph-name="three.tnum" 
d="M197 285l176 97q39 -96 118 -150.5t180 -54.5q99 0 173 54t74 149q0 72 -42.5 122.5t-103.5 72t-131 21.5h-169v183h169q106 0 175.5 55t69.5 158q0 92 -70 142t-166 50q-92 0 -167 -54t-111 -141l-175 94q56 138 177 216.5t272 78.5q120 0 221.5 -41.5t167.5 -130.5
t66 -211q0 -100 -52 -182.5t-143 -117.5q104 -34 165.5 -121t61.5 -197q0 -172 -129 -284q-131 -113 -329 -113q-162 0 -290 79.5t-188 225.5z" />
    <glyph glyph-name="four.tnum" 
d="M784 350h-645v175l604 833h248v-823h200v-184h-200v-352h-207v351zM784 535v564l-401 -564h401z" />
    <glyph glyph-name="five.tnum" 
d="M657 -20q-161 0 -286.5 81.5t-184.5 228.5l175 97q39 -97 118.5 -153.5t181.5 -56.5q114 0 191.5 68t77.5 181q0 110 -71 186q-71 75 -198 75q-137 0 -246 -99l-159 65l64 705h759v-199h-579l-33 -350q85 63 210 63q205 0 336.5 -121t131.5 -325q0 -135 -67 -238
t-177 -155.5t-244 -52.5z" />
    <glyph glyph-name="six.tnum" 
d="M714 -20q-111 0 -201 33.5t-151.5 92t-103.5 141t-61 178t-19 205.5q0 126 20.5 234.5t67 204t116.5 163.5t175.5 107t237.5 39q192 0 323 -77l-61 -179q-120 66 -258 66q-388 0 -412 -463q49 82 140 121t197 39q180 0 319 -103q71 -52 111.5 -140.5t40.5 -200.5
q0 -208 -135.5 -334.5t-345.5 -126.5zM696 699q-121 0 -198 -71.5t-77 -190.5q0 -121 79 -197.5t200 -76.5q124 0 202 74t78 197q0 124 -75.5 194.5t-208.5 70.5z" />
    <glyph glyph-name="seven.tnum" 
d="M244 1159v199h876v-172q-352 -576 -558 -1186h-228q210 630 546 1159h-636z" />
    <glyph glyph-name="eight.tnum" 
d="M674 -20q-220 0 -357 111q-136 109 -136 290q0 236 232 333q-180 88 -180 293q0 122 63 208.5t160.5 125.5t217.5 39q90 0 168.5 -22.5t141 -67t99 -117.5t36.5 -166q0 -99 -47.5 -175.5t-140.5 -118.5q238 -97 238 -332q0 -101 -42 -180t-113 -126t-157.5 -71
t-182.5 -24zM440 998q0 -91 63.5 -145.5t170.5 -54.5q109 0 173.5 54.5t64.5 145.5q0 95 -70 145.5t-168 50.5q-96 0 -165 -51.5t-69 -144.5zM674 617q-55 0 -104 -12.5t-90 -38t-65 -69.5t-24 -102q0 -75 42.5 -128.5t105 -77.5t135.5 -24q74 0 137 23.5t106.5 77
t43.5 129.5q0 58 -24.5 102.5t-66.5 69.5t-91.5 37.5t-104.5 12.5z" />
    <glyph glyph-name="nine.tnum" 
d="M626 471q-180 0 -319 103q-71 52 -111.5 140.5t-40.5 200.5q0 208 135.5 334.5t345.5 126.5q111 0 201 -33.5t151.5 -92t103.5 -141t61 -178t19 -205.5q0 -125 -20.5 -233.5t-67 -204.5t-116.5 -164t-175.5 -107t-237.5 -39q-192 0 -323 77l61 179q120 -66 258 -66
q388 0 412 463q-49 -81 -141 -120.5t-196 -39.5zM650 1193q-124 0 -202 -74t-78 -197q0 -124 75.5 -194.5t208.5 -70.5q121 0 198 71.5t77 190.5q0 122 -78.5 198t-200.5 76z" />
    <glyph glyph-name="plus.tnum" 
d="M143 583v197h427v425h208v-425h429v-197h-429v-432h-208v432h-427z" />
    <glyph glyph-name="minus.tnum" 
d="M1141 782v-197h-933v197h933z" />
    <glyph glyph-name="plusminus.tnum" 
d="M163 798v197h407v361h208v-361h409v-197h-409v-368h-208v368h-407zM1201 44h-1054v199h1054v-199z" />
    <glyph glyph-name="equal.tnum" 
d="M148 826v200h1054v-200h-1054zM1202 531v-201h-1054v201h1054z" />
    <glyph glyph-name="notequal.tnum" 
d="M307 74l116 256h-275v201h366l133 295h-499v200h590l145 320l160 -59l-119 -261h278v-200h-370l-134 -295h504v-201h-596l-146 -320z" />
    <glyph glyph-name="approxequal.tnum" 
d="M300 748l-116 156q169 148 310 148q110 0 190 -51t172 -51q38 0 74 12t58.5 26t62.5 43l116 -156q-169 -148 -310 -148q-109 0 -185 52q-75 51 -176 51q-87 0 -196 -82zM300 310l-116 156q169 148 310 148q110 0 190 -51t172 -51q38 0 74 12t58.5 26t62.5 43l116 -156
q-169 -148 -310 -148q-109 0 -185 52q-75 51 -176 51q-87 0 -196 -82z" />
    <glyph glyph-name="multiply.tnum" 
d="M318 178l-144 144l357 357l-357 357l145 144l356 -357l357 357l144 -144l-357 -357l357 -357l-144 -144l-357 357z" />
    <glyph glyph-name="less.tnum" 
d="M1103 384v-217l-909 401v218l909 412v-217l-694 -303z" />
    <glyph glyph-name="greater.tnum" 
d="M247 384l694 294l-694 303v217l909 -412v-218l-909 -401v217z" />
    <glyph glyph-name="lessequal.tnum" 
d="M371 684h819v-203h-1054v285l1045 490v-224zM130 276h1054v-201h-1054v201z" />
    <glyph glyph-name="greaterequal.tnum" 
d="M163 481v203h819l-810 348v224l1045 -490v-285h-1054zM164 75v201h1054v-201h-1054z" />
    <glyph glyph-name="divide.tnum" 
d="M799 1096q0 -55 -34 -88.5t-89 -33.5q-54 0 -88 34t-34 88t34 88t88 34q55 0 89 -33.5t34 -88.5zM136 581v197h1078v-197h-1078zM676 145q-54 0 -88 34t-34 88t34 88t88 34q55 0 89 -33.5t34 -88.5t-34 -88.5t-89 -33.5z" />
    <glyph glyph-name="logicalnot.tnum" 
d="M1192 408h-208v373h-888v197h1096v-570z" />
    <glyph glyph-name="numbersign.tnum" 
d="M281 352h-243l28 154h245q11 64 33 189t33 189h-244l27 153h241l57 321h175l-54 -321h309l58 321h176l-56 -321h248l-27 -153h-247l-67 -378h246l-29 -154h-243l-66 -353h-178l66 353h-310l-67 -353h-178zM867 884h-315l-67 -378h315z" />
    <glyph glyph-name="dollar.tnum" 
d="M157 288l157 109q84 -173 264 -216v437q-173 59 -270 139q-109 88 -108 243q1 103 54.5 184t136.5 127t187 61v164h180v-165q127 -18 229.5 -89t161.5 -184l-163 -114q-37 69 -96 119.5t-132 70.5v-405q110 -37 187.5 -73t140.5 -93q86 -82 92 -238q0 -84 -35.5 -154.5
t-95.5 -116.5t-133.5 -74.5t-155.5 -36.5v-159h-180v165q-139 21 -253 98.5t-168 200.5zM411 1001q0 -61 38.5 -98.5t128.5 -71.5v346q-76 -18 -121.5 -64.5t-45.5 -111.5zM967 363q0 65 -49 109t-160 85v-383q95 15 152 65.5t57 123.5z" />
    <glyph glyph-name="Euro.tnum" 
d="M412 627h509v-130h-488q37 -141 132.5 -229.5t234.5 -88.5q216 0 345 231l165 -100q-81 -159 -211.5 -244.5t-295.5 -85.5q-232 0 -390.5 142.5t-204.5 374.5h-159v130h142q-1 11 -1 52q0 7 2 55h-143v130h159q48 231 204 372.5t386 141.5q159 0 291 -86.5t216 -244.5
l-173 -99q-126 231 -337 231q-139 0 -233 -87.5t-130 -227.5h489v-130h-509q-2 -48 -2 -55q0 -6 2 -52z" />
    <glyph glyph-name="yen.tnum" 
d="M243 612h270l-477 746h250l389 -623l390 623h250l-478 -746h268v-115h-325v-138h313v-115h-313v-244h-209v244h-317v115h317v138h-328v115z" />
    <glyph glyph-name="sterling.tnum" 
d="M1160 189v-189h-1000v174q96 59 144 121t48 159v149h-185v178h182v184q0 190 121 302.5t312 112.5q153 0 269.5 -79t163.5 -222l-174 -89q-89 192 -260 192q-109 0 -171.5 -62t-62.5 -169v-170h384v-178h-383v-118q0 -199 -120 -296h732z" />
    <glyph glyph-name="currency.tnum" 
d="M332 854l-171 169l147 147l169 -170q94 53 196 53q105 0 200 -53l168 170l147 -147l-170 -169q52 -89 52 -193q0 -109 -57 -198l175 -173l-147 -147l-175 177q-93 -48 -193 -48q-98 0 -188 48l-177 -177l-147 147l174 173q-54 91 -54 198q0 105 51 193zM672 887
q-93 0 -158 -66.5t-65 -159.5q0 -91 66 -155.5t157 -64.5q94 0 162 63.5t68 156.5q0 95 -67 160.5t-163 65.5z" />
    <glyph glyph-name="florin.tnum" 
d="M348 -20q-114 0 -208 66l86 165q58 -42 126 -42t116.5 43.5t57.5 117.5l48 396h-182l22 176h184l17 135q20 153 121 246.5t254 93.5q119 0 213 -65l-86 -165q-59 42 -126 42q-68 0 -117.5 -43.5t-58.5 -117.5l-16 -126h282l-22 -176h-279l-52 -405q-20 -153 -123.5 -247
t-256.5 -94z" />
    <glyph glyph-name="cent.tnum" 
d="M205 680q0 181 113 316.5t292 171.5v173h171v-165q122 -14 220 -81.5t158 -178.5l-153 -104q-37 68 -96 114t-129 60v-614q144 28 228 173l149 -105q-60 -106 -158.5 -173.5t-218.5 -83.5v-183h-171v189q-179 35 -292 171.5t-113 319.5zM610 382v594q-95 -32 -150 -113.5
t-55 -182.5q0 -102 55 -184t150 -114z" />
    <glyph glyph-name="mu.tnum" 
d="M229 -400v1361h199v-571q7 -105 67.5 -163.5t162.5 -58.5q116 0 190.5 68t74.5 183v541h198v-960h-199v121q-30 -46 -94 -88q-78 -53 -201 -53q-131 0 -199 61v-441h-199z" />
    <glyph glyph-name="pi.tnum" 
d="M52 889v198h1204v-198h-190v-585q0 -81 30 -110.5t111 -29.5q26 0 44 3v-181q-27 -6 -78 -6q-302 0 -302 299v610h-427v-889h-195v889h-197z" />
    <glyph glyph-name="degree.tnum" 
d="M674 678q-157 0 -256.5 96t-99.5 252q0 158 98.5 255t257.5 97q160 0 259.5 -96.5t99.5 -255.5q0 -158 -100 -253t-259 -95zM472 1025q0 -91 55.5 -148.5t146.5 -57.5t145.5 57t54.5 149q0 94 -53.5 153t-146.5 59q-92 0 -147 -59.5t-55 -152.5z" />
    <glyph glyph-name="ordmasculine.tnum" 
d="M353 1066q0 139 91 225.5t230 86.5q141 0 232 -86t91 -226q0 -139 -91.5 -223.5t-231.5 -84.5q-139 0 -230 85t-91 223zM506 1065q0 -74 46.5 -120t121.5 -46q74 0 119.5 46t45.5 120q0 77 -46 124.5t-119 47.5q-75 0 -121.5 -47.5t-46.5 -124.5zM363 515v140h624v-140
h-624z" />
    <glyph glyph-name="ordfeminine.tnum" 
d="M632 752q-97 0 -166.5 46.5t-69.5 137.5q0 51 25 89.5t66 60t86.5 32t92.5 10.5q82 0 147 -27v30q0 54 -42 89t-108 35q-97 0 -171 -80l-83 87q44 54 114.5 86t141.5 32q121 0 200.5 -60.5t79.5 -177.5v-378h-130v78q-27 -42 -75.5 -66t-107.5 -24zM532 940
q0 -36 33.5 -58t85.5 -22q64 0 113 38t49 100q-56 29 -144 29q-62 0 -99.5 -22.5t-37.5 -64.5zM950 657v-140h-554v140h554z" />
    <glyph glyph-name="zero.slash.onum" horiz-adv-x="1326" 
d="M949 1017l181 221l130 -107l-178 -218q141 -154 141 -380q3 -155 -70.5 -283t-203.5 -200t-287 -70q-158 0 -286 71l-180 -220l-130 107l177 217q-140 154 -140 378q0 243 157.5 398.5t401.5 155.5q159 0 287 -70zM367 305l460 562q-75 34 -165 34q-163 0 -264.5 -102.5
t-101.5 -265.5q0 -131 71 -228zM958 763l-460 -563q72 -34 164 -34q164 0 266 102t102 265q0 133 -72 230z" />
    <glyph glyph-name="zero.onum" horiz-adv-x="1306" 
d="M652 -20q-243 0 -401 155t-158 398t157.5 398.5t401.5 155.5q245 0 403 -155t158 -399q3 -155 -70.5 -283t-203.5 -200t-287 -70zM286 533q0 -162 102 -264.5t264 -102.5q164 0 266 102t102 265q0 164 -102 266t-266 102q-163 0 -264.5 -102.5t-101.5 -265.5z" />
    <glyph glyph-name="one.onum" horiz-adv-x="997" 
d="M964 0h-889v190h356v697h-319v190h519v-887h333v-190z" />
    <glyph glyph-name="two.onum" horiz-adv-x="1069" 
d="M242 712l-168 91q51 122 166 204q114 81 274 81q88 0 162.5 -21t133 -63.5t91.5 -112t33 -160.5q6 -112 -111 -241q-65 -72 -236 -188q-12 -8 -33 -23l-126 -89h567v-190h-889v176l309 219q49 35 55 39q62 41 106 80q15 14 45 39q100 91 100 171q0 83 -57 128t-154 45
q-89 0 -160.5 -50.5t-107.5 -134.5z" />
    <glyph glyph-name="three.onum" horiz-adv-x="1095" 
d="M66 -5l176 97q39 -96 118 -150.5t180 -54.5q99 0 173 54t74 149q0 72 -42.5 122.5t-103.5 72t-131 21.5h-169v183h169q106 0 175.5 55t69.5 158q0 92 -70 142t-166 50q-92 0 -167 -54t-111 -141l-175 94q56 138 177 216.5t272 78.5q120 0 221.5 -41.5t167.5 -130.5
t66 -211q0 -100 -52 -182.5t-143 -117.5q104 -34 165.5 -121t61.5 -197q0 -173 -129 -285q-130 -112 -329 -112q-162 0 -290 79.5t-188 225.5z" />
    <glyph glyph-name="four.onum" horiz-adv-x="1153" 
d="M693 59h-645v175l604 833h248v-823h200v-184h-200v-352h-207v351zM693 244v564l-401 -564h401z" />
    <glyph glyph-name="five.onum" horiz-adv-x="1073" 
d="M518 -311q-162 0 -287 81t-184 229l175 97q39 -97 118.5 -153.5t181.5 -56.5q114 0 191.5 68t77.5 181q0 110 -71 186q-70 75 -198 75q-136 0 -246 -99l-159 65l64 705h759v-199h-579l-33 -350q86 63 210 63q205 0 336.5 -121t131.5 -325q0 -135 -67 -238t-177 -155.5
t-244 -52.5z" />
    <glyph glyph-name="six.onum" horiz-adv-x="1179" 
d="M629 -20q-111 0 -201 33.5t-151.5 92t-103.5 141t-61 178t-19 205.5q0 126 20.5 234.5t67 204t116.5 163.5t175.5 107t237.5 39q192 0 323 -77l-61 -179q-120 66 -258 66q-388 0 -412 -463q49 82 140 121t197 39q180 0 319 -103q71 -52 111.5 -140.5t40.5 -200.5
q0 -208 -135.5 -334.5t-345.5 -126.5zM611 699q-121 0 -198 -71.5t-77 -190.5q0 -121 79 -197.5t200 -76.5q124 0 202 74t78 197q0 124 -75.5 194.5t-208.5 70.5z" />
    <glyph glyph-name="seven.onum" horiz-adv-x="942" 
d="M39 868v199h876v-172q-352 -576 -558 -1186h-228q210 630 546 1159h-636z" />
    <glyph glyph-name="eight.onum" horiz-adv-x="1165" 
d="M581 -20q-221 0 -357 111q-136 109 -136 290q0 236 232 333q-180 88 -180 293q0 122 63 208.5t160.5 125.5t217.5 39q90 0 168.5 -22.5t141 -67t99 -117.5t36.5 -166q0 -99 -47.5 -175.5t-140.5 -118.5q238 -97 238 -332q0 -101 -42 -180t-113 -126t-157.5 -71
t-182.5 -24zM347 998q0 -91 63.5 -145.5t170.5 -54.5q109 0 173.5 54.5t64.5 145.5q0 95 -70 145.5t-168 50.5q-96 0 -165 -51.5t-69 -144.5zM581 617q-55 0 -104 -12.5t-90 -38t-65 -69.5t-24 -102q0 -75 42.5 -128.5t105 -77.5t135.5 -24q74 0 137 23.5t106.5 77
t43.5 129.5q0 58 -24.5 102.5t-66.5 69.5t-91.5 37.5t-104.5 12.5z" />
    <glyph glyph-name="nine.onum" horiz-adv-x="1177" 
d="M538 176q-180 0 -319 103q-71 52 -111.5 140.5t-40.5 200.5q0 208 135.5 334.5t345.5 126.5q111 0 201 -33.5t151.5 -92t103.5 -141t61 -178t19 -205.5q0 -126 -20.5 -234.5t-67 -204t-116.5 -163.5t-175.5 -107t-237.5 -39q-192 0 -323 77l61 179q120 -66 258 -66
q388 0 412 463q-49 -81 -141 -120.5t-196 -39.5zM562 898q-124 0 -202 -74t-78 -197q0 -124 75.5 -194.5t208.5 -70.5q121 0 198 71.5t77 190.5q0 122 -78.5 198t-200.5 76z" />
    <glyph glyph-name="plus.onum" horiz-adv-x="1224" 
d="M80 440v197h427v425h208v-425h429v-197h-429v-432h-208v432h-427z" />
    <glyph glyph-name="minus.onum" horiz-adv-x="1127" 
d="M1030 639v-197h-933v197h933z" />
    <glyph glyph-name="plusminus.onum" horiz-adv-x="1247" 
d="M112 655v197h407v361h208v-361h409v-197h-409v-368h-208v368h-407zM1150 -99h-1054v199h1054v-199z" />
    <glyph glyph-name="equal.onum" horiz-adv-x="1304" 
d="M125 683v200h1054v-200h-1054zM1179 388v-201h-1054v201h1054z" />
    <glyph glyph-name="notequal.onum" horiz-adv-x="1280" 
d="M265 -69l116 256h-275v201h366l133 295h-499v200h590l145 320l160 -59l-119 -261h278v-200h-370l-134 -295h504v-201h-596l-146 -320z" />
    <glyph glyph-name="approxequal.onum" horiz-adv-x="1193" 
d="M221 605l-116 156q169 148 310 148q110 0 190 -51t172 -51q38 0 74 12t58.5 26t62.5 43l116 -156q-169 -148 -310 -148q-109 0 -185 52q-75 51 -176 51q-87 0 -196 -82zM221 167l-116 156q169 148 310 148q110 0 190 -51t172 -51q38 0 74 12t58.5 26t62.5 43l116 -156
q-169 -148 -310 -148q-109 0 -185 52q-75 51 -176 51q-87 0 -196 -82z" />
    <glyph glyph-name="multiply.onum" horiz-adv-x="1140" 
d="M213 35l-144 144l357 357l-357 357l145 144l356 -357l357 357l144 -144l-357 -357l357 -357l-144 -144l-357 357z" />
    <glyph glyph-name="less.onum" horiz-adv-x="1103" 
d="M990 241v-217l-909 401v218l909 412v-217l-694 -303z" />
    <glyph glyph-name="greater.onum" horiz-adv-x="1103" 
d="M113 241l694 294l-694 303v217l909 -412v-218l-909 -401v217z" />
    <glyph glyph-name="lessequal.onum" horiz-adv-x="1314" 
d="M349 541h819v-203h-1054v285l1045 490v-224zM108 133h1054v-201h-1054v201z" />
    <glyph glyph-name="greaterequal.onum" horiz-adv-x="1311" 
d="M146 338v203h819l-810 348v224l1045 -490v-285h-1054zM147 -68v201h1054v-201h-1054z" />
    <glyph glyph-name="divide.onum" horiz-adv-x="1272" 
d="M763 956q0 -55 -34 -88.5t-89 -33.5q-54 0 -88 34t-34 88t34 88t88 34q55 0 89 -33.5t34 -88.5zM97 438v197h1078v-197h-1078zM640 5q-54 0 -88 34t-34 88t34 88t88 34q55 0 89 -33.5t34 -88.5t-34 -88.5t-89 -33.5z" />
    <glyph glyph-name="logicalnot.onum" horiz-adv-x="1312" 
d="M1181 265h-208v373h-888v197h1096v-570z" />
    <glyph glyph-name="numbersign.onum" horiz-adv-x="1237" 
d="M222 0l46 262h-201l27 144h200l50 279h-200l27 144h198l43 238h159l-43 -238h287l43 238h159l-43 -238h199l-27 -144h-197l-50 -279h196l-26 -144h-196l-46 -262h-159l46 262h-287l-46 -262h-159zM790 685h-287l-50 -279h287z" />
    <glyph glyph-name="dollar.onum" horiz-adv-x="1067" 
d="M459 -181v167q-124 17 -220.5 79.5t-148.5 158.5l156 126q77 -135 213 -169v272q-57 15 -99.5 30.5t-87 41t-72.5 57t-46 79t-18 105.5q0 88 46.5 157t118 106t158.5 48v156h160v-160q106 -18 191.5 -74.5t134.5 -135.5l-141 -121q-74 107 -185 137v-260
q174 -45 260 -116t86 -206q0 -68 -30 -125t-80.5 -95t-110 -61t-125.5 -32v-165h-160zM347 769q0 -39 26 -63t86 -45v224q-52 -12 -82 -43t-30 -73zM619 177q53 10 92 40.5t39 79.5q0 27 -11 47t-32.5 33.5t-40.5 21.5t-47 16v-238z" />
    <glyph glyph-name="Euro.onum" horiz-adv-x="1175" 
d="M220 581h-129v114h144q37 179 152.5 283.5t293.5 104.5q138 0 244.5 -69t153.5 -196l-177 -87q-36 78 -94 119t-127 41q-80 0 -139.5 -51.5t-87.5 -144.5h357v-114h-377q-2 -58 -2 -66h379v-113h-365q25 -106 87 -165.5t148 -59.5q73 0 132 43.5t89 123.5l182 -93
q-45 -126 -155 -196t-248 -70q-186 0 -304 114t-148 303h-138v113h128v19q0 37 1 47z" />
    <glyph glyph-name="yen.onum" horiz-adv-x="1142" 
d="M210 504h205l-376 563h236l296 -448l302 448h230l-376 -563h205v-115h-262v-106h250v-115h-250v-168h-197v168h-252v115h252v106h-263v115z" />
    <glyph glyph-name="sterling.onum" horiz-adv-x="1016" 
d="M101 0v164q76 44 110 88.5t34 111.5v106h-140v162h138v118q0 153 98 243.5t253 90.5q126 0 219.5 -69.5t134.5 -189.5l-170 -87q-65 155 -186 155q-68 0 -106.5 -41t-38.5 -113v-107h282v-162h-281v-83q0 -125 -57 -202h511v-185h-801z" />
    <glyph glyph-name="currency.onum" horiz-adv-x="1189" 
d="M252 733l-171 169l147 147l169 -170q94 53 196 53q105 0 200 -53l168 170l147 -147l-170 -169q52 -89 52 -193q0 -110 -57 -198l175 -173l-147 -147l-175 177q-93 -48 -193 -48q-98 0 -188 48l-177 -177l-147 147l174 173q-54 92 -54 198q0 104 51 193zM592 766
q-93 0 -158 -66.5t-65 -159.5q0 -91 66 -155.5t157 -64.5q94 0 162 63.5t68 156.5q0 95 -67 160.5t-163 65.5z" />
    <glyph glyph-name="florin.onum" horiz-adv-x="1155" 
d="M247 -159q-113 0 -208 66l86 165q59 -42 126 -42q68 0 116.5 43.5t57.5 117.5l48 396h-182l22 176h184l17 135q20 153 121 246.5t254 93.5q119 0 213 -65l-86 -165q-58 42 -126 42t-117.5 -43.5t-58.5 -117.5l-16 -126h282l-22 -176h-279l-52 -405q-20 -153 -123.5 -247
t-256.5 -94z" />
    <glyph glyph-name="cent.onum" horiz-adv-x="1136" 
d="M100 560q0 181 113 316.5t292 171.5v173h171v-165q122 -14 220 -81.5t158 -178.5l-153 -104q-37 68 -96 114t-129 60v-614q144 28 228 173l149 -105q-60 -106 -158.5 -173.5t-218.5 -83.5v-183h-171v189q-179 35 -292 171.5t-113 319.5zM505 262v594q-95 -32 -150 -113.5
t-55 -182.5q0 -102 55 -184t150 -114z" />
    <glyph glyph-name="mu.onum" horiz-adv-x="1196" 
d="M152 -400v1361h199v-571q7 -105 67.5 -163.5t162.5 -58.5q116 0 190.5 68t74.5 183v541h198v-960h-199v121q-30 -46 -94 -88q-78 -53 -201 -53q-131 0 -199 61v-441h-199z" />
    <glyph glyph-name="pi.onum" horiz-adv-x="1320" 
d="M37 889v198h1204v-198h-190v-585q0 -81 30 -110.5t111 -29.5q26 0 44 3v-181q-27 -6 -78 -6q-302 0 -302 299v610h-427v-889h-195v889h-197z" />
    <glyph glyph-name="degree.onum" horiz-adv-x="901" 
d="M449 478q-157 0 -256.5 96t-99.5 252q0 158 98.5 255t257.5 97q160 0 259.5 -96.5t99.5 -255.5q0 -158 -100 -253t-259 -95zM247 825q0 -91 55.5 -148.5t146.5 -57.5t145.5 57t54.5 149q0 94 -53.5 153t-146.5 59q-92 0 -147 -59.5t-55 -152.5z" />
    <glyph glyph-name="ordmasculine.onum" horiz-adv-x="896" 
d="M126 866q0 139 91 225.5t230 86.5q141 0 232 -86t91 -226q0 -139 -91.5 -223.5t-231.5 -84.5q-139 0 -230 85t-91 223zM279 865q0 -74 46.5 -120t121.5 -46q74 0 119.5 46t45.5 120q0 77 -46 124.5t-119 47.5q-75 0 -121.5 -47.5t-46.5 -124.5zM136 315v140h624v-140
h-624z" />
    <glyph glyph-name="ordfeminine.onum" horiz-adv-x="825" 
d="M370 552q-97 0 -166.5 46.5t-69.5 137.5q0 51 25 89.5t66 60t86.5 32t92.5 10.5q82 0 147 -27v30q0 54 -42 89t-108 35q-97 0 -171 -80l-83 87q44 54 114.5 86t141.5 32q121 0 200.5 -60.5t79.5 -177.5v-378h-130v78q-27 -42 -75.5 -66t-107.5 -24zM270 740
q0 -36 33.5 -58t85.5 -22q64 0 113 38t49 100q-56 29 -144 29q-62 0 -99.5 -22.5t-37.5 -64.5zM688 457v-140h-554v140h554z" />
    <glyph glyph-name="onehalf.onum" horiz-adv-x="1704" 
d="M1223 1194l-732 -1334h-147v26l734 1332h145v-24zM129 1061l-1 153h324v-824h-153v671h-170zM1158 409l-140 73q32 97 112.5 159.5t180.5 62.5q129 0 213 -77.5t84 -204.5q0 -70 -33 -118q-48 -71 -124 -126q-17 -14 -51 -36q-9 -6 -20 -13.5t-17 -12t-9 -6.5l-34 -24
q-8 -6 -21 -15t-16 -11q-39 -29 -52 -47h391v-153h-592v72q1 50 27 105q25 53 92 109.5t138 101.5q81 58 114 94t33 84q0 57 -33.5 91t-87.5 34q-49 0 -91 -38t-64 -104z" />
    <glyph glyph-name="onethird.onum" horiz-adv-x="1695" 
d="M1202 1194l-732 -1334h-147v26l734 1332h145v-24zM128 1061l-1 153h324v-824h-153v671h-170zM1001 49l139 80q22 -60 70 -98.5t102 -38.5t87.5 29.5t33.5 74.5q0 53 -39 86t-100 33h-129v131h129q54 0 87.5 29.5t33.5 77.5q0 43 -32.5 70.5t-83.5 27.5q-56 0 -97.5 -35
t-63.5 -94l-137 80q38 94 116.5 148t179.5 54q80 0 145.5 -26.5t108 -84t42.5 -138.5q0 -53 -30.5 -100.5t-78.5 -71.5q56 -23 92 -76t36 -113q0 -119 -87.5 -186.5t-209.5 -67.5q-108 0 -191.5 55t-122.5 154z" />
    <glyph glyph-name="onequarter.onum" horiz-adv-x="1607" 
d="M314 -140v26l734 1332h145v-24l-732 -1334h-147zM299 1061h-170l-1 153h324v-824h-153v671zM869 57v125l387 502h166v-482h118v-144h-118v-198h-153v197h-400zM1269 202v260l-200 -260h200z" />
    <glyph glyph-name="twothirds.onum" horiz-adv-x="1904" 
d="M213 949l-140 73q32 97 112.5 159.5t180.5 62.5q129 0 213 -77.5t84 -204.5q0 -70 -33 -118q-48 -71 -124 -126q-16 -14 -51 -36l-46 -32l-34 -24q-8 -6 -20.5 -15t-16.5 -11q-39 -29 -52 -47h391v-153h-592v72q1 50 27 105q25 53 92 109.5t138 101.5q81 58 114 94t33 84
q0 57 -33.5 91t-87.5 34q-49 0 -91 -38t-64 -104zM1403 1194l-732 -1334h-147v26l734 1332h145v-24zM1329 422l-137 80q38 94 116.5 148t179.5 54q80 0 145.5 -26.5t108 -84t42.5 -138.5q0 -53 -30.5 -100.5t-78.5 -71.5q56 -23 92 -76t36 -113q0 -119 -87.5 -186.5
t-209.5 -67.5q-108 0 -191.5 55t-122.5 154l139 80q22 -60 70 -98.5t102 -38.5t87.5 29.5t33.5 74.5q0 53 -39 86t-100 33h-129v131h129q54 0 87.5 29.5t33.5 77.5q0 43 -32.5 70.5t-83.5 27.5q-56 0 -97.5 -35t-63.5 -94z" />
    <glyph glyph-name="threequarters.onum" horiz-adv-x="1807" 
d="M408 380q-108 0 -191.5 55t-122.5 154l139 80q22 -60 70 -98.5t102 -38.5t87.5 29.5t33.5 74.5q0 53 -39 86t-100 33h-129v131h129q54 0 87.5 29.5t33.5 77.5q0 43 -32.5 70.5t-83.5 27.5q-56 0 -97.5 -35t-63.5 -94l-137 80q38 94 116.5 148t179.5 54q80 0 145.5 -26.5
t108 -84t42.5 -138.5q0 -53 -30.5 -100.5t-78.5 -71.5q56 -23 92 -76t36 -113q0 -119 -87.5 -186.5t-209.5 -67.5zM516 -140v26l734 1332h145v-24l-732 -1334h-147zM1481 57h-400v125l387 502h166v-482h118v-144h-118v-198h-153v197zM1481 462l-200 -260h200v260z" />
    <glyph glyph-name="percent.onum" horiz-adv-x="1827" 
d="M440 479q-163 0 -274 108t-111 270t111 270t274 108q165 0 275.5 -107t110.5 -271t-111 -271t-275 -107zM475 -143v26l734 1332h145v-24l-732 -1334h-147zM440 1074q-92 0 -153.5 -62.5t-61.5 -154.5t61.5 -154.5t153.5 -62.5q94 0 155.5 61.5t61.5 155.5q0 95 -61.5 156
t-155.5 61zM1388 -163q-163 0 -274 108t-111 270t111 270t274 108q165 0 275.5 -107t110.5 -271t-111 -271t-275 -107zM1388 432q-92 0 -153.5 -62.5t-61.5 -154.5t61.5 -154.5t153.5 -62.5q94 0 155.5 61.5t61.5 155.5q0 95 -61.5 156t-155.5 61z" />
    <glyph glyph-name="perthousand.onum" horiz-adv-x="2671" 
d="M440 479q-163 0 -274 108t-111 270t111 270t274 108q165 0 275.5 -107t110.5 -271t-111 -271t-275 -107zM475 -143v26l734 1332h145v-24l-732 -1334h-147zM440 1074q-92 0 -153.5 -62.5t-61.5 -154.5t61.5 -154.5t153.5 -62.5q94 0 155.5 61.5t61.5 155.5q0 95 -61.5 156
t-155.5 61zM1388 -163q-163 0 -274 108t-111 270t111 270t274 108q165 0 275.5 -107t110.5 -271t-111 -271t-275 -107zM2229 -163q-163 0 -274 108t-111 270t111 270t274 108q165 0 275.5 -107t110.5 -271t-111 -271t-275 -107zM2229 432q-92 0 -153.5 -62.5t-61.5 -154.5
t61.5 -154.5t153.5 -62.5q94 0 155.5 61.5t61.5 155.5q0 95 -61 156t-156 61zM1388 432q-92 0 -153.5 -62.5t-61.5 -154.5t61.5 -154.5t153.5 -62.5q94 0 155.5 61.5t61.5 155.5q0 95 -61.5 156t-155.5 61z" />
    <glyph glyph-name="zero.slash.onum.tnum" 
d="M961 1017l181 221l130 -107l-178 -218q141 -154 141 -380q3 -155 -70.5 -283t-203.5 -200t-287 -70q-158 0 -286 71l-180 -220l-130 107l177 217q-140 154 -140 378q0 243 157.5 398.5t401.5 155.5q159 0 287 -70zM379 305l460 562q-75 34 -165 34q-163 0 -264.5 -102.5
t-101.5 -265.5q0 -131 71 -228zM970 763l-460 -563q72 -34 164 -34q164 0 266 102t102 265q0 133 -72 230z" />
    <glyph glyph-name="zero.onum.tnum" 
d="M674 -20q-243 0 -401 155t-158 398t157.5 398.5t401.5 155.5q245 0 403 -155t158 -399q3 -155 -70.5 -283t-203.5 -200t-287 -70zM308 533q0 -162 102 -264.5t264 -102.5q164 0 266 102t102 265q0 164 -102 266t-266 102q-163 0 -264.5 -102.5t-101.5 -265.5z" />
    <glyph glyph-name="one.onum.tnum" 
d="M1141 0h-889v190h356v697h-319v190h519v-887h333v-190z" />
    <glyph glyph-name="two.onum.tnum" 
d="M382 712l-168 91q51 122 166 204q114 81 274 81q88 0 162.5 -21t133 -63.5t91.5 -112t33 -160.5q6 -112 -111 -241q-65 -72 -236 -188q-12 -8 -33 -23l-126 -89h567v-190h-889v176l309 219q49 35 55 39q62 41 106 80q15 14 45 39q100 91 100 171q0 83 -57 128t-154 45
q-89 0 -160.5 -50.5t-107.5 -134.5z" />
    <glyph glyph-name="three.onum.tnum" 
d="M194 -5l176 97q39 -96 118 -150.5t180 -54.5q99 0 173 54t74 149q0 72 -42.5 122.5t-103.5 72t-131 21.5h-169v183h169q106 0 175.5 55t69.5 158q0 92 -70 142t-166 50q-92 0 -167 -54t-111 -141l-175 94q56 138 177 216.5t272 78.5q120 0 221.5 -41.5t167.5 -130.5
t66 -211q0 -100 -52 -182.5t-143 -117.5q104 -34 165.5 -121t61.5 -197q0 -173 -129 -285q-130 -112 -329 -112q-162 0 -290 79.5t-188 225.5z" />
    <glyph glyph-name="four.onum.tnum" 
d="M792 59h-645v175l604 833h248v-823h200v-184h-200v-352h-207v351zM792 244v564l-401 -564h401z" />
    <glyph glyph-name="five.onum.tnum" 
d="M657 -311q-162 0 -287 81t-184 229l175 97q39 -97 118.5 -153.5t181.5 -56.5q114 0 191.5 68t77.5 181q0 110 -71 186q-71 75 -198 75q-137 0 -246 -99l-159 65l64 705h759v-199h-579l-33 -350q85 63 210 63q205 0 336.5 -121t131.5 -325q0 -135 -67 -238t-177 -155.5
t-244 -52.5z" />
    <glyph glyph-name="six.onum.tnum" 
d="M715 -20q-111 0 -201 33.5t-151.5 92t-103.5 141t-61 178t-19 205.5q0 126 20.5 234.5t67 204t116.5 163.5t175.5 107t237.5 39q192 0 323 -77l-61 -179q-120 66 -258 66q-388 0 -412 -463q49 82 140 121t197 39q180 0 319 -103q71 -52 111.5 -140.5t40.5 -200.5
q0 -208 -135.5 -334.5t-345.5 -126.5zM697 699q-121 0 -198 -71.5t-77 -190.5q0 -121 79 -197.5t200 -76.5q124 0 202 74t78 197q0 124 -75.5 194.5t-208.5 70.5z" />
    <glyph glyph-name="seven.onum.tnum" 
d="M243 868v199h876v-172q-352 -576 -558 -1186h-228q210 630 546 1159h-636z" />
    <glyph glyph-name="eight.onum.tnum" 
d="M674 -20q-220 0 -357 111q-136 109 -136 290q0 236 232 333q-180 88 -180 293q0 122 63 208.5t160.5 125.5t217.5 39q90 0 168.5 -22.5t141 -67t99 -117.5t36.5 -166q0 -99 -47.5 -175.5t-140.5 -118.5q238 -97 238 -332q0 -101 -42 -180t-113 -126t-157.5 -71
t-182.5 -24zM440 998q0 -91 63.5 -145.5t170.5 -54.5q109 0 173.5 54.5t64.5 145.5q0 95 -70 145.5t-168 50.5q-96 0 -165 -51.5t-69 -144.5zM674 617q-55 0 -104 -12.5t-90 -38t-65 -69.5t-24 -102q0 -75 42.5 -128.5t105 -77.5t135.5 -24q74 0 137 23.5t106.5 77
t43.5 129.5q0 58 -24.5 102.5t-66.5 69.5t-91.5 37.5t-104.5 12.5z" />
    <glyph glyph-name="nine.onum.tnum" 
d="M624 176q-180 0 -319 103q-71 52 -111.5 140.5t-40.5 200.5q0 208 135.5 334.5t345.5 126.5q111 0 201 -33.5t151.5 -92t103.5 -141t61 -178t19 -205.5q0 -126 -20.5 -234.5t-67 -204t-116.5 -163.5t-175.5 -107t-237.5 -39q-192 0 -323 77l61 179q120 -66 258 -66
q388 0 412 463q-49 -81 -141 -120.5t-196 -39.5zM648 898q-124 0 -202 -74t-78 -197q0 -124 75.5 -194.5t208.5 -70.5q121 0 198 71.5t77 190.5q0 122 -78.5 198t-200.5 76z" />
    <glyph glyph-name="plus.onum.tnum" 
d="M143 440v197h427v425h208v-425h429v-197h-429v-432h-208v432h-427z" />
    <glyph glyph-name="minus.onum.tnum" 
d="M1141 639v-197h-933v197h933z" />
    <glyph glyph-name="plusminus.onum.tnum" 
d="M163 655v197h407v361h208v-361h409v-197h-409v-368h-208v368h-407zM1201 -99h-1054v199h1054v-199z" />
    <glyph glyph-name="equal.onum.tnum" 
d="M148 683v200h1054v-200h-1054zM1202 388v-201h-1054v201h1054z" />
    <glyph glyph-name="notequal.onum.tnum" 
d="M301 -69l116 256h-275v201h366l133 295h-499v200h590l145 320l160 -59l-119 -261h278v-200h-370l-134 -295h504v-201h-596l-146 -320z" />
    <glyph glyph-name="approxequal.onum.tnum" 
d="M299 605l-116 156q169 148 310 148q110 0 190 -51t172 -51q38 0 74 12t58.5 26t62.5 43l116 -156q-169 -148 -310 -148q-109 0 -185 52q-75 51 -176 51q-87 0 -196 -82zM299 167l-116 156q169 148 310 148q110 0 190 -51t172 -51q38 0 74 12t58.5 26t62.5 43l116 -156
q-169 -148 -310 -148q-109 0 -185 52q-75 51 -176 51q-87 0 -196 -82z" />
    <glyph glyph-name="multiply.onum.tnum" 
d="M318 35l-144 144l357 357l-357 357l145 144l356 -357l357 357l144 -144l-357 -357l357 -357l-144 -144l-357 357z" />
    <glyph glyph-name="less.onum.tnum" 
d="M1114 241v-217l-909 401v218l909 412v-217l-694 -303z" />
    <glyph glyph-name="greater.onum.tnum" 
d="M236 241l694 294l-694 303v217l909 -412v-218l-909 -401v217z" />
    <glyph glyph-name="lessequal.onum.tnum" 
d="M367 541h819v-203h-1054v285l1045 490v-224zM126 133h1054v-201h-1054v201z" />
    <glyph glyph-name="greaterequal.onum.tnum" 
d="M166 338v203h819l-810 348v224l1045 -490v-285h-1054zM167 -68v201h1054v-201h-1054z" />
    <glyph glyph-name="divide.onum.tnum" 
d="M800 954q0 -55 -34 -88.5t-89 -33.5q-54 0 -88 34t-34 88t34 88t88 34q55 0 89 -33.5t34 -88.5zM136 438v197h1078v-197h-1078zM677 3q-54 0 -88 34t-34 88t34 88t88 34q55 0 89 -33.5t34 -88.5t-34 -88.5t-89 -33.5z" />
    <glyph glyph-name="logicalnot.onum.tnum" 
d="M1202 265h-208v373h-888v197h1096v-570z" />
    <glyph glyph-name="numbersign.onum.tnum" 
d="M278 0l46 262h-201l27 144h200l50 279h-200l27 144h198l43 238h159l-43 -238h287l43 238h159l-43 -238h199l-27 -144h-197l-50 -279h196l-26 -144h-196l-46 -262h-159l46 262h-287l-46 -262h-159zM846 685h-287l-50 -279h287z" />
    <glyph glyph-name="dollar.onum.tnum" 
d="M600 -181v167q-124 17 -220.5 79.5t-148.5 158.5l156 126q77 -135 213 -169v272q-57 15 -99.5 30.5t-87 41t-72.5 57t-46 79t-18 105.5q0 88 46.5 157t118 106t158.5 48v156h160v-160q106 -18 191.5 -74.5t134.5 -135.5l-141 -121q-74 107 -185 137v-260
q174 -45 260 -116t86 -206q0 -68 -30 -125t-80.5 -95t-110 -61t-125.5 -32v-165h-160zM488 769q0 -39 26 -63t86 -45v224q-52 -12 -82 -43t-30 -73zM760 177q53 10 92 40.5t39 79.5q0 27 -11 47t-32.5 33.5t-40.5 21.5t-47 16v-238z" />
    <glyph glyph-name="Euro.onum.tnum" 
d="M307 581h-129v114h144q37 179 152.5 283.5t293.5 104.5q138 0 244.5 -69t153.5 -196l-177 -87q-36 78 -94 119t-127 41q-80 0 -139.5 -51.5t-87.5 -144.5h357v-114h-377q-2 -58 -2 -66h379v-113h-365q25 -106 87 -165.5t148 -59.5q73 0 132 43.5t89 123.5l182 -93
q-45 -126 -155 -196t-248 -70q-186 0 -304 114t-148 303h-138v113h128v19q0 37 1 47z" />
    <glyph glyph-name="yen.onum.tnum" 
d="M314 504h205l-376 563h236l296 -448l302 448h230l-376 -563h205v-115h-262v-106h250v-115h-250v-168h-197v168h-252v115h252v106h-263v115z" />
    <glyph glyph-name="sterling.onum.tnum" 
d="M267 0v164q76 44 110 88.5t34 111.5v106h-140v162h138v118q0 153 98 243.5t253 90.5q126 0 219.5 -69.5t134.5 -189.5l-170 -87q-65 155 -186 155q-68 0 -106.5 -41t-38.5 -113v-107h282v-162h-281v-83q0 -125 -57 -202h511v-185h-801z" />
    <glyph glyph-name="currency.onum.tnum" 
d="M332 733l-171 169l147 147l169 -170q94 53 196 53q105 0 200 -53l168 170l147 -147l-170 -169q52 -89 52 -193q0 -110 -57 -198l175 -173l-147 -147l-175 177q-93 -48 -193 -48q-98 0 -188 48l-177 -177l-147 147l174 173q-54 92 -54 198q0 104 51 193zM672 766
q-93 0 -158 -66.5t-65 -159.5q0 -91 66 -155.5t157 -64.5q94 0 162 63.5t68 156.5q0 95 -67 160.5t-163 65.5z" />
    <glyph glyph-name="florin.onum.tnum" 
d="M148 -127l38 172q59 -27 133 -27q184 0 208 203l43 364h-182l22 176h184l13 108q20 179 124 273.5t276 94.5q108 0 179 -34l-38 -172q-59 27 -133 27q-183 0 -209 -209l-11 -88h282l-22 -176h-279l-48 -376q-23 -180 -126.5 -275t-274.5 -95q-108 0 -179 34z" />
    <glyph glyph-name="cent.onum.tnum" 
d="M205 559q0 189 122.5 326.5t310.5 166.5v169h131v-165q125 -11 226.5 -79t163.5 -182l-153 -104q-38 71 -100.5 117.5t-136.5 59.5v-620q153 25 240 176l149 -105q-61 -109 -163 -177t-226 -81v-181h-131v183q-190 25 -311.5 165t-121.5 331zM638 253v610
q-108 -26 -170.5 -109t-62.5 -195q0 -111 63.5 -195.5t169.5 -110.5z" />
    <glyph glyph-name="mu.onum.tnum" 
d="M229 -400v1361h199v-571q7 -105 67.5 -163.5t162.5 -58.5q116 0 190.5 68t74.5 183v541h198v-960h-199v121q-30 -46 -94 -88q-78 -53 -201 -53q-131 0 -199 61v-441h-199z" />
    <glyph glyph-name="pi.onum.tnum" 
d="M52 889v198h1204v-198h-190v-585q0 -81 30 -110.5t111 -29.5q26 0 44 3v-181q-27 -6 -78 -6q-302 0 -302 299v610h-427v-889h-195v889h-197z" />
    <glyph glyph-name="degree.onum.tnum" 
d="M674 478q-157 0 -256.5 96t-99.5 252q0 158 98.5 255t257.5 97q160 0 259.5 -96.5t99.5 -255.5q0 -158 -100 -253t-259 -95zM472 825q0 -91 55.5 -148.5t146.5 -57.5t145.5 57t54.5 149q0 94 -53.5 153t-146.5 59q-92 0 -147 -59.5t-55 -152.5z" />
    <glyph glyph-name="ordmasculine.onum.tnum" 
d="M353 866q0 139 91 225.5t230 86.5q141 0 232 -86t91 -226q0 -139 -91.5 -223.5t-231.5 -84.5q-139 0 -230 85t-91 223zM506 865q0 -74 46.5 -120t121.5 -46q74 0 119.5 46t45.5 120q0 77 -46 124.5t-119 47.5q-75 0 -121.5 -47.5t-46.5 -124.5zM363 315v140h624v-140
h-624z" />
    <glyph glyph-name="ordfeminine.onum.tnum" 
d="M632 552q-97 0 -166.5 46.5t-69.5 137.5q0 51 25 89.5t66 60t86.5 32t92.5 10.5q82 0 147 -27v30q0 54 -42 89t-108 35q-97 0 -171 -80l-83 87q44 54 114.5 86t141.5 32q121 0 200.5 -60.5t79.5 -177.5v-378h-130v78q-27 -42 -75.5 -66t-107.5 -24zM532 740
q0 -36 33.5 -58t85.5 -22q64 0 113 38t49 100q-56 29 -144 29q-62 0 -99.5 -22.5t-37.5 -64.5zM950 457v-140h-554v140h554z" />
    <glyph glyph-name="A.smcp" horiz-adv-x="1101" 
d="M312 193l-76 -193h-211l412 1000h227l412 -1000h-211l-76 193h-477zM550 798l-173 -441h347z" />
    <glyph glyph-name="B.smcp" horiz-adv-x="1018" 
d="M614 0h-467v1000h440q134 0 223.5 -79t89.5 -211q0 -56 -31 -111.5t-79 -78.5q62 -25 104.5 -89t42.5 -132q0 -134 -94 -216.5t-229 -82.5zM342 832v-241h242q50 0 85.5 34t35.5 84q0 51 -33.5 87t-87.5 36h-242zM609 423h-267v-255h267q56 0 94.5 37t38.5 93
q0 55 -39 90t-94 35z" />
    <glyph glyph-name="C.smcp" horiz-adv-x="1108" 
d="M599 -20q-217 0 -367.5 151t-150.5 370q0 143 66.5 262t185 188t263.5 69q142 0 264 -70t192 -193l-152 -105q-116 185 -304 185q-142 0 -230 -96.5t-88 -239.5q0 -142 90 -240.5t231 -98.5q192 0 302 182l150 -102q-76 -122 -194 -192t-258 -70z" />
    <glyph glyph-name="D.smcp" horiz-adv-x="1156" 
d="M147 0v1000h412q145 0 262.5 -62.5t185 -177.5t67.5 -261q0 -220 -146.5 -359.5t-368.5 -139.5h-412zM342 832v-661h215q141 0 230.5 93t89.5 235t-89.5 237.5t-230.5 95.5h-215z" />
    <glyph glyph-name="E.smcp" horiz-adv-x="966" 
d="M882 0h-735v1000h720v-167h-525v-240h451v-168h-451v-257h540v-168z" />
    <glyph glyph-name="F.smcp" horiz-adv-x="929" 
d="M342 0h-195v1000h720v-168h-525v-241h412v-168h-412v-423z" />
    <glyph glyph-name="G.smcp" horiz-adv-x="1163" 
d="M600 -20q-104 -2 -201 39t-167.5 111.5t-111.5 168t-39 202.5q-3 140 66.5 261t190 191t259.5 67q142 0 258.5 -64t188.5 -183l-147 -112q-116 176 -300 176q-142 0 -230.5 -96t-88.5 -240q0 -143 90 -241t232 -98q103 0 182.5 59t100.5 158h-341v163h540q4 -55 4 -74
q0 -213 -136.5 -350.5t-349.5 -137.5z" />
    <glyph glyph-name="H.smcp" horiz-adv-x="1186" 
d="M147 0v1000h195v-406h502v406h195v-1000h-195v426h-502v-426h-195z" />
    <glyph glyph-name="I.smcp" horiz-adv-x="489" 
d="M147 1000h195v-1000h-195v1000z" />
    <glyph glyph-name="J.smcp" horiz-adv-x="828" 
d="M339 -20q-96 0 -179 44t-140 124l125 127q92 -116 197 -116q75 0 115 52.5t40 148.5v640h195v-650q0 -170 -92.5 -270t-260.5 -100z" />
    <glyph glyph-name="K.smcp" horiz-adv-x="1036" 
d="M342 0h-195v1000h195v-442l410 442h249l-392 -422l409 -578h-233l-311 444l-132 -138v-306z" />
    <glyph glyph-name="L.smcp" horiz-adv-x="939" 
d="M342 168h551v-168h-746v1000h195v-832z" />
    <glyph glyph-name="M.smcp" horiz-adv-x="1348" 
d="M337 0h-190v1000h210l318 -656l318 656h208v-1000h-190v614l-270 -546h-133l-271 546v-614z" />
    <glyph glyph-name="N.smcp" horiz-adv-x="1217" 
d="M337 683v-683h-190v1000h180l553 -695v695h190v-1000h-180z" />
    <glyph glyph-name="O.smcp" horiz-adv-x="1198" 
d="M1116 499q0 -227 -146 -373t-373 -146t-371 146t-144 373q0 226 144.5 373.5t370.5 147.5q227 0 373 -147t146 -374zM280 499q0 -148 85.5 -242.5t231.5 -94.5q147 0 235 94.5t88 242.5q0 149 -88 243.5t-235 94.5q-146 0 -231.5 -95t-85.5 -243z" />
    <glyph glyph-name="P.smcp" horiz-adv-x="971" 
d="M342 366v-366h-195v1000h419q151 0 249 -86t98 -235q0 -150 -97 -231.5t-250 -81.5h-224zM561 833h-219v-299h219q73 0 115 40t42 105q0 66 -42.5 110t-114.5 44z" />
    <glyph glyph-name="Q.smcp" horiz-adv-x="1198" 
d="M597 -20q-227 0 -371 146t-144 373q0 226 144.5 373.5t370.5 147.5q227 0 373 -147t146 -374q0 -123 -45.5 -226t-130.5 -173l103 -138l-142 -105l-115 155q-90 -32 -189 -32zM280 499q0 -148 85.5 -242.5t231.5 -94.5q43 0 72 7l-125 167l143 102l139 -186q94 91 94 247
q0 149 -88 243.5t-235 94.5q-146 0 -231.5 -95t-85.5 -243z" />
    <glyph glyph-name="R.smcp" horiz-adv-x="1038" 
d="M147 0v1000h438q154 0 251 -81t97 -232q0 -96 -48.5 -169t-135.5 -112l238 -406h-221l-216 382h-208v-382h-195zM579 833h-237v-283h237q74 0 115.5 38.5t41.5 101.5q0 67 -41 105t-116 38z" />
    <glyph glyph-name="S.smcp" horiz-adv-x="952" 
d="M76 231l155 97q95 -176 259 -176q79 0 130 32t51 83q0 44 -44 77q-46 33 -158 76q-145 57 -194 84q-148 82 -148 235q0 54 21 100.5t56 79t81 56t96 34.5t101 11q119 0 221.5 -56.5t161.5 -158.5l-144 -107q-38 66 -102.5 108t-136.5 42t-115.5 -29t-43.5 -79
q0 -31 26.5 -57.5t63.5 -43.5q25 -13 112 -47l15 -6q186 -74 256 -138q71 -66 71 -173q0 -58 -22 -107t-59.5 -83t-86.5 -58t-102 -35.5t-107 -11.5q-147 0 -255 72q-109 72 -159 179z" />
    <glyph glyph-name="T.smcp" horiz-adv-x="921" 
d="M364 833h-322v167h837v-167h-320v-833h-195v833z" />
    <glyph glyph-name="U.smcp" horiz-adv-x="1132" 
d="M996 362q0 -182 -122 -282t-308 -100t-308 100t-122 282v638h195v-631q0 -96 63.5 -153t171.5 -57q107 0 171 57t64 153v631h195v-638z" />
    <glyph glyph-name="V.smcp" horiz-adv-x="1050" 
d="M633 0h-216l-386 1000h206l288 -769l289 769h206z" />
    <glyph glyph-name="W.smcp" horiz-adv-x="1546" 
d="M322 0l-282 1000h197l224 -789l215 774h195l215 -774l223 789h197l-281 -1000h-273l-179 647l-180 -647h-271z" />
    <glyph glyph-name="X.smcp" horiz-adv-x="1031" 
d="M262 0h-239l363 509l-345 491h238l236 -340l237 340h238l-351 -489l370 -511h-239l-255 356z" />
    <glyph glyph-name="Y.smcp" horiz-adv-x="1014" 
d="M412 379l-382 621h227l249 -415l251 415h227l-382 -622v-378h-190v379z" />
    <glyph glyph-name="Z.smcp" horiz-adv-x="966" 
d="M84 0v137l538 695h-538v168h798v-138l-538 -694h538v-168h-798z" />
    <glyph glyph-name="ampersand.smcp" horiz-adv-x="1064" 
d="M453 -20q-166 0 -272 82q-107 83 -107 212q0 164 201 261q-110 107 -110 215q0 126 88 198t217 72q124 0 211 -68t87 -188q0 -154 -228 -266l201 -191q20 53 20.5 120.5t-15.5 119.5h168q31 -223 -52 -347q50 -48 103.5 -100t78 -75.5t31.5 -30.5h-237l-88 85
q-136 -99 -297 -99zM337 754q0 -41 20.5 -73t73.5 -80q91 40 128.5 76.5t37.5 85.5q0 48 -35 77t-90 29q-57 0 -96 -31t-39 -84zM634 187l-259 239q-127 -58 -127 -152q0 -47 35.5 -80t80 -45.5t90.5 -12.5q104 0 180 51z" />
    <glyph glyph-name="Agrave.smcp" horiz-adv-x="1101" 
d="M462 1156l-203 334h222l152 -334h-171zM236 0h-211l412 1000h227l412 -1000h-211l-76 193h-477zM724 357l-174 441l-173 -441h347z" />
    <glyph glyph-name="Aacute.smcp" horiz-adv-x="1101" 
d="M649 1153h-171l152 334h222zM312 193l-76 -193h-211l412 1000h227l412 -1000h-211l-76 193h-477zM724 357l-174 441l-173 -441h347z" />
    <glyph glyph-name="Acircumflex.smcp" horiz-adv-x="1101" 
d="M551 1312l-135 -187h-189l287 370h74l287 -370h-189zM236 0h-211l412 1000h227l412 -1000h-211l-76 193h-477zM724 357l-174 441l-173 -441h347z" />
    <glyph glyph-name="Adotbelow.smcp" horiz-adv-x="1101" 
d="M312 193l-76 -193h-211l412 1000h227l412 -1000h-211l-76 193h-477zM724 357l-174 441l-173 -441h347zM550 -404q-54 0 -88 34t-34 88t34 88t88 34q55 0 89 -33.5t34 -88.5t-34 -88.5t-89 -33.5z" />
    <glyph glyph-name="Atilde.smcp" horiz-adv-x="1101" 
d="M313 1205l-103 87q96 160 217 160q40 1 84 -20t83.5 -42t68.5 -20q42 0 71 18t62 64l95 -95q-49 -80 -101.5 -114.5t-128.5 -34.5q-37 -2 -80.5 18t-81.5 40t-61 19q-28 0 -52 -12.5t-37.5 -26.5t-35.5 -41zM236 0h-211l412 1000h227l412 -1000h-211l-76 193h-477z
M550 798l-173 -441h347z" />
    <glyph glyph-name="Adieresis.smcp" horiz-adv-x="1101" 
d="M727 1196q-54 0 -88 34t-34 88t34 88t88 34q55 0 89 -33.5t34 -88.5t-34 -88.5t-89 -33.5zM497 1318q0 -55 -34 -88.5t-89 -33.5q-54 0 -88 34t-34 88t34 88t88 34q55 0 89 -33.5t34 -88.5zM312 193l-76 -193h-211l412 1000h227l412 -1000h-211l-76 193h-477zM550 798
l-173 -441h347z" />
    <glyph glyph-name="Amacron.smcp" horiz-adv-x="1101" 
d="M846 1234h-591v144h591v-144zM236 0h-211l412 1000h227l412 -1000h-211l-76 193h-477zM724 357l-174 441l-173 -441h347z" />
    <glyph glyph-name="Abreve.smcp" horiz-adv-x="1101" 
d="M274 1458h161q7 -61 38 -97t78 -36q50 0 81 36t35 97h161q-6 -125 -79.5 -201.5t-197.5 -76.5q-123 0 -196.5 76.5t-80.5 201.5zM312 193l-76 -193h-211l412 1000h227l412 -1000h-211l-76 193h-477zM550 798l-173 -441h347z" />
    <glyph glyph-name="Aring.smcp" horiz-adv-x="1101" 
d="M345 1330q0 90 57.5 144t148.5 54t148.5 -54t57.5 -144q0 -89 -58 -142t-148 -53t-148 53t-58 142zM551 1416q-39 0 -62.5 -24t-23.5 -63q0 -36 23.5 -58.5t62.5 -22.5q38 0 61.5 22.5t23.5 58.5q0 39 -23.5 63t-61.5 24zM312 193l-76 -193h-211l412 1000h227l412 -1000
h-211l-76 193h-477zM550 798l-173 -441h347z" />
    <glyph glyph-name="Aringacute.smcp" horiz-adv-x="1101" 
d="M864 1935l-203 -334h-171l152 334h222zM343 1330q0 90 57.5 144t148.5 54t148.5 -54t57.5 -144q0 -89 -58 -142t-148 -53t-148 53t-58 142zM549 1416q-39 0 -62.5 -24t-23.5 -63q0 -36 23.5 -58.5t62.5 -22.5q38 0 61.5 22.5t23.5 58.5q0 39 -23.5 63t-61.5 24zM312 193
l-76 -193h-211l412 1000h227l412 -1000h-211l-76 193h-477zM724 357l-174 441l-173 -441h347z" />
    <glyph glyph-name="Aogonek.smcp" horiz-adv-x="1101" 
d="M236 0h-211l412 1000h227l412 -1000h-37q-191 -129 -191 -219q0 -36 26 -56.5t72 -20.5q58 0 114 27l45 -140q-78 -48 -186 -48q-112 0 -176 51t-64 140q0 142 186 266l-76 193h-477zM724 357l-174 441l-173 -441h347z" />
    <glyph glyph-name="AE.smcp" horiz-adv-x="1522" 
d="M312 193l-118 -193h-210l630 1000h809v-167h-525v-240h451v-168h-451v-257h540v-168h-735v193h-391zM703 357v474l-290 -474h290z" />
    <glyph glyph-name="AEacute.smcp" horiz-adv-x="1522" 
d="M1073 1153h-171l152 334h222zM194 0h-210l630 1000h809v-167h-525v-240h451v-168h-451v-257h540v-168h-735v193h-391zM703 357v474l-290 -474h290z" />
    <glyph glyph-name="Cacute.smcp" horiz-adv-x="1108" 
d="M689 1153h-171l152 334h222zM599 -20q-104 -2 -200.5 39t-167 111.5t-111.5 168t-39 202.5q-3 140 66.5 261t189.5 191t259 67q142 0 264 -70t192 -193l-152 -105q-116 185 -304 185q-142 0 -230 -96.5t-88 -239.5q0 -142 90 -240.5t231 -98.5q192 0 302 182l150 -102
q-76 -122 -194 -192t-258 -70z" />
    <glyph glyph-name="Ccircumflex.smcp" horiz-adv-x="1108" 
d="M464 1125h-189l287 370h74l287 -370h-189l-135 187zM599 -20q-104 -2 -200.5 39t-167 111.5t-111.5 168t-39 202.5q-3 140 66.5 261t189.5 191t259 67q142 0 264 -70t192 -193l-152 -105q-116 185 -304 185q-142 0 -230 -96.5t-88 -239.5q0 -142 90 -240.5t231 -98.5
q192 0 302 182l150 -102q-76 -122 -194 -192t-258 -70z" />
    <glyph glyph-name="Ccaron.smcp" horiz-adv-x="1108" 
d="M559 1133l-287 370h189l135 -187l135 187h189l-287 -370h-74zM599 -20q-217 0 -367.5 151t-150.5 370q0 143 66.5 262t185 188t263.5 69q142 0 264 -70t192 -193l-152 -105q-116 185 -304 185q-142 0 -230 -96.5t-88 -239.5q0 -142 90 -240.5t231 -98.5q192 0 302 182
l150 -102q-76 -122 -194 -192t-258 -70z" />
    <glyph glyph-name="Cdotaccent.smcp" horiz-adv-x="1108" 
d="M598 1197q-54 0 -88 34t-34 88t34 88t88 34q55 0 89 -33.5t34 -88.5t-34 -88.5t-89 -33.5zM599 -20q-217 0 -367.5 151t-150.5 370q0 143 66.5 262t185 188t263.5 69q142 0 264 -70t192 -193l-152 -105q-116 185 -304 185q-142 0 -230 -96.5t-88 -239.5q0 -142 90 -240.5
t231 -98.5q192 0 302 182l150 -102q-76 -122 -194 -192t-258 -70z" />
    <glyph glyph-name="Ccedilla.smcp" horiz-adv-x="1108" 
d="M442 -190l69 177q-189 32 -309.5 176.5t-120.5 337.5q-3 140 66.5 261t189.5 191t259 67q142 0 264 -70t192 -193l-152 -105q-116 185 -304 185q-142 0 -230 -96.5t-88 -239.5q0 -142 90 -240.5t231 -98.5q192 0 302 182l150 -102q-71 -117 -181.5 -185t-239.5 -76
l-22 -72q96 -8 150.5 -53t54.5 -118q0 -91 -73.5 -143t-203.5 -52q-101 0 -169 35l35 123q57 -26 123 -26q116 0 116 66q0 69 -130 69h-69z" />
    <glyph glyph-name="Dcaron.smcp" horiz-adv-x="1156" 
d="M492 1133l-287 370h189l135 -187l135 187h189l-287 -370h-74zM147 0v1000h412q145 0 262.5 -62.5t185 -177.5t67.5 -261q0 -220 -146.5 -359.5t-368.5 -139.5h-412zM557 832h-215v-661h215q141 0 230.5 93t89.5 235t-89.5 237.5t-230.5 95.5z" />
    <glyph glyph-name="Dcroat.smcp" horiz-adv-x="1173" 
d="M52 429v164h112v407h412q145 0 262.5 -62.5t185 -177.5t67.5 -261q0 -220 -146.5 -359.5t-368.5 -139.5h-412v429h-112zM359 832v-239h308v-164h-308v-258h215q141 0 230.5 93t89.5 235t-89.5 237.5t-230.5 95.5h-215z" />
    <glyph glyph-name="Eth.smcp" horiz-adv-x="1173" 
d="M52 429v164h112v407h412q145 0 262.5 -62.5t185 -177.5t67.5 -261q0 -220 -146.5 -359.5t-368.5 -139.5h-412v429h-112zM359 832v-239h308v-164h-308v-258h215q141 0 230.5 93t89.5 235t-89.5 237.5t-230.5 95.5h-215z" />
    <glyph glyph-name="Egrave.smcp" horiz-adv-x="966" 
d="M445 1156l-203 334h222l152 -334h-171zM882 0h-735v1000h720v-167h-525v-240h451v-168h-451v-257h540v-168z" />
    <glyph glyph-name="Eacute.smcp" horiz-adv-x="966" 
d="M602 1153h-171l152 334h222zM882 168v-168h-735v1000h720v-167h-525v-240h451v-168h-451v-257h540z" />
    <glyph glyph-name="Ecircumflex.smcp" horiz-adv-x="966" 
d="M503 1312l-135 -187h-189l287 370h74l287 -370h-189zM147 0v1000h720v-167h-525v-240h451v-168h-451v-257h540v-168h-735z" />
    <glyph glyph-name="Ecaron.smcp" horiz-adv-x="966" 
d="M546 1133h-74l-287 370h189l135 -187l135 187h189zM147 0v1000h720v-167h-525v-240h451v-168h-451v-257h540v-168h-735z" />
    <glyph glyph-name="Edieresis.smcp" horiz-adv-x="966" 
d="M684 1196q-54 0 -88 34t-34 88t34 88t88 34q55 0 89 -33.5t34 -88.5t-34 -88.5t-89 -33.5zM454 1318q0 -55 -34 -88.5t-89 -33.5q-54 0 -88 34t-34 88t34 88t88 34q55 0 89 -33.5t34 -88.5zM147 0v1000h720v-167h-525v-240h451v-168h-451v-257h540v-168h-735z" />
    <glyph glyph-name="Etilde.smcp" horiz-adv-x="966" 
d="M266 1205l-103 87q96 160 217 160q40 1 84 -20t83.5 -42t68.5 -20q42 0 71 18t62 64l95 -95q-49 -80 -101.5 -114.5t-128.5 -34.5q-37 -2 -80.5 18t-81.5 40t-61 19q-28 0 -52 -12.5t-37.5 -26.5t-35.5 -41zM882 0h-735v1000h720v-167h-525v-240h451v-168h-451v-257h540
v-168z" />
    <glyph glyph-name="Emacron.smcp" horiz-adv-x="966" 
d="M801 1378v-144h-591v144h591zM882 168v-168h-735v1000h720v-167h-525v-240h451v-168h-451v-257h540z" />
    <glyph glyph-name="Ebreve.smcp" horiz-adv-x="966" 
d="M236 1458h161q7 -61 38 -97t78 -36q50 0 81 36t35 97h161q-6 -125 -79.5 -201.5t-197.5 -76.5q-123 0 -196.5 76.5t-80.5 201.5zM882 168v-168h-735v1000h720v-167h-525v-240h451v-168h-451v-257h540z" />
    <glyph glyph-name="Edotaccent.smcp" horiz-adv-x="966" 
d="M520 1197q-54 0 -88 34t-34 88t34 88t88 34q55 0 89 -33.5t34 -88.5t-34 -88.5t-89 -33.5zM147 0v1000h720v-167h-525v-240h451v-168h-451v-257h540v-168h-735z" />
    <glyph glyph-name="Edotbelow.smcp" horiz-adv-x="966" 
d="M147 0v1000h720v-167h-525v-240h451v-168h-451v-257h540v-168h-735zM540 -404q-54 0 -88 34t-34 88t34 88t88 34q55 0 89 -33.5t34 -88.5t-34 -88.5t-89 -33.5z" />
    <glyph glyph-name="Eogonek.smcp" horiz-adv-x="966" 
d="M707 0h-560v1000h720v-167h-525v-240h451v-168h-451v-257h540v-168q-191 -129 -191 -219q0 -36 26 -56.5t72 -20.5q59 0 114 27l45 -140q-78 -48 -186 -48q-112 0 -176 51t-64 140q0 140 185 266z" />
    <glyph glyph-name="Schwa.smcp" horiz-adv-x="1162" 
d="M563 -20q-109 0 -202.5 40t-155.5 110q-128 144 -128 345q0 42 5 82h804q-16 130 -104 207t-219 77q-179 0 -297 -160l-139 106q77 110 191.5 171.5t244.5 61.5q144 2 264.5 -67t188 -189.5t64.5 -262.5q2 -141 -67.5 -262.5t-190 -191.5t-259.5 -67zM876 403h-599
q7 -96 85 -171q76 -73 201 -73q116 0 203 66t110 178z" />
    <glyph glyph-name="Gcircumflex.smcp" horiz-adv-x="1163" 
d="M600 1312l-135 -187h-189l287 370h74l287 -370h-189zM600 -20q-104 -2 -201 39t-167.5 111.5t-111.5 168t-39 202.5q-3 140 66.5 261t190 191t259.5 67q142 0 258.5 -64t188.5 -183l-147 -112q-116 176 -300 176q-142 0 -230.5 -96t-88.5 -240q0 -143 90 -241t232 -98
q103 0 182.5 59t100.5 158h-341v163h540q4 -55 4 -74q0 -213 -136.5 -350.5t-349.5 -137.5z" />
    <glyph glyph-name="Gbreve.smcp" horiz-adv-x="1163" 
d="M874 1458q-6 -125 -79.5 -201.5t-197.5 -76.5q-123 0 -196.5 76.5t-80.5 201.5h161q7 -61 38 -97t78 -36q50 0 81 36t35 97h161zM600 -20q-104 -2 -201 39t-167.5 111.5t-111.5 168t-39 202.5q-3 140 66.5 261t190 191t259.5 67q142 0 258.5 -64t188.5 -183l-147 -112
q-116 176 -300 176q-142 0 -230.5 -96t-88.5 -240q0 -143 90 -241t232 -98q103 0 182.5 59t100.5 158h-341v163h540q4 -55 4 -74q0 -213 -136.5 -350.5t-349.5 -137.5z" />
    <glyph glyph-name="Gcaron.smcp" horiz-adv-x="1163" 
d="M633 1133h-74l-287 370h189l135 -187l135 187h189zM600 -20q-104 -2 -201 39t-167.5 111.5t-111.5 168t-39 202.5q-3 140 66.5 261t190 191t259.5 67q142 0 258.5 -64t188.5 -183l-147 -112q-116 176 -300 176q-142 0 -230.5 -96t-88.5 -240q0 -143 90 -241t232 -98
q103 0 182.5 59t100.5 158h-341v163h540q4 -55 4 -74q0 -213 -136.5 -350.5t-349.5 -137.5z" />
    <glyph glyph-name="Gdotaccent.smcp" horiz-adv-x="1163" 
d="M607 1197q-54 0 -88 34t-34 88t34 88t88 34q55 0 89 -33.5t34 -88.5t-34 -88.5t-89 -33.5zM600 -20q-104 -2 -201 39t-167.5 111.5t-111.5 168t-39 202.5q-3 140 66.5 261t190 191t259.5 67q142 0 258.5 -64t188.5 -183l-147 -112q-116 176 -300 176q-142 0 -230.5 -96
t-88.5 -240q0 -143 90 -241t232 -98q103 0 182.5 59t100.5 158h-341v163h540q4 -55 4 -74q0 -213 -136.5 -350.5t-349.5 -137.5z" />
    <glyph glyph-name="Gcommaaccent.smcp" horiz-adv-x="1163" 
d="M600 -20q-104 -2 -201 39t-167.5 111.5t-111.5 168t-39 202.5q-3 140 66.5 261t190 191t259.5 67q142 0 258.5 -64t188.5 -183l-147 -112q-116 176 -300 176q-142 0 -230.5 -96t-88.5 -240q0 -143 90 -241t232 -98q103 0 182.5 59t100.5 158h-341v163h540q4 -55 4 -74
q0 -213 -136.5 -350.5t-349.5 -137.5zM706 -116l-55 -402h-166l14 402h207z" />
    <glyph glyph-name="Hcircumflex.smcp" horiz-adv-x="1186" 
d="M593 1312l-135 -187h-189l287 370h74l287 -370h-189zM342 0h-195v1000h195v-406h502v406h195v-1000h-195v426h-502v-426z" />
    <glyph glyph-name="Hbar.smcp" horiz-adv-x="1238" 
d="M1065 1000v-119h118v-145h-118v-736h-195v426h-502v-426h-195v736h-118v145h118v119h195v-119h502v119h195zM870 594v142h-502v-142h502z" />
    <glyph glyph-name="Igrave.smcp" horiz-adv-x="489" 
d="M339 1156h-171l-203 334h222zM147 1000h195v-1000h-195v1000z" />
    <glyph glyph-name="Iacute.smcp" horiz-adv-x="489" 
d="M317 1487h222l-203 -334h-171zM147 1000h195v-1000h-195v1000z" />
    <glyph glyph-name="Ibreve.smcp" horiz-adv-x="489" 
d="M-32 1458h161q7 -61 38 -97t78 -36q50 0 81 36t35 97h161q-6 -125 -79.5 -201.5t-197.5 -76.5q-123 0 -196.5 76.5t-80.5 201.5zM342 1000v-1000h-195v1000h195z" />
    <glyph glyph-name="Icircumflex.smcp" horiz-adv-x="489" 
d="M110 1125h-189l287 370h74l287 -370h-189l-135 187zM147 0v1000h195v-1000h-195z" />
    <glyph glyph-name="Itilde.smcp" horiz-adv-x="489" 
d="M7 1205l-103 87q96 160 217 160q40 1 84 -20t83.5 -42t68.5 -20q42 0 71 18t62 64l95 -95q-49 -80 -101.5 -114.5t-128.5 -34.5q-37 -2 -80.5 18t-81.5 40t-61 19q-28 0 -52 -12.5t-37.5 -26.5t-35.5 -41zM342 1000v-1000h-195v1000h195z" />
    <glyph glyph-name="Idieresis.smcp" horiz-adv-x="489" 
d="M420 1196q-54 0 -88 34t-34 88t34 88t88 34q55 0 89 -33.5t34 -88.5t-34 -88.5t-89 -33.5zM190 1318q0 -55 -34 -88.5t-89 -33.5q-54 0 -88 34t-34 88t34 88t88 34q55 0 89 -33.5t34 -88.5zM147 0v1000h195v-1000h-195z" />
    <glyph glyph-name="Imacron.smcp" horiz-adv-x="489" 
d="M-51 1378h591v-144h-591v144zM147 1000h195v-1000h-195v1000z" />
    <glyph glyph-name="Idotaccent.smcp" horiz-adv-x="489" 
d="M250 1197q-54 0 -88 34t-34 88t34 88t88 34q55 0 89 -33.5t34 -88.5t-34 -88.5t-89 -33.5zM147 0v1000h195v-1000h-195z" />
    <glyph glyph-name="Iogonek.smcp" horiz-adv-x="489" 
d="M-29 -266q0 140 185 266h-9v1000h195v-1000h-11q-191 -129 -191 -219q0 -36 26 -56.5t72 -20.5q58 0 114 27l45 -140q-78 -48 -186 -48q-112 0 -176 51t-64 140z" />
    <glyph glyph-name="Idotbelow.smcp" horiz-adv-x="489" 
d="M147 0v1000h195v-1000h-195zM250 -404q-54 0 -88 34t-34 88t34 88t88 34q55 0 89 -33.5t34 -88.5t-34 -88.5t-89 -33.5z" />
    <glyph glyph-name="Jcircumflex.smcp" horiz-adv-x="828" 
d="M592 1312l-135 -187h-189l287 370h74l287 -370h-189zM339 -20q-96 0 -179 44t-140 124l125 127q92 -116 197 -116q75 0 115 52.5t40 148.5v640h195v-650q0 -170 -92.5 -270t-260.5 -100z" />
    <glyph glyph-name="Kcommaaccent.smcp" horiz-adv-x="1036" 
d="M342 0h-195v1000h195v-442l410 442h249l-392 -422l409 -578h-233l-311 444l-132 -138v-306zM649 -116l-55 -402h-166l14 402h207z" />
    <glyph glyph-name="Lacute.smcp" horiz-adv-x="939" 
d="M313 1487h222l-203 -334h-171zM342 168h551v-168h-746v1000h195v-832z" />
    <glyph glyph-name="Lcaron.smcp" horiz-adv-x="943" 
d="M342 168h551v-168h-746v1000h195v-832zM724 682h-149l6 312h190z" />
    <glyph glyph-name="Lcommaaccent.smcp" horiz-adv-x="939" 
d="M342 168h551v-168h-746v1000h195v-832zM584 -518h-166l14 402h207z" />
    <glyph glyph-name="Lslash.smcp" horiz-adv-x="1019" 
d="M422 1000v-344l263 19v-155l-263 -19v-333h551v-168h-746v487l-157 -11v155l157 11v358h195z" />
    <glyph glyph-name="Ldot.smcp" horiz-adv-x="941" 
d="M893 168v-168h-746v1000h195v-832h551zM674 375q-54 0 -88 34t-34 88t34 88t88 34q55 0 89 -33.5t34 -88.5t-34 -88.5t-89 -33.5z" />
    <glyph glyph-name="Nacute.smcp" horiz-adv-x="1217" 
d="M905 1487l-203 -334h-171l152 334h222zM337 683v-683h-190v1000h180l553 -695v695h190v-1000h-180z" />
    <glyph glyph-name="Ncaron.smcp" horiz-adv-x="1217" 
d="M572 1133l-287 370h189l135 -187l135 187h189l-287 -370h-74zM337 683v-683h-190v1000h180l553 -695v695h190v-1000h-180z" />
    <glyph glyph-name="Ntilde.smcp" horiz-adv-x="1217" 
d="M356 1205l-103 87q96 160 217 160q40 1 84 -20t83.5 -42t68.5 -20q42 0 71 18t62 64l95 -95q-49 -80 -101.5 -114.5t-128.5 -34.5q-37 -2 -80.5 18t-81.5 40t-61 19q-28 0 -52 -12.5t-37.5 -26.5t-35.5 -41zM337 683v-683h-190v1000h180l553 -695v695h190v-1000h-180z
" />
    <glyph glyph-name="Ncommaaccent.smcp" horiz-adv-x="1217" 
d="M337 683v-683h-190v1000h180l553 -695v695h190v-1000h-180zM729 -116l-55 -402h-166l14 402h207z" />
    <glyph glyph-name="Nhookleft.smcp" horiz-adv-x="1217" 
d="M-66 -397l16 163q45 -15 97 -15t76 29.5t24 94.5v1125h180l553 -695v695h190v-1000h-180l-553 683v-817q0 -139 -68.5 -212.5t-188.5 -73.5q-82 0 -146 23z" />
    <glyph glyph-name="Eng.smcp" horiz-adv-x="1217" 
d="M337 683v-683h-190v1000h180l553 -695v695h190v-1134q0 -139 -69.5 -212.5t-191.5 -73.5q-82 0 -146 23l16 163q45 -15 97 -15q49 0 72.5 29.5t23.5 94.5v147z" />
    <glyph glyph-name="Ograve.smcp" horiz-adv-x="1198" 
d="M543 1156l-203 334h222l152 -334h-171zM1116 499q0 -227 -146 -373t-373 -146t-371 146t-144 373q0 226 144.5 373.5t370.5 147.5q227 0 373 -147t146 -374zM280 499q0 -148 85.5 -242.5t231.5 -94.5q147 0 235 94.5t88 242.5q0 149 -88 243.5t-235 94.5
q-146 0 -231.5 -95t-85.5 -243z" />
    <glyph glyph-name="Oacute.smcp" horiz-adv-x="1198" 
d="M698 1153h-171l152 334h222zM597 -20q-227 0 -371 146t-144 373q0 226 144.5 373.5t370.5 147.5q227 0 373 -147t146 -374t-146 -373t-373 -146zM920 499q0 149 -88 243.5t-235 94.5q-146 0 -231.5 -95t-85.5 -243t85.5 -242.5t231.5 -94.5q147 0 235 94.5t88 242.5z" />
    <glyph glyph-name="Ocircumflex.smcp" horiz-adv-x="1198" 
d="M464 1125h-189l287 370h74l287 -370h-189l-135 187zM597 -20q-227 0 -371 146t-144 373q0 226 144.5 373.5t370.5 147.5q227 0 373 -147t146 -374t-146 -373t-373 -146zM280 499q0 -148 85.5 -242.5t231.5 -94.5q147 0 235 94.5t88 242.5q0 149 -88 243.5t-235 94.5
q-146 0 -231.5 -95t-85.5 -243z" />
    <glyph glyph-name="Otilde.smcp" horiz-adv-x="1198" 
d="M362 1205l-103 87q96 160 217 160q40 1 84 -20t83.5 -42t68.5 -20q42 0 71 18t62 64l95 -95q-49 -80 -101.5 -114.5t-128.5 -34.5q-37 -2 -80.5 18t-81.5 40t-61 19q-28 0 -52 -12.5t-37.5 -26.5t-35.5 -41zM1116 499q0 -227 -146 -373t-373 -146t-371 146t-144 373
q0 226 144.5 373.5t370.5 147.5q227 0 373 -147t146 -374zM280 499q0 -148 85.5 -242.5t231.5 -94.5q147 0 235 94.5t88 242.5q0 149 -88 243.5t-235 94.5q-146 0 -231.5 -95t-85.5 -243z" />
    <glyph glyph-name="Odieresis.smcp" horiz-adv-x="1198" 
d="M775 1196q-54 0 -88 34t-34 88t34 88t88 34q55 0 89 -33.5t34 -88.5t-34 -88.5t-89 -33.5zM545 1318q0 -55 -34 -88.5t-89 -33.5q-54 0 -88 34t-34 88t34 88t88 34q55 0 89 -33.5t34 -88.5zM597 -20q-227 0 -371 146t-144 373q0 226 144.5 373.5t370.5 147.5
q227 0 373 -147t146 -374t-146 -373t-373 -146zM280 499q0 -148 85.5 -242.5t231.5 -94.5q147 0 235 94.5t88 242.5q0 149 -88 243.5t-235 94.5q-146 0 -231.5 -95t-85.5 -243z" />
    <glyph glyph-name="Omacron.smcp" horiz-adv-x="1198" 
d="M895 1378v-144h-591v144h591zM597 -20q-227 0 -371 146t-144 373q0 226 144.5 373.5t370.5 147.5q227 0 373 -147t146 -374t-146 -373t-373 -146zM280 499q0 -148 85.5 -242.5t231.5 -94.5q147 0 235 94.5t88 242.5q0 149 -88 243.5t-235 94.5q-146 0 -231.5 -95
t-85.5 -243z" />
    <glyph glyph-name="Obreve.smcp" horiz-adv-x="1198" 
d="M322 1458h161q7 -61 38 -97t78 -36q50 0 81 36t35 97h161q-6 -125 -79.5 -201.5t-197.5 -76.5q-123 0 -196.5 76.5t-80.5 201.5zM1116 499q0 -227 -146 -373t-373 -146t-371 146t-144 373q0 226 144.5 373.5t370.5 147.5q227 0 373 -147t146 -374zM920 499
q0 149 -88 243.5t-235 94.5q-146 0 -231.5 -95t-85.5 -243t85.5 -242.5t231.5 -94.5q147 0 235 94.5t88 242.5z" />
    <glyph glyph-name="Ohungarumlaut.smcp" horiz-adv-x="1198" 
d="M1053 1487l-203 -334h-171l152 334h222zM521 1153h-171l152 334h222zM1116 499q0 -227 -146 -373t-373 -146t-371 146t-144 373q0 226 144.5 373.5t370.5 147.5q227 0 373 -147t146 -374zM920 499q0 149 -88 243.5t-235 94.5q-146 0 -231.5 -95t-85.5 -243t85.5 -242.5
t231.5 -94.5q147 0 235 94.5t88 242.5z" />
    <glyph glyph-name="Odotbelow.smcp" horiz-adv-x="1198" 
d="M1116 499q0 -227 -146 -373t-373 -146t-371 146t-144 373q0 226 144.5 373.5t370.5 147.5q227 0 373 -147t146 -374zM280 499q0 -148 85.5 -242.5t231.5 -94.5q147 0 235 94.5t88 242.5q0 149 -88 243.5t-235 94.5q-146 0 -231.5 -95t-85.5 -243zM599 -404q-54 0 -88 34
t-34 88t34 88t88 34q55 0 89 -33.5t34 -88.5t-34 -88.5t-89 -33.5z" />
    <glyph glyph-name="Oogonek.smcp" horiz-adv-x="1198" 
d="M527 -16q-202 23 -323.5 166.5t-121.5 348.5q0 226 144.5 373.5t370.5 147.5q227 0 373 -147t146 -374q0 -191 -109.5 -331t-295.5 -177q-178 -124 -178 -210q0 -36 26 -56.5t72 -20.5q59 0 114 27l45 -140q-78 -48 -186 -48q-112 0 -176 51t-64 140q0 132 163 250z
M280 499q0 -148 85.5 -242.5t231.5 -94.5q147 0 235 94.5t88 242.5q0 149 -88 243.5t-235 94.5q-146 0 -231.5 -95t-85.5 -243z" />
    <glyph glyph-name="Oslash.smcp" horiz-adv-x="1212" 
d="M879 947l163 199l130 -107l-166 -202q115 -139 115 -338q0 -227 -146 -373t-373 -146q-137 0 -250 58l-150 -184l-130 107l146 179q-131 146 -131 359q0 226 144.5 373.5t370.5 147.5q155 0 277 -73zM343 292l416 509q-71 36 -157 36q-146 0 -231.5 -95t-85.5 -243
q0 -122 58 -207zM880 683l-407 -497q57 -24 129 -24q147 0 235 94.5t88 242.5q0 103 -45 184z" />
    <glyph glyph-name="Oslashacute.smcp" horiz-adv-x="1212" 
d="M701 1155h-171l152 334h222zM879 947l163 199l130 -107l-166 -202q115 -139 115 -338q0 -227 -146 -373t-373 -146q-137 0 -249 58l-151 -184l-130 107l147 179q-132 146 -132 359q0 226 144.5 373.5t370.5 147.5q155 0 277 -73zM343 292l416 508q-68 37 -157 37
q-146 0 -231.5 -95t-85.5 -243q0 -122 58 -207zM880 682l-406 -496q57 -24 128 -24q147 0 235 94.5t88 242.5q0 103 -45 183z" />
    <glyph glyph-name="OE.smcp" horiz-adv-x="1739" 
d="M597 -14q-223 0 -369 143.5t-146 366.5q0 225 145 373t370 148q189 0 323 -122v105h720v-167h-525v-240h451v-168h-451v-257h540v-168h-735v105q-133 -119 -323 -119zM597 834q-144 0 -230.5 -95t-86.5 -241t86 -238t231 -92q147 0 235 91.5t88 238.5q0 148 -88.5 242
t-234.5 94z" />
    <glyph glyph-name="Racute.smcp" horiz-adv-x="1038" 
d="M795 1487l-203 -334h-171l152 334h222zM147 0v1000h438q154 0 251 -81t97 -232q0 -96 -48.5 -169t-135.5 -112l238 -406h-221l-216 382h-208v-382h-195zM579 833h-237v-283h237q74 0 115.5 38.5t41.5 101.5q0 67 -41 105t-116 38z" />
    <glyph glyph-name="Rcaron.smcp" horiz-adv-x="1038" 
d="M544 1133h-74l-287 370h189l135 -187l135 187h189zM342 382v-382h-195v1000h438q154 0 251 -81t97 -232q0 -96 -48.5 -169t-135.5 -112l238 -406h-221l-216 382h-208zM579 833h-237v-283h237q74 0 115.5 38.5t41.5 101.5q0 67 -41 105t-116 38z" />
    <glyph glyph-name="Rcommaaccent.smcp" horiz-adv-x="1038" 
d="M342 0h-195v1000h438q154 0 251 -81t97 -232q0 -96 -48.5 -169t-135.5 -112l238 -406h-221l-216 382h-208v-382zM579 833h-237v-283h237q74 0 115.5 38.5t41.5 101.5q0 67 -41 105t-116 38zM649 -116l-55 -402h-166l14 402h207z" />
    <glyph glyph-name="Sacute.smcp" horiz-adv-x="952" 
d="M576 1153h-171l152 334h222zM76 231l155 97q95 -176 259 -176q79 0 130 32t51 83q0 44 -44 77q-46 33 -158 76q-145 57 -194 84q-148 82 -148 235q0 54 21 100.5t56 79t81 56t96 34.5t101 11q119 0 221.5 -56.5t161.5 -158.5l-144 -107q-38 66 -102.5 108t-136.5 42
t-115.5 -29t-43.5 -79q0 -31 26.5 -57.5t63.5 -43.5q25 -13 112 -47l15 -6q186 -74 256 -138q71 -66 71 -173q0 -58 -22 -107t-59.5 -83t-86.5 -58t-102 -35.5t-107 -11.5q-147 0 -255 72q-109 72 -159 179z" />
    <glyph glyph-name="Scircumflex.smcp" horiz-adv-x="952" 
d="M490 1312l-135 -187h-189l287 370h74l287 -370h-189zM490 -20q-147 0 -255 72q-109 72 -159 179l155 97q95 -176 259 -176q79 0 130 32t51 83q0 44 -44 77q-46 33 -158 76q-145 57 -194 84q-148 82 -148 235q0 54 21 100.5t56 79t81 56t96 34.5t101 11q119 0 221.5 -56.5
t161.5 -158.5l-144 -107q-38 66 -102.5 108t-136.5 42t-115.5 -29t-43.5 -79q0 -31 26.5 -57.5t63.5 -43.5q25 -13 112 -47l15 -6q186 -74 256 -138q71 -66 71 -173q0 -58 -22 -107t-59.5 -83t-86.5 -58t-102 -35.5t-107 -11.5z" />
    <glyph glyph-name="Scaron.smcp" horiz-adv-x="952" 
d="M452 1133l-287 370h189l135 -187l135 187h189l-287 -370h-74zM490 -20q-147 0 -255 72q-109 72 -159 179l155 97q95 -176 259 -176q79 0 130 32t51 83q0 44 -44 77q-46 33 -158 76q-145 57 -194 84q-148 82 -148 235q0 54 21 100.5t56 79t81 56t96 34.5t101 11
q119 0 221.5 -56.5t161.5 -158.5l-144 -107q-38 66 -102.5 108t-136.5 42t-115.5 -29t-43.5 -79q0 -31 26.5 -57.5t63.5 -43.5q25 -13 112 -47l15 -6q186 -74 256 -138q71 -66 71 -173q0 -58 -22 -107t-59.5 -83t-86.5 -58t-102 -35.5t-107 -11.5z" />
    <glyph glyph-name="Scedilla.smcp" horiz-adv-x="952" 
d="M76 231l155 97q95 -176 259 -176q79 0 130 32t51 83q0 44 -44 77q-46 33 -158 76q-145 57 -194 84q-148 82 -148 235q0 54 21 100.5t56 79t81 56t96 34.5t101 11q119 0 221.5 -56.5t161.5 -158.5l-144 -107q-38 66 -102.5 108t-136.5 42t-115.5 -29t-43.5 -79
q0 -31 26.5 -57.5t63.5 -43.5q25 -13 112 -47l15 -6q186 -74 256 -138q71 -66 71 -173q0 -66 -28.5 -120.5t-76.5 -89.5t-106 -56.5t-121 -26.5l-22 -73q96 -8 150.5 -53t54.5 -118q0 -91 -73.5 -143t-203.5 -52q-101 0 -169 35l35 123q57 -26 123 -26q116 0 116 66
q0 69 -130 69h-69l68 175q-111 17 -202 82t-137 164z" />
    </font>
</defs>
</svg>
