<?xml version="1.0" standalone="no"?>
<!DOCTYPE svg PUBLIC "-//W3C//DTD SVG 1.1//EN" "http://www.w3.org/Graphics/SVG/1.1/DTD/svg11.dtd" >
<svg xmlns="http://www.w3.org/2000/svg" xmlns:xlink="http://www.w3.org/1999/xlink" version="1.1">
<metadata>
Created by FontForge 20170731 at Sun Sep 13 23:32:42 2020
 By Aleksey,,,
Copyright (c) 2020 by TipoType Team. All rights reserved.
</metadata>
<defs>
<font id="Mundial-BoldItalic" horiz-adv-x="1427" >
  <font-face 
    font-family="Mundial"
    font-weight="700"
    font-style="italic"
    font-stretch="normal"
    units-per-em="2048"
    panose-1="0 0 0 0 0 0 0 0 0 0"
    ascent="1638"
    descent="-410"
    x-height="960"
    cap-height="1358"
    bbox="-270 -538 2664.13 2296"
    underline-thickness="150"
    underline-position="-500"
    unicode-range="U+0008-FB04"
  />
<missing-glyph horiz-adv-x="1441" 
d="M722 776l-243 242l-97 -97l242 -240l-244 -245l97 -97l245 242l243 -242l97 97l-244 245l242 240l-97 97zM1230 0h-1018v1358h1018v-1358z" />
    <glyph glyph-name="f_f" unicode="ff" horiz-adv-x="1429" 
d="M188 0l124 703h-158l45 257h158l15 84q34 182 166.5 283t321.5 101q95 0 199 -32l-78 -256q-50 24 -121 24q-74 0 -124.5 -34t-62.5 -104l-12 -66h352l15 84q34 182 166.5 283t321.5 101q95 0 199 -32l-78 -256q-49 24 -121 24q-74 0 -124.5 -34t-62.5 -104l-12 -66h266
l-45 -257h-255l-124 -703h-315l124 703h-341l-124 -703h-315z" />
    <glyph glyph-name="fi" unicode="fi" horiz-adv-x="1288" 
d="M312 703h-158l45 257h158l15 84q32 177 155 280.5t303 103.5q91 0 189 -32l-78 -256q-43 24 -104 24q-64 0 -108 -34t-56 -104l-12 -66h246l-45 -257h-235l-124 -703h-315zM1178 1083q-76 0 -115.5 48t-26.5 124q14 76 70 124.5t133 48.5t116.5 -48t26.5 -125
q-14 -77 -70 -124.5t-134 -47.5zM1319 960l-169 -960h-315l169 960h315z" />
    <glyph glyph-name="fl" unicode="fl" horiz-adv-x="1288" 
d="M188 0l124 703h-158l45 257h158l15 84q32 177 155 280.5t303 103.5q91 0 189 -32l-78 -256q-43 24 -104 24q-64 0 -108 -34t-56 -104l-12 -66h246l-45 -257h-235l-124 -703h-315zM1398 1408l-248 -1408h-315l248 1408h315z" />
    <glyph glyph-name="f_f_i" unicode="ffi" horiz-adv-x="1944" 
d="M188 0l124 703h-158l45 257h158l15 84q34 182 166.5 283t321.5 101q95 0 199 -32l-78 -256q-50 24 -121 24q-74 0 -124.5 -34t-62.5 -104l-12 -66h352l15 84q32 177 155 280.5t303 103.5q91 0 189 -32l-78 -256q-43 24 -104 24q-64 0 -108 -34t-56 -104l-12 -66h246
l-45 -257h-235l-124 -703h-315l124 703h-341l-124 -703h-315zM1834 1083q-76 0 -115.5 48t-26.5 124q14 76 70 124.5t133 48.5t116.5 -48t26.5 -125q-14 -77 -70 -124.5t-134 -47.5zM1806 0h-315l169 960h315z" />
    <glyph glyph-name="f_f_l" unicode="ffl" horiz-adv-x="1944" 
d="M312 703h-158l45 257h158l15 84q34 182 166.5 283t321.5 101q95 0 199 -32l-78 -256q-50 24 -121 24q-74 0 -124.5 -34t-62.5 -104l-12 -66h352l15 84q32 177 155 280.5t303 103.5q91 0 189 -32l-78 -256q-43 24 -104 24q-64 0 -108 -34t-56 -104l-12 -66h246l-45 -257
h-235l-124 -703h-315l124 703h-341l-124 -703h-315zM1806 0h-315l248 1408h315z" />
    <glyph glyph-name=".notdef" horiz-adv-x="1441" 
d="M722 776l-243 242l-97 -97l242 -240l-244 -245l97 -97l245 242l243 -242l97 97l-244 245l242 240l-97 97zM1230 0h-1018v1358h1018v-1358z" />
    <glyph glyph-name="uni0000" horiz-adv-x="23" 
 />
    <glyph glyph-name="uni0000" horiz-adv-x="23" 
 />
    <glyph glyph-name="uni000D" unicode="&#xd;" horiz-adv-x="507" 
 />
    <glyph glyph-name="uni0008" horiz-adv-x="0" 
 />
    <glyph glyph-name="space" unicode=" " horiz-adv-x="469" 
 />
    <glyph glyph-name="exclam" unicode="!" horiz-adv-x="621" 
d="M498 408h-228l108 950h344zM306 -20q-74 0 -114 50q-42 50 -29 122q13 74 72 123q58 49 132 49t116 -49q42 -50 29 -123q-13 -72 -72 -122t-134 -50z" />
    <glyph glyph-name="quotedbl" unicode="&#x22;" horiz-adv-x="894" 
d="M643 1428l-143 -510h-193l37 510h299zM911 918h-192l37 510h299z" />
    <glyph glyph-name="numbersign" unicode="#" horiz-adv-x="1449" 
d="M335 312h-221l80 227h223l107 301h-223l82 226h222l103 292h255l-100 -292h240l103 292h256l-102 -292h221l-80 -226h-223l-108 -301h223l-82 -227h-221l-111 -312h-257l111 312h-241l-111 -312h-257zM1023 840h-243l-108 -301h243z" />
    <glyph glyph-name="dollar" unicode="$" horiz-adv-x="1259" 
d="M520 -176l28 161q-159 20 -271 98q-115 79 -158 209l279 180q65 -138 204 -181l46 258q-49 15 -129 46q-42 16 -59 26q-70 36 -100 65q-117 102 -84 287q30 169 181 280q152 110 337 123l28 160h131l-29 -163q272 -35 399 -285l-275 -179q-68 129 -176 167l-44 -250l2 -1
l2 -1q108 -39 159 -60q15 -6 67 -31q78 -42 107 -69q57 -54 78 -117.5t4 -153.5q-17 -95 -72.5 -174.5t-136.5 -128.5q-162 -98 -359 -109l-28 -157h-131zM772 510l-41 -232q73 6 124 34.5t58 69.5q8 43 -25 71.5t-116 56.5zM704 868l38 217q-54 -9 -90 -37.5t-43 -68.5
t15.5 -64.5t79.5 -46.5z" />
    <glyph glyph-name="percent" unicode="%" horiz-adv-x="1800" 
d="M827 735q-127 -106 -291 -106q-165 0 -253 106t-60 266q28 161 155 270q127 107 290 107q164 0 254 -107q90 -108 61 -270q-28 -159 -156 -266zM1662 86q-127 -106 -292 -106q-164 0 -252 106q-89 107 -61 266q29 162 156 270q127 107 290 107q164 0 254 -107
q89 -108 60 -270q-28 -160 -155 -266zM1585 1334l-967 -1334h-167l5 26l968 1332h165zM1286 352q-10 -64 24 -108q35 -44 99 -44t114 44q49 44 60 108q11 67 -22.5 111.5t-96.5 44.5q-65 0 -116 -45q-52 -46 -62 -111zM452 1001q-10 -65 24 -108q35 -44 99 -44t114 44
q49 43 60 108q11 67 -22 111q-34 45 -98 45q-65 0 -115 -45q-52 -46 -62 -111z" />
    <glyph glyph-name="ampersand" unicode="&#x26;" horiz-adv-x="1473" 
d="M604 -20q-146 0 -260 47.5t-175 138.5q-62 92 -41 212q39 224 363 357q-117 157 -95 287q28 166 169 261q140 95 356 95q192 0 296 -98q105 -98 76 -253q-19 -117 -139 -214q-98 -79 -227 -139l159 -180q34 34 54 79q19 42 31 122h300q-37 -232 -207 -400l247 -295h-378
l-104 114q-182 -134 -425 -134zM465 394q-11 -59 46 -102q55 -43 154 -43q109 0 194 52l-227 256q-147 -55 -167 -163zM718 996q-11 -62 64 -156q185 75 200 163q9 45 -19.5 76t-89.5 31q-60 0 -103 -31t-52 -83z" />
    <glyph glyph-name="quotesingle" unicode="'" horiz-adv-x="482" 
d="M643 1428l-143 -510h-193l37 510h299z" />
    <glyph glyph-name="parenleft" unicode="(" horiz-adv-x="685" 
d="M618 -400h-293q-106 179 -152 422q-46 244 3 558q93 522 495 980h293q-385 -477 -473 -980q-89 -505 127 -980z" />
    <glyph glyph-name="parenright" unicode=")" horiz-adv-x="685" 
d="M219 -400h-293q385 477 473 980q89 505 -127 980h293q146 -245 173 -594q14 -186 -24 -386q-92 -524 -495 -980z" />
    <glyph glyph-name="asterisk" unicode="*" horiz-adv-x="947" 
d="M461 685l-153 119l185 186l-219 74l102 190l208 -82l29 236h218l-53 -236l235 82l37 -190l-246 -74l120 -184l-195 -121l-100 199z" />
    <glyph glyph-name="plus" unicode="+" horiz-adv-x="1195" 
d="M459 151l69 391h-398l49 283h398l68 383h327l-68 -383h402l-49 -283h-402l-69 -391h-327z" />
    <glyph glyph-name="comma" unicode="," horiz-adv-x="562" 
d="M-29 -263l228 516h312l-284 -516h-256z" />
    <glyph glyph-name="hyphen" unicode="-" horiz-adv-x="954" 
d="M231 668h729l-43 -244h-729z" />
    <glyph glyph-name="period" unicode="." horiz-adv-x="514" 
d="M253 -20q-74 0 -114 50q-42 50 -29 122q14 74 72 123t132 49t116 -49q42 -50 29 -123q-13 -72 -72 -122t-134 -50z" />
    <glyph glyph-name="slash" unicode="/" horiz-adv-x="1131" 
d="M1066 1529h311l-1111 -1929h-310z" />
    <glyph glyph-name="zero" unicode="0" horiz-adv-x="1310" 
d="M652 -20q-117 0 -206.5 34.5t-143.5 97t-85 148.5t-31.5 189.5t17.5 219.5q53 302 222 499q85 100 207 155t267 55q101 0 181 -27.5t133 -77t87.5 -115t48.5 -146t12.5 -166t-17.5 -177.5q-53 -299 -221 -488q-85 -96 -206 -148.5t-265 -52.5zM530 680
q-15 -86 -15 -157.5t17 -131t60.5 -93t110.5 -33.5t123 35.5t93.5 97t62.5 131.5t39 151q15 86 15 157.5t-17.5 130.5t-60.5 92t-109 33q-68 0 -124 -35.5t-93.5 -96t-62.5 -130.5t-39 -151z" />
    <glyph glyph-name="one" unicode="1" horiz-adv-x="794" 
d="M631 0h-329l190 1075h-279l49 283h608z" />
    <glyph glyph-name="two" unicode="2" horiz-adv-x="1163" 
d="M1085 0h-985l21 120q19 132 174 280q39 39 94 82q56 44 95 71l36 26q37 26 59 41q18 12 32 22q22 15 46 31.5t27 18.5l12 9t21.5 15.5t26.5 19.5q45 32 62 49q66 66 79 95q12 25 16 49q13 74 -28 120.5t-120 46.5q-73 0 -146.5 -53.5t-128.5 -143.5l-236 122
q73 132 207 237q71 55 164.5 87.5t193.5 32.5q234 0 352 -121t83 -324q-15 -80 -72 -167q-38 -58 -134 -141q-35 -30 -84 -65q-62 -45 -85 -59q-51 -34 -90 -59q-7 -4 -15 -9.5t-13 -9t-9 -5.5q-163 -106 -182 -136h577z" />
    <glyph glyph-name="three" unicode="3" horiz-adv-x="1165" 
d="M571 -20q-186 0 -301 94q-116 94 -149 250l265 132q57 -195 238 -195q77 0 135 43q59 42 69 105q13 73 -32.5 115t-137.5 42h-203l42 241h203q76 0 138 44q61 43 72 109q10 60 -32 98.5t-119 38.5q-169 0 -280 -177l-222 122q74 130 209 227q150 109 351 109
q221 0 336 -112q116 -113 84 -295q-17 -94 -78.5 -165.5t-153.5 -110.5q83 -37 123.5 -117t22.5 -183q-33 -185 -193 -300t-387 -115z" />
    <glyph glyph-name="four" unicode="4" horiz-adv-x="1213" 
d="M714 340h-621l40 227l693 791h377l-132 -750h197l-47 -268h-197l-60 -340h-310zM828 988l-332 -380h265z" />
    <glyph glyph-name="five" unicode="5" horiz-adv-x="1159" 
d="M105 313l285 138q28 -92 82.5 -140t129.5 -48q89 0 159 55q71 56 84 136q16 85 -32 140q-50 53 -139 53q-134 0 -232 -111l-216 102l204 720h818l-49 -283h-554l-68 -239q23 19 81 35q55 16 122 16q214 0 320 -118t71 -317q-37 -210 -207 -341t-409 -131
q-180 0 -294 87.5t-156 245.5z" />
    <glyph glyph-name="six" unicode="6" horiz-adv-x="1239" 
d="M636 -20q-113 0 -200.5 33t-140.5 91t-84 137.5t-32.5 173t14.5 197.5q64 364 273 565q208 201 524 201q109 0 189 -19t156 -62l-111 -258q-123 66 -259 66q-137 0 -243 -64q-117 -72 -161 -241q46 50 129 83q84 32 176 32q195 0 311 -108q58 -54 80.5 -141.5t4.5 -196.5
q-40 -225 -213 -357q-172 -132 -413 -132zM602 598q-69 -56 -86 -144q-16 -87 35 -144q49 -57 138 -57q87 0 157 57q69 56 86 144q16 86 -34 144q-51 57 -139 57q-87 0 -157 -57z" />
    <glyph glyph-name="seven" unicode="7" horiz-adv-x="1054" 
d="M486 0h-339q359 656 729 1071h-646l50 287h988l-42 -242q-471 -573 -740 -1116z" />
    <glyph glyph-name="eight" unicode="8" horiz-adv-x="1202" 
d="M597 -20q-81 0 -153 14t-133.5 45.5t-102.5 77t-58 113.5t-2 151q20 113 93.5 199t182.5 129q-80 38 -118.5 114t-20.5 176q17 95 70 170t132 121q154 88 357 88q99 0 181.5 -22t145 -66.5t89.5 -119t10 -171.5q-18 -99 -82.5 -174.5t-158.5 -115.5q93 -44 136.5 -130
t23.5 -198q-18 -101 -74.5 -181t-141.5 -127q-167 -93 -376 -93zM480 402q-14 -77 35 -121q47 -46 127 -46t144 46q65 45 78 121q13 79 -34 125t-128 46q-80 0 -144 -46q-65 -47 -78 -125zM605 970q-12 -67 24 -116q34 -49 114 -49q75 0 130 49q54 50 66 116q12 65 -27 110
q-39 44 -113 44q-73 0 -128 -44q-54 -45 -66 -110z" />
    <glyph glyph-name="nine" unicode="9" horiz-adv-x="1242" 
d="M139 82l145 257q139 -82 278 -82q268 0 359 301q-51 -52 -132.5 -83.5t-172.5 -31.5q-196 0 -311 109q-58 54 -81 142t-3 197q41 224 213 356q173 131 412 131q97 0 174 -23t130 -65t88 -99.5t51 -128.5t16 -150t-15 -166q-64 -366 -263 -566q-200 -200 -505 -200
q-233 0 -383 102zM637 1050q-69 -56 -86 -144q-16 -87 35 -144q50 -57 137 -57t158 57q69 56 86 144q16 86 -34 144q-51 57 -139 57q-86 0 -157 -57z" />
    <glyph glyph-name="colon" unicode=":" horiz-adv-x="572" 
d="M531 686q-59 -50 -133 -50t-115 50q-42 50 -29 122t73 123q58 49 132 49t116 -49q41 -50 28 -123q-13 -72 -72 -122zM282 -20q-74 0 -114 50q-42 50 -29 122q13 74 72 123q58 49 132 49t116 -49q42 -50 29 -123q-13 -72 -72 -122t-134 -50z" />
    <glyph glyph-name="semicolon" unicode=";" horiz-adv-x="603" 
d="M246 -263h-256l228 516h312zM565 686q-59 -50 -133 -50t-115 50q-42 50 -29 122t73 123q58 49 132 49t116 -49q41 -50 28 -123q-13 -72 -72 -122z" />
    <glyph glyph-name="less" unicode="&#x3c;" horiz-adv-x="1243" 
d="M600 680l581 -272l-56 -319l-946 462l45 257l1109 463l-56 -320z" />
    <glyph glyph-name="equal" unicode="=" horiz-adv-x="1318" 
d="M222 594h1085l-51 -287h-1085zM302 1052h1085l-50 -286h-1085z" />
    <glyph glyph-name="greater" unicode="&#x3e;" horiz-adv-x="1243" 
d="M884 680l-581 272l56 319l946 -462l-46 -257l-1108 -463l56 320z" />
    <glyph glyph-name="question" unicode="?" horiz-adv-x="1075" 
d="M454 903l-235 122q91 163 240 258t330 95q199 0 313.5 -99t81.5 -288q-10 -76 -66.5 -150.5t-128.5 -133.5q-41 -35 -90 -72q-42 -32 -73 -59q-9 -9 -32 -28q-7 -6 -14.5 -12.5t-12 -10.5t-6.5 -6q-14 -14 -26 -27q-25 -27 -42 -70q-8 -20 -13 -47h-254q-2 55 4 83
q17 98 82 172q48 55 138 127q6 4 22 17q104 82 136 117q36 39 43 84q9 52 -23 86.5t-99 34.5q-78 0 -149 -51t-126 -142zM486 -20q-76 0 -115 48t-26 124t70 125q55 48 132 48t117 -48t27 -125q-13 -76 -70 -124q-59 -48 -135 -48z" />
    <glyph glyph-name="at" unicode="@" horiz-adv-x="1883" 
d="M884 -334q-175 0 -324.5 63.5t-249.5 177.5q-99 111 -142 277q-42 164 -9 351q39 230 172 416.5t325 300.5q253 156 555 156q169 0 314 -63q144 -63 240 -171q96 -112 136 -263q41 -155 11 -326q-42 -238 -157 -371t-265 -131q-188 0 -239 178q-49 -73 -139 -124
q-92 -54 -188 -54q-174 0 -281 129t-74 318q35 195 171 322q136 128 307 128q165 0 235 -109l25 89h253l-105 -597q-11 -64 9.5 -101t67.5 -37q82 0 143 100q60 97 89 260q25 140 -5.5 266t-108.5 218q-79 92 -202 144.5t-271 52.5q-334 0 -575 -202q-240 -202 -299 -531
q-36 -203 31.5 -369t219 -260t355.5 -94q211 0 437 108l36 -120q-262 -132 -498 -132zM830 535q-15 -86 32 -147q46 -61 128 -61t149 61q67 59 82 147q16 88 -30 148t-128 61q-82 0 -149 -60q-68 -62 -84 -149z" />
    <glyph glyph-name="A" unicode="A" horiz-adv-x="1456" 
d="M349 0h-352l775 1358h390l298 -1358h-352l-48 249h-575zM1011 505l-101 524l-286 -524h387z" />
    <glyph glyph-name="B" unicode="B" horiz-adv-x="1343" 
d="M843 0h-680l239 1358h635q192 0 295 -97q102 -97 73 -265q-34 -200 -244 -309q211 -85 171 -316q-29 -159 -161 -265q-133 -106 -328 -106zM590 553l-50 -279h268q68 0 117 42q47 41 58 96q10 61 -24 101t-101 40h-268zM928 1083h-245l-49 -278h255q64 0 110 41
q43 40 54 98q10 55 -23 97t-102 42z" />
    <glyph glyph-name="C" unicode="C" horiz-adv-x="1439" 
d="M786 -20q-199 0 -347 91t-214 252q-66 160 -31 357t157 357q122 159 303 251q180 90 379 90q181 0 332 -92q150 -94 214 -247l-286 -187q-53 110 -127 164t-187 54q-170 0 -294 -109t-154 -281t55 -281q86 -111 255 -111q215 0 397 216l219 -184q-125 -161 -301 -250
q-177 -90 -370 -90z" />
    <glyph glyph-name="D" unicode="D" horiz-adv-x="1523" 
d="M757 0h-594l239 1358h594q139 0 258.5 -52.5t197.5 -144.5t109.5 -218t7.5 -263t-101 -264q-75 -124 -185 -217q-109 -91 -247 -145t-279 -54zM683 1081l-142 -805h233q169 0 297 118t158 286q30 170 -57 285q-89 116 -256 116h-233z" />
    <glyph glyph-name="E" unicode="E" horiz-adv-x="1209" 
d="M541 276h644l-49 -276h-973l239 1358h963l-48 -277h-634l-45 -252h555l-48 -276h-555z" />
    <glyph glyph-name="F" unicode="F" horiz-adv-x="1193" 
d="M1105 545h-517l-96 -545h-329l239 1358h988l-48 -277h-659l-46 -259h517z" />
    <glyph glyph-name="G" unicode="G" horiz-adv-x="1534" 
d="M786 -20q-198 0 -347 92t-213 252q-66 161 -32 356q35 197 157 357q122 159 303 251q180 90 379 90q180 0 322 -85q140 -85 207 -220l-286 -187q-94 184 -297 184q-169 0 -293 -109q-125 -110 -155 -281t56 -281q85 -111 254 -111q118 0 216 50t144 142h-358l48 276h707
q-4 -52 -19 -142q-32 -181 -147 -326q-117 -146 -287 -227q-169 -81 -359 -81z" />
    <glyph glyph-name="H" unicode="H" horiz-adv-x="1571" 
d="M590 555l-98 -555h-329l239 1358h329l-92 -527h588l92 527h329l-239 -1358h-329l98 555h-588z" />
    <glyph glyph-name="I" unicode="I" horiz-adv-x="654" 
d="M402 1358h329l-239 -1358h-329z" />
    <glyph glyph-name="J" unicode="J" horiz-adv-x="1122" 
d="M33 225l255 211q80 -158 218 -158q87 0 147 56t78 158l152 866h329l-157 -892q-37 -220 -202 -353q-164 -133 -407 -133q-152 0 -259 68q-108 68 -154 177z" />
    <glyph glyph-name="K" unicode="K" horiz-adv-x="1442" 
d="M564 406l-72 -406h-329l239 1358h329l-100 -572l629 572h415l-628 -564l412 -794h-400l-290 585z" />
    <glyph glyph-name="L" unicode="L" horiz-adv-x="1200" 
d="M541 276h689l-49 -276h-1018l239 1358h329z" />
    <glyph glyph-name="M" unicode="M" horiz-adv-x="1819" 
d="M621 734l-129 -734h-329l239 1358h337l254 -886l566 886h337l-239 -1358h-329l129 734l-423 -654h-220z" />
    <glyph glyph-name="N" unicode="N" horiz-adv-x="1618" 
d="M492 0h-329l239 1358h280l538 -828l146 828h329l-239 -1358h-285l-534 820z" />
    <glyph glyph-name="O" unicode="O" horiz-adv-x="1568" 
d="M780 -20q-140 0 -261 53t-202 146t-114.5 224.5t-7.5 276.5q35 194 157 354q123 160 302 252t373 92q143 0 265 -54t202 -148t112 -224t8 -272q-26 -141 -102 -270q-77 -127 -188 -223q-114 -97 -253 -151q-144 -56 -291 -56zM687 952q-126 -109 -154 -272
q-29 -165 56 -273q85 -109 248 -109q158 0 285 107q125 107 155 275q29 164 -58 272q-89 107 -248 107t-284 -107z" />
    <glyph glyph-name="P" unicode="P" horiz-adv-x="1344" 
d="M569 444l-78 -444h-328l239 1358h676q93 2 173 -32.5t132.5 -94.5t74.5 -146t4 -181q-20 -126 -102 -233.5t-200.5 -168.5t-242.5 -58h-348zM958 1078h-277l-62 -354h277q88 0 153 54q62 53 76 126q13 76 -32.5 125t-134.5 49z" />
    <glyph glyph-name="Q" unicode="Q" horiz-adv-x="1569" 
d="M809 -20q-140 0 -261 53t-202 146t-114.5 224.5t-7.5 276.5q35 194 157 354q123 160 302 252t373 92q143 0 265 -54t202 -148t112 -224t8 -272q-26 -147 -107.5 -279.5t-205.5 -231.5l95 -179l-258 -155l-100 189q-126 -44 -258 -44zM716 952q-126 -109 -154 -272
q-29 -165 56 -273q85 -109 248 -109q27 0 54 3l-93 176l258 155l102 -193q93 99 119 241q29 164 -58 272q-89 107 -248 107t-284 -107z" />
    <glyph glyph-name="R" unicode="R" horiz-adv-x="1373" 
d="M491 0h-328l239 1358h686q196 0 308 -124q113 -126 79 -317q-25 -142 -117 -250q-91 -107 -222 -160l194 -508h-355l-175 469h-226zM681 1078l-58 -330h287q92 0 153 48q61 46 75 121q12 71 -34 116t-136 45h-287z" />
    <glyph glyph-name="S" unicode="S" horiz-adv-x="1264" 
d="M130 292l279 180q42 -90 122.5 -142.5t179.5 -52.5q83 0 144 30q61 29 69 75q4 23 -4.5 42t-23.5 32.5t-47.5 28t-59 23.5t-75.5 24q-14 3 -39 12q-83 27 -133 46q-34 12 -62 27q-76 37 -104 65q-76 65 -89 147q-14 57 0 144q21 120 110 215q88 94 208 142t246 48
q336 0 483 -290l-275 -179q-93 180 -259 180q-71 0 -121.5 -30.5t-58.5 -79.5q-6 -41 14 -61q24 -27 59 -41q40 -16 94 -33q10 -4 20.5 -7.5t21 -7.5t14.5 -5q108 -39 159 -60q15 -6 67 -31q78 -42 107 -69q57 -54 78 -117.5t4 -153.5q-18 -100 -78 -181.5t-148 -131.5
q-177 -100 -382 -100q-189 0 -329 82q-141 80 -191 230z" />
    <glyph glyph-name="T" unicode="T" horiz-adv-x="1160" 
d="M607 1075h-402l49 283h1131l-49 -283h-401l-190 -1075h-328z" />
    <glyph glyph-name="U" unicode="U" horiz-adv-x="1446" 
d="M719 -20q-272 0 -400 134t-85 375l153 869h329l-150 -851q-19 -111 36 -176.5t168 -65.5q114 0 191.5 65t97.5 177l150 851h329l-153 -869q-40 -236 -219 -373q-178 -136 -447 -136z" />
    <glyph glyph-name="V" unicode="V" horiz-adv-x="1400" 
d="M917 0h-433l-242 1358h359l159 -1027l518 1027h359z" />
    <glyph glyph-name="W" unicode="W" horiz-adv-x="2049" 
d="M383 0l-127 1358h332l88 -1009l454 989h262l106 -989l442 1009h332l-605 -1358h-418l-93 744l-355 -744h-418z" />
    <glyph glyph-name="X" unicode="X" horiz-adv-x="1401" 
d="M377 0h-385l638 695l-373 663h385l224 -423l372 423h385l-605 -663l392 -695h-385l-242 464z" />
    <glyph glyph-name="Y" unicode="Y" horiz-adv-x="1424" 
d="M639 505l-398 853h403l223 -518l410 518h385l-694 -853l-89 -505h-329z" />
    <glyph glyph-name="Z" unicode="Z" horiz-adv-x="1211" 
d="M1148 0h-1081l39 220l789 857h-628l49 281h1061l-39 -222l-787 -856h646z" />
    <glyph glyph-name="bracketleft" unicode="[" horiz-adv-x="792" 
d="M434 -177h301l-40 -223h-606l345 1953h606l-39 -223h-301z" />
    <glyph glyph-name="backslash" unicode="\" horiz-adv-x="1131" 
d="M1034 -400h-310l-429 1929h311z" />
    <glyph glyph-name="bracketright" unicode="]" horiz-adv-x="792" 
d="M563 1330h-301l39 223h606l-345 -1953h-606l40 223h301z" />
    <glyph glyph-name="asciicircum" unicode="^" horiz-adv-x="1286" 
d="M500 510h-368l627 848h246l330 -848h-368l-152 468z" />
    <glyph glyph-name="underscore" unicode="_" horiz-adv-x="1153" 
d="M1068 -60l-40 -230h-1004l40 230h1004z" />
    <glyph glyph-name="grave" unicode="`" horiz-adv-x="797" 
d="M921 1473h-261l-204 334h362z" />
    <glyph glyph-name="a" unicode="a" horiz-adv-x="1113" 
d="M429 -20q-157 0 -243 79q-87 79 -63 213q26 140 158 223q133 83 302 83q103 0 188 -25l3 19q10 59 -32 94.5t-125 35.5q-136 0 -250 -107l-141 187q83 77 206 138q122 60 261 60q219 0 325 -109q105 -110 71 -301l-101 -570h-299l17 98q-48 -53 -122.5 -85.5
t-154.5 -32.5zM428 291q-7 -43 23 -69.5t85 -26.5q75 0 131 46q57 46 70 121q-51 25 -132 25q-75 0 -122 -25.5t-55 -70.5z" />
    <glyph glyph-name="b" unicode="b" horiz-adv-x="1253" 
d="M467 74l-23 -74h-305l248 1408h306l-97 -549q118 121 313 121q131 2 223 -64t127.5 -181.5t8.5 -256.5q-38 -218 -186 -357q-148 -141 -350 -141q-87 0 -159.5 26t-105.5 68zM535 480q-16 -96 30 -157t136 -61t163 62q72 63 88 156q17 99 -32 158q-50 60 -142 60
q-90 0 -158 -61q-69 -61 -85 -157z" />
    <glyph glyph-name="c" unicode="c" horiz-adv-x="1080" 
d="M570 -20q-221 0 -338 142t-79 358t210 358t394 142q150 0 255 -72q105 -75 145 -185l-273 -173q-16 66 -63 103t-115 37q-90 0 -157 -60t-84 -150q-17 -92 30 -152q46 -61 136 -61q132 0 234 137l208 -174q-202 -250 -503 -250z" />
    <glyph glyph-name="d" unicode="d" horiz-adv-x="1253" 
d="M514 -20q-202 0 -299 141q-99 139 -61 357q39 218 188 361q148 141 349 141q196 0 269 -121l97 549h306l-248 -1408h-305l3 74q-50 -44 -129.5 -69t-169.5 -25zM472 480q-16 -94 33 -156q50 -62 140 -62t158 61q70 62 86 157t-31 157q-46 61 -136 61q-92 0 -162 -60
q-72 -61 -88 -158z" />
    <glyph glyph-name="e" unicode="e" horiz-adv-x="1103" 
d="M581 -20q-228 0 -347 140t-80 360q38 220 198 360t375 140q187 0 308 -113q61 -57 85.5 -149.5t3.5 -206.5q-8 -46 -29 -112h-648q-5 -74 51 -113q53 -40 134 -40q59 0 121.5 32t114.5 87l169 -176q-73 -91 -195 -150q-119 -59 -261 -59zM692 732q-77 0 -134 -41.5
t-78 -106.5h366q7 58 -36 103q-44 45 -118 45z" />
    <glyph glyph-name="f" unicode="f" horiz-adv-x="773" 
d="M312 703h-158l45 257h158l15 84q29 159 146 267q60 55 149 86t193 31q95 0 199 -32l-78 -256q-50 24 -121 24q-74 0 -124.5 -34t-62.5 -104l-12 -66h266l-45 -257h-255l-124 -703h-315z" />
    <glyph glyph-name="g" unicode="g" horiz-adv-x="1253" 
d="M486 -420q-152 0 -267.5 54.5t-181.5 153.5l220 187q55 -65 120 -95t153 -30q59 0 116 18.5t105.5 65t60.5 113.5l9 53q-120 -120 -304 -120q-193 0 -293 142t-63 357q22 139 101 255.5t194 182t238 63.5q183 0 261 -121l28 101h305l-163 -926q-24 -135 -108 -233
t-206 -152q-151 -69 -325 -69zM559 639q-69 -62 -86 -160q-17 -97 30 -159t138 -62t161 62q68 61 85 159q17 99 -29 159t-139 62q-92 0 -160 -61z" />
    <glyph glyph-name="h" unicode="h" horiz-adv-x="1216" 
d="M455 0h-316l248 1408h315l-93 -531q115 103 300 103q144 0 232.5 -96.5t59.5 -259.5l-110 -624h-315l94 534q13 74 -28 117q-43 41 -105 41q-64 0 -120 -41q-54 -41 -68 -117z" />
    <glyph glyph-name="i" unicode="i" horiz-adv-x="592" 
d="M454 0h-315l169 960h315zM482 1083q-76 0 -115.5 48t-26.5 124q14 77 71 125q55 48 132 48t116.5 -48t26.5 -125q-13 -76 -70 -124t-134 -48z" />
    <glyph glyph-name="j" unicode="j" horiz-adv-x="578" 
d="M-213 -377l69 248q69 -21 116 -21q127 0 151 139l171 971h315l-175 -994q-33 -185 -159 -286q-127 -100 -282 -100q-141 0 -206 43zM482 1083q-76 0 -115.5 48t-26.5 124q14 77 71 125q55 48 132 48t116.5 -48t26.5 -125q-13 -76 -70 -124t-134 -48z" />
    <glyph glyph-name="k" unicode="k" horiz-adv-x="1174" 
d="M502 273l-48 -273h-315l248 1408h315l-132 -751l354 303h411l-486 -406l333 -554h-384l-194 359z" />
    <glyph glyph-name="l" unicode="l" horiz-adv-x="592" 
d="M387 1408h315l-248 -1408h-315z" />
    <glyph glyph-name="m" unicode="m" horiz-adv-x="1845" 
d="M548 534l-94 -534h-315l169 960h289l-8 -101q59 59 142.5 90t176.5 31q102 0 176 -42t98 -118q68 77 161 118.5t190 41.5q149 0 237 -94q89 -95 60 -262l-110 -624h-315l94 534q12 73 -25.5 115.5t-103.5 42.5q-65 0 -121 -41q-55 -42 -69 -117l-94 -534h-315l94 534
q13 75 -26 117q-41 41 -103 41q-64 0 -120 -41q-54 -41 -68 -117z" />
    <glyph glyph-name="n" unicode="n" horiz-adv-x="1162" 
d="M521 534l-94 -534h-315l169 960h289l-8 -101q59 59 142.5 90t176.5 31q144 0 232.5 -96.5t59.5 -259.5l-110 -624h-315l94 534q13 74 -28 117q-43 41 -105 41q-64 0 -120 -41q-54 -41 -68 -117z" />
    <glyph glyph-name="o" unicode="o" horiz-adv-x="1167" 
d="M580 -20q-221 0 -343 143q-121 143 -84 357q38 216 210 358t394 142q144 2 252 -64t155.5 -182t20.5 -254q-22 -138 -110.5 -254t-220 -182t-274.5 -64zM465 480q-17 -92 30 -152q46 -61 136 -61t157 61q69 61 85 152q16 89 -31 150q-46 60 -136 60t-157 -60t-84 -150z
" />
    <glyph glyph-name="p" unicode="p" horiz-adv-x="1253" 
d="M467 71l-84 -471h-315l240 1360h296l-8 -101q118 121 313 121q131 2 223 -64t127.5 -181.5t8.5 -256.5q-38 -218 -186 -357q-148 -141 -350 -141q-87 0 -158 24.5t-107 66.5zM535 480q-16 -96 30 -157t136 -61t163 62q72 63 88 156q17 99 -32 158q-50 60 -142 60
q-90 0 -158 -61q-69 -61 -85 -157z" />
    <glyph glyph-name="q" unicode="q" horiz-adv-x="1249" 
d="M514 -20q-202 0 -299 141q-99 139 -61 357q39 218 188 361q148 141 349 141q196 0 269 -121l28 101h296l-240 -1360h-315l84 471q-51 -42 -131 -66.5t-168 -24.5zM472 480q-16 -94 33 -156q50 -62 140 -62t158 61q70 62 86 157t-31 157q-46 61 -136 61q-92 0 -162 -60
q-72 -61 -88 -158z" />
    <glyph glyph-name="r" unicode="r" horiz-adv-x="836" 
d="M535 462l-81 -462h-315l169 960h297l-13 -131q46 71 120 111t158 40q55 0 113 -20l-67 -275q-57 21 -118 21q-102 0 -171 -61t-92 -183z" />
    <glyph glyph-name="s" unicode="s" horiz-adv-x="978" 
d="M97 182l223 173q85 -130 228 -130q103 0 114 59q4 24 -20 36q-23 10 -101 30q-47 11 -71 18q-135 37 -203 101q-79 72 -56 200q24 135 149 224q124 87 302 87q133 0 224 -55q90 -55 134 -133l-213 -157q-28 45 -77.5 73t-113.5 28q-54 0 -87 -16.5t-38 -46.5
q-5 -25 31 -41.5t142 -42.5q144 -36 223 -100q90 -74 66 -206q-23 -131 -152 -217q-130 -86 -299 -86q-294 0 -405 202z" />
    <glyph glyph-name="t" unicode="t" horiz-adv-x="834" 
d="M303 703h-153l45 257h153l55 308h305l-55 -308h291l-45 -257h-281l-55 -310q-24 -136 118 -136q73 0 161 33l-23 -256q-51 -24 -124 -39t-141 -15q-174 0 -260 89q-87 88 -55 273z" />
    <glyph glyph-name="u" unicode="u" horiz-adv-x="1215" 
d="M476 -30q-145 0 -233.5 96.5t-59.5 259.5l112 634h315l-96 -544q-14 -75 29 -116q41 -42 104 -42q65 0 120 42q54 40 68 116l96 544h315l-169 -960h-289l6 91q-58 -59 -141.5 -90t-176.5 -31z" />
    <glyph glyph-name="v" unicode="v" horiz-adv-x="1089" 
d="M739 0h-388l-164 960h331l81 -652l311 652h331z" />
    <glyph glyph-name="w" unicode="w" horiz-adv-x="1648" 
d="M309 0l-114 960h321l56 -632l295 613h247l78 -613l279 632h321l-452 -960h-368l-63 481l-232 -481h-368z" />
    <glyph glyph-name="x" unicode="x" horiz-adv-x="1088" 
d="M361 0h-347l430 490l-263 470h362l125 -253l210 253h360l-424 -470l263 -490h-350l-135 280z" />
    <glyph glyph-name="y" unicode="y" horiz-adv-x="1125" 
d="M188 -420q-106 0 -198 50l86 248q55 -26 108 -26q68 0 124.5 38t88.5 109l-217 961h351l90 -642l311 642h352l-639 -1101q-80 -137 -199 -208t-258 -71z" />
    <glyph glyph-name="z" unicode="z" horiz-adv-x="929" 
d="M874 0h-804l36 206l501 494h-414l46 260h774l-36 -207l-499 -493h442z" />
    <glyph glyph-name="braceleft" unicode="{" horiz-adv-x="777" 
d="M190 455h-87l43 242h87q59 0 87.5 26.5t38.5 85.5l64 366q34 189 135 290q108 108 337 108q67 0 131 -6l-41 -234q-9 1 -36 1q-120 0 -166 -40t-67 -157l-58 -332q-15 -85 -53.5 -136.5t-115.5 -92.5q62 -41 82.5 -92.5t5.5 -136.5l-56 -319q-21 -118 11 -164
q32 -45 150 -45q27 0 36 1l-41 -234q-67 -6 -133 -6q-114 0 -189 30t-109 84t-42.5 129.5t10.5 166.5l62 353q11 59 -8 85.5t-78 26.5z" />
    <glyph glyph-name="bar" unicode="|" horiz-adv-x="604" 
d="M470 1758h285l-381 -2158h-285z" />
    <glyph glyph-name="braceright" unicode="}" horiz-adv-x="777" 
d="M-45 -415l41 234q9 -1 36 -1q120 0 166 40t67 157l58 332q16 86 54.5 137t115.5 92q-62 41 -83 92.5t-6 136.5l56 319q21 119 -10 164q-32 45 -151 45q-27 0 -36 -1l41 234q67 6 133 6q114 0 189 -30t109 -84t42.5 -129.5t-10.5 -166.5l-62 -353q-10 -59 8.5 -85.5
t77.5 -26.5h87l-43 -242h-87q-59 0 -86.5 -25.5t-39.5 -86.5l-64 -366q-34 -189 -135 -290q-108 -108 -337 -108q-67 0 -131 6z" />
    <glyph glyph-name="asciitilde" unicode="~" horiz-adv-x="1382" 
d="M296 381l-112 223q104 101 219 157q114 54 206 54q59 0 120.5 -19.5t105.5 -47.5q108 -68 202 -68q84 0 167 53q36 23 91 63l112 -223q-107 -102 -219 -156q-111 -55 -205 -55q-113 0 -220 68t-208 68q-55 0 -115 -26.5t-144 -90.5z" />
    <glyph glyph-name="uni00A0" unicode="&#xa0;" horiz-adv-x="507" 
 />
    <glyph glyph-name="exclamdown" unicode="&#xa1;" horiz-adv-x="593" 
d="M397 -396h-344l224 948h228zM540 686q-59 -50 -133 -50t-115 50q-42 50 -29 122t73 123q58 49 132 49t116 -49q41 -50 28 -123q-13 -72 -72 -122z" />
    <glyph glyph-name="cent" unicode="&#xa2;" horiz-adv-x="1139" 
d="M534 0l32 182q-192 22 -289 160q-97 137 -62 336q35 195 181 332q148 138 344 163l30 168h131l-29 -166q129 -12 220 -82q90 -70 127 -172l-273 -173q-26 107 -126 134l-72 -411q98 23 179 131l207 -174q-177 -220 -437 -247l-32 -181h-131zM527 678q-13 -69 12 -122.5
t79 -76.5l70 395q-63 -23 -106 -75.5t-55 -120.5z" />
    <glyph glyph-name="sterling" unicode="&#xa3;" horiz-adv-x="1276" 
d="M1198 264l-47 -264h-1076l38 215q98 60 145.5 119t59.5 132l24 142h-153l32 179h151l20 115q37 216 201 347q163 130 403 130q319 0 421 -304l-285 -149q-47 170 -190 170q-83 0 -144 -53q-60 -51 -77 -139l-21 -117h322l-32 -179h-321l-20 -112q-24 -143 -131 -232h680z
" />
    <glyph glyph-name="currency" unicode="&#xa4;" horiz-adv-x="1264" 
d="M266 108l-134 163l201 171q-42 100 -21 220q19 115 94 214l-138 166l191 163l137 -167q113 59 228 59q120 0 212 -59l194 167l135 -163l-197 -166q41 -98 21 -214q-21 -119 -102 -220l142 -171l-192 -163l-142 175q-111 -54 -224 -54q-111 0 -199 54zM567 662
q-13 -73 31 -126t118 -53q76 0 141 53q64 53 77 126q14 77 -31 130q-47 53 -123 53q-75 0 -137 -53q-63 -55 -76 -130z" />
    <glyph glyph-name="yen" unicode="&#xa5;" horiz-adv-x="1479" 
d="M606 635l-337 723h403l223 -518l410 518h385l-588 -723h201l-23 -130h-284l-19 -107h284l-23 -130h-284l-47 -268h-329l47 268h-289l23 130h289l19 107h-289l23 130h205z" />
    <glyph glyph-name="brokenbar" unicode="&#xa6;" horiz-adv-x="604" 
d="M470 1758h285l-150 -848h-285zM239 448h285l-150 -848h-285z" />
    <glyph glyph-name="section" unicode="&#xa7;" horiz-adv-x="1170" 
d="M527 -341q-180 0 -298 76q-120 77 -169 203l235 154q45 -91 118.5 -140t168.5 -49q85 0 149 35q62 36 71 88q7 48 -25 70q-36 22 -153 59q-57 18 -67 22q-229 76 -306 159q-40 42 -50 95.5t2 119.5q24 135 167 227q-92 88 -66 231q28 165 181 268q152 101 347 101
q164 0 273 -68t158 -190l-235 -154q-39 88 -97.5 128t-153.5 40q-75 0 -129 -33q-56 -33 -63 -81q-9 -50 27 -73q34 -24 155 -63q62 -20 74 -24q225 -75 295 -153q71 -79 47 -212q-24 -138 -171 -233q94 -88 71 -225q-19 -114 -102 -201t-201 -132t-253 -45zM668 633
q-84 26 -125 43q-63 -44 -70 -94q-11 -58 43.5 -96.5t194.5 -81.5q97 -31 122 -41q71 47 81 101q2 39 -17 64t-71 49q-38 17 -69 27q-51 17 -89 29z" />
    <glyph glyph-name="dieresis" unicode="&#xa8;" horiz-adv-x="951" 
d="M926 1488q-67 0 -101.5 42t-22.5 109t61.5 109.5t116.5 42.5q68 0 103 -42.5t23 -109.5t-62 -109t-118 -42zM548 1488q-67 0 -101.5 42t-22.5 109t61.5 109.5t116.5 42.5q68 0 103 -42.5t23 -109.5t-62 -109t-118 -42z" />
    <glyph glyph-name="copyright" unicode="&#xa9;" horiz-adv-x="1649" 
d="M820 -20q-142 0 -266 53.5t-208 147.5q-83 92 -119 223q-37 128 -11 276q25 145 109 277q81 129 199 222q116 92 259 146q144 53 284 53q141 0 265.5 -53t209.5 -146q83 -90 121 -223q37 -128 11 -276q-34 -196 -165 -358t-313 -252q-184 -90 -376 -90zM312 680
q-30 -169 32 -312q61 -142 193 -222q131 -81 298 -81t327 81t273 224t143 310q28 168 -33 310q-62 141 -194 224q-132 81 -299 81t-326 -81q-160 -82 -272 -224q-114 -144 -142 -310zM542 678q28 168 164 282q136 113 311 113q104 0 182.5 -49.5t113.5 -137.5l-78 -49
q-69 148 -234 148q-134 0 -237 -88q-106 -89 -128 -219q-23 -128 50 -215q72 -88 204 -88q80 0 158 40t135 108l61 -49q-69 -88 -166 -136q-100 -51 -204 -51q-171 0 -266 113t-66 278z" />
    <glyph glyph-name="ordfeminine" unicode="&#xaa;" horiz-adv-x="801" 
d="M466 750q-97 0 -147.5 51t-35.5 133q15 85 95 138q79 52 193 52q73 0 117 -21l2 6q8 43 -20 71.5t-81 28.5q-89 0 -165 -65l-74 126q50 46 127 76q79 32 159 32q129 0 193.5 -64t44.5 -174l-67 -378h-169l12 66q-68 -78 -184 -78zM767 505h-554l26 150h554zM471 945
q-5 -26 12.5 -40.5t51.5 -14.5q46 0 86 28t46 63q-28 23 -89 23q-46 0 -74.5 -15.5t-32.5 -43.5z" />
    <glyph glyph-name="guillemotleft" unicode="&#xab;" horiz-adv-x="1105" 
d="M627 86h-260l-202 394l341 395h260l-323 -395zM783 86l-202 394l341 395h260l-323 -395l184 -394h-260z" />
    <glyph glyph-name="logicalnot" unicode="&#xac;" horiz-adv-x="1304" 
d="M1247 364h-327l61 346h-796l50 283h1123z" />
    <glyph glyph-name="uni00AD" unicode="&#xad;" horiz-adv-x="874" 
d="M231 668h649l-43 -244h-649z" />
    <glyph glyph-name="registered" unicode="&#xae;" horiz-adv-x="1249" 
d="M717 541q-224 0 -352 149q-127 148 -90 365q21 139 113.5 258.5t229 188.5t280.5 66q146 3 260 -66t165.5 -188.5t24.5 -258.5q-25 -141 -117 -260q-93 -119 -229 -186q-138 -68 -285 -68zM365 1055q-23 -116 19.5 -216t135.5 -158t212 -56q121 -2 236 56t193.5 158
t96.5 216q32 182 -76 308q-110 125 -298 125q-185 0 -336 -125q-151 -126 -183 -308zM659 805h-85l89 506h216q80 0 120.5 -42t27.5 -113q-10 -52 -42.5 -89t-80.5 -51l86 -211h-99l-75 197h-122zM707 1078h129q42 0 69.5 21t33.5 57q6 37 -13.5 58t-61.5 21h-129z" />
    <glyph glyph-name="macron" unicode="&#xaf;" horiz-adv-x="864" 
d="M438 1705h591l-36 -204h-591z" />
    <glyph glyph-name="degree" unicode="&#xb0;" horiz-adv-x="848" 
d="M543 678q-155 0 -237 99q-84 99 -58 249q27 151 146 252q118 100 272 100q155 0 240 -100q84 -100 57 -252q-25 -149 -145 -249q-120 -99 -275 -99zM464 1026q-11 -61 22 -101q33 -41 93 -41t107 41q45 41 56 101q11 62 -20.5 104t-91.5 42t-107 -42q-49 -44 -59 -104z
" />
    <glyph glyph-name="plusminus" unicode="&#xb1;" horiz-adv-x="1281" 
d="M612 758h-380l50 283h380l55 317h323l-55 -317h380l-50 -283h-380l-58 -327h-323zM1231 275l-48 -275h-1085l48 275h1085z" />
    <glyph glyph-name="twosuperior" unicode="&#xb2;" horiz-adv-x="755" 
d="M804 534h-610l14 78q14 78 81 151.5t187 153.5q117 77 149 106q48 42 56 80q8 39 -14.5 60.5t-63.5 21.5q-95 0 -186 -114l-141 101q46 84 144 146q96 60 212 60q133 0 212 -68.5t56 -201.5q-12 -74 -70 -146q-21 -25 -60 -58q-29 -24 -62 -47q-36 -25 -67 -44
q-12 -7 -41 -25.5t-35 -22.5q-8 -5 -26 -17q-27 -18 -34 -30h332z" />
    <glyph glyph-name="threesuperior" unicode="&#xb3;" horiz-adv-x="752" 
d="M438 513q-108 0 -181 55q-72 53 -92 128l169 106q2 -11 20 -36q13 -20 28 -32q38 -36 105 -36q40 0 73 23t39 63q8 44 -17 66t-68 22h-131l27 154h131q37 0 70 24t39 57q7 38 -18 60t-68 22q-89 0 -173 -104l-134 105q47 75 138 132q92 56 202 56q132 3 213.5 -65
t61.5 -186q-22 -123 -141 -180q47 -25 70 -74.5t13 -109.5q-14 -79 -70.5 -137.5t-137.5 -85.5q-80 -27 -168 -27z" />
    <glyph glyph-name="acute" unicode="&#xb4;" horiz-adv-x="797" 
d="M618 1807h362l-322 -334h-261z" />
    <glyph glyph-name="paragraph" unicode="&#xb6;" horiz-adv-x="1373" 
d="M694 406h-70q-143 0 -248 59t-153 168.5t-23 248.5q22 137 109 247.5t214.5 171t267.5 57.5h729l-37 -214h-440l-273 -1544h-219zM1356 1029l-252 -1429h-214l252 1429h214z" />
    <glyph glyph-name="periodcentered" unicode="&#xb7;" horiz-adv-x="556" 
d="M338 342q-73 0 -114 50q-42 50 -29 122q13 74 72 123q58 49 132 49t116 -49q42 -50 29 -123q-13 -72 -72 -122q-61 -50 -134 -50z" />
    <glyph glyph-name="cedilla" unicode="&#xb8;" horiz-adv-x="690" 
d="M167 -477q-101 0 -159 30l28 155q57 -19 127 -19q56 0 91.5 17.5t40.5 48.5t-24.5 48.5t-86.5 17.5h-74l119 206h164l-52 -108q103 -15 149.5 -66t33.5 -126q-16 -91 -115 -148q-100 -56 -242 -56z" />
    <glyph glyph-name="onesuperior" unicode="&#xb9;" horiz-adv-x="519" 
d="M464 534h-208l112 637h-180l33 187h388z" />
    <glyph glyph-name="ordmasculine" unicode="&#xba;" horiz-adv-x="889" 
d="M827 820q-113 -92 -255 -92q-143 0 -220 92q-78 92 -54 231q26 141 136 234t253 93t222 -93q78 -95 53 -234q-24 -139 -135 -231zM869 635l-27 -155h-624l27 155h624zM498 1051q-10 -55 21 -93.5t87 -38.5t98.5 37.5t52.5 94.5q11 57 -18.5 96t-85.5 39q-57 0 -100 -39
q-45 -40 -55 -96z" />
    <glyph glyph-name="guillemotright" unicode="&#xbb;" horiz-adv-x="1105" 
d="M769 86h-260l324 394l-185 395h260l203 -395zM353 86h-260l324 394l-185 395h260l203 -395z" />
    <glyph glyph-name="onequarter" unicode="&#xbc;" horiz-adv-x="1573" 
d="M1228 186h-375l24 140l427 498h240l-82 -469h108l-30 -169h-108l-33 -186h-204zM1468 1334l-967 -1334h-167l5 26l968 1332h165zM403 530l113 637h-180l33 187h388l-146 -824h-208zM1258 355l41 232l-187 -232h146z" />
    <glyph glyph-name="onehalf" unicode="&#xbd;" horiz-adv-x="1674" 
d="M1643 184l-32 -184h-610l14 78q25 145 268 305q117 77 149 106q50 44 56 80q8 39 -14.5 60.5t-63.5 21.5q-94 0 -186 -114l-142 101q47 84 145 146q96 60 212 60q133 0 212 -68.5t56 -201.5q-12 -74 -70 -146q-21 -25 -60 -58q-29 -24 -62 -47q-36 -25 -67 -44
q-62 -38 -76 -48q-8 -5 -26 -17q-22 -15 -35 -30h332zM1512 1334l-967 -1334h-167l5 26l968 1332h165zM566 1167h-180l33 187h388l-146 -824h-208z" />
    <glyph glyph-name="threequarters" unicode="&#xbe;" horiz-adv-x="1702" 
d="M446 519q-108 0 -181 55q-74 56 -93 128l169 106q2 -11 20 -36q13 -20 28 -32q38 -36 105 -36q40 0 73 23t39 63q8 44 -17 66t-68 22h-131l27 154h131q37 0 70 24t39 57q7 38 -18 60t-68 22q-89 0 -173 -104l-134 105q46 75 138 132q92 56 202 56q132 3 213.5 -65
t61.5 -186q-23 -123 -141 -180q47 -25 70 -74.5t13 -109.5q-14 -79 -70.5 -137.5t-137.5 -85.5q-78 -27 -167 -27zM1339 0l33 186h-375l24 140l427 498h240l-82 -469h108l-30 -169h-108l-33 -186h-204zM636 0h-167l5 26l968 1332h165l-4 -24zM1443 587l-187 -232h146z" />
    <glyph glyph-name="questiondown" unicode="&#xbf;" horiz-adv-x="1063" 
d="M438 -420q-199 0 -313.5 99t-81.5 288q10 76 66.5 150.5t129.5 134.5q39 33 90 72q40 31 72 58q6 7 32 29q23 19 33 29q14 14 26 27q25 27 42 70q8 21 13 46h254q2 -55 -4 -83q-18 -103 -84 -174q-41 -44 -61 -62q-35 -30 -78 -64q-3 -3 -10 -8.5t-10 -7.5
q-100 -81 -135 -117q-36 -39 -43 -84q-9 -52 23 -86.5t99 -34.5q78 0 149 51t126 142l235 -122q-92 -164 -239 -258q-149 -95 -331 -95zM680 633q-77 0 -117 48t-27 125q13 76 70 124t134 48q76 0 115.5 -48t26.5 -124t-70 -125q-56 -48 -132 -48z" />
    <glyph glyph-name="Agrave" unicode="&#xc0;" horiz-adv-x="1456" 
d="M349 0h-352l775 1358h390l298 -1358h-352l-48 249h-575zM838 1473l-204 334h362l103 -334h-261zM910 1029l-286 -524h387z" />
    <glyph glyph-name="Aacute" unicode="&#xc1;" horiz-adv-x="1456" 
d="M349 0h-352l775 1358h390l298 -1358h-352l-48 249h-575zM1118 1473h-261l221 334h362zM1011 505l-101 524l-286 -524h387z" />
    <glyph glyph-name="Acircumflex" unicode="&#xc2;" horiz-adv-x="1456" 
d="M349 0h-352l775 1358h390l298 -1358h-352l-48 249h-575zM1018 1640l-151 -169h-264l353 370h196l221 -370h-264zM1011 505l-101 524l-286 -524h387z" />
    <glyph glyph-name="Atilde" unicode="&#xc3;" horiz-adv-x="1456" 
d="M485 249l-136 -249h-352l775 1358h390l298 -1358h-352l-48 249h-575zM734 1493l-96 104q146 207 294 207q43 0 130 -48q86 -48 113 -48q57 0 128 86l97 -104q-147 -207 -296 -207q-40 -2 -125.5 48t-117.5 48q-47 0 -127 -86zM1011 505l-101 524l-286 -524h387z" />
    <glyph glyph-name="Adieresis" unicode="&#xc4;" horiz-adv-x="1456" 
d="M349 0h-352l775 1358h390l298 -1358h-352l-48 249h-575zM1011 505l-101 524l-286 -524h387zM1179 1488q-67 0 -101.5 42t-22.5 109t61.5 109.5t116.5 42.5q68 0 103 -42.5t23 -109.5t-62 -109t-118 -42zM801 1488q-67 0 -101.5 42t-22.5 109t61.5 109.5t116.5 42.5
q68 0 103 -42.5t23 -109.5t-62 -109t-118 -42z" />
    <glyph glyph-name="Aring" unicode="&#xc5;" horiz-adv-x="1456" 
d="M349 0h-352l775 1358h390l298 -1358h-352l-48 249h-575zM1160 1536q-74 -62 -171 -62q-96 0 -149 62q-52 61 -36 155q16 96 91 158q74 62 171 62q96 0 149 -62q52 -62 35 -158q-16 -93 -90 -155zM910 1029l-286 -524h387zM965 1691q-5 -26 9.5 -44.5t41.5 -18.5
q26 0 46.5 18t25.5 45t-8.5 46.5t-40.5 19.5t-48 -19t-26 -47z" />
    <glyph glyph-name="AE" unicode="&#xc6;" horiz-adv-x="1996" 
d="M328 0h-385l1061 1358h1148l-48 -277h-634l-45 -252h555l-48 -276h-555l-49 -277h644l-49 -276h-973l44 249h-479zM1140 1080l-433 -575h332z" />
    <glyph glyph-name="Ccedilla" unicode="&#xc7;" horiz-adv-x="1439" 
d="M577 -179l97 167q-168 25 -288 120t-171 245q-53 150 -21 327q35 197 157 357q122 159 303 251q180 90 379 90q181 0 332 -92q150 -94 214 -247l-286 -187q-53 110 -127 164t-187 54q-170 0 -294 -109t-154 -281t55 -281q86 -111 255 -111q215 0 397 216l219 -184
q-115 -148 -278 -237t-341 -101l-30 -63q103 -15 149.5 -66t33.5 -126q-16 -91 -115 -148q-100 -56 -242 -56q-100 0 -159 30l28 155q57 -19 127 -19q56 0 91.5 17.5t40.5 48.5t-24.5 48.5t-86.5 17.5h-74z" />
    <glyph glyph-name="Egrave" unicode="&#xc8;" horiz-adv-x="1209" 
d="M541 276h644l-49 -276h-973l239 1358h963l-48 -277h-634l-45 -252h555l-48 -276h-555zM1096 1473h-261l-204 334h362z" />
    <glyph glyph-name="Eacute" unicode="&#xc9;" horiz-adv-x="1209" 
d="M541 276h644l-49 -276h-973l239 1358h963l-48 -277h-634l-45 -252h555l-48 -276h-555zM1008 1807h362l-322 -334h-261z" />
    <glyph glyph-name="Ecircumflex" unicode="&#xca;" horiz-adv-x="1209" 
d="M1136 0h-973l239 1358h963l-48 -277h-634l-45 -252h555l-48 -276h-555l-49 -277h644zM934 1640l-151 -169h-264l353 370h196l221 -370h-264z" />
    <glyph glyph-name="Edieresis" unicode="&#xcb;" horiz-adv-x="1209" 
d="M1136 0h-973l239 1358h963l-48 -277h-634l-45 -252h555l-48 -276h-555l-49 -277h644zM1095 1488q-67 0 -101.5 42t-22.5 109t61.5 109.5t116.5 42.5q68 0 103 -42.5t23 -109.5t-62 -109t-118 -42zM717 1488q-67 0 -101.5 42t-22.5 109t61.5 109.5t116.5 42.5
q68 0 103 -42.5t23 -109.5t-62 -109t-118 -42z" />
    <glyph glyph-name="Igrave" unicode="&#xcc;" horiz-adv-x="654" 
d="M402 1358h329l-239 -1358h-329zM709 1473h-261l-204 334h362z" />
    <glyph glyph-name="Iacute" unicode="&#xcd;" horiz-adv-x="654" 
d="M402 1358h329l-239 -1358h-329zM678 1807h362l-322 -334h-261z" />
    <glyph glyph-name="Icircumflex" unicode="&#xce;" horiz-adv-x="654" 
d="M731 1358l-239 -1358h-329l239 1358h329zM465 1471h-264l353 370h196l221 -370h-264l-91 169z" />
    <glyph glyph-name="Idieresis" unicode="&#xcf;" horiz-adv-x="654" 
d="M492 0h-329l239 1358h329zM777 1488q-67 0 -101.5 42t-22.5 109t61.5 109.5t116.5 42.5q68 0 103 -42.5t23 -109.5t-62 -109t-118 -42zM399 1488q-67 0 -101.5 42t-22.5 109t61.5 109.5t116.5 42.5q68 0 103 -42.5t23 -109.5t-62 -109t-118 -42z" />
    <glyph glyph-name="Eth" unicode="&#xd0;" horiz-adv-x="1596" 
d="M236 0l106 604h-132l32 185h133l100 569h594q139 0 258.5 -52.5t197.5 -144.5t109.5 -218t7.5 -263t-101 -264q-75 -124 -185 -217q-109 -91 -247 -145t-279 -54h-594zM1049 789l-32 -185h-345l-58 -328h233q169 0 297 118t158 286q30 170 -57 285q-89 116 -256 116h-233
l-52 -292h345z" />
    <glyph glyph-name="Ntilde" unicode="&#xd1;" horiz-adv-x="1618" 
d="M637 820l-145 -820h-329l239 1358h280l538 -828l146 828h329l-239 -1358h-285zM815 1493l-96 104q145 207 294 207q43 0 130 -48q86 -48 113 -48q57 0 128 86l97 -104q-147 -207 -296 -207q-40 -2 -125.5 48t-117.5 48q-47 0 -127 -86z" />
    <glyph glyph-name="Ograve" unicode="&#xd2;" horiz-adv-x="1568" 
d="M780 -20q-140 0 -261 53t-202 146t-114.5 224.5t-7.5 276.5q35 194 157 354q123 160 302 252t373 92q143 0 265 -54t202 -148t112 -224t8 -272q-26 -141 -102 -270q-77 -127 -188 -223q-114 -97 -253 -151q-144 -56 -291 -56zM687 952q-126 -109 -154 -272
q-29 -165 56 -273q85 -109 248 -109q158 0 285 107q125 107 155 275q29 164 -58 272q-89 107 -248 107t-284 -107zM932 1473l-204 334h362l103 -334h-261z" />
    <glyph glyph-name="Oacute" unicode="&#xd3;" horiz-adv-x="1568" 
d="M780 -20q-140 0 -261 53t-202 146t-114.5 224.5t-7.5 276.5q35 194 157 354q123 160 302 252t373 92q143 0 265 -54t202 -148t112 -224t8 -272q-26 -141 -102 -270q-77 -127 -188 -223q-114 -97 -253 -151q-144 -56 -291 -56zM687 952q-126 -109 -154 -272
q-29 -165 56 -273q85 -109 248 -109q158 0 285 107q125 107 155 275q29 164 -58 272q-89 107 -248 107t-284 -107zM1511 1807l-322 -334h-261l221 334h362z" />
    <glyph glyph-name="Ocircumflex" unicode="&#xd4;" horiz-adv-x="1568" 
d="M780 -20q-140 0 -261 53t-202 146t-114.5 224.5t-7.5 276.5q35 194 157 354q123 160 302 252t373 92q143 0 265 -54t202 -148t112 -224t8 -272q-26 -141 -102 -270q-77 -127 -188 -223q-114 -97 -253 -151q-144 -56 -291 -56zM687 952q-126 -109 -154 -272
q-29 -165 56 -273q85 -109 248 -109q158 0 285 107q125 107 155 275q29 164 -58 272q-89 107 -248 107t-284 -107zM1074 1640l-151 -169h-264l353 370h196l221 -370h-264z" />
    <glyph glyph-name="Otilde" unicode="&#xd5;" horiz-adv-x="1568" 
d="M780 -20q-140 0 -261 53t-202 146t-114.5 224.5t-7.5 276.5q35 194 157 354q123 160 302 252t373 92q143 0 265 -54t202 -148t112 -224t8 -272q-26 -141 -102 -270q-77 -127 -188 -223q-114 -97 -253 -151q-144 -56 -291 -56zM687 952q-126 -109 -154 -272
q-29 -165 56 -273q85 -109 248 -109q158 0 285 107q125 107 155 275q29 164 -58 272q-89 107 -248 107t-284 -107zM790 1493l-96 104q146 207 294 207q43 0 130 -48q86 -48 113 -48q57 0 128 86l97 -104q-147 -207 -296 -207q-40 -2 -125.5 48t-117.5 48q-47 0 -127 -86z
" />
    <glyph glyph-name="Odieresis" unicode="&#xd6;" horiz-adv-x="1568" 
d="M780 -20q-140 0 -261 53t-202 146t-114.5 224.5t-7.5 276.5q35 194 157 354q123 160 302 252t373 92q143 0 265 -54t202 -148t112 -224t8 -272q-26 -141 -102 -270q-77 -127 -188 -223q-114 -97 -253 -151q-144 -56 -291 -56zM687 952q-126 -109 -154 -272
q-29 -165 56 -273q85 -109 248 -109q158 0 285 107q125 107 155 275q29 164 -58 272q-89 107 -248 107t-284 -107zM1235 1488q-67 0 -101.5 42t-22.5 109t61.5 109.5t116.5 42.5q68 0 103 -42.5t23 -109.5t-62 -109t-118 -42zM857 1488q-67 0 -101.5 42t-22.5 109
t61.5 109.5t116.5 42.5q68 0 103 -42.5t23 -109.5t-62 -109t-118 -42z" />
    <glyph glyph-name="multiply" unicode="&#xd7;" horiz-adv-x="1243" 
d="M317 136l-176 214l386 329l-270 329l251 214l271 -329l387 329l177 -214l-387 -329l271 -329l-252 -214l-271 329z" />
    <glyph glyph-name="Oslash" unicode="&#xd8;" horiz-adv-x="1568" 
d="M196 -26l151 173q-100 97 -140.5 235.5t-11.5 297.5q35 194 157 354q123 160 302 252t373 92q179 0 324 -83l147 169l113 -88l-147 -168q98 -98 137.5 -235.5t12.5 -292.5q-26 -141 -102 -270q-77 -127 -188 -223q-114 -97 -253 -151q-144 -56 -291 -56q-176 0 -319 80
l-152 -174zM582 416l536 613q-68 30 -147 30q-159 0 -284 -107q-126 -109 -154 -272q-27 -158 49 -264zM1229 939l-535 -613q63 -28 143 -28q158 0 285 107q125 107 155 275q27 153 -48 259z" />
    <glyph glyph-name="Ugrave" unicode="&#xd9;" horiz-adv-x="1446" 
d="M719 -20q-272 0 -400 134t-85 375l153 869h329l-150 -851q-19 -111 36 -176.5t168 -65.5q114 0 191.5 65t97.5 177l150 851h329l-153 -869q-40 -236 -219 -373q-178 -136 -447 -136zM865 1473l-204 334h362l103 -334h-261z" />
    <glyph glyph-name="Uacute" unicode="&#xda;" horiz-adv-x="1446" 
d="M719 -20q-272 0 -400 134t-85 375l153 869h329l-150 -851q-19 -111 36 -176.5t168 -65.5q114 0 191.5 65t97.5 177l150 851h329l-153 -869q-40 -236 -219 -373q-178 -136 -447 -136zM1120 1473h-261l221 334h362z" />
    <glyph glyph-name="Ucircumflex" unicode="&#xdb;" horiz-adv-x="1446" 
d="M719 -20q-272 0 -400 134t-85 375l153 869h329l-150 -851q-19 -111 36 -176.5t168 -65.5q114 0 191.5 65t97.5 177l150 851h329l-153 -869q-40 -236 -219 -373q-178 -136 -447 -136zM862 1471h-264l353 370h196l221 -370h-264l-91 169z" />
    <glyph glyph-name="Udieresis" unicode="&#xdc;" horiz-adv-x="1446" 
d="M719 -20q-272 0 -400 134t-85 375l153 869h329l-150 -851q-19 -111 36 -176.5t168 -65.5q114 0 191.5 65t97.5 177l150 851h329l-153 -869q-40 -236 -219 -373q-178 -136 -447 -136zM1174 1488q-67 0 -101.5 42t-22.5 109t61.5 109.5t116.5 42.5q68 0 103 -42.5
t23 -109.5t-62 -109t-118 -42zM796 1488q-67 0 -101.5 42t-22.5 109t61.5 109.5t116.5 42.5q68 0 103 -42.5t23 -109.5t-62 -109t-118 -42z" />
    <glyph glyph-name="Yacute" unicode="&#xdd;" horiz-adv-x="1424" 
d="M550 0l89 505l-398 853h403l223 -518l410 518h385l-694 -853l-89 -505h-329zM1088 1473h-261l221 334h362z" />
    <glyph glyph-name="Thorn" unicode="&#xde;" horiz-adv-x="1454" 
d="M491 0h-328l239 1358h328l-31 -178h349q242 0 365 -130t82 -366q-40 -230 -211 -365q-170 -133 -411 -133h-349zM945 903h-295l-77 -440h295q123 0 196 56.5t93 164.5q37 219 -212 219z" />
    <glyph glyph-name="germandbls" unicode="&#xdf;" horiz-adv-x="1385" 
d="M616 917l-162 -917h-315l167 948q39 220 214 350q173 130 429 130q241 0 362 -108q121 -109 89 -294q-20 -111 -91 -185q-75 -76 -161 -107q129 -21 195 -121q66 -101 41 -244q-30 -174 -169 -281q-139 -108 -325 -108q-120 0 -211 50t-137 143l235 188q46 -94 138 -94
q54 0 95 35t53 98q14 80 -41 121t-175 41q-41 0 -123 -8l42 239q124 3 203 51t93 130q13 76 -38 121q-52 44 -134 44q-109 0 -182 -59t-92 -163z" />
    <glyph glyph-name="agrave" unicode="&#xe0;" horiz-adv-x="1113" 
d="M429 -20q-157 0 -243 79q-87 79 -63 213q26 140 158 223q133 83 302 83q103 0 188 -25l3 19q10 59 -32 94.5t-125 35.5q-136 0 -250 -107l-141 187q83 77 206 138q122 60 261 60q219 0 325 -109q105 -110 71 -301l-101 -570h-299l17 98q-48 -53 -122.5 -85.5
t-154.5 -32.5zM608 1121l-204 334h362l103 -334h-261zM428 291q-7 -43 23 -69.5t85 -26.5q75 0 131 46q57 46 70 121q-51 25 -132 25q-75 0 -122 -25.5t-55 -70.5z" />
    <glyph glyph-name="aacute" unicode="&#xe1;" horiz-adv-x="1113" 
d="M429 -20q-157 0 -243 79q-87 79 -63 213q26 140 158 223q133 83 302 83q103 0 188 -25l3 19q10 59 -32 94.5t-125 35.5q-136 0 -250 -107l-141 187q83 77 206 138q122 60 261 60q219 0 325 -109q105 -110 71 -301l-101 -570h-299l17 98q-48 -53 -122.5 -85.5
t-154.5 -32.5zM1180 1447l-322 -334h-261l221 334h362zM428 291q-7 -43 23 -69.5t85 -26.5q75 0 131 46q57 46 70 121q-51 25 -132 25q-75 0 -122 -25.5t-55 -70.5z" />
    <glyph glyph-name="acircumflex" unicode="&#xe2;" horiz-adv-x="1113" 
d="M429 -20q-157 0 -243 79q-87 79 -63 213q26 140 158 223q133 83 302 83q103 0 188 -25l3 19q10 59 -32 94.5t-125 35.5q-136 0 -250 -107l-141 187q83 77 206 138q122 60 261 60q219 0 325 -109q105 -110 71 -301l-101 -570h-299l17 98q-48 -53 -122.5 -85.5
t-154.5 -32.5zM618 1084h-264l352 370h196l222 -370h-264l-91 169zM428 291q-7 -43 23 -69.5t85 -26.5q75 0 131 46q57 46 70 121q-51 25 -132 25q-75 0 -122 -25.5t-55 -70.5z" />
    <glyph glyph-name="atilde" unicode="&#xe3;" horiz-adv-x="1113" 
d="M429 -20q-157 0 -243 79q-87 79 -63 213q26 140 158 223q133 83 302 83q103 0 188 -25l3 19q10 59 -32 94.5t-125 35.5q-136 0 -250 -107l-141 187q83 77 206 138q122 60 261 60q219 0 325 -109q105 -110 71 -301l-101 -570h-299l17 98q-48 -53 -122.5 -85.5
t-154.5 -32.5zM473 1133l-97 104q147 207 295 207q43 0 130 -48q86 -48 113 -48q57 0 128 86l97 -104q-147 -207 -296 -207q-40 -2 -125.5 48t-117.5 48q-50 0 -127 -86zM428 291q-7 -43 23 -69.5t85 -26.5q75 0 131 46q57 46 70 121q-51 25 -132 25q-75 0 -122 -25.5
t-55 -70.5z" />
    <glyph glyph-name="adieresis" unicode="&#xe4;" horiz-adv-x="1113" 
d="M429 -20q-157 0 -243 79q-87 79 -63 213q26 140 158 223q133 83 302 83q103 0 188 -25l3 19q10 59 -32 94.5t-125 35.5q-136 0 -250 -107l-141 187q83 77 206 138q122 60 261 60q219 0 325 -109q105 -110 71 -301l-101 -570h-299l17 98q-48 -53 -122.5 -85.5
t-154.5 -32.5zM551 1151q-67 0 -101.5 42t-22.5 109q11 67 60.5 109.5t116.5 42.5q68 0 103 -42.5t24 -109.5q-12 -67 -62 -109t-118 -42zM929 1151q-67 0 -101.5 42t-22.5 109q11 67 60.5 109.5t116.5 42.5q68 0 103 -42.5t24 -109.5q-12 -67 -62 -109t-118 -42zM428 291
q-7 -43 23 -69.5t85 -26.5q75 0 131 46q57 46 70 121q-51 25 -132 25q-75 0 -122 -25.5t-55 -70.5z" />
    <glyph glyph-name="aring" unicode="&#xe5;" horiz-adv-x="1113" 
d="M429 -20q-157 0 -243 79q-87 79 -63 213q26 140 158 223q133 83 302 83q103 0 188 -25l3 19q10 59 -32 94.5t-125 35.5q-136 0 -250 -107l-141 187q83 77 206 138q122 60 261 60q219 0 325 -109q105 -110 71 -301l-101 -570h-299l17 98q-48 -53 -122.5 -85.5
t-154.5 -32.5zM915 1134q-74 -62 -171 -62q-96 0 -149 62q-52 61 -36 155q16 96 91 158q74 62 171 62q96 0 149 -62q52 -62 35 -158q-16 -93 -90 -155zM428 291q-7 -43 23 -69.5t85 -26.5q75 0 131 46q57 46 70 121q-51 25 -132 25q-75 0 -122 -25.5t-55 -70.5zM720 1289
q-5 -26 9.5 -44.5t41.5 -18.5q26 0 46.5 18t25.5 45t-8.5 46.5t-40.5 19.5t-48 -19t-26 -47z" />
    <glyph glyph-name="ae" unicode="&#xe6;" horiz-adv-x="1700" 
d="M462 -20q-168 -2 -265.5 79t-72.5 213q26 140 158 223q133 83 302 83q101 0 188 -25l3 19q10 59 -32 94.5t-125 35.5q-136 0 -250 -107l-141 187q83 77 206 138q121 60 261 60q202 0 285 -125q151 125 344 125q187 0 308 -113q61 -57 85.5 -149.5t3.5 -206.5
q-8 -46 -29 -112h-648q-5 -74 51 -113q53 -40 134 -40q59 0 121.5 32t114.5 87l169 -176q-73 -91 -195 -150q-119 -59 -261 -59q-229 0 -341 151q-145 -151 -374 -151zM429 291q-7 -43 23 -69.5t85 -26.5q75 0 131 46q57 46 70 121q-51 25 -132 25q-75 0 -122 -25.5
t-55 -70.5zM1076 584h366q7 58 -36 103q-44 45 -118 45q-77 0 -134 -41.5t-78 -106.5z" />
    <glyph glyph-name="ccedilla" unicode="&#xe7;" horiz-adv-x="1080" 
d="M360 -179l98 170q-169 34 -254 169q-84 134 -51 320q38 216 210 358t394 142q150 0 255 -72q105 -75 145 -185l-273 -173q-16 66 -63 103t-115 37q-90 0 -157 -60t-84 -150q-17 -92 30 -152q46 -61 136 -61q132 0 234 137l208 -174q-183 -227 -452 -248l-30 -63
q103 -15 149.5 -66t33.5 -126q-16 -91 -115 -148q-100 -56 -242 -56q-101 0 -159 30l28 155q57 -19 127 -19q56 0 91.5 17.5t40.5 48.5t-24.5 48.5t-86.5 17.5h-74z" />
    <glyph glyph-name="egrave" unicode="&#xe8;" horiz-adv-x="1103" 
d="M581 -20q-228 0 -347 140t-80 360q38 220 198 360t375 140q187 0 308 -113q61 -57 85.5 -149.5t3.5 -206.5q-8 -46 -29 -112h-648q-5 -74 51 -113q53 -40 134 -40q59 0 121.5 32t114.5 87l169 -176q-73 -91 -195 -150q-119 -59 -261 -59zM645 1121l-204 334h362l103 -334
h-261zM480 584h366q7 58 -36 103q-44 45 -118 45q-77 0 -134 -41.5t-78 -106.5z" />
    <glyph glyph-name="eacute" unicode="&#xe9;" horiz-adv-x="1103" 
d="M581 -20q-228 0 -347 140t-80 360q38 220 198 360t375 140q187 0 308 -113q61 -57 85.5 -149.5t3.5 -206.5q-8 -46 -29 -112h-648q-5 -74 51 -113q53 -40 134 -40q59 0 121.5 32t114.5 87l169 -176q-73 -91 -195 -150q-119 -59 -261 -59zM905 1113h-261l221 334h362z
M692 732q-77 0 -134 -41.5t-78 -106.5h366q7 58 -36 103q-44 45 -118 45z" />
    <glyph glyph-name="ecircumflex" unicode="&#xea;" horiz-adv-x="1103" 
d="M581 -20q-228 0 -347 140t-80 360q38 220 198 360t375 140q187 0 308 -113q61 -57 85.5 -149.5t3.5 -206.5q-8 -46 -29 -112h-648q-5 -74 51 -113q53 -40 134 -40q59 0 121.5 32t114.5 87l169 -176q-73 -91 -195 -150q-119 -59 -261 -59zM617 1084h-264l352 370h196
l222 -370h-264l-91 169zM480 584h366q7 58 -36 103q-44 45 -118 45q-77 0 -134 -41.5t-78 -106.5z" />
    <glyph glyph-name="edieresis" unicode="&#xeb;" horiz-adv-x="1103" 
d="M581 -20q-228 0 -347 140t-80 360q38 220 198 360t375 140q187 0 308 -113q61 -57 85.5 -149.5t3.5 -206.5q-8 -46 -29 -112h-648q-5 -74 51 -113q53 -40 134 -40q59 0 121.5 32t114.5 87l169 -176q-73 -91 -195 -150q-119 -59 -261 -59zM575 1151q-67 0 -101.5 42
t-22.5 109q11 67 60.5 109.5t116.5 42.5q68 0 103 -42.5t24 -109.5q-12 -67 -62 -109t-118 -42zM953 1151q-67 0 -101.5 42t-22.5 109q11 67 60.5 109.5t116.5 42.5q68 0 103 -42.5t24 -109.5q-12 -67 -62 -109t-118 -42zM692 732q-77 0 -134 -41.5t-78 -106.5h366
q7 58 -36 103q-44 45 -118 45z" />
    <glyph glyph-name="igrave" unicode="&#xec;" horiz-adv-x="592" 
d="M308 960h315l-169 -960h-315zM607 1121h-261l-204 334h362z" />
    <glyph glyph-name="iacute" unicode="&#xed;" horiz-adv-x="592" 
d="M308 960h315l-169 -960h-315zM593 1447h362l-322 -334h-261z" />
    <glyph glyph-name="icircumflex" unicode="&#xee;" horiz-adv-x="592" 
d="M623 960l-169 -960h-315l169 960h315zM517 1253l-151 -169h-264l352 370h196l222 -370h-264z" />
    <glyph glyph-name="idieresis" unicode="&#xef;" horiz-adv-x="592" 
d="M454 0h-315l169 960h315zM687 1151q-67 0 -101.5 42t-22.5 109q11 67 60.5 109.5t116.5 42.5q68 0 103 -42.5t24 -109.5q-12 -67 -62 -109t-118 -42zM309 1151q-67 0 -101.5 42t-22.5 109q11 67 60.5 109.5t116.5 42.5q68 0 103 -42.5t24 -109.5q-12 -67 -62 -109
t-118 -42z" />
    <glyph glyph-name="eth" unicode="&#xf0;" horiz-adv-x="1176" 
d="M571 -20q-225 0 -340 132q-117 131 -80 342q34 200 182 327q146 125 345 125q86 0 149.5 -31t91.5 -83q-19 183 -182 312l-224 -147l-73 136l155 102q-47 24 -140 65l185 220q122 -52 215 -115l233 153l69 -137l-177 -117q286 -274 206 -728q-43 -245 -214 -401
q-172 -155 -401 -155zM473 454q-15 -86 27 -139.5t125 -53.5q85 0 146 54q61 52 76 139q15 84 -28 136.5t-127 52.5q-82 0 -143 -52t-76 -137z" />
    <glyph glyph-name="ntilde" unicode="&#xf1;" horiz-adv-x="1215" 
d="M517 534l-94 -534h-315l169 960h289l-8 -101q59 59 142.5 90t176.5 31q144 0 232.5 -96.5t59.5 -259.5l-110 -624h-315l94 534q13 74 -28 117q-43 41 -105 41q-64 0 -120 -41q-54 -41 -68 -117zM552 1133l-97 104q147 207 295 207q43 0 130 -48q86 -48 113 -48
q57 0 128 86l97 -104q-147 -207 -296 -207q-40 -2 -125.5 48t-117.5 48q-50 0 -127 -86z" />
    <glyph glyph-name="ograve" unicode="&#xf2;" horiz-adv-x="1167" 
d="M580 -20q-221 0 -343 143q-121 143 -84 357q38 216 210 358t394 142q144 2 252 -64t155.5 -182t20.5 -254q-22 -138 -110.5 -254t-220 -182t-274.5 -64zM465 480q-17 -92 30 -152q46 -61 136 -61t157 61q69 61 85 152q16 89 -31 150q-46 60 -136 60t-157 -60t-84 -150z
M669 1121l-204 334h362l103 -334h-261z" />
    <glyph glyph-name="oacute" unicode="&#xf3;" horiz-adv-x="1167" 
d="M580 -20q-221 0 -343 143q-121 143 -84 357q38 216 210 358t394 142q144 2 252 -64t155.5 -182t20.5 -254q-22 -138 -110.5 -254t-220 -182t-274.5 -64zM465 480q-17 -92 30 -152q46 -61 136 -61t157 61q69 61 85 152q16 89 -31 150q-46 60 -136 60t-157 -60t-84 -150z
M1257 1447l-322 -334h-261l221 334h362z" />
    <glyph glyph-name="ocircumflex" unicode="&#xf4;" horiz-adv-x="1167" 
d="M580 -20q-221 0 -343 143q-121 143 -84 357q38 216 210 358t394 142q144 2 252 -64t155.5 -182t20.5 -254q-22 -138 -110.5 -254t-220 -182t-274.5 -64zM654 1084h-264l352 370h196l222 -370h-264l-91 169zM465 480q-17 -92 30 -152q46 -61 136 -61t157 61q69 61 85 152
q16 89 -31 150q-46 60 -136 60t-157 -60t-84 -150z" />
    <glyph glyph-name="otilde" unicode="&#xf5;" horiz-adv-x="1167" 
d="M580 -20q-221 0 -343 143q-121 143 -84 357q38 216 210 358t394 142q144 2 252 -64t155.5 -182t20.5 -254q-22 -138 -110.5 -254t-220 -182t-274.5 -64zM526 1133l-97 104q147 207 295 207q43 0 130 -48q86 -48 113 -48q57 0 128 86l97 -104q-147 -207 -296 -207
q-40 -2 -125.5 48t-117.5 48q-50 0 -127 -86zM465 480q-17 -92 30 -152q46 -61 136 -61t157 61q69 61 85 152q16 89 -31 150q-46 60 -136 60t-157 -60t-84 -150z" />
    <glyph glyph-name="odieresis" unicode="&#xf6;" horiz-adv-x="1167" 
d="M580 -20q-221 0 -343 143q-121 143 -84 357q38 216 210 358t394 142q144 2 252 -64t155.5 -182t20.5 -254q-22 -138 -110.5 -254t-220 -182t-274.5 -64zM465 480q-17 -92 30 -152q46 -61 136 -61t157 61q69 61 85 152q16 89 -31 150q-46 60 -136 60t-157 -60t-84 -150z
M975 1151q-67 0 -101.5 42t-22.5 109q11 67 60.5 109.5t116.5 42.5q68 0 103 -42.5t24 -109.5q-12 -67 -62 -109t-118 -42zM597 1151q-67 0 -101.5 42t-22.5 109q11 67 60.5 109.5t116.5 42.5q68 0 103 -42.5t24 -109.5q-12 -67 -62 -109t-118 -42z" />
    <glyph glyph-name="divide" unicode="&#xf7;" horiz-adv-x="1308" 
d="M1303 538h-1107l50 283h1107zM950 973q-59 -50 -133 -50t-115 50q-42 50 -29 122q13 73 72 123q58 49 132 49t116 -49q42 -50 29 -123q-13 -72 -72 -122zM804 144q-59 -50 -133 -50t-115 50q-42 50 -29 122q13 74 72 123q58 49 132 49t116 -49q42 -50 29 -123
q-13 -72 -72 -122z" />
    <glyph glyph-name="oslash" unicode="&#xf8;" horiz-adv-x="1201" 
d="M346 44l-173 -172l-97 106l163 162q-105 140 -69 340q38 216 210 358t394 142q142 0 248 -62l171 170l104 -96l-168 -168q109 -141 73 -344q-22 -138 -110.5 -254t-220 -182t-274.5 -64q-145 0 -251 64zM885 581l-304 -303q33 -11 67 -11q90 0 157 61q69 61 85 152
q10 52 -5 101zM484 384l300 297q-28 9 -61 9q-89 0 -157 -60t-84 -150q-9 -51 2 -96z" />
    <glyph glyph-name="ugrave" unicode="&#xf9;" horiz-adv-x="1215" 
d="M476 -30q-145 0 -233.5 96.5t-59.5 259.5l112 634h315l-96 -544q-14 -75 29 -116q41 -42 104 -42q65 0 120 42q54 40 68 116l96 544h315l-169 -960h-289l6 91q-58 -59 -141.5 -90t-176.5 -31zM685 1121l-204 334h362l103 -334h-261z" />
    <glyph glyph-name="uacute" unicode="&#xfa;" horiz-adv-x="1215" 
d="M476 -30q-145 0 -233.5 96.5t-59.5 259.5l112 634h315l-96 -544q-14 -75 29 -116q41 -42 104 -42q65 0 120 42q54 40 68 116l96 544h315l-169 -960h-289l6 91q-58 -59 -141.5 -90t-176.5 -31zM1247 1447l-322 -334h-261l221 334h362z" />
    <glyph glyph-name="ucircumflex" unicode="&#xfb;" horiz-adv-x="1215" 
d="M476 -30q-145 0 -233.5 96.5t-59.5 259.5l112 634h315l-96 -544q-14 -75 29 -116q41 -42 104 -42q65 0 120 42q54 40 68 116l96 544h315l-169 -960h-289l6 91q-58 -59 -141.5 -90t-176.5 -31zM846 1253l-151 -169h-264l352 370h196l222 -370h-264z" />
    <glyph glyph-name="udieresis" unicode="&#xfc;" horiz-adv-x="1215" 
d="M476 -30q-145 0 -233.5 96.5t-59.5 259.5l112 634h315l-96 -544q-14 -75 29 -116q41 -42 104 -42q65 0 120 42q54 40 68 116l96 544h315l-169 -960h-289l6 91q-58 -59 -141.5 -90t-176.5 -31zM999 1151q-67 0 -101.5 42t-22.5 109q11 67 60.5 109.5t116.5 42.5
q68 0 103 -42.5t24 -109.5q-12 -67 -62 -109t-118 -42zM621 1151q-67 0 -101.5 42t-22.5 109q11 67 60.5 109.5t116.5 42.5q68 0 103 -42.5t24 -109.5q-12 -67 -62 -109t-118 -42z" />
    <glyph glyph-name="yacute" unicode="&#xfd;" horiz-adv-x="1125" 
d="M188 -420q-106 0 -198 50l86 248q55 -26 108 -26q68 0 124.5 38t88.5 109l-217 961h351l90 -642l311 642h352l-639 -1101q-80 -137 -199 -208t-258 -71zM1211 1447l-322 -334h-261l221 334h362z" />
    <glyph glyph-name="thorn" unicode="&#xfe;" horiz-adv-x="1254" 
d="M468 71l-84 -471h-316l319 1808h307l-96 -547q116 119 312 119q131 2 223 -64t127.5 -181.5t8.5 -256.5q-37 -218 -186 -357q-149 -141 -350 -141q-87 0 -158 24.5t-107 66.5zM536 480q-16 -96 30 -157t136 -61t163 62q72 63 88 156q17 99 -32 158q-49 60 -142 60
q-90 0 -158 -61q-69 -61 -85 -157z" />
    <glyph glyph-name="ydieresis" unicode="&#xff;" horiz-adv-x="1125" 
d="M188 -420q-106 0 -198 50l86 248q55 -26 108 -26q68 0 124.5 38t88.5 109l-217 961h351l90 -642l311 642h352l-639 -1101q-80 -137 -199 -208t-258 -71zM954 1151q-67 0 -101.5 42t-22.5 109q11 67 60.5 109.5t116.5 42.5q68 0 103 -42.5t24 -109.5q-12 -67 -62 -109
t-118 -42zM576 1151q-67 0 -101.5 42t-22.5 109q11 67 60.5 109.5t116.5 42.5q68 0 103 -42.5t24 -109.5q-12 -67 -62 -109t-118 -42z" />
    <glyph glyph-name="Amacron" unicode="&#x100;" horiz-adv-x="1456" 
d="M485 249l-136 -249h-352l775 1358h390l298 -1358h-352l-48 249h-575zM1325 1705l-36 -204h-591l36 204h591zM1011 505l-101 524l-286 -524h387z" />
    <glyph glyph-name="amacron" unicode="&#x101;" horiz-adv-x="1113" 
d="M429 -20q-157 0 -243 79q-87 79 -63 213q26 140 158 223q133 83 302 83q103 0 188 -25l3 19q10 59 -32 94.5t-125 35.5q-136 0 -250 -107l-141 187q83 77 206 138q122 60 261 60q219 0 325 -109q105 -110 71 -301l-101 -570h-299l17 98q-48 -53 -122.5 -85.5
t-154.5 -32.5zM1034 1165h-591l36 204h591zM428 291q-7 -43 23 -69.5t85 -26.5q75 0 131 46q57 46 70 121q-51 25 -132 25q-75 0 -122 -25.5t-55 -70.5z" />
    <glyph glyph-name="Abreve" unicode="&#x102;" horiz-adv-x="1456" 
d="M349 0h-352l775 1358h390l298 -1358h-352l-48 249h-575zM988 1468q-138 0 -212 89q-74 90 -55 236h210q-8 -57 17.5 -92.5t74.5 -35.5q51 0 88 35t48 93h210q-33 -147 -137 -236t-244 -89zM1011 505l-101 524l-286 -524h387z" />
    <glyph glyph-name="abreve" unicode="&#x103;" horiz-adv-x="1113" 
d="M429 -20q-157 0 -243 79q-87 79 -63 213q26 140 158 223q133 83 302 83q103 0 188 -25l3 19q10 59 -32 94.5t-125 35.5q-136 0 -250 -107l-141 187q83 77 206 138q122 60 261 60q219 0 325 -109q105 -110 71 -301l-101 -570h-299l17 98q-48 -53 -122.5 -85.5
t-154.5 -32.5zM729 1111q-138 0 -212 89q-74 90 -55 236h210q-8 -57 17.5 -92.5t74.5 -35.5q51 0 88 35t48 93h210q-33 -147 -137 -236t-244 -89zM428 291q-7 -43 23 -69.5t85 -26.5q75 0 131 46q57 46 70 121q-51 25 -132 25q-75 0 -122 -25.5t-55 -70.5z" />
    <glyph glyph-name="Aogonek" unicode="&#x104;" horiz-adv-x="1456" 
d="M485 249l-136 -249h-352l775 1358h390l298 -1358h-134q-216 -113 -230 -194q-6 -35 15 -56t64 -21q57 0 114 27l33 -176q-97 -57 -230 -57q-120 0 -180 57.5t-43 153.5q25 151 239 267l-48 248h-575zM910 1029l-286 -524h387z" />
    <glyph glyph-name="aogonek" unicode="&#x105;" horiz-adv-x="1113" 
d="M429 -20q-157 0 -243 79q-87 79 -63 213q26 140 158 223q133 83 302 83q103 0 188 -25l3 19q10 59 -32 94.5t-125 35.5q-136 0 -250 -107l-141 187q83 77 206 138q122 60 261 60q219 0 325 -109q105 -110 71 -301l-101 -570h-81q-216 -113 -230 -194q-6 -35 15 -56
t64 -21q57 0 114 27l33 -176q-98 -57 -230 -57q-120 0 -180 57.5t-43 153.5q25 151 239 267l17 97q-48 -53 -122.5 -85.5t-154.5 -32.5zM428 291q-7 -43 23 -69.5t85 -26.5q75 0 131 46q57 46 70 121q-51 25 -132 25q-75 0 -122 -25.5t-55 -70.5z" />
    <glyph glyph-name="Cacute" unicode="&#x106;" horiz-adv-x="1439" 
d="M786 -20q-199 0 -347 91t-214 252q-66 160 -31 357t157 357q122 159 303 251q180 90 379 90q181 0 332 -92q150 -94 214 -247l-286 -187q-53 110 -127 164t-187 54q-170 0 -294 -109t-154 -281t55 -281q86 -111 255 -111q215 0 397 216l219 -184q-125 -161 -301 -250
q-177 -90 -370 -90zM1522 1807l-322 -334h-261l221 334h362z" />
    <glyph glyph-name="cacute" unicode="&#x107;" horiz-adv-x="1080" 
d="M570 -20q-221 0 -338 142t-79 358t210 358t394 142q150 0 255 -72q105 -75 145 -185l-273 -173q-16 66 -63 103t-115 37q-90 0 -157 -60t-84 -150q-17 -92 30 -152q46 -61 136 -61q132 0 234 137l208 -174q-202 -250 -503 -250zM915 1113h-261l221 334h362z" />
    <glyph glyph-name="Ccircumflex" unicode="&#x108;" horiz-adv-x="1439" 
d="M786 -20q-199 0 -347 91t-214 252q-66 160 -31 357t157 357q122 159 303 251q180 90 379 90q181 0 332 -92q150 -94 214 -247l-286 -187q-53 110 -127 164t-187 54q-170 0 -294 -109t-154 -281t55 -281q86 -111 255 -111q215 0 397 216l219 -184q-125 -161 -301 -250
q-177 -90 -370 -90zM1083 1640l-151 -169h-264l353 370h196l221 -370h-264z" />
    <glyph glyph-name="ccircumflex" unicode="&#x109;" horiz-adv-x="1080" 
d="M570 -20q-221 0 -338 142t-79 358t210 358t394 142q150 0 255 -72q105 -75 145 -185l-273 -173q-16 66 -63 103t-115 37q-90 0 -157 -60t-84 -150q-17 -92 30 -152q46 -61 136 -61q132 0 234 137l208 -174q-202 -250 -503 -250zM806 1253l-151 -169h-264l352 370h196
l222 -370h-264z" />
    <glyph glyph-name="Cdotaccent" unicode="&#x10a;" horiz-adv-x="1439" 
d="M786 -20q-199 0 -347 91t-214 252q-66 160 -31 357t157 357q122 159 303 251q180 90 379 90q181 0 332 -92q150 -94 214 -247l-286 -187q-53 110 -127 164t-187 54q-170 0 -294 -109t-154 -281t55 -281q86 -111 255 -111q215 0 397 216l219 -184q-125 -161 -301 -250
q-177 -90 -370 -90zM1056 1467q-76 0 -115.5 48t-26.5 124q14 77 71 125q55 48 132 48t116.5 -48t26.5 -125q-13 -76 -70 -124t-134 -48z" />
    <glyph glyph-name="cdotaccent" unicode="&#x10b;" horiz-adv-x="1080" 
d="M570 -20q-221 0 -338 142t-79 358t210 358t394 142q150 0 255 -72q105 -75 145 -185l-273 -173q-16 66 -63 103t-115 37q-90 0 -157 -60t-84 -150q-17 -92 30 -152q46 -61 136 -61q132 0 234 137l208 -174q-202 -250 -503 -250zM812 1133q-76 0 -115.5 48t-26.5 124
q14 77 71 125q55 48 132 48t116.5 -48t26.5 -125q-13 -76 -70 -124t-134 -48z" />
    <glyph glyph-name="Ccaron" unicode="&#x10c;" horiz-adv-x="1439" 
d="M786 -20q-199 0 -347 91t-214 252q-66 160 -31 357t157 357q122 159 303 251q180 90 379 90q181 0 332 -92q150 -94 214 -247l-286 -187q-53 110 -127 164t-187 54q-170 0 -294 -109t-154 -281t55 -281q86 -111 255 -111q215 0 397 216l219 -184q-125 -161 -301 -250
q-177 -90 -370 -90zM1145 1481h-196l-222 370h264l92 -169l150 169h264z" />
    <glyph glyph-name="ccaron" unicode="&#x10d;" horiz-adv-x="1080" 
d="M570 -20q-221 0 -338 142t-79 358t210 358t394 142q150 0 255 -72q105 -75 145 -185l-273 -173q-16 66 -63 103t-115 37q-90 0 -157 -60t-84 -150q-17 -92 30 -152q46 -61 136 -61q132 0 234 137l208 -174q-202 -250 -503 -250zM873 1096h-196l-222 370h264l92 -169
l150 169h264z" />
    <glyph glyph-name="Dcaron" unicode="&#x10e;" horiz-adv-x="1523" 
d="M1051 1481h-196l-222 370h264l92 -169l150 169h264zM757 0h-594l239 1358h594q139 0 258.5 -52.5t197.5 -144.5t109.5 -218t7.5 -263q-32 -185 -152.5 -341.5t-296 -247.5t-363.5 -91zM916 1081h-233l-142 -805h233q169 0 297 117t158 287t-57 285q-89 116 -256 116z" />
    <glyph glyph-name="dcaron" unicode="&#x10f;" horiz-adv-x="1379" 
d="M514 -20q-202 0 -299 141q-99 139 -61 357q18 102 64 192.5t113.5 159.5t161 109.5t198.5 40.5q196 0 269 -121l97 549h306l-248 -1408h-305l3 74q-50 -44 -129.5 -69t-169.5 -25zM1795 1408l-149 -442h-226l78 442h297zM472 480q-16 -94 33 -156q50 -62 140 -62
q92 0 160 62.5t84 155.5q16 95 -31 157q-46 61 -136 61q-95 0 -164.5 -62t-85.5 -156z" />
    <glyph glyph-name="Dcroat" unicode="&#x110;" horiz-adv-x="1596" 
d="M236 0l106 604h-132l32 185h133l100 569h594q139 0 258.5 -52.5t197.5 -144.5t109.5 -218t7.5 -263q-32 -185 -152.5 -341.5t-296 -247.5t-363.5 -91h-594zM1049 789l-32 -185h-345l-58 -328h233q169 0 297 117t158 287t-57 285q-89 116 -256 116h-233l-52 -292h345z" />
    <glyph glyph-name="dcroat" unicode="&#x111;" horiz-adv-x="1207" 
d="M514 -20q-202 0 -299 141q-99 139 -61 357q18 102 64 192.5t113.5 159.5t161 109.5t198.5 40.5q196 0 269 -121l41 233h-286l32 184h287l23 132h306l-23 -132h111l-32 -184h-112l-192 -1092h-305l3 74q-50 -44 -129.5 -69t-169.5 -25zM472 480q-16 -94 33 -156
q50 -62 140 -62q92 0 160 62.5t84 155.5q16 95 -31 157q-46 61 -136 61q-95 0 -164.5 -62t-85.5 -156z" />
    <glyph glyph-name="Emacron" unicode="&#x112;" horiz-adv-x="1209" 
d="M641 1705h591l-36 -204h-591zM541 276h644l-49 -276h-973l239 1358h963l-48 -277h-634l-45 -252h555l-48 -276h-555z" />
    <glyph glyph-name="emacron" unicode="&#x113;" horiz-adv-x="1103" 
d="M1089 1369l-36 -204h-591l36 204h591zM581 -20q-228 0 -347 140t-80 360q37 218 195.5 359t377.5 141q187 0 308 -113q61 -57 85.5 -149.5t3.5 -206.5q-8 -46 -29 -112h-648q-5 -74 51 -113q53 -40 134 -40q59 0 121.5 32t114.5 87l169 -176q-80 -99 -203 -154t-253 -55z
M480 584h366q7 58 -36 103q-44 45 -118 45q-77 0 -134 -41.5t-78 -106.5z" />
    <glyph glyph-name="Ebreve" unicode="&#x114;" horiz-adv-x="1209" 
d="M914 1468q-138 0 -212 89q-74 90 -55 236h210q-8 -57 17.5 -92.5t74.5 -35.5q51 0 88 35t48 93h210q-32 -143 -134.5 -234t-246.5 -91zM1136 0h-973l239 1358h963l-48 -277h-634l-45 -252h555l-48 -276h-555l-49 -277h644z" />
    <glyph glyph-name="ebreve" unicode="&#x115;" horiz-adv-x="1103" 
d="M768 1111q-138 0 -212 89q-74 90 -55 236h210q-8 -57 17.5 -92.5t74.5 -35.5q51 0 88 35t48 93h210q-32 -143 -134.5 -234t-246.5 -91zM581 -20q-228 0 -347 140t-80 360q37 218 195.5 359t377.5 141q187 0 308 -113q61 -57 85.5 -149.5t3.5 -206.5q-8 -46 -29 -112h-648
q-5 -74 51 -113q53 -40 134 -40q59 0 121.5 32t114.5 87l169 -176q-80 -99 -203 -154t-253 -55zM692 732q-77 0 -134 -41.5t-78 -106.5h366q7 58 -36 103q-44 45 -118 45z" />
    <glyph glyph-name="Edotaccent" unicode="&#x116;" horiz-adv-x="1209" 
d="M923 1467q-76 0 -115.5 48t-26.5 124q14 76 70 124.5t133 48.5t116.5 -48t26.5 -125q-14 -77 -70 -124.5t-134 -47.5zM1136 0h-973l239 1358h963l-48 -277h-634l-45 -252h555l-48 -276h-555l-49 -277h644z" />
    <glyph glyph-name="edotaccent" unicode="&#x117;" horiz-adv-x="1103" 
d="M771 1133q-76 0 -115.5 48t-26.5 124q14 76 70 124.5t133 48.5t116.5 -48t26.5 -125q-14 -77 -70 -124.5t-134 -47.5zM581 -20q-228 0 -347 140t-80 360q37 218 195.5 359t377.5 141q187 0 308 -113q61 -57 85.5 -149.5t3.5 -206.5q-8 -46 -29 -112h-648q-5 -74 51 -113
q53 -40 134 -40q59 0 121.5 32t114.5 87l169 -176q-80 -99 -203 -154t-253 -55zM692 732q-77 0 -134 -41.5t-78 -106.5h366q7 58 -36 103q-44 45 -118 45z" />
    <glyph glyph-name="Eogonek" unicode="&#x118;" horiz-adv-x="1209" 
d="M917 0h-754l239 1358h963l-48 -277h-634l-45 -252h555l-48 -276h-555l-49 -277h644l-49 -276q-216 -113 -230 -194q-6 -35 15 -56t64 -21q57 0 114 27l33 -176q-98 -57 -230 -57q-120 0 -180 57.5t-43 153.5q25 150 238 266z" />
    <glyph glyph-name="eogonek" unicode="&#x119;" horiz-adv-x="1103" 
d="M490 -13q-188 29 -279 163t-57 330q37 218 195.5 359t377.5 141q187 0 308 -113q61 -57 85.5 -149.5t3.5 -206.5q-8 -46 -29 -112h-648q-5 -74 51 -113q53 -40 134 -40q59 0 121.5 32t114.5 87l169 -176q-54 -67 -133.5 -117t-173.5 -74q-214 -113 -227 -192
q-6 -35 15 -56t64 -21q57 0 114 27l33 -176q-97 -57 -230 -57q-120 0 -180 57.5t-43 153.5q25 142 214 253zM480 584h366q7 58 -36 103q-44 45 -118 45q-77 0 -134 -41.5t-78 -106.5z" />
    <glyph glyph-name="Ecaron" unicode="&#x11a;" horiz-adv-x="1209" 
d="M828 1481l-222 370h264l92 -169l150 169h264l-352 -370h-196zM1136 0h-973l239 1358h963l-48 -277h-634l-45 -252h555l-48 -276h-555l-49 -277h644z" />
    <glyph glyph-name="ecaron" unicode="&#x11b;" horiz-adv-x="1103" 
d="M863 1096h-196l-222 370h264l92 -169l150 169h264zM581 -20q-228 0 -347 140t-80 360q37 218 195.5 359t377.5 141q187 0 308 -113q61 -57 85.5 -149.5t3.5 -206.5q-8 -46 -29 -112h-648q-5 -74 51 -113q53 -40 134 -40q59 0 121.5 32t114.5 87l169 -176
q-80 -99 -203 -154t-253 -55zM480 584h366q7 58 -36 103q-44 45 -118 45q-77 0 -134 -41.5t-78 -106.5z" />
    <glyph glyph-name="Gcircumflex" unicode="&#x11c;" horiz-adv-x="1534" 
d="M1054 1640l-151 -169h-264l353 370h196l221 -370h-264zM786 -20q-124 0 -232 37t-195.5 115.5t-132.5 191.5q-66 161 -32 356q34 197 156 357t302 250.5t381 90.5q169 0 313 -79.5t216 -225.5l-286 -187q-94 184 -297 184q-171 0 -294.5 -110t-153.5 -280
q-30 -171 56 -281q85 -111 254 -111q114 0 213 48.5t147 143.5h-358l48 276h707q-4 -52 -19 -142q-24 -138 -99 -257t-181.5 -201.5t-239.5 -129t-273 -46.5z" />
    <glyph glyph-name="gcircumflex" unicode="&#x11d;" horiz-adv-x="1253" 
d="M698 1084h-264l352 370h196l222 -370h-264l-91 169zM37 -212l220 187q55 -65 120 -95t153 -30q59 0 116 18.5t105.5 65t60.5 113.5l9 53q-120 -120 -304 -120q-193 0 -293 142t-63 357q22 139 101 255.5t194 182t238 63.5q183 0 261 -121l28 101h305l-163 -926
q-19 -110 -81.5 -198.5t-151.5 -143.5t-193 -83.5t-213 -28.5q-152 0 -267.5 54.5t-181.5 153.5zM719 700q-95 0 -162.5 -63t-83.5 -158q-17 -97 30 -159t138 -62q95 0 162.5 63t83.5 158q17 99 -29 159t-139 62z" />
    <glyph glyph-name="Gbreve" unicode="&#x11e;" horiz-adv-x="1534" 
d="M1023 1468q-138 0 -212 89q-74 90 -55 236h210q-8 -57 17.5 -92.5t74.5 -35.5q51 0 88 35t48 93h210q-32 -143 -134.5 -234t-246.5 -91zM786 -20q-124 0 -232 37t-195.5 115.5t-132.5 191.5q-66 161 -32 356q34 197 156 357t302 250.5t381 90.5q169 0 313 -79.5
t216 -225.5l-286 -187q-94 184 -297 184q-171 0 -294.5 -110t-153.5 -280q-30 -171 56 -281q85 -111 254 -111q114 0 213 48.5t147 143.5h-358l48 276h707q-4 -52 -19 -142q-24 -138 -99 -257t-181.5 -201.5t-239.5 -129t-273 -46.5z" />
    <glyph glyph-name="gbreve" unicode="&#x11f;" horiz-adv-x="1253" 
d="M811 1111q-138 0 -212 89q-74 90 -55 236h210q-8 -57 17.5 -92.5t74.5 -35.5q51 0 88 35t48 93h210q-32 -143 -134.5 -234t-246.5 -91zM486 -420q-152 0 -267.5 54.5t-181.5 153.5l220 187q55 -65 120 -95t153 -30q59 0 116 18.5t105.5 65t60.5 113.5l9 53
q-120 -120 -304 -120q-193 0 -293 142t-63 357q22 139 101 255.5t194 182t238 63.5q183 0 261 -121l28 101h305l-163 -926q-19 -110 -81.5 -198.5t-151.5 -143.5t-193 -83.5t-213 -28.5zM719 700q-95 0 -162.5 -63t-83.5 -158q-17 -97 30 -159t138 -62q95 0 162.5 63
t83.5 158q17 99 -29 159t-139 62z" />
    <glyph glyph-name="Gdotaccent" unicode="&#x120;" horiz-adv-x="1534" 
d="M1030 1467q-76 0 -115.5 48t-26.5 124q14 76 70 124.5t133 48.5t116.5 -48t26.5 -125q-14 -77 -70 -124.5t-134 -47.5zM786 -20q-124 0 -232 37t-195.5 115.5t-132.5 191.5q-66 161 -32 356q34 197 156 357t302 250.5t381 90.5q169 0 313 -79.5t216 -225.5l-286 -187
q-94 184 -297 184q-171 0 -294.5 -110t-153.5 -280q-30 -171 56 -281q85 -111 254 -111q114 0 213 48.5t147 143.5h-358l48 276h707q-4 -52 -19 -142q-24 -138 -99 -257t-181.5 -201.5t-239.5 -129t-273 -46.5z" />
    <glyph glyph-name="gdotaccent" unicode="&#x121;" horiz-adv-x="1253" 
d="M783 1133q-76 0 -115.5 48t-26.5 124q14 76 70 124.5t133 48.5t116.5 -48t26.5 -125q-14 -77 -70 -124.5t-134 -47.5zM486 -420q-152 0 -267.5 54.5t-181.5 153.5l220 187q55 -65 120 -95t153 -30q59 0 116 18.5t105.5 65t60.5 113.5l9 53q-120 -120 -304 -120
q-193 0 -293 142t-63 357q22 139 101 255.5t194 182t238 63.5q183 0 261 -121l28 101h305l-163 -926q-19 -110 -81.5 -198.5t-151.5 -143.5t-193 -83.5t-213 -28.5zM719 700q-95 0 -162.5 -63t-83.5 -158q-17 -97 30 -159t138 -62q95 0 162.5 63t83.5 158q17 99 -29 159
t-139 62z" />
    <glyph glyph-name="uni0122" unicode="&#x122;" horiz-adv-x="1534" 
d="M786 -20q-124 0 -232 37t-195.5 115.5t-132.5 191.5q-66 161 -32 356q34 197 156 357t302 250.5t381 90.5q169 0 313 -79.5t216 -225.5l-286 -187q-94 184 -297 184q-171 0 -294.5 -110t-153.5 -280q-30 -171 56 -281q85 -111 254 -111q114 0 213 48.5t147 143.5h-358
l48 276h707q-4 -52 -19 -142q-24 -138 -99 -257t-181.5 -201.5t-239.5 -129t-273 -46.5zM911 -96l-149 -442h-226l78 442h297z" />
    <glyph glyph-name="uni0123" unicode="&#x123;" horiz-adv-x="1253" 
d="M902 1113h-297l149 442h226zM486 -420q-152 0 -267.5 54.5t-181.5 153.5l220 187q55 -65 120 -95t153 -30q59 0 116 18.5t105.5 65t60.5 113.5l9 53q-120 -120 -304 -120q-193 0 -293 142t-63 357q22 139 101 255.5t194 182t238 63.5q183 0 261 -121l28 101h305
l-163 -926q-19 -110 -81.5 -198.5t-151.5 -143.5t-193 -83.5t-213 -28.5zM719 700q-95 0 -162.5 -63t-83.5 -158q-17 -97 30 -159t138 -62q95 0 162.5 63t83.5 158q17 99 -29 159t-139 62z" />
    <glyph glyph-name="Hcircumflex" unicode="&#x124;" horiz-adv-x="1571" 
d="M1075 1640l-151 -169h-264l353 370h196l221 -370h-264zM492 0h-329l239 1358h329l-92 -527h588l92 527h329l-239 -1358h-329l98 555h-588z" />
    <glyph glyph-name="hcircumflex" unicode="&#x125;" horiz-adv-x="1216" 
d="M430 1489h-264l352 370h196l222 -370h-264l-92 169zM455 0h-316l248 1408h315l-93 -531q115 103 300 103q144 0 232.5 -96.5t59.5 -259.5l-110 -624h-315l94 534q13 74 -28 117q-43 41 -105 41q-72 0 -123.5 -43.5t-64.5 -114.5z" />
    <glyph glyph-name="Hbar" unicode="&#x126;" horiz-adv-x="1563" 
d="M586 555l-98 -555h-329l177 1004h-130l32 184h130l30 170h329l-30 -170h588l30 170h329l-30 -170h130l-32 -184h-130l-177 -1004h-329l98 555h-588zM1223 831l30 173h-588l-30 -173h588z" />
    <glyph glyph-name="hbar" unicode="&#x127;" horiz-adv-x="1238" 
d="M253 1276h111l23 132h315l-23 -132h298l-32 -184h-298l-38 -215q115 103 300 103q144 0 232.5 -96.5t59.5 -259.5l-110 -624h-315l94 534q13 74 -28 117q-43 41 -105 41q-72 0 -123.5 -43.5t-64.5 -114.5l-94 -534h-316l192 1092h-110z" />
    <glyph glyph-name="Itilde" unicode="&#x128;" horiz-adv-x="654" 
d="M332 1493l-96 104q146 207 294 207q43 0 130 -48q86 -48 113 -48q57 0 128 86l97 -104q-147 -207 -296 -207q-40 -2 -125.5 48t-117.5 48q-47 0 -127 -86zM492 0h-329l239 1358h329z" />
    <glyph glyph-name="itilde" unicode="&#x129;" horiz-adv-x="592" 
d="M238 1133l-97 104q147 207 295 207q43 0 130 -48q85 -48 113 -48q57 0 128 86l97 -104q-147 -207 -296 -207q-40 -2 -125.5 48t-117.5 48q-50 0 -127 -86zM454 0h-315l169 960h315z" />
    <glyph glyph-name="Imacron" unicode="&#x12a;" horiz-adv-x="654" 
d="M333 1705h591l-36 -204h-591zM402 1358h329l-239 -1358h-329z" />
    <glyph glyph-name="imacron" unicode="&#x12b;" horiz-adv-x="592" 
d="M242 1369h591l-36 -204h-591zM308 960h315l-169 -960h-315z" />
    <glyph glyph-name="Ibreve" unicode="&#x12c;" horiz-adv-x="654" 
d="M586 1468q-138 0 -212 89q-74 90 -55 236h210q-8 -57 17.5 -92.5t74.5 -35.5q51 0 88 35t48 93h210q-32 -143 -134.5 -234t-246.5 -91zM492 0h-329l239 1358h329z" />
    <glyph glyph-name="ibreve" unicode="&#x12d;" horiz-adv-x="592" 
d="M492 1111q-138 0 -212 89q-74 90 -55 236h210q-8 -57 17.5 -92.5t74.5 -35.5q51 0 88 35t48 93h210q-32 -143 -134.5 -234t-246.5 -91zM454 0h-315l169 960h315z" />
    <glyph glyph-name="Iogonek" unicode="&#x12e;" horiz-adv-x="654" 
d="M207 -477q-120 0 -180 57.5t-43 153.5q25 150 238 266h-59l239 1358h329l-239 -1358h-51q-216 -113 -230 -194q-6 -35 15 -56t64 -21q57 0 114 27l33 -176q-97 -57 -230 -57z" />
    <glyph glyph-name="iogonek" unicode="&#x12f;" horiz-adv-x="592" 
d="M495 1133q-76 0 -115.5 48t-26.5 124q14 76 70 124.5t133 48.5t116.5 -48t26.5 -125q-14 -77 -70 -124.5t-134 -47.5zM171 -477q-120 0 -180 57.5t-43 153.5q25 150 238 266h-47l169 960h315l-169 -960h-49q-216 -113 -230 -194q-6 -35 15 -56t64 -21q57 0 114 27
l33 -176q-98 -57 -230 -57z" />
    <glyph glyph-name="Idotaccent" unicode="&#x130;" horiz-adv-x="654" 
d="M586 1467q-76 0 -115.5 48t-26.5 124q14 76 70 124.5t133 48.5t116.5 -48t26.5 -125q-14 -77 -70 -124.5t-134 -47.5zM492 0h-329l239 1358h329z" />
    <glyph glyph-name="dotlessi" unicode="&#x131;" horiz-adv-x="592" 
d="M308 960h315l-169 -960h-315z" />
    <glyph glyph-name="IJ" unicode="&#x132;" horiz-adv-x="1697" 
d="M608 225l255 211q80 -158 218 -158q87 0 147 56t78 158l152 866h329l-157 -892q-39 -228 -206.5 -357t-402.5 -129q-137 0 -249.5 62.5t-163.5 182.5zM731 1358l-239 -1358h-329l239 1358h329z" />
    <glyph glyph-name="ij" unicode="&#x133;" horiz-adv-x="1093" 
d="M996 1133q-76 0 -115.5 48t-26.5 124q14 76 70 124.5t133 48.5t116.5 -48t26.5 -125q-14 -77 -70 -124.5t-134 -47.5zM496 1133q-76 0 -115.5 48t-26.5 124q14 76 70 124.5t133 48.5t116.5 -48t26.5 -125q-14 -77 -70 -124.5t-134 -47.5zM302 -377l69 248q69 -21 116 -21
q127 0 151 139l171 971h315l-175 -994q-33 -185 -159 -286q-127 -100 -282 -100q-141 0 -206 43zM623 960l-169 -960h-315l169 960h315z" />
    <glyph glyph-name="Jcircumflex" unicode="&#x134;" horiz-adv-x="1122" 
d="M1093 1640l-151 -169h-264l353 370h196l221 -370h-264zM33 225l255 211q80 -158 218 -158q87 0 147 56t78 158l152 866h329l-157 -892q-39 -228 -206.5 -357t-402.5 -129q-137 0 -249.5 62.5t-163.5 182.5z" />
    <glyph glyph-name="jcircumflex" unicode="&#x135;" horiz-adv-x="578" 
d="M359 1084h-264l352 370h196l222 -370h-264l-91 169zM-213 -377l69 248q69 -21 116 -21q127 0 151 139l171 971h315l-175 -994q-33 -185 -159 -286q-127 -100 -282 -100q-141 0 -206 43z" />
    <glyph glyph-name="uni0136" unicode="&#x136;" horiz-adv-x="1442" 
d="M564 406l-72 -406h-329l239 1358h329l-100 -572l629 572h415l-628 -564l412 -794h-400l-290 585zM875 -96l-149 -442h-226l78 442h297z" />
    <glyph glyph-name="uni0137" unicode="&#x137;" horiz-adv-x="1174" 
d="M454 0h-315l248 1408h315l-132 -751l354 303h411l-486 -406l333 -554h-384l-194 359l-102 -86zM727 -96l-149 -442h-226l78 442h297z" />
    <glyph glyph-name="kgreenlandic" unicode="&#x138;" horiz-adv-x="1174" 
d="M454 0h-315l169 960h315l-53 -303l354 303h411l-486 -406l333 -554h-384l-194 359l-102 -86z" />
    <glyph glyph-name="Lacute" unicode="&#x139;" horiz-adv-x="1200" 
d="M674 1807h362l-322 -334h-261zM541 276h689l-49 -276h-1018l239 1358h329z" />
    <glyph glyph-name="lacute" unicode="&#x13a;" horiz-adv-x="592" 
d="M649 1826h362l-322 -334h-261zM387 1408h315l-248 -1408h-315z" />
    <glyph glyph-name="uni013B" unicode="&#x13b;" horiz-adv-x="1200" 
d="M541 276h689l-49 -276h-1018l239 1358h329zM667 -538h-226l78 442h297z" />
    <glyph glyph-name="uni013C" unicode="&#x13c;" horiz-adv-x="592" 
d="M387 1408h315l-248 -1408h-315zM276 -538h-226l78 442h297z" />
    <glyph glyph-name="Lcaron" unicode="&#x13d;" horiz-adv-x="1200" 
d="M1181 0h-1018l239 1358h329l-190 -1082h689zM1280 1358l-148 -442h-226l77 442h297z" />
    <glyph glyph-name="lcaron" unicode="&#x13e;" horiz-adv-x="670" 
d="M454 0h-315l248 1408h315zM965 966h-226l78 442h297z" />
    <glyph glyph-name="Ldot" unicode="&#x13f;" horiz-adv-x="1203" 
d="M1181 0h-1018l239 1358h329l-190 -1082h689zM976 526q-76 0 -115.5 48t-26.5 124q14 76 70 124.5t133 48.5t116.5 -48t26.5 -125q-14 -77 -70 -124.5t-134 -47.5z" />
    <glyph glyph-name="ldot" unicode="&#x140;" horiz-adv-x="803" 
d="M454 0h-315l248 1408h315zM776 507q-76 0 -115 48t-26 124q14 76 69.5 124.5t132.5 48.5t117 -48t27 -125q-14 -77 -70.5 -124.5t-134.5 -47.5z" />
    <glyph glyph-name="Lslash" unicode="&#x141;" horiz-adv-x="1286" 
d="M249 0l119 677l-212 -13l33 184l211 13l88 497h329l-84 -478l300 18l-32 -184l-300 -18l-74 -420h689l-49 -276h-1018z" />
    <glyph glyph-name="lslash" unicode="&#x142;" horiz-adv-x="729" 
d="M285 439l-170 -59l30 170l171 63l140 795h315l-118 -671l170 63l-32 -184l-170 -59l-98 -557h-315z" />
    <glyph glyph-name="Nacute" unicode="&#x143;" horiz-adv-x="1618" 
d="M1534 1807l-322 -334h-261l221 334h362zM492 0h-329l239 1358h280l538 -828l146 828h329l-239 -1358h-285l-534 820z" />
    <glyph glyph-name="nacute" unicode="&#x144;" horiz-adv-x="1215" 
d="M995 1113h-261l221 334h362zM517 534l-94 -534h-315l169 960h289l-8 -101q59 59 142.5 90t176.5 31q144 0 232.5 -96.5t59.5 -259.5l-110 -624h-315l94 534q13 74 -28 117q-43 41 -105 41q-72 0 -123.5 -43.5t-64.5 -114.5z" />
    <glyph glyph-name="uni0145" unicode="&#x145;" horiz-adv-x="1618" 
d="M492 0h-329l239 1358h280l538 -828l146 828h329l-239 -1358h-285l-534 820zM980 -96l-149 -442h-226l78 442h297z" />
    <glyph glyph-name="uni0146" unicode="&#x146;" horiz-adv-x="1215" 
d="M423 0h-315l169 960h289l-8 -101q59 59 142.5 90t176.5 31q144 0 232.5 -96.5t59.5 -259.5l-110 -624h-315l94 534q13 74 -28 117q-43 41 -105 41q-72 0 -123.5 -43.5t-64.5 -114.5zM753 -96l-149 -442h-226l78 442h297z" />
    <glyph glyph-name="Ncaron" unicode="&#x147;" horiz-adv-x="1618" 
d="M1179 1481h-196l-222 370h264l92 -169l150 169h264zM492 0h-329l239 1358h280l538 -828l146 828h329l-239 -1358h-285l-534 820z" />
    <glyph glyph-name="ncaron" unicode="&#x148;" horiz-adv-x="1215" 
d="M933 1096h-196l-222 370h264l92 -169l150 169h264zM423 0h-315l169 960h289l-8 -101q59 59 142.5 90t176.5 31q144 0 232.5 -96.5t59.5 -259.5l-110 -624h-315l94 534q13 74 -28 117q-43 41 -105 41q-72 0 -123.5 -43.5t-64.5 -114.5z" />
    <glyph glyph-name="napostrophe" unicode="&#x149;" horiz-adv-x="1465" 
d="M712 1428l-314 -516h-226l228 516h312zM673 0h-315l169 960h289l-8 -101q59 59 142.5 90t176.5 31q144 0 232.5 -96.5t59.5 -259.5l-110 -624h-315l94 534q13 74 -28 117q-43 41 -105 41q-72 0 -123.5 -43.5t-64.5 -114.5z" />
    <glyph glyph-name="Eng" unicode="&#x14a;" horiz-adv-x="1618" 
d="M637 820l-145 -820h-329l239 1358h280l538 -828l146 828h329l-245 -1392q-33 -185 -158 -286q-125 -100 -281 -100q-130 0 -186 43l69 248q63 -21 106 -21q101 0 125 139l11 64z" />
    <glyph glyph-name="eng" unicode="&#x14b;" horiz-adv-x="1215" 
d="M423 0h-315l169 960h289l-8 -101q59 59 142.5 90t176.5 31q144 0 232.5 -96.5t59.5 -259.5l-110 -624h31l-6 -34q-33 -185 -153 -286q-121 -100 -268 -100q-121 0 -179 41l70 248q39 -17 81 -17q112 0 138 137l2 11h-31l94 534q13 74 -28 117q-43 41 -105 41
q-72 0 -123.5 -43.5t-64.5 -114.5z" />
    <glyph glyph-name="Omacron" unicode="&#x14c;" horiz-adv-x="1568" 
d="M1381 1705l-36 -204h-591l36 204h591zM780 -20q-140 0 -261 53t-202 146t-114.5 224.5t-7.5 276.5q34 193 156 353.5t301 252.5t375 92q143 0 265 -54t202 -148t112 -224t8 -272q-26 -144 -104.5 -273.5t-189.5 -223t-252.5 -148.5t-287.5 -55zM971 1059
q-163 0 -286.5 -108.5t-151.5 -270.5q-29 -165 56 -273q85 -109 248 -109q165 0 288 109t152 273t-58 272q-89 107 -248 107z" />
    <glyph glyph-name="omacron" unicode="&#x14d;" horiz-adv-x="1167" 
d="M1085 1165h-591l36 204h591zM580 -20q-221 0 -343 143q-121 143 -84 357q38 218 210 359t394 141q144 2 252 -64t155.5 -182t20.5 -254q-22 -138 -110.5 -254t-220 -182t-274.5 -64zM465 480q-17 -92 30 -152q46 -61 136 -61q91 0 158.5 61.5t83.5 151.5q16 89 -31 150
q-46 60 -136 60t-157 -60t-84 -150z" />
    <glyph glyph-name="Obreve" unicode="&#x14e;" horiz-adv-x="1568" 
d="M1044 1468q-138 0 -212 89q-74 90 -55 236h210q-8 -57 17.5 -92.5t74.5 -35.5q51 0 88 35t48 93h210q-32 -143 -134.5 -234t-246.5 -91zM780 -20q-140 0 -261 53t-202 146t-114.5 224.5t-7.5 276.5q34 193 156 353.5t301 252.5t375 92q143 0 265 -54t202 -148t112 -224
t8 -272q-26 -144 -104.5 -273.5t-189.5 -223t-252.5 -148.5t-287.5 -55zM971 1059q-163 0 -286.5 -108.5t-151.5 -270.5q-29 -165 56 -273q85 -109 248 -109q165 0 288 109t152 273t-58 272q-89 107 -248 107z" />
    <glyph glyph-name="obreve" unicode="&#x14f;" horiz-adv-x="1167" 
d="M780 1111q-138 0 -212 89q-74 90 -55 236h210q-8 -57 17.5 -92.5t74.5 -35.5q51 0 88 35t48 93h210q-32 -143 -134.5 -234t-246.5 -91zM580 -20q-221 0 -343 143q-121 143 -84 357q38 218 210 359t394 141q144 2 252 -64t155.5 -182t20.5 -254q-22 -138 -110.5 -254
t-220 -182t-274.5 -64zM465 480q-17 -92 30 -152q46 -61 136 -61q91 0 158.5 61.5t83.5 151.5q16 89 -31 150q-46 60 -136 60t-157 -60t-84 -150z" />
    <glyph glyph-name="Ohungarumlaut" unicode="&#x150;" horiz-adv-x="1568" 
d="M1369 1473h-251l241 334h342zM1291 1807l-292 -334h-251l221 334h322zM780 -20q-140 0 -261 53t-202 146t-114.5 224.5t-7.5 276.5q34 193 156 353.5t301 252.5t375 92q143 0 265 -54t202 -148t112 -224t8 -272q-26 -144 -104.5 -273.5t-189.5 -223t-252.5 -148.5
t-287.5 -55zM971 1059q-163 0 -286.5 -108.5t-151.5 -270.5q-29 -165 56 -273q85 -109 248 -109q165 0 288 109t152 273t-58 272q-89 107 -248 107z" />
    <glyph glyph-name="ohungarumlaut" unicode="&#x151;" horiz-adv-x="1167" 
d="M1115 1113h-251l241 334h342zM1037 1447l-292 -334h-251l221 334h322zM580 -20q-221 0 -343 143q-121 143 -84 357q38 218 210 359t394 141q144 2 252 -64t155.5 -182t20.5 -254q-22 -138 -110.5 -254t-220 -182t-274.5 -64zM465 480q-17 -92 30 -152q46 -61 136 -61
q91 0 158.5 61.5t83.5 151.5q16 89 -31 150q-46 60 -136 60t-157 -60t-84 -150z" />
    <glyph glyph-name="OE" unicode="&#x152;" horiz-adv-x="2194" 
d="M770 -20q-139 0 -258 53t-198 146q-80 93 -112.5 224.5t-6.5 276.5q34 191 153.5 351t297 253.5t371.5 93.5q215 0 360 -133l20 113h953l-48 -277h-634l-45 -252h555l-48 -276h-555l-49 -277h644l-49 -276h-963l20 113q-193 -133 -408 -133zM971 1059
q-163 0 -286.5 -108.5t-151.5 -270.5q-29 -165 56 -273q85 -109 248 -109q165 0 288 109t152 273t-58 272q-89 107 -248 107z" />
    <glyph glyph-name="oe" unicode="&#x153;" horiz-adv-x="1823" 
d="M575 -20q-220 0 -340 143q-120 142 -82 357q38 217 208.5 358.5t390.5 141.5q105 0 188 -45.5t131 -127.5q159 173 382 173q185 0 304 -113q60 -57 83.5 -149.5t2.5 -206.5q-8 -46 -29 -112h-648q-5 -74 51 -113q53 -40 134 -40q59 0 121.5 32t114.5 87l169 -176
q-80 -99 -203 -154t-253 -55q-116 0 -204 46t-137 131q-78 -85 -177.5 -131t-206.5 -46zM1411 732q-77 0 -134 -41.5t-78 -106.5h366q7 58 -36 103q-44 45 -118 45zM465 480q-17 -92 30 -152q46 -61 136 -61q91 0 158.5 61.5t83.5 151.5q16 89 -31 150q-46 60 -136 60
t-157 -60t-84 -150z" />
    <glyph glyph-name="Racute" unicode="&#x154;" horiz-adv-x="1373" 
d="M1067 1473h-261l221 334h362zM491 0h-328l239 1358h686q196 0 308 -124q113 -126 79 -317q-25 -140 -115 -248t-224 -162l194 -508h-355l-175 469h-226zM681 1078l-58 -330h287q84 0 149 44.5t79 124.5q12 71 -34 116t-136 45h-287z" />
    <glyph glyph-name="racute" unicode="&#x155;" horiz-adv-x="836" 
d="M1127 1447l-322 -334h-261l221 334h362zM454 0h-315l169 960h297l-13 -131q46 71 120 111t158 40q55 0 113 -20l-67 -275q-57 21 -118 21q-102 0 -171 -61t-92 -183z" />
    <glyph glyph-name="uni0156" unicode="&#x156;" horiz-adv-x="1373" 
d="M574 468l-83 -468h-328l239 1358h686q196 0 308 -124q113 -126 79 -317q-25 -140 -115 -248t-224 -162l194 -508h-355l-175 469h-226zM968 1078h-287l-58 -330h287q84 0 149 44.5t79 124.5q12 71 -34 116t-136 45zM706 -538h-226l78 442h297z" />
    <glyph glyph-name="uni0157" unicode="&#x157;" horiz-adv-x="836" 
d="M454 0h-315l169 960h297l-13 -131q46 71 120 111t158 40q55 0 113 -20l-67 -275q-57 21 -118 21q-102 0 -171 -61t-92 -183zM428 -96l-149 -442h-226l78 442h297z" />
    <glyph glyph-name="Rcaron" unicode="&#x158;" horiz-adv-x="1373" 
d="M844 1481l-222 370h264l92 -169l150 169h264l-352 -370h-196zM491 0h-328l239 1358h686q196 0 308 -124q113 -126 79 -317q-25 -140 -115 -248t-224 -162l194 -508h-355l-175 469h-226zM968 1078h-287l-58 -330h287q84 0 149 44.5t79 124.5q12 71 -34 116t-136 45z" />
    <glyph glyph-name="rcaron" unicode="&#x159;" horiz-adv-x="836" 
d="M587 1096l-222 370h264l92 -169l150 169h264l-352 -370h-196zM535 462l-81 -462h-315l169 960h297l-13 -131q46 71 120 111t158 40q55 0 113 -20l-67 -275q-57 21 -118 21q-102 0 -171 -61t-92 -183z" />
    <glyph glyph-name="Sacute" unicode="&#x15a;" horiz-adv-x="1264" 
d="M1346 1807l-322 -334h-261l221 334h362zM650 -20q-115 0 -215.5 30.5t-185 103t-119.5 178.5l279 180q42 -90 122.5 -142.5t179.5 -52.5q28 0 60 5.5t66 16.5t58 32.5t29 50.5q4 23 -4.5 42t-23.5 32.5t-47.5 28t-59 23.5t-75.5 24q-14 3 -39 12q-239 78 -299 138
q-76 65 -89 147q-14 57 0 144q22 123 112 217.5t209 141t243 46.5q336 0 483 -290l-275 -179q-93 180 -259 180q-71 0 -121.5 -30.5t-58.5 -79.5q-6 -41 14 -61q24 -27 59 -41q40 -16 94 -33q178 -62 282 -111q78 -42 107 -69q57 -54 78 -117.5t4 -153.5q-18 -102 -79 -183
t-147 -130t-184 -74.5t-198 -25.5z" />
    <glyph glyph-name="sacute" unicode="&#x15b;" horiz-adv-x="978" 
d="M801 1113h-261l221 334h362zM502 -20q-294 0 -405 202l223 173q85 -130 228 -130q103 0 114 59q4 24 -20 36q-23 10 -101 30q-62 15 -100 26t-88.5 35.5t-85.5 57.5q-79 72 -56 200q24 135 149 224q124 87 302 87q133 0 224 -55q90 -55 134 -133l-213 -157
q-28 45 -77.5 73t-113.5 28q-54 0 -87 -16.5t-38 -46.5q-5 -25 31 -41.5t142 -42.5q144 -36 223 -100q90 -74 66 -206q-23 -131 -152 -217q-130 -86 -299 -86z" />
    <glyph glyph-name="Scircumflex" unicode="&#x15c;" horiz-adv-x="1264" 
d="M920 1640l-151 -169h-264l353 370h196l221 -370h-264zM130 292l279 180q42 -90 122.5 -142.5t179.5 -52.5q28 0 60 5.5t66 16.5t58 32.5t29 50.5q4 23 -4.5 42t-23.5 32.5t-47.5 28t-59 23.5t-75.5 24q-14 3 -39 12q-239 78 -299 138q-76 65 -89 147q-14 57 0 144
q22 123 112 217.5t209 141t243 46.5q336 0 483 -290l-275 -179q-93 180 -259 180q-71 0 -121.5 -30.5t-58.5 -79.5q-6 -41 14 -61q24 -27 59 -41q40 -16 94 -33q178 -62 282 -111q78 -42 107 -69q57 -54 78 -117.5t4 -153.5q-18 -102 -79 -183t-147 -130t-184 -74.5
t-198 -25.5q-115 0 -215.5 30.5t-185 103t-119.5 178.5z" />
    <glyph glyph-name="scircumflex" unicode="&#x15d;" horiz-adv-x="978" 
d="M581 1084h-264l352 370h196l222 -370h-264l-91 169zM97 182l223 173q85 -130 228 -130q103 0 114 59q4 24 -20 36q-23 10 -101 30q-62 15 -100 26t-88.5 35.5t-85.5 57.5q-79 72 -56 200q24 135 149 224q124 87 302 87q133 0 224 -55q90 -55 134 -133l-213 -157
q-28 45 -77.5 73t-113.5 28q-54 0 -87 -16.5t-38 -46.5q-5 -25 31 -41.5t142 -42.5q144 -36 223 -100q90 -74 66 -206q-23 -131 -152 -217q-130 -86 -299 -86q-294 0 -405 202z" />
    <glyph glyph-name="Scedilla" unicode="&#x15e;" horiz-adv-x="1264" 
d="M439 -179l97 167q-144 22 -254 98.5t-152 205.5l279 180q42 -90 122.5 -142.5t179.5 -52.5q28 0 60 5.5t66 16.5t58 32.5t29 50.5q4 23 -4.5 42t-23.5 32.5t-47.5 28t-59 23.5t-75.5 24q-14 3 -39 12q-239 78 -299 138q-76 65 -89 147q-14 57 0 144q22 123 112 217.5
t209 141t243 46.5q336 0 483 -290l-275 -179q-93 180 -259 180q-71 0 -121.5 -30.5t-58.5 -79.5q-6 -41 14 -61q24 -27 59 -41q40 -16 94 -33q178 -62 282 -111q78 -42 107 -69q57 -54 78 -117.5t4 -153.5q-17 -96 -72 -173.5t-133 -126.5t-167.5 -77t-185.5 -34l-30 -63
q103 -15 149.5 -66t33.5 -126q-10 -55 -48 -96.5t-91.5 -64t-108.5 -33t-109 -10.5q-100 0 -159 30l28 155q57 -19 127 -19q56 0 91.5 17.5t40.5 48.5t-24.5 48.5t-86.5 17.5h-74z" />
    <glyph glyph-name="scedilla" unicode="&#x15f;" horiz-adv-x="978" 
d="M296 -179l96 167q-205 31 -295 194l223 173q85 -130 228 -130q103 0 114 59q4 24 -20 36q-23 10 -101 30q-62 15 -100 26t-88.5 35.5t-85.5 57.5q-79 72 -56 200q24 135 149 224q124 87 302 87q133 0 224 -55q90 -55 134 -133l-213 -157q-28 45 -77.5 73t-113.5 28
q-54 0 -87 -16.5t-38 -46.5q-5 -25 31 -41.5t142 -42.5q144 -36 223 -100q90 -74 66 -206q-23 -128 -139 -208t-256 -92l-31 -64q103 -15 149.5 -66t33.5 -126q-10 -55 -48 -96.5t-91.5 -64t-108.5 -33t-109 -10.5q-101 0 -159 30l28 155q57 -19 127 -19q56 0 91.5 17.5
t40.5 48.5t-24.5 48.5t-86.5 17.5h-74z" />
    <glyph glyph-name="Scaron" unicode="&#x160;" horiz-adv-x="1264" 
d="M993 1481h-196l-222 370h264l92 -169l150 169h264zM130 292l279 180q42 -90 122.5 -142.5t179.5 -52.5q28 0 60 5.5t66 16.5t58 32.5t29 50.5q4 23 -4.5 42t-23.5 32.5t-47.5 28t-59 23.5t-75.5 24q-14 3 -39 12q-239 78 -299 138q-76 65 -89 147q-14 57 0 144
q22 123 112 217.5t209 141t243 46.5q336 0 483 -290l-275 -179q-93 180 -259 180q-71 0 -121.5 -30.5t-58.5 -79.5q-6 -41 14 -61q24 -27 59 -41q40 -16 94 -33q178 -62 282 -111q78 -42 107 -69q57 -54 78 -117.5t4 -153.5q-18 -102 -79 -183t-147 -130t-184 -74.5
t-198 -25.5q-115 0 -215.5 30.5t-185 103t-119.5 178.5z" />
    <glyph glyph-name="scaron" unicode="&#x161;" horiz-adv-x="978" 
d="M799 1096h-196l-222 370h264l92 -169l150 169h264zM97 182l223 173q85 -130 228 -130q103 0 114 59q4 24 -20 36q-23 10 -101 30q-62 15 -100 26t-88.5 35.5t-85.5 57.5q-79 72 -56 200q24 135 149 224q124 87 302 87q133 0 224 -55q90 -55 134 -133l-213 -157
q-28 45 -77.5 73t-113.5 28q-54 0 -87 -16.5t-38 -46.5q-5 -25 31 -41.5t142 -42.5q144 -36 223 -100q90 -74 66 -206q-23 -131 -152 -217q-130 -86 -299 -86q-294 0 -405 202z" />
    <glyph glyph-name="uni0162" unicode="&#x162;" horiz-adv-x="1160" 
d="M417 0l190 1075h-402l49 283h1131l-49 -283h-401l-190 -1075h-106l-39 -81q103 -15 149.5 -66t33.5 -126q-10 -55 -48 -96.5t-91.5 -64t-108.5 -33t-109 -10.5q-100 0 -159 30l28 155q57 -19 127 -19q56 0 91.5 17.5t40.5 48.5t-24.5 48.5t-86.5 17.5h-74l103 179h-55z
" />
    <glyph glyph-name="uni0163" unicode="&#x163;" horiz-adv-x="834" 
d="M146 -447l28 155q57 -19 127 -19q56 0 91.5 17.5t40.5 48.5t-24.5 48.5t-86.5 17.5h-74l114 197q-166 82 -123 324l64 361h-153l45 257h153l55 308h305l-55 -308h291l-45 -257h-281l-55 -310q-24 -136 118 -136q73 0 161 33l-23 -256q-116 -54 -265 -54q-5 0 -45 2
l-30 -63q103 -15 149.5 -66t33.5 -126q-10 -55 -48 -96.5t-91.5 -64t-108.5 -33t-109 -10.5q-101 0 -159 30z" />
    <glyph glyph-name="Tcaron" unicode="&#x164;" horiz-adv-x="1160" 
d="M940 1481h-196l-222 370h264l92 -169l150 169h264zM607 1075h-402l49 283h1131l-49 -283h-401l-190 -1075h-328z" />
    <glyph glyph-name="tcaron" unicode="&#x165;" horiz-adv-x="863" 
d="M959 1066h-226l78 442h297zM303 703h-153l45 257h153l55 308h305l-55 -308h291l-45 -257h-281l-55 -310q-24 -136 118 -136q73 0 161 33l-23 -256q-116 -54 -265 -54q-174 0 -260 89q-87 88 -55 273z" />
    <glyph glyph-name="Tbar" unicode="&#x166;" horiz-adv-x="1226" 
d="M590 790l50 285h-402l49 283h1131l-49 -283h-401l-50 -285h292l-32 -184h-293l-107 -606h-328l107 606h-294l32 184h295z" />
    <glyph glyph-name="tbar" unicode="&#x167;" horiz-adv-x="853" 
d="M253 342l11 64h-137l32 184h138l20 113h-153l45 257h153l55 308h305l-55 -308h291l-45 -257h-281l-20 -113h258l-32 -184h-259l-2 -13q-24 -136 118 -136q73 0 161 33l-23 -256q-116 -54 -265 -54q-174 0 -260 89q-87 88 -55 273z" />
    <glyph glyph-name="Utilde" unicode="&#x168;" horiz-adv-x="1446" 
d="M729 1493l-96 104q145 207 294 207q43 0 130 -48q86 -48 113 -48q57 0 128 86l97 -104q-147 -207 -296 -207q-40 -2 -125.5 48t-117.5 48q-47 0 -127 -86zM719 -20q-272 0 -400 134t-85 375l153 869h329l-150 -851q-19 -111 36 -176.5t168 -65.5q114 0 191.5 65t97.5 177
l150 851h329l-153 -869q-28 -166 -125 -282.5t-235 -171.5t-306 -55z" />
    <glyph glyph-name="utilde" unicode="&#x169;" horiz-adv-x="1215" 
d="M539 1133l-97 104q147 207 295 207q43 0 130 -48q85 -48 113 -48q57 0 128 86l97 -104q-147 -207 -296 -207q-40 -2 -125.5 48t-117.5 48q-50 0 -127 -86zM476 -30q-145 0 -233.5 96.5t-59.5 259.5l112 634h315l-96 -544q-14 -75 29 -116q41 -42 104 -42q71 0 123 44
t65 114l96 544h315l-169 -960h-289l6 91q-58 -59 -141.5 -90t-176.5 -31z" />
    <glyph glyph-name="Umacron" unicode="&#x16a;" horiz-adv-x="1446" 
d="M1284 1501h-591l36 204h591zM719 -20q-272 0 -400 134t-85 375l153 869h329l-150 -851q-19 -111 36 -176.5t168 -65.5q114 0 191.5 65t97.5 177l150 851h329l-153 -869q-28 -166 -125 -282.5t-235 -171.5t-306 -55z" />
    <glyph glyph-name="umacron" unicode="&#x16b;" horiz-adv-x="1215" 
d="M1109 1165h-591l36 204h591zM476 -30q-145 0 -233.5 96.5t-59.5 259.5l112 634h315l-96 -544q-14 -75 29 -116q41 -42 104 -42q71 0 123 44t65 114l96 544h315l-169 -960h-289l6 91q-58 -59 -141.5 -90t-176.5 -31z" />
    <glyph glyph-name="Ubreve" unicode="&#x16c;" horiz-adv-x="1446" 
d="M983 1468q-138 0 -212 89q-74 90 -55 236h210q-8 -57 17.5 -92.5t74.5 -35.5q51 0 88 35t48 93h210q-32 -143 -134.5 -234t-246.5 -91zM719 -20q-272 0 -400 134t-85 375l153 869h329l-150 -851q-19 -111 36 -176.5t168 -65.5q114 0 191.5 65t97.5 177l150 851h329
l-153 -869q-28 -166 -125 -282.5t-235 -171.5t-306 -55z" />
    <glyph glyph-name="ubreve" unicode="&#x16d;" horiz-adv-x="1215" 
d="M804 1111q-138 0 -212 89q-74 90 -55 236h210q-8 -57 17.5 -92.5t74.5 -35.5q51 0 88 35t48 93h210q-32 -143 -134.5 -234t-246.5 -91zM476 -30q-145 0 -233.5 96.5t-59.5 259.5l112 634h315l-96 -544q-14 -75 29 -116q41 -42 104 -42q71 0 123 44t65 114l96 544h315
l-169 -960h-289l6 91q-58 -59 -141.5 -90t-176.5 -31z" />
    <glyph glyph-name="Uring" unicode="&#x16e;" horiz-adv-x="1446" 
d="M1245 1691q-16 -95 -90.5 -156t-170.5 -61t-149 62q-52 61 -36 155q16 96 90 158t172 62q96 0 149 -62q52 -62 35 -158zM960 1691q-5 -26 9.5 -44.5t41.5 -18.5q26 0 46.5 18t25.5 45t-8.5 46.5t-40.5 19.5t-48 -19t-26 -47zM719 -20q-272 0 -400 134t-85 375l153 869
h329l-150 -851q-19 -111 36 -176.5t168 -65.5q114 0 191.5 65t97.5 177l150 851h329l-153 -869q-28 -166 -125 -282.5t-235 -171.5t-306 -55z" />
    <glyph glyph-name="uring" unicode="&#x16f;" horiz-adv-x="1215" 
d="M1052 1289q-16 -95 -90.5 -156t-170.5 -61t-149 62q-52 61 -36 155q16 96 90 158t172 62q96 0 149 -62q52 -62 35 -158zM767 1289q-5 -26 9.5 -44.5t41.5 -18.5q26 0 46.5 18t25.5 45t-8.5 46.5t-40.5 19.5t-48 -19t-26 -47zM476 -30q-145 0 -233.5 96.5t-59.5 259.5
l112 634h315l-96 -544q-14 -75 29 -116q41 -42 104 -42q71 0 123 44t65 114l96 544h315l-169 -960h-289l6 91q-58 -59 -141.5 -90t-176.5 -31z" />
    <glyph glyph-name="Uhungarumlaut" unicode="&#x170;" horiz-adv-x="1446" 
d="M1300 1473h-251l241 334h342zM1222 1807l-292 -334h-251l221 334h322zM719 -20q-272 0 -400 134t-85 375l153 869h329l-150 -851q-19 -111 36 -176.5t168 -65.5q114 0 191.5 65t97.5 177l150 851h329l-153 -869q-28 -166 -125 -282.5t-235 -171.5t-306 -55z" />
    <glyph glyph-name="uhungarumlaut" unicode="&#x171;" horiz-adv-x="1215" 
d="M1446 1447l-332 -334h-251l241 334h342zM1036 1447l-292 -334h-251l221 334h322zM476 -30q-145 0 -233.5 96.5t-59.5 259.5l112 634h315l-96 -544q-14 -75 29 -116q41 -42 104 -42q71 0 123 44t65 114l96 544h315l-169 -960h-289l6 91q-58 -59 -141.5 -90t-176.5 -31z
" />
    <glyph glyph-name="Uogonek" unicode="&#x172;" horiz-adv-x="1446" 
d="M655 -18q-242 17 -351 148q-110 133 -70 359l153 869h329l-150 -851q-19 -111 36 -176.5t168 -65.5q114 0 191.5 65t97.5 177l150 851h329l-153 -869q-34 -194 -160.5 -321.5t-320.5 -168.5q-214 -112 -228 -193q-6 -35 15 -56t64 -21q57 0 114 27l33 -176
q-97 -57 -230 -57q-120 0 -180 57.5t-43 153.5q24 140 206 248z" />
    <glyph glyph-name="uogonek" unicode="&#x173;" horiz-adv-x="1215" 
d="M476 -30q-145 0 -233.5 96.5t-59.5 259.5l112 634h315l-96 -544q-14 -75 29 -116q41 -42 104 -42q71 0 123 44t65 114l96 544h315l-169 -960h-71q-216 -113 -230 -194q-6 -35 15 -56t64 -21q57 0 114 27l33 -176q-97 -57 -230 -57q-120 0 -180 57.5t-43 153.5
q25 151 239 267l6 90q-58 -59 -141.5 -90t-176.5 -31z" />
    <glyph glyph-name="Wcircumflex" unicode="&#x174;" horiz-adv-x="2049" 
d="M1314 1640l-151 -169h-264l353 370h196l221 -370h-264zM383 0l-127 1358h332l88 -1009l454 989h262l106 -989l442 1009h332l-605 -1358h-418l-93 744l-355 -744h-418z" />
    <glyph glyph-name="wcircumflex" unicode="&#x175;" horiz-adv-x="1648" 
d="M895 1084h-264l352 370h196l222 -370h-264l-91 169zM309 0l-114 960h321l56 -632l295 613h247l78 -613l279 632h321l-452 -960h-368l-63 481l-232 -481h-368z" />
    <glyph glyph-name="Ycircumflex" unicode="&#x176;" horiz-adv-x="1424" 
d="M1002 1640l-151 -169h-264l353 370h196l221 -370h-264zM550 0l89 505l-398 853h403l223 -518l410 518h385l-694 -853l-89 -505h-329z" />
    <glyph glyph-name="ycircumflex" unicode="&#x177;" horiz-adv-x="1125" 
d="M786 1253l-151 -169h-264l352 370h196l222 -370h-264zM188 -420q-106 0 -198 50l86 248q55 -26 108 -26q68 0 124.5 38t88.5 109l-217 961h351l90 -642l311 642h352l-639 -1101q-80 -137 -199 -208t-258 -71z" />
    <glyph glyph-name="Ydieresis" unicode="&#x178;" horiz-adv-x="1424" 
d="M1163 1488q-67 0 -101.5 42t-22.5 109t61.5 109.5t116.5 42.5q68 0 103 -42.5t23 -109.5t-62 -109t-118 -42zM785 1488q-67 0 -101.5 42t-22.5 109t61.5 109.5t116.5 42.5q68 0 103 -42.5t23 -109.5t-62 -109t-118 -42zM550 0l89 505l-398 853h403l223 -518l410 518h385
l-694 -853l-89 -505h-329z" />
    <glyph glyph-name="Zacute" unicode="&#x179;" horiz-adv-x="1211" 
d="M948 1807h362l-322 -334h-261zM1148 0h-1081l39 220l789 857h-628l49 281h1061l-39 -222l-787 -856h646z" />
    <glyph glyph-name="zacute" unicode="&#x17a;" horiz-adv-x="929" 
d="M745 1447h362l-322 -334h-261zM874 0h-804l36 206l501 494h-414l46 260h774l-36 -207l-499 -493h442z" />
    <glyph glyph-name="Zdotaccent" unicode="&#x17b;" horiz-adv-x="1211" 
d="M864 1467q-76 0 -115.5 48t-26.5 124q14 76 70 124.5t133 48.5t116.5 -48t26.5 -125q-14 -77 -70 -124.5t-134 -47.5zM1148 0h-1081l39 220l789 857h-628l49 281h1061l-39 -222l-787 -856h646z" />
    <glyph glyph-name="zdotaccent" unicode="&#x17c;" horiz-adv-x="929" 
d="M692 1133q-76 0 -115.5 48t-26.5 124q14 76 70 124.5t133 48.5t116.5 -48t26.5 -125q-14 -77 -70 -124.5t-134 -47.5zM874 0h-804l36 206l501 494h-414l46 260h774l-36 -207l-499 -493h442z" />
    <glyph glyph-name="Zcaron" unicode="&#x17d;" horiz-adv-x="1211" 
d="M769 1481l-222 370h264l92 -169l150 169h264l-352 -370h-196zM1197 280l-49 -280h-1081l39 220l789 857h-628l49 281h1061l-39 -222l-787 -856h646z" />
    <glyph glyph-name="zcaron" unicode="&#x17e;" horiz-adv-x="929" 
d="M576 1096l-222 370h264l92 -169l150 169h264l-352 -370h-196zM920 260l-46 -260h-804l36 206l501 494h-414l46 260h774l-36 -207l-499 -493h442z" />
    <glyph glyph-name="uni018F" unicode="&#x18f;" horiz-adv-x="1512" 
d="M735 -21q-141 0 -256.5 45t-190.5 129q-76 84 -104.5 208t-2.5 272q12 73 39 152h1009q1 131 -91 203t-226 72q-226 0 -402 -192l-219 187q123 152 304.5 237.5t378.5 85.5q194 0 345.5 -87t215.5 -260q58 -157 23 -355q-34 -199 -150.5 -358t-293 -249t-379.5 -90z
M1181 545h-682q-5 -114 74 -187q79 -74 212 -74q131 0 244.5 70.5t151.5 190.5z" />
    <glyph glyph-name="florin" unicode="&#x192;" horiz-adv-x="1267" 
d="M272 -20q-136 0 -233 53l132 235q41 -31 120 -31q74 0 129.5 36.5t78.5 108.5l81 258h-158l81 257h158l30 94q49 157 181 268q66 56 158.5 87.5t196.5 31.5q136 0 234 -53l-133 -235q-40 31 -119 31q-78 0 -137.5 -38t-81.5 -110l-25 -76h266l-81 -257h-255l-87 -276
q-56 -179 -201 -281.5t-335 -102.5z" />
    <glyph glyph-name="uni019D" unicode="&#x19d;" horiz-adv-x="1618" 
d="M-139 -377l69 248q63 -21 106 -21q101 0 125 139l241 1369h280l538 -828l146 828h329l-239 -1358h-285l-534 820l-151 -854q-33 -185 -158 -286q-125 -100 -281 -100q-130 0 -186 43z" />
    <glyph glyph-name="Gcaron" unicode="&#x1e6;" horiz-adv-x="1534" 
d="M1124 1481h-196l-222 370h264l92 -169l150 169h264zM786 -20q-124 0 -232 37t-195.5 115.5t-132.5 191.5q-66 161 -32 356q34 197 156 357t302 250.5t381 90.5q169 0 313 -79.5t216 -225.5l-286 -187q-94 184 -297 184q-171 0 -294.5 -110t-153.5 -280q-30 -171 56 -281
q85 -111 254 -111q114 0 213 48.5t147 143.5h-358l48 276h707q-4 -52 -19 -142q-24 -138 -99 -257t-181.5 -201.5t-239.5 -129t-273 -46.5z" />
    <glyph glyph-name="gcaron" unicode="&#x1e7;" horiz-adv-x="1253" 
d="M908 1096h-196l-222 370h264l92 -169l150 169h264zM37 -212l220 187q55 -65 120 -95t153 -30q59 0 116 18.5t105.5 65t60.5 113.5l9 53q-120 -120 -304 -120q-193 0 -293 142t-63 357q22 139 101 255.5t194 182t238 63.5q183 0 261 -121l28 101h305l-163 -926
q-19 -110 -81.5 -198.5t-151.5 -143.5t-193 -83.5t-213 -28.5q-152 0 -267.5 54.5t-181.5 153.5zM719 700q-95 0 -162.5 -63t-83.5 -158q-17 -97 30 -159t138 -62q95 0 162.5 63t83.5 158q17 99 -29 159t-139 62z" />
    <glyph glyph-name="uni01EA" unicode="&#x1ea;" horiz-adv-x="1568" 
d="M699 -15q-125 14 -230 72t-174 149q-70 91 -97 215t-3 259q34 193 156 353.5t301 252.5t375 92q143 0 265 -54t202 -148t112 -224t8 -272q-44 -251 -234 -441.5t-442 -242.5q-208 -109 -223 -190q-6 -35 15 -56t64 -21q57 0 114 27l33 -176q-97 -57 -230 -57
q-120 0 -180 57.5t-43 153.5q26 142 211 251zM971 1059q-163 0 -286.5 -108.5t-151.5 -270.5q-29 -165 56 -273q85 -109 248 -109q165 0 288 109t152 273t-58 272q-89 107 -248 107z" />
    <glyph glyph-name="uni01EB" unicode="&#x1eb;" horiz-adv-x="1167" 
d="M490 -13q-182 28 -277 166q-95 137 -60 327q38 218 210 359t394 141q144 2 252 -64t155.5 -182t20.5 -254q-32 -177 -156.5 -307.5t-299.5 -174.5q-214 -113 -227 -192q-6 -35 15 -56t64 -21q57 0 114 27l33 -176q-98 -57 -230 -57q-120 0 -180 57.5t-43 153.5
q26 144 215 253zM465 480q-17 -92 30 -152q46 -61 136 -61q91 0 158.5 61.5t83.5 151.5q16 89 -31 150q-46 60 -136 60t-157 -60t-84 -150z" />
    <glyph glyph-name="Aringacute" unicode="&#x1fa;" horiz-adv-x="1456" 
d="M1538 2296l-322 -334h-261l221 334h362zM1250 1691q-16 -95 -90.5 -156t-170.5 -61t-149 62q-52 61 -36 155q16 96 90 158t172 62q96 0 149 -62q52 -62 35 -158zM965 1691q-5 -26 9.5 -44.5t41.5 -18.5q26 0 46.5 18t25.5 45t-8.5 46.5t-40.5 19.5t-48 -19t-26 -47z
M349 0h-352l775 1358h390l298 -1358h-352l-48 249h-575zM910 1029l-286 -524h387z" />
    <glyph glyph-name="aringacute" unicode="&#x1fb;" horiz-adv-x="1113" 
d="M1293 1901l-322 -334h-261l221 334h362zM1005 1289q-16 -95 -90.5 -156t-170.5 -61t-149 62q-52 61 -36 155q16 96 90 158t172 62q96 0 149 -62q52 -62 35 -158zM720 1289q-5 -26 9.5 -44.5t41.5 -18.5q26 0 46.5 18t25.5 45t-8.5 46.5t-40.5 19.5t-48 -19t-26 -47z
M429 -20q-157 0 -243 79q-87 79 -63 213q14 76 60.5 136.5t111.5 96.5t139 54.5t149 18.5q103 0 188 -25l3 19q10 59 -32 94.5t-125 35.5q-136 0 -250 -107l-141 187q83 77 206 138q122 60 261 60q219 0 325 -109q105 -110 71 -301l-101 -570h-299l17 98
q-48 -53 -122.5 -85.5t-154.5 -32.5zM428 291q-7 -43 23 -69.5t85 -26.5q76 0 132 46.5t69 120.5q-51 25 -132 25q-75 0 -122 -25.5t-55 -70.5z" />
    <glyph glyph-name="AEacute" unicode="&#x1fc;" horiz-adv-x="2059" 
d="M2084 1807l-322 -334h-261l221 334h362zM328 0h-385l1061 1358h1148l-48 -277h-634l-45 -252h555l-48 -276h-555l-49 -277h644l-49 -276h-973l44 249h-479zM1039 505l101 575l-433 -575h332z" />
    <glyph glyph-name="aeacute" unicode="&#x1fd;" horiz-adv-x="1700" 
d="M1487 1447l-322 -334h-261l221 334h362zM462 -20q-168 -2 -265.5 79t-72.5 213q14 76 60.5 136.5t111.5 96.5t139 54.5t149 18.5q101 0 188 -25l3 19q10 59 -32 94.5t-125 35.5q-136 0 -250 -107l-141 187q83 77 206 138q121 60 261 60q202 0 285 -125q151 125 344 125
q187 0 308 -113q61 -57 85.5 -149.5t3.5 -206.5q-8 -46 -29 -112h-648q-5 -74 51 -113q53 -40 134 -40q59 0 121.5 32t114.5 87l169 -176q-80 -99 -203 -154t-253 -55q-229 0 -341 151q-145 -151 -374 -151zM1076 584h366q7 58 -36 103q-44 45 -118 45q-77 0 -134 -41.5
t-78 -106.5zM429 291q-7 -43 23 -69.5t85 -26.5q76 0 132 46.5t69 120.5q-51 25 -132 25q-75 0 -122 -25.5t-55 -70.5z" />
    <glyph glyph-name="Oslashacute" unicode="&#x1fe;" horiz-adv-x="1568" 
d="M1182 1473h-261l221 334h362zM199 -25l149 171q-100 98 -141 236.5t-12 297.5q34 193 156 353.5t301 252.5t375 92q180 0 323 -83l147 169l113 -88l-146 -168q98 -98 137.5 -235.5t12.5 -292.5q-26 -144 -104.5 -273.5t-189.5 -223t-252.5 -148.5t-287.5 -55
q-176 0 -319 81l-153 -175zM583 415l535 614q-68 30 -147 30q-163 0 -286.5 -108.5t-151.5 -270.5q-27 -158 50 -265zM1228 939l-535 -613q63 -28 144 -28q165 0 288 109t152 273q27 155 -49 259z" />
    <glyph glyph-name="oslashacute" unicode="&#x1ff;" horiz-adv-x="1177" 
d="M922 1113h-261l221 334h362zM334 44l-173 -172l-97 106l163 162q-105 140 -69 340q38 218 210 359t394 141q142 0 248 -62l171 170l104 -96l-168 -168q109 -141 73 -344q-22 -138 -110.5 -254t-220 -182t-274.5 -64q-145 0 -251 64zM472 384l300 297q-28 9 -61 9
q-90 0 -157 -60t-84 -150q-9 -51 2 -96zM873 581l-304 -303q33 -11 67 -11q91 0 158.5 61.5t83.5 151.5q10 52 -5 101z" />
    <glyph glyph-name="uni0218" unicode="&#x218;" horiz-adv-x="1264" 
d="M130 292l279 180q42 -90 122.5 -142.5t179.5 -52.5q28 0 60 5.5t66 16.5t58 32.5t29 50.5q4 23 -4.5 42t-23.5 32.5t-47.5 28t-59 23.5t-75.5 24q-14 3 -39 12q-239 78 -299 138q-76 65 -89 147q-14 57 0 144q22 123 112 217.5t209 141t243 46.5q336 0 483 -290
l-275 -179q-93 180 -259 180q-71 0 -121.5 -30.5t-58.5 -79.5q-6 -41 14 -61q24 -27 59 -41q40 -16 94 -33q178 -62 282 -111q78 -42 107 -69q57 -54 78 -117.5t4 -153.5q-18 -102 -79 -183t-147 -130t-184 -74.5t-198 -25.5q-115 0 -215.5 30.5t-185 103t-119.5 178.5z
M786 -96l-149 -442h-226l78 442h297z" />
    <glyph glyph-name="uni0219" unicode="&#x219;" horiz-adv-x="978" 
d="M97 182l223 173q85 -130 228 -130q103 0 114 59q4 24 -20 36q-23 10 -101 30q-62 15 -100 26t-88.5 35.5t-85.5 57.5q-79 72 -56 200q24 135 149 224q124 87 302 87q133 0 224 -55q90 -55 134 -133l-213 -157q-28 45 -77.5 73t-113.5 28q-54 0 -87 -16.5t-38 -46.5
q-5 -25 31 -41.5t142 -42.5q144 -36 223 -100q90 -74 66 -206q-23 -131 -152 -217q-130 -86 -299 -86q-294 0 -405 202zM625 -96l-149 -442h-226l78 442h297z" />
    <glyph glyph-name="uni021A" unicode="&#x21a;" horiz-adv-x="1160" 
d="M417 0l190 1075h-402l49 283h1131l-49 -283h-401l-190 -1075h-328zM720 -96l-149 -442h-226l78 442h297z" />
    <glyph glyph-name="uni021B" unicode="&#x21b;" horiz-adv-x="834" 
d="M303 703h-153l45 257h153l55 308h305l-55 -308h291l-45 -257h-281l-55 -310q-24 -136 118 -136q73 0 161 33l-23 -256q-116 -54 -265 -54q-174 0 -260 89q-87 88 -55 273zM454 -538h-226l78 442h297z" />
    <glyph glyph-name="uni0232" unicode="&#x232;" horiz-adv-x="1424" 
d="M1273 1501h-591l36 204h591zM550 0l89 505l-398 853h403l223 -518l410 518h385l-694 -853l-89 -505h-329z" />
    <glyph glyph-name="uni0233" unicode="&#x233;" horiz-adv-x="1125" 
d="M1100 1369l-36 -204h-591l36 204h591zM188 -420q-106 0 -198 50l86 248q55 -26 108 -26q68 0 124.5 38t88.5 109l-217 961h351l90 -642l311 642h352l-639 -1101q-80 -137 -199 -208t-258 -71z" />
    <glyph glyph-name="uni0237" unicode="&#x237;" horiz-adv-x="578" 
d="M-213 -377l69 248q69 -21 116 -21q127 0 151 139l171 971h315l-175 -994q-33 -185 -159 -286q-127 -100 -282 -100q-141 0 -206 43z" />
    <glyph glyph-name="uni0259" unicode="&#x259;" horiz-adv-x="1103" 
d="M468 -20q-185 0 -307 114q-61 57 -85.5 149t-4.5 206q8 46 29 112h648q4 73 -50 114q-56 39 -135 39q-59 0 -121.5 -32t-114.5 -87l-169 176q80 100 202 154.5t254 54.5q228 0 347 -140t81 -360q-39 -219 -196.5 -359.5t-377.5 -140.5zM715 376h-366q-7 -58 36 -103
q44 -45 118 -45q77 0 134 41.5t78 106.5z" />
    <glyph glyph-name="uni0272" unicode="&#x272;" horiz-adv-x="1215" 
d="M-152 -379l70 248q39 -17 81 -17q112 0 138 137l2 11h-31l169 960h289l-8 -101q59 59 142.5 90t176.5 31q144 0 232.5 -96.5t59.5 -259.5l-110 -624h-315l94 534q13 74 -28 117q-43 41 -105 41q-72 0 -123.5 -43.5t-64.5 -114.5l-94 -534h31l-6 -34q-33 -185 -153 -286
q-121 -100 -268 -100q-121 0 -179 41z" />
    <glyph glyph-name="circumflex" unicode="&#x2c6;" horiz-adv-x="1043" 
d="M660 1471h-264l353 370h196l221 -370h-264l-91 169z" />
    <glyph glyph-name="caron" unicode="&#x2c7;" horiz-adv-x="1043" 
d="M881 1481h-196l-222 370h264l92 -169l150 169h264z" />
    <glyph glyph-name="breve" unicode="&#x2d8;" horiz-adv-x="901" 
d="M710 1468q-138 0 -212 89q-74 90 -55 236h210q-8 -57 17.5 -92.5t74.5 -35.5q51 0 88 35t48 93h210q-32 -143 -134.5 -234t-246.5 -91z" />
    <glyph glyph-name="dotaccent" unicode="&#x2d9;" horiz-adv-x="619" 
d="M568 1467q-76 0 -115.5 48t-26.5 124q14 76 70 124.5t133 48.5t116.5 -48t26.5 -125q-14 -77 -70 -124.5t-134 -47.5z" />
    <glyph glyph-name="ring" unicode="&#x2da;" horiz-adv-x="719" 
d="M881 1691q-16 -95 -90.5 -156t-170.5 -61t-149 62q-52 61 -36 155q16 96 90 158t172 62q96 0 149 -62q52 -62 35 -158zM596 1691q-5 -26 9.5 -44.5t41.5 -18.5q26 0 46.5 18t25.5 45t-8.5 46.5t-40.5 19.5t-48 -19t-26 -47z" />
    <glyph glyph-name="ogonek" unicode="&#x2db;" horiz-adv-x="701" 
d="M294 -477q-120 0 -180 57.5t-43 153.5q9 53 41.5 102t80.5 86.5t95.5 65.5t101.5 51l138 -39q-216 -113 -230 -194q-6 -35 15 -56t64 -21q57 0 114 27l33 -176q-97 -57 -230 -57z" />
    <glyph glyph-name="tilde" unicode="&#x2dc;" horiz-adv-x="1019" 
d="M515 1493l-96 104q145 207 294 207q43 0 130 -48q85 -48 113 -48q57 0 128 86l97 -104q-147 -207 -296 -207q-40 -2 -125.5 48t-117.5 48q-47 0 -127 -86z" />
    <glyph glyph-name="hungarumlaut" unicode="&#x2dd;" horiz-adv-x="1187" 
d="M1028 1473h-251l241 334h342zM658 1473h-251l221 334h322z" />
    <glyph glyph-name="acutecomb" unicode="&#x301;" horiz-adv-x="797" 
d="M700 2277h362l-321 -334h-261z" />
    <glyph glyph-name="uni030A" unicode="&#x30a;" horiz-adv-x="719" 
d="M881 1691q-16 -95 -90.5 -156t-170.5 -61t-149 62q-52 61 -36 155q16 96 90 158t172 62q96 0 149 -62q52 -62 35 -158zM596 1691q-5 -26 9.5 -44.5t41.5 -18.5q26 0 46.5 18t25.5 45t-8.5 46.5t-40.5 19.5t-48 -19t-26 -47z" />
    <glyph glyph-name="dotbelowcomb" unicode="&#x323;" horiz-adv-x="622" 
d="M230 -455q-72 0 -113 50q-42 49 -30 120q13 72 71.5 123t131.5 51t116 -52q42 -51 30 -122q-13 -72 -72.5 -121t-133.5 -49z" />
    <glyph glyph-name="uni0326" unicode="&#x326;" horiz-adv-x="570" 
d="M268 -538h-226l78 442h297z" />
    <glyph glyph-name="uni03BC" unicode="&#x3bc;" horiz-adv-x="1232" 
d="M383 -400h-315l240 1360h315l-94 -534q-14 -75 29 -116q40 -42 104 -42q71 0 125 44t67 114l94 534h315l-169 -960h-289l8 101q-92 -110 -223 -110q-84 0 -131 40z" />
    <glyph glyph-name="pi" unicode="&#x3c0;" horiz-adv-x="1370" 
d="M192 0l148 838h-168l50 284h1281l-51 -284h-160l-80 -455q-13 -68 22.5 -100t111.5 -25l-47 -270q-38 -8 -95 -8q-174 0 -260 89q-87 88 -55 273l88 496h-322l-148 -838h-315z" />
    <glyph glyph-name="Wgrave" unicode="&#x1e80;" horiz-adv-x="2049" 
d="M1137 1473l-204 334h362l103 -334h-261zM801 0h-418l-127 1358h332l88 -1009l454 989h262l106 -989l442 1009h332l-605 -1358h-418l-93 744z" />
    <glyph glyph-name="wgrave" unicode="&#x1e81;" horiz-adv-x="1648" 
d="M875 1121l-204 334h362l103 -334h-261zM309 0l-114 960h321l56 -632l295 613h247l78 -613l279 632h321l-452 -960h-368l-63 481l-232 -481h-368z" />
    <glyph glyph-name="Wacute" unicode="&#x1e82;" horiz-adv-x="2049" 
d="M1760 1807l-322 -334h-261l221 334h362zM801 0h-418l-127 1358h332l88 -1009l454 989h262l106 -989l442 1009h332l-605 -1358h-418l-93 744z" />
    <glyph glyph-name="wacute" unicode="&#x1e83;" horiz-adv-x="1648" 
d="M1490 1447l-322 -334h-261l221 334h362zM309 0l-114 960h321l56 -632l295 613h247l78 -613l279 632h321l-452 -960h-368l-63 481l-232 -481h-368z" />
    <glyph glyph-name="Wdieresis" unicode="&#x1e84;" horiz-adv-x="2049" 
d="M1475 1488q-67 0 -101.5 42t-22.5 109t61.5 109.5t116.5 42.5q68 0 103 -42.5t23 -109.5t-62 -109t-118 -42zM1097 1488q-67 0 -101.5 42t-22.5 109t61.5 109.5t116.5 42.5q68 0 103 -42.5t23 -109.5t-62 -109t-118 -42zM801 0h-418l-127 1358h332l88 -1009l454 989h262
l106 -989l442 1009h332l-605 -1358h-418l-93 744z" />
    <glyph glyph-name="wdieresis" unicode="&#x1e85;" horiz-adv-x="1648" 
d="M1216 1151q-67 0 -101.5 42t-22.5 109q11 67 60.5 109.5t116.5 42.5q68 0 103 -42.5t24 -109.5q-12 -67 -62 -109t-118 -42zM838 1151q-67 0 -101.5 42t-22.5 109q11 67 60.5 109.5t116.5 42.5q68 0 103 -42.5t24 -109.5q-12 -67 -62 -109t-118 -42zM677 0h-368l-114 960
h321l56 -632l295 613h247l78 -613l279 632h321l-452 -960h-368l-63 481z" />
    <glyph glyph-name="Germandbls" unicode="&#x1e9e;" horiz-adv-x="1468" 
d="M618 804l-142 -804h-329l146 827q22 122 90 226.5t165 175t215.5 110t241.5 39.5q90 0 173.5 -20.5t141.5 -53.5q64 -36 119.5 -87.5t77.5 -106.5l-28 -158l-350 -224h44q54 2 120 -25t114 -81q34 -38 47.5 -101t1.5 -138q-22 -121 -103 -214t-192.5 -140t-234.5 -47
q-118 0 -218 49t-145 147l235 180q63 -91 161 -91q58 0 103 34.5t55 90.5q14 76 -32 114.5t-149 38.5h-190l33 189l401 275q-31 38 -89 60.5t-131 22.5q-131 0 -231 -80.5t-121 -207.5z" />
    <glyph glyph-name="uni1EA0" unicode="&#x1ea0;" horiz-adv-x="1456" 
d="M349 0h-352l775 1358h390l298 -1358h-352l-48 249h-575zM1011 505l-101 524l-286 -524h387zM647 -455q-72 0 -113 50q-42 49 -30 120q13 72 71.5 123t131.5 51t116 -52q42 -51 30 -122q-13 -72 -72.5 -121t-133.5 -49z" />
    <glyph glyph-name="uni1EA1" unicode="&#x1ea1;" horiz-adv-x="1113" 
d="M429 -20q-157 0 -243 79q-87 79 -63 213q14 76 60.5 136.5t111.5 96.5t139 54.5t149 18.5q103 0 188 -25l3 19q10 59 -32 94.5t-125 35.5q-136 0 -250 -107l-141 187q83 77 206 138q122 60 261 60q219 0 325 -109q105 -110 71 -301l-101 -570h-299l17 98
q-48 -53 -122.5 -85.5t-154.5 -32.5zM428 291q-7 -43 23 -69.5t85 -26.5q76 0 132 46.5t69 120.5q-51 25 -132 25q-75 0 -122 -25.5t-55 -70.5zM473 -455q-72 0 -113 50q-42 49 -30 120q13 72 71.5 123t131.5 51t116 -52q42 -51 30 -122q-13 -72 -72.5 -121t-133.5 -49z" />
    <glyph glyph-name="uni1EB8" unicode="&#x1eb8;" horiz-adv-x="1209" 
d="M1185 276l-49 -276h-973l239 1358h963l-48 -277h-634l-45 -252h555l-48 -276h-555l-49 -277h644zM584 -455q-72 0 -113 50q-42 49 -30 120q13 72 71.5 123t131.5 51t116 -52q42 -51 30 -122q-13 -72 -72.5 -121t-133.5 -49z" />
    <glyph glyph-name="uni1EB9" unicode="&#x1eb9;" horiz-adv-x="1103" 
d="M581 -20q-228 0 -347 140t-80 360q37 218 195.5 359t377.5 141q187 0 308 -113q61 -57 85.5 -149.5t3.5 -206.5q-8 -46 -29 -112h-648q-5 -74 51 -113q53 -40 134 -40q59 0 121.5 32t114.5 87l169 -176q-80 -99 -203 -154t-253 -55zM692 732q-77 0 -134 -41.5t-78 -106.5
h366q7 58 -36 103q-44 45 -118 45zM491 -455q-72 0 -113 50q-42 49 -30 120q13 72 71.5 123t131.5 51t116 -52q42 -51 30 -122q-13 -72 -72.5 -121t-133.5 -49z" />
    <glyph glyph-name="uni1EBC" unicode="&#x1ebc;" horiz-adv-x="1209" 
d="M650 1493l-96 104q146 207 294 207q43 0 130 -48q86 -48 113 -48q57 0 128 86l97 -104q-147 -207 -296 -207q-40 -2 -125.5 48t-117.5 48q-47 0 -127 -86zM1136 0h-973l239 1358h963l-48 -277h-634l-45 -252h555l-48 -276h-555l-49 -277h644z" />
    <glyph glyph-name="uni1EBD" unicode="&#x1ebd;" horiz-adv-x="1103" 
d="M494 1133l-97 104q147 207 295 207q43 0 130 -48q85 -48 113 -48q57 0 128 86l97 -104q-147 -207 -296 -207q-40 -2 -125.5 48t-117.5 48q-50 0 -127 -86zM581 -20q-228 0 -347 140t-80 360q37 218 195.5 359t377.5 141q187 0 308 -113q61 -57 85.5 -149.5t3.5 -206.5
q-8 -46 -29 -112h-648q-5 -74 51 -113q53 -40 134 -40q59 0 121.5 32t114.5 87l169 -176q-80 -99 -203 -154t-253 -55zM480 584h366q7 58 -36 103q-44 45 -118 45q-77 0 -134 -41.5t-78 -106.5z" />
    <glyph glyph-name="uni1ECA" unicode="&#x1eca;" horiz-adv-x="654" 
d="M731 1358l-239 -1358h-329l239 1358h329zM246 -455q-72 0 -113 50q-42 49 -30 120q13 72 71.5 123t131.5 51t116 -52q42 -51 30 -122q-13 -72 -72.5 -121t-133.5 -49z" />
    <glyph glyph-name="uni1ECB" unicode="&#x1ecb;" horiz-adv-x="592" 
d="M495 1133q-76 0 -115.5 48t-26.5 124q14 76 70 124.5t133 48.5t116.5 -48t26.5 -125q-14 -77 -70 -124.5t-134 -47.5zM454 0h-315l169 960h315zM215 -455q-72 0 -113 50q-42 49 -30 120q13 72 71.5 123t131.5 51t116 -52q42 -51 30 -122q-13 -72 -72.5 -121t-133.5 -49z
" />
    <glyph glyph-name="uni1ECC" unicode="&#x1ecc;" horiz-adv-x="1568" 
d="M780 -20q-140 0 -261 53t-202 146t-114.5 224.5t-7.5 276.5q34 193 156 353.5t301 252.5t375 92q143 0 265 -54t202 -148t112 -224t8 -272q-26 -144 -104.5 -273.5t-189.5 -223t-252.5 -148.5t-287.5 -55zM971 1059q-163 0 -286.5 -108.5t-151.5 -270.5q-29 -165 56 -273
q85 -109 248 -109q165 0 288 109t152 273t-58 272q-89 107 -248 107zM703 -455q-72 0 -113 50q-42 49 -30 120q13 72 71.5 123t131.5 51t116 -52q42 -51 30 -122q-13 -72 -72.5 -121t-133.5 -49z" />
    <glyph glyph-name="uni1ECD" unicode="&#x1ecd;" horiz-adv-x="1167" 
d="M580 -20q-221 0 -343 143q-121 143 -84 357q38 218 210 359t394 141q144 2 252 -64t155.5 -182t20.5 -254q-22 -138 -110.5 -254t-220 -182t-274.5 -64zM465 480q-17 -92 30 -152q46 -61 136 -61q91 0 158.5 61.5t83.5 151.5q16 89 -31 150q-46 60 -136 60t-157 -60
t-84 -150zM503 -455q-72 0 -113 50q-42 49 -30 120q13 72 71.5 123t131.5 51t116 -52q42 -51 30 -122q-13 -72 -72.5 -121t-133.5 -49z" />
    <glyph glyph-name="uni1EE4" unicode="&#x1ee4;" horiz-adv-x="1446" 
d="M719 -20q-272 0 -400 134t-85 375l153 869h329l-150 -851q-19 -111 36 -176.5t168 -65.5q114 0 191.5 65t97.5 177l150 851h329l-153 -869q-28 -166 -125 -282.5t-235 -171.5t-306 -55zM642 -455q-72 0 -113 50q-42 49 -30 120q13 72 71.5 123t131.5 51t116 -52
q42 -51 30 -122q-13 -72 -72.5 -121t-133.5 -49z" />
    <glyph glyph-name="uni1EE5" unicode="&#x1ee5;" horiz-adv-x="1215" 
d="M476 -30q-145 0 -233.5 96.5t-59.5 259.5l112 634h315l-96 -544q-14 -75 29 -116q41 -42 104 -42q71 0 123 44t65 114l96 544h315l-169 -960h-289l6 91q-58 -59 -141.5 -90t-176.5 -31zM520 -455q-72 0 -113 50q-42 49 -30 120q13 72 71.5 123t131.5 51t116 -52
q42 -51 30 -122q-13 -72 -72.5 -121t-133.5 -49z" />
    <glyph glyph-name="Ygrave" unicode="&#x1ef2;" horiz-adv-x="1424" 
d="M851 1473l-204 334h362l103 -334h-261zM550 0l89 505l-398 853h403l223 -518l410 518h385l-694 -853l-89 -505h-329z" />
    <glyph glyph-name="ygrave" unicode="&#x1ef3;" horiz-adv-x="1125" 
d="M878 1121h-261l-204 334h362zM188 -420q-106 0 -198 50l86 248q55 -26 108 -26q68 0 124.5 38t88.5 109l-217 961h351l90 -642l311 642h352l-639 -1101q-80 -137 -199 -208t-258 -71z" />
    <glyph glyph-name="uni1EF8" unicode="&#x1ef8;" horiz-adv-x="1424" 
d="M718 1493l-96 104q146 207 294 207q43 0 130 -48q85 -48 113 -48q57 0 128 86l97 -104q-147 -207 -296 -207q-40 -2 -125.5 48t-117.5 48q-47 0 -127 -86zM550 0l89 505l-398 853h403l223 -518l410 518h385l-694 -853l-89 -505h-329z" />
    <glyph glyph-name="uni1EF9" unicode="&#x1ef9;" horiz-adv-x="1125" 
d="M505 1133l-97 104q147 207 295 207q43 0 130 -48q86 -48 113 -48q57 0 128 86l97 -104q-147 -207 -296 -207q-40 -2 -125.5 48t-117.5 48q-50 0 -127 -86zM188 -420q-106 0 -198 50l86 248q55 -26 108 -26q68 0 124.5 38t88.5 109l-217 961h351l90 -642l311 642h352
l-639 -1101q-80 -137 -199 -208t-258 -71z" />
    <glyph glyph-name="uni2000" unicode="&#x2000;" horiz-adv-x="1148" 
 />
    <glyph glyph-name="uni2001" unicode="&#x2001;" horiz-adv-x="2296" 
 />
    <glyph glyph-name="uni2002" unicode="&#x2002;" horiz-adv-x="1148" 
 />
    <glyph glyph-name="uni2003" unicode="&#x2003;" horiz-adv-x="2296" 
 />
    <glyph glyph-name="uni2004" unicode="&#x2004;" horiz-adv-x="765" 
 />
    <glyph glyph-name="uni2005" unicode="&#x2005;" horiz-adv-x="574" 
 />
    <glyph glyph-name="uni2006" unicode="&#x2006;" horiz-adv-x="382" 
 />
    <glyph glyph-name="uni2007" unicode="&#x2007;" horiz-adv-x="382" 
 />
    <glyph glyph-name="uni2008" unicode="&#x2008;" horiz-adv-x="287" 
 />
    <glyph glyph-name="uni2009" unicode="&#x2009;" horiz-adv-x="459" 
 />
    <glyph glyph-name="uni200A" unicode="&#x200a;" horiz-adv-x="127" 
 />
    <glyph glyph-name="uni2010" unicode="&#x2010;" horiz-adv-x="954" 
d="M231 668h729l-43 -244h-729z" />
    <glyph glyph-name="uni2011" unicode="&#x2011;" horiz-adv-x="954" 
d="M231 668h729l-43 -244h-729z" />
    <glyph glyph-name="figuredash" unicode="&#x2012;" horiz-adv-x="954" 
d="M231 668h729l-43 -244h-729z" />
    <glyph glyph-name="endash" unicode="&#x2013;" horiz-adv-x="1249" 
d="M231 668h1024l-43 -244h-1024z" />
    <glyph glyph-name="emdash" unicode="&#x2014;" horiz-adv-x="2273" 
d="M231 668h2048l-43 -244h-2048z" />
    <glyph glyph-name="quoteleft" unicode="&#x2018;" horiz-adv-x="556" 
d="M764 1428l-228 -516h-312l314 516h226z" />
    <glyph glyph-name="quoteright" unicode="&#x2019;" horiz-adv-x="548" 
d="M232 912l228 516h312l-314 -516h-226z" />
    <glyph glyph-name="quotesinglbase" unicode="&#x201a;" horiz-adv-x="542" 
d="M-48 -283l228 516h312l-284 -516h-256z" />
    <glyph glyph-name="quotedblleft" unicode="&#x201c;" horiz-adv-x="1012" 
d="M1220 1428l-228 -516h-312l314 516h226zM764 1428l-228 -516h-312l314 516h226z" />
    <glyph glyph-name="quotedblright" unicode="&#x201d;" horiz-adv-x="993" 
d="M903 912h-226l228 516h312zM458 912h-226l228 516h312z" />
    <glyph glyph-name="quotedblbase" unicode="&#x201e;" horiz-adv-x="992" 
d="M623 -285h-226l228 516h312zM178 -285h-226l228 516h312z" />
    <glyph glyph-name="dagger" unicode="&#x2020;" horiz-adv-x="809" 
d="M483 1143h-226l37 215h226l45 250h247l-45 -250h228l-37 -215h-228l-113 -636h-247z" />
    <glyph glyph-name="daggerdbl" unicode="&#x2021;" horiz-adv-x="880" 
d="M437 686h-226l38 215h226l55 312h-226l38 215h226l37 210h247l-37 -210h228l-38 -215h-228l-55 -312h228l-38 -215h-228l-37 -209h-247z" />
    <glyph glyph-name="bullet" unicode="&#x2022;" horiz-adv-x="792" 
d="M800 672q-19 -119 -116.5 -200t-218.5 -81q-119 0 -187 81t-48 200q23 120 117.5 200.5t216.5 80.5q120 0 189 -81q69 -82 47 -200z" />
    <glyph glyph-name="ellipsis" unicode="&#x2026;" horiz-adv-x="1561" 
d="M1299 -20q-72 0 -113 50q-42 50 -30 120q14 73 72.5 123.5t131.5 50.5q72 0 116 -51q42 -53 29 -123q-12 -72 -72 -121t-134 -49zM774 -20q-72 0 -113 50q-42 50 -30 120q14 73 72.5 123.5t131.5 50.5t116 -51q42 -53 29 -123q-12 -72 -72 -121t-134 -49zM252 -20
q-72 0 -113 50q-42 50 -30 120q14 73 72.5 123.5t131.5 50.5t116 -51q42 -53 29 -123q-12 -72 -72 -121t-134 -49z" />
    <glyph glyph-name="uni202F" unicode="&#x202f;" horiz-adv-x="459" 
 />
    <glyph glyph-name="perthousand" unicode="&#x2030;" horiz-adv-x="2643" 
d="M983 1001q-28 -161 -155.5 -266.5t-291.5 -105.5q-165 0 -253 106t-60 266q29 163 154.5 270t290.5 107q164 0 254 -107q90 -108 61 -270zM1585 1334l-967 -1334h-167l5 26l968 1332h165zM452 1001q-10 -65 24 -108q35 -44 99 -44q65 0 114 44t60 108q11 67 -22 111
q-34 45 -98 45q-65 0 -115.5 -45.5t-61.5 -110.5zM1817 352q-28 -162 -155 -267t-292 -105q-164 0 -252 106q-89 107 -61 266q29 162 155 269.5t291 107.5q164 0 254 -107q89 -108 60 -270zM2657 352q-28 -162 -155 -267t-292 -105q-164 0 -252 106q-89 107 -61 266
q29 162 155 269.5t291 107.5q164 0 254 -107q89 -108 60 -270zM2126 352q-10 -64 24 -108q35 -44 99 -44q65 0 114 44t60 108q11 67 -22.5 111.5t-96.5 44.5q-66 0 -116.5 -45.5t-61.5 -110.5zM1286 352q-10 -64 24 -108q35 -44 99 -44q65 0 114 44t60 108
q11 67 -22.5 111.5t-96.5 44.5q-66 0 -116.5 -45.5t-61.5 -110.5z" />
    <glyph glyph-name="guilsinglleft" unicode="&#x2039;" horiz-adv-x="689" 
d="M443 480l184 -394h-260l-202 394l341 395h260z" />
    <glyph glyph-name="guilsinglright" unicode="&#x203a;" horiz-adv-x="689" 
d="M232 874h260l202 -395l-341 -394h-260l323 394z" />
    <glyph glyph-name="fraction" unicode="&#x2044;" horiz-adv-x="353" 
d="M-103 0h-167l5 26l968 1332h165l-4 -24z" />
    <glyph glyph-name="uni205F" unicode="&#x205f;" horiz-adv-x="574" 
 />
    <glyph glyph-name="uni2070" unicode="&#x2070;" horiz-adv-x="830" 
d="M523 514q-73 0 -128.5 23t-88.5 63t-51.5 94.5t-18.5 118t11 133.5q16 88 49.5 163.5t84.5 137t126.5 96.5t167.5 35t156 -37t92 -97t36.5 -138t-9.5 -160q-16 -88 -49 -163.5t-84 -137t-126.5 -96.5t-167.5 -35zM454 946q-18 -104 6 -172q22 -69 96 -69q42 0 76.5 23
t56 61.5t35 77t20.5 79.5q18 103 -6 172t-97 69q-42 0 -76.5 -23.5t-56 -62t-34.5 -76.5t-20 -79z" />
    <glyph glyph-name="uni2074" unicode="&#x2074;" horiz-adv-x="759" 
d="M532 720h-375l25 140l426 498h240l-82 -469h108l-30 -169h-108l-33 -186h-204zM603 1121l-187 -232h146z" />
    <glyph glyph-name="uni2075" unicode="&#x2075;" horiz-adv-x="710" 
d="M192 666l-5 18l170 104q-1 -1 2.5 -9.5t13.5 -23t23 -28.5q33 -33 85 -33q45 0 81 29t45 74q8 49 -20 77t-78 28q-69 0 -118 -42l-139 53l127 445h492l-31 -178h-325l-37 -139q45 22 106 22q130 0 194 -72q64 -73 42 -195q-22 -133 -128 -208t-245 -75q-60 0 -110 17
t-78 43q-54 49 -67 93z" />
    <glyph glyph-name="uni2076" unicode="&#x2076;" horiz-adv-x="775" 
d="M513 514q-70 0 -124 21t-85 57.5t-49.5 86t-18.5 105.5t9 117q18 97 54 180.5t92.5 151t139.5 106.5t184 39q77 0 140 -21t92 -52l-96 -172q-74 50 -166 50q-70 0 -123 -40.5t-78 -114.5q68 54 165 54q121 0 189 -67t46 -199q-26 -138 -128 -220t-243 -82zM448 804
q-9 -50 16 -83.5t73 -33.5q49 0 86.5 33.5t46.5 83.5q8 48 -18 80.5t-74 32.5t-85 -32.5t-45 -80.5z" />
    <glyph glyph-name="uni2077" unicode="&#x2077;" horiz-adv-x="671" 
d="M453 535h-233q199 365 453 643h-385l31 180h606l-26 -150q-270 -322 -446 -673z" />
    <glyph glyph-name="uni2078" unicode="&#x2078;" horiz-adv-x="776" 
d="M481 514q-152 0 -226.5 66t-54.5 181q13 71 58.5 126t112.5 83q-49 27 -73 73.5t-14 103.5q22 117 121 174t228 57q143 0 215 -62.5t53 -168.5q-9 -56 -50 -103t-100 -74q57 -28 84 -84t15 -125q-20 -116 -118 -181.5t-251 -65.5zM500 1131q-7 -40 13 -63t61 -23
q40 0 68.5 24t35.5 62q7 37 -13.5 58t-61.5 21q-40 0 -68 -21.5t-35 -57.5zM424 780q-9 -46 15.5 -73.5t70.5 -27.5t79.5 27t42.5 74q8 47 -16 74.5t-70 27.5t-80 -27.5t-42 -74.5z" />
    <glyph glyph-name="uni2079" unicode="&#x2079;" horiz-adv-x="774" 
d="M188 587l96 172q73 -50 166 -50q70 0 122.5 40.5t77.5 114.5q-64 -54 -164 -54q-121 0 -189 67t-46 199q24 139 126 220.5t245 81.5q70 0 124 -21t85 -57.5t49.5 -86t18.5 -105.5t-9 -117q-18 -98 -54 -181t-92 -151t-139.5 -106.5t-184.5 -38.5q-77 0 -140.5 21
t-91.5 52zM465 1088q-8 -48 18 -80.5t74 -32.5t85 32.5t45 80.5q9 50 -16.5 83.5t-73.5 33.5q-49 0 -86 -33t-46 -84z" />
    <glyph glyph-name="uni2080" unicode="&#x2080;" horiz-adv-x="830" 
d="M840 412q-16 -89 -49.5 -165t-85 -137t-127 -95.5t-166.5 -34.5q-80 0 -147.5 32t-99.5 98q-64 129 -28 302q16 88 49.5 163.5t84.5 137t126.5 96.5t167.5 35t155.5 -37t91.5 -97t36.5 -138t-8.5 -160zM344 412q-19 -102 5 -172q24 -69 97 -69q42 0 76.5 23t56 61.5
t35 77t20.5 79.5q18 103 -6 172t-97 69q-42 0 -76.5 -23.5t-56 -62t-34.5 -76.5t-20 -79z" />
    <glyph glyph-name="uni2081" unicode="&#x2081;" horiz-adv-x="519" 
d="M410 0h-208l112 637h-180l33 187h388z" />
    <glyph glyph-name="uni2082" unicode="&#x2082;" horiz-adv-x="755" 
d="M693 0h-610l14 78q25 145 268 305q117 77 149 106q48 42 56 80q8 39 -14.5 60.5t-63.5 21.5q-94 0 -186 -114l-142 101q52 93 150.5 149.5t206.5 56.5q133 0 212 -68.5t56 -201.5q-8 -50 -32.5 -94t-65 -81.5t-75.5 -62.5t-86 -57q-62 -38 -76 -48q-44 -28 -61 -47h332z
" />
    <glyph glyph-name="uni2083" unicode="&#x2083;" horiz-adv-x="752" 
d="M353 -21q-108 0 -181 55q-72 53 -92 128l169 106q3 -13 19.5 -35.5t28.5 -32.5q38 -36 105 -36q40 0 73 23t39 63q8 44 -17 66t-68 22h-131l27 154h131q37 0 70 24t39 57q7 38 -18.5 60t-68.5 22q-88 0 -172 -104l-134 105q53 85 146 136.5t194 51.5q132 3 213.5 -65
t61.5 -186q-23 -123 -141 -180q48 -25 70.5 -74.5t11.5 -109.5q-11 -64 -48.5 -113.5t-90.5 -78.5t-113 -43.5t-123 -14.5z" />
    <glyph glyph-name="uni2084" unicode="&#x2084;" horiz-adv-x="761" 
d="M440 186h-375l24 140l427 498h240l-82 -469h108l-30 -169h-108l-33 -186h-204zM511 587l-187 -232h146z" />
    <glyph glyph-name="uni2085" unicode="&#x2085;" horiz-adv-x="710" 
d="M70 140l-3 10l171 104q0 -2 3.5 -10t13 -23t22.5 -28q33 -33 85 -33q45 0 81 29t44 74q9 49 -19 77t-78 28q-68 0 -119 -42l-138 53l127 445h492l-31 -178h-325l-38 -139q47 22 107 22q129 0 194 -72q65 -73 42 -195q-22 -133 -128 -208t-245 -75q-53 0 -98 13.5
t-72 32.5t-47.5 43t-29 41.5t-11.5 30.5z" />
    <glyph glyph-name="uni2086" unicode="&#x2086;" horiz-adv-x="776" 
d="M397 -20q-70 0 -124 21t-85 57.5t-49.5 86t-18 105.5t9.5 117q18 97 54 180.5t92.5 151t139.5 106.5t184 39q77 0 140 -21t92 -52l-96 -172q-74 50 -167 50q-70 0 -122.5 -40.5t-77.5 -114.5q67 54 165 54q121 0 189 -67t46 -199q-26 -138 -128 -220t-244 -82zM333 270
q-9 -50 16 -83.5t73 -33.5q49 0 86.5 33.5t46.5 83.5q8 48 -18 80.5t-74 32.5t-85 -32.5t-45 -80.5z" />
    <glyph glyph-name="uni2087" unicode="&#x2087;" horiz-adv-x="672" 
d="M319 1h-233q199 365 453 643h-385l31 180h606l-26 -150q-267 -317 -446 -673z" />
    <glyph glyph-name="uni2088" unicode="&#x2088;" horiz-adv-x="777" 
d="M384 -20q-151 0 -225.5 65.5t-54.5 181.5q13 71 58.5 126t112.5 83q-49 27 -73 73.5t-14 103.5q22 117 121 174t228 57q143 0 215 -62.5t53 -168.5q-9 -56 -50 -103t-100 -74q57 -28 84 -84t15 -125q-15 -86 -73.5 -143.5t-133.5 -80.5t-163 -23zM404 597q-7 -40 13 -63
t61 -23q40 0 68.5 24t35.5 62q7 37 -13.5 58t-61.5 21q-40 0 -68 -21.5t-35 -57.5zM327 246q-8 -46 16.5 -73.5t70.5 -27.5t79.5 27.5t41.5 73.5q9 47 -15.5 74.5t-70.5 27.5t-79.5 -27.5t-42.5 -74.5z" />
    <glyph glyph-name="uni2089" unicode="&#x2089;" horiz-adv-x="776" 
d="M94 53l97 172q73 -50 166 -50q70 0 122.5 40.5t77.5 114.5q-65 -54 -164 -54q-121 0 -189 67t-46 199q24 139 126 220.5t245 81.5q70 0 124 -21t85 -57.5t49.5 -86t18.5 -105.5t-9 -117q-18 -98 -54 -181t-92.5 -151t-140 -106.5t-184.5 -38.5q-77 0 -140 21t-92 52z
M372 554q-9 -48 17 -80.5t75 -32.5q48 0 84.5 32.5t45.5 80.5q8 51 -17 84t-73 33q-49 0 -86.5 -33.5t-45.5 -83.5z" />
    <glyph glyph-name="Euro" unicode="&#x20ac;" horiz-adv-x="1495" 
d="M343 497h-172l23 130h158q9 63 20 107h-160l23 130h175q89 243 272.5 378.5t438.5 135.5q90 0 168 -19t144.5 -58t110.5 -107t57 -159l-299 -142q-15 96 -74.5 149.5t-159.5 53.5q-96 0 -172.5 -60t-124.5 -172h326l-23 -130h-344q-13 -47 -19 -107h345l-23 -130h-324
q11 -112 68 -171.5t156 -59.5q92 0 170 57.5t127 155.5l250 -150q-54 -112 -150.5 -192t-212.5 -118.5t-243 -38.5q-253 0 -392.5 133t-138.5 384z" />
    <glyph glyph-name="trademark" unicode="&#x2122;" horiz-adv-x="1360" 
d="M838 818h-85l104 590h99l134 -433l285 433h99l-104 -590h-85l76 431l-261 -389h-61l-125 388zM388 818l90 510h-197l14 80h479l-14 -80h-197l-90 -510h-85z" />
    <glyph glyph-name="estimated" unicode="&#x212e;" horiz-adv-x="1698" 
d="M872 -20q-216 0 -394 93q-176 92 -279 251t-103 353q0 122 42 232.5t116 195t171.5 146.5t212.5 94.5t234 32.5q151 0 295.5 -54.5t253.5 -154.5q106 -98 166 -229t60 -272v-23h-1257q-11 0 -11 -9v-359q0 -24 17 -47q184 -177 478 -177q150 0 279.5 51.5t219.5 147.5
h113q-111 -132 -273.5 -202t-340.5 -70zM379 1077v-351q0 -13 11 -13h966q6 0 6 13v358q0 23 -17 46q-86 84 -209.5 129.5t-261.5 45.5q-294 0 -475 -175q-20 -25 -20 -53z" />
    <glyph glyph-name="onethird" unicode="&#x2153;" horiz-adv-x="1663" 
d="M1458 1334l-967 -1334h-167l5 26l968 1332h165zM496 1167h-180l33 187h388l-146 -824h-208zM966 162l169 106q3 -13 19.5 -35.5t28.5 -32.5q38 -36 105 -36q40 0 73 23t39 63q8 44 -17 66t-68 22h-131l27 154h131q37 0 70 24t39 57q7 38 -18.5 60t-68.5 22
q-88 0 -172 -104l-134 105q53 85 146 136.5t194 51.5q132 3 213.5 -65t61.5 -186q-23 -123 -141 -180q48 -25 70.5 -74.5t11.5 -109.5q-11 -64 -48.5 -113.5t-90.5 -78.5t-113 -43.5t-123 -14.5q-108 0 -181 55q-72 53 -92 128z" />
    <glyph glyph-name="twothirds" unicode="&#x2154;" horiz-adv-x="1822" 
d="M817 540h-610l14 78q14 78 81 151.5t187 153.5q121 81 150 106q48 42 56 80q6 39 -17 60.5t-62 21.5q-94 0 -186 -114l-141 101q50 93 149 149.5t207 56.5q133 0 212 -68.5t56 -201.5q-8 -50 -32.5 -94t-65 -81.5t-75.5 -62.5t-86 -57q-34 -21 -102 -65q-27 -18 -34 -30
h332zM681 0h-167l5 26l968 1332h165l-4 -24zM1412 -21q-108 0 -181 55q-72 53 -92 128l169 106q3 -13 19.5 -35.5t28.5 -32.5q38 -36 105 -36q40 0 73 23t39 63q8 44 -17 66t-68 22h-131l27 154h131q37 0 70 24t39 57q7 38 -18.5 60t-68.5 22q-88 0 -172 -104l-134 105
q53 85 146 136.5t194 51.5q132 3 213.5 -65t61.5 -186q-22 -123 -141 -180q48 -25 70.5 -74.5t11.5 -109.5q-11 -64 -48.5 -113.5t-90.5 -78.5t-113 -43.5t-123 -14.5z" />
    <glyph glyph-name="minus" unicode="&#x2212;" horiz-adv-x="1176" 
d="M1222 821l-50 -283h-977l50 283h977z" />
    <glyph glyph-name="uni2215" unicode="&#x2215;" horiz-adv-x="824" 
d="M133 0h-167l5 26l968 1332h165l-4 -24z" />
    <glyph glyph-name="uni2219" unicode="&#x2219;" horiz-adv-x="584" 
d="M352 342q-73 0 -114 50q-42 50 -29 122q14 74 71.5 123t132.5 49q74 0 116 -49q42 -50 29 -123t-72.5 -122.5t-133.5 -49.5z" />
    <glyph glyph-name="approxequal" unicode="&#x2248;" horiz-adv-x="1425" 
d="M368 722l-104 213q237 201 423 201q27 0 51.5 -2t48 -9t37 -11t36.5 -16t28.5 -15t30 -18.5t25.5 -15.5q76 -48 172 -48q77 0 135 22.5t129 73.5l106 -203q-237 -201 -423 -201q-131 0 -220 68t-208 68q-124 0 -267 -107zM284 252l-104 213q237 201 423 201q27 0 51.5 -2
t48 -9t37 -11t36.5 -16t28.5 -15t30 -18.5t25.5 -15.5q76 -48 172 -48q77 0 136.5 23t128.5 73l105 -203q-237 -201 -423 -201q-131 0 -220 68t-208 68q-124 0 -267 -107z" />
    <glyph glyph-name="notequal" unicode="&#x2260;" horiz-adv-x="1318" 
d="M454 307h-283l51 287h411l107 172h-488l50 286h616l258 414l150 -59l-223 -355h284l-50 -286h-413l-107 -172h490l-51 -287h-619l-261 -417l-142 64z" />
    <glyph glyph-name="lessequal" unicode="&#x2264;" horiz-adv-x="1363" 
d="M647 740h699l-49 -280h-1097l68 384l1167 514l-59 -340zM157 275h1115l-48 -275h-1115z" />
    <glyph glyph-name="greaterequal" unicode="&#x2265;" horiz-adv-x="1366" 
d="M1327 460h-1097l49 280h699l-629 278l59 340l987 -514zM1256 0h-1115l48 275h1115z" />
    <glyph glyph-name="uni25FC" unicode="&#x25fc;" horiz-adv-x="960" 
d="M0 0v960h960v-960h-960z" />
    <glyph glyph-name="foundryicon" horiz-adv-x="2324" 
d="M315 951h-103v71h295v-71h-112v-302h-80v302zM1090 951v71h283v-71h-101v-302h-81v302h-101zM1686 655v-102h-81v349h66l8 -24l7 7q22 22 60 22q48 0 75.5 -35t27.5 -94q0 -60 -33 -96.5t-88 -36.5q-25 0 -42 10zM688 655v-102h-82v349h65l9 -24l8 7q19 22 58 22
q48 0 75.5 -34.5t27.5 -94.5t-32.5 -96.5t-88.5 -36.5q-24 0 -40 10zM886 773q0 61 34 97.5t94 36.5t94 -34.5t34 -94.5q0 -61 -35 -97t-96 -36q-57 0 -91 35t-34 93zM2012 645q-59 0 -93.5 35t-34.5 93q0 61 34.5 97.5t93.5 36.5q47 0 74 -26t27 -69q0 -31 -8 -52h-139
q4 -49 55 -49q39 0 69 13l17 -58q-39 -21 -95 -21zM1398 665l-89 237h89l51 -173h3l41 173h88l-80 -257q-19 -54 -48.5 -78t-77.5 -24q-33 0 -60 13l9 59q30 -6 46 -6q31 0 37 29zM542 649h-81v253h81v-253zM1013 849q-45 0 -45 -71q0 -75 46 -75q45 0 45 72q0 74 -46 74z
M1966 803h70q4 21 -4 33.5t-26 12.5q-36 0 -40 -46zM1719 844q-19 0 -33 -12v-117q16 -9 33 -9q21 0 33.5 19t12.5 50q0 69 -46 69zM688 832v-117q9 -9 30 -9q48 0 48 69t-46 69q-20 0 -32 -12zM1876 314q-23 0 -38.5 17t-15.5 45q-2 27 15.5 44.5t41.5 17.5q23 0 37 -17
q25 -27 11 -69t-51 -38zM1164 314q-24 0 -39 17t-15 45q0 27 15.5 44.5t39.5 17.5q23 0 38.5 -17.5t15.5 -44.5t-15 -44.5t-40 -17.5zM1767 314q-28 0 -44.5 17t-16.5 45q0 27 16 44.5t42 17.5q16 0 27 -7l-1 -24h-6l-1 21q-12 3 -19 3q-22 0 -35 -14t-13 -40q0 -56 53 -56
q13 0 22 4l3 -6q-13 -5 -27 -5zM962 436v-120h-9v120h9zM295 316h-10l-39 120h9l35 -110l35 105h9l35 -105l35 110h10l-40 -120h-10l-34 104zM1018 316h-9v120h34q39 0 39 -35q0 -16 -11 -25.5t-29 -9.5h-24v-50zM1478 366v-50h-9v120h34q39 0 39 -35t-41 -35h-23zM476 316
l-39 120h9l35 -110l35 105h9l36 -105l34 110h10l-40 -120h-9l-35 104l-35 -104h-10zM1979 316h-8v120h14l45 -93l45 93h14v-120h-9v111l-46 -94h-8l-47 94v-111zM677 316h-10l-39 120h9l35 -110l35 105h9l36 -105l35 110h9l-40 -120h-9l-35 104zM1385 316v47l-42 73h10
l37 -66l37 66h9l-42 -73v-47h-9zM1645 316h-67v120h65v-6h-57v-50h55v-7h-55v-51h59v-6zM1278 316v114h-37v6h83v-6h-37v-114h-9zM836 430v6h84v-6h-38v-114h-8v114h-38zM1845 417q-21 -23 -9.5 -61.5t41.5 -34.5q19 0 31.5 14.5t12.5 38.5q0 26 -12.5 41.5t-32.5 15.5
q-19 0 -31 -14zM1164 431q-19 0 -31.5 -15t-12.5 -39q0 -25 12.5 -40.5t32.5 -15.5q19 0 31.5 14.5t12.5 38.5q0 26 -12.5 41.5t-32.5 15.5zM1042 430h-24v-58h25q30 0 30 28q0 30 -31 30zM1478 430v-58h25q30 0 30 28q0 30 -32 30h-23zM1678 314q-7 0 -7 7t7 7t7 -7t-7 -7z
M820 314q-7 0 -7 7t7 7t7 -7t-7 -7z" />
    <glyph glyph-name="IJacute" horiz-adv-x="1697" 
d="M1768 1473h-261l221 334h362zM1032 1807l-322 -334h-261l221 334h362zM608 225l255 211q80 -158 218 -158q87 0 147 56t78 158l152 866h329l-157 -892q-39 -228 -206.5 -357t-402.5 -129q-137 0 -249.5 62.5t-163.5 182.5zM731 1358l-239 -1358h-329l239 1358h329z" />
    <glyph glyph-name="i.TRK" horiz-adv-x="592" 
d="M495 1133q-76 0 -115.5 48t-26.5 124q14 76 70 124.5t133 48.5t116.5 -48t26.5 -125q-14 -77 -70 -124.5t-134 -47.5zM454 0h-315l169 960h315z" />
    <glyph glyph-name="ijacute" horiz-adv-x="1093" 
d="M1124 1113h-261l221 334h362zM624 1113h-261l221 334h362zM302 -377l69 248q69 -21 116 -21q127 0 151 139l171 971h315l-175 -994q-33 -185 -159 -286q-127 -100 -282 -100q-141 0 -206 43zM454 0h-315l169 960h315z" />
    <glyph glyph-name="zero.slash" horiz-adv-x="1299" 
d="M1186 1292l181 212l132 -97l-207 -243q100 -188 46 -495q-26 -144 -79.5 -265t-136.5 -217.5t-205 -151.5t-271 -55q-181 0 -296 83l-178 -209l-132 97l202 237q-98 179 -45 481q20 115 57 216.5t97 193t136.5 157t180.5 104t225 38.5q177 0 293 -86zM509 500l463 541
q-46 52 -129 52q-68 0 -124 -35.5t-93.5 -96t-62.5 -130.5t-39 -151q-18 -102 -15 -180zM1030 858l-462 -541q46 -52 129 -52q67 0 123 35.5t93.5 97t62.5 131.5t39 151q18 100 15 178z" />
    <glyph glyph-name="Q.alt" horiz-adv-x="1568" 
d="M780 -20q-140 0 -261 53t-202 146t-114.5 224.5t-7.5 276.5q34 193 156 353.5t301 252.5t375 92q143 0 265 -54t202 -148t112 -224t8 -272q-33 -192 -155.5 -351.5t-299.5 -252.5l240 -271l-229 -205l-339 382q-46 -2 -51 -2zM971 1059q-163 0 -286.5 -108.5
t-151.5 -270.5q-29 -165 56 -273q85 -109 248 -109q165 0 288 109t152 273t-58 272q-89 107 -248 107z" />
    <glyph glyph-name="a.alt" horiz-adv-x="1253" 
d="M514 -20q-202 0 -299 141q-99 139 -61 357q18 102 64 192.5t113.5 159.5t161 109.5t198.5 40.5q196 0 269 -121l18 101h306l-169 -960h-305l3 74q-50 -44 -129.5 -69t-169.5 -25zM472 480q-16 -94 33 -156q50 -62 140 -62q92 0 160 62.5t84 155.5q16 95 -31 157
q-46 61 -136 61q-95 0 -164.5 -62t-85.5 -156z" />
    <glyph glyph-name="g.alt" horiz-adv-x="1125" 
d="M479 -439q-107 0 -192 15t-148 45.5t-91.5 82t-16.5 120.5q23 126 171 196q-50 41 -34 131q17 97 141 182q-71 49 -102.5 123t-14.5 167q27 165 170 262.5t329 94.5q82 0 157 -20h395l-38 -217h-141q10 -59 0 -120q-21 -116 -98 -199t-180 -120.5t-221 -37.5
q-56 0 -102 11q-29 -29 -33 -57q-3 -18 9 -31t33 -13h263q83 0 146.5 -16t109 -49.5t63.5 -91.5t4 -137q-20 -110 -102 -183q-155 -138 -477 -138zM652 759q-70 0 -120.5 -34.5t-61.5 -101.5q-10 -65 25 -100q36 -36 109 -36q70 0 120.5 34.5t61.5 101.5q10 65 -25 100
q-36 36 -109 36zM322 -113q-7 -43 40 -62.5t158 -19.5q127 0 184.5 17.5t64.5 57.5q5 31 -17 48.5t-66 17.5h-330q-30 -30 -34 -59z" />
    <glyph glyph-name="l.alt" horiz-adv-x="632" 
d="M421 -20q-295 0 -244 286l201 1142h315l-191 -1087q-14 -75 69 -75q40 0 89 11l-30 -247q-94 -30 -209 -30z" />
    <glyph glyph-name="y.alt" horiz-adv-x="1166" 
d="M500 -400h-323l252 445l-248 915h356l113 -616l323 616h353z" />
    <glyph glyph-name="agrave.alt" horiz-adv-x="1253" 
d="M755 1121l-204 334h362l103 -334h-261zM514 -20q-202 0 -299 141q-99 139 -61 357q18 102 64 192.5t113.5 159.5t161 109.5t198.5 40.5q196 0 269 -121l18 101h306l-169 -960h-305l3 74q-50 -44 -129.5 -69t-169.5 -25zM472 480q-16 -94 33 -156q50 -62 140 -62
q92 0 160 62.5t84 155.5q16 95 -31 157q-46 61 -136 61q-95 0 -164.5 -62t-85.5 -156z" />
    <glyph glyph-name="aacute.alt" horiz-adv-x="1253" 
d="M975 1113h-261l221 334h362zM514 -20q-202 0 -299 141q-99 139 -61 357q18 102 64 192.5t113.5 159.5t161 109.5t198.5 40.5q196 0 269 -121l18 101h306l-169 -960h-305l3 74q-50 -44 -129.5 -69t-169.5 -25zM472 480q-16 -94 33 -156q50 -62 140 -62q92 0 160 62.5
t84 155.5q16 95 -31 157q-46 61 -136 61q-95 0 -164.5 -62t-85.5 -156z" />
    <glyph glyph-name="acircumflex.alt" horiz-adv-x="1253" 
d="M699 1084h-264l352 370h196l222 -370h-264l-91 169zM514 -20q-202 0 -299 141q-99 139 -61 357q18 102 64 192.5t113.5 159.5t161 109.5t198.5 40.5q196 0 269 -121l18 101h306l-169 -960h-305l3 74q-50 -44 -129.5 -69t-169.5 -25zM472 480q-16 -94 33 -156
q50 -62 140 -62q92 0 160 62.5t84 155.5q16 95 -31 157q-46 61 -136 61q-95 0 -164.5 -62t-85.5 -156z" />
    <glyph glyph-name="adotbelow.alt" horiz-adv-x="1253" 
d="M514 -20q-202 0 -299 141q-99 139 -61 357q18 102 64 192.5t113.5 159.5t161 109.5t198.5 40.5q196 0 269 -121l18 101h306l-169 -960h-305l3 74q-50 -44 -129.5 -69t-169.5 -25zM472 480q-16 -94 33 -156q50 -62 140 -62q92 0 160 62.5t84 155.5q16 95 -31 157
q-46 61 -136 61q-95 0 -164.5 -62t-85.5 -156zM560 -455q-72 0 -113 50q-42 49 -30 120q13 72 71.5 123t131.5 51t116 -52q42 -51 30 -122q-13 -72 -72.5 -121t-133.5 -49z" />
    <glyph glyph-name="atilde.alt" horiz-adv-x="1253" 
d="M542 1133l-97 104q147 207 295 207q43 0 130 -48q86 -48 113 -48q57 0 128 86l97 -104q-147 -207 -296 -207q-40 -2 -125.5 48t-117.5 48q-50 0 -127 -86zM514 -20q-202 0 -299 141q-99 139 -61 357q18 102 64 192.5t113.5 159.5t161 109.5t198.5 40.5q196 0 269 -121
l18 101h306l-169 -960h-305l3 74q-50 -44 -129.5 -69t-169.5 -25zM472 480q-16 -94 33 -156q50 -62 140 -62q92 0 160 62.5t84 155.5q16 95 -31 157q-46 61 -136 61q-95 0 -164.5 -62t-85.5 -156z" />
    <glyph glyph-name="adieresis.alt" horiz-adv-x="1253" 
d="M1006 1151q-67 0 -101.5 42t-22.5 109q11 67 60.5 109.5t116.5 42.5q68 0 103 -42.5t24 -109.5q-12 -67 -62 -109t-118 -42zM628 1151q-67 0 -101.5 42t-22.5 109q11 67 60.5 109.5t116.5 42.5q68 0 103 -42.5t24 -109.5q-12 -67 -62 -109t-118 -42zM514 -20
q-202 0 -299 141q-99 139 -61 357q18 102 64 192.5t113.5 159.5t161 109.5t198.5 40.5q196 0 269 -121l18 101h306l-169 -960h-305l3 74q-50 -44 -129.5 -69t-169.5 -25zM472 480q-16 -94 33 -156q50 -62 140 -62q92 0 160 62.5t84 155.5q16 95 -31 157q-46 61 -136 61
q-95 0 -164.5 -62t-85.5 -156z" />
    <glyph glyph-name="amacron.alt" horiz-adv-x="1253" 
d="M1128 1366l-36 -204h-591l36 204h591zM514 -20q-202 0 -299 141q-99 139 -61 357q18 102 64 192.5t113.5 159.5t161 109.5t198.5 40.5q196 0 269 -121l18 101h306l-169 -960h-305l3 74q-50 -44 -129.5 -69t-169.5 -25zM472 480q-16 -94 33 -156q50 -62 140 -62
q92 0 160 62.5t84 155.5q16 95 -31 157q-46 61 -136 61q-95 0 -164.5 -62t-85.5 -156z" />
    <glyph glyph-name="abreve.alt" horiz-adv-x="1253" 
d="M798 1115q-138 0 -212 89q-74 90 -55 236h210q-8 -57 17 -92.5t74 -35.5q51 0 88.5 35t48.5 93h210q-32 -143 -134.5 -234t-246.5 -91zM514 -20q-202 0 -299 141q-99 139 -61 357q18 102 64 192.5t113.5 159.5t161 109.5t198.5 40.5q196 0 269 -121l18 101h306l-169 -960
h-305l3 74q-50 -44 -129.5 -69t-169.5 -25zM472 480q-16 -94 33 -156q50 -62 140 -62q92 0 160 62.5t84 155.5q16 95 -31 157q-46 61 -136 61q-95 0 -164.5 -62t-85.5 -156z" />
    <glyph glyph-name="aring.alt" horiz-adv-x="1253" 
d="M1028 1287q-16 -95 -90.5 -156t-170.5 -61t-149 62q-52 61 -36 155q16 96 90 158t172 62q96 0 149 -62q52 -62 35 -158zM743 1287q-5 -26 9.5 -44.5t41.5 -18.5q26 0 46.5 18t25.5 45q5 28 -9 47t-40 19q-27 0 -48 -19t-26 -47zM514 -20q-202 0 -299 141q-99 139 -61 357
q18 102 64 192.5t113.5 159.5t161 109.5t198.5 40.5q196 0 269 -121l18 101h306l-169 -960h-305l3 74q-50 -44 -129.5 -69t-169.5 -25zM472 480q-16 -94 33 -156q50 -62 140 -62q92 0 160 62.5t84 155.5q16 95 -31 157q-46 61 -136 61q-95 0 -164.5 -62t-85.5 -156z" />
    <glyph glyph-name="aringacute.alt" horiz-adv-x="1253" 
d="M1308 1903l-322 -334h-261l221 334h362zM1028 1287q-16 -95 -90.5 -156t-170.5 -61t-149 62q-52 61 -36 155q16 96 90 158t172 62q96 0 149 -62q52 -62 35 -158zM743 1287q-5 -26 9.5 -44.5t41.5 -18.5q26 0 46.5 18t25.5 45q5 28 -9 47t-40 19q-27 0 -48 -19t-26 -47z
M514 -20q-202 0 -299 141q-99 139 -61 357q18 102 64 192.5t113.5 159.5t161 109.5t198.5 40.5q196 0 269 -121l18 101h306l-169 -960h-305l3 74q-50 -44 -129.5 -69t-169.5 -25zM472 480q-16 -94 33 -156q50 -62 140 -62q92 0 160 62.5t84 155.5q16 95 -31 157
q-46 61 -136 61q-95 0 -164.5 -62t-85.5 -156z" />
    <glyph glyph-name="aogonek.alt" horiz-adv-x="1253" 
d="M514 -20q-202 0 -299 141q-99 139 -61 357q18 102 64 192.5t113.5 159.5t161 109.5t198.5 40.5q196 0 269 -121l18 101h306l-169 -960h-90q-216 -113 -230 -194q-6 -35 15 -56t64 -21q57 0 114 27l33 -176q-97 -57 -230 -57q-120 0 -180 57.5t-43 153.5q26 155 242 268
l3 72q-50 -44 -129.5 -69t-169.5 -25zM472 480q-16 -94 33 -156q50 -62 140 -62q92 0 160 62.5t84 155.5q16 95 -31 157q-46 61 -136 61q-95 0 -164.5 -62t-85.5 -156z" />
    <glyph glyph-name="gcircumflex.alt" horiz-adv-x="1125" 
d="M619 1084h-264l352 370h196l222 -370h-264l-91 169zM479 -439q-107 0 -192 15t-148 45.5t-91.5 82t-16.5 120.5q23 126 171 196q-50 41 -34 131q17 97 141 182q-71 49 -102.5 123t-14.5 167q27 165 170 262.5t329 94.5q82 0 157 -20h395l-38 -217h-141q10 -59 0 -120
q-21 -116 -98 -199t-180 -120.5t-221 -37.5q-56 0 -102 11q-29 -29 -33 -57q-3 -18 9 -31t33 -13h263q83 0 146.5 -16t109 -49.5t63.5 -91.5t4 -137q-20 -110 -102 -183q-155 -138 -477 -138zM652 759q-70 0 -120.5 -34.5t-61.5 -101.5q-10 -65 25 -100q36 -36 109 -36
q70 0 120.5 34.5t61.5 101.5q10 65 -25 100q-36 36 -109 36zM322 -113q-7 -43 40 -62.5t158 -19.5q127 0 184.5 17.5t64.5 57.5q5 31 -17 48.5t-66 17.5h-330q-30 -30 -34 -59z" />
    <glyph glyph-name="gbreve.alt" horiz-adv-x="1125" 
d="M758 1115q-138 0 -212 89q-74 90 -55 236h210q-8 -57 17 -92.5t74 -35.5q51 0 88.5 35t48.5 93h210q-32 -143 -134.5 -234t-246.5 -91zM479 -439q-107 0 -192 15t-148 45.5t-91.5 82t-16.5 120.5q23 126 171 196q-50 41 -34 131q17 97 141 182q-71 49 -102.5 123
t-14.5 167q27 165 170 262.5t329 94.5q82 0 157 -20h395l-38 -217h-141q10 -59 0 -120q-21 -116 -98 -199t-180 -120.5t-221 -37.5q-56 0 -102 11q-29 -29 -33 -57q-3 -18 9 -31t33 -13h263q83 0 146.5 -16t109 -49.5t63.5 -91.5t4 -137q-20 -110 -102 -183
q-155 -138 -477 -138zM652 759q-70 0 -120.5 -34.5t-61.5 -101.5q-10 -65 25 -100q36 -36 109 -36q70 0 120.5 34.5t61.5 101.5q10 65 -25 100q-36 36 -109 36zM322 -113q-7 -43 40 -62.5t158 -19.5q127 0 184.5 17.5t64.5 57.5q5 31 -17 48.5t-66 17.5h-330
q-30 -30 -34 -59z" />
    <glyph glyph-name="gcaron.alt" horiz-adv-x="1125" 
d="M637 1095l-222 370h264l92 -169l150 169h264l-352 -370h-196zM479 -439q-107 0 -192 15t-148 45.5t-91.5 82t-16.5 120.5q23 126 171 196q-50 41 -34 131q17 97 141 182q-71 49 -102.5 123t-14.5 167q27 165 170 262.5t329 94.5q82 0 157 -20h395l-38 -217h-141
q10 -59 0 -120q-21 -116 -98 -199t-180 -120.5t-221 -37.5q-56 0 -102 11q-29 -29 -33 -57q-3 -18 9 -31t33 -13h263q83 0 146.5 -16t109 -49.5t63.5 -91.5t4 -137q-20 -110 -102 -183q-155 -138 -477 -138zM652 759q-70 0 -120.5 -34.5t-61.5 -101.5q-10 -65 25 -100
q36 -36 109 -36q70 0 120.5 34.5t61.5 101.5q10 65 -25 100q-36 36 -109 36zM322 -113q-7 -43 40 -62.5t158 -19.5q127 0 184.5 17.5t64.5 57.5q5 31 -17 48.5t-66 17.5h-330q-30 -30 -34 -59z" />
    <glyph glyph-name="gdotaccent.alt" horiz-adv-x="1125" 
d="M737 1133q-76 0 -115.5 48t-26.5 124q14 76 70 124.5t133 48.5t116.5 -48t26.5 -125q-14 -77 -70 -124.5t-134 -47.5zM479 -439q-107 0 -192 15t-148 45.5t-91.5 82t-16.5 120.5q23 126 171 196q-50 41 -34 131q17 97 141 182q-71 49 -102.5 123t-14.5 167
q27 165 170 262.5t329 94.5q82 0 157 -20h395l-38 -217h-141q10 -59 0 -120q-21 -116 -98 -199t-180 -120.5t-221 -37.5q-56 0 -102 11q-29 -29 -33 -57q-3 -18 9 -31t33 -13h263q83 0 146.5 -16t109 -49.5t63.5 -91.5t4 -137q-20 -110 -102 -183q-155 -138 -477 -138z
M652 759q-70 0 -120.5 -34.5t-61.5 -101.5q-10 -65 25 -100q36 -36 109 -36q70 0 120.5 34.5t61.5 101.5q10 65 -25 100q-36 36 -109 36zM322 -113q-7 -43 40 -62.5t158 -19.5q127 0 184.5 17.5t64.5 57.5q5 31 -17 48.5t-66 17.5h-330q-30 -30 -34 -59z" />
    <glyph glyph-name="gcommaaccent.alt" horiz-adv-x="1125" 
d="M870 1551l-77 -442h-297l148 442h226zM479 -439q-107 0 -192 15t-148 45.5t-91.5 82t-16.5 120.5q23 126 171 196q-50 41 -34 131q17 97 141 182q-71 49 -102.5 123t-14.5 167q27 165 170 262.5t329 94.5q82 0 157 -20h395l-38 -217h-141q10 -59 0 -120
q-21 -116 -98 -199t-180 -120.5t-221 -37.5q-56 0 -102 11q-29 -29 -33 -57q-3 -18 9 -31t33 -13h263q83 0 146.5 -16t109 -49.5t63.5 -91.5t4 -137q-20 -110 -102 -183q-155 -138 -477 -138zM652 759q-70 0 -120.5 -34.5t-61.5 -101.5q-10 -65 25 -100q36 -36 109 -36
q70 0 120.5 34.5t61.5 101.5q10 65 -25 100q-36 36 -109 36zM322 -113q-7 -43 40 -62.5t158 -19.5q127 0 184.5 17.5t64.5 57.5q5 31 -17 48.5t-66 17.5h-330q-30 -30 -34 -59z" />
    <glyph glyph-name="yacute.alt" horiz-adv-x="1166" 
d="M1237 1447l-322 -334h-261l221 334h362zM500 -400h-323l252 445l-248 915h356l113 -616l323 616h353z" />
    <glyph glyph-name="ycircumflex.alt" horiz-adv-x="1166" 
d="M654 1085h-264l353 370h196l221 -370h-264l-91 169zM500 -400h-323l252 445l-248 915h356l113 -616l323 616h353z" />
    <glyph glyph-name="ydieresis.alt" horiz-adv-x="1166" 
d="M976 1155q-67 0 -102 42t-23 109t61.5 109.5t116.5 42.5q68 0 103 -42.5t23 -109.5t-61.5 -109t-117.5 -42zM598 1155q-67 0 -102 42t-23 109t61.5 109.5t116.5 42.5q68 0 103 -42.5t23 -109.5t-61.5 -109t-117.5 -42zM500 -400h-323l252 445l-248 915h356l113 -616
l323 616h353z" />
    <glyph glyph-name="ygrave.alt" horiz-adv-x="1166" 
d="M665 1121l-204 334h362l103 -334h-261zM500 -400h-323l252 445l-248 915h356l113 -616l323 616h353z" />
    <glyph glyph-name="ymacron.alt" horiz-adv-x="1166" 
d="M1115 1339l-36 -204h-591l36 204h591zM500 -400h-323l252 445l-248 915h356l113 -616l323 616h353z" />
    <glyph glyph-name="ytilde.alt" horiz-adv-x="1166" 
d="M526 1133l-97 104q147 207 295 207q43 0 130 -48q86 -48 113 -48q57 0 128 86l97 -104q-147 -207 -296 -207q-40 -2 -125.5 48t-117.5 48q-50 0 -127 -86zM500 -400h-323l252 445l-248 915h356l113 -616l323 616h353z" />
    <glyph glyph-name="zero.slash.tnum" 
d="M1250 1292l181 212l132 -97l-207 -242q101 -190 47 -496q-26 -144 -79.5 -265t-136.5 -217.5t-205 -151.5t-271 -55q-181 0 -296 83l-179 -209l-132 97l203 237q-97 181 -45 481q20 115 57 216.5t97 193t136.5 157t180.5 104t225 38.5q179 0 292 -86zM574 501l462 541
q-47 51 -128 51q-68 0 -124 -35.5t-93.5 -96t-62.5 -130.5t-39 -151q-18 -102 -15 -179zM1095 859l-463 -541q47 -53 130 -53q67 0 123 35.5t93.5 97t62.5 131.5t39 151q18 102 15 179z" />
    <glyph glyph-name="zero.tnum" 
d="M711 -20q-117 0 -206.5 34.5t-143.5 97t-85 148.5t-31.5 189.5t17.5 219.5q20 115 57 216.5t97 193t136.5 157t180.5 104t225 38.5q101 0 181 -27.5t133 -77t87.5 -115t48.5 -146t12.5 -166t-17.5 -177.5q-26 -144 -79.5 -265t-136.5 -217.5t-205 -151.5t-271 -55z
M589 680q-15 -86 -15 -157.5t17 -131t60.5 -93t110.5 -33.5t123 35.5t93.5 97t62.5 131.5t39 151q15 86 15 157.5t-17.5 130.5t-60.5 92t-109 33q-68 0 -124 -35.5t-93.5 -96t-62.5 -130.5t-39 -151z" />
    <glyph glyph-name="one.tnum" 
d="M1198 0h-968l50 283h340l140 792h-279l49 283h608l-189 -1075h299z" />
    <glyph glyph-name="two.tnum" 
d="M1226 0h-985l21 120q8 58 45 121t81.5 111.5t111.5 104.5t112.5 88.5t107.5 74.5l105 72l12 9t21.5 15.5t26.5 19.5q42 30 84.5 71t56.5 73q12 25 16 49q13 74 -28 120.5t-120 46.5q-73 0 -146.5 -53.5t-128.5 -143.5l-236 122q73 132 207 237q71 55 164.5 87.5
t193.5 32.5q234 0 352 -121t83 -324q-14 -76 -61.5 -149t-101.5 -122.5t-127 -101.5q-70 -51 -175 -118q-7 -4 -15 -9.5t-13 -9t-9 -5.5q-163 -106 -182 -136h577z" />
    <glyph glyph-name="three.tnum" 
d="M713 -20q-174 0 -294.5 88.5t-155.5 255.5l265 132q57 -195 238 -195q71 0 132 40.5t72 107.5q13 73 -32.5 115t-137.5 42h-203l42 241h203q73 0 136 42t74 111q10 60 -32 98.5t-119 38.5q-169 0 -280 -177l-222 122q74 130 209 227q150 109 351 109q221 0 336 -112
q116 -113 84 -295q-17 -94 -78.5 -165.5t-153.5 -110.5q83 -37 123.5 -117t22.5 -183q-33 -185 -193 -300t-387 -115z" />
    <glyph glyph-name="four.tnum" 
d="M831 340h-621l40 227l693 791h377l-132 -750h197l-47 -268h-197l-60 -340h-310zM945 988l-332 -380h265z" />
    <glyph glyph-name="five.tnum" 
d="M249 313l285 138q28 -92 82.5 -140t129.5 -48q87 0 158 53.5t85 137.5q16 85 -32 140q-50 53 -139 53q-134 0 -232 -111l-216 102l204 720h818l-49 -283h-554l-68 -239q31 25 91.5 38t111.5 13q214 0 320 -118t71 -317q-26 -147 -117.5 -255.5t-220.5 -162.5t-278 -54
q-180 0 -294 87.5t-156 245.5z" />
    <glyph glyph-name="six.tnum" 
d="M718 -20q-113 0 -200.5 33t-140.5 91t-84 137.5t-32.5 173t14.5 197.5q29 166 91.5 302.5t159.5 241.5t236.5 163.5t309.5 58.5q109 0 189 -19t156 -62l-111 -258q-123 66 -259 66q-157 0 -261 -77t-143 -228q51 56 136 85.5t169 29.5q195 0 311 -108q58 -54 80.5 -141.5
t4.5 -196.5q-27 -153 -118 -265t-222 -168t-286 -56zM841 655q-89 0 -158 -57t-85 -144t35 -144q49 -57 138 -57t158 57t85 144q16 86 -34 144q-51 57 -139 57z" />
    <glyph glyph-name="seven.tnum" 
d="M665 0h-339q358 656 729 1071h-646l50 287h988l-42 -242q-471 -573 -740 -1116z" />
    <glyph glyph-name="eight.tnum" 
d="M710 -20q-81 0 -153 14t-133.5 45.5t-102.5 77t-58 113.5t-2 151q20 113 93.5 199t182.5 129q-80 38 -118.5 114t-20.5 176q18 99 72 174t132.5 118.5t167.5 65t187 21.5q99 0 181.5 -22t145 -66.5t89.5 -119t10 -171.5q-18 -99 -82.5 -174.5t-158.5 -115.5
q93 -44 136.5 -130t23.5 -198q-18 -104 -76 -183.5t-141 -125.5t-178 -69t-197 -23zM718 970q-12 -67 24 -116q34 -49 114 -49q72 0 127.5 47t68.5 118q12 65 -27 110q-39 44 -113 44q-71 0 -126 -42.5t-68 -111.5zM593 402q-14 -77 35 -121q47 -46 127 -46t144 45.5
t78 121.5q13 79 -34 125t-128 46q-82 0 -145.5 -46.5t-76.5 -124.5z" />
    <glyph glyph-name="nine.tnum" 
d="M172 59l111 258q123 -66 259 -66q156 0 260.5 77t143.5 228q-50 -56 -135.5 -85.5t-169.5 -29.5q-195 0 -311 108q-58 54 -80.5 141.5t-4.5 196.5q27 153 118 265t222 168t286 56q113 0 200.5 -33t140.5 -91t84 -137.5t32.5 -173t-14.5 -197.5q-29 -166 -91.5 -302.5
t-159 -241.5t-236 -163.5t-310.5 -58.5q-109 0 -189 19t-156 62zM818 1103q-89 0 -158 -57t-85 -144t35 -144q50 -57 138 -57q89 0 158 57t85 144q16 86 -34 144q-51 57 -139 57z" />
    <glyph glyph-name="plus.tnum" 
d="M576 151l69 391h-398l49 283h398l68 383h327l-68 -383h402l-49 -283h-402l-69 -391h-327z" />
    <glyph glyph-name="minus.tnum" 
d="M1348 821l-50 -283h-977l50 283h977z" />
    <glyph glyph-name="plusminus.tnum" 
d="M686 758h-380l50 283h380l55 317h323l-55 -317h380l-50 -283h-380l-58 -327h-323zM1305 275l-48 -275h-1085l48 275h1085z" />
    <glyph glyph-name="equal.tnum" 
d="M357 1052h1085l-50 -286h-1085zM277 594h1085l-51 -287h-1085z" />
    <glyph glyph-name="notequal.tnum" 
d="M509 307h-283l51 287h411l107 172h-488l50 286h616l258 414l150 -59l-223 -355h284l-50 -286h-413l-107 -172h490l-51 -287h-619l-261 -417l-142 64z" />
    <glyph glyph-name="approxequal.tnum" 
d="M369 722l-104 213q237 201 423 201q27 0 51.5 -2t48 -9t37 -11t36.5 -16t28.5 -15t30 -18.5t25.5 -15.5q76 -48 172 -48q77 0 135 22.5t129 73.5l106 -203q-237 -201 -423 -201q-131 0 -220 68t-208 68q-124 0 -267 -107zM285 252l-104 213q237 201 423 201q27 0 51.5 -2
t48 -9t37 -11t36.5 -16t28.5 -15t30 -18.5t25.5 -15.5q76 -48 172 -48q77 0 136.5 23t128.5 73l105 -203q-237 -201 -423 -201q-131 0 -220 68t-208 68q-124 0 -267 -107z" />
    <glyph glyph-name="multiply.tnum" 
d="M409 136l-176 214l386 329l-270 329l251 214l271 -329l387 329l177 -214l-387 -329l271 -329l-252 -214l-271 329z" />
    <glyph glyph-name="less.tnum" 
d="M719 680l581 -272l-56 -319l-946 462l45 257l1109 463l-56 -320z" />
    <glyph glyph-name="greater.tnum" 
d="M950 680l-581 272l56 319l946 -462l-46 -257l-1108 -463l56 320z" />
    <glyph glyph-name="lessequal.tnum" 
d="M695 740h699l-49 -280h-1097l68 384l1167 514l-59 -340zM205 275h1115l-48 -275h-1115z" />
    <glyph glyph-name="greaterequal.tnum" 
d="M1343 460h-1097l49 280h699l-629 278l59 340l987 -514zM1272 0h-1115l48 275h1115z" />
    <glyph glyph-name="divide.tnum" 
d="M1082 1095q-14 -73 -72.5 -122.5t-132.5 -49.5t-115 50q-42 50 -29 122q14 74 71.5 123t132.5 49q74 0 116 -49q42 -50 29 -123zM1363 538h-1107l50 283h1107zM936 266q-14 -73 -72.5 -122.5t-132.5 -49.5t-115 50q-42 50 -29 122q14 74 71.5 123t132.5 49q74 0 116 -49
q42 -50 29 -123z" />
    <glyph glyph-name="logicalnot.tnum" 
d="M1340 364h-327l61 346h-796l50 283h1123z" />
    <glyph glyph-name="numbersign.tnum" 
d="M323 312h-221l80 227h223l107 301h-223l82 226h222l103 292h255l-100 -292h240l103 292h256l-102 -292h221l-80 -226h-223l-108 -301h223l-82 -227h-221l-111 -312h-257l111 312h-241l-111 -312h-257zM1011 840h-243l-108 -301h243z" />
    <glyph glyph-name="dollar.tnum" 
d="M623 -176l28 160q-155 16 -275.5 93.5t-165.5 214.5l279 180q32 -69 88.5 -117t127.5 -67l45 258q-216 64 -295 137q-122 105 -88 290q19 115 102 207q162 181 428 197l28 159h131l-29 -165q261 -36 387 -283l-275 -179q-65 121 -165 162l-44 -249q121 -44 156 -59
q114 -47 172 -101q55 -53 76 -116.5t4 -152.5q-17 -95 -72 -172.5t-132.5 -126.5t-167 -77.5t-184.5 -34.5l-28 -158h-131zM806 864l40 223q-60 -7 -99.5 -36t-46.5 -72q-8 -41 17 -66.5t89 -48.5zM874 506l-40 -227q69 8 116 36t54 67q8 41 -23 68.5t-107 55.5z" />
    <glyph glyph-name="Euro.tnum" 
d="M305 497h-172l23 130h158q9 63 20 107h-160l23 130h175q89 243 272.5 378.5t438.5 135.5q90 0 168 -19t144.5 -58t110.5 -107t57 -159l-299 -142q-15 96 -74.5 149.5t-159.5 53.5q-96 0 -172.5 -60t-124.5 -172h326l-23 -130h-344q-13 -47 -19 -107h345l-23 -130h-324
q11 -112 68 -171.5t156 -59.5q92 0 170 57.5t127 155.5l250 -150q-54 -112 -150.5 -192t-212.5 -118.5t-243 -38.5q-253 0 -392.5 133t-138.5 384z" />
    <glyph glyph-name="yen.tnum" 
d="M579 635l-337 723h403l223 -518l410 518h385l-588 -723h201l-23 -130h-284l-19 -107h284l-23 -130h-284l-47 -268h-329l47 268h-289l23 130h289l19 107h-289l23 130h205z" />
    <glyph glyph-name="sterling.tnum" 
d="M1261 264l-47 -264h-1076l38 215q98 60 145.5 119t59.5 132l24 142h-153l32 179h151l20 115q39 225 205 351t399 126q319 0 421 -304l-285 -149q-47 170 -190 170q-85 0 -145 -53.5t-76 -138.5l-21 -117h322l-32 -179h-321l-20 -112q-24 -143 -131 -232h680z" />
    <glyph glyph-name="currency.tnum" 
d="M348 108l-134 163l201 171q-42 100 -21 220q19 115 94 214l-138 166l191 163l137 -167q113 59 228 59q120 0 212 -59l194 167l135 -163l-197 -166q41 -98 21 -214q-21 -119 -102 -220l142 -171l-192 -163l-142 175q-111 -54 -224 -54q-111 0 -199 54zM649 662
q-13 -73 31 -126t118 -53q76 0 140.5 52t77.5 127q14 77 -31 130q-47 53 -123 53t-137.5 -53.5t-75.5 -129.5z" />
    <glyph glyph-name="florin.tnum" 
d="M356 -20q-136 0 -233 53l132 235q41 -31 120 -31q74 0 129.5 36.5t78.5 108.5l81 258h-158l81 257h158l30 94q49 157 181 268q66 56 158.5 87.5t196.5 31.5q136 0 234 -53l-133 -235q-40 31 -119 31q-78 0 -137.5 -38t-81.5 -110l-25 -76h266l-81 -257h-255l-87 -276
q-56 -179 -201 -281.5t-335 -102.5z" />
    <glyph glyph-name="cent.tnum" 
d="M674 0l32 181q-194 23 -291 160q-97 138 -63 337q35 197 182 334t346 161l30 168h131l-29 -166q119 -12 212 -78t132 -176l-273 -173q-25 106 -123 133l-72 -409q99 26 176 130l207 -174q-177 -218 -434 -247l-32 -181h-131zM664 678q-13 -71 12.5 -124.5t81.5 -75.5
l70 397q-63 -22 -107.5 -75t-56.5 -122z" />
    <glyph glyph-name="mu.tnum" 
d="M481 -400h-315l240 1360h315l-94 -534q-14 -75 29 -116q40 -42 104 -42q71 0 125 44t67 114l94 534h315l-169 -960h-289l8 101q-92 -110 -223 -110q-84 0 -131 40z" />
    <glyph glyph-name="pi.tnum" 
d="M242 0l148 838h-168l50 284h1281l-51 -284h-160l-80 -455q-13 -68 22.5 -100t111.5 -25l-47 -270q-38 -8 -95 -8q-174 0 -260 89q-87 88 -55 273l88 496h-322l-148 -838h-315z" />
    <glyph glyph-name="degree.tnum" 
d="M833 678q-155 0 -237 99q-84 99 -58 249q27 152 145.5 252t272.5 100q155 0 240 -100q84 -100 57 -252q-26 -152 -145.5 -250t-274.5 -98zM754 1026q-11 -61 22 -101q33 -41 93 -41q61 0 106.5 40.5t56.5 101.5q11 62 -20.5 104t-91.5 42t-107.5 -43t-58.5 -103z" />
    <glyph glyph-name="ordmasculine.tnum" 
d="M1231 1051q-24 -141 -135 -232t-255 -91q-143 0 -220 92q-78 92 -54 231q26 141 135.5 234t253.5 93q142 0 222 -93q78 -95 53 -234zM767 1051q-10 -55 21 -93.5t87 -38.5t98.5 37.5t52.5 94.5q11 57 -18.5 96t-85.5 39q-57 0 -100.5 -39t-54.5 -96zM1138 635l-27 -155
h-624l27 155h624z" />
    <glyph glyph-name="ordfeminine.tnum" 
d="M783 752q-97 0 -147.5 51t-36.5 133q17 94 101 142t188 48q70 0 117 -21l1 6q8 44 -19.5 72t-80.5 28q-90 0 -166 -65l-74 126q56 50 133.5 79t152.5 29q129 0 193.5 -64t44.5 -174l-66 -378h-169l11 66q-68 -78 -183 -78zM787 947q-4 -26 13.5 -40.5t50.5 -14.5
q42 0 83.5 26t48.5 65q-28 23 -89 23q-46 0 -74 -15.5t-33 -43.5zM1083 507h-554l27 150h554z" />
    <glyph glyph-name="zero.slash.onum" horiz-adv-x="1263" 
d="M1111 1017l192 191l104 -96l-188 -187q124 -151 82 -389q-26 -160 -122 -288t-240.5 -199t-309.5 -69q-170 0 -289 71l-191 -190l-104 96l187 186q-123 155 -80 393q45 249 231.5 400t441.5 151q168 0 286 -70zM477 387l393 390q-44 16 -96 16q-119 0 -205.5 -70.5
t-105.5 -186.5q-15 -85 14 -149zM975 682l-393 -391q46 -17 100 -17q118 0 202.5 73t105.5 189q15 83 -15 146z" />
    <glyph glyph-name="zero.onum" horiz-adv-x="1308" 
d="M652 -20q-257 0 -389 155q-131 154 -88 401q45 249 231.5 400t441.5 151t387 -153q132 -154 89 -398q-26 -160 -122 -288t-240.5 -199t-309.5 -69zM486 536q-21 -117 40 -189q60 -73 179 -73q118 0 202.5 73t105.5 189q20 116 -40 186q-60 71 -176 71
q-119 0 -205.5 -70.5t-105.5 -186.5z" />
    <glyph glyph-name="one.onum" horiz-adv-x="1049" 
d="M1079 278l-49 -278h-968l49 278h339l88 500h-309l53 299h638l-141 -799h300z" />
    <glyph glyph-name="two.onum" horiz-adv-x="1121" 
d="M1061 0h-968l38 217h-2l2 1l1 3l5 1l387 238q148 94 201 141q52 46 61 100q8 48 -20.5 77.5t-85.5 29.5q-70 0 -133.5 -44t-107.5 -114l-238 144q81 124 227 210q145 85 322 85q210 0 319 -101q108 -100 79 -270q-41 -226 -480 -440h442z" />
    <glyph glyph-name="three.onum" horiz-adv-x="1149" 
d="M509 -310q-175 0 -295 88t-155 256l265 132q57 -195 238 -195q71 0 132 40.5t72 107.5q13 73 -32.5 115t-137.5 42h-203l42 241h203q73 0 136 42t74 111q10 60 -32 98.5t-119 38.5q-169 0 -280 -177l-222 122q71 127 208 227q150 109 352 109q221 0 336 -112
q116 -113 84 -295q-17 -94 -78.5 -165.5t-154.5 -110.5q85 -37 125 -117t22 -183q-33 -185 -193 -300t-387 -115z" />
    <glyph glyph-name="four.onum" horiz-adv-x="1202" 
d="M665 49h-621l40 227l693 791h377l-132 -750h197l-47 -268h-197l-60 -340h-310zM779 697l-332 -380h265z" />
    <glyph glyph-name="five.onum" horiz-adv-x="1128" 
d="M38 22l284 138q28 -92 83 -140t130 -48q87 0 158 53.5t85 137.5q15 86 -33 140q-48 53 -138 53q-133 0 -233 -111l-215 102l204 720h818l-50 -283h-554l-67 -239q31 25 91.5 38t111.5 13q213 0 319 -118t71 -317q-26 -148 -117 -256.5t-219 -162t-279 -53.5
q-180 0 -294.5 88t-155.5 245z" />
    <glyph glyph-name="six.onum" horiz-adv-x="1229" 
d="M631 -20q-113 0 -200.5 33t-140.5 91t-84 137.5t-32.5 173t14.5 197.5q29 166 91.5 302.5t159.5 241.5t236.5 163.5t309.5 58.5q109 0 189 -19t156 -62l-111 -258q-123 66 -259 66q-157 0 -261 -77t-143 -228q51 56 136 85.5t169 29.5q195 0 311 -108q58 -54 80.5 -141.5
t4.5 -196.5q-27 -153 -118 -265t-222 -168t-286 -56zM754 655q-89 0 -158 -57t-85 -144t35 -144q50 -57 138 -57q89 0 158 57t85 144q16 86 -34 144q-51 57 -139 57z" />
    <glyph glyph-name="seven.onum" horiz-adv-x="1027" 
d="M420 -291h-339q353 651 729 1071h-646l50 287h988l-43 -242q-467 -567 -739 -1116z" />
    <glyph glyph-name="eight.onum" horiz-adv-x="1191" 
d="M591 -20q-81 0 -153 14t-133.5 45.5t-102.5 77t-58 113.5t-2 151q20 113 93.5 199t182.5 129q-80 38 -118.5 114t-20.5 176q18 99 72 174t132.5 118.5t167.5 65t187 21.5q99 0 181.5 -22t145 -66.5t89.5 -119t10 -171.5q-18 -99 -82.5 -174.5t-158.5 -115.5
q93 -44 136.5 -130t23.5 -198q-18 -104 -76 -183.5t-141 -125.5t-178 -69t-197 -23zM599 970q-12 -67 24 -116q34 -49 114 -49q72 0 127.5 47t68.5 118q12 65 -27 110q-39 44 -113 44q-71 0 -126 -42.5t-68 -111.5zM474 402q-14 -77 35 -121q47 -46 127 -46t144 45.5
t78 121.5q13 79 -34 125t-128 46q-82 0 -145.5 -46.5t-76.5 -124.5z" />
    <glyph glyph-name="nine.onum" horiz-adv-x="1227" 
d="M20 -236l111 258q123 -66 259 -66q156 0 260.5 77t143.5 228q-50 -56 -135.5 -85.5t-169.5 -29.5q-195 0 -311 108q-58 54 -80.5 141.5t-4.5 196.5q27 153 118 265t222 168t286 56q113 0 200.5 -33t140.5 -91t84 -137.5t32.5 -173t-14.5 -197.5q-29 -166 -91.5 -302.5
t-159 -241.5t-236 -163.5t-310.5 -58.5q-109 0 -189 19t-156 62zM666 808q-89 0 -158 -57t-85 -144t35 -144q50 -57 138 -57q89 0 158 57t85 144q16 86 -34 144q-51 57 -139 57z" />
    <glyph glyph-name="plus.onum" horiz-adv-x="1314" 
d="M493 4l69 391h-398l50 283h398l67 383h327l-67 -383h402l-50 -283h-402l-69 -391h-327z" />
    <glyph glyph-name="minus.onum" horiz-adv-x="1198" 
d="M1207 674l-50 -283h-977l50 283h977z" />
    <glyph glyph-name="plusminus.onum" horiz-adv-x="1305" 
d="M598 611h-380l50 283h380l56 317h323l-56 -317h380l-50 -283h-380l-58 -327h-323zM1218 128l-49 -275h-1085l49 275h1085z" />
    <glyph glyph-name="equal.onum" horiz-adv-x="1362" 
d="M299 905h1085l-51 -286h-1085zM218 447h1085l-51 -287h-1085z" />
    <glyph glyph-name="notequal.onum" horiz-adv-x="1338" 
d="M431 160h-283l51 287h411l107 172h-488l51 286h616l258 414l149 -59l-222 -355h284l-51 -286h-413l-107 -172h490l-51 -287h-619l-261 -417l-142 64z" />
    <glyph glyph-name="approxequal.onum" horiz-adv-x="1467" 
d="M363 575l-104 213q237 201 423 201q57 0 107 -13.5t75.5 -27.5t62.5 -38q4 -3 6.5 -4.5t5.5 -3.5q73 -48 172 -48q77 0 136.5 23t128.5 73l105 -203q-237 -201 -423 -201q-23 0 -45.5 2.5t-39 5.5t-35.5 10t-30.5 11.5t-29 14.5l-24.5 14t-24.5 15.5t-22.5 14.5
q-75 48 -177 48q-124 0 -267 -107zM280 105l-105 213q237 201 424 201q21 0 41 -1.5t38.5 -5.5t32 -7t31 -10.5t25.5 -10.5t25.5 -13t21.5 -12.5t22 -14t20 -12.5q75 -48 171 -48q77 0 136.5 23t128.5 73l105 -203q-237 -201 -423 -201q-23 0 -45.5 2.5t-39 5.5t-35.5 10
t-30.5 11.5t-29 14.5l-24.5 14t-24.5 15.5t-22.5 14.5q-75 48 -177 48q-123 0 -266 -107z" />
    <glyph glyph-name="multiply.onum" horiz-adv-x="1251" 
d="M295 -11l-176 214l386 329l-270 329l252 214l271 -329l387 329l176 -214l-387 -329l271 -329l-252 -214l-271 329z" />
    <glyph glyph-name="less.onum" horiz-adv-x="1248" 
d="M587 533l581 -272l-56 -319l-946 462l46 257l1108 463l-56 -320z" />
    <glyph glyph-name="greater.onum" horiz-adv-x="1248" 
d="M850 533l-581 272l56 319l946 -462l-46 -257l-1108 -463l56 320z" />
    <glyph glyph-name="lessequal.onum" horiz-adv-x="1396" 
d="M635 593h699l-50 -280h-1097l68 384l1168 514l-60 -340zM145 128h1115l-49 -275h-1115z" />
    <glyph glyph-name="greaterequal.onum" horiz-adv-x="1398" 
d="M1320 313h-1097l50 280h699l-630 278l60 340l986 -514zM1249 -147h-1115l49 275h1115z" />
    <glyph glyph-name="divide.onum" horiz-adv-x="1328" 
d="M1006 948q-14 -73 -72.5 -122.5t-132.5 -49.5t-115 50q-42 50 -29 122q14 74 71.5 123t132.5 49q74 0 116 -49q42 -50 29 -123zM1287 391h-1107l50 283h1107zM860 119q-14 -74 -72 -123t-133 -49t-115 49q-42 51 -29 123q14 74 71.5 123t132.5 49q74 0 116 -49
q42 -50 29 -123z" />
    <glyph glyph-name="logicalnot.onum" horiz-adv-x="1366" 
d="M1260 217h-327l61 346h-796l50 283h1123z" />
    <glyph glyph-name="numbersign.onum" horiz-adv-x="1372" 
d="M325 230h-203l78 217h203l70 197h-202l78 217h201l74 206h247l-74 -206h183l74 206h247l-74 -206h220l-78 -217h-219l-70 -197h218l-78 -217h-218l-82 -230h-247l82 230h-183l-82 -230h-247zM903 644h-183l-70 -197h183z" />
    <glyph glyph-name="dollar.onum" horiz-adv-x="1111" 
d="M461 -181l30 170q-133 15 -221 79t-123 174l258 153q47 -104 134 -135l27 157q-157 45 -223 108q-98 86 -71 233q23 136 144 224t268 102l26 149h121l-27 -151q236 -29 308 -237l-243 -150q-39 95 -111 121l-29 -159h1l1 -1h2l1 -1h2l2 -1q147 -48 207 -87
q135 -89 107 -249q-25 -149 -151.5 -234t-288.5 -97l-30 -168h-121zM615 695l22 125q-31 -7 -51 -23t-24 -36q-7 -43 53 -66zM766 317q7 36 -84 67l-24 -134q98 12 108 67z" />
    <glyph glyph-name="Euro.onum" horiz-adv-x="1260" 
d="M294 397h-119l19 108h110q4 27 13 66h-111l19 108h124q69 184 211 293q140 109 351 109q98 0 176.5 -27.5t135.5 -92t70 -161.5l-281 -125q-11 67 -52 107.5t-98 40.5q-122 0 -189 -144h292l-19 -108h-309q-7 -33 -12 -66h309l-19 -108h-294q6 -75 43 -117t104 -42
q56 0 108 42t88 113l241 -117q-64 -139 -190.5 -217.5t-298.5 -78.5q-217 0 -321 113t-101 304z" />
    <glyph glyph-name="yen.onum" horiz-adv-x="1318" 
d="M394 504h119l-272 563h354l181 -404l324 404h354l-471 -563h133l-20 -115h-209l-2 -2l-15 -84h198l-20 -115h-198l-33 -188h-315l33 188h-186l20 115h186l15 84l-1 2h-195z" />
    <glyph glyph-name="sterling.onum" horiz-adv-x="1116" 
d="M969 0h-853l34 192q65 28 104 76t49 105l12 70h-122l30 171h120l16 89q32 179 163.5 281t316.5 102q153 0 255 -102q47 -50 84 -142l3 -15l-246 -131q-2 17 -17 47q-41 87 -120 87q-55 0 -97 -37t-53 -92l-16 -87h248l-30 -171h-248l-10 -57q-16 -91 -79 -146h498z" />
    <glyph glyph-name="currency.onum" horiz-adv-x="1286" 
d="M251 -39l-134 163l201 171q-42 100 -21 220q19 116 95 214l-139 166l192 163l136 -167q113 59 229 59q119 0 211 -59l195 167l134 -163l-196 -166q39 -100 20 -214q-21 -119 -102 -220l142 -171l-192 -163l-142 175q-111 -54 -224 -54q-110 0 -199 54zM552 515
q-13 -73 31 -126t118 -53q76 0 140.5 52t77.5 127q14 77 -31 130q-47 53 -123 53t-137.5 -53.5t-75.5 -129.5z" />
    <glyph glyph-name="florin.onum" horiz-adv-x="1313" 
d="M268 -159q-136 0 -234 53l133 235q40 -31 119 -31q75 0 130.5 36.5t78.5 108.5l80 258h-158l82 257h158l29 94q49 157 181 268q66 56 158.5 87.5t196.5 31.5q137 0 234 -53l-132 -235q-41 31 -120 31q-76 0 -136 -38t-83 -110l-24 -76h266l-82 -257h-255l-86 -276
q-49 -157 -180 -267q-143 -117 -356 -117z" />
    <glyph glyph-name="cent.onum" horiz-adv-x="1173" 
d="M541 0l32 183q-186 25 -280 163q-94 135 -59 332q35 193 177 328.5t336 164.5l30 170h131l-29 -165q126 -10 222 -75.5t137 -179.5l-273 -173q-13 55 -49 90.5t-88 45.5l-73 -415q108 20 191 133l207 -174q-181 -225 -449 -248l-32 -180h-131zM546 678
q-12 -66 9.5 -117.5t70.5 -76.5l68 385q-57 -25 -97 -76t-51 -115z" />
    <glyph glyph-name="mu.onum" horiz-adv-x="1286" 
d="M410 -400h-315l240 1360h315l-94 -534q-14 -75 29 -116q41 -42 104 -42q71 0 125 44t67 114l94 534h315l-169 -960h-289l8 101q-92 -110 -223 -110q-84 0 -131 40z" />
    <glyph glyph-name="pi.onum" horiz-adv-x="1424" 
d="M219 0l148 838h-168l50 284h1281l-51 -284h-160l-80 -455q-13 -68 22.5 -100t111.5 -25l-47 -270q-38 -8 -95 -8q-174 0 -260 89q-87 88 -55 273l88 496h-322l-148 -838h-315z" />
    <glyph glyph-name="degree.onum" horiz-adv-x="928" 
d="M547 478q-155 0 -237 99t-57 249q25 153 144 252.5t274 99.5t239 -100t58 -252q-26 -150 -147 -249t-274 -99zM469 826q-11 -61 22 -101q33 -41 93 -41q61 0 106.5 40.5t56.5 101.5q11 63 -21 104.5t-92 41.5q-61 0 -107.5 -42.5t-57.5 -103.5z" />
    <glyph glyph-name="ordmasculine.onum" horiz-adv-x="943" 
d="M954 851q-25 -141 -135.5 -232t-254.5 -91q-143 0 -221 92t-53 231q26 141 135.5 234t253.5 93q143 0 222 -93q78 -95 53 -234zM490 851q-10 -55 21 -93.5t87 -38.5t98.5 37.5t52.5 94.5q10 58 -19 96.5t-85 38.5q-57 0 -100.5 -39t-54.5 -96zM861 435l-28 -155h-624
l28 155h624z" />
    <glyph glyph-name="ordfeminine.onum" horiz-adv-x="858" 
d="M461 552q-97 0 -147.5 51t-35.5 133q17 94 101 142t187 48q72 0 118 -21l1 6q8 43 -20 71.5t-81 28.5q-89 0 -165 -65l-74 126q54 49 133 78.5t153 29.5q129 0 193 -64t45 -174l-67 -378h-169l12 66q-67 -78 -184 -78zM466 747q-4 -26 13.5 -40.5t50.5 -14.5
q42 0 83.5 26t48.5 65q-28 23 -89 23q-46 0 -74.5 -15.5t-32.5 -43.5zM762 307h-554l27 150h554z" />
    <glyph glyph-name="onehalf.onum" horiz-adv-x="1706" 
d="M1488 1194l-968 -1334h-167l5 26l969 1332h165zM541 1027h-180l33 187h388l-145 -824h-208zM1619 44l-33 -184h-610l14 78q14 78 81 151.5t187 153.5q32 22 64 42q3 2 29 20q31 22 48 35t38 38.5t27 50.5q6 39 -17 60.5t-62 21.5q-95 0 -186 -114l-141 101
q50 93 149 149.5t207 56.5q133 0 213 -68q79 -68 56 -202q-8 -49 -33 -93t-65.5 -81.5t-75.5 -63.5t-85 -57q-8 -5 -39.5 -24.5t-37.5 -23.5q-2 -2 -11 -7.5t-14 -9.5q-27 -18 -35 -30h332z" />
    <glyph glyph-name="onethird.onum" horiz-adv-x="1670" 
d="M1434 1194l-968 -1334h-167l5 26l969 1332h165zM471 1027h-180l33 187h388l-145 -824h-208zM941 22l170 106q2 -11 19 -36q44 -68 133 -68q40 0 73 23t39 63q8 44 -17 66t-68 22h-131l27 154h131q37 0 70 24t39 57q7 38 -18 60t-68 22q-89 0 -173 -104l-134 105
q52 85 146 136.5t194 51.5q132 3 213.5 -65t61.5 -186q-22 -123 -141 -180q47 -25 70 -74.5t13 -109.5q-14 -78 -70.5 -137t-137.5 -87q-80 -26 -167 -26q-108 0 -181 55q-74 56 -93 128z" />
    <glyph glyph-name="onequarter.onum" horiz-adv-x="1587" 
d="M1444 1194l-968 -1334h-167l5 26l969 1332h165zM379 390l112 637h-180l33 187h388l-145 -824h-208zM1203 46h-375l25 140l427 498h240l-83 -469h108l-30 -169h-108l-33 -186h-204zM1233 215l41 232l-187 -232h146z" />
    <glyph glyph-name="twothirds.onum" horiz-adv-x="1837" 
d="M799 400h-610l13 78q14 78 81 151.5t187 153.5q32 23 64 42q3 2 29 20q31 22 48 35t38 38.5t27 50.5q6 39 -17 60.5t-62 21.5q-95 0 -186 -114l-141 101q50 93 149 149.5t207 56.5q133 0 213 -68q79 -68 56 -202q-18 -112 -130 -204q-42 -35 -129 -91q-27 -18 -77 -48
q-4 -3 -12 -8t-13 -9q-23 -16 -35 -30h332zM662 -140h-167l5 26l969 1332h165l-4 -24zM1394 -161q-108 0 -181 55q-74 56 -93 128l170 106q2 -11 19 -36q44 -68 133 -68q40 0 73 23t39 63q8 44 -17 66t-68 22h-131l27 154h131q37 0 70 24t39 57q7 38 -18 60t-68 22
q-89 0 -173 -104l-134 105q52 85 146 136.5t194 51.5q132 3 213.5 -65t61.5 -186q-23 -123 -141 -180q47 -25 70 -74.5t13 -109.5q-14 -78 -70.5 -137t-137.5 -87q-80 -26 -167 -26z" />
    <glyph glyph-name="threequarters.onum" horiz-adv-x="1749" 
d="M451 379q-108 0 -181 55q-74 56 -93 128l170 106q2 -11 19 -36q44 -68 133 -68q40 0 72.5 23t40.5 63q8 44 -17.5 66t-68.5 22h-131l27 154h131q37 0 70 24t40 57q6 38 -19 60t-68 22q-89 0 -172 -104l-135 105q52 85 146 136.5t194 51.5q134 0 215 -66t60 -185
q-22 -123 -141 -180q48 -25 71 -74.5t12 -109.5q-11 -63 -48.5 -112.5t-91 -78.5t-113.5 -44t-122 -15zM641 -140h-167l5 26l969 1332h165l-4 -24zM1344 -140l33 186h-375l25 140l427 498h240l-83 -469h108l-30 -169h-108l-33 -186h-204zM1448 447l-187 -232h146z" />
    <glyph glyph-name="percent.onum" horiz-adv-x="1844" 
d="M980 854q-28 -161 -155.5 -266.5t-291.5 -105.5q-165 0 -253 106t-60 266q29 163 154.5 270t290.5 107q164 0 254 -107q90 -108 61 -270zM1582 1187l-967 -1334h-167l5 26l969 1332h165zM449 854q-11 -64 24 -108t99 -44q65 0 114 44t60 108q11 67 -22 111q-34 45 -98 45
q-65 0 -115.5 -45.5t-61.5 -110.5zM1814 205q-28 -162 -154.5 -267t-291.5 -105t-253 106q-89 107 -61 266q29 162 155 269.5t291 107.5q164 0 254 -107q88 -108 60 -270zM1283 205q-11 -65 24 -108q35 -44 99 -44q65 0 114 44t60 108q11 67 -22.5 111.5t-96.5 44.5
q-66 0 -116.5 -45.5t-61.5 -110.5z" />
    <glyph glyph-name="perthousand.onum" horiz-adv-x="2687" 
d="M980 854q-28 -161 -155.5 -266.5t-291.5 -105.5q-165 0 -253 106t-60 266q29 163 154.5 270t290.5 107q164 0 254 -107q90 -108 61 -270zM1582 1187l-967 -1334h-167l5 26l969 1332h165zM449 854q-11 -64 24 -108t99 -44q65 0 114 44t60 108q11 67 -22 111q-34 45 -98 45
q-65 0 -115.5 -45.5t-61.5 -110.5zM1814 205q-28 -162 -154.5 -267t-291.5 -105t-253 106q-89 107 -61 266q29 162 155 269.5t291 107.5q164 0 254 -107q88 -108 60 -270zM2654 205q-28 -162 -154.5 -267t-291.5 -105t-253 106q-89 107 -61 266q29 162 155 269.5t291 107.5
q164 0 254 -107q88 -108 60 -270zM2123 205q-11 -65 24 -108q35 -44 99 -44q65 0 114 44t60 108q11 67 -22.5 111.5t-96.5 44.5q-66 0 -116.5 -45.5t-61.5 -110.5zM1283 205q-11 -65 24 -108q35 -44 99 -44q65 0 114 44t60 108q11 67 -22.5 111.5t-96.5 44.5
q-66 0 -116.5 -45.5t-61.5 -110.5z" />
    <glyph glyph-name="zero.slash.onum.tnum" 
d="M1194 1018l191 190l104 -96l-187 -186q124 -154 82 -390q-26 -160 -122 -288t-240.5 -199t-309.5 -69q-169 0 -290 71l-191 -190l-104 96l188 187q-123 154 -80 392q45 249 231.5 400t441.5 151q164 0 286 -69zM560 388l392 389q-39 16 -95 16q-119 0 -205.5 -70.5
t-105.5 -186.5q-15 -86 14 -148zM1058 683l-394 -391q43 -18 101 -18q118 0 202.5 73t105.5 189q15 84 -15 147z" />
    <glyph glyph-name="zero.onum.tnum" 
d="M712 -20q-257 0 -389 155q-131 154 -88 401q45 249 231.5 400t441.5 151t387 -153q132 -154 89 -398q-26 -160 -122 -288t-240.5 -199t-309.5 -69zM546 536q-21 -117 40 -189q60 -73 179 -73q118 0 202.5 73t105.5 189q20 116 -40 186q-60 71 -176 71
q-119 0 -205.5 -70.5t-105.5 -186.5z" />
    <glyph glyph-name="one.onum.tnum" 
d="M1247 278l-49 -278h-968l49 278h339l88 500h-309l53 299h638l-141 -799h300z" />
    <glyph glyph-name="two.onum.tnum" 
d="M1214 0h-968l38 217h-2l2 1l1 3l5 1l387 238q149 94 201 141q52 46 61 100q8 48 -20.5 77.5t-85.5 29.5q-70 0 -133.5 -44t-107.5 -114l-238 144q81 124 227 210q145 85 322 85q210 0 319 -101q108 -100 79 -270q-41 -226 -480 -440h442z" />
    <glyph glyph-name="three.onum.tnum" 
d="M662 -310q-175 0 -295 88t-155 256l265 132q57 -195 238 -195q71 0 132 40.5t72 107.5q13 73 -32.5 115t-137.5 42h-203l42 241h203q73 0 136 42t74 111q10 60 -32 98.5t-119 38.5q-169 0 -280 -177l-222 122q71 127 208 227q150 109 352 109q221 0 336 -112
q116 -113 84 -295q-17 -94 -78.5 -165.5t-154.5 -110.5q85 -37 125 -117t22 -183q-33 -185 -193 -300t-387 -115z" />
    <glyph glyph-name="four.onum.tnum" 
d="M780 49h-621l40 227l693 791h377l-132 -750h197l-47 -268h-197l-60 -340h-310zM894 697l-332 -380h265z" />
    <glyph glyph-name="five.onum.tnum" 
d="M198 22l284 138q28 -92 83 -140t130 -48q87 0 158 53.5t85 137.5q15 86 -33 140q-48 53 -138 53q-133 0 -233 -111l-215 102l204 720h818l-50 -283h-554l-67 -239q31 25 91.5 38t111.5 13q213 0 319 -118t71 -317q-26 -148 -117 -256.5t-219 -162t-279 -53.5
q-180 0 -294.5 88t-155.5 245z" />
    <glyph glyph-name="six.onum.tnum" 
d="M718 -20q-113 0 -200.5 33t-140.5 91t-84 137.5t-32.5 173t14.5 197.5q29 166 91.5 302.5t159.5 241.5t236.5 163.5t309.5 58.5q109 0 189 -19t156 -62l-111 -258q-123 66 -259 66q-157 0 -261 -77t-143 -228q51 56 136 85.5t169 29.5q195 0 311 -108q58 -54 80.5 -141.5
t4.5 -196.5q-27 -153 -118 -265t-222 -168t-286 -56zM841 655q-89 0 -158 -57t-85 -144t35 -144q49 -57 138 -57t158 57t85 144q16 86 -34 144q-51 57 -139 57z" />
    <glyph glyph-name="seven.onum.tnum" 
d="M614 -291h-339q353 651 729 1071h-646l50 287h988l-43 -242q-467 -567 -739 -1116z" />
    <glyph glyph-name="eight.onum.tnum" 
d="M710 -20q-81 0 -153 14t-133.5 45.5t-102.5 77t-58 113.5t-2 151q20 113 93.5 199t182.5 129q-80 38 -118.5 114t-20.5 176q18 99 72 174t132.5 118.5t167.5 65t187 21.5q99 0 181.5 -22t145 -66.5t89.5 -119t10 -171.5q-18 -99 -82.5 -174.5t-158.5 -115.5
q93 -44 136.5 -130t23.5 -198q-18 -104 -76 -183.5t-141 -125.5t-178 -69t-197 -23zM718 970q-12 -67 24 -116q34 -49 114 -49q72 0 127.5 47t68.5 118q12 65 -27 110q-39 44 -113 44q-71 0 -126 -42.5t-68 -111.5zM593 402q-14 -77 35 -121q47 -46 127 -46t144 45.5
t78 121.5q13 79 -34 125t-128 46q-82 0 -145.5 -46.5t-76.5 -124.5z" />
    <glyph glyph-name="nine.onum.tnum" 
d="M120 -236l111 258q123 -66 259 -66q156 0 260.5 77t143.5 228q-50 -56 -135.5 -85.5t-169.5 -29.5q-195 0 -311 108q-58 54 -80.5 141.5t-4.5 196.5q27 153 118 265t222 168t286 56q113 0 200.5 -33t140.5 -91t84 -137.5t32.5 -173t-14.5 -197.5q-29 -166 -91.5 -302.5
t-159 -241.5t-236 -163.5t-310.5 -58.5q-109 0 -189 19t-156 62zM766 808q-89 0 -158 -57t-85 -144t35 -144q50 -57 138 -57q89 0 158 57t85 144q16 86 -34 144q-51 57 -139 57z" />
    <glyph glyph-name="plus.onum.tnum" 
d="M550 4l69 391h-398l50 283h398l67 383h327l-67 -383h402l-50 -283h-402l-69 -391h-327z" />
    <glyph glyph-name="minus.onum.tnum" 
d="M1322 674l-50 -283h-977l50 283h977z" />
    <glyph glyph-name="plusminus.onum.tnum" 
d="M660 611h-380l50 283h380l56 317h323l-56 -317h380l-50 -283h-380l-58 -327h-323zM1280 128l-49 -275h-1085l49 275h1085z" />
    <glyph glyph-name="equal.onum.tnum" 
d="M332 905h1085l-51 -286h-1085zM251 447h1085l-51 -287h-1085z" />
    <glyph glyph-name="notequal.onum.tnum" 
d="M483 160h-283l51 287h411l107 172h-488l51 286h616l258 414l149 -59l-222 -355h284l-51 -286h-413l-107 -172h490l-51 -287h-619l-261 -417l-142 64z" />
    <glyph glyph-name="approxequal.onum.tnum" 
d="M343 575l-104 213q237 201 423 201q57 0 107 -13.5t75.5 -27.5t62.5 -38q4 -3 6.5 -4.5t5.5 -3.5q73 -48 172 -48q77 0 136.5 23t128.5 73l105 -203q-237 -201 -423 -201q-23 0 -45.5 2.5t-39 5.5t-35.5 10t-30.5 11.5t-29 14.5l-24.5 14t-24.5 15.5t-22.5 14.5
q-75 48 -177 48q-124 0 -267 -107zM260 105l-105 213q237 201 424 201q21 0 41 -1.5t38.5 -5.5t32 -7t31 -10.5t25.5 -10.5t25.5 -13t21.5 -12.5t22 -14t20 -12.5q75 -48 171 -48q77 0 136.5 23t128.5 73l105 -203q-237 -201 -423 -201q-23 0 -45.5 2.5t-39 5.5t-35.5 10
t-30.5 11.5t-29 14.5l-24.5 14t-24.5 15.5t-22.5 14.5q-75 48 -177 48q-123 0 -266 -107z" />
    <glyph glyph-name="multiply.onum.tnum" 
d="M383 -11l-176 214l386 329l-270 329l252 214l271 -329l387 329l176 -214l-387 -329l271 -329l-252 -214l-271 329z" />
    <glyph glyph-name="less.onum.tnum" 
d="M693 533l581 -272l-56 -319l-946 462l46 257l1108 463l-56 -320z" />
    <glyph glyph-name="greater.onum.tnum" 
d="M924 533l-581 272l56 319l946 -462l-46 -257l-1108 -463l56 320z" />
    <glyph glyph-name="lessequal.onum.tnum" 
d="M670 593h699l-50 -280h-1097l68 384l1168 514l-60 -340zM180 128h1115l-49 -275h-1115z" />
    <glyph glyph-name="greaterequal.onum.tnum" 
d="M1317 313h-1097l50 280h699l-630 278l60 340l986 -514zM1246 -147h-1115l49 275h1115z" />
    <glyph glyph-name="divide.onum.tnum" 
d="M1056 948q-14 -73 -72.5 -122.5t-132.5 -49.5t-115 50q-42 50 -29 122q14 74 71.5 123t132.5 49q74 0 116 -49q42 -50 29 -123zM1337 391h-1107l50 283h1107zM910 119q-14 -74 -72 -123t-133 -49t-115 49q-42 51 -29 123q14 74 71.5 123t132.5 49q74 0 116 -49
q42 -50 29 -123z" />
    <glyph glyph-name="logicalnot.onum.tnum" 
d="M1314 217h-327l61 346h-796l50 283h1123z" />
    <glyph glyph-name="numbersign.onum.tnum" 
d="M351 230h-203l78 217h203l70 197h-202l78 217h201l74 206h247l-74 -206h183l74 206h247l-74 -206h220l-78 -217h-219l-70 -197h218l-78 -217h-218l-82 -230h-247l82 230h-183l-82 -230h-247zM929 644h-183l-70 -197h183z" />
    <glyph glyph-name="dollar.onum.tnum" 
d="M625 -181l30 170q-133 15 -221 79t-123 174l258 153q47 -104 134 -135l27 157q-157 45 -223 108q-98 86 -71 233q23 136 144 224t268 102l26 149h121l-27 -151q236 -29 308 -237l-243 -150q-39 95 -111 121l-29 -159h1l1 -1h2l1 -1h2l2 -1q147 -48 207 -87
q135 -89 107 -249q-25 -149 -151.5 -234t-288.5 -97l-30 -168h-121zM779 695l22 125q-31 -7 -51 -23t-24 -36q-7 -43 53 -66zM930 317q7 36 -84 67l-24 -134q98 12 108 67z" />
    <glyph glyph-name="Euro.onum.tnum" 
d="M378 397h-119l19 108h110q4 27 13 66h-111l19 108h124q69 184 211 293q140 109 351 109q98 0 176.5 -27.5t135.5 -92t70 -161.5l-281 -125q-11 67 -52 107.5t-98 40.5q-122 0 -189 -144h292l-19 -108h-309q-7 -33 -12 -66h309l-19 -108h-294q6 -75 43 -117t104 -42
q56 0 108 42t88 113l241 -117q-64 -139 -190.5 -217.5t-298.5 -78.5q-217 0 -321 113t-101 304z" />
    <glyph glyph-name="yen.onum.tnum" 
d="M449 504h119l-272 563h354l181 -404l324 404h354l-471 -563h133l-20 -115h-209l-2 -2l-15 -84h198l-20 -115h-198l-33 -188h-315l33 188h-186l20 115h186l15 84l-1 2h-195z" />
    <glyph glyph-name="sterling.onum.tnum" 
d="M1108 0h-853l34 192q65 28 104 76t49 105l12 70h-122l30 171h120l16 89q32 179 163.5 281t316.5 102q69 0 127.5 -21t93 -49t61.5 -66t38 -61.5t18 -46.5l4 -15l-246 -131q-2 17 -17 47q-41 87 -120 87q-55 0 -97 -37t-53 -92l-16 -87h248l-30 -171h-248l-10 -57
q-16 -91 -79 -146h498z" />
    <glyph glyph-name="currency.onum.tnum" 
d="M322 -39l-134 163l201 171q-42 100 -21 220q19 116 95 214l-139 166l192 163l136 -167q113 59 229 59q119 0 211 -59l195 167l134 -163l-196 -166q39 -100 20 -214q-21 -119 -102 -220l142 -171l-192 -163l-142 175q-111 -54 -224 -54q-111 0 -199 54zM623 515
q-13 -73 31 -126t118 -53q76 0 140.5 52t77.5 127q14 77 -31 130q-47 53 -123 53t-137.5 -53.5t-75.5 -129.5z" />
    <glyph glyph-name="florin.onum.tnum" 
d="M332 -159q-136 0 -234 53l133 235q40 -31 119 -31q75 0 130.5 36.5t78.5 108.5l80 258h-158l82 257h158l29 94q49 157 181 268q66 56 158.5 87.5t196.5 31.5q137 0 234 -53l-132 -235q-41 31 -120 31q-76 0 -136 -38t-83 -110l-24 -76h266l-82 -257h-255l-86 -276
q-49 -157 -180 -267q-143 -117 -356 -117z" />
    <glyph glyph-name="cent.onum.tnum" 
d="M672 0l32 182q-192 22 -289 160t-63 336q35 197 180.5 333t345.5 162l30 168h131l-29 -166q121 -12 214 -78t132 -176l-273 -173q-27 108 -125 133l-72 -409q102 24 178 130l207 -174q-177 -220 -436 -247l-32 -181h-131zM664 678q-13 -69 12.5 -123t79.5 -76l70 395
q-63 -22 -106.5 -74.5t-55.5 -121.5z" />
    <glyph glyph-name="mu.onum.tnum" 
d="M481 -400h-315l240 1360h315l-94 -534q-14 -75 29 -116q40 -42 104 -42q71 0 125 44t67 114l94 534h315l-169 -960h-289l8 101q-92 -110 -223 -110q-84 0 -131 40z" />
    <glyph glyph-name="pi.onum.tnum" 
d="M242 0l148 838h-168l50 284h1281l-51 -284h-160l-80 -455q-13 -68 22.5 -100t111.5 -25l-47 -270q-38 -8 -95 -8q-174 0 -260 89q-87 88 -55 273l88 496h-322l-148 -838h-315z" />
    <glyph glyph-name="degree.onum.tnum" 
d="M797 478q-155 0 -237 99t-57 249q25 153 144 252.5t274 99.5t239 -100t58 -252q-26 -150 -147 -249t-274 -99zM719 826q-11 -61 22 -101q33 -41 93 -41q61 0 106.5 40.5t56.5 101.5q11 63 -21 104.5t-92 41.5q-61 0 -107.5 -42.5t-57.5 -103.5z" />
    <glyph glyph-name="ordmasculine.onum.tnum" 
d="M1196 851q-25 -141 -135.5 -232t-254.5 -91q-143 0 -221 92t-53 231q26 141 135.5 234t253.5 93q143 0 222 -93q78 -95 53 -234zM732 851q-10 -55 21 -93.5t87 -38.5t98.5 37.5t52.5 94.5q10 58 -19 96.5t-85 38.5q-57 0 -100.5 -39t-54.5 -96zM1103 435l-28 -155h-624
l28 155h624z" />
    <glyph glyph-name="ordfeminine.onum.tnum" 
d="M747 552q-97 0 -147.5 51t-35.5 133q17 94 101 142t187 48q72 0 118 -21l1 6q8 43 -20 71.5t-81 28.5q-89 0 -165 -65l-74 126q54 49 133 78.5t153 29.5q129 0 193 -64t45 -174l-67 -378h-169l12 66q-67 -78 -184 -78zM752 747q-4 -26 13.5 -40.5t50.5 -14.5
q42 0 83.5 26t48.5 65q-28 23 -89 23q-46 0 -74.5 -15.5t-32.5 -43.5zM1048 307h-554l27 150h554z" />
    <glyph glyph-name="A.smcp" horiz-adv-x="1171" 
d="M429 166l-86 -166h-331l568 1010h367l213 -1010h-331l-28 166h-372zM710 704l-157 -301h208z" />
    <glyph glyph-name="B.smcp" horiz-adv-x="1075" 
d="M690 0h-556l178 1010h526q142 0 219 -75q75 -75 53 -206q-11 -61 -64.5 -127t-110.5 -86q66 -26 102 -90q35 -66 22 -137q-24 -133 -127.5 -211t-241.5 -78zM730 768h-156l-25 -144h163q33 0 56.5 20t28.5 53q6 33 -12 52t-55 19zM510 403l-29 -163h174q35 0 62.5 24.5
t33.5 56.5q6 35 -12.5 58.5t-54.5 23.5h-174z" />
    <glyph glyph-name="C.smcp" horiz-adv-x="1106" 
d="M592 -20q-150 -2 -260 67.5t-157 191t-18 266.5q41 228 217.5 376.5t408.5 148.5q144 0 254.5 -72.5t152.5 -206.5l-258 -162q-42 161 -192 161q-103 0 -176 -71t-92 -176t31 -174q50 -68 145 -68q145 0 259 148l201 -159q-206 -270 -516 -270z" />
    <glyph glyph-name="D.smcp" horiz-adv-x="1210" 
d="M638 0h-504l178 1010h503q135 3 240.5 -66.5t153.5 -187t22 -250.5q-25 -137 -111.5 -252.5t-214.5 -184t-267 -69.5zM582 752l-88 -495h136q105 0 186.5 71.5t99.5 176.5q18 104 -37 176q-56 71 -161 71h-136z" />
    <glyph glyph-name="E.smcp" horiz-adv-x="948" 
d="M494 257h429l-45 -257h-744l178 1010h740l-45 -257h-425l-21 -119h377l-43 -245h-377z" />
    <glyph glyph-name="F.smcp" horiz-adv-x="957" 
d="M878 383h-361l-68 -383h-315l178 1010h775l-45 -257h-460l-22 -125h361z" />
    <glyph glyph-name="G.smcp" horiz-adv-x="1175" 
d="M602 -20q-147 -3 -259.5 67t-163 192t-22.5 266q41 225 221.5 375t409.5 150q155 0 263 -66t157 -190l-262 -170q-25 66 -76.5 105t-121.5 39q-106 0 -181.5 -69t-94.5 -176q-20 -109 32 -178q53 -71 154 -71q66 0 119 23t79 64h-233l39 218h549l-14 -76
q-39 -223 -203 -363t-392 -140z" />
    <glyph glyph-name="H.smcp" horiz-adv-x="1263" 
d="M449 0h-315l178 1010h315l-65 -368h366l65 368h315l-178 -1010h-315l68 385h-366z" />
    <glyph glyph-name="I.smcp" horiz-adv-x="582" 
d="M312 1010h315l-178 -1010h-315z" />
    <glyph glyph-name="J.smcp" horiz-adv-x="923" 
d="M37 172l230 189q55 -102 142 -102q55 0 95 35t50 93l110 624h315l-113 -642q-32 -182 -167.5 -285.5t-323.5 -103.5q-124 0 -212.5 51.5t-125.5 140.5z" />
    <glyph glyph-name="K.smcp" horiz-adv-x="1191" 
d="M449 0h-315l178 1010h315l-67 -380l408 380h381l-502 -459l340 -551h-378l-205 369l-107 -96z" />
    <glyph glyph-name="L.smcp" horiz-adv-x="964" 
d="M494 257h483l-45 -257h-798l178 1010h315z" />
    <glyph glyph-name="M.smcp" horiz-adv-x="1449" 
d="M541 549l-97 -549h-310l178 1010h376l119 -544l311 544h376l-178 -1010h-310l97 549l-285 -474h-160z" />
    <glyph glyph-name="N.smcp" horiz-adv-x="1217" 
d="M449 0h-315l178 1010h262l286 -496l87 496h315l-178 -1010h-262l-286 496z" />
    <glyph glyph-name="O.smcp" horiz-adv-x="1225" 
d="M1246 506q-25 -147 -119 -268.5t-231.5 -190t-286.5 -68.5q-143 0 -256.5 66t-168.5 192q-52 120 -26 269q40 223 223 374t411 151q111 2 205.5 -39.5t156 -112t87.5 -169t5 -204.5zM473 506q-18 -105 31 -175t155 -70q107 0 180 69t92 176q18 103 -32 173
q-51 69 -154 69t-178.5 -69t-93.5 -173z" />
    <glyph glyph-name="P.smcp" horiz-adv-x="1099" 
d="M505 315l-56 -315h-315l178 1010h576q146 0 228 -100t55 -253q-26 -144 -142.5 -243t-262.5 -99h-261zM759 753h-177l-35 -198h177q51 0 87.5 28.5t43.5 71.5q8 42 -18.5 70t-77.5 28z" />
    <glyph glyph-name="Q.smcp" horiz-adv-x="1225" 
d="M642 -21q-145 -3 -259 66.5t-167 192.5t-25 268q40 223 223 374t411 151q111 2 205.5 -39.5t156 -112t87.5 -169t5 -204.5q-21 -115 -83.5 -215t-157.5 -174l59 -105l-219 -141l-73 130q-81 -22 -163 -22zM506 506q-16 -98 24.5 -164.5t128.5 -78.5l-46 82l218 141
l70 -124q49 62 63 144q18 103 -32 173q-51 69 -154 69t-178.5 -69t-93.5 -173z" />
    <glyph glyph-name="R.smcp" horiz-adv-x="1098" 
d="M506 324l-57 -324h-315l178 1010h575q145 0 228 -98t56 -248q-18 -102 -83 -183t-160 -123l133 -359h-311l-111 325h-133zM758 753h-176l-34 -189h176q53 0 88 25t43 67q7 44 -19 70.5t-78 26.5z" />
    <glyph glyph-name="S.smcp" horiz-adv-x="1008" 
d="M101 216l246 166q37 -69 94 -104t121 -35q50 0 83.5 14.5t38.5 41.5t-29 42q-32 14 -144 43q-4 1 -9.5 2.5t-6.5 1.5q-134 35 -211 105q-87 79 -63 212q19 102 92.5 178t170 111.5t200.5 35.5q138 0 232 -57t138 -162l-240 -157q-19 58 -66.5 89.5t-104.5 31.5
q-48 0 -81.5 -17t-38.5 -45q-6 -28 41 -48q37 -16 128 -39q340 -88 298 -328q-19 -106 -98.5 -180.5t-179 -106t-207.5 -31.5q-152 0 -256 63.5t-148 172.5z" />
    <glyph glyph-name="T.smcp" horiz-adv-x="954" 
d="M453 753h-291l45 257h897l-45 -257h-291l-133 -753h-315z" />
    <glyph glyph-name="U.smcp" horiz-adv-x="1194" 
d="M593 -20q-217 0 -326 106q-110 107 -74 311l108 613h315l-106 -603q-12 -70 25 -108.5t108 -38.5q73 0 123.5 38.5t62.5 108.5l106 603h315l-108 -613q-24 -135 -104.5 -231t-194 -141t-250.5 -45z" />
    <glyph glyph-name="V.smcp" horiz-adv-x="1141" 
d="M763 0h-383l-184 1010h342l92 -681l331 681h342z" />
    <glyph glyph-name="W.smcp" horiz-adv-x="1585" 
d="M655 0h-346l-104 1010h321l48 -662l279 648h232l49 -648l282 662h321l-460 -1010h-346l-53 482z" />
    <glyph glyph-name="X.smcp" horiz-adv-x="1137" 
d="M363 0h-353l468 516l-272 494h349l145 -268l234 268h355l-444 -495l284 -515h-348l-160 297z" />
    <glyph glyph-name="Y.smcp" horiz-adv-x="1140" 
d="M476 357l-281 653h354l134 -369l265 369h354l-511 -653l-63 -357h-315z" />
    <glyph glyph-name="Z.smcp" horiz-adv-x="1003" 
d="M933 0h-862l40 228l549 525h-445l45 257h842l-40 -228l-549 -525h465z" />
    <glyph glyph-name="ampersand.smcp" horiz-adv-x="1153" 
d="M457 -20q-103 -3 -188 34t-129.5 108.5t-28.5 160.5q29 164 271 268q-80 103 -64 206q16 92 74 155t136 90.5t172 27.5q140 0 218 -75q78 -76 58 -192q-15 -81 -83 -154t-151 -112l88 -105q26 24 42.5 71.5t16.5 85.5h226q-19 -192 -145 -318l207 -236h-328l-67 74
q-140 -89 -325 -89zM573 745q-7 -43 47 -105q86 40 96 105q4 26 -10.5 46.5t-44.5 20.5q-33 0 -58 -19.5t-30 -47.5zM397 301q-6 -38 24 -63.5t94 -25.5q67 0 108 34l-129 151q-87 -38 -97 -96z" />
    <glyph glyph-name="Agrave.smcp" horiz-adv-x="1171" 
d="M655 1156l-204 334h362l103 -334h-261zM343 0h-331l568 1010h367l213 -1010h-331l-28 166h-372zM761 403l-51 301l-157 -301h208z" />
    <glyph glyph-name="Aacute.smcp" horiz-adv-x="1171" 
d="M1246 1487l-322 -334h-261l221 334h362zM429 166l-86 -166h-331l568 1010h367l213 -1010h-331l-28 166h-372zM761 403l-51 301l-157 -301h208z" />
    <glyph glyph-name="Acircumflex.smcp" horiz-adv-x="1171" 
d="M814 1294l-151 -169h-264l353 370h196l221 -370h-264zM343 0h-331l568 1010h367l213 -1010h-331l-28 166h-372zM761 403l-51 301l-157 -301h208z" />
    <glyph glyph-name="Adotbelow.smcp" horiz-adv-x="1171" 
d="M429 166l-86 -166h-331l568 1010h367l213 -1010h-331l-28 166h-372zM710 704l-157 -301h208zM505 -455q-72 0 -113 50q-42 49 -30 120q13 72 71.5 123t131.5 51t116 -52q42 -51 30 -122q-13 -72 -72.5 -121t-133.5 -49z" />
    <glyph glyph-name="Atilde.smcp" horiz-adv-x="1171" 
d="M536 1178l-97 104q147 207 295 207q43 0 130 -48q85 -48 113 -48q57 0 128 86l96 -104q-145 -207 -295 -207q-40 -2 -125.5 48t-117.5 48q-50 0 -127 -86zM429 166l-86 -166h-331l568 1010h367l213 -1010h-331l-28 166h-372zM710 704l-157 -301h208z" />
    <glyph glyph-name="Adieresis.smcp" horiz-adv-x="1171" 
d="M605 1188q-67 0 -101.5 42t-22.5 109t61.5 109.5t116.5 42.5q68 0 103 -42.5t23 -109.5t-62 -109t-118 -42zM983 1188q-67 0 -101.5 42t-22.5 109t61.5 109.5t116.5 42.5q68 0 103 -42.5t23 -109.5t-62 -109t-118 -42zM343 0h-331l568 1010h367l213 -1010h-331l-28 166
h-372zM710 704l-157 -301h208z" />
    <glyph glyph-name="Amacron.smcp" horiz-adv-x="1171" 
d="M1130 1408l-36 -204h-591l36 204h591zM429 166l-86 -166h-331l568 1010h367l213 -1010h-331l-28 166h-372zM710 704l-157 -301h208z" />
    <glyph glyph-name="Abreve.smcp" horiz-adv-x="1171" 
d="M790 1156q-138 0 -212 89q-74 90 -55 236h210q-8 -57 17.5 -92.5t74.5 -35.5q51 0 88 35t48 93h210q-32 -143 -134.5 -234t-246.5 -91zM429 166l-86 -166h-331l568 1010h367l213 -1010h-331l-28 166h-372zM710 704l-157 -301h208z" />
    <glyph glyph-name="Aring.smcp" horiz-adv-x="1171" 
d="M1043 1329q-16 -95 -90.5 -156t-170.5 -61t-149 62q-52 61 -36 155q16 96 90 158t172 62q96 0 149 -62q52 -62 35 -158zM758 1329q-5 -26 9.5 -44.5t41.5 -18.5q26 0 46.5 18t25.5 45t-8.5 46.5t-40.5 19.5t-48 -19t-26 -47zM429 166l-86 -166h-331l568 1010h367
l213 -1010h-331l-28 166h-372zM710 704l-157 -301h208z" />
    <glyph glyph-name="Aringacute.smcp" horiz-adv-x="1171" 
d="M1005 1601h-261l221 334h362zM1043 1329q-16 -95 -90.5 -156t-170.5 -61t-149 62q-52 61 -36 155q16 96 90 158t172 62q96 0 149 -62q52 -62 35 -158zM758 1329q-5 -26 9.5 -44.5t41.5 -18.5q26 0 46.5 18t25.5 45t-8.5 46.5t-40.5 19.5t-48 -19t-26 -47zM429 166
l-86 -166h-331l568 1010h367l213 -1010h-331l-28 166h-372zM710 704l-157 -301h208z" />
    <glyph glyph-name="Aogonek.smcp" horiz-adv-x="1171" 
d="M343 0h-331l568 1010h367l213 -1010h-110q-216 -113 -230 -194q-6 -35 15 -56t64 -21q57 0 114 27l33 -176q-98 -57 -230 -57q-120 0 -180 57.5t-43 153.5q25 150 238 266h-2l-28 166h-372zM710 704l-157 -301h208z" />
    <glyph glyph-name="AE.smcp" horiz-adv-x="1549" 
d="M419 166l-118 -166h-330l766 1010h916l-45 -257h-425l-21 -119h377l-43 -245h-377l-24 -132h429l-45 -257h-744l29 166h-345zM864 791l-277 -388h209z" />
    <glyph glyph-name="AEacute.smcp" horiz-adv-x="1554" 
d="M1394 1153h-261l221 334h362zM419 166l-118 -166h-330l766 1010h916l-45 -257h-425l-21 -119h377l-43 -245h-377l-24 -132h429l-45 -257h-744l29 166h-345zM796 403l68 388l-277 -388h209z" />
    <glyph glyph-name="Cacute.smcp" horiz-adv-x="1106" 
d="M1276 1487l-322 -334h-261l221 334h362zM592 -20q-150 -2 -260 67.5t-157 191t-18 266.5q41 228 217.5 376.5t408.5 148.5q144 0 254.5 -72.5t152.5 -206.5l-258 -162q-42 161 -192 161q-103 0 -176 -71t-92 -176t31 -174q50 -68 145 -68q145 0 259 148l201 -159
q-206 -270 -516 -270z" />
    <glyph glyph-name="Ccircumflex.smcp" horiz-adv-x="1106" 
d="M832 1294l-151 -169h-264l353 370h196l221 -370h-264zM592 -20q-150 -2 -260 67.5t-157 191t-18 266.5q41 228 217.5 376.5t408.5 148.5q144 0 254.5 -72.5t152.5 -206.5l-258 -162q-42 161 -192 161q-103 0 -176 -71t-92 -176t31 -174q50 -68 145 -68q145 0 259 148
l201 -159q-206 -270 -516 -270z" />
    <glyph glyph-name="Ccaron.smcp" horiz-adv-x="1106" 
d="M696 1133l-222 370h264l91 -169l151 169h264l-352 -370h-196zM592 -20q-150 -2 -260 67.5t-157 191t-18 266.5q41 228 217.5 376.5t408.5 148.5q144 0 254.5 -72.5t152.5 -206.5l-258 -162q-42 161 -192 161q-103 0 -176 -71t-92 -176t31 -174q50 -68 145 -68
q145 0 259 148l201 -159q-206 -270 -516 -270z" />
    <glyph glyph-name="Cdotaccent.smcp" horiz-adv-x="1106" 
d="M789 1170q-76 0 -115 48t-26 124q14 76 69.5 124.5t132.5 48.5t117 -48t27 -125q-14 -77 -70.5 -124.5t-134.5 -47.5zM592 -20q-150 -2 -260 67.5t-157 191t-18 266.5q41 228 217.5 376.5t408.5 148.5q144 0 254.5 -72.5t152.5 -206.5l-258 -162q-42 161 -192 161
q-103 0 -176 -71t-92 -176t31 -174q50 -68 145 -68q145 0 259 148l201 -159q-206 -270 -516 -270z" />
    <glyph glyph-name="Ccedilla.smcp" horiz-adv-x="1106" 
d="M400 -179l96 167q-185 29 -280.5 175t-58.5 342q41 228 217.5 376.5t408.5 148.5q144 0 254.5 -72.5t152.5 -206.5l-258 -162q-42 161 -192 161q-103 0 -176 -71t-92 -176t31 -174q50 -68 145 -68q145 0 259 148l201 -159q-181 -238 -446 -266l-31 -65q103 -15 149.5 -66
t33.5 -126q-10 -55 -48 -96.5t-91.5 -64t-108.5 -33t-109 -10.5q-101 0 -159 30l28 155q57 -19 127 -19q56 0 91.5 17.5t40.5 48.5t-24.5 48.5t-86.5 17.5h-74z" />
    <glyph glyph-name="Dcaron.smcp" horiz-adv-x="1210" 
d="M877 1133h-196l-222 370h264l91 -169l151 169h264zM638 0h-504l178 1010h503q135 3 240.5 -66.5t153.5 -187t22 -250.5q-25 -137 -111.5 -252.5t-214.5 -184t-267 -69.5zM582 752l-88 -495h136q105 0 186.5 71.5t99.5 176.5q18 104 -37 176q-56 71 -161 71h-136z" />
    <glyph glyph-name="Dcroat.smcp" horiz-adv-x="1210" 
d="M134 0l76 434h-105l27 158h106l74 418h503q135 3 240.5 -66.5t153.5 -187t22 -250.5q-25 -137 -111.5 -252.5t-214.5 -184t-267 -69.5h-504zM737 592l-27 -158h-185l-31 -177h136q105 0 186.5 71.5t99.5 176.5q18 104 -37 176q-56 71 -161 71h-136l-28 -160h183z" />
    <glyph glyph-name="Eth.smcp" horiz-adv-x="1210" 
d="M134 0l76 434h-105l27 158h106l74 418h503q135 3 240.5 -66.5t153.5 -187t22 -250.5q-25 -137 -111.5 -252.5t-214.5 -184t-267 -69.5h-504zM737 592l-27 -158h-185l-31 -177h136q105 0 186.5 71.5t99.5 176.5q18 104 -37 176q-56 71 -161 71h-136l-28 -160h183z" />
    <glyph glyph-name="Egrave.smcp" horiz-adv-x="948" 
d="M849 1156h-261l-204 334h362zM494 257h429l-45 -257h-744l178 1010h740l-45 -257h-425l-21 -119h377l-43 -245h-377z" />
    <glyph glyph-name="Eacute.smcp" horiz-adv-x="948" 
d="M794 1487h362l-322 -334h-261zM494 257h429l-45 -257h-744l178 1010h740l-45 -257h-425l-21 -119h377l-43 -245h-377z" />
    <glyph glyph-name="Ecircumflex.smcp" horiz-adv-x="948" 
d="M731 1294l-151 -169h-264l353 370h196l221 -370h-264zM878 0h-744l178 1010h740l-45 -257h-425l-21 -119h377l-43 -245h-377l-24 -132h429z" />
    <glyph glyph-name="Ecaron.smcp" horiz-adv-x="948" 
d="M802 1133h-196l-222 370h264l91 -169l151 169h264zM878 0h-744l178 1010h740l-45 -257h-425l-21 -119h377l-43 -245h-377l-24 -132h429z" />
    <glyph glyph-name="Edieresis.smcp" horiz-adv-x="948" 
d="M906 1188q-67 0 -101.5 42t-22.5 109t61.5 109.5t116.5 42.5q68 0 103 -42.5t23 -109.5t-62 -109t-118 -42zM528 1188q-67 0 -101.5 42t-22.5 109t61.5 109.5t116.5 42.5q68 0 103 -42.5t23 -109.5t-62 -109t-118 -42zM878 0h-744l178 1010h740l-45 -257h-425l-21 -119
h377l-43 -245h-377l-24 -132h429z" />
    </font>
</defs>
</svg>
