<?xml version="1.0" standalone="no"?>
<!DOCTYPE svg PUBLIC "-//W3C//DTD SVG 1.1//EN" "http://www.w3.org/Graphics/SVG/1.1/DTD/svg11.dtd" >
<svg xmlns="http://www.w3.org/2000/svg" xmlns:xlink="http://www.w3.org/1999/xlink" version="1.1">
<metadata>
Created by FontForge 20170731 at Sun Sep 13 23:32:18 2020
 By Aleksey,,,
Copyright (c) 2020 by TipoType Team. All rights reserved.
</metadata>
<defs>
<font id="Mundial-LightItalic" horiz-adv-x="1342" >
  <font-face 
    font-family="Mundial Light"
    font-weight="300"
    font-style="italic"
    font-stretch="normal"
    units-per-em="2048"
    panose-1="0 0 0 0 0 0 0 0 0 0"
    ascent="1638"
    descent="-410"
    x-height="959"
    cap-height="1358"
    bbox="-243 -513 2657.39 2296"
    underline-thickness="150"
    underline-position="-575"
    unicode-range="U+0020-FB04"
  />
<missing-glyph horiz-adv-x="1352" 
d="M918 1018l-241 -242l-243 242l-97 -97l242 -240l-244 -245l97 -97l245 242l243 -242l97 97l-244 245l242 240zM1185 1358v-1358h-1018v1358h1018z" />
    <glyph glyph-name="f_f" unicode="ff" horiz-adv-x="1486" 
d="M1131 823h-181l24 137h182l21 119q28 163 141.5 256t279.5 93q87 0 152 -31l-41 -129q-50 24 -128 24q-209 0 -250 -224l-19 -108h298l-24 -137h-296l-145 -823h-159zM377 823h-181l24 137h182l21 119q28 163 141.5 256t279.5 93q87 0 152 -31l-41 -129q-50 24 -128 24
q-209 0 -250 -224l-19 -108h298l-24 -137h-296l-145 -823h-159z" />
    <glyph glyph-name="fi" unicode="fi" horiz-adv-x="1231" 
d="M377 823h-181l24 137h182l21 119q28 163 141.5 256t279.5 93q87 0 152 -31l-41 -129q-50 24 -128 24q-209 0 -250 -224l-19 -108h298l-24 -137h-296l-145 -823h-159zM1200 1183q-43 0 -66 27.5t-15 71.5q7 43 39 70.5t76 27.5t67 -27q23 -29 16 -71q-8 -44 -40.5 -71.5
t-76.5 -27.5zM1240 960l-169 -960h-159l169 960h159z" />
    <glyph glyph-name="fl" unicode="fl" horiz-adv-x="1231" 
d="M232 0l145 823h-181l24 137h182l21 119q28 163 141.5 256t279.5 93q87 0 152 -31l-41 -129q-50 24 -128 24q-209 0 -250 -224l-19 -108h298l-24 -137h-296l-145 -823h-159zM1071 0h-159l248 1408h159z" />
    <glyph glyph-name="f_f_i" unicode="ffi" horiz-adv-x="1986" 
d="M1131 823h-181l24 137h182l21 119q28 163 141.5 256t279.5 93q87 0 152 -31l-41 -129q-50 24 -128 24q-209 0 -250 -224l-19 -108h298l-24 -137h-296l-145 -823h-159zM377 823h-181l24 137h182l21 119q28 163 141.5 256t279.5 93q87 0 152 -31l-41 -129q-50 24 -128 24
q-209 0 -250 -224l-19 -108h298l-24 -137h-296l-145 -823h-159zM1955 1183q-43 0 -66 27.5t-15 71.5q7 43 39 70.5t76 27.5q45 0 67 -27q23 -29 16 -71q-8 -44 -40.5 -71.5t-76.5 -27.5zM1826 0h-159l169 960h159z" />
    <glyph glyph-name="f_f_l" unicode="ffl" horiz-adv-x="1986" 
d="M232 0l145 823h-181l24 137h182l21 119q28 163 141.5 256t279.5 93q87 0 152 -31l-41 -129q-50 24 -128 24q-209 0 -250 -224l-19 -108h298l-24 -137h-296l-145 -823h-159zM1131 823h-181l24 137h182l21 119q28 163 141.5 256t279.5 93q87 0 152 -31l-41 -129
q-50 24 -128 24q-209 0 -250 -224l-19 -108h298l-24 -137h-296l-145 -823h-159zM1826 0h-159l248 1408h159z" />
    <glyph glyph-name=".notdef" horiz-adv-x="1352" 
d="M918 1018l-241 -242l-243 242l-97 -97l242 -240l-244 -245l97 -97l245 242l243 -242l97 97l-244 245l242 240zM1185 1358v-1358h-1018v1358h1018z" />
    <glyph glyph-name="uni0000" horiz-adv-x="0" 
 />
    <glyph glyph-name="uni0000" horiz-adv-x="0" 
 />
    <glyph glyph-name="nonmarkingreturn" horiz-adv-x="682" 
 />
    <glyph glyph-name="space" unicode=" " horiz-adv-x="472" 
 />
    <glyph glyph-name="exclam" unicode="!" horiz-adv-x="525" 
d="M396 368h-137l154 990h181zM317 15q-32 -29 -76 -29t-66 29q-24 28 -16 70t41 71q31 28 75 28q43 0 67 -28q23 -29 15 -71q-7 -40 -40 -70z" />
    <glyph glyph-name="quotedbl" unicode="&#x22;" horiz-adv-x="688" 
d="M710 956h-118l55 472h174zM545 1428l-111 -472h-118l55 472h174z" />
    <glyph glyph-name="numbersign" unicode="#" horiz-adv-x="1407" 
d="M269 -1l131 365h-250l45 125h251q4 10 145 411h-250l44 124h249l118 334h144l-116 -334h324l118 334h145l-117 -334h254l-44 -124h-253l-146 -411h252l-46 -125h-250l-130 -365h-147l130 365h-323l-131 -365h-147zM1063 900h-327l-146 -411h326z" />
    <glyph glyph-name="dollar" unicode="$" horiz-adv-x="1211" 
d="M143 273l140 89q35 -93 109 -153t182 -75l86 490q-39 15 -70 28t-64 29.5t-57.5 32.5t-50 36t-41 40.5t-30.5 46t-20 52t-8 59.5t6 68q14 80 60 148t113 113q133 89 295 100l28 159h131l-29 -164q143 -19 231 -101q75 -70 108 -152l-145 -94q-72 156 -221 192l-82 -461
q40 -14 72 -27.5t66.5 -30t60 -33.5t52 -37.5t43 -42.5t32.5 -48.5t21 -55.5t8 -63.5t-6 -72.5q-25 -145 -161 -246q-133 -99 -324 -116l-28 -159h-131l28 159q-158 13 -264 94q-105 80 -140 196zM783 578l-78 -444q114 13 193 71q79 56 92 138q15 82 -34 134
q-48 51 -173 101zM498 1018q-14 -78 33 -125t160 -91l75 423q-102 -11 -177 -63q-74 -54 -91 -144z" />
    <glyph glyph-name="percent" unicode="%" horiz-adv-x="1830" 
d="M837 762q-125 -104 -281 -104q-157 0 -243 104q-87 104 -60 256q26 154 150 257q122 103 280 103q157 0 244 -103q86 -104 60 -257q-27 -153 -150 -256zM1667 84q-125 -104 -281 -104q-157 0 -243 104q-87 104 -60 256q27 154 150 257q122 103 280 103q157 0 244 -103
q87 -104 60 -257t-150 -256zM486 1181q-78 -67 -94 -163q-16 -97 36 -163q53 -66 151 -66t176 66q78 67 94 163q17 98 -37 163q-54 66 -152 66t-174 -66zM1316 503q-78 -67 -94 -163q-17 -98 37 -163q53 -66 151 -66t175 66q78 67 94 163q16 97 -36 163q-54 66 -153 66
q-98 0 -174 -66zM1579 1334l-967 -1334h-126l5 26l968 1332h124z" />
    <glyph glyph-name="ampersand" unicode="&#x26;" horiz-adv-x="1354" 
d="M581 -20q-220 0 -340 105q-121 104 -92 271q41 225 363 366q-72 86 -98 162q-26 73 -11 157q18 104 87 182q68 78 162 117q96 38 199 38q166 0 257 -91t66 -233q-20 -117 -124 -207.5t-287 -164.5l296 -341q60 55 87 163q27 111 28 218h152q-9 -153 -46 -267
q-38 -118 -128 -208l218 -247h-221l-120 133q-90 -66 -199 -110q-105 -43 -249 -43zM317 360q-18 -103 64 -167q83 -66 228 -66q195 0 329 102l-339 394q-12 -5 -60 -26q-19 -10 -66 -38q-42 -25 -70 -51q-30 -27 -54 -67t-32 -81zM561 1046q-8 -44 -1 -77q9 -44 22 -65
q23 -36 42 -60q22 -26 25 -29q3 -4 28 -33q160 63 242.5 129t95.5 141q16 84 -37 136q-52 51 -150 51q-95 0 -172 -50q-78 -50 -95 -143z" />
    <glyph glyph-name="quotesingle" unicode="'" horiz-adv-x="412" 
d="M545 1428l-111 -472h-118l55 472h174z" />
    <glyph glyph-name="parenleft" unicode="(" horiz-adv-x="584" 
d="M489 -400h-165q-94 167 -130 426t9 554q35 192 108 373q76 188 158 320q84 136 200 287h162q-8 -10 -40 -51q-28 -38 -93 -139q-72 -111 -126 -215q-59 -113 -116 -267q-60 -162 -85 -308q-21 -122 -23 -249t9 -225t32.5 -195t40 -154t38.5 -107z" />
    <glyph glyph-name="parenright" unicode=")" horiz-adv-x="584" 
d="M118 -400h-165q8 10 40 51q24 29 95 139q71 112 126 215q57 109 117 267q60 162 85 308q22 121 24 248.5t-8.5 225t-32 195.5t-39 154.5t-36.5 106.5l-21 50h162q92 -220 129 -439q43 -253 -9 -541q-48 -274 -180 -543q-134 -270 -287 -437z" />
    <glyph glyph-name="asterisk" unicode="*" horiz-adv-x="938" 
d="M558 1017l-252 75l63 127l243 -98l38 285h133l-62 -285l278 98l19 -127l-281 -75v-2l142 -231l-121 -78l-121 248l-209 -248l-94 78l225 231z" />
    <glyph glyph-name="plus" unicode="+" horiz-adv-x="1187" 
d="M538 151l79 451h-450l28 158h450l78 445h162l-78 -445h452l-28 -158h-452l-79 -451h-162z" />
    <glyph glyph-name="comma" unicode="," horiz-adv-x="451" 
d="M-2 -259l201 475h166l-226 -475h-141z" />
    <glyph glyph-name="hyphen" unicode="-" horiz-adv-x="936" 
d="M255 652h656l-27 -152h-656z" />
    <glyph glyph-name="period" unicode="." horiz-adv-x="418" 
d="M283 15q-32 -29 -76 -29t-66 29q-24 28 -16 70t41 71q31 28 75 28q43 0 67 -28q23 -29 15 -71q-7 -40 -40 -70z" />
    <glyph glyph-name="slash" unicode="/" horiz-adv-x="1061" 
d="M1109 1529h170l-1127 -1929h-169z" />
    <glyph glyph-name="zero" unicode="0" horiz-adv-x="1298" 
d="M1071 170q-180 -190 -426 -190t-357 190q-112 188 -56 509q55 319 235 509q179 189 425 189t358 -189q112 -188 56 -509q-55 -319 -235 -509zM405 679q-44 -250 29 -397q72 -148 239 -148t291 148q126 150 169 397q44 250 -29 397q-74 147 -239 147q-167 0 -292 -147
q-125 -149 -168 -397z" />
    <glyph glyph-name="one" unicode="1" horiz-adv-x="685" 
d="M494 0h-165l213 1207h-279l26 151h444z" />
    <glyph glyph-name="two" unicode="2" horiz-adv-x="1100" 
d="M994 0h-891l13 74q22 112 89 199q48 61 101 106q11 9 29.5 25t26.5 22q17 14 63 46q12 8 32.5 22t28.5 19q6 4 15.5 10t23.5 15.5t25 16.5q36 23 61 39q12 9 47 31q11 7 21 13.5t18 11.5t10 6q3 2 9.5 6.5t16.5 11.5t19 13q29 20 46 33q12 10 39 33q28 23 69 74
q15 18 29 43q22 48 32 94q21 119 -43 189q-65 71 -184 71q-98 0 -190 -58q-94 -59 -143 -150l-127 68q70 130 206 212t286 82q189 0 295 -112t74 -298q-21 -118 -101 -224q-30 -39 -93 -90q-67 -53 -100 -75q-53 -36 -123 -80q-9 -7 -48 -31q-87 -56 -116 -76
q-41 -28 -105 -77q-116 -90 -133 -152h701z" />
    <glyph glyph-name="three" unicode="3" horiz-adv-x="1119" 
d="M137 262l148 79q23 -92 101 -149q77 -58 194 -58q120 0 211 67q90 68 108 169q19 112 -57 180q-76 67 -212 67h-157l25 143h157q118 0 210 62q90 61 111 179q16 101 -48 162q-65 61 -190 61q-112 0 -195 -56q-84 -57 -132 -138l-126 70q70 120 195 199t289 79
q197 0 303 -105q106 -104 77 -269q-20 -111 -94 -191q-75 -81 -176 -119q101 -31 158 -121q55 -89 35 -206q-30 -167 -177 -277q-148 -110 -343 -110q-158 0 -270 75q-113 75 -145 207z" />
    <glyph glyph-name="four" unicode="4" horiz-adv-x="1182" 
d="M795 362h-671l26 151l766 845h218l-149 -850h207l-26 -145h-207l-64 -364h-164zM821 508l118 670l-602 -670h484z" />
    <glyph glyph-name="five" unicode="5" horiz-adv-x="1117" 
d="M123 262l148 79q23 -92 101 -149q77 -58 194 -58q132 0 233 80t123 203q23 133 -46 212q-71 80 -208 80q-147 0 -272 -97l-126 55l185 691h739l-27 -157h-597l-117 -424q43 35 113 58.5t150 23.5q200 0 307 -122t72 -320q-34 -193 -193 -315q-158 -122 -364 -122
q-158 0 -270 75q-113 75 -145 207z" />
    <glyph glyph-name="six" unicode="6" horiz-adv-x="1196" 
d="M615 -20q-125 0 -214 45.5t-135.5 128.5t-60 198.5t13.5 256.5q66 375 256 572q191 197 472 197q195 0 323 -94l-82 -129q-115 76 -267 76q-190 0 -326 -126q-145 -134 -201 -429q71 90 179 142q107 51 219 51q192 0 307 -109q57 -54 80 -139t5 -188q-36 -203 -195 -328
q-161 -125 -374 -125zM385 428q-22 -127 51 -214q74 -87 207 -87q137 0 243 83q104 83 128 216q24 136 -50 219q-75 81 -215 81q-134 0 -238 -86q-103 -87 -126 -212z" />
    <glyph glyph-name="seven" unicode="7" horiz-adv-x="1001" 
d="M353 0h-181q312 596 800 1198h-693l28 160h879l-25 -150q-495 -611 -808 -1208z" />
    <glyph glyph-name="eight" unicode="8" horiz-adv-x="1180" 
d="M585 -20q-217 0 -329 108q-113 107 -82 284q20 118 99.5 207t207.5 135q-177 94 -140 305q28 165 163 265q134 98 329 98q196 0 297 -98q98 -98 70 -265q-38 -211 -246 -305q110 -46 157 -134t27 -208q-32 -178 -183 -285q-152 -107 -370 -107zM341 386q-21 -115 54 -190
q73 -75 215 -75q144 0 245 75q100 75 121 190q20 116 -54 185q-73 69 -220 69q-144 0 -242 -69q-99 -69 -119 -185zM501 1010q-19 -106 43 -168q62 -63 182 -63q122 0 206 63q83 61 103 168q18 99 -44 165q-63 65 -183 65q-118 0 -204 -65q-85 -66 -103 -165z" />
    <glyph glyph-name="nine" unicode="9" horiz-adv-x="1199" 
d="M180 68l88 137q110 -75 251 -75q202 0 332 134t192 417q-63 -90 -174 -143q-108 -52 -223 -52q-192 0 -307 110q-58 54 -80.5 139.5t-4.5 188.5q36 205 196 329q160 125 373 125q243 0 346 -165t53 -449q-68 -387 -251 -585.5t-470 -198.5q-194 0 -321 88zM424 931
q-24 -137 51 -216q73 -81 214 -81q134 0 238 86q102 85 125 210q22 127 -50 214q-74 87 -207 87q-139 0 -242 -82q-105 -82 -129 -218z" />
    <glyph glyph-name="colon" unicode=":" horiz-adv-x="476" 
d="M311 15q-32 -29 -76 -29t-66 29q-22 28 -15 70q8 42 40.5 70.5t74.5 28.5q43 0 67 -28.5t16 -70.5q-7 -41 -41 -70zM450 802q-34 -28 -77 -28t-65 28t-15 70q8 42 40.5 70.5t74.5 28.5q43 0 67 -28.5t16 -70.5t-41 -70z" />
    <glyph glyph-name="semicolon" unicode=";" horiz-adv-x="503" 
d="M157 -259h-140l200 475h167zM480 802q-32 -28 -76 -28t-66 28t-15 70q8 42 41 71q31 28 75 28q43 0 67 -28q23 -29 15 -71q-7 -41 -41 -70z" />
    <glyph glyph-name="less" unicode="&#x3c;" horiz-adv-x="1185" 
d="M386 678l700 -323l-31 -173l-843 400l33 189l987 412l-31 -173z" />
    <glyph glyph-name="equal" unicode="=" horiz-adv-x="1320" 
d="M322 1011h1032l-28 -161h-1032zM233 507h1032l-28 -162h-1032z" />
    <glyph glyph-name="greater" unicode="&#x3e;" horiz-adv-x="1185" 
d="M1179 582l-985 -400l31 173l814 323l-699 332l31 173l841 -412z" />
    <glyph glyph-name="question" unicode="?" horiz-adv-x="1016" 
d="M383 1016l-127 69q70 130 206 212q137 81 286 81q176 0 280 -99q102 -99 72 -272q-18 -105 -97 -195q-42 -49 -70 -76q-8 -8 -21 -19.5t-31.5 -28.5t-33.5 -31q-5 -5 -24.5 -21.5t-34.5 -29.5q-48 -41 -58 -50q-26 -26 -45 -46q-44 -46 -68 -109q-12 -31 -17 -71h-148
q0 81 46 167q17 33 53 73q47 51 59 62q7 6 31 27.5t41 36.5q13 12 28.5 25.5t25 22t15.5 13.5q12 11 75 70q15 14 52 55q45 54 57 119q18 104 -46 164q-65 59 -173 59q-98 0 -190 -58q-94 -59 -143 -150zM522 15q-32 -29 -76 -29t-66 29q-24 28 -16 70t41 71q31 28 75 28
q43 0 67 -28q23 -29 15 -71q-7 -40 -40 -70z" />
    <glyph glyph-name="at" unicode="@" horiz-adv-x="1943" 
d="M913 -338q-176 0 -326 64t-251 178q-100 112 -141 277q-42 164 -9 352q34 192 135 359q101 166 243 278q142 113 319 175.5t358 62.5q169 0 315 -63q145 -65 240 -172q97 -111 137 -263q41 -155 11 -326q-42 -242 -160 -370q-118 -130 -289 -130q-83 0 -138.5 50
t-77.5 139q-49 -72 -143 -118q-96 -47 -204 -47q-173 0 -268 116t-62 304q33 187 170 306q136 117 309 117q187 0 278 -147l33 130h131l-96 -542q-17 -97 16 -143.5t106 -46.5q91 0 162 108q69 107 98 274q26 142 -5.5 271t-110.5 224q-80 94 -205.5 147.5t-277.5 53.5
q-221 2 -412.5 -92.5t-318 -266.5t-162.5 -390q-27 -153 6 -291t117 -237t213 -155t283 -56q210 0 437 106q28 -89 33 -107q-260 -129 -493 -129zM746 534q-22 -121 41 -207q62 -86 184 -86q121 0 218 86q96 85 117 207q21 120 -45 202t-188 82q-123 0 -214 -81
q-92 -83 -113 -203z" />
    <glyph glyph-name="A" unicode="A" horiz-adv-x="1365" 
d="M381 315l-183 -315h-174l800 1358h194l323 -1358h-175l-70 315h-715zM891 1186l-434 -730h611z" />
    <glyph glyph-name="B" unicode="B" horiz-adv-x="1332" 
d="M812 0h-622l239 1358h580q183 0 276 -106q92 -108 64 -263q-34 -199 -212 -283q95 -41 136.5 -126.5t22.5 -195.5q-28 -163 -166 -273q-138 -111 -318 -111zM465 624l-84 -475h457q112 0 194 70q83 71 99 169q17 96 -41 166t-168 70h-457zM569 1212l-79 -448h415
q107 0 183 63q76 64 92 157q15 91 -36 160q-51 68 -160 68h-415z" />
    <glyph glyph-name="C" unicode="C" horiz-adv-x="1463" 
d="M800 -20q-143 0 -264 53t-199 147q-79 94 -110.5 224t-5.5 275q25 147 104 278q76 129 187 222q109 93 249 146t281 53q181 0 319.5 -83.5t214.5 -235.5l-146 -94q-129 258 -415 258q-222 0 -401 -155q-180 -157 -220 -389q-29 -151 20.5 -278t160 -198.5t253.5 -68.5
q291 0 513 254l109 -89q-122 -148 -294 -233q-174 -86 -356 -86z" />
    <glyph glyph-name="D" unicode="D" horiz-adv-x="1531" 
d="M730 0h-540l239 1358h540q195 3 341.5 -86.5t210.5 -247t28 -346.5q-35 -194 -151 -348q-120 -156 -293 -242q-175 -88 -375 -88zM943 1206l-375 1l-186 -1056h375q234 0 406 151q173 150 213 376q40 225 -80 377q-120 149 -353 151z" />
    <glyph glyph-name="E" unicode="E" horiz-adv-x="1246" 
d="M1171 149l-26 -149h-955l239 1358h934l-26 -150h-769l-77 -435h664l-26 -150h-664l-84 -474h790z" />
    <glyph glyph-name="F" unicode="F" horiz-adv-x="1196" 
d="M1108 770l-27 -149h-617l-109 -621h-165l239 1358h936l-26 -150h-771l-77 -438h617z" />
    <glyph glyph-name="G" unicode="G" horiz-adv-x="1546" 
d="M794 -20q-194 0 -337 92q-144 92 -207 252q-63 161 -29 355q35 198 155 357t297 251q175 90 369 90q179 0 315.5 -80.5t209.5 -227.5l-145 -94q-128 248 -407 248q-222 0 -401 -155q-180 -157 -220 -389q-29 -152 17 -278t155 -197.5t257 -69.5q109 0 204.5 34t164.5 94
q135 119 184 277h-483l26 150h655q0 -3 -8 -62q-24 -132 -89.5 -249.5t-164.5 -206.5q-100 -90 -234.5 -140.5t-283.5 -50.5z" />
    <glyph glyph-name="H" unicode="H" horiz-adv-x="1514" 
d="M349 0h-165l239 1358h165l-103 -587h816l103 587h165l-239 -1358h-165l109 621h-816z" />
    <glyph glyph-name="I" unicode="I" horiz-adv-x="545" 
d="M355 0h-165l239 1358h165z" />
    <glyph glyph-name="J" unicode="J" horiz-adv-x="1045" 
d="M407 -20q-115 0 -213 51q-97 49 -144 139l130 112q41 -69 109 -108.5t146 -39.5q138 0 230.5 91.5t121.5 256.5l154 876h166l-157 -892q-41 -230 -184 -357q-144 -129 -359 -129z" />
    <glyph glyph-name="K" unicode="K" horiz-adv-x="1294" 
d="M1283 0h-203l-345 678l-310 -280l-70 -398h-165l239 1358h165l-130 -741l817 741h212l-621 -563z" />
    <glyph glyph-name="L" unicode="L" horiz-adv-x="1200" 
d="M1179 150l-26 -150h-963l239 1358h166l-213 -1208h797z" />
    <glyph glyph-name="M" unicode="M" horiz-adv-x="1812" 
d="M547 1091l-192 -1091h-165l239 1358h211l323 -1034l687 1034h211l-239 -1358h-165l192 1091l-665 -991h-120z" />
    <glyph glyph-name="N" unicode="N" horiz-adv-x="1592" 
d="M356 0h-166l239 1358h173l678 -1113l196 1113h165l-239 -1358h-173l-677 1109z" />
    <glyph glyph-name="O" unicode="O" horiz-adv-x="1596" 
d="M794 -20q-145 0 -265 50.5t-197 142.5q-78 92 -107.5 223.5t-2.5 282.5q36 203 156 364q118 159 293 247q173 87 370 87q145 0 265.5 -50.5t197.5 -141.5q78 -92 107.5 -223.5t2.5 -282.5q-36 -203 -156 -364t-293 -248q-174 -87 -371 -87zM395 679q-43 -242 77 -394
q120 -151 350 -151t403 151q173 152 216 394q42 242 -77 394q-120 150 -350 150q-148 2 -280.5 -66.5t-222.5 -194.5t-116 -283z" />
    <glyph glyph-name="P" unicode="P" horiz-adv-x="1265" 
d="M447 524l-92 -524h-165l239 1358h552q208 0 311 -112q104 -113 70 -305q-34 -191 -177 -303q-144 -114 -351 -114h-387zM568 1206l-94 -530h381q137 0 224.5 70.5t109.5 194.5q21 124 -41 194.5t-199 70.5h-381z" />
    <glyph glyph-name="Q" unicode="Q" horiz-adv-x="1597" 
d="M780 -20q-145 0 -265 50.5t-197 142.5q-78 92 -107.5 223.5t-2.5 282.5q36 203 156 364q118 159 293 247q172 87 370 87q145 0 265.5 -50.5t197.5 -141.5q78 -92 107.5 -223.5t2.5 -282.5q-29 -166 -115 -304.5t-216 -234.5l129 -224l-146 -89l-131 227
q-163 -74 -341 -74zM381 679q-43 -242 77 -394q120 -151 350 -151q126 0 238 48l-131 226l146 93l133 -230q188 153 233 408q42 242 -77 394q-120 150 -350 150q-148 2 -280.5 -66.5t-222.5 -194.5t-116 -283z" />
    <glyph glyph-name="R" unicode="R" horiz-adv-x="1334" 
d="M452 552l-97 -552h-165l239 1358h580q207 0 312 -109q104 -110 71 -294q-26 -146 -122 -245q-98 -101 -242 -138l235 -572h-195l-222 552h-394zM568 1208l-90 -509h409q138 0 225 68t108 188t-41.5 186.5t-201.5 66.5h-409z" />
    <glyph glyph-name="S" unicode="S" horiz-adv-x="1216" 
d="M154 273l140 89q41 -109 131 -170.5t226 -61.5q139 0 236 60q97 58 114 153t-50 150q-68 56 -241 117q-73 26 -135 53q-54 23 -109 60q-55 36 -85 76q-68 89 -45 217q15 86 66 157.5t124 115.5q147 89 318 89q188 0 297 -88q94 -76 132 -171l-145 -94q-32 71 -97 131
q-81 71 -214 71q-114 0 -202 -55q-90 -56 -106 -154q-13 -73 31 -124q20 -23 62 -45q42 -24 81 -39q21 -9 107 -41q82 -30 138 -54q55 -24 112 -61q54 -36 88 -79q70 -96 46 -230q-28 -158 -183 -262q-155 -103 -367 -103q-185 0 -309 83t-161 210z" />
    <glyph glyph-name="T" unicode="T" horiz-adv-x="1157" 
d="M708 1204h-454l27 154h1073l-27 -154h-454l-212 -1204h-165z" />
    <glyph glyph-name="U" unicode="U" horiz-adv-x="1486" 
d="M1178 117q-179 -137 -439 -137t-389 137q-130 136 -89 368l153 873h165l-152 -864q-29 -164 63 -261q92 -98 277 -98q183 0 311 98q127 98 155 261l152 864h165l-153 -873q-41 -232 -219 -368z" />
    <glyph glyph-name="V" unicode="V" horiz-adv-x="1354" 
d="M779 0h-204l-306 1358h175l264 -1184l680 1184h175z" />
    <glyph glyph-name="W" unicode="W" horiz-adv-x="2050" 
d="M687 0h-241l-163 1358h169l147 -1189l576 1178h176l160 -1178l565 1189h169l-641 -1358h-241l-143 1106z" />
    <glyph glyph-name="X" unicode="X" horiz-adv-x="1278" 
d="M738 567l-516 -568h-203l634 696l-368 663h204l295 -535l484 535h203l-600 -662l388 -697h-206z" />
    <glyph glyph-name="Y" unicode="Y" horiz-adv-x="1292" 
d="M656 530l-388 828h196l305 -659l537 659h196l-680 -828l-93 -530h-166z" />
    <glyph glyph-name="Z" unicode="Z" horiz-adv-x="1234" 
d="M94 0l23 133l1021 1074h-821l26 151h1027l-26 -151l-1010 -1057h835l-26 -150h-1049z" />
    <glyph glyph-name="bracketleft" unicode="[" horiz-adv-x="644" 
d="M289 -272h253l-23 -128h-403l345 1953h403l-23 -128h-253z" />
    <glyph glyph-name="backslash" unicode="\" horiz-adv-x="1061" 
d="M767 -400l-445 1929h170l444 -1929h-169z" />
    <glyph glyph-name="bracketright" unicode="]" horiz-adv-x="644" 
d="M-17 -400l23 128h253l299 1697h-253l23 128h403l-345 -1953h-403z" />
    <glyph glyph-name="asciicircum" unicode="^" horiz-adv-x="1117" 
d="M327 510h-186l567 848h179l269 -848h-186l-205 663z" />
    <glyph glyph-name="underscore" unicode="_" horiz-adv-x="1167" 
d="M1049 -89l-24 -138h-963l24 138h963z" />
    <glyph glyph-name="grave" unicode="`" horiz-adv-x="619" 
d="M594 1473l-129 334h180l88 -334h-139z" />
    <glyph glyph-name="a" unicode="a" horiz-adv-x="1093" 
d="M472 -20q-170 0 -261 78t-67 216q24 134 155 218t318 84q140 0 263 -56l12 70q19 111 -44 177q-63 65 -182 65q-176 0 -322 -142l-86 98q80 88 198 140q117 52 235 52q195 0 294 -102q98 -104 67 -275l-106 -603h-156l26 146q-60 -76 -151.5 -121t-192.5 -45zM306 277
q-14 -77 41.5 -121.5t158.5 -44.5q130 0 230 84q101 84 120 193q-41 28 -112 46q-73 17 -141 17q-119 0 -200 -45q-82 -46 -97 -129z" />
    <glyph glyph-name="b" unicode="b" horiz-adv-x="1264" 
d="M347 156l-28 -156h-159l248 1408h159l-107 -606q74 84 177.5 131t224.5 47q207 0 321 -141q113 -143 75 -357q-22 -139 -107 -255.5t-209 -182.5t-257 -64q-121 0 -207.5 46.5t-130.5 129.5zM548 734q-121 -102 -146 -252q-26 -151 58 -254q83 -104 235 -104
q147 0 263 104q115 103 142 254q26 152 -52 253q-80 101 -228 101q-153 0 -272 -102z" />
    <glyph glyph-name="c" unicode="c" horiz-adv-x="1120" 
d="M601 -20q-140 -2 -247 65.5t-154 183.5t-20 251q37 210 210 356q172 144 387 144q145 0 249 -67.5t146 -188.5l-141 -78q-36 90 -107.5 138t-172.5 48q-147 0 -267 -102q-120 -103 -145 -250q-26 -150 56 -250q83 -102 233 -102q98 0 188 48.5t151 132.5l114 -78
q-80 -116 -209 -183q-131 -68 -271 -68z" />
    <glyph glyph-name="d" unicode="d" horiz-adv-x="1276" 
d="M577 -20q-133 -2 -233.5 64t-144.5 182.5t-17 255.5q37 213 202 357q164 141 370 141q121 0 208 -47.5t130 -130.5l107 606h159l-248 -1408h-159l28 156q-73 -82 -177 -129t-225 -47zM340 482q-27 -151 52 -254q80 -104 227 -104q151 0 272 104q120 103 147 254
q26 150 -57 252q-84 102 -237 102q-148 0 -263 -101q-114 -102 -141 -253z" />
    <glyph glyph-name="e" unicode="e" horiz-adv-x="1138" 
d="M588 -20q-139 -2 -244 65t-150.5 183t-18.5 252q37 209 207 355q169 145 375 145q185 0 301 -119q55 -58 77.5 -144.5t4.5 -187.5q-11 -63 -20 -88h-791q-16 -134 62 -225q76 -91 223 -91q190 0 331 161l106 -88q-83 -101 -206 -160q-122 -58 -257 -58zM732 835
q-127 0 -230 -73q-105 -74 -144 -190h631q13 117 -60 190t-197 73z" />
    <glyph glyph-name="f" unicode="f" horiz-adv-x="732" 
d="M377 823h-181l24 137h182l21 119q28 162 142 256q113 93 279 93q87 0 152 -31l-41 -129q-50 24 -128 24q-209 0 -250 -224l-19 -108h298l-24 -137h-296l-145 -823h-159z" />
    <glyph glyph-name="g" unicode="g" horiz-adv-x="1264" 
d="M510 -420q-134 0 -241.5 49t-169.5 140l124 104q111 -148 313 -148q166 0 282 87q113 87 139 234l20 112q-72 -82 -177 -130t-225 -48q-207 0 -320 144q-113 143 -75 359q37 214 202 356q164 141 370 141q121 0 208 -47t131 -130l27 157h159l-157 -891
q-39 -223 -204 -357q-167 -132 -406 -132zM338 483q-27 -152 52 -255q80 -104 227 -104q151 0 273 104q121 104 146 255q26 149 -57 251q-84 102 -237 102q-148 0 -263 -101q-114 -102 -141 -252z" />
    <glyph glyph-name="h" unicode="h" horiz-adv-x="1203" 
d="M325 0h-159l248 1408h160l-104 -592q56 72 149 118q91 46 201 46q188 0 277 -105q89 -107 56 -291l-103 -584h-158l96 545q25 138 -32.5 211.5t-187.5 73.5q-125 0 -225 -80q-99 -78 -122 -208z" />
    <glyph glyph-name="i" unicode="i" horiz-adv-x="479" 
d="M488 960l-169 -960h-159l169 960h159zM448 1183q-43 0 -66 27.5t-15 71.5q7 43 39 70.5t76 27.5t67 -27q23 -29 16 -71q-7 -43 -40 -71q-32 -28 -77 -28z" />
    <glyph glyph-name="j" unicode="j" horiz-adv-x="491" 
d="M-52 -420q-94 0 -146 27l41 134q51 -20 120 -20q153 0 188 195l184 1044h159l-186 -1055q-27 -155 -120.5 -240t-239.5 -85zM454 1183q-43 0 -66 27.5t-15 71.5q7 43 39 70.5t76 27.5t67 -27q23 -29 16 -71q-7 -43 -40 -71q-32 -28 -77 -28z" />
    <glyph glyph-name="k" unicode="k" horiz-adv-x="1048" 
d="M375 281l-50 -281h-159l248 1408h159l-164 -934l568 486h213l-485 -404l323 -556h-202l-252 448z" />
    <glyph glyph-name="l" unicode="l" horiz-adv-x="479" 
d="M319 0h-159l248 1408h159z" />
    <glyph glyph-name="m" unicode="m" horiz-adv-x="1882" 
d="M415 545l-96 -545h-159l169 960h159l-25 -143q56 71 146 117q91 46 198 46q125 0 206.5 -52.5t108.5 -149.5q66 94 168.5 148t218.5 54q184 0 273 -107q88 -108 57 -286l-104 -587h-159l97 548q23 133 -34 207.5t-182 74.5q-119 0 -216 -77q-95 -76 -118 -202l-97 -551
h-159l97 548q23 132 -33 207t-177 75q-123 0 -219 -78q-97 -80 -120 -207z" />
    <glyph glyph-name="n" unicode="n" horiz-adv-x="1193" 
d="M319 0h-159l169 960h160l-25 -144q56 72 149 118q91 46 201 46q190 0 279 -105q89 -107 56 -291l-103 -584h-159l96 545q25 138 -32 211.5t-189 73.5q-125 0 -225 -80q-99 -78 -122 -208z" />
    <glyph glyph-name="o" unicode="o" horiz-adv-x="1198" 
d="M595 -20q-141 -2 -248 65t-153.5 183t-19.5 252q38 213 209 356q171 144 389 144q141 2 248 -65t153.5 -183t20.5 -252q-38 -212 -209 -356q-173 -144 -390 -144zM477 731q-118 -102 -144 -251q-26 -150 56 -250q83 -102 233 -102t269 102q118 100 144 250t-56 251
q-83 101 -233 101t-269 -101z" />
    <glyph glyph-name="p" unicode="p" horiz-adv-x="1276" 
d="M353 158l-99 -558h-159l240 1360h159l-27 -157q73 83 176.5 130t224.5 47q133 2 233.5 -64t144.5 -182.5t17 -255.5q-37 -216 -201 -357t-371 -141q-121 0 -207.5 47t-130.5 131zM407 478q-26 -151 58 -252q83 -102 236 -102q149 0 263 102q114 100 141 252
q27 151 -52 254q-80 104 -227 104q-151 0 -272 -104q-120 -103 -147 -254z" />
    <glyph glyph-name="q" unicode="q" horiz-adv-x="1272" 
d="M577 -20q-207 0 -320 141q-114 140 -76 357q22 139 107 255.5t209 182.5t257 64q121 0 208 -47t131 -130l27 157h159l-240 -1360h-159l99 558q-73 -83 -177 -130.5t-225 -47.5zM339 478q-26 -153 53 -252q78 -102 227 -102q153 0 273 102q120 103 145 252q26 150 -57 254
q-84 104 -236 104q-148 0 -263 -103t-142 -255z" />
    <glyph glyph-name="r" unicode="r" horiz-adv-x="759" 
d="M414 533l-94 -533h-160l169 960h160l-25 -142q108 162 288 162q82 0 131 -25l-42 -147q-60 24 -121 24q-107 0 -193 -74t-113 -225z" />
    <glyph glyph-name="s" unicode="s" horiz-adv-x="966" 
d="M121 196l137 89q28 -77 94.5 -119.5t164.5 -42.5q96 0 161 37q66 37 76 98q11 65 -32 94q-44 30 -169 59q-155 36 -233 94q-90 66 -66 199q23 124 138 200t268 76q124 0 209 -51q86 -51 117 -127l-124 -90q-65 125 -227 125q-91 0 -151.5 -35.5t-71.5 -94.5q-5 -43 9 -68
t57 -43q59 -24 146 -45q154 -39 230 -98q84 -67 60 -195q-21 -124 -144 -201q-124 -77 -279 -77q-144 0 -239 56.5t-131 159.5z" />
    <glyph glyph-name="t" unicode="t" horiz-adv-x="777" 
d="M273 278l96 545h-177l24 137h178l55 308h157l-55 -308h317l-24 -137h-316l-91 -519q-17 -89 19 -135t115 -46q92 0 170 37l-3 -137q-36 -18 -95 -30.5t-115 -12.5q-144 0 -212.5 78t-42.5 220z" />
    <glyph glyph-name="u" unicode="u" horiz-adv-x="1189" 
d="M544 -20q-186 0 -275 105q-88 104 -56 290l103 585h158l-96 -546q-25 -138 31.5 -211t186.5 -73q128 0 226 79q100 80 122 208l95 543h159l-169 -960h-159l25 144q-56 -74 -149.5 -119t-201.5 -45z" />
    <glyph glyph-name="v" unicode="v" horiz-adv-x="1018" 
d="M607 0h-196l-203 960h170l158 -808l441 808h171z" />
    <glyph glyph-name="w" unicode="w" horiz-adv-x="1609" 
d="M353 0l-131 960h169l96 -808l401 798h169l119 -799l381 809h168l-468 -960h-213l-111 728l-367 -728h-213z" />
    <glyph glyph-name="x" unicode="x" horiz-adv-x="1016" 
d="M573 381l-349 -381h-185l455 492l-276 467h189l208 -357l336 357h185l-440 -466l281 -493h-187z" />
    <glyph glyph-name="y" unicode="y" horiz-adv-x="1060" 
d="M135 -420q-101 0 -158 33l43 135q54 -26 131 -26q80 0 144 50t122 156l25 45l-241 987h173l186 -804l462 804h175l-644 -1082q-90 -154 -184 -226q-95 -72 -234 -72z" />
    <glyph glyph-name="z" unicode="z" horiz-adv-x="916" 
d="M833 0h-736l24 134l643 689h-515l24 137h700l-23 -134l-644 -689h551z" />
    <glyph glyph-name="braceleft" unicode="{" horiz-adv-x="666" 
d="M140 509l24 136q8 -1 37 1q90 7 129 53q38 45 54 133l63 360q25 143 75 229q29 50 67 81q84 69 229 69q36 0 69 -3l-22 -130q-35 2 -64 0q-101 -4 -147 -63q-45 -57 -74 -217l-60 -340q-34 -194 -150 -241q103 -52 70 -241l-64 -367q-25 -139 1 -195q26 -54 118 -58
q30 -2 66 0l-23 -129q-29 -4 -71 -4q-92 0 -149.5 29t-79 80t-23.5 121.5t16 154.5l63 354q16 91 -8.5 134t-106.5 52q-30 2 -39 1z" />
    <glyph glyph-name="bar" unicode="|" horiz-adv-x="527" 
d="M497 1758h153l-381 -2158h-153z" />
    <glyph glyph-name="braceright" unicode="}" horiz-adv-x="666" 
d="M51 -417q-40 0 -69 4l23 129q37 -2 66 0q100 4 143 62q43 59 71 224l59 334q33 188 156 241q-100 46 -66 241l66 374q24 136 -4 188q-29 54 -122 58q-30 2 -65 0l22 130q36 3 71 3q210 0 244 -150q19 -83 -7 -229l-63 -360q-16 -91 8.5 -134.5t108.5 -51.5q29 -2 37 -1
l-24 -136q-8 1 -38 -1q-91 -9 -128 -54q-39 -45 -54 -132l-63 -354q-16 -94 -39.5 -157.5t-63.5 -116.5q-85 -111 -269 -111z" />
    <glyph glyph-name="asciitilde" unicode="~" horiz-adv-x="1134" 
d="M267 461l-78 121q173 144 320 144q112 0 189 -53t169 -53q51 0 95 20.5t111 69.5l79 -121q-172 -144 -321 -144q-21 0 -40.5 2t-38.5 7t-31.5 8.5t-30.5 12.5l-25 12.5t-26.5 14.5t-22.5 13q-68 37 -143 37q-84 0 -206 -91z" />
    <glyph glyph-name="uni00A0" unicode="&#xa0;" horiz-adv-x="476" 
 />
    <glyph glyph-name="exclamdown" unicode="&#xa1;" horiz-adv-x="497" 
d="M420 592l-150 -990h-181l194 990h137zM440 803q-34 -29 -76 -29q-43 0 -66 29q-22 28 -15 70q8 42 41 71q31 28 75 28q43 0 67 -28q23 -29 15 -71q-7 -41 -41 -70z" />
    <glyph glyph-name="cent" unicode="&#xa2;" horiz-adv-x="1179" 
d="M563 0l32 182q-189 24 -288 164t-65 332q35 194 184 333q148 139 344 163l29 167h131l-29 -166q123 -14 209.5 -80t123.5 -173l-141 -78q-63 154 -219 181l-122 -694q82 14 154 60t123 116l114 -78q-70 -101 -180 -167q-114 -67 -237 -80l-32 -182h-131zM401 678
q-22 -130 39 -226q62 -98 181 -120l122 691q-125 -22 -223 -119q-96 -96 -119 -226z" />
    <glyph glyph-name="sterling" unicode="&#xa3;" horiz-adv-x="1206" 
d="M1087 0h-985l26 145q117 75 154 109q80 74 101 192l29 168h-195l25 141h195l39 221q31 182 169.5 293.5t319.5 108.5q142 0 238 -72t120 -204l-145 -72q-22 92 -82.5 142.5t-154.5 50.5q-119 0 -204 -71q-84 -72 -105 -191l-36 -206h387l-25 -141h-387l-24 -136
q-20 -115 -62 -194t-122 -134h750z" />
    <glyph glyph-name="currency" unicode="&#xa4;" horiz-adv-x="1226" 
d="M250 157l-92 110l211 177q-47 105 -28 214q18 107 100 210l-145 173l130 112l143 -173q118 65 226 65q113 0 208 -66l202 173l91 -111l-206 -173q48 -94 27 -210q-20 -110 -106 -213l151 -178l-132 -111l-148 180q-112 -61 -223 -61q-106 0 -197 62zM476 658
q-17 -101 44 -170q62 -71 164 -71q105 0 194 71q88 71 104 170q18 102 -44 176q-62 72 -168 72q-104 0 -190 -72q-86 -74 -104 -176z" />
    <glyph glyph-name="yen" unicode="&#xa5;" horiz-adv-x="1347" 
d="M648 607l-352 751h196l305 -659l537 659h196l-617 -751h290l-19 -108h-339l-26 -144h334l-19 -108h-334l-43 -247h-166l43 247h-331l19 108h331l26 144h-337l19 108h287z" />
    <glyph glyph-name="brokenbar" unicode="&#xa6;" horiz-adv-x="527" 
d="M497 1758h153l-150 -848h-153zM266 449h153l-149 -848h-153z" />
    <glyph glyph-name="section" unicode="&#xa7;" horiz-adv-x="1123" 
d="M506 -341q-167 0 -277 77q-111 77 -143 197l128 79q33 -98 114.5 -154.5t202.5 -56.5q112 0 201 56q90 56 106 149q16 87 -46 140q-60 51 -210 95q-93 28 -157 53q-56 21 -115 62q-110 74 -81 231q22 133 149 222q-72 86 -48 221q20 111 95 192q76 82 171 119t196 37
q159 0 260 -70q101 -71 137 -175l-127 -83q-31 81 -106 133q-77 53 -189 53q-104 0 -187 -55q-84 -55 -100 -149q-9 -51 2.5 -83t54.5 -58q44 -26 79 -40q50 -20 124 -43q7 -3 17 -6t16 -5q185 -61 254 -121q97 -92 71 -238q-25 -138 -144 -224q53 -82 31 -206
q-19 -110 -97 -194q-77 -80 -177 -118q-98 -37 -205 -37zM710 648q-158 44 -235 86q-79 -55 -96 -145q-7 -45 4.5 -73t52.5 -50q45 -25 77 -36q30 -11 119 -37l7.5 -2.5t5.5 -1.5q156 -47 225 -94q68 60 81 141q14 77 -42.5 125t-198.5 87z" />
    <glyph glyph-name="dieresis" unicode="&#xa8;" horiz-adv-x="837" 
d="M862 1518q-44 0 -66.5 28t-15.5 71t40 71q32 27 76 27t67 -27q22 -28 15 -71q-8 -44 -40.5 -71.5t-75.5 -27.5zM510 1518q-43 0 -66 27.5t-15 71.5q7 43 39 70.5t76 27.5t67 -27q23 -29 16 -71q-7 -43 -40 -71q-32 -28 -77 -28z" />
    <glyph glyph-name="copyright" unicode="&#xa9;" horiz-adv-x="1704" 
d="M847 -20q-142 0 -266 53.5t-208 147.5q-83 92 -119 223q-37 128 -11 276q25 145 109 277q81 129 199 222q116 92 259 146q144 53 284 53q141 0 265.5 -53t209.5 -146q83 -90 121 -223q37 -128 11 -276q-34 -196 -165 -358t-313 -252q-185 -90 -376 -90zM339 680
q-30 -169 32 -312q61 -142 193 -222q130 -81 298 -81q166 0 327 81q160 81 273 224t143 310q28 168 -33 310q-62 141 -194 224q-132 81 -299 81t-326 -81q-160 -82 -272 -224q-114 -144 -142 -310zM569 678q28 168 164 282q136 113 311 113q104 0 182.5 -49.5t113.5 -137.5
l-78 -49q-69 148 -234 148q-134 0 -237 -88q-106 -89 -128 -219q-23 -128 50 -215q72 -88 204 -88q80 0 158 40t135 108l61 -49q-69 -88 -166 -136q-101 -51 -204 -51q-171 0 -266 113t-66 278z" />
    <glyph glyph-name="ordfeminine" unicode="&#xaa;" horiz-adv-x="832" 
d="M503 749q-97 0 -153 50q-55 49 -40 136q15 85 96 138q80 52 197 52q89 0 147 -27l5 30q10 58 -26 95t-105 37q-98 0 -190 -83l-64 82q46 48 123 84q78 35 154 35q126 0 188.5 -64.5t43.5 -174.5l-67 -378h-122l16 78q-35 -42 -89 -66t-114 -24zM796 651l-21 -120h-525
l21 120h525zM430 937q-7 -41 21.5 -65t80.5 -24q76 0 132 43q57 45 67 104q-49 34 -142 34q-65 0 -107.5 -23.5t-51.5 -68.5z" />
    <glyph glyph-name="guillemotleft" unicode="&#xab;" horiz-adv-x="1004" 
d="M564 86h-170l-202 394l341 395h170l-328 -395zM744 86l-202 394l341 395h170l-328 -395l189 -394h-170z" />
    <glyph glyph-name="logicalnot" unicode="&#xac;" horiz-adv-x="1317" 
d="M1243 428h-162l69 391h-919l28 159h1081z" />
    <glyph glyph-name="uni00AD" unicode="&#xad;" horiz-adv-x="847" 
d="M255 652h567l-27 -152h-567z" />
    <glyph glyph-name="registered" unicode="&#xae;" horiz-adv-x="1304" 
d="M744 541q-224 0 -352 149q-127 148 -90 365q21 139 113.5 258.5t229 188.5t280.5 66q146 3 260 -66t165.5 -188.5t24.5 -258.5q-25 -141 -117 -260q-93 -119 -229 -186q-138 -68 -285 -68zM392 1055q-23 -116 19.5 -216t135.5 -158t212 -56q121 -2 236 56t193.5 158
t96.5 216q32 182 -76 308q-110 125 -298 125q-185 0 -336 -125q-151 -126 -183 -308zM686 805h-85l89 506h216q80 0 120.5 -42t27.5 -113q-10 -52 -42.5 -89t-80.5 -51l86 -211h-99l-75 197h-122zM734 1078h129q42 0 69.5 21t33.5 57q6 37 -13.5 58t-61.5 21h-129z" />
    <glyph glyph-name="macron" unicode="&#xaf;" horiz-adv-x="883" 
d="M1032 1671l-22 -125h-591l22 125h591z" />
    <glyph glyph-name="degree" unicode="&#xb0;" horiz-adv-x="899" 
d="M568 678q-154 0 -237 99q-83 98 -56 249q27 152 145 252q116 100 271 100t239 -100q83 -101 56 -252q-27 -153 -145 -250q-119 -98 -273 -98zM409 1025q-17 -98 34 -160q51 -64 146 -64q96 0 169 64q74 63 90 160q17 99 -33 164q-51 65 -146 65t-169 -65
q-75 -65 -91 -164z" />
    <glyph glyph-name="plusminus" unicode="&#xb1;" horiz-adv-x="1295" 
d="M644 443l67 381h-424l28 158h424l66 374h162l-66 -374h426l-28 -158h-426l-67 -381h-162zM1179 54h-1044l28 160h1044z" />
    <glyph glyph-name="twosuperior" unicode="&#xb2;" horiz-adv-x="744" 
d="M759 655l-21 -121h-565l10 56q19 101 96 170q35 31 72 59q34 25 87 59l72 47l27 18t23.5 16t13.5 9q18 12 50 39q56 47 68 111q12 65 -23.5 104.5t-103.5 39.5q-56 0 -105.5 -36t-80.5 -97l-101 57q47 89 131 140q85 52 179 52q122 0 191 -71t48 -187q-12 -72 -62 -136
q-19 -24 -57 -54q-29 -24 -62 -47q-24 -17 -75 -48l-55 -35q-152 -97 -174 -145h417z" />
    <glyph glyph-name="threesuperior" unicode="&#xb3;" horiz-adv-x="753" 
d="M177 703l121 60q12 -61 55 -97t106 -36q62 0 115 35q51 35 62 95q11 63 -31 102t-117 39h-109l19 109h109q68 0 117 33.5t60 92.5t-23.5 92.5t-98.5 33.5q-62 0 -114 -35.5t-85 -91.5l-99 60q45 77 130 131q82 52 190 52q115 0 184 -63q68 -65 48 -177q-11 -62 -53 -110
t-102 -70q57 -20 89 -77q31 -56 20 -123q-20 -113 -116 -178q-96 -66 -212 -66q-105 0 -175 49.5t-90 139.5z" />
    <glyph glyph-name="acute" unicode="&#xb4;" horiz-adv-x="619" 
d="M612 1807h180l-247 -334h-139z" />
    <glyph glyph-name="paragraph" unicode="&#xb6;" horiz-adv-x="1227" 
d="M739 509h-130q-192 0 -299 119t-74 306t182 306q148 118 340 118h588l-18 -103h-327l-292 -1655h-131zM1239 1119l-268 -1519h-116l268 1519h116z" />
    <glyph glyph-name="periodcentered" unicode="&#xb7;" horiz-adv-x="460" 
d="M367 379q-32 -28 -76 -28t-66 28t-15 70q8 42 41 71q31 28 75 28q43 0 67 -28q23 -29 15 -71q-7 -41 -41 -70z" />
    <glyph glyph-name="cedilla" unicode="&#xb8;" horiz-adv-x="618" 
d="M152 -447q-80 0 -131 20l20 114q50 -19 120 -19q129 0 141 70q7 37 -27 56t-106 19h-59l119 214h102l-62 -124q93 -7 140 -51t35 -115q-16 -86 -93.5 -135t-198.5 -49z" />
    <glyph glyph-name="onesuperior" unicode="&#xb9;" horiz-adv-x="505" 
d="M265 1240l20 118h319l-145 -824h-131l125 706h-188z" />
    <glyph glyph-name="ordmasculine" unicode="&#xba;" horiz-adv-x="917" 
d="M592 759q-136 0 -211 88q-76 86 -53 220q24 134 131 223q106 88 242 88q137 0 213 -88q75 -88 51 -223q-22 -133 -129 -220q-106 -88 -244 -88zM458 1067q-14 -80 31 -132q44 -53 125 -53t143 53q63 53 76 132q14 82 -29 135q-44 53 -125 53q-80 0 -144 -53
q-64 -54 -77 -135zM872 651l-21 -120h-597l21 120h597z" />
    <glyph glyph-name="guillemotright" unicode="&#xbb;" horiz-adv-x="1004" 
d="M640 86h-170l329 394l-190 395h170l203 -395zM290 86h-170l329 394l-190 395h170l203 -395z" />
    <glyph glyph-name="onequarter" unicode="&#xbc;" horiz-adv-x="1645" 
d="M1337 217h-415l19 106l477 501h155l-87 -496h124l-20 -110h-124l-38 -218h-129zM1405 1334l-967 -1334h-126l5 26l968 1332h124zM500 1236h-188l21 118h319l-146 -824h-131zM1357 328l59 336l-320 -336h261z" />
    <glyph glyph-name="onehalf" unicode="&#xbd;" horiz-adv-x="1727" 
d="M1580 121l-21 -121h-565l10 56q19 101 96 170q36 33 72 59q19 14 87 59l72 47q92 60 123 91q48 45 59 102q12 65 -24 104.5t-104 39.5q-56 0 -105 -36t-80 -97l-101 57q47 89 131 140q85 52 179 52q122 0 191 -70q69 -71 48 -188q-9 -84 -88 -163q-13 -15 -52 -44
q-23 -17 -53 -37l-15 -10t-23 -15t-25 -16l-55 -35q-152 -97 -174 -145h417zM1405 1334l-967 -1334h-126l5 26l968 1332h124zM375 530l125 706h-188l21 118h319l-146 -824h-131z" />
    <glyph glyph-name="threequarters" unicode="&#xbe;" horiz-adv-x="1806" 
d="M1473 217h-415l19 106l477 501h155l-87 -496h124l-20 -110h-124l-38 -218h-129zM449 520q-105 0 -175 49.5t-90 139.5l121 60q12 -61 55 -97t106 -36q62 0 115 35q51 35 62 95q11 63 -31 102t-117 39h-109l19 109h109q68 0 117 33.5t60 92.5t-23.5 92.5t-98.5 33.5
q-62 0 -114 -35.5t-85 -91.5l-99 60q45 77 130 131q82 52 190 52q115 0 184 -63q67 -65 48 -177q-11 -62 -53 -110t-102 -70q57 -20 89 -77q31 -56 20 -123q-20 -113 -116 -178q-96 -66 -212 -66zM604 0h-126l5 26l968 1332h124l-4 -24zM1493 328l59 336l-320 -336h261z" />
    <glyph glyph-name="questiondown" unicode="&#xbf;" horiz-adv-x="1004" 
d="M384 -416q-177 0 -279 99q-103 99 -73 272q16 83 67 157q19 30 57 70q37 39 61 61q8 8 68 62q31 26 59 51q12 10 31.5 27t25.5 23q18 16 46 46q45 48 68 110q11 31 16 70h148q0 -83 -45 -167q-16 -31 -54 -72q-33 -37 -58 -62q-32 -30 -72 -65q-53 -46 -70 -61
q-71 -65 -96 -91q-31 -31 -54 -70q-26 -41 -33 -83q-18 -104 46 -164q65 -59 173 -59q98 0 190 58t142 150l127 -69q-68 -129 -205 -212q-137 -81 -286 -81zM727 807q-34 -29 -76 -29q-43 0 -66 29q-22 28 -15 70q8 42 41 71q31 28 75 28q43 0 67 -28q23 -29 15 -71
q-7 -41 -41 -70z" />
    <glyph glyph-name="Agrave" unicode="&#xc0;" horiz-adv-x="1365" 
d="M198 0h-174l800 1358h194l323 -1358h-175l-70 315h-715zM1068 456l-177 730l-434 -730h611zM860 1473l-129 334h180l88 -334h-139z" />
    <glyph glyph-name="Aacute" unicode="&#xc1;" horiz-adv-x="1365" 
d="M198 0h-174l800 1358h194l323 -1358h-175l-70 315h-715zM1068 456l-177 730l-434 -730h611zM1260 1807l-247 -334h-139l206 334h180z" />
    <glyph glyph-name="Acircumflex" unicode="&#xc2;" horiz-adv-x="1365" 
d="M198 0h-174l800 1358h194l323 -1358h-175l-70 315h-715zM891 1186l-434 -730h611zM981 1692l-195 -221h-156l340 369h73l210 -369h-156z" />
    <glyph glyph-name="Atilde" unicode="&#xc3;" horiz-adv-x="1365" 
d="M198 0h-174l800 1358h194l323 -1358h-175l-70 315h-715zM891 1186l-434 -730h611zM704 1534l-72 71q117 143 233 143q39 1 82.5 -20t82.5 -42t68 -20q40 0 72 18.5t73 62.5l69 -76q-59 -70 -115 -103.5t-122 -33.5q-39 -1 -82.5 19.5t-82 41t-64.5 18.5
q-37 0 -65.5 -16.5t-76.5 -62.5z" />
    <glyph glyph-name="Adieresis" unicode="&#xc4;" horiz-adv-x="1365" 
d="M381 315l-183 -315h-174l800 1358h194l323 -1358h-175l-70 315h-715zM891 1186l-434 -730h611zM1126 1518q-44 0 -66.5 28t-15.5 71t40 71q32 27 76 27t67 -27q22 -28 15 -71q-8 -44 -40.5 -71.5t-75.5 -27.5zM774 1518q-43 0 -66 27.5t-15 71.5q7 43 39 70.5t76 27.5
t67 -27q23 -29 16 -71q-7 -43 -40 -71q-32 -28 -77 -28z" />
    <glyph glyph-name="Aring" unicode="&#xc5;" horiz-adv-x="1365" 
d="M198 0h-174l800 1358h194l323 -1358h-175l-70 315h-715zM1068 456l-177 730l-434 -730h611zM1108 1549q-70 -57 -162 -57t-142 57q-50 58 -35 143q16 88 86 146q71 57 162 57q93 0 142 -57q50 -59 34 -146q-15 -87 -85 -143zM878 1692q-8 -44 16 -72t70 -28q45 0 78 28
t41 72q8 45 -15 74.5t-68 29.5t-79.5 -29.5t-42.5 -74.5z" />
    <glyph glyph-name="AE" unicode="&#xc6;" horiz-adv-x="1963" 
d="M155 0h-185l1075 1358h1034l-26 -150h-769l-77 -435h664l-26 -150h-664l-84 -474h791l-26 -149h-956l56 315h-556zM1119 1208l-601 -752h468z" />
    <glyph glyph-name="Ccedilla" unicode="&#xc7;" horiz-adv-x="1463" 
d="M643 -187l94 170q-178 15 -306 109q-129 93 -186 248q-57 154 -24 339q25 147 104 278q76 129 187 222q109 93 249 146t281 53q181 0 319.5 -83.5t214.5 -235.5l-146 -94q-129 258 -415 258q-222 0 -401 -155q-180 -157 -220 -389q-29 -151 20.5 -278t160 -198.5
t253.5 -68.5q291 0 513 254l109 -89q-116 -138 -275 -223q-158 -84 -334 -95l-39 -78q93 -7 140 -51t35 -115q-16 -86 -93.5 -135t-198.5 -49q-80 0 -131 20l20 114q50 -19 120 -19q129 0 141 70q7 37 -27 56t-106 19h-59z" />
    <glyph glyph-name="Egrave" unicode="&#xc8;" horiz-adv-x="1246" 
d="M1171 149l-26 -149h-955l239 1358h934l-26 -150h-769l-77 -435h664l-26 -150h-664l-84 -474h790zM867 1473l-129 334h180l88 -334h-139z" />
    <glyph glyph-name="Eacute" unicode="&#xc9;" horiz-adv-x="1246" 
d="M1171 149l-26 -149h-955l239 1358h934l-26 -150h-769l-77 -435h664l-26 -150h-664l-84 -474h790zM1070 1807h180l-247 -334h-139z" />
    <glyph glyph-name="Ecircumflex" unicode="&#xca;" horiz-adv-x="1246" 
d="M1171 149l-26 -149h-955l239 1358h934l-26 -150h-769l-77 -435h664l-26 -150h-664l-84 -474h790zM965 1692l-195 -221h-156l340 369h73l210 -369h-156z" />
    <glyph glyph-name="Edieresis" unicode="&#xcb;" horiz-adv-x="1246" 
d="M1171 149l-26 -149h-955l239 1358h934l-26 -150h-769l-77 -435h664l-26 -150h-664l-84 -474h790zM1110 1518q-44 0 -66.5 28t-15.5 71t40 71q32 27 76 27t67 -27q22 -28 15 -71q-8 -44 -40.5 -71.5t-75.5 -27.5zM758 1518q-43 0 -66 27.5t-15 71.5q7 43 39 70.5t76 27.5
t67 -27q23 -29 16 -71q-7 -43 -40 -71q-32 -28 -77 -28z" />
    <glyph glyph-name="Igrave" unicode="&#xcc;" horiz-adv-x="545" 
d="M355 0h-165l239 1358h165zM461 1473l-129 334h180l88 -334h-139z" />
    <glyph glyph-name="Iacute" unicode="&#xcd;" horiz-adv-x="545" 
d="M355 0h-165l239 1358h165zM675 1807h180l-247 -334h-139z" />
    <glyph glyph-name="Icircumflex" unicode="&#xce;" horiz-adv-x="545" 
d="M594 1358l-239 -1358h-165l239 1358h165zM571 1692l-195 -221h-156l340 369h73l210 -369h-156z" />
    <glyph glyph-name="Idieresis" unicode="&#xcf;" horiz-adv-x="545" 
d="M594 1358l-239 -1358h-165l239 1358h165zM716 1518q-44 0 -66.5 28t-15.5 71t40 71q32 27 76 27t67 -27q22 -28 15 -71q-8 -44 -40.5 -71.5t-75.5 -27.5zM364 1518q-43 0 -66 27.5t-15 71.5q7 43 39 70.5t76 27.5t67 -27q23 -29 16 -71q-7 -43 -40 -71q-32 -28 -77 -28z
" />
    <glyph glyph-name="Eth" unicode="&#xd0;" horiz-adv-x="1521" 
d="M180 0l110 624h-152l25 144h152l104 590h540q195 3 341.5 -86.5t210.5 -247t28 -346.5q-35 -194 -151 -348q-120 -156 -293 -242q-175 -88 -375 -88h-540zM962 768l-25 -144h-482l-83 -473h375q234 0 406 151q173 150 213 376q40 225 -80 377q-120 149 -353 151l-375 1
l-77 -439h481z" />
    <glyph glyph-name="Ntilde" unicode="&#xd1;" horiz-adv-x="1592" 
d="M552 1109l-196 -1109h-166l239 1358h173l678 -1113l196 1113h165l-239 -1358h-173zM815 1534l-72 71q117 143 233 143q39 1 82.5 -20t82.5 -42t68 -20q40 0 72 18.5t73 62.5l69 -76q-59 -70 -115 -103.5t-122 -33.5q-47 -2 -123.5 39.5t-105.5 39.5q-37 0 -65.5 -16.5
t-76.5 -62.5z" />
    <glyph glyph-name="Ograve" unicode="&#xd2;" horiz-adv-x="1596" 
d="M794 -20q-145 0 -265 50.5t-197 142.5q-78 92 -107.5 223.5t-2.5 282.5q36 203 156 364q118 159 293 247q173 87 370 87q145 0 265.5 -50.5t197.5 -141.5q78 -92 107.5 -223.5t2.5 -282.5q-36 -203 -156 -364t-293 -248q-174 -87 -371 -87zM395 679q-43 -242 77 -394
q120 -151 350 -151t403 151q173 152 216 394q42 242 -77 394q-120 150 -350 150q-148 2 -280.5 -66.5t-222.5 -194.5t-116 -283zM1007 1473l-129 334h180l88 -334h-139z" />
    <glyph glyph-name="Oacute" unicode="&#xd3;" horiz-adv-x="1596" 
d="M794 -20q-145 0 -265 50.5t-197 142.5q-78 92 -107.5 223.5t-2.5 282.5q36 203 156 364q118 159 293 247q173 87 370 87q145 0 265.5 -50.5t197.5 -141.5q78 -92 107.5 -223.5t2.5 -282.5q-36 -203 -156 -364t-293 -248q-174 -87 -371 -87zM395 679q-43 -242 77 -394
q120 -151 350 -151t403 151q173 152 216 394q42 242 -77 394q-120 150 -350 150q-148 2 -280.5 -66.5t-222.5 -194.5t-116 -283zM1414 1807l-247 -334h-139l206 334h180z" />
    <glyph glyph-name="Ocircumflex" unicode="&#xd4;" horiz-adv-x="1596" 
d="M794 -20q-145 0 -265 50.5t-197 142.5q-78 92 -107.5 223.5t-2.5 282.5q36 203 156 364q118 159 293 247q173 87 370 87q145 0 265.5 -50.5t197.5 -141.5q78 -92 107.5 -223.5t2.5 -282.5q-36 -203 -156 -364t-293 -248q-174 -87 -371 -87zM395 679q-43 -242 77 -394
q120 -151 350 -151t403 151q173 152 216 394q42 242 -77 394q-120 150 -350 150q-148 2 -280.5 -66.5t-222.5 -194.5t-116 -283zM902 1471h-156l340 369h73l210 -369h-156l-116 221z" />
    <glyph glyph-name="Otilde" unicode="&#xd5;" horiz-adv-x="1596" 
d="M794 -20q-145 0 -265 50.5t-197 142.5q-78 92 -107.5 223.5t-2.5 282.5q36 203 156 364q118 159 293 247q173 87 370 87q145 0 265.5 -50.5t197.5 -141.5q78 -92 107.5 -223.5t2.5 -282.5q-36 -203 -156 -364t-293 -248q-174 -87 -371 -87zM395 679q-43 -242 77 -394
q120 -151 350 -151t403 151q173 152 216 394q42 242 -77 394q-120 150 -350 150q-148 2 -280.5 -66.5t-222.5 -194.5t-116 -283zM826 1534l-72 71q117 143 233 143q39 1 82.5 -20t82.5 -42t68 -20q40 0 72 18.5t73 62.5l69 -76q-59 -70 -115 -103.5t-122 -33.5
q-39 -1 -82.5 19.5t-82 41t-64.5 18.5q-37 0 -65.5 -16.5t-76.5 -62.5z" />
    <glyph glyph-name="Odieresis" unicode="&#xd6;" horiz-adv-x="1596" 
d="M794 -20q-145 0 -265 50.5t-197 142.5q-78 92 -107.5 223.5t-2.5 282.5q36 203 156 364q118 159 293 247q173 87 370 87q145 0 265.5 -50.5t197.5 -141.5q78 -92 107.5 -223.5t2.5 -282.5q-36 -203 -156 -364t-293 -248q-174 -87 -371 -87zM395 679q-43 -242 77 -394
q120 -151 350 -151t403 151q173 152 216 394q42 242 -77 394q-120 150 -350 150q-148 2 -280.5 -66.5t-222.5 -194.5t-116 -283zM1242 1518q-44 0 -66.5 28t-15.5 71t40 71q32 27 76 27t67 -27q22 -28 15 -71q-8 -44 -40.5 -71.5t-75.5 -27.5zM890 1518q-43 0 -66 27.5
t-15 71.5q7 43 39 70.5t76 27.5q45 0 67 -27q23 -29 16 -71q-7 -43 -40 -71q-32 -28 -77 -28z" />
    <glyph glyph-name="multiply" unicode="&#xd7;" horiz-adv-x="1202" 
d="M1188 1165l93 -113l-449 -382l315 -382l-133 -113l-315 382l-449 -382l-93 113l449 382l-315 382l133 113l315 -382z" />
    <glyph glyph-name="Oslash" unicode="&#xd8;" horiz-adv-x="1596" 
d="M212 -21l145 166q-94 96 -129 233t-6 301q36 203 156 364q118 159 293 247q173 87 370 87q185 0 323 -78l147 169l112 -88l-146 -167q94 -95 130 -232.5t7 -301.5q-36 -203 -156 -364t-293 -248q-174 -87 -371 -87q-185 0 -324 79l-148 -169zM1359 1078l-775 -888
q104 -56 238 -56q230 0 403 151q173 152 216 394q43 246 -82 399zM475 281l774 887q-98 55 -235 55q-148 2 -280.5 -66.5t-222.5 -194.5t-116 -283q-43 -246 80 -398z" />
    <glyph glyph-name="Ugrave" unicode="&#xd9;" horiz-adv-x="1486" 
d="M1178 117q-179 -137 -439 -137t-389 137q-130 136 -89 368l153 873h165l-152 -864q-29 -164 63 -261q92 -98 277 -98q183 0 311 98q127 98 155 261l152 864h165l-153 -873q-41 -232 -219 -368zM1074 1473h-139l-129 334h180z" />
    <glyph glyph-name="Uacute" unicode="&#xda;" horiz-adv-x="1486" 
d="M1178 117q-179 -137 -439 -137t-389 137q-130 136 -89 368l153 873h165l-152 -864q-29 -164 63 -261q92 -98 277 -98q183 0 311 98q127 98 155 261l152 864h165l-153 -873q-41 -232 -219 -368zM1301 1807l-247 -334h-139l206 334h180z" />
    <glyph glyph-name="Ucircumflex" unicode="&#xdb;" horiz-adv-x="1486" 
d="M1178 117q-179 -137 -439 -137t-389 137q-130 136 -89 368l153 873h165l-152 -864q-29 -164 63 -261q92 -98 277 -98q183 0 311 98q127 98 155 261l152 864h165l-153 -873q-41 -232 -219 -368zM1042 1692l-195 -221h-156l340 369h73l210 -369h-156z" />
    <glyph glyph-name="Udieresis" unicode="&#xdc;" horiz-adv-x="1486" 
d="M1178 117q-179 -137 -439 -137t-389 137q-130 136 -89 368l153 873h165l-152 -864q-29 -164 63 -261q92 -98 277 -98q183 0 311 98q127 98 155 261l152 864h165l-153 -873q-41 -232 -219 -368zM1187 1518q-44 0 -66.5 28t-15.5 71t40 71q31 27 76 27t67 -27
q22 -28 15 -71q-8 -44 -40.5 -71.5t-75.5 -27.5zM835 1518q-43 0 -66 27.5t-15 71.5q7 43 39 70.5t76 27.5q45 0 67 -27q23 -29 16 -71q-7 -43 -40 -71q-32 -28 -77 -28z" />
    <glyph glyph-name="Yacute" unicode="&#xdd;" horiz-adv-x="1292" 
d="M656 530l-388 828h196l305 -659l537 659h196l-680 -828l-93 -530h-166zM1200 1807l-247 -334h-139l206 334h180z" />
    <glyph glyph-name="Thorn" unicode="&#xde;" horiz-adv-x="1356" 
d="M356 0h-166l239 1358h166l-37 -210h417q196 0 311 -112q58 -57 80.5 -149t1.5 -206q-26 -140 -109 -246q-84 -107 -200 -161q-117 -54 -247 -54h-417zM532 996l-111 -627h386q151 0 259 84t133 226q27 152 -48.5 234.5t-232.5 82.5h-386z" />
    <glyph glyph-name="germandbls" unicode="&#xdf;" horiz-adv-x="1296" 
d="M496 972l-171 -972h-159l173 981q34 201 188 325q152 122 374 122q202 0 307 -105q104 -106 73 -277q-18 -104 -95 -192q-78 -87 -186 -123q145 -25 219 -124q72 -100 47 -243q-30 -171 -157 -277q-128 -107 -303 -107q-119 0 -208 53.5t-129 144.5l137 87
q31 -65 89.5 -103.5t136.5 -38.5q103 0 179 67q75 65 95 171q22 130 -61 203q-85 73 -248 73q-38 0 -89 -3l25 144q153 0 260 74q106 73 127 193q19 109 -50 175t-201 66q-141 0 -244 -86q-103 -87 -129 -228z" />
    <glyph glyph-name="agrave" unicode="&#xe0;" horiz-adv-x="1105" 
d="M478 -20q-170 0 -261 78t-67 216q24 134 155 218t318 84q140 0 263 -56l12 70q19 111 -44 177q-63 65 -182 65q-176 0 -322 -142l-86 98q80 88 198 140q117 52 235 52q195 0 294 -102q98 -104 67 -275l-106 -603h-156l26 146q-60 -76 -151.5 -121t-192.5 -45zM312 277
q-14 -77 41.5 -121.5t158.5 -44.5q129 0 230 84t120 193q-41 28 -112 46q-73 17 -141 17q-119 0 -200 -45q-82 -46 -97 -129zM788 1121h-139l-129 334h180z" />
    <glyph glyph-name="aacute" unicode="&#xe1;" horiz-adv-x="1105" 
d="M478 -20q-170 0 -261 78t-67 216q24 134 155 218t318 84q140 0 263 -56l12 70q19 111 -44 177q-63 65 -182 65q-176 0 -322 -142l-86 98q80 88 198 140q117 52 235 52q195 0 294 -102q98 -104 67 -275l-106 -603h-156l26 146q-60 -76 -151.5 -121t-192.5 -45zM312 277
q-14 -77 41.5 -121.5t158.5 -44.5q129 0 230 84t120 193q-41 28 -112 46q-73 17 -141 17q-119 0 -200 -45q-82 -46 -97 -129zM812 1113h-139l206 334h180z" />
    <glyph glyph-name="acircumflex" unicode="&#xe2;" horiz-adv-x="1105" 
d="M478 -20q-170 0 -261 78t-67 216q24 134 155 218t318 84q140 0 263 -56l12 70q19 111 -44 177q-63 65 -182 65q-176 0 -322 -142l-86 98q80 88 198 140q117 52 235 52q195 0 294 -102q98 -104 67 -275l-106 -603h-156l26 146q-60 -76 -151.5 -121t-192.5 -45zM312 277
q-14 -77 41.5 -121.5t158.5 -44.5q129 0 230 84t120 193q-41 28 -112 46q-73 17 -141 17q-119 0 -200 -45q-82 -46 -97 -129zM555 1084h-156l340 369h73l210 -369h-156l-116 221z" />
    <glyph glyph-name="atilde" unicode="&#xe3;" horiz-adv-x="1105" 
d="M478 -20q-170 0 -261 78t-67 216q24 134 155 218t318 84q140 0 263 -56l12 70q19 111 -44 177q-63 65 -182 65q-176 0 -322 -142l-86 98q80 88 198 140q117 52 235 52q195 0 294 -102q98 -104 67 -275l-106 -603h-156l26 146q-60 -76 -151.5 -121t-192.5 -45zM312 277
q-14 -77 41.5 -121.5t158.5 -44.5q129 0 230 84t120 193q-41 28 -112 46q-73 17 -141 17q-119 0 -200 -45q-82 -46 -97 -129zM477 1174l-72 71q116 143 233 143q39 1 82 -20t82 -42t68 -20q40 0 71.5 18t74.5 63l68 -76q-59 -71 -114.5 -104t-121.5 -33q-47 -2 -123.5 39.5
t-105.5 39.5q-37 0 -65.5 -16.5t-76.5 -62.5z" />
    <glyph glyph-name="adieresis" unicode="&#xe4;" horiz-adv-x="1105" 
d="M478 -20q-170 0 -261 78t-67 216q24 134 155 218t318 84q140 0 263 -56l12 70q19 111 -44 177q-63 65 -182 65q-176 0 -322 -142l-86 98q80 88 198 140q117 52 235 52q195 0 294 -102q98 -104 67 -275l-106 -603h-156l26 146q-60 -76 -151.5 -121t-192.5 -45zM312 277
q-14 -77 41.5 -121.5t158.5 -44.5q129 0 230 84t120 193q-41 28 -112 46q-73 17 -141 17q-119 0 -200 -45q-82 -46 -97 -129zM901 1181q-44 0 -66.5 28t-14.5 71q7 43 39.5 70.5t76.5 27.5t66.5 -27.5t15.5 -70.5q-8 -44 -41 -71.5t-76 -27.5zM549 1181q-43 0 -65.5 27.5
t-14.5 71.5q7 43 39 70.5t76 27.5t67 -27.5t16 -70.5q-8 -43 -41 -71t-77 -28z" />
    <glyph glyph-name="aring" unicode="&#xe5;" horiz-adv-x="1105" 
d="M478 -20q-170 0 -261 78t-67 216q24 134 155 218t318 84q140 0 263 -56l12 70q19 111 -44 177q-63 65 -182 65q-176 0 -322 -142l-86 98q80 88 198 140q117 52 235 52q195 0 294 -102q98 -104 67 -275l-106 -603h-156l26 146q-60 -76 -151.5 -121t-192.5 -45zM312 277
q-14 -77 41.5 -121.5t158.5 -44.5q129 0 230 84t120 193q-41 28 -112 46q-73 17 -141 17q-119 0 -200 -45q-82 -46 -97 -129zM894 1147q-70 -57 -162 -57t-142 57q-50 58 -35 143q16 88 86 146q71 57 162 57q93 0 142 -57q50 -59 34 -146q-15 -87 -85 -143zM664 1290
q-8 -44 16 -72t70 -28q45 0 78 28t41 72q8 45 -15 74.5t-68 29.5t-79.5 -29.5t-42.5 -74.5z" />
    <glyph glyph-name="ae" unicode="&#xe6;" horiz-adv-x="1833" 
d="M482 -20q-172 0 -263 78q-92 78 -68 216q22 133 155 216q131 82 322 82q145 0 265 -52l12 70q19 111 -45 177q-65 65 -184 65q-177 0 -325 -142l-86 98q80 87 200 140q117 52 236 52q131 0 218 -52t117 -148q83 94 192 147t227 53q88 0 164 -31.5t129 -88t75.5 -143
t4.5 -188.5q-11 -63 -20 -88h-771q-16 -134 59 -225q73 -91 216 -91q183 0 321 161l106 -88q-81 -100 -202 -160q-119 -58 -251 -58q-129 0 -225 59.5t-142 164.5q-82 -107 -193.5 -165.5t-243.5 -58.5zM313 277q-14 -77 42 -121.5t161 -44.5q131 0 233 84q101 84 120 193
q-45 28 -114 44q-73 17 -143 17q-120 0 -202 -45t-97 -127zM1430 835q-123 0 -224 -73q-103 -74 -140 -190h611q13 117 -57 190t-190 73z" />
    <glyph glyph-name="ccedilla" unicode="&#xe7;" horiz-adv-x="1120" 
d="M427 -187l96 173q-184 25 -280 165q-97 139 -63 329q37 210 210 356q172 144 387 144q145 0 249 -67.5t146 -188.5l-141 -78q-36 90 -107.5 138t-172.5 48q-147 0 -267 -102q-120 -103 -145 -250q-26 -150 56 -250q83 -102 233 -102q98 0 188 48.5t151 132.5l114 -78
q-77 -110 -199 -177q-125 -69 -257 -73l-39 -78q93 -7 140 -51t35 -115q-16 -86 -93.5 -135t-198.5 -49q-80 0 -131 20l20 114q50 -19 120 -19q129 0 141 70q7 37 -27 56t-106 19h-59z" />
    <glyph glyph-name="egrave" unicode="&#xe8;" horiz-adv-x="1150" 
d="M594 -20q-139 -2 -244 65t-150.5 183t-18.5 252q37 209 207 355q169 145 375 145q185 0 301 -119q55 -58 77.5 -144.5t4.5 -187.5q-11 -63 -20 -88h-791q-16 -134 62 -225q76 -91 223 -91q190 0 331 161l106 -88q-83 -101 -206 -160q-122 -58 -257 -58zM738 835
q-127 0 -230 -73q-105 -74 -144 -190h631q13 117 -60 190t-197 73zM848 1121h-139l-129 334h180z" />
    <glyph glyph-name="eacute" unicode="&#xe9;" horiz-adv-x="1150" 
d="M594 -20q-139 -2 -244 65t-150.5 183t-18.5 252q37 209 207 355q169 145 375 145q185 0 301 -119q55 -58 77.5 -144.5t4.5 -187.5q-11 -63 -20 -88h-791q-16 -134 62 -225q76 -91 223 -91q190 0 331 161l106 -88q-83 -101 -206 -160q-122 -58 -257 -58zM364 572h631
q13 117 -60 190t-197 73q-127 0 -230 -73q-105 -74 -144 -190zM859 1113h-139l206 334h180z" />
    <glyph glyph-name="ecircumflex" unicode="&#xea;" horiz-adv-x="1150" 
d="M594 -20q-139 -2 -244 65t-150.5 183t-18.5 252q37 209 207 355q169 145 375 145q185 0 301 -119q55 -58 77.5 -144.5t4.5 -187.5q-11 -63 -20 -88h-791q-16 -134 62 -225q76 -91 223 -91q190 0 331 161l106 -88q-83 -101 -206 -160q-122 -58 -257 -58zM738 835
q-127 0 -230 -73q-105 -74 -144 -190h631q13 117 -60 190t-197 73zM611 1084h-156l340 369h73l210 -369h-156l-116 221z" />
    <glyph glyph-name="edieresis" unicode="&#xeb;" horiz-adv-x="1150" 
d="M594 -20q-139 -2 -244 65t-150.5 183t-18.5 252q37 209 207 355q169 145 375 145q185 0 301 -119q55 -58 77.5 -144.5t4.5 -187.5q-11 -63 -20 -88h-791q-16 -134 62 -225q76 -91 223 -91q190 0 331 161l106 -88q-83 -101 -206 -160q-122 -58 -257 -58zM364 572h631
q13 117 -60 190t-197 73q-127 0 -230 -73q-105 -74 -144 -190zM959 1181q-44 0 -66.5 28t-14.5 71q7 43 39.5 70.5t76.5 27.5t66.5 -27.5t15.5 -70.5q-8 -44 -41 -71.5t-76 -27.5zM607 1181q-43 0 -65.5 27.5t-14.5 71.5q7 43 39 70.5t76 27.5t67 -27.5t16 -70.5
q-8 -43 -41 -71t-77 -28z" />
    <glyph glyph-name="igrave" unicode="&#xec;" horiz-adv-x="491" 
d="M325 0h-159l169 960h159zM366 1121l-129 334h180l88 -334h-139z" />
    <glyph glyph-name="iacute" unicode="&#xed;" horiz-adv-x="491" 
d="M325 0h-159l169 960h159zM577 1447h180l-247 -334h-139z" />
    <glyph glyph-name="icircumflex" unicode="&#xee;" horiz-adv-x="491" 
d="M325 0h-159l169 960h159zM281 1084h-156l340 369h73l210 -369h-156l-116 221z" />
    <glyph glyph-name="idieresis" unicode="&#xef;" horiz-adv-x="491" 
d="M325 0h-159l169 960h159zM629 1181q-44 0 -66.5 28t-14.5 71q7 43 39.5 70.5t76.5 27.5t66.5 -27.5t15.5 -70.5q-8 -44 -41 -71.5t-76 -27.5zM277 1181q-43 0 -65.5 27.5t-14.5 71.5q7 43 39 70.5t76 27.5t67 -27.5t16 -70.5q-8 -43 -41 -71t-77 -28z" />
    <glyph glyph-name="eth" unicode="&#xf0;" horiz-adv-x="1170" 
d="M574 -20q-214 0 -323 129q-111 128 -75 334t188 335q152 128 358 128q105 0 180 -42q74 -43 106 -102q1 113 -44 224t-133 199l-269 -177l-61 111l228 149q-81 54 -174 85l101 127q120 -44 217 -117l222 145l56 -112l-182 -120q127 -136 174.5 -325t8.5 -412
q-45 -255 -204 -407q-161 -152 -374 -152zM335 443q-25 -139 47 -227q70 -88 210 -88t241 88q101 86 127 227q26 143 -45 232q-70 88 -211 88q-138 0 -241 -89q-102 -87 -128 -231z" />
    <glyph glyph-name="ntilde" unicode="&#xf1;" horiz-adv-x="1205" 
d="M421 542l-96 -542h-159l169 960h160l-25 -144q56 72 149 118q91 46 201 46q190 0 279 -105q89 -107 56 -291l-103 -584h-159l96 545q25 138 -32 211.5t-189 73.5q-125 0 -225 -80q-99 -78 -122 -208zM563 1174l-72 71q116 143 233 143q39 1 82 -20t82 -42t68 -20
q40 0 71.5 18t74.5 63l68 -76q-59 -71 -114.5 -104t-121.5 -33q-47 -2 -123.5 39.5t-105.5 39.5q-37 0 -65.5 -16.5t-76.5 -62.5z" />
    <glyph glyph-name="ograve" unicode="&#xf2;" horiz-adv-x="1210" 
d="M601 -20q-141 -2 -248 65t-153.5 183t-19.5 252q38 213 209 356q171 144 389 144q141 2 248 -65t153.5 -183t20.5 -252q-38 -212 -209 -356q-173 -144 -390 -144zM483 731q-118 -102 -144 -251q-26 -150 56 -250q83 -102 233 -102t269 102q118 100 144 250t-56 251
q-83 101 -233 101t-269 -101zM860 1121h-139l-129 334h180z" />
    <glyph glyph-name="oacute" unicode="&#xf3;" horiz-adv-x="1210" 
d="M601 -20q-141 -2 -248 65t-153.5 183t-19.5 252q38 213 209 356q171 144 389 144q141 2 248 -65t153.5 -183t20.5 -252q-38 -212 -209 -356q-173 -144 -390 -144zM483 731q-118 -102 -144 -251q-26 -150 56 -250q83 -102 233 -102t269 102q118 100 144 250t-56 251
q-83 101 -233 101t-269 -101zM870 1113h-139l206 334h180z" />
    <glyph glyph-name="ocircumflex" unicode="&#xf4;" horiz-adv-x="1210" 
d="M601 -20q-141 -2 -248 65t-153.5 183t-19.5 252q38 213 209 356q171 144 389 144q141 2 248 -65t153.5 -183t20.5 -252q-38 -212 -209 -356q-173 -144 -390 -144zM483 731q-118 -102 -144 -251q-26 -150 56 -250q83 -102 233 -102t269 102q118 100 144 250t-56 251
q-83 101 -233 101t-269 -101zM641 1084h-156l340 369h73l210 -369h-156l-116 221z" />
    <glyph glyph-name="otilde" unicode="&#xf5;" horiz-adv-x="1210" 
d="M601 -20q-141 -2 -248 65t-153.5 183t-19.5 252q38 213 209 356q171 144 389 144q141 2 248 -65t153.5 -183t20.5 -252q-38 -212 -209 -356q-173 -144 -390 -144zM483 731q-118 -102 -144 -251q-26 -150 56 -250q83 -102 233 -102t269 102q118 100 144 250t-56 251
q-83 101 -233 101t-269 -101zM563 1174l-72 71q116 143 233 143q39 1 82 -20t82 -42t68 -20q40 0 71.5 18t74.5 63l68 -76q-59 -71 -114.5 -104t-121.5 -33q-47 -2 -123.5 39.5t-105.5 39.5q-37 0 -65.5 -16.5t-76.5 -62.5z" />
    <glyph glyph-name="odieresis" unicode="&#xf6;" horiz-adv-x="1210" 
d="M601 -20q-141 -2 -248 65t-153.5 183t-19.5 252q38 213 209 356q171 144 389 144q141 2 248 -65t153.5 -183t20.5 -252q-38 -212 -209 -356q-173 -144 -390 -144zM483 731q-118 -102 -144 -251q-26 -150 56 -250q83 -102 233 -102t269 102q118 100 144 250t-56 251
q-83 101 -233 101t-269 -101zM989 1181q-44 0 -66.5 28t-14.5 71q7 43 39.5 70.5t76.5 27.5t66.5 -27.5t15.5 -70.5q-8 -44 -41 -71.5t-76 -27.5zM637 1181q-43 0 -65.5 27.5t-14.5 71.5q7 43 39 70.5t76 27.5t67 -27.5t16 -70.5q-8 -43 -41 -71t-77 -28z" />
    <glyph glyph-name="divide" unicode="&#xf7;" horiz-adv-x="1283" 
d="M1261 600h-1027l28 158h1027zM894 1011q-32 -28 -77 -28q-44 0 -66 28q-22 27 -15 70q8 44 40.5 71.5t75.5 27.5q44 0 66.5 -28t15.5 -71q-7 -42 -40 -70zM676 181q-44 0 -66.5 28t-15.5 71q8 43 40.5 70.5t76.5 27.5t66.5 -27.5t14.5 -70.5q-8 -44 -40.5 -71.5
t-75.5 -27.5z" />
    <glyph glyph-name="oslash" unicode="&#xf8;" horiz-adv-x="1210" 
d="M1030 912l189 191l90 -85l-187 -189q114 -143 78 -349q-38 -212 -209 -356q-173 -144 -390 -144q-147 0 -253 69l-189 -190l-88 83l186 189q-113 143 -77 349q38 213 209 356q171 144 389 144q143 0 252 -68zM1002 708l-536 -539q71 -41 162 -41q150 0 269 102
q118 100 144 250q24 130 -39 228zM378 253l534 539q-68 40 -160 40q-150 0 -269 -101q-118 -102 -144 -251q-23 -132 39 -227z" />
    <glyph glyph-name="ugrave" unicode="&#xf9;" horiz-adv-x="1201" 
d="M550 -20q-186 0 -275 105q-88 104 -56 290l103 585h158l-96 -546q-25 -138 31.5 -211t186.5 -73q128 0 226 79q100 80 122 208l95 543h159l-169 -960h-159l25 144q-56 -74 -149.5 -119t-201.5 -45zM727 1121l-129 334h180l88 -334h-139z" />
    <glyph glyph-name="uacute" unicode="&#xfa;" horiz-adv-x="1201" 
d="M550 -20q-186 0 -275 105q-88 104 -56 290l103 585h158l-96 -546q-25 -138 31.5 -211t186.5 -73q128 0 226 79q100 80 122 208l95 543h159l-169 -960h-159l25 144q-56 -74 -149.5 -119t-201.5 -45zM850 1113h-139l206 334h180z" />
    <glyph glyph-name="ucircumflex" unicode="&#xfb;" horiz-adv-x="1201" 
d="M550 -20q-186 0 -275 105q-88 104 -56 290l103 585h158l-96 -546q-25 -138 31.5 -211t186.5 -73q128 0 226 79q100 80 122 208l95 543h159l-169 -960h-159l25 144q-56 -74 -149.5 -119t-201.5 -45zM817 1305l-195 -221h-156l340 369h73l210 -369h-156z" />
    <glyph glyph-name="udieresis" unicode="&#xfc;" horiz-adv-x="1201" 
d="M550 -20q-186 0 -275 105q-88 104 -56 290l103 585h158l-96 -546q-25 -138 31.5 -211t186.5 -73q128 0 226 79q100 80 122 208l95 543h159l-169 -960h-159l25 144q-56 -74 -149.5 -119t-201.5 -45zM969 1181q-44 0 -66.5 28t-14.5 71q7 43 39.5 70.5t76.5 27.5
t66.5 -27.5t15.5 -70.5q-8 -44 -41 -71.5t-76 -27.5zM617 1181q-43 0 -65.5 27.5t-14.5 71.5q7 43 39 70.5t76 27.5t67 -27.5t16 -70.5q-8 -43 -41 -71t-77 -28z" />
    <glyph glyph-name="yacute" unicode="&#xfd;" horiz-adv-x="1072" 
d="M-17 -387l43 135q54 -26 131 -26q80 0 144 50t122 156l25 45l-241 987h173l186 -804l462 804h175l-644 -1082q-90 -154 -184 -226q-95 -72 -234 -72q-101 0 -158 33zM1041 1447l-247 -334h-139l206 334h180z" />
    <glyph glyph-name="thorn" unicode="&#xfe;" horiz-adv-x="1276" 
d="M353 158l-99 -558h-159l319 1809h159l-106 -606q73 83 176.5 130t224.5 47q207 0 321 -141q113 -141 75 -356q-37 -216 -202 -359q-164 -144 -371 -144q-121 0 -207.5 47t-130.5 131zM408 483q-26 -152 58 -255q83 -104 235 -104q147 0 263 104q115 103 142 255
q27 151 -52 252q-80 101 -228 101q-154 0 -272 -102q-120 -102 -146 -251z" />
    <glyph glyph-name="ydieresis" unicode="&#xff;" horiz-adv-x="1072" 
d="M-17 -387l43 135q54 -26 131 -26q80 0 144 50t122 156l25 45l-241 987h173l186 -804l462 804h175l-644 -1082q-90 -154 -184 -226q-95 -72 -234 -72q-101 0 -158 33zM899 1181q-44 0 -66.5 28t-14.5 71q7 43 39.5 70.5t76.5 27.5t66.5 -27.5t15.5 -70.5q-8 -44 -41 -71.5
t-76 -27.5zM547 1181q-43 0 -65.5 27.5t-14.5 71.5q7 43 39 70.5t76 27.5t67 -27.5t16 -70.5q-8 -43 -41 -71t-77 -28z" />
    <glyph glyph-name="Amacron" unicode="&#x100;" horiz-adv-x="1365" 
d="M198 0h-174l800 1358h194l323 -1358h-175l-70 315h-715zM1068 456l-177 730l-434 -730h611zM1251 1546h-591l22 125h591z" />
    <glyph glyph-name="amacron" unicode="&#x101;" horiz-adv-x="1105" 
d="M478 -20q-170 0 -261 78t-67 216q24 134 155 218t318 84q140 0 263 -56l12 70q19 111 -44 177q-63 65 -182 65q-176 0 -322 -142l-86 98q80 88 198 140q117 52 235 52q195 0 294 -102q98 -104 67 -275l-106 -603h-156l26 146q-60 -76 -151.5 -121t-192.5 -45zM312 277
q-14 -77 41.5 -121.5t158.5 -44.5q129 0 230 84t120 193q-41 28 -112 46q-73 17 -141 17q-119 0 -200 -45q-82 -46 -97 -129zM1060 1335l-22 -125h-591l22 125h591z" />
    <glyph glyph-name="Abreve" unicode="&#x102;" horiz-adv-x="1365" 
d="M198 0h-174l800 1358h194l323 -1358h-175l-70 315h-715zM891 1186l-434 -730h611zM1150 1565q-88 -73 -204 -73q-117 0 -178 73q-62 74 -47 195h136q-5 -66 25 -105.5t86 -39.5q58 0 101.5 39.5t59.5 105.5h136q-29 -122 -115 -195z" />
    <glyph glyph-name="abreve" unicode="&#x103;" horiz-adv-x="1105" 
d="M478 -20q-170 0 -261 78t-67 216q24 134 155 218t318 84q140 0 263 -56l12 70q19 111 -44 177q-63 65 -182 65q-176 0 -322 -142l-86 98q80 88 198 140q117 52 235 52q195 0 294 -102q98 -104 67 -275l-106 -603h-156l26 146q-60 -76 -151.5 -121t-192.5 -45zM312 277
q-14 -77 41.5 -121.5t158.5 -44.5q129 0 230 84t120 193q-41 28 -112 46q-73 17 -141 17q-119 0 -200 -45q-82 -46 -97 -129zM931 1208q-88 -73 -204 -73q-117 0 -178 73q-62 74 -47 195h136q-5 -66 25 -105.5t86 -39.5q57 0 101 39.5t60 105.5h136q-29 -122 -115 -195z" />
    <glyph glyph-name="Aogonek" unicode="&#x104;" horiz-adv-x="1365" 
d="M198 0h-174l800 1358h194l323 -1358h-24q-104 -61 -167 -120.5t-71 -106.5q-8 -41 16 -64t75 -23q56 0 124 30l18 -117q-82 -46 -188 -46q-105 0 -156 50.5t-36 137.5q24 142 234 259l-70 315h-715zM1068 456l-177 730l-434 -730h611z" />
    <glyph glyph-name="aogonek" unicode="&#x105;" horiz-adv-x="1105" 
d="M478 -20q-170 0 -261 78t-67 216q24 134 155 218t318 84q140 0 263 -56l12 70q19 111 -44 177q-63 65 -182 65q-176 0 -322 -142l-86 98q80 88 198 140q117 52 235 52q195 0 294 -102q98 -104 67 -275l-106 -603h-5q-104 -61 -167 -120.5t-71 -106.5q-8 -41 16 -64
t75 -23q56 0 124 30l18 -117q-82 -46 -188 -46q-105 0 -156 50.5t-36 137.5q24 142 234 259l26 146q-60 -76 -151.5 -121t-192.5 -45zM312 277q-14 -77 41.5 -121.5t158.5 -44.5q129 0 230 84t120 193q-41 28 -112 46q-73 17 -141 17q-119 0 -200 -45q-82 -46 -97 -129z" />
    <glyph glyph-name="Cacute" unicode="&#x106;" horiz-adv-x="1463" 
d="M800 -20q-143 0 -264 53t-199 147q-79 94 -110.5 224t-5.5 275q25 147 104 278q76 129 187 222q109 93 249 146t281 53q181 0 319.5 -83.5t214.5 -235.5l-146 -94q-129 258 -415 258q-222 0 -401 -155q-180 -157 -220 -389q-29 -151 20.5 -278t160 -198.5t253.5 -68.5
q291 0 513 254l109 -89q-122 -148 -294 -233q-174 -86 -356 -86zM1400 1807l-247 -334h-139l206 334h180z" />
    <glyph glyph-name="cacute" unicode="&#x107;" horiz-adv-x="1120" 
d="M601 -20q-140 -2 -247 65.5t-154 183.5t-20 251q37 210 210 356q172 144 387 144q145 0 249 -67.5t146 -188.5l-141 -78q-36 90 -107.5 138t-172.5 48q-147 0 -267 -102q-120 -103 -145 -250q-26 -150 56 -250q83 -102 233 -102q98 0 188 48.5t151 132.5l114 -78
q-80 -116 -209 -183q-131 -68 -271 -68zM869 1113h-139l206 334h180z" />
    <glyph glyph-name="Ccircumflex" unicode="&#x108;" horiz-adv-x="1463" 
d="M800 -20q-143 0 -264 53t-199 147q-79 94 -110.5 224t-5.5 275q25 147 104 278q76 129 187 222q109 93 249 146t281 53q181 0 319.5 -83.5t214.5 -235.5l-146 -94q-129 258 -415 258q-222 0 -401 -155q-180 -157 -220 -389q-29 -151 20.5 -278t160 -198.5t253.5 -68.5
q291 0 513 254l109 -89q-122 -148 -294 -233q-174 -86 -356 -86zM909 1471h-156l340 369h73l210 -369h-156l-116 221z" />
    <glyph glyph-name="ccircumflex" unicode="&#x109;" horiz-adv-x="1120" 
d="M601 -20q-140 -2 -247 65.5t-154 183.5t-20 251q37 210 210 356q172 144 387 144q145 0 249 -67.5t146 -188.5l-141 -78q-36 90 -107.5 138t-172.5 48q-147 0 -267 -102q-120 -103 -145 -250q-26 -150 56 -250q83 -102 233 -102q98 0 188 48.5t151 132.5l114 -78
q-80 -116 -209 -183q-131 -68 -271 -68zM623 1084h-156l340 369h73l210 -369h-156l-116 221z" />
    <glyph glyph-name="Cdotaccent" unicode="&#x10a;" horiz-adv-x="1463" 
d="M800 -20q-143 0 -264 53t-199 147q-79 94 -110.5 224t-5.5 275q25 147 104 278q76 129 187 222q109 93 249 146t281 53q181 0 319.5 -83.5t214.5 -235.5l-146 -94q-129 258 -415 258q-222 0 -401 -155q-180 -157 -220 -389q-29 -151 20.5 -278t160 -198.5t253.5 -68.5
q291 0 513 254l109 -89q-122 -148 -294 -233q-174 -86 -356 -86zM1066 1517q-43 0 -65.5 27.5t-14.5 71.5q7 43 39 70.5t76 27.5q45 0 67 -27q23 -29 16 -71q-7 -43 -40 -71q-34 -28 -78 -28z" />
    <glyph glyph-name="cdotaccent" unicode="&#x10b;" horiz-adv-x="1120" 
d="M601 -20q-140 -2 -247 65.5t-154 183.5t-20 251q37 210 210 356q172 144 387 144q145 0 249 -67.5t146 -188.5l-141 -78q-36 90 -107.5 138t-172.5 48q-147 0 -267 -102q-120 -103 -145 -250q-26 -150 56 -250q83 -102 233 -102q98 0 188 48.5t151 132.5l114 -78
q-80 -116 -209 -183q-131 -68 -271 -68zM813 1183q-43 0 -66 27.5t-15 71.5q7 43 39 70.5t76 27.5q45 0 67 -27q23 -29 16 -71q-7 -43 -40 -71q-32 -28 -77 -28z" />
    <glyph glyph-name="Ccaron" unicode="&#x10c;" horiz-adv-x="1463" 
d="M800 -20q-143 0 -264 53t-199 147q-79 94 -110.5 224t-5.5 275q25 147 104 278q76 129 187 222q109 93 249 146t281 53q181 0 319.5 -83.5t214.5 -235.5l-146 -94q-129 258 -415 258q-222 0 -401 -155q-180 -157 -220 -389q-29 -151 20.5 -278t160 -198.5t253.5 -68.5
q291 0 513 254l109 -89q-122 -148 -294 -233q-174 -86 -356 -86zM1021 1474l-210 369h156l115 -222l196 222h156l-340 -369h-73z" />
    <glyph glyph-name="ccaron" unicode="&#x10d;" horiz-adv-x="1120" 
d="M601 -20q-140 -2 -247 65.5t-154 183.5t-20 251q37 210 210 356q172 144 387 144q145 0 249 -67.5t146 -188.5l-141 -78q-36 90 -107.5 138t-172.5 48q-147 0 -267 -102q-120 -103 -145 -250q-26 -150 56 -250q83 -102 233 -102q98 0 188 48.5t151 132.5l114 -78
q-80 -116 -209 -183q-131 -68 -271 -68zM750 1089l-210 369h156l115 -222l196 222h156l-340 -369h-73z" />
    <glyph glyph-name="Dcaron" unicode="&#x10e;" horiz-adv-x="1531" 
d="M730 0h-540l239 1358h540q195 3 341.5 -86.5t210.5 -247t28 -346.5q-35 -194 -151 -348q-120 -156 -293 -242q-175 -88 -375 -88zM568 1207l-186 -1056h375q234 0 406 151q173 150 213 376q40 225 -80 377q-120 149 -353 151zM889 1474l-210 369h156l115 -222l196 222
h156l-340 -369h-73z" />
    <glyph glyph-name="dcaron" unicode="&#x10f;" horiz-adv-x="1331" 
d="M1583 1018h-130l69 392h169zM577 -20q-133 -2 -233.5 64t-144.5 182.5t-17 255.5q37 212 198.5 355t373.5 143q121 0 208 -47.5t130 -130.5l107 606h159l-248 -1408h-159l28 156q-73 -82 -177 -129t-225 -47zM340 482q-27 -151 52 -254q80 -104 227 -104
q153 0 272.5 103.5t146.5 254.5q26 150 -57 252q-84 102 -237 102q-151 0 -264 -101.5t-140 -252.5z" />
    <glyph glyph-name="Dcroat" unicode="&#x110;" horiz-adv-x="1521" 
d="M180 0l110 624h-152l25 144h152l104 590h540q195 3 341.5 -86.5t210.5 -247t28 -346.5q-35 -195 -152.5 -350t-292.5 -241.5t-374 -86.5h-540zM962 768l-25 -144h-482l-83 -473h375q232 0 405 149t214 378q40 225 -80 377q-120 149 -353 151l-375 1l-77 -439h481z" />
    <glyph glyph-name="dcroat" unicode="&#x111;" horiz-adv-x="1305" 
d="M577 -20q-133 -2 -233.5 64t-144.5 182.5t-17 255.5q37 212 198.5 355t373.5 143q121 0 208 -47.5t130 -130.5l56 318h-336l24 136h336l27 152h159l-27 -152h147l-24 -136h-147l-197 -1120h-159l28 156q-73 -82 -177 -129t-225 -47zM340 482q-27 -151 52 -254
q80 -104 227 -104q153 0 272.5 103.5t146.5 254.5q26 150 -57 252q-84 102 -237 102q-151 0 -264 -101.5t-140 -252.5z" />
    <glyph glyph-name="Emacron" unicode="&#x112;" horiz-adv-x="1246" 
d="M1260 1671l-22 -125h-591l22 125h591zM1171 149l-26 -149h-955l239 1358h934l-26 -150h-769l-77 -435h664l-26 -150h-664l-84 -474h790z" />
    <glyph glyph-name="emacron" unicode="&#x113;" horiz-adv-x="1150" 
d="M1086 1210h-591l22 125h591zM594 -20q-139 -2 -244 65t-150.5 183t-18.5 252q37 208 204.5 354t377.5 146q185 0 301 -119q55 -58 77.5 -144.5t4.5 -187.5q-11 -63 -20 -88h-791q-16 -134 62 -225q76 -91 223 -91q190 0 331 161l106 -88q-85 -103 -207 -160.5t-256 -57.5
zM738 835q-126 0 -230.5 -72.5t-143.5 -190.5h631q13 117 -60 190t-197 73z" />
    <glyph glyph-name="Ebreve" unicode="&#x114;" horiz-adv-x="1246" 
d="M1253 1760q-28 -120 -113.5 -194t-205.5 -74q-117 0 -178 73q-62 74 -47 195h136q-5 -66 25 -105.5t86 -39.5q58 0 101.5 39.5t59.5 105.5h136zM1145 0h-955l239 1358h934l-26 -150h-769l-77 -435h664l-26 -150h-664l-84 -474h790z" />
    <glyph glyph-name="ebreve" unicode="&#x115;" horiz-adv-x="1150" 
d="M1094 1403q-28 -120 -113.5 -194t-205.5 -74q-117 0 -178 73q-62 74 -47 195h136q-5 -66 25 -105.5t86 -39.5q57 0 101 39.5t60 105.5h136zM594 -20q-139 -2 -244 65t-150.5 183t-18.5 252q37 208 204.5 354t377.5 146q185 0 301 -119q55 -58 77.5 -144.5t4.5 -187.5
q-11 -63 -20 -88h-791q-16 -134 62 -225q76 -91 223 -91q190 0 331 161l106 -88q-85 -103 -207 -160.5t-256 -57.5zM738 835q-126 0 -230.5 -72.5t-143.5 -190.5h631q13 117 -60 190t-197 73z" />
    <glyph glyph-name="Edotaccent" unicode="&#x116;" horiz-adv-x="1246" 
d="M939 1517q-43 0 -65.5 27.5t-14.5 71.5q7 43 39 70.5t76 27.5q45 0 67 -27q23 -29 16 -71q-7 -44 -40.5 -71.5t-77.5 -27.5zM1171 149l-26 -149h-955l239 1358h934l-26 -150h-769l-77 -435h664l-26 -150h-664l-84 -474h790z" />
    <glyph glyph-name="edotaccent" unicode="&#x117;" horiz-adv-x="1150" 
d="M794 1183q-43 0 -66 27.5t-15 71.5q7 43 39 70.5t76 27.5t67 -27q23 -29 16 -71q-8 -44 -40.5 -71.5t-76.5 -27.5zM594 -20q-139 -2 -244 65t-150.5 183t-18.5 252q37 208 204.5 354t377.5 146q185 0 301 -119q55 -58 77.5 -144.5t4.5 -187.5q-11 -63 -20 -88h-791
q-16 -134 62 -225q76 -91 223 -91q190 0 331 161l106 -88q-85 -103 -207 -160.5t-256 -57.5zM738 835q-126 0 -230.5 -72.5t-143.5 -190.5h631q13 117 -60 190t-197 73z" />
    <glyph glyph-name="Eogonek" unicode="&#x118;" horiz-adv-x="1246" 
d="M994 0h-804l239 1358h934l-26 -150h-769l-77 -435h664l-26 -150h-664l-84 -474h790l-26 -149q-104 -61 -167 -120.5t-71 -106.5q-8 -41 16 -64t75 -23q56 0 124 30l18 -117q-82 -46 -188 -46q-105 0 -156 50.5t-36 137.5q24 142 234 259z" />
    <glyph glyph-name="eogonek" unicode="&#x119;" horiz-adv-x="1150" 
d="M564 -19q-199 7 -311 153t-72 346q37 208 204.5 354t377.5 146q185 0 301 -119q55 -58 77.5 -144.5t4.5 -187.5q-11 -63 -20 -88h-791q-16 -134 62 -225q76 -91 223 -91q190 0 331 161l106 -88q-121 -148 -310 -198q-104 -61 -167 -120.5t-71 -106.5q-8 -41 16 -64
t75 -23q56 0 124 30l18 -117q-82 -46 -188 -46q-105 0 -156 50.5t-36 137.5q22 128 202 240zM738 835q-126 0 -230.5 -72.5t-143.5 -190.5h631q13 117 -60 190t-197 73z" />
    <glyph glyph-name="Ecaron" unicode="&#x11a;" horiz-adv-x="1246" 
d="M889 1474l-210 369h156l115 -222l196 222h156l-340 -369h-73zM1171 149l-26 -149h-955l239 1358h934l-26 -150h-769l-77 -435h664l-26 -150h-664l-84 -474h790z" />
    <glyph glyph-name="ecaron" unicode="&#x11b;" horiz-adv-x="1150" 
d="M731 1089l-210 369h156l115 -222l196 222h156l-340 -369h-73zM594 -20q-139 -2 -244 65t-150.5 183t-18.5 252q37 208 204.5 354t377.5 146q185 0 301 -119q55 -58 77.5 -144.5t4.5 -187.5q-11 -63 -20 -88h-791q-16 -134 62 -225q76 -91 223 -91q190 0 331 161l106 -88
q-85 -103 -207 -160.5t-256 -57.5zM738 835q-126 0 -230.5 -72.5t-143.5 -190.5h631q13 117 -60 190t-197 73z" />
    <glyph glyph-name="Gcircumflex" unicode="&#x11c;" horiz-adv-x="1546" 
d="M906 1471h-156l340 369h73l210 -369h-156l-116 221zM794 -20q-185 0 -331.5 88.5t-212.5 255.5q-63 161 -29 355t152 353.5t294.5 252t374.5 92.5q179 0 315.5 -80.5t209.5 -227.5l-145 -94q-128 248 -407 248q-152 0 -286 -73.5t-221.5 -197.5t-113.5 -273
q-29 -152 17 -278t155 -197.5t257 -69.5q109 0 204.5 34t164.5 94q135 119 184 277h-483l26 150h655q0 -3 -8 -62q-52 -285 -267 -466t-505 -181z" />
    <glyph glyph-name="gcircumflex" unicode="&#x11d;" horiz-adv-x="1276" 
d="M816 1305l-195 -221h-156l340 369h73l210 -369h-156zM516 -420q-134 0 -241.5 49t-169.5 140l124 104q111 -148 313 -148q161 0 277.5 83.5t143.5 237.5l20 112q-72 -82 -177 -130t-225 -48q-207 0 -320 144q-113 143 -75 359q24 138 104.5 251t204 179.5t263.5 66.5
q121 0 208 -47t131 -130l27 157h159l-157 -891q-40 -230 -206.5 -359.5t-403.5 -129.5zM344 483q-27 -152 52 -255q80 -104 227 -104q153 0 273 103.5t146 255.5q26 149 -57 251q-84 102 -237 102q-151 0 -264 -101.5t-140 -251.5z" />
    <glyph glyph-name="Gbreve" unicode="&#x11e;" horiz-adv-x="1546" 
d="M1375 1760q-28 -120 -113.5 -194t-205.5 -74q-117 0 -178 73q-62 74 -47 195h136q-5 -66 25 -105.5t86 -39.5q58 0 101.5 39.5t59.5 105.5h136zM794 -20q-185 0 -331.5 88.5t-212.5 255.5q-63 161 -29 355t152 353.5t294.5 252t374.5 92.5q179 0 315.5 -80.5
t209.5 -227.5l-145 -94q-128 248 -407 248q-152 0 -286 -73.5t-221.5 -197.5t-113.5 -273q-29 -152 17 -278t155 -197.5t257 -69.5q109 0 204.5 34t164.5 94q135 119 184 277h-483l26 150h655q0 -3 -8 -62q-52 -285 -267 -466t-505 -181z" />
    <glyph glyph-name="gbreve" unicode="&#x11f;" horiz-adv-x="1276" 
d="M1099 1403q-28 -120 -113.5 -194t-205.5 -74q-117 0 -178 73q-62 74 -47 195h136q-5 -66 25 -105.5t86 -39.5q58 0 101.5 39.5t59.5 105.5h136zM516 -420q-134 0 -241.5 49t-169.5 140l124 104q111 -148 313 -148q161 0 277.5 83.5t143.5 237.5l20 112q-72 -82 -177 -130
t-225 -48q-207 0 -320 144q-113 143 -75 359q24 138 104.5 251t204 179.5t263.5 66.5q121 0 208 -47t131 -130l27 157h159l-157 -891q-40 -230 -206.5 -359.5t-403.5 -129.5zM344 483q-27 -152 52 -255q80 -104 227 -104q153 0 273 103.5t146 255.5q26 149 -57 251
q-84 102 -237 102q-151 0 -264 -101.5t-140 -251.5z" />
    <glyph glyph-name="Gdotaccent" unicode="&#x120;" horiz-adv-x="1546" 
d="M1045 1517q-43 0 -65.5 27.5t-14.5 71.5q7 43 39 70.5t76 27.5t67 -27q23 -29 16 -71q-7 -44 -40.5 -71.5t-77.5 -27.5zM794 -20q-185 0 -331.5 88.5t-212.5 255.5q-63 161 -29 355t152 353.5t294.5 252t374.5 92.5q179 0 315.5 -80.5t209.5 -227.5l-145 -94
q-128 248 -407 248q-152 0 -286 -73.5t-221.5 -197.5t-113.5 -273q-29 -152 17 -278t155 -197.5t257 -69.5q109 0 204.5 34t164.5 94q135 119 184 277h-483l26 150h655q0 -3 -8 -62q-52 -285 -267 -466t-505 -181z" />
    <glyph glyph-name="gdotaccent" unicode="&#x121;" horiz-adv-x="1276" 
d="M780 1183q-43 0 -66 27.5t-15 71.5q7 43 39 70.5t76 27.5q45 0 67 -27q23 -29 16 -71q-8 -44 -40.5 -71.5t-76.5 -27.5zM516 -420q-134 0 -241.5 49t-169.5 140l124 104q111 -148 313 -148q161 0 277.5 83.5t143.5 237.5l20 112q-72 -82 -177 -130t-225 -48
q-207 0 -320 144q-113 143 -75 359q24 138 104.5 251t204 179.5t263.5 66.5q121 0 208 -47t131 -130l27 157h159l-157 -891q-40 -230 -206.5 -359.5t-403.5 -129.5zM344 483q-27 -152 52 -255q80 -104 227 -104q153 0 273 103.5t146 255.5q26 149 -57 251q-84 102 -237 102
q-151 0 -264 -101.5t-140 -251.5z" />
    <glyph glyph-name="uni0122" unicode="&#x122;" horiz-adv-x="1546" 
d="M794 -20q-185 0 -331.5 88.5t-212.5 255.5q-63 161 -29 355t152 353.5t294.5 252t374.5 92.5q179 0 315.5 -80.5t209.5 -227.5l-145 -94q-128 248 -407 248q-152 0 -286 -73.5t-221.5 -197.5t-113.5 -273q-29 -152 17 -278t155 -197.5t257 -69.5q109 0 204.5 34t164.5 94
q135 119 184 277h-483l26 150h655q0 -3 -8 -62q-52 -285 -267 -466t-505 -181zM875 -122l-121 -391h-132l82 391h171z" />
    <glyph glyph-name="uni0123" unicode="&#x123;" horiz-adv-x="1276" 
d="M1008 1501l-83 -391h-171l122 391h132zM516 -420q-134 0 -241.5 49t-169.5 140l124 104q111 -148 313 -148q161 0 277.5 83.5t143.5 237.5l20 112q-72 -82 -177 -130t-225 -48q-207 0 -320 144q-113 143 -75 359q24 138 104.5 251t204 179.5t263.5 66.5q121 0 208 -47
t131 -130l27 157h159l-157 -891q-40 -230 -206.5 -359.5t-403.5 -129.5zM344 483q-27 -152 52 -255q80 -104 227 -104q153 0 273 103.5t146 255.5q26 149 -57 251q-84 102 -237 102q-151 0 -264 -101.5t-140 -251.5z" />
    <glyph glyph-name="Hcircumflex" unicode="&#x124;" horiz-adv-x="1526" 
d="M1062 1692l-195 -221h-156l340 369h73l210 -369h-156zM464 621l-109 -621h-165l239 1358h165l-103 -587h816l103 587h165l-239 -1358h-165l109 621h-816z" />
    <glyph glyph-name="hcircumflex" unicode="&#x125;" horiz-adv-x="1203" 
d="M544 1710l-195 -221h-156l340 369h73l210 -369h-156zM421 542l-96 -542h-159l248 1408h160l-104 -592q61 78 154.5 121t195.5 43q188 0 277 -105q89 -107 56 -291l-103 -584h-158l96 545q25 138 -32.5 211.5t-187.5 73.5q-129 0 -227 -81t-120 -207z" />
    <glyph glyph-name="Hbar" unicode="&#x126;" horiz-adv-x="1595" 
d="M499 621l-109 -621h-165l185 1053h-168l25 145h169l28 160h165l-28 -160h816l28 160h165l-28 -160h168l-25 -145h-169l-185 -1053h-165l109 621h-816zM1342 771l49 282h-816l-49 -282h816z" />
    <glyph glyph-name="hbar" unicode="&#x127;" horiz-adv-x="1195" 
d="M413 542l-96 -542h-159l197 1120h-147l24 136h147l27 152h160l-27 -152h344l-24 -136h-344l-53 -304q61 78 154.5 121t195.5 43q188 0 277 -105q89 -107 56 -291l-103 -584h-158l96 545q25 138 -32.5 211.5t-187.5 73.5q-129 0 -227 -81t-120 -207z" />
    <glyph glyph-name="Itilde" unicode="&#x128;" horiz-adv-x="545" 
d="M293 1534l-72 71q117 143 233 143q39 1 82.5 -20t82.5 -42t68 -20q40 0 72 18.5t73 62.5l69 -76q-59 -70 -115 -103.5t-122 -33.5q-47 -2 -123.5 39.5t-105.5 39.5q-37 0 -65.5 -16.5t-76.5 -62.5zM594 1358l-239 -1358h-165l239 1358h165z" />
    <glyph glyph-name="itilde" unicode="&#x129;" horiz-adv-x="491" 
d="M203 1174l-72 71q116 143 233 143q39 1 82 -20t82 -42t68 -20q40 0 71.5 18t74.5 63l68 -76q-59 -71 -114.5 -104t-121.5 -33q-47 -2 -123.5 39.5t-105.5 39.5q-37 0 -65.5 -16.5t-76.5 -62.5zM325 0h-159l169 960h159z" />
    <glyph glyph-name="Imacron" unicode="&#x12a;" horiz-adv-x="545" 
d="M863 1671l-22 -125h-591l22 125h591zM355 0h-165l239 1358h165z" />
    <glyph glyph-name="imacron" unicode="&#x12b;" horiz-adv-x="491" 
d="M776 1335l-22 -125h-591l22 125h591zM325 0h-159l169 960h159z" />
    <glyph glyph-name="Ibreve" unicode="&#x12c;" horiz-adv-x="545" 
d="M854 1760q-28 -120 -113.5 -194t-205.5 -74q-117 0 -178 73q-62 74 -47 195h136q-5 -66 25 -105.5t86 -39.5q57 0 101 39.5t60 105.5h136zM594 1358l-239 -1358h-165l239 1358h165z" />
    <glyph glyph-name="ibreve" unicode="&#x12d;" horiz-adv-x="491" 
d="M764 1403q-28 -120 -113.5 -194t-205.5 -74q-117 0 -178 73q-62 74 -47 195h136q-5 -66 25 -105.5t86 -39.5q57 0 101 39.5t60 105.5h136zM494 960l-169 -960h-159l169 960h159z" />
    <glyph glyph-name="Iogonek" unicode="&#x12e;" horiz-adv-x="545" 
d="M156 -447q-105 0 -156 50.5t-36 137.5q24 142 234 259h-8l239 1358h165l-239 -1358h-6q-104 -61 -167 -120.5t-71 -106.5q-8 -41 16 -64t75 -23q56 0 124 30l18 -117q-82 -46 -188 -46z" />
    <glyph glyph-name="iogonek" unicode="&#x12f;" horiz-adv-x="491" 
d="M454 1183q-43 0 -66 27.5t-15 71.5q7 43 39 70.5t76 27.5t67 -27q23 -29 16 -71q-8 -44 -40.5 -71.5t-76.5 -27.5zM128 -447q-105 0 -156 50.5t-36 137.5q24 142 234 259h-4l169 960h159l-169 -960h-4q-104 -61 -167 -120.5t-71 -106.5q-8 -41 16 -64t75 -23q56 0 124 30
l18 -117q-82 -46 -188 -46z" />
    <glyph glyph-name="Idotaccent" unicode="&#x130;" horiz-adv-x="545" 
d="M539 1517q-43 0 -65.5 27.5t-14.5 71.5q7 43 39 70.5t76 27.5t67 -27q23 -29 16 -71q-7 -44 -40.5 -71.5t-77.5 -27.5zM594 1358l-239 -1358h-165l239 1358h165z" />
    <glyph glyph-name="dotlessi" unicode="&#x131;" horiz-adv-x="491" 
d="M325 0h-159l169 960h159z" />
    <glyph glyph-name="IJ" unicode="&#x132;" horiz-adv-x="1598" 
d="M960 -20q-112 0 -210 49t-147 141l130 112q41 -69 109 -108.5t146 -39.5q138 0 230.5 91.5t121.5 256.5l154 876h166l-157 -892q-39 -223 -180 -354.5t-363 -131.5zM594 1358l-239 -1358h-165l239 1358h165z" />
    <glyph glyph-name="ij" unicode="&#x133;" horiz-adv-x="990" 
d="M953 1183q-43 0 -66 27.5t-15 71.5q7 43 39 70.5t76 27.5q45 0 67 -27q23 -29 16 -71q-8 -44 -40.5 -71.5t-76.5 -27.5zM454 1183q-43 0 -66 27.5t-15 71.5q7 43 39 70.5t76 27.5t67 -27q23 -29 16 -71q-8 -44 -40.5 -71.5t-76.5 -27.5zM301 -393l41 134q51 -20 120 -20
q154 0 188 195l184 1044h159l-186 -1055q-27 -155 -120.5 -240t-239.5 -85q-93 0 -146 27zM325 0h-159l169 960h159z" />
    <glyph glyph-name="Jcircumflex" unicode="&#x134;" horiz-adv-x="1045" 
d="M1084 1692l-195 -221h-156l340 369h73l210 -369h-156zM50 170l130 112q41 -69 109 -108.5t146 -39.5q138 0 230.5 91.5t121.5 256.5l154 876h166l-157 -892q-39 -223 -180 -354.5t-363 -131.5q-112 0 -210 49t-147 141z" />
    <glyph glyph-name="jcircumflex" unicode="&#x135;" horiz-adv-x="500" 
d="M487 1305l-195 -221h-156l340 369h73l210 -369h-156zM-43 -420q-93 0 -146 27l41 134q51 -20 120 -20q153 0 188 195l184 1044h159l-186 -1055q-27 -155 -120.5 -240t-239.5 -85z" />
    <glyph glyph-name="uni0136" unicode="&#x136;" horiz-adv-x="1294" 
d="M1283 0h-203l-345 678l-310 -280l-70 -398h-165l239 1358h165l-130 -741l817 741h212l-621 -563zM604 -513h-132l82 391h171z" />
    <glyph glyph-name="uni0137" unicode="&#x137;" horiz-adv-x="1048" 
d="M325 0h-159l248 1408h159l-164 -934l568 486h213l-485 -404l323 -556h-202l-252 448l-199 -167zM617 -122l-121 -391h-132l82 391h171z" />
    <glyph glyph-name="kgreenlandic" unicode="&#x138;" horiz-adv-x="1048" 
d="M325 0h-159l169 960h159l-85 -486l568 486h213l-485 -404l323 -556h-202l-252 448l-199 -167z" />
    <glyph glyph-name="Lacute" unicode="&#x139;" horiz-adv-x="1200" 
d="M677 1807h180l-247 -334h-139zM1179 150l-26 -150h-963l239 1358h166l-213 -1208h797z" />
    <glyph glyph-name="lacute" unicode="&#x13a;" horiz-adv-x="491" 
d="M641 1826h180l-247 -334h-139zM325 0h-159l248 1408h159z" />
    <glyph glyph-name="uni013B" unicode="&#x13b;" horiz-adv-x="1200" 
d="M1179 150l-26 -150h-963l239 1358h166l-213 -1208h797zM625 -513h-132l82 391h171z" />
    <glyph glyph-name="uni013C" unicode="&#x13c;" horiz-adv-x="491" 
d="M325 0h-159l248 1408h159zM188 -513h-132l82 391h171z" />
    <glyph glyph-name="Lcaron" unicode="&#x13d;" horiz-adv-x="1200" 
d="M1179 150l-26 -150h-963l239 1358h166l-213 -1208h797zM1057 943h-132l83 391h172z" />
    <glyph glyph-name="lcaron" unicode="&#x13e;" horiz-adv-x="491" 
d="M573 1408l-248 -1408h-159l248 1408h159zM939 1408l-108 -392h-130l69 392h169z" />
    <glyph glyph-name="Ldot" unicode="&#x13f;" horiz-adv-x="1200" 
d="M1179 150l-26 -150h-963l239 1358h166l-213 -1208h797zM1000 576q-43 0 -66 27.5t-15 71.5q7 43 39 70.5t76 27.5t67 -27q23 -29 16 -71q-8 -44 -40.5 -71.5t-76.5 -27.5z" />
    <glyph glyph-name="ldot" unicode="&#x140;" horiz-adv-x="761" 
d="M573 1408l-248 -1408h-159l248 1408h159zM717 579q-44 0 -66.5 28t-14.5 71q7 43 39.5 70.5t76.5 27.5t66.5 -27.5t15.5 -70.5q-8 -44 -41 -71.5t-76 -27.5z" />
    <glyph glyph-name="Lslash" unicode="&#x141;" horiz-adv-x="1293" 
d="M405 692l-224 -20l26 147l224 20l91 519h166l-89 -505l410 36l-26 -145l-410 -37l-98 -557h797l-26 -150h-963z" />
    <glyph glyph-name="lslash" unicode="&#x142;" horiz-adv-x="720" 
d="M269 0l81 460l-208 -80l26 148l208 81l141 799h159l-129 -733l233 90l-27 -151l-233 -89l-92 -525h-159z" />
    <glyph glyph-name="Nacute" unicode="&#x143;" horiz-adv-x="1592" 
d="M1153 1473h-139l206 334h180zM356 0h-166l239 1358h173l678 -1113l196 1113h165l-239 -1358h-173l-677 1109z" />
    <glyph glyph-name="nacute" unicode="&#x144;" horiz-adv-x="1205" 
d="M900 1113h-139l206 334h180zM325 0h-159l169 960h160l-25 -144q61 78 154.5 121t195.5 43q190 0 279 -105q89 -107 56 -291l-103 -584h-159l96 545q25 138 -32 211.5t-189 73.5q-129 0 -227 -81t-120 -207z" />
    <glyph glyph-name="uni0145" unicode="&#x145;" horiz-adv-x="1592" 
d="M552 1109l-196 -1109h-166l239 1358h173l678 -1113l196 1113h165l-239 -1358h-173zM876 -122l-121 -391h-132l82 391h171z" />
    <glyph glyph-name="uni0146" unicode="&#x146;" horiz-adv-x="1205" 
d="M325 0h-159l169 960h160l-25 -144q61 78 154.5 121t195.5 43q190 0 279 -105q89 -107 56 -291l-103 -584h-159l96 545q25 138 -32 211.5t-189 73.5q-129 0 -227 -81t-120 -207zM673 -122l-121 -391h-132l82 391h171z" />
    <glyph glyph-name="Ncaron" unicode="&#x147;" horiz-adv-x="1592" 
d="M1029 1474l-210 369h156l115 -222l196 222h156l-340 -369h-73zM552 1109l-196 -1109h-166l239 1358h173l678 -1113l196 1113h165l-239 -1358h-173z" />
    <glyph glyph-name="ncaron" unicode="&#x148;" horiz-adv-x="1205" 
d="M854 1089h-73l-210 369h156l115 -222l196 222h156zM421 542l-96 -542h-159l169 960h160l-25 -144q61 78 154.5 121t195.5 43q190 0 279 -105q89 -107 56 -291l-103 -584h-159l96 545q25 138 -32 211.5t-189 73.5q-129 0 -227 -81t-120 -207z" />
    <glyph glyph-name="napostrophe" unicode="&#x149;" horiz-adv-x="1431" 
d="M582 1387l-238 -475h-145l205 475h178zM551 0h-159l169 960h160l-25 -144q61 78 154.5 121t195.5 43q190 0 279 -105q89 -107 56 -291l-103 -584h-159l96 545q25 138 -32 211.5t-189 73.5q-129 0 -227 -81t-120 -207z" />
    <glyph glyph-name="Eng" unicode="&#x14a;" horiz-adv-x="1614" 
d="M356 0h-166l239 1358h173l678 -1113l196 1113h165l-229 -1304l-29 -159q-26 -150 -117.5 -232.5t-235.5 -82.5q-88 0 -137 27l41 134q43 -20 110 -20q72 0 112 44.5t56 140.5l17 94l-677 1109z" />
    <glyph glyph-name="eng" unicode="&#x14b;" horiz-adv-x="1205" 
d="M325 0h-159l169 960h160l-25 -144q61 78 154.5 121t195.5 43q190 0 279 -105q89 -107 56 -291l-120 -679q-27 -155 -115 -240t-225 -85q-83 0 -129 27l41 134q43 -20 103 -20q134 0 168 195l111 629q25 138 -32 211.5t-189 73.5q-129 0 -227 -81t-120 -207z" />
    <glyph glyph-name="Omacron" unicode="&#x14c;" horiz-adv-x="1596" 
d="M1367 1546h-591l22 125h591zM794 -20q-145 0 -265 50.5t-197 142.5q-78 92 -107.5 223.5t-2.5 282.5q26 149 100 278t181 221.5t246.5 145.5t291.5 53q145 0 265.5 -50.5t197.5 -141.5q78 -92 107.5 -223.5t2.5 -282.5q-26 -149 -100 -278t-181 -222t-246.5 -146
t-292.5 -53zM395 679q-43 -242 77 -394q120 -151 350 -151q158 0 290.5 72t216.5 195t112 278q42 242 -77 394q-120 150 -350 150q-148 2 -280.5 -66.5t-222.5 -194.5t-116 -283z" />
    <glyph glyph-name="omacron" unicode="&#x14d;" horiz-adv-x="1210" 
d="M1114 1210h-591l22 125h591zM601 -20q-141 -2 -248 65t-153.5 183t-19.5 252q38 214 209 357t389 143q141 2 248 -65t153.5 -183t20.5 -252q-38 -214 -209.5 -357t-389.5 -143zM752 832q-152 0 -269.5 -101t-143.5 -251t56 -250q83 -102 233 -102q151 0 269 101t144 251
t-56 251q-83 101 -233 101z" />
    <glyph glyph-name="Obreve" unicode="&#x14e;" horiz-adv-x="1596" 
d="M1380 1760q-28 -120 -113.5 -194t-205.5 -74q-117 0 -178 73q-62 74 -47 195h136q-5 -66 25 -105.5t86 -39.5q57 0 101 39.5t60 105.5h136zM794 -20q-145 0 -265 50.5t-197 142.5q-78 92 -107.5 223.5t-2.5 282.5q26 149 100 278t181 221.5t246.5 145.5t291.5 53
q145 0 265.5 -50.5t197.5 -141.5q78 -92 107.5 -223.5t2.5 -282.5q-26 -149 -100 -278t-181 -222t-246.5 -146t-292.5 -53zM395 679q-43 -242 77 -394q120 -151 350 -151q158 0 290.5 72t216.5 195t112 278q42 242 -77 394q-120 150 -350 150q-148 2 -280.5 -66.5
t-222.5 -194.5t-116 -283z" />
    <glyph glyph-name="obreve" unicode="&#x14f;" horiz-adv-x="1210" 
d="M1124 1403q-28 -120 -113.5 -194t-205.5 -74q-117 0 -178 73q-62 74 -47 195h136q-5 -66 25 -105.5t86 -39.5q57 0 101 39.5t60 105.5h136zM601 -20q-141 -2 -248 65t-153.5 183t-19.5 252q38 214 209 357t389 143q141 2 248 -65t153.5 -183t20.5 -252
q-38 -214 -209.5 -357t-389.5 -143zM752 832q-152 0 -269.5 -101t-143.5 -251t56 -250q83 -102 233 -102q151 0 269 101t144 251t-56 251q-83 101 -233 101z" />
    <glyph glyph-name="Ohungarumlaut" unicode="&#x150;" horiz-adv-x="1596" 
d="M1527 1807l-247 -334h-139l206 334h180zM1197 1807l-247 -334h-139l206 334h180zM794 -20q-145 0 -265 50.5t-197 142.5q-78 92 -107.5 223.5t-2.5 282.5q26 149 100 278t181 221.5t246.5 145.5t291.5 53q145 0 265.5 -50.5t197.5 -141.5q78 -92 107.5 -223.5t2.5 -282.5
q-26 -149 -100 -278t-181 -222t-246.5 -146t-292.5 -53zM395 679q-43 -242 77 -394q120 -151 350 -151q158 0 290.5 72t216.5 195t112 278q42 242 -77 394q-120 150 -350 150q-148 2 -280.5 -66.5t-222.5 -194.5t-116 -283z" />
    <glyph glyph-name="ohungarumlaut" unicode="&#x151;" horiz-adv-x="1210" 
d="M1277 1447l-247 -334h-139l206 334h180zM700 1113h-139l206 334h180zM601 -20q-141 -2 -248 65t-153.5 183t-19.5 252q38 214 209 357t389 143q141 2 248 -65t153.5 -183t20.5 -252q-38 -214 -209.5 -357t-389.5 -143zM752 832q-152 0 -269.5 -101t-143.5 -251t56 -250
q83 -102 233 -102q151 0 269 101t144 251t-56 251q-83 101 -233 101z" />
    <glyph glyph-name="OE" unicode="&#x152;" horiz-adv-x="2342" 
d="M780 -21q-196 -3 -337.5 86t-201 248.5t-21.5 358.5q56 312 281 509q226 197 526 197q320 0 461 -223l35 203h935l-26 -150h-770l-77 -435h665l-26 -150h-665l-84 -474h792l-26 -149h-957l35 196q-218 -217 -539 -217zM392 673q-43 -240 70 -390q112 -150 345 -150
q236 0 399.5 151.5t205.5 388.5q44 245 -69 398q-113 152 -343 152q-238 0 -401.5 -155t-206.5 -395z" />
    <glyph glyph-name="oe" unicode="&#x153;" horiz-adv-x="1964" 
d="M591 -20q-138 -2 -242.5 65t-150 183t-18.5 252q21 136 107.5 252t215 183t265.5 65q132 0 230 -64t141 -175q82 110 199 174.5t248 64.5q88 0 164 -31.5t129 -88t75.5 -143t4.5 -188.5q-11 -63 -20 -88h-771q-16 -130 60 -223q75 -93 215 -93q183 0 321 161l106 -88
q-83 -102 -202.5 -160t-250.5 -58q-132 0 -230 63t-141 174q-83 -110 -202.5 -173.5t-252.5 -63.5zM1197 572h611q13 117 -57 190t-190 73q-123 0 -225 -73t-139 -190zM742 832q-148 0 -263 -102.5t-140 -249.5q-26 -149 54 -250q79 -102 225 -102q149 0 263.5 102
t139.5 250q26 150 -53 251q-80 101 -226 101z" />
    <glyph glyph-name="Racute" unicode="&#x154;" horiz-adv-x="1334" 
d="M1212 1807l-247 -334h-139l206 334h180zM355 0h-165l239 1358h580q207 0 312 -109q104 -110 71 -294q-25 -145 -122 -245.5t-242 -137.5l235 -572h-195l-222 552h-394zM568 1208l-90 -509h409q138 0 225 68t108 188t-41.5 186.5t-201.5 66.5h-409z" />
    <glyph glyph-name="racute" unicode="&#x155;" horiz-adv-x="771" 
d="M710 1113h-139l206 334h180zM326 0h-160l169 960h160l-25 -142q108 162 288 162q82 0 131 -25l-42 -147q-60 24 -121 24q-107 0 -193 -74t-113 -225z" />
    <glyph glyph-name="uni0156" unicode="&#x156;" horiz-adv-x="1334" 
d="M452 552l-97 -552h-165l239 1358h580q207 0 312 -109q104 -110 71 -294q-25 -145 -122 -245.5t-242 -137.5l235 -572h-195l-222 552h-394zM568 1208l-90 -509h409q138 0 225 68t108 188t-41.5 186.5t-201.5 66.5h-409zM758 -122l-121 -391h-132l82 391h171z" />
    <glyph glyph-name="uni0157" unicode="&#x157;" horiz-adv-x="771" 
d="M326 0h-160l169 960h160l-25 -142q108 162 288 162q82 0 131 -25l-42 -147q-60 24 -121 24q-107 0 -193 -74t-113 -225zM307 -122l-121 -391h-132l82 391h171z" />
    <glyph glyph-name="Rcaron" unicode="&#x158;" horiz-adv-x="1334" 
d="M944 1474h-73l-210 369h156l115 -222l196 222h156zM452 552l-97 -552h-165l239 1358h580q207 0 312 -109q104 -110 71 -294q-25 -145 -122 -245.5t-242 -137.5l235 -572h-195l-222 552h-394zM568 1208l-90 -509h409q138 0 225 68t108 188t-41.5 186.5t-201.5 66.5h-409z
" />
    <glyph glyph-name="rcaron" unicode="&#x159;" horiz-adv-x="771" 
d="M674 1089h-73l-210 369h156l115 -222l196 222h156zM420 533l-94 -533h-160l169 960h160l-25 -142q108 162 288 162q82 0 131 -25l-42 -147q-60 24 -121 24q-107 0 -193 -74t-113 -225z" />
    <glyph glyph-name="Sacute" unicode="&#x15a;" horiz-adv-x="1216" 
d="M1207 1807l-247 -334h-139l206 334h180zM624 -20q-185 0 -309 83t-161 210l140 89q41 -109 131 -170.5t226 -61.5q54 0 109 12t106.5 36t88 67t46.5 98q17 95 -50 150q-68 56 -241 117q-73 26 -122 46.5t-112.5 60t-94.5 82.5q-68 89 -45 217q21 114 101 198t186 124
t221 40q188 0 297 -88q94 -76 132 -171l-145 -94q-44 98 -123.5 150t-187.5 52q-70 0 -133.5 -21t-113.5 -70t-61 -118q-13 -73 31 -124q36 -42 143 -84q21 -9 107 -41q59 -22 93.5 -36t87 -39t91.5 -54.5t66 -64.5q70 -96 46 -230q-28 -158 -183 -262q-155 -103 -367 -103z
" />
    <glyph glyph-name="sacute" unicode="&#x15b;" horiz-adv-x="978" 
d="M1009 1447l-247 -334h-139l206 334h180zM497 -20q-144 0 -239 56.5t-131 159.5l137 89q28 -77 94.5 -119.5t164.5 -42.5q36 0 72 7t72 21.5t61.5 42t31.5 64.5q11 65 -32 94q-44 30 -169 59q-155 36 -233 94q-90 66 -66 199q16 89 81.5 154t149.5 93.5t175 28.5
q49 0 97.5 -10.5t93.5 -31t80.5 -55.5t54.5 -81l-124 -90q-65 125 -227 125q-91 0 -151.5 -35.5t-71.5 -94.5q-5 -43 9 -68t57 -43q59 -24 146 -45q154 -39 230 -98q84 -67 60 -195q-11 -69 -54.5 -123.5t-104.5 -87.5t-129 -50t-135 -17z" />
    <glyph glyph-name="Scircumflex" unicode="&#x15c;" horiz-adv-x="1216" 
d="M719 1471h-156l340 369h73l210 -369h-156l-116 221zM154 273l140 89q41 -109 131 -170.5t226 -61.5q54 0 109 12t106.5 36t88 67t46.5 98q17 95 -50 150q-68 56 -241 117q-73 26 -122 46.5t-112.5 60t-94.5 82.5q-68 89 -45 217q21 114 101 198t186 124t221 40
q188 0 297 -88q94 -76 132 -171l-145 -94q-44 98 -123.5 150t-187.5 52q-70 0 -133.5 -21t-113.5 -70t-61 -118q-13 -73 31 -124q36 -42 143 -84q21 -9 107 -41q59 -22 93.5 -36t87 -39t91.5 -54.5t66 -64.5q70 -96 46 -230q-28 -158 -183 -262q-155 -103 -367 -103
q-185 0 -309 83t-161 210z" />
    <glyph glyph-name="scircumflex" unicode="&#x15d;" horiz-adv-x="978" 
d="M524 1084h-156l340 369h73l210 -369h-156l-116 221zM127 196l137 89q28 -77 94.5 -119.5t164.5 -42.5q36 0 72 7t72 21.5t61.5 42t31.5 64.5q11 65 -32 94q-44 30 -169 59q-155 36 -233 94q-90 66 -66 199q16 89 81.5 154t149.5 93.5t175 28.5q49 0 97.5 -10.5t93.5 -31
t80.5 -55.5t54.5 -81l-124 -90q-65 125 -227 125q-91 0 -151.5 -35.5t-71.5 -94.5q-5 -43 9 -68t57 -43q59 -24 146 -45q154 -39 230 -98q84 -67 60 -195q-11 -69 -54.5 -123.5t-104.5 -87.5t-129 -50t-135 -17q-144 0 -239 56.5t-131 159.5z" />
    <glyph glyph-name="Scedilla" unicode="&#x15e;" horiz-adv-x="1216" 
d="M154 273l140 89q41 -109 131 -170.5t226 -61.5q54 0 109 12t106.5 36t88 67t46.5 98q17 95 -50 150q-68 56 -241 117q-73 26 -122 46.5t-112.5 60t-94.5 82.5q-68 89 -45 217q21 114 101 198t186 124t221 40q188 0 297 -88q94 -76 132 -171l-145 -94q-44 98 -123.5 150
t-187.5 52q-70 0 -133.5 -21t-113.5 -70t-61 -118q-13 -73 31 -124q36 -42 143 -84q21 -9 107 -41q59 -22 93.5 -36t87 -39t91.5 -54.5t66 -64.5q70 -96 46 -230q-16 -85 -68 -155t-125 -113.5t-156.5 -68t-168.5 -27.5l-39 -78q93 -7 140 -51t35 -115q-16 -86 -93.5 -135
t-198.5 -49q-80 0 -131 20l20 114q50 -19 120 -19q129 0 141 70q7 37 -27 56t-106 19h-59l95 170q-141 14 -251 88t-148 202z" />
    <glyph glyph-name="scedilla" unicode="&#x15f;" horiz-adv-x="978" 
d="M127 196l137 89q28 -77 94.5 -119.5t164.5 -42.5q36 0 72 7t72 21.5t61.5 42t31.5 64.5q11 65 -32 94q-44 30 -169 59q-155 36 -233 94q-90 66 -66 199q16 89 81.5 154t149.5 93.5t175 28.5q49 0 97.5 -10.5t93.5 -31t80.5 -55.5t54.5 -81l-124 -90q-65 125 -227 125
q-91 0 -151.5 -35.5t-71.5 -94.5q-5 -43 9 -68t57 -43q59 -24 146 -45q154 -39 230 -98q84 -67 60 -195q-19 -119 -136.5 -197t-265.5 -81l-39 -77q93 -7 140 -51t35 -115q-16 -86 -93.5 -135t-198.5 -49q-80 0 -131 20l20 114q50 -19 120 -19q129 0 141 70q7 37 -27 56
t-106 19h-59l96 172q-226 30 -289 211z" />
    <glyph glyph-name="Scaron" unicode="&#x160;" horiz-adv-x="1216" 
d="M832 1474l-210 369h156l115 -222l196 222h156l-340 -369h-73zM154 273l140 89q41 -109 131 -170.5t226 -61.5q54 0 109 12t106.5 36t88 67t46.5 98q17 95 -50 150q-68 56 -241 117q-73 26 -122 46.5t-112.5 60t-94.5 82.5q-68 89 -45 217q21 114 101 198t186 124t221 40
q188 0 297 -88q94 -76 132 -171l-145 -94q-44 98 -123.5 150t-187.5 52q-70 0 -133.5 -21t-113.5 -70t-61 -118q-13 -73 31 -124q36 -42 143 -84q21 -9 107 -41q59 -22 93.5 -36t87 -39t91.5 -54.5t66 -64.5q70 -96 46 -230q-28 -158 -183 -262q-155 -103 -367 -103
q-185 0 -309 83t-161 210z" />
    <glyph glyph-name="scaron" unicode="&#x161;" horiz-adv-x="978" 
d="M651 1089l-210 369h156l115 -222l196 222h156l-340 -369h-73zM127 196l137 89q28 -77 94.5 -119.5t164.5 -42.5q36 0 72 7t72 21.5t61.5 42t31.5 64.5q11 65 -32 94q-44 30 -169 59q-155 36 -233 94q-90 66 -66 199q16 89 81.5 154t149.5 93.5t175 28.5q49 0 97.5 -10.5
t93.5 -31t80.5 -55.5t54.5 -81l-124 -90q-65 125 -227 125q-91 0 -151.5 -35.5t-71.5 -94.5q-5 -43 9 -68t57 -43q59 -24 146 -45q154 -39 230 -98q84 -67 60 -195q-11 -69 -54.5 -123.5t-104.5 -87.5t-129 -50t-135 -17q-144 0 -239 56.5t-131 159.5z" />
    <glyph glyph-name="uni0162" unicode="&#x162;" horiz-adv-x="1157" 
d="M496 0l212 1204h-454l27 154h1073l-27 -154h-454l-212 -1204h-29l-49 -97q93 -7 140 -51t35 -115q-16 -86 -93.5 -135t-198.5 -49q-80 0 -131 20l20 114q50 -19 120 -19q129 0 141 70q7 37 -27 56t-106 19h-59l104 187h-32z" />
    <glyph glyph-name="uni0163" unicode="&#x163;" horiz-adv-x="789" 
d="M316 -447q-80 0 -131 20l20 114q50 -19 120 -19q129 0 141 70q7 37 -27 56t-106 19h-59l110 198q-141 70 -105 267l96 545h-177l24 137h178l55 308h157l-55 -308h317l-24 -137h-316l-91 -519q-17 -89 19 -135t115 -46q92 0 170 37l-3 -137q-36 -18 -95 -30.5t-115 -12.5
q-37 0 -60 4l-41 -81q93 -7 140 -51t35 -115q-16 -86 -93.5 -135t-198.5 -49z" />
    <glyph glyph-name="Tcaron" unicode="&#x164;" horiz-adv-x="1157" 
d="M875 1474h-73l-210 369h156l115 -222l196 222h156zM708 1204h-454l27 154h1073l-27 -154h-454l-212 -1204h-165z" />
    <glyph glyph-name="tcaron" unicode="&#x165;" horiz-adv-x="789" 
d="M866 1118h-130l69 392h169zM375 823h-177l24 137h178l55 308h157l-55 -308h317l-24 -137h-316l-91 -519q-17 -89 19 -135t115 -46q92 0 170 37l-3 -137q-36 -18 -95 -30.5t-115 -12.5q-144 0 -212.5 78t-42.5 220z" />
    <glyph glyph-name="Tbar" unicode="&#x166;" horiz-adv-x="1223" 
d="M641 636h-369l25 141h369l75 427h-454l27 154h1073l-27 -154h-454l-75 -427h369l-25 -141h-369l-112 -636h-165z" />
    <glyph glyph-name="tbar" unicode="&#x167;" horiz-adv-x="808" 
d="M293 278l29 163h-162l24 137h162l43 245h-177l24 137h178l55 308h157l-55 -308h317l-24 -137h-316l-43 -245h311l-24 -137h-311l-24 -137q-17 -89 19 -135t115 -46q92 0 170 37l-3 -137q-36 -18 -95 -30.5t-115 -12.5q-144 0 -212.5 78t-42.5 220z" />
    <glyph glyph-name="Utilde" unicode="&#x168;" horiz-adv-x="1486" 
d="M764 1534l-72 71q117 143 233 143q39 1 82.5 -20t82.5 -42t68 -20q40 0 72 18.5t73 62.5l69 -76q-59 -70 -115 -103.5t-122 -33.5q-47 -2 -123.5 39.5t-105.5 39.5q-37 0 -65.5 -16.5t-76.5 -62.5zM1397 485q-28 -161 -124.5 -277t-233 -172t-300.5 -56q-260 0 -389 137
q-130 136 -89 368l153 873h165l-152 -864q-29 -164 63 -261q92 -98 277 -98q177 0 306.5 94.5t159.5 264.5l152 864h165z" />
    <glyph glyph-name="utilde" unicode="&#x169;" horiz-adv-x="1201" 
d="M533 1174l-72 71q116 143 233 143q39 1 82 -20t82 -42t68 -20q40 0 71.5 18t74.5 63l68 -76q-59 -71 -114.5 -104t-121.5 -33q-47 -2 -123.5 39.5t-105.5 39.5q-37 0 -65.5 -16.5t-76.5 -62.5zM550 -20q-186 0 -275 105q-88 104 -56 290l103 585h158l-96 -546
q-25 -138 31.5 -211t186.5 -73t228 80t120 207l95 543h159l-169 -960h-159l25 144q-56 -74 -149.5 -119t-201.5 -45z" />
    <glyph glyph-name="Umacron" unicode="&#x16a;" horiz-adv-x="1486" 
d="M1312 1546h-591l22 125h591zM1397 485q-28 -161 -124.5 -277t-233 -172t-300.5 -56q-260 0 -389 137q-130 136 -89 368l153 873h165l-152 -864q-29 -164 63 -261q92 -98 277 -98q177 0 306.5 94.5t159.5 264.5l152 864h165z" />
    <glyph glyph-name="umacron" unicode="&#x16b;" horiz-adv-x="1201" 
d="M1090 1210h-591l22 125h591zM550 -20q-186 0 -275 105q-88 104 -56 290l103 585h158l-96 -546q-25 -138 31.5 -211t186.5 -73t228 80t120 207l95 543h159l-169 -960h-159l25 144q-56 -74 -149.5 -119t-201.5 -45z" />
    <glyph glyph-name="Ubreve" unicode="&#x16c;" horiz-adv-x="1486" 
d="M1325 1760q-28 -120 -113.5 -194t-205.5 -74q-117 0 -178 73q-62 74 -47 195h136q-5 -66 25 -105.5t86 -39.5q58 0 101.5 39.5t59.5 105.5h136zM1397 485q-28 -161 -124.5 -277t-233 -172t-300.5 -56q-260 0 -389 137q-130 136 -89 368l153 873h165l-152 -864
q-29 -164 63 -261q92 -98 277 -98q177 0 306.5 94.5t159.5 264.5l152 864h165z" />
    <glyph glyph-name="ubreve" unicode="&#x16d;" horiz-adv-x="1201" 
d="M1094 1403q-28 -120 -113.5 -194t-205.5 -74q-117 0 -178 73q-62 74 -47 195h136q-5 -66 25 -105.5t86 -39.5q57 0 101 39.5t60 105.5h136zM550 -20q-186 0 -275 105q-88 104 -56 290l103 585h158l-96 -546q-25 -138 31.5 -211t186.5 -73t228 80t120 207l95 543h159
l-169 -960h-159l25 144q-56 -74 -149.5 -119t-201.5 -45z" />
    <glyph glyph-name="Uring" unicode="&#x16e;" horiz-adv-x="1486" 
d="M1253 1692q-16 -88 -86.5 -144t-160.5 -56q-92 0 -142 57q-50 58 -35 143q17 90 86.5 146.5t161.5 56.5q93 0 142 -57q50 -59 34 -146zM938 1692q-8 -44 16 -72t70 -28q45 0 78 28t41 72q8 45 -15 74.5t-68 29.5t-79.5 -29.5t-42.5 -74.5zM1397 485q-28 -161 -124.5 -277
t-233 -172t-300.5 -56q-260 0 -389 137q-130 136 -89 368l153 873h165l-152 -864q-29 -164 63 -261q92 -98 277 -98q177 0 306.5 94.5t159.5 264.5l152 864h165z" />
    <glyph glyph-name="uring" unicode="&#x16f;" horiz-adv-x="1201" 
d="M1020 1290q-16 -88 -86.5 -144t-160.5 -56q-93 0 -142 57q-50 58 -35 143q17 90 86.5 146.5t161.5 56.5t142 -57q50 -59 34 -146zM705 1290q-8 -44 16 -72t70 -28q45 0 78 28t41 72q8 45 -15 74.5t-68 29.5t-79.5 -29.5t-42.5 -74.5zM550 -20q-186 0 -275 105
q-88 104 -56 290l103 585h158l-96 -546q-25 -138 31.5 -211t186.5 -73t228 80t120 207l95 543h159l-169 -960h-159l25 144q-56 -74 -149.5 -119t-201.5 -45z" />
    <glyph glyph-name="Uhungarumlaut" unicode="&#x170;" horiz-adv-x="1486" 
d="M1226 1473h-139l206 334h180zM1144 1807l-247 -334h-139l206 334h180zM1397 485q-28 -161 -124.5 -277t-233 -172t-300.5 -56q-260 0 -389 137q-130 136 -89 368l153 873h165l-152 -864q-29 -164 63 -261q92 -98 277 -98q177 0 306.5 94.5t159.5 264.5l152 864h165z" />
    <glyph glyph-name="uhungarumlaut" unicode="&#x171;" horiz-adv-x="1201" 
d="M1010 1113h-139l206 334h180zM927 1447l-247 -334h-139l206 334h180zM550 -20q-186 0 -275 105q-88 104 -56 290l103 585h158l-96 -546q-25 -138 31.5 -211t186.5 -73t228 80t120 207l95 543h159l-169 -960h-159l25 144q-56 -74 -149.5 -119t-201.5 -45z" />
    <glyph glyph-name="Uogonek" unicode="&#x172;" horiz-adv-x="1486" 
d="M734 -20q-257 2 -385 139q-129 136 -88 366l153 873h165l-152 -864q-29 -164 63 -261q92 -98 277 -98q177 0 306.5 94.5t159.5 264.5l152 864h165l-153 -873q-35 -191 -162.5 -318t-319.5 -169q-103 -60 -165 -118.5t-70 -106.5q-8 -41 16 -64t75 -23q57 0 124 30
l18 -117q-82 -46 -188 -46q-105 0 -156 50.5t-36 137.5q22 126 201 239z" />
    <glyph glyph-name="uogonek" unicode="&#x173;" horiz-adv-x="1201" 
d="M550 -20q-186 0 -275 105q-88 104 -56 290l103 585h158l-96 -546q-25 -138 31.5 -211t186.5 -73t228 80t120 207l95 543h159l-169 -960h-8q-104 -61 -167 -120.5t-71 -106.5q-8 -41 16 -64t75 -23q56 0 124 30l18 -117q-82 -46 -188 -46q-105 0 -156 50.5t-36 137.5
q24 142 234 259l25 144q-56 -74 -149.5 -119t-201.5 -45z" />
    <glyph glyph-name="Wcircumflex" unicode="&#x174;" horiz-adv-x="2050" 
d="M1129 1471h-156l340 369h73l210 -369h-156l-116 221zM446 0l-163 1358h169l147 -1189l576 1178h176l160 -1178l565 1189h169l-641 -1358h-241l-143 1106l-533 -1106h-241z" />
    <glyph glyph-name="wcircumflex" unicode="&#x175;" horiz-adv-x="1609" 
d="M1035 1305l-195 -221h-156l340 369h73l210 -369h-156zM566 0h-213l-131 960h169l96 -808l401 798h169l119 -799l381 809h168l-468 -960h-213l-111 728z" />
    <glyph glyph-name="Ycircumflex" unicode="&#x176;" horiz-adv-x="1292" 
d="M945 1692l-195 -221h-156l340 369h73l210 -369h-156zM656 530l-388 828h196l305 -659l537 659h196l-680 -828l-93 -530h-166z" />
    <glyph glyph-name="ycircumflex" unicode="&#x177;" horiz-adv-x="1072" 
d="M749 1305l-195 -221h-156l340 369h73l210 -369h-156zM141 -420q-101 0 -158 33l43 135q54 -26 131 -26q80 0 144 50t122 156l25 45l-241 987h173l186 -804l462 804h175l-644 -1082q-41 -70 -78.5 -119t-87.5 -92.5t-113 -65t-139 -21.5z" />
    <glyph glyph-name="Ydieresis" unicode="&#x178;" horiz-adv-x="1292" 
d="M1090 1518q-44 0 -66.5 28t-15.5 71q8 44 40 71t76 27t67 -27q22 -28 15 -71q-8 -44 -40.5 -71.5t-75.5 -27.5zM738 1518q-43 0 -66 27.5t-15 71.5q7 43 39 70.5t76 27.5t67 -27q23 -29 16 -71q-8 -44 -40.5 -71.5t-76.5 -27.5zM656 530l-388 828h196l305 -659l537 659
h196l-680 -828l-93 -530h-166z" />
    <glyph glyph-name="Zacute" unicode="&#x179;" horiz-adv-x="1234" 
d="M990 1807h180l-247 -334h-139zM94 0l23 133l1021 1074h-821l26 151h1027l-26 -151l-1010 -1057h835l-26 -150h-1049z" />
    <glyph glyph-name="zacute" unicode="&#x17a;" horiz-adv-x="916" 
d="M767 1447h180l-247 -334h-139zM833 0h-736l24 134l643 689h-515l24 137h700l-23 -134l-644 -689h551z" />
    <glyph glyph-name="Zdotaccent" unicode="&#x17b;" horiz-adv-x="1234" 
d="M877 1517q-43 0 -65.5 27.5t-14.5 71.5q7 43 39 70.5t76 27.5t67 -27q23 -29 16 -71q-7 -44 -40.5 -71.5t-77.5 -27.5zM1169 150l-26 -150h-1049l23 133l1021 1074h-821l26 151h1027l-26 -151l-1010 -1057h835z" />
    <glyph glyph-name="zdotaccent" unicode="&#x17c;" horiz-adv-x="916" 
d="M674 1183q-43 0 -66 27.5t-15 71.5q7 43 39 70.5t76 27.5t67 -27q23 -29 16 -71q-8 -44 -40.5 -71.5t-76.5 -27.5zM833 0h-736l24 134l643 689h-515l24 137h700l-23 -134l-644 -689h551z" />
    <glyph glyph-name="Zcaron" unicode="&#x17d;" horiz-adv-x="1234" 
d="M849 1474l-210 369h156l115 -222l196 222h156l-340 -369h-73zM1143 0h-1049l23 133l1021 1074h-821l26 151h1027l-26 -151l-1010 -1057h835z" />
    <glyph glyph-name="zcaron" unicode="&#x17e;" horiz-adv-x="916" 
d="M610 1089l-210 369h156l115 -222l196 222h156l-340 -369h-73zM857 137l-24 -137h-736l24 134l643 689h-515l24 137h700l-23 -134l-644 -689h551z" />
    <glyph glyph-name="uni018F" unicode="&#x18f;" horiz-adv-x="1552" 
d="M753 -20q-106 0 -195 26.5t-151.5 73t-109 111t-68 141t-27.5 162t12 174.5q4 25 13 62h1178q21 216 -100 355q-121 138 -336 138q-131 0 -253 -57t-221 -165l-112 93q118 133 278.5 208.5t334.5 75.5q187 0 333.5 -87.5t212.5 -255.5q63 -161 29 -356
q-34 -194 -151 -353.5t-293 -252.5t-374 -93zM1374 583h-1001q-5 -137 42 -243q91 -206 365 -206q205 0 367.5 125.5t226.5 323.5z" />
    <glyph glyph-name="florin" unicode="&#x192;" horiz-adv-x="1174" 
d="M66 32l90 128q52 -35 123 -35q81 0 143.5 52t87.5 139l130 434h-189l40 137h189l48 159q46 151 163.5 241.5t274.5 90.5q106 0 174 -52l-90 -128q-53 35 -123 35q-84 0 -149.5 -51.5t-91.5 -139.5l-47 -155h290l-40 -137h-290l-131 -438q-44 -150 -159 -241t-269 -91
q-106 0 -174 52z" />
    <glyph glyph-name="uni019D" unicode="&#x19d;" horiz-adv-x="1592" 
d="M-12 -420q-86 0 -132 27l41 134q43 -20 106 -20q136 0 170 180l256 1457h173l678 -1113l196 1113h165l-239 -1358h-173l-677 1109l-215 -1219q-26 -148 -116 -229t-233 -81z" />
    <glyph glyph-name="Gcaron" unicode="&#x1e6;" horiz-adv-x="1546" 
d="M1089 1474h-73l-210 369h156l115 -222l196 222h156zM794 -20q-185 0 -331.5 88.5t-212.5 255.5q-63 161 -29 355t152 353.5t294.5 252t374.5 92.5q179 0 315.5 -80.5t209.5 -227.5l-145 -94q-128 248 -407 248q-152 0 -286 -73.5t-221.5 -197.5t-113.5 -273
q-29 -152 17 -278t155 -197.5t257 -69.5q109 0 204.5 34t164.5 94q135 119 184 277h-483l26 150h655q0 -3 -8 -62q-52 -285 -267 -466t-505 -181z" />
    <glyph glyph-name="gcaron" unicode="&#x1e7;" horiz-adv-x="1276" 
d="M741 1089l-210 369h156l115 -222l196 222h156l-340 -369h-73zM516 -420q-134 0 -241.5 49t-169.5 140l124 104q111 -148 313 -148q161 0 277.5 83.5t143.5 237.5l20 112q-72 -82 -177 -130t-225 -48q-207 0 -320 144q-113 143 -75 359q24 138 104.5 251t204 179.5
t263.5 66.5q121 0 208 -47t131 -130l27 157h159l-157 -891q-40 -230 -206.5 -359.5t-403.5 -129.5zM344 483q-27 -152 52 -255q80 -104 227 -104q153 0 273 103.5t146 255.5q26 149 -57 251q-84 102 -237 102q-151 0 -264 -101.5t-140 -251.5z" />
    <glyph glyph-name="uni01EA" unicode="&#x1ea;" horiz-adv-x="1596" 
d="M790 -20q-145 1 -264 52t-196 143q-77 91 -106 222.5t-2 281.5q26 149 100 278t181 221.5t246.5 145.5t291.5 53q145 0 265.5 -50.5t197.5 -141.5q78 -92 107.5 -223.5t2.5 -282.5q-45 -254 -217.5 -438.5t-422.5 -240.5q-104 -61 -167 -120.5t-71 -106.5q-8 -41 16 -64
t75 -23q57 0 124 30l18 -117q-82 -46 -188 -46q-105 0 -156 50.5t-36 137.5q22 126 201 239zM395 679q-43 -242 77 -394q120 -151 350 -151q158 0 290.5 72t216.5 195t112 278q42 242 -77 394q-120 150 -350 150q-148 2 -280.5 -66.5t-222.5 -194.5t-116 -283z" />
    <glyph glyph-name="uni01EB" unicode="&#x1eb;" horiz-adv-x="1210" 
d="M569 -19q-205 11 -314 153q-111 142 -75 346q38 214 209 357t389 143q141 2 248 -65t153.5 -183t20.5 -252q-31 -173 -154 -304t-295 -176q-104 -61 -166.5 -120t-70.5 -107q-8 -41 16 -64t75 -23q57 0 124 30l18 -117q-82 -46 -188 -46q-105 0 -156 50.5t-36 137.5
q22 128 202 240zM752 832q-152 0 -269.5 -101t-143.5 -251t56 -250q83 -102 233 -102q151 0 269 101t144 251t-56 251q-83 101 -233 101z" />
    <glyph glyph-name="Aringacute" unicode="&#x1fa;" horiz-adv-x="1365" 
d="M1348 2296l-247 -334h-139l206 334h180zM1193 1692q-16 -88 -86.5 -144t-160.5 -56q-92 0 -142 57q-50 58 -35 143q17 90 86.5 146.5t161.5 56.5q93 0 142 -57q50 -59 34 -146zM878 1692q-8 -44 16 -72t70 -28q45 0 78 28t41 72q8 45 -15 74.5t-68 29.5t-79.5 -29.5
t-42.5 -74.5zM198 0h-174l800 1358h194l323 -1358h-175l-70 315h-715zM891 1186l-434 -730h611z" />
    <glyph glyph-name="aringacute" unicode="&#x1fb;" horiz-adv-x="1105" 
d="M875 1567h-139l206 334h180zM979 1290q-16 -88 -86.5 -144t-160.5 -56q-92 0 -142 57q-50 58 -35 143q17 90 86.5 146.5t161.5 56.5q93 0 142 -57q50 -59 34 -146zM664 1290q-8 -44 16 -72t70 -28q45 0 78 28t41 72q8 45 -15 74.5t-68 29.5t-79.5 -29.5t-42.5 -74.5z
M478 -20q-170 0 -261 78t-67 216q24 134 155 218t318 84q140 0 263 -56l12 70q19 111 -44 177q-63 65 -182 65q-176 0 -322 -142l-86 98q80 88 197.5 140t235.5 52q195 0 294 -102q98 -104 67 -275l-106 -603h-156l26 146q-60 -76 -151.5 -121t-192.5 -45zM312 277
q-14 -77 41.5 -121.5t158.5 -44.5q129 0 230 84t120 193q-46 31 -116.5 47t-136.5 16q-48 0 -93.5 -8.5t-89.5 -27.5t-74.5 -54.5t-39.5 -83.5z" />
    <glyph glyph-name="AEacute" unicode="&#x1fc;" horiz-adv-x="1963" 
d="M1637 1473h-139l206 334h180zM406 315l-251 -315h-185l1075 1358h1034l-26 -150h-769l-77 -435h664l-26 -150h-664l-84 -474h791l-26 -149h-956l56 315h-556zM986 456l133 752l-601 -752h468z" />
    <glyph glyph-name="aeacute" unicode="&#x1fd;" horiz-adv-x="1833" 
d="M1407 1447l-247 -334h-139l206 334h180zM482 -20q-172 0 -263 78q-92 78 -68 216q22 133 155 216q131 82 322 82q145 0 265 -52l12 70q19 111 -45 177q-65 65 -184 65q-177 0 -325 -142l-86 98q80 88 198.5 140t237.5 52q131 0 218 -52t117 -148q83 94 192 147t227 53
q88 0 164 -31.5t129 -88t75.5 -143t4.5 -188.5q-11 -63 -20 -88h-771q-16 -134 59 -225q73 -91 216 -91q183 0 321 161l106 -88q-83 -102 -202.5 -160t-250.5 -58q-129 0 -225 59.5t-142 164.5q-82 -107 -193.5 -165.5t-243.5 -58.5zM1066 572h611q13 117 -57 190t-190 73
q-123 0 -225 -73t-139 -190zM313 277q-14 -77 42 -121.5t161 -44.5q131 0 233 84q101 84 120 193q-48 30 -119.5 45.5t-137.5 15.5t-125 -14t-111 -54.5t-63 -103.5z" />
    <glyph glyph-name="Oslashacute" unicode="&#x1fe;" horiz-adv-x="1596" 
d="M1407 1807l-247 -334h-139l206 334h180zM212 -21l145 166q-94 96 -129 233t-6 301q26 149 100 278t181 221.5t246.5 145.5t291.5 53q185 0 323 -78l147 169l112 -88l-146 -167q94 -95 130 -232.5t7 -301.5q-26 -149 -100 -278t-181 -222t-246.5 -146t-292.5 -53
q-185 0 -324 79l-148 -169zM475 281l774 887q-98 55 -235 55q-148 2 -280.5 -66.5t-222.5 -194.5t-116 -283q-43 -246 80 -398zM1359 1078l-775 -888q104 -56 238 -56q158 0 290.5 72t216.5 195t112 278q43 246 -82 399z" />
    <glyph glyph-name="oslashacute" unicode="&#x1ff;" horiz-adv-x="1210" 
d="M1117 1447l-247 -334h-139l206 334h180zM348 49l-189 -190l-88 83l186 189q-113 143 -77 349q38 214 209 357t389 143q143 0 252 -68l189 191l90 -85l-187 -189q114 -143 78 -349q-38 -214 -209.5 -357t-389.5 -143q-147 0 -253 69zM378 253l534 539q-68 40 -160 40
q-152 0 -269.5 -101t-143.5 -251q-23 -132 39 -227zM1002 708l-536 -539q71 -41 162 -41q151 0 269 101t144 251q24 130 -39 228z" />
    <glyph glyph-name="uni0218" unicode="&#x218;" horiz-adv-x="1216" 
d="M624 -20q-185 0 -309 83t-161 210l140 89q41 -109 131 -170.5t226 -61.5q54 0 109 12t106.5 36t88 67t46.5 98q17 95 -50 150q-68 56 -241 117q-73 26 -122 46.5t-112.5 60t-94.5 82.5q-68 89 -45 217q21 114 101 198t186 124t221 40q188 0 297 -88q94 -76 132 -171
l-145 -94q-44 98 -123.5 150t-187.5 52q-70 0 -133.5 -21t-113.5 -70t-61 -118q-13 -73 31 -124q36 -42 143 -84q21 -9 107 -41q59 -22 93.5 -36t87 -39t91.5 -54.5t66 -64.5q70 -96 46 -230q-28 -158 -183 -262q-155 -103 -367 -103zM556 -513h-132l82 391h171z" />
    <glyph glyph-name="uni0219" unicode="&#x219;" horiz-adv-x="978" 
d="M497 -20q-144 0 -239 56.5t-131 159.5l137 89q28 -77 94.5 -119.5t164.5 -42.5q36 0 72 7t72 21.5t61.5 42t31.5 64.5q11 65 -32 94q-44 30 -169 59q-155 36 -233 94q-90 66 -66 199q16 89 81.5 154t149.5 93.5t175 28.5q49 0 97.5 -10.5t93.5 -31t80.5 -55.5t54.5 -81
l-124 -90q-65 125 -227 125q-91 0 -151.5 -35.5t-71.5 -94.5q-5 -43 9 -68t57 -43q59 -24 146 -45q154 -39 230 -98q84 -67 60 -195q-11 -69 -54.5 -123.5t-104.5 -87.5t-129 -50t-135 -17zM566 -122l-121 -391h-132l82 391h171z" />
    <glyph glyph-name="uni021A" unicode="&#x21a;" horiz-adv-x="1157" 
d="M496 0l212 1204h-454l27 154h1073l-27 -154h-454l-212 -1204h-165zM517 -513h-132l82 391h171z" />
    <glyph glyph-name="uni021B" unicode="&#x21b;" horiz-adv-x="789" 
d="M375 823h-177l24 137h178l55 308h157l-55 -308h317l-24 -137h-316l-91 -519q-17 -89 19 -135t115 -46q92 0 170 37l-3 -137q-36 -18 -95 -30.5t-115 -12.5q-144 0 -212.5 78t-42.5 220zM511 -122l-121 -391h-132l82 391h171z" />
    <glyph glyph-name="uni0232" unicode="&#x232;" horiz-adv-x="1292" 
d="M1237 1671l-22 -125h-591l22 125h591zM656 530l-388 828h196l305 -659l537 659h196l-680 -828l-93 -530h-166z" />
    <glyph glyph-name="uni0233" unicode="&#x233;" horiz-adv-x="1072" 
d="M1066 1335l-22 -125h-591l22 125h591zM-17 -387l43 135q54 -26 131 -26q80 0 144 50t122 156l25 45l-241 987h173l186 -804l462 804h175l-644 -1082q-41 -70 -78.5 -119t-87.5 -92.5t-113 -65t-139 -21.5q-101 0 -158 33z" />
    <glyph glyph-name="uni0237" unicode="&#x237;" horiz-adv-x="500" 
d="M-43 -420q-93 0 -146 27l41 134q51 -20 120 -20q153 0 188 195l184 1044h159l-186 -1055q-27 -155 -120.5 -240t-239.5 -85z" />
    <glyph glyph-name="uni0259" unicode="&#x259;" horiz-adv-x="1150" 
d="M551 -20q-90 0 -168 31.5t-132 88.5q-56 57 -78.5 143.5t-4.5 187.5q9 51 21 88h791q15 134 -62 226q-78 90 -224 90q-190 0 -331 -161l-106 88q85 103 207.5 160.5t255.5 57.5q139 2 244 -65t150.5 -183t19.5 -252q-25 -136 -109 -250.5t-209.5 -182t-264.5 -67.5z
M950 388h-631q-12 -117 61 -190q72 -73 196 -73q126 0 231 72.5t143 190.5z" />
    <glyph glyph-name="uni0272" unicode="&#x272;" horiz-adv-x="1205" 
d="M-32 -420q-82 0 -129 27l41 134q43 -20 103 -20q133 0 168 195l184 1044h160l-25 -144q61 78 154.5 121t195.5 43q190 0 279 -105q89 -107 56 -291l-103 -584h-159l96 545q25 138 -32 211.5t-189 73.5q-129 0 -227 -81t-120 -207l-113 -637q-27 -155 -115 -240t-225 -85z
" />
    <glyph glyph-name="circumflex" unicode="&#x2c6;" horiz-adv-x="915" 
d="M756 1692l-195 -221h-156l340 369h73l210 -369h-156z" />
    <glyph glyph-name="caron" unicode="&#x2c7;" horiz-adv-x="915" 
d="M681 1474l-210 369h156l115 -222l196 222h156l-340 -369h-73z" />
    <glyph glyph-name="breve" unicode="&#x2d8;" horiz-adv-x="816" 
d="M990 1760q-28 -120 -113.5 -194t-205.5 -74q-117 0 -178 73q-62 74 -47 195h136q-5 -66 25 -105.5t86 -39.5q57 0 101 39.5t60 105.5h136z" />
    <glyph glyph-name="dotaccent" unicode="&#x2d9;" horiz-adv-x="490" 
d="M511 1517q-43 0 -65.5 27.5t-14.5 71.5q7 43 39 70.5t76 27.5t67 -27q23 -29 16 -71q-7 -44 -40.5 -71.5t-77.5 -27.5z" />
    <glyph glyph-name="ring" unicode="&#x2da;" horiz-adv-x="716" 
d="M868 1692q-16 -88 -86.5 -144t-160.5 -56q-93 0 -142 57q-50 58 -35 143q17 90 86.5 146.5t161.5 56.5t142 -57q50 -59 34 -146zM553 1692q-8 -44 16 -72t70 -28q45 0 78 28t41 72q8 45 -15 74.5t-68 29.5t-79.5 -29.5t-42.5 -74.5z" />
    <glyph glyph-name="ogonek" unicode="&#x2db;" horiz-adv-x="645" 
d="M273 -447q-105 0 -156 50.5t-36 137.5q9 48 40 94.5t76 83.5t90 64.5t93 49.5l86 -33q-104 -61 -167 -120.5t-71 -106.5q-8 -41 16 -64t75 -23q57 0 124 30l18 -117q-82 -46 -188 -46z" />
    <glyph glyph-name="tilde" unicode="&#x2dc;" horiz-adv-x="960" 
d="M501 1534l-72 71q117 143 233 143q39 1 82.5 -20t82.5 -42t68 -20q40 0 72 18.5t73 62.5l69 -76q-59 -70 -115 -103.5t-122 -33.5q-47 -2 -123.5 39.5t-105.5 39.5q-37 0 -65.5 -16.5t-76.5 -62.5z" />
    <glyph glyph-name="hungarumlaut" unicode="&#x2dd;" horiz-adv-x="953" 
d="M864 1473h-134l211 334h185zM801 1807l-262 -334h-133l211 334h184z" />
    <glyph glyph-name="acutecomb" unicode="&#x301;" horiz-adv-x="619" 
d="M694 2277h180l-246 -334h-139z" />
    <glyph glyph-name="uni030A" unicode="&#x30a;" horiz-adv-x="716" 
d="M868 1692q-16 -88 -86.5 -144t-160.5 -56q-93 0 -142 57q-50 58 -35 143q17 90 86.5 146.5t161.5 56.5t142 -57q50 -59 34 -146zM553 1692q-8 -44 16 -72t70 -28q45 0 78 28t41 72q8 45 -15 74.5t-68 29.5t-79.5 -29.5t-42.5 -74.5z" />
    <glyph glyph-name="dotbelowcomb" unicode="&#x323;" horiz-adv-x="490" 
d="M177 -381q-43 0 -66 27.5t-15 71.5t40.5 71t75.5 27q44 0 67 -27.5t15 -70.5q-7 -43 -40 -71t-77 -28z" />
    <glyph glyph-name="uni0326" unicode="&#x326;" horiz-adv-x="477" 
d="M188 -513h-132l82 391h171z" />
    <glyph glyph-name="uni03BC" unicode="&#x3bc;" horiz-adv-x="1214" 
d="M344 35l-77 -435h-159l116 659q-3 49 8 116l103 585h158l-96 -546q-25 -138 31.5 -211t186.5 -73t228 80t120 207l95 543h159l-169 -960h-159l25 144q-56 -74 -149.5 -119t-201.5 -45q-134 0 -219 55z" />
    <glyph glyph-name="pi" unicode="&#x3c0;" horiz-adv-x="1277" 
d="M403 938h-187l28 157h1133l-28 -157h-189l-108 -612q-20 -115 7 -158q27 -44 119 -44h21l-25 -140q-15 -3 -52 -3q-137 0 -197.5 75.5t-32.5 232.5l114 649h-448l-165 -938h-155z" />
    <glyph glyph-name="Wgrave" unicode="&#x1e80;" horiz-adv-x="2050" 
d="M1199 1473l-129 334h180l88 -334h-139zM446 0l-163 1358h169l147 -1189l576 1178h176l160 -1178l565 1189h169l-641 -1358h-241l-143 1106l-533 -1106h-241z" />
    <glyph glyph-name="wgrave" unicode="&#x1e81;" horiz-adv-x="1609" 
d="M1049 1121h-139l-129 334h180zM566 0h-213l-131 960h169l96 -808l401 798h169l119 -799l381 809h168l-468 -960h-213l-111 728z" />
    <glyph glyph-name="Wacute" unicode="&#x1e82;" horiz-adv-x="2050" 
d="M1612 1807l-247 -334h-139l206 334h180zM446 0l-163 1358h169l147 -1189l576 1178h176l160 -1178l565 1189h169l-641 -1358h-241l-143 1106l-533 -1106h-241z" />
    <glyph glyph-name="wacute" unicode="&#x1e83;" horiz-adv-x="1609" 
d="M1093 1113h-139l206 334h180zM566 0h-213l-131 960h169l96 -808l401 798h169l119 -799l381 809h168l-468 -960h-213l-111 728z" />
    <glyph glyph-name="Wdieresis" unicode="&#x1e84;" horiz-adv-x="2050" 
d="M1469 1518q-44 0 -66.5 28t-15.5 71q8 44 40 71t76 27q45 0 67 -27q22 -28 15 -71q-8 -44 -40.5 -71.5t-75.5 -27.5zM1117 1518q-43 0 -66 27.5t-15 71.5q7 43 39 70.5t76 27.5q45 0 67 -27q23 -29 16 -71q-8 -44 -40.5 -71.5t-76.5 -27.5zM446 0l-163 1358h169
l147 -1189l576 1178h176l160 -1178l565 1189h169l-641 -1358h-241l-143 1106l-533 -1106h-241z" />
    <glyph glyph-name="wdieresis" unicode="&#x1e85;" horiz-adv-x="1609" 
d="M1188 1181q-44 0 -66.5 28t-14.5 71q7 43 39.5 70.5t76.5 27.5t66.5 -27.5t15.5 -70.5q-8 -44 -41 -71.5t-76 -27.5zM836 1181q-43 0 -65.5 27.5t-14.5 71.5q7 43 39 70.5t76 27.5t67 -27.5t16 -70.5q-8 -43 -41 -71t-77 -28zM566 0h-213l-131 960h169l96 -808l401 798
h169l119 -799l381 809h168l-468 -960h-213l-111 728z" />
    <glyph glyph-name="Germandbls" unicode="&#x1e9e;" horiz-adv-x="1412" 
d="M339 0h-165l146 830q27 160 122 286t238 195t307 67q92 0 176.5 -24.5t157 -82.5t103.5 -142l-12 -69l-459 -332h63q190 0 291 -97q101 -98 73 -255q-21 -121 -95.5 -212t-180.5 -137.5t-229 -46.5q-115 0 -219 55t-141 155l139 89q29 -69 99.5 -109t148.5 -40
q116 0 202.5 64.5t106.5 175.5q18 100 -49 161t-189 61h-259l22 122l511 385q-35 64 -120.5 96t-171.5 32q-179 0 -309.5 -112.5t-161.5 -289.5z" />
    <glyph glyph-name="uni1EA0" unicode="&#x1ea0;" horiz-adv-x="1365" 
d="M381 315l-183 -315h-174l800 1358h194l323 -1358h-175l-70 315h-715zM1068 456l-177 730l-434 -730h611zM615 -381q-43 0 -66 27.5t-15 71.5t40.5 71t75.5 27q44 0 67 -27.5t15 -70.5q-7 -43 -40 -71t-77 -28z" />
    <glyph glyph-name="uni1EA1" unicode="&#x1ea1;" horiz-adv-x="1105" 
d="M478 -20q-170 0 -261 78t-67 216q24 134 155 218t318 84q140 0 263 -56l12 70q19 111 -44 177q-63 65 -182 65q-176 0 -322 -142l-86 98q80 88 197.5 140t235.5 52q195 0 294 -102q98 -104 67 -275l-106 -603h-156l26 146q-60 -76 -151.5 -121t-192.5 -45zM312 277
q-14 -77 41.5 -121.5t158.5 -44.5q129 0 230 84t120 193q-46 31 -116.5 47t-136.5 16q-48 0 -93.5 -8.5t-89.5 -27.5t-74.5 -54.5t-39.5 -83.5zM467 -381q-43 0 -66 27.5t-15 71.5t40.5 71t75.5 27q44 0 67 -27.5t15 -70.5q-7 -43 -40 -71t-77 -28z" />
    <glyph glyph-name="uni1EB8" unicode="&#x1eb8;" horiz-adv-x="1246" 
d="M1171 149l-26 -149h-955l239 1358h934l-26 -150h-769l-77 -435h664l-26 -150h-664l-84 -474h790zM644 -381q-43 0 -66 27.5t-15 71.5t40.5 71t75.5 27q44 0 67 -27.5t15 -70.5q-7 -43 -40 -71t-77 -28z" />
    <glyph glyph-name="uni1EB9" unicode="&#x1eb9;" horiz-adv-x="1150" 
d="M594 -20q-139 -2 -244 65t-150.5 183t-18.5 252q37 208 204.5 354t377.5 146q185 0 301 -119q55 -58 77.5 -144.5t4.5 -187.5q-11 -63 -20 -88h-791q-16 -134 62 -225q76 -91 223 -91q190 0 331 161l106 -88q-85 -103 -207 -160.5t-256 -57.5zM738 835
q-126 0 -230.5 -72.5t-143.5 -190.5h631q13 117 -60 190t-197 73zM516 -381q-43 0 -66 27.5t-15 71.5t40.5 71t75.5 27q44 0 67 -27.5t15 -70.5q-7 -43 -40 -71t-77 -28z" />
    <glyph glyph-name="uni1EBC" unicode="&#x1ebc;" horiz-adv-x="1246" 
d="M681 1534l-72 71q117 143 233 143q39 1 82.5 -20t82.5 -42t68 -20q40 0 72 18.5t73 62.5l69 -76q-59 -70 -115 -103.5t-122 -33.5q-47 -2 -123.5 39.5t-105.5 39.5q-37 0 -65.5 -16.5t-76.5 -62.5zM1145 0h-955l239 1358h934l-26 -150h-769l-77 -435h664l-26 -150h-664
l-84 -474h790z" />
    <glyph glyph-name="uni1EBD" unicode="&#x1ebd;" horiz-adv-x="1150" 
d="M524 1174l-72 71q116 143 233 143q39 1 82 -20t82 -42t68 -20q40 0 71.5 18t74.5 63l68 -76q-59 -71 -114.5 -104t-121.5 -33q-47 -2 -123.5 39.5t-105.5 39.5q-37 0 -65.5 -16.5t-76.5 -62.5zM594 -20q-139 -2 -244 65t-150.5 183t-18.5 252q37 208 204.5 354t377.5 146
q185 0 301 -119q55 -58 77.5 -144.5t4.5 -187.5q-11 -63 -20 -88h-791q-16 -134 62 -225q76 -91 223 -91q190 0 331 161l106 -88q-85 -103 -207 -160.5t-256 -57.5zM364 572h631q13 117 -60 190t-197 73q-126 0 -230.5 -72.5t-143.5 -190.5z" />
    <glyph glyph-name="uni1ECA" unicode="&#x1eca;" horiz-adv-x="545" 
d="M594 1358l-239 -1358h-165l239 1358h165zM205 -381q-43 0 -66 27.5t-15 71.5t40.5 71t75.5 27q44 0 67 -27.5t15 -70.5q-7 -43 -40 -71t-77 -28z" />
    <glyph glyph-name="uni1ECB" unicode="&#x1ecb;" horiz-adv-x="491" 
d="M454 1183q-43 0 -66 27.5t-15 71.5q7 43 39 70.5t76 27.5t67 -27q23 -29 16 -71q-8 -44 -40.5 -71.5t-76.5 -27.5zM325 0h-159l169 960h159zM178 -381q-43 0 -66 27.5t-15 71.5t40.5 71t75.5 27q44 0 67 -27.5t15 -70.5q-7 -43 -40 -71t-77 -28z" />
    <glyph glyph-name="uni1ECC" unicode="&#x1ecc;" horiz-adv-x="1596" 
d="M794 -20q-145 0 -265 50.5t-197 142.5q-78 92 -107.5 223.5t-2.5 282.5q26 149 100 278t181 221.5t246.5 145.5t291.5 53q145 0 265.5 -50.5t197.5 -141.5q78 -92 107.5 -223.5t2.5 -282.5q-26 -149 -100 -278t-181 -222t-246.5 -146t-292.5 -53zM395 679
q-43 -242 77 -394q120 -151 350 -151q158 0 290.5 72t216.5 195t112 278q42 242 -77 394q-120 150 -350 150q-148 2 -280.5 -66.5t-222.5 -194.5t-116 -283zM730 -381q-43 0 -66 27.5t-15 71.5t40.5 71t75.5 27q44 0 67 -27.5t15 -70.5q-7 -43 -40 -71t-77 -28z" />
    <glyph glyph-name="uni1ECD" unicode="&#x1ecd;" horiz-adv-x="1210" 
d="M601 -20q-141 -2 -248 65t-153.5 183t-19.5 252q38 214 209 357t389 143q141 2 248 -65t153.5 -183t20.5 -252q-38 -214 -209.5 -357t-389.5 -143zM752 832q-152 0 -269.5 -101t-143.5 -251t56 -250q83 -102 233 -102q151 0 269 101t144 251t-56 251q-83 101 -233 101z
M537 -381q-43 0 -66 27.5t-15 71.5t40.5 71t75.5 27q44 0 67 -27.5t15 -70.5q-7 -43 -40 -71t-77 -28z" />
    <glyph glyph-name="uni1EE4" unicode="&#x1ee4;" horiz-adv-x="1486" 
d="M1397 485q-28 -161 -124.5 -277t-233 -172t-300.5 -56q-260 0 -389 137q-130 136 -89 368l153 873h165l-152 -864q-29 -164 63 -261q92 -98 277 -98q177 0 306.5 94.5t159.5 264.5l152 864h165zM675 -381q-43 0 -66 27.5t-15 71.5t40.5 71t75.5 27q44 0 67 -27.5
t15 -70.5q-7 -43 -40 -71t-77 -28z" />
    <glyph glyph-name="uni1EE5" unicode="&#x1ee5;" horiz-adv-x="1201" 
d="M550 -20q-186 0 -275 105q-88 104 -56 290l103 585h158l-96 -546q-25 -138 31.5 -211t186.5 -73t228 80t120 207l95 543h159l-169 -960h-159l25 144q-56 -74 -149.5 -119t-201.5 -45zM516 -381q-43 0 -66 27.5t-15 71.5t40.5 71t75.5 27q44 0 67 -27.5t15 -70.5
q-7 -43 -40 -71t-77 -28z" />
    <glyph glyph-name="Ygrave" unicode="&#x1ef2;" horiz-adv-x="1292" 
d="M833 1473l-129 334h180l88 -334h-139zM563 0l93 530l-388 828h196l305 -659l537 659h196l-680 -828l-93 -530h-166z" />
    <glyph glyph-name="ygrave" unicode="&#x1ef3;" horiz-adv-x="1072" 
d="M787 1121h-139l-129 334h180zM-17 -387l43 135q54 -26 131 -26q80 0 144 50t122 156l25 45l-241 987h173l186 -804l462 804h175l-644 -1082q-41 -70 -78.5 -119t-87.5 -92.5t-113 -65t-139 -21.5q-101 0 -158 33z" />
    <glyph glyph-name="uni1EF8" unicode="&#x1ef8;" horiz-adv-x="1292" 
d="M667 1534l-72 71q117 143 233 143q39 1 82.5 -20t82.5 -42t68 -20q40 0 72 18.5t73 62.5l69 -76q-59 -70 -115 -103.5t-122 -33.5q-47 -2 -123.5 39.5t-105.5 39.5q-37 0 -65.5 -16.5t-76.5 -62.5zM656 530l-388 828h196l305 -659l537 659h196l-680 -828l-93 -530h-166z
" />
    <glyph glyph-name="uni1EF9" unicode="&#x1ef9;" horiz-adv-x="1072" 
d="M479 1174l-72 71q116 143 233 143q39 1 82 -20t82 -42t68 -20q40 0 71.5 18t74.5 63l68 -76q-59 -71 -114.5 -104t-121.5 -33q-47 -2 -123.5 39.5t-105.5 39.5q-37 0 -65.5 -16.5t-76.5 -62.5zM141 -420q-101 0 -158 33l43 135q54 -26 131 -26q80 0 144 50t122 156l25 45
l-241 987h173l186 -804l462 804h175l-644 -1082q-41 -70 -78.5 -119t-87.5 -92.5t-113 -65t-139 -21.5z" />
    <glyph glyph-name="uni2000" unicode="&#x2000;" horiz-adv-x="1148" 
 />
    <glyph glyph-name="uni2001" unicode="&#x2001;" horiz-adv-x="2296" 
 />
    <glyph glyph-name="uni2002" unicode="&#x2002;" horiz-adv-x="1148" 
 />
    <glyph glyph-name="uni2003" unicode="&#x2003;" horiz-adv-x="2296" 
 />
    <glyph glyph-name="uni2004" unicode="&#x2004;" horiz-adv-x="765" 
 />
    <glyph glyph-name="uni2005" unicode="&#x2005;" horiz-adv-x="574" 
 />
    <glyph glyph-name="uni2006" unicode="&#x2006;" horiz-adv-x="382" 
 />
    <glyph glyph-name="uni2007" unicode="&#x2007;" horiz-adv-x="382" 
 />
    <glyph glyph-name="uni2008" unicode="&#x2008;" horiz-adv-x="287" 
 />
    <glyph glyph-name="uni2009" unicode="&#x2009;" horiz-adv-x="459" 
 />
    <glyph glyph-name="uni200A" unicode="&#x200a;" horiz-adv-x="127" 
 />
    <glyph glyph-name="uni2010" unicode="&#x2010;" horiz-adv-x="936" 
d="M255 652h656l-27 -152h-656z" />
    <glyph glyph-name="uni2011" unicode="&#x2011;" horiz-adv-x="936" 
d="M255 652h656l-27 -152h-656z" />
    <glyph glyph-name="figuredash" unicode="&#x2012;" horiz-adv-x="936" 
d="M255 652h656l-27 -152h-656z" />
    <glyph glyph-name="endash" unicode="&#x2013;" horiz-adv-x="1266" 
d="M255 652h986l-27 -152h-986z" />
    <glyph glyph-name="emdash" unicode="&#x2014;" horiz-adv-x="2308" 
d="M255 652h2028l-27 -152h-2028z" />
    <glyph glyph-name="quoteleft" unicode="&#x2018;" horiz-adv-x="462" 
d="M642 1428l-205 -475h-179l238 475h146z" />
    <glyph glyph-name="quoteright" unicode="&#x2019;" horiz-adv-x="453" 
d="M266 953l205 475h178l-238 -475h-145z" />
    <glyph glyph-name="quotesinglbase" unicode="&#x201a;" horiz-adv-x="448" 
d="M-18 -269l205 475h178l-237 -475h-146z" />
    <glyph glyph-name="quotedblleft" unicode="&#x201c;" horiz-adv-x="777" 
d="M957 1428l-205 -475h-179l238 475h146zM642 1428l-205 -475h-179l238 475h146z" />
    <glyph glyph-name="quotedblright" unicode="&#x201d;" horiz-adv-x="768" 
d="M726 953h-145l205 475h178zM411 953h-145l205 475h178z" />
    <glyph glyph-name="quotedblbase" unicode="&#x201e;" horiz-adv-x="768" 
d="M442 -272h-146l205 475h179zM127 -272h-146l205 475h179z" />
    <glyph glyph-name="dagger" unicode="&#x2020;" horiz-adv-x="768" 
d="M523 1187h-232l22 124h232l52 296h139l-52 -296h234l-22 -124h-234l-120 -680h-139z" />
    <glyph glyph-name="daggerdbl" unicode="&#x2021;" horiz-adv-x="839" 
d="M433 477l45 254h-232l22 124h232l71 405h-232l22 124h232l45 254h139l-45 -254h234l-22 -124h-234l-71 -405h234l-22 -124h-234l-45 -254h-139z" />
    <glyph glyph-name="bullet" unicode="&#x2022;" horiz-adv-x="631" 
d="M402 496q-76 0 -116 51q-42 50 -29 125q14 75 73.5 126t134.5 51q76 0 118 -51t28 -126t-73.5 -125.5t-135.5 -50.5z" />
    <glyph glyph-name="ellipsis" unicode="&#x2026;" horiz-adv-x="1257" 
d="M1162 85q-8 -42 -41 -70.5t-76 -28.5q-44 0 -66 29q-22 28 -15 70q8 42 40.5 70.5t74.5 28.5q43 0 67 -28.5t16 -70.5zM742 85q-8 -42 -40.5 -70.5t-75.5 -28.5q-44 0 -66 29q-24 28 -16 70t40.5 70.5t75.5 28.5t67 -28q23 -29 15 -71zM323 85q-8 -42 -40.5 -70.5
t-75.5 -28.5q-44 0 -66 29q-24 28 -16 70t40.5 70.5t75.5 28.5t67 -28q23 -29 15 -71z" />
    <glyph glyph-name="uni202F" unicode="&#x202f;" horiz-adv-x="459" 
 />
    <glyph glyph-name="perthousand" unicode="&#x2030;" horiz-adv-x="2667" 
d="M987 1018q-28 -154 -151 -257t-280 -103t-243 104q-87 104 -60 256q26 155 149.5 257.5t280.5 102.5t244 -103q86 -104 60 -257zM1579 1334l-967 -1334h-126l5 26l968 1332h124zM660 1247q-98 0 -174.5 -66t-93.5 -163q-16 -97 36 -163q53 -66 151 -66q99 0 176 65.5
t94 163.5t-37 163q-54 66 -152 66zM1817 340q-28 -154 -151 -257t-280 -103t-243 104q-87 104 -60 256q28 155 150 257.5t280 102.5q157 0 244 -103q87 -104 60 -257zM2651 340q-28 -154 -151 -257t-280 -103t-243 104q-87 104 -60 256q28 155 150 257.5t280 102.5
q157 0 244 -103q87 -104 60 -257zM1490 569q-98 0 -174.5 -66t-93.5 -163q-17 -98 37 -163q53 -66 151 -66t175 66t94 163q16 97 -36 163q-54 66 -153 66zM2324 569q-98 0 -174.5 -66t-93.5 -163q-17 -98 37 -163q53 -66 151 -66t175 66t94 163q16 97 -36 163
q-54 66 -153 66z" />
    <glyph glyph-name="guilsinglleft" unicode="&#x2039;" horiz-adv-x="654" 
d="M375 480l189 -394h-170l-202 394l341 395h170z" />
    <glyph glyph-name="guilsinglright" unicode="&#x203a;" horiz-adv-x="654" 
d="M632 480l-342 -394h-170l329 394l-190 395h170z" />
    <glyph glyph-name="fraction" unicode="&#x2044;" horiz-adv-x="367" 
d="M-117 0h-126l5 26l968 1332h124l-4 -24z" />
    <glyph glyph-name="uni205F" unicode="&#x205f;" horiz-adv-x="574" 
 />
    <glyph glyph-name="uni2070" unicode="&#x2070;" horiz-adv-x="857" 
d="M922 946q-15 -84 -47 -158.5t-82 -137.5t-123 -99.5t-161 -36.5q-156 0 -226 118q-71 117 -36 314q15 84 47.5 159t82.5 137.5t123.5 99t160.5 36.5q155 0 226 -117q70 -116 35 -315zM641 1262q-57 0 -103.5 -30t-77 -79.5t-49.5 -101t-28 -105.5q-26 -146 14 -230
q39 -86 132 -86q56 0 103 30t77.5 79.5t50 101t28.5 105.5q26 146 -15 231q-40 85 -132 85z" />
    <glyph glyph-name="uni2074" unicode="&#x2074;" horiz-adv-x="795" 
d="M605 751h-415l19 106l477 501h155l-87 -496h124l-19 -110h-124l-39 -218h-129zM684 1198l-320 -336h261z" />
    <glyph glyph-name="uni2075" unicode="&#x2075;" horiz-adv-x="746" 
d="M441 514q-102 0 -171 49.5t-89 139.5l121 60q11 -61 53.5 -97t105.5 -36q71 0 127.5 44.5t67.5 114.5q13 71 -24.5 116t-116.5 45q-82 0 -156 -59l-96 40l115 427h474l-20 -118h-360l-57 -210q59 32 133 32q128 0 197 -75q68 -76 46 -198q-21 -124 -121.5 -199.5
t-228.5 -75.5z" />
    <glyph glyph-name="uni2076" unicode="&#x2076;" horiz-adv-x="800" 
d="M486 514q-68 0 -119.5 22t-79.5 59.5t-44.5 87t-15.5 104t9 110.5q18 103 53.5 187t92 151.5t141.5 105t191 37.5q51 0 108.5 -16t95.5 -43l-64 -102q-80 45 -162 45q-103 0 -182.5 -66t-117.5 -190q80 83 211 83q126 0 195 -80q68 -80 47 -199q-25 -139 -129 -217
q-104 -79 -230 -79zM362 803q-14 -72 30 -123q43 -51 116 -51q78 0 135.5 49.5t71.5 127.5q13 70 -26 122q-39 50 -120 50q-75 -2 -134.5 -52t-72.5 -123z" />
    <glyph glyph-name="uni2077" unicode="&#x2077;" horiz-adv-x="679" 
d="M374 534h-143q201 372 474 705h-406l21 119h558l-17 -104q-307 -377 -487 -720z" />
    <glyph glyph-name="uni2078" unicode="&#x2078;" horiz-adv-x="790" 
d="M459 514q-137 0 -208 67q-72 66 -53 175q25 141 178 204q-100 61 -77 189q19 111 106.5 170t205.5 59q125 0 188.5 -62t45.5 -167q-22 -125 -145 -189q65 -30 92 -83.5t15 -120.5q-14 -80 -69 -136t-126.5 -81t-152.5 -25zM427 1143q-11 -61 21.5 -97.5t97.5 -36.5
q67 0 113 36.5t57 97.5q9 55 -25 91t-99 36q-63 0 -109.5 -36t-55.5 -91zM330 765q-11 -63 30 -103t118 -40q72 0 131 38t70 105q11 63 -30.5 100.5t-121.5 37.5q-78 0 -132 -37.5t-65 -100.5z" />
    <glyph glyph-name="uni2079" unicode="&#x2079;" horiz-adv-x="799" 
d="M231 573l64 102q79 -45 162 -45q103 0 182 66t117 190q-78 -83 -210 -83q-126 0 -194 80q-69 80 -48 199q22 131 123.5 213.5t235.5 82.5q68 0 119.5 -22t79.5 -59.5t44.5 -87t15 -104t-9.5 -110.5q-18 -103 -53.5 -187t-91.5 -151.5t-140.5 -105t-191.5 -37.5
q-48 0 -108 17t-96 42zM433 1086q-12 -71 27 -121q37 -51 119 -51q75 2 135 51.5t73 123.5q13 73 -30 124q-44 50 -116 50q-78 0 -136.5 -50t-71.5 -127z" />
    <glyph glyph-name="uni2080" unicode="&#x2080;" horiz-adv-x="857" 
d="M839 412q-15 -84 -47.5 -159t-82.5 -137.5t-123.5 -99t-160.5 -36.5q-155 0 -225 117t-36 315q15 84 47.5 159t82.5 137.5t123.5 99t160.5 36.5q156 0 226 -117q70 -116 35 -315zM557 728q-57 0 -103.5 -30t-76.5 -79.5t-48.5 -101t-28.5 -105.5q-26 -146 14 -230
q39 -86 132 -86q56 0 103 30t77.5 79.5t50 101t28.5 105.5q26 144 -15 230t-133 86z" />
    <glyph glyph-name="uni2081" unicode="&#x2081;" horiz-adv-x="505" 
d="M173 706l21 118h319l-145 -824h-131l124 706h-188z" />
    <glyph glyph-name="uni2082" unicode="&#x2082;" horiz-adv-x="744" 
d="M675 121l-21 -121h-565l10 56q19 101 96 170q50 46 159 118l72 47q92 60 123 91q48 45 59 102q12 65 -24 104.5t-104 39.5q-56 0 -105 -36t-80 -97l-101 57q46 87 129.5 139.5t180.5 52.5q122 0 191 -70q69 -71 48 -188q-9 -84 -88 -163q-13 -15 -52 -44q-23 -17 -53 -37
l-15 -10t-23 -15t-25 -16l-55 -35q-152 -97 -174 -145h417z" />
    <glyph glyph-name="uni2083" unicode="&#x2083;" horiz-adv-x="753" 
d="M108 169l120 60q13 -61 56 -97t106 -36q64 0 115 35t62 95q11 63 -31 102t-117 39h-109l19 109h109q68 0 117 33.5t60 92.5t-24 92.5t-99 33.5q-62 0 -113.5 -35t-84.5 -92l-99 60q50 86 135.5 134.5t184.5 48.5q115 0 183 -63q68 -65 49 -177q-11 -62 -53 -110t-102 -70
q57 -20 89 -77q31 -56 19 -123q-13 -75 -63.5 -131.5t-119.5 -84.5t-145 -28q-105 0 -175 50t-89 139z" />
    <glyph glyph-name="uni2084" unicode="&#x2084;" horiz-adv-x="797" 
d="M512 217h-415l19 106l477 501h155l-87 -496h124l-20 -110h-124l-38 -218h-129zM591 664l-320 -336h261z" />
    <glyph glyph-name="uni2085" unicode="&#x2085;" horiz-adv-x="746" 
d="M357 -20q-103 0 -171.5 50t-87.5 139l120 60q12 -61 54.5 -97t105.5 -36q72 0 127 44.5t68 114.5q12 71 -25.5 116t-116.5 45q-81 0 -155 -59l-96 40l115 427h474l-21 -118h-360l-57 -210q61 32 134 32q128 0 197 -75q68 -76 46 -198q-21 -124 -122 -199.5t-229 -75.5z
" />
    <glyph glyph-name="uni2086" unicode="&#x2086;" horiz-adv-x="801" 
d="M405 -20q-68 0 -119.5 22t-79.5 59.5t-44 87t-15 104t9 110.5q18 103 53.5 187t92 151.5t141.5 105t191 37.5q51 0 108 -16t95 -43l-64 -102q-79 45 -162 45q-103 0 -182 -66t-117 -190q80 83 211 83q126 0 195 -80q68 -80 47 -199q-25 -132 -125.5 -214t-234.5 -82z
M281 269q-13 -71 31 -123q44 -51 116 -51q78 0 135.5 49.5t71.5 127.5q13 70 -26 122q-39 50 -120 50q-75 -2 -135 -51.5t-73 -123.5z" />
    <glyph glyph-name="uni2087" unicode="&#x2087;" horiz-adv-x="680" 
d="M266 0h-143q201 372 474 705h-406l21 119h558l-17 -104q-307 -377 -487 -720z" />
    <glyph glyph-name="uni2088" unicode="&#x2088;" horiz-adv-x="791" 
d="M390 -20q-137 0 -207 67q-72 66 -53 175q25 141 178 204q-100 62 -78 189q21 111 108 170t205 59q124 0 189 -62q64 -62 44 -167q-22 -126 -144 -189q65 -30 92 -83.5t15 -120.5q-14 -80 -69 -136.5t-126.5 -81t-153.5 -24.5zM358 609q-10 -61 22.5 -97.5t97.5 -36.5
q66 0 112 36.5t57 97.5q10 55 -24 91t-99 36q-63 0 -109.5 -36t-56.5 -91zM262 231q-11 -63 30 -103t118 -40q72 0 131 38t70 105q11 63 -30.5 100.5t-121.5 37.5q-78 0 -132 -37.5t-65 -100.5z" />
    <glyph glyph-name="uni2089" unicode="&#x2089;" horiz-adv-x="801" 
d="M324 -20q-54 0 -112 15.5t-96 43.5l64 102l6 -3l2 3q76 -43 158 -45q99 2 176 64.5t115 179.5q-79 -71 -207 -71q-126 0 -194 80t-47 199q24 135 126 215.5t241 80.5q68 0 119.5 -22t79.5 -59.5t44 -87t15 -104t-9 -110.5q-36 -206 -147 -339q-119 -144 -334 -142z
M326 552q-12 -70 26 -120q38 -51 115 -52q73 1 132 52t73 123q13 71 -28 122q-43 51 -114 52q-77 -1 -134 -51t-70 -126z" />
    <glyph glyph-name="Euro" unicode="&#x20ac;" horiz-adv-x="1460" 
d="M356 502h-157l21 121h144q6 59 21 117h-145l21 118h159q41 110 105 203.5t148 164.5t191 111.5t225 40.5q164 0 285 -84.5t166 -239.5l-155 -81q-33 116 -118.5 183t-204.5 67q-160 0 -278.5 -102t-182.5 -263h539l-21 -118h-555q-15 -56 -21 -117h556l-21 -121h-540
q5 -106 41.5 -187t112 -130.5t182.5 -49.5q121 0 231 65.5t189 180.5l119 -77q-91 -147 -244 -235.5t-323 -88.5q-232 0 -360 143.5t-130 378.5z" />
    <glyph glyph-name="trademark" unicode="&#x2122;" horiz-adv-x="1415" 
d="M865 818h-85l104 590h99l134 -433l285 433h99l-104 -590h-85l76 431l-261 -389h-61l-125 388zM415 818l90 510h-197l14 80h479l-14 -80h-197l-90 -510h-85z" />
    <glyph glyph-name="estimated" unicode="&#x212e;" horiz-adv-x="1753" 
d="M899 -20q-215 0 -394 93q-176 92 -279 251t-103 353q0 122 42 232.5t116 195t171.5 146.5t212.5 94.5t234 32.5q151 0 295.5 -54.5t253.5 -154.5q106 -98 166 -229t60 -272v-23h-1257q-11 0 -11 -9v-359q0 -24 17 -47q185 -177 478 -177q150 0 279.5 51.5t219.5 147.5
h113q-111 -132 -273.5 -202t-340.5 -70zM406 1077v-351q0 -13 11 -13h966q6 0 6 13v358q0 23 -17 46q-86 84 -209.5 129.5t-261.5 45.5q-294 0 -475 -175q-20 -25 -20 -53z" />
    <glyph glyph-name="onethird" unicode="&#x2153;" horiz-adv-x="1749" 
d="M1405 1334l-967 -1334h-126l5 26l968 1332h124zM375 530l125 706h-188l21 118h319l-146 -824h-131zM1013 169l120 60q13 -61 56 -97t106 -36q64 0 115 35t62 95q11 63 -31 102t-117 39h-109l19 109h109q68 0 117 33.5t60 92.5t-24 92.5t-99 33.5q-62 0 -113.5 -35
t-84.5 -92l-99 60q50 86 135.5 134.5t184.5 48.5q116 0 183 -63q68 -65 49 -177q-11 -62 -53 -110t-102 -70q57 -20 89 -77q31 -56 19 -123q-13 -75 -63.5 -131.5t-119.5 -84.5t-145 -28q-105 0 -175 50t-89 139z" />
    <glyph glyph-name="twothirds" unicode="&#x2154;" horiz-adv-x="1947" 
d="M751 540h-565l10 56q19 101 96 170q67 59 159 118l72 47l27 18t23.5 16t13.5 9q18 12 50 39q56 47 68 111q12 65 -23.5 104.5t-103.5 39.5q-56 0 -105.5 -36t-80.5 -97l-101 57q46 87 129.5 139.5t180.5 52.5q121 0 192 -71q69 -71 48 -187q-9 -50 -32.5 -92.5t-65.5 -79
t-72.5 -57.5t-86.5 -56l-55 -35q-153 -96 -173 -145h417zM1607 1334l-967 -1334h-126l5 26l968 1332h124zM1225 169l120 60q13 -61 56 -97t106 -36q64 0 115 35t62 95q11 63 -31 102t-117 39h-109l19 109h109q68 0 117 33.5t60 92.5t-24 92.5t-99 33.5q-62 0 -113.5 -35
t-84.5 -92l-99 60q50 86 135.5 134.5t184.5 48.5q116 0 183 -63q68 -65 49 -177q-11 -62 -53 -110t-102 -70q57 -20 89 -77q31 -56 19 -123q-13 -75 -63.5 -131.5t-119.5 -84.5t-145 -28q-105 0 -175 50t-89 139z" />
    <glyph glyph-name="minus" unicode="&#x2212;" horiz-adv-x="1172" 
d="M262 766h918l-28 -159h-918z" />
    <glyph glyph-name="uni2215" unicode="&#x2215;" horiz-adv-x="838" 
d="M119 0h-126l5 26l968 1332h124l-4 -24z" />
    <glyph glyph-name="uni2219" unicode="&#x2219;" horiz-adv-x="488" 
d="M422 449q-8 -42 -41 -70t-76 -28q-44 0 -66 28t-15 70q8 42 40.5 70.5t75.5 28.5t67 -28q23 -29 15 -71z" />
    <glyph glyph-name="approxequal" unicode="&#x2248;" horiz-adv-x="1222" 
d="M358 769l-76 121q173 144 320 144q111 0 190 -53q77 -53 169 -53q51 0 97 21t112 69l75 -121q-173 -144 -320 -144q-17 0 -32.5 1t-30.5 4.5t-26 5.5t-26 8t-22 8.5t-22 10.5t-19 10t-19.5 11t-17.5 10q-67 38 -143 38q-87 0 -209 -91zM289 325l-75 121q172 144 320 144
q112 0 189 -53t169 -53q51 0 98 21t111 69l76 -121q-173 -144 -321 -144q-17 0 -32.5 1t-30.5 4.5t-26 5.5t-26 8t-22 8.5t-22 10.5t-19 10t-19.5 11t-17.5 10q-67 38 -143 38q-85 0 -209 -91z" />
    <glyph glyph-name="notequal" unicode="&#x2260;" horiz-adv-x="1320" 
d="M506 345h-301l28 162h373l213 343h-525l28 161h598l195 313l113 -47l-166 -266h292l-28 -161h-366l-214 -343h519l-28 -162h-592l-204 -325l-107 50z" />
    <glyph glyph-name="lessequal" unicode="&#x2264;" horiz-adv-x="1339" 
d="M441 656h847l-28 -159h-1033l39 223l1114 489l-31 -179zM178 237h1033l-29 -162h-1033z" />
    <glyph glyph-name="greaterequal" unicode="&#x2265;" horiz-adv-x="1340" 
d="M256 497l28 159h847l-776 374l31 179l942 -489l-39 -223h-1033zM182 75l29 162h1033l-29 -162h-1033z" />
    <glyph glyph-name="uni25FC" unicode="&#x25fc;" horiz-adv-x="960" 
d="M0 0v960h960v-960h-960z" />
    <glyph glyph-name="nonmarkingreturn001" horiz-adv-x="476" 
 />
    <glyph glyph-name="A.smcp" horiz-adv-x="1086" 
d="M337 225l-130 -225h-168l584 1000h192l232 -1000h-168l-50 225h-492zM692 847l-279 -487h386z" />
    <glyph glyph-name="AE.smcp" horiz-adv-x="1528" 
d="M176 0h-178l799 1000h796l-24 -137h-547l-50 -283h473l-24 -135h-473l-54 -308h560l-24 -137h-720l39 220h-398zM773 357l89 506l-402 -506h313z" />
    <glyph glyph-name="AEacute.smcp" horiz-adv-x="1528" 
d="M1536 1487l-247 -334h-139l206 334h180zM176 0h-178l799 1000h796l-24 -137h-547l-50 -283h473l-24 -135h-473l-54 -308h560l-24 -137h-720l39 220h-398zM773 357l89 506l-402 -506h313z" />
    <glyph glyph-name="Aacute.smcp" horiz-adv-x="1086" 
d="M829 1153h-139l206 334h180zM337 225l-130 -225h-168l584 1000h192l232 -1000h-168l-50 225h-492zM799 360l-107 487l-279 -487h386z" />
    <glyph glyph-name="Abreve.smcp" horiz-adv-x="1086" 
d="M1070 1448q-28 -120 -113.5 -194t-205.5 -74q-117 0 -178 73q-62 74 -47 195h136q-5 -66 25 -105.5t86 -39.5q57 0 101 39.5t60 105.5h136zM207 0h-168l584 1000h192l232 -1000h-168l-50 225h-492zM799 360l-107 487l-279 -487h386z" />
    <glyph glyph-name="Acircumflex.smcp" horiz-adv-x="1086" 
d="M586 1125h-156l340 369h73l210 -369h-156l-116 221zM207 0h-168l584 1000h192l232 -1000h-168l-50 225h-492zM799 360l-107 487l-279 -487h386z" />
    <glyph glyph-name="Adieresis.smcp" horiz-adv-x="1086" 
d="M934 1218q-44 0 -66.5 28t-15.5 71t40 70.5t77 27.5q43 0 66 -27t15 -71t-40.5 -71.5t-75.5 -27.5zM582 1218q-43 0 -66 27.5t-15 71.5q7 43 39.5 70.5t76.5 27.5q45 0 67 -27q22 -28 15 -71q-8 -44 -40.5 -71.5t-76.5 -27.5zM337 225l-130 -225h-168l584 1000h192
l232 -1000h-168l-50 225h-492zM692 847l-279 -487h386z" />
    <glyph glyph-name="Adotbelow.smcp" horiz-adv-x="1086" 
d="M337 225l-130 -225h-168l584 1000h192l232 -1000h-168l-50 225h-492zM799 360l-107 487l-279 -487h386zM475 -381q-43 0 -66 27.5t-15 71.5t40.5 71t75.5 27q44 0 67 -27.5t15 -70.5q-7 -43 -40 -71t-77 -28z" />
    <glyph glyph-name="Agrave.smcp" horiz-adv-x="1086" 
d="M799 1156h-139l-129 334h180zM337 225l-130 -225h-168l584 1000h192l232 -1000h-168l-50 225h-492zM799 360l-107 487l-279 -487h386z" />
    <glyph glyph-name="Amacron.smcp" horiz-adv-x="1086" 
d="M1059 1249h-591l22 125h591zM337 225l-130 -225h-168l584 1000h192l232 -1000h-168l-50 225h-492zM799 360l-107 487l-279 -487h386z" />
    <glyph glyph-name="Aogonek.smcp" horiz-adv-x="1086" 
d="M207 0h-168l584 1000h192l232 -1000h-18q-104 -61 -167 -120.5t-71 -106.5q-8 -41 16 -64t75 -23q56 0 124 30l18 -117q-82 -46 -188 -46q-105 0 -156 50.5t-36 137.5q12 71 75 138t160 121l-50 225h-492zM692 847l-279 -487h386z" />
    <glyph glyph-name="Aring.smcp" horiz-adv-x="1086" 
d="M990 1330q-17 -88 -87 -144t-161 -56q-92 0 -142 57q-50 58 -34 143q15 90 85 146.5t162 56.5q93 0 142 -57q50 -59 35 -146zM675 1330q-8 -44 15.5 -72t69.5 -28q45 0 78.5 28t41.5 72q8 45 -15.5 74.5t-68.5 29.5t-79 -29.5t-42 -74.5zM337 225l-130 -225h-168
l584 1000h192l232 -1000h-168l-50 225h-492zM692 847l-279 -487h386z" />
    <glyph glyph-name="Aringacute.smcp" horiz-adv-x="1086" 
d="M1147 1935l-247 -334h-139l206 334h180zM990 1330q-17 -88 -87 -144t-161 -56q-92 0 -142 57q-50 58 -34 143q15 90 85 146.5t162 56.5q93 0 142 -57q50 -59 35 -146zM675 1330q-8 -44 15.5 -72t69.5 -28q45 0 78.5 28t41.5 72q8 45 -15.5 74.5t-68.5 29.5t-79 -29.5
t-42 -74.5zM337 225l-130 -225h-168l584 1000h192l232 -1000h-168l-50 225h-492zM799 360l-107 487l-279 -487h386z" />
    <glyph glyph-name="Atilde.smcp" horiz-adv-x="1086" 
d="M509 1219l-73 71q117 143 234 143q39 1 82 -20t82 -42t68 -20q40 0 71.5 18t74.5 63l68 -76q-59 -71 -114.5 -104t-121.5 -33q-38 -2 -82 18.5t-82.5 41t-64.5 19.5q-37 0 -65.5 -16.5t-76.5 -62.5zM337 225l-130 -225h-168l584 1000h192l232 -1000h-168l-50 225h-492z
M692 847l-279 -487h386z" />
    <glyph glyph-name="B.smcp" horiz-adv-x="1043" 
d="M631 0h-470l176 1000h440q141 0 211 -79t49 -196q-10 -63 -53.5 -118.5t-101.5 -83.5q64 -27 97 -93q33 -67 20 -141q-24 -127 -130 -208t-238 -81zM751 863h-280l-51 -288h280q65 0 116 40t62 104q10 61 -24.5 102.5t-102.5 41.5zM705 450h-307l-55 -313h307
q71 0 125 45t67 115q12 61 -27 108q-39 45 -110 45z" />
    <glyph glyph-name="C.smcp" horiz-adv-x="1138" 
d="M1108 226q-89 -111 -224 -178.5t-274 -67.5q-140 0 -248.5 66t-157.5 191q-47 119 -21 263q22 142 112.5 263t224 190.5t274.5 66.5q147 0 253.5 -66t150.5 -183l-138 -88q-80 189 -292 189q-157 0 -277 -107.5t-148 -264.5q-29 -158 56 -265q83 -107 239 -107
q102 0 201 52.5t169 136.5z" />
    <glyph glyph-name="Cacute.smcp" horiz-adv-x="1138" 
d="M889 1153h-139l206 334h180zM1108 226q-89 -111 -224 -178.5t-274 -67.5q-140 0 -248.5 66t-157.5 191q-47 119 -21 263q22 142 112.5 263t224 190.5t274.5 66.5q147 0 253.5 -66t150.5 -183l-138 -88q-80 189 -292 189q-157 0 -277 -107.5t-148 -264.5q-29 -158 56 -265
q83 -107 239 -107q102 0 201 52.5t169 136.5z" />
    <glyph glyph-name="Ccaron.smcp" horiz-adv-x="1138" 
d="M775 1126l-210 369h156l114 -222l197 222h156l-340 -369h-73zM1108 226q-89 -111 -224 -178.5t-274 -67.5q-140 0 -248.5 66t-157.5 191q-47 119 -21 263q22 142 112.5 263t224 190.5t274.5 66.5q147 0 253.5 -66t150.5 -183l-138 -88q-80 189 -292 189
q-157 0 -277 -107.5t-148 -264.5q-29 -158 56 -265q83 -107 239 -107q102 0 201 52.5t169 136.5z" />
    <glyph glyph-name="Ccedilla.smcp" horiz-adv-x="1138" 
d="M438 -187l96 172q-189 27 -286 172q-99 144 -65 343q22 142 112.5 263t224 190.5t274.5 66.5q147 0 253.5 -66t150.5 -183l-138 -88q-80 189 -292 189q-157 0 -277 -107.5t-148 -264.5q-29 -158 56 -265q83 -107 239 -107q102 0 201 52.5t169 136.5l100 -91
q-84 -106 -211 -172.5t-261 -72.5l-39 -78q93 -7 140 -51t35 -115q-16 -86 -93.5 -135t-198.5 -49q-80 0 -131 20l20 114q50 -19 120 -19q129 0 141 70q7 37 -27 56t-106 19h-59z" />
    <glyph glyph-name="Ccircumflex.smcp" horiz-adv-x="1138" 
d="M648 1125h-156l340 369h73l210 -369h-156l-116 221zM1108 226q-89 -111 -224 -178.5t-274 -67.5q-140 0 -248.5 66t-157.5 191q-47 119 -21 263q22 142 112.5 263t224 190.5t274.5 66.5q147 0 253.5 -66t150.5 -183l-138 -88q-80 189 -292 189q-157 0 -277 -107.5
t-148 -264.5q-29 -158 56 -265q83 -107 239 -107q102 0 201 52.5t169 136.5z" />
    <glyph glyph-name="Cdotaccent.smcp" horiz-adv-x="1138" 
d="M827 1220q-43 0 -65.5 27.5t-14.5 71.5q7 43 39 70.5t76 27.5t67 -27.5t16 -70.5q-8 -43 -41 -71t-77 -28zM1108 226q-89 -111 -224 -178.5t-274 -67.5q-140 0 -248.5 66t-157.5 191q-47 119 -21 263q22 142 112.5 263t224 190.5t274.5 66.5q147 0 253.5 -66t150.5 -183
l-138 -88q-80 189 -292 189q-157 0 -277 -107.5t-148 -264.5q-29 -158 56 -265q83 -107 239 -107q102 0 201 52.5t169 136.5z" />
    <glyph glyph-name="D.smcp" horiz-adv-x="1195" 
d="M576 0h-415l177 1001h415q225 0 349 -142q123 -142 85 -358q-34 -212 -212.5 -358.5t-398.5 -142.5zM728 863h-253l-128 -726h253q160 0 278.5 102.5t145.5 261.5q28 157 -53 259q-82 101 -243 103z" />
    <glyph glyph-name="Dcaron.smcp" horiz-adv-x="1195" 
d="M695 1126l-210 369h156l114 -222l197 222h156l-340 -369h-73zM576 0h-415l177 1001h415q225 0 349 -142q123 -142 85 -358q-34 -212 -212.5 -358.5t-398.5 -142.5zM475 863l-128 -726h253q160 0 278.5 102.5t145.5 261.5q28 157 -53 259q-82 101 -243 103h-253z" />
    <glyph glyph-name="Dcroat.smcp" horiz-adv-x="1218" 
d="M184 0l79 444h-124l24 135h123l75 422h415q225 0 349 -142q123 -142 85 -358q-34 -212 -212.5 -358.5t-398.5 -142.5h-415zM778 579l-24 -135h-330l-54 -307h253q160 0 278.5 102.5t145.5 261.5q28 157 -53 259q-82 101 -243 103h-253l-50 -284h330z" />
    <glyph glyph-name="E.smcp" horiz-adv-x="979" 
d="M905 137l-24 -137h-720l176 1000h706l-24 -137h-547l-50 -283h474l-24 -135h-474l-54 -308h561z" />
    <glyph glyph-name="Eacute.smcp" horiz-adv-x="979" 
d="M846 1487h180l-247 -334h-139zM905 137l-24 -137h-720l176 1000h706l-24 -137h-547l-50 -283h474l-24 -135h-474l-54 -308h561z" />
    <glyph glyph-name="Ebreve.smcp" horiz-adv-x="979" 
d="M1048 1448q-28 -120 -113.5 -194t-205.5 -74q-117 0 -178 73q-62 74 -47 195h136q-5 -66 25 -105.5t86 -39.5q57 0 101 39.5t60 105.5h136zM881 0h-720l176 1000h706l-24 -137h-547l-50 -283h474l-24 -135h-474l-54 -308h561z" />
    <glyph glyph-name="Ecaron.smcp" horiz-adv-x="979" 
d="M685 1126l-210 369h156l114 -222l197 222h156l-340 -369h-73zM881 0h-720l176 1000h706l-24 -137h-547l-50 -283h474l-24 -135h-474l-54 -308h561z" />
    <glyph glyph-name="Ecircumflex.smcp" horiz-adv-x="979" 
d="M754 1346l-195 -221h-156l340 369h73l210 -369h-156zM905 137l-24 -137h-720l176 1000h706l-24 -137h-547l-50 -283h474l-24 -135h-474l-54 -308h561z" />
    <glyph glyph-name="Edieresis.smcp" horiz-adv-x="979" 
d="M900 1218q-44 0 -66.5 28t-15.5 71t40 70.5t77 27.5q43 0 66 -27t15 -71t-40.5 -71.5t-75.5 -27.5zM548 1218q-43 0 -66 27.5t-15 71.5q7 43 39.5 70.5t76.5 27.5q45 0 67 -27q22 -28 15 -71q-8 -44 -40.5 -71.5t-76.5 -27.5zM905 137l-24 -137h-720l176 1000h706
l-24 -137h-547l-50 -283h474l-24 -135h-474l-54 -308h561z" />
    <glyph glyph-name="Edotaccent.smcp" horiz-adv-x="979" 
d="M740 1220q-43 0 -65.5 27.5t-14.5 71.5q7 43 39 70.5t76 27.5t67 -27.5t16 -70.5q-8 -43 -41 -71t-77 -28zM905 137l-24 -137h-720l176 1000h706l-24 -137h-547l-50 -283h474l-24 -135h-474l-54 -308h561z" />
    <glyph glyph-name="Edotbelow.smcp" horiz-adv-x="979" 
d="M905 137l-24 -137h-720l176 1000h706l-24 -137h-547l-50 -283h474l-24 -135h-474l-54 -308h561zM475 -381q-43 0 -66 27.5t-15 71.5t40.5 71t75.5 27q44 0 67 -27.5t15 -70.5q-7 -43 -40 -71t-77 -28z" />
    <glyph glyph-name="Egrave.smcp" horiz-adv-x="979" 
d="M650 1156l-129 334h180l88 -334h-139zM905 137l-24 -137h-720l176 1000h706l-24 -137h-547l-50 -283h474l-24 -135h-474l-54 -308h561z" />
    <glyph glyph-name="Emacron.smcp" horiz-adv-x="979" 
d="M1059 1374l-22 -125h-591l22 125h591zM905 137l-24 -137h-720l176 1000h706l-24 -137h-547l-50 -283h474l-24 -135h-474l-54 -308h561z" />
    <glyph glyph-name="Eng.smcp" horiz-adv-x="1228" 
d="M455 763l-135 -763h-159l176 1000h157l456 -763l134 763h159l-193 -1095q-27 -155 -115 -240t-225 -85q-82 0 -129 27l41 134q43 -20 103 -20q133 0 168 195l15 87z" />
    <glyph glyph-name="Eogonek.smcp" horiz-adv-x="979" 
d="M730 0h-569l176 1000h706l-24 -137h-547l-50 -283h474l-24 -135h-474l-54 -308h561l-24 -137q-104 -61 -167 -120.5t-71 -106.5q-8 -41 16 -64t75 -23q56 0 124 30l18 -117q-82 -46 -188 -46q-105 0 -156 50.5t-36 137.5q24 142 234 259z" />
    <glyph glyph-name="Eth.smcp" horiz-adv-x="1218" 
d="M184 0l79 444h-124l24 135h123l75 422h415q225 0 349 -142q123 -142 85 -358q-34 -212 -212.5 -358.5t-398.5 -142.5h-415zM778 579l-24 -135h-330l-54 -307h253q160 0 278.5 102.5t145.5 261.5q28 157 -53 259q-82 101 -243 103h-253l-50 -284h330z" />
    <glyph glyph-name="Etilde.smcp" horiz-adv-x="979" 
d="M489 1219l-73 71q117 143 234 143q39 1 82 -20t82 -42t68 -20q40 0 71.5 18t74.5 63l68 -76q-59 -71 -114.5 -104t-121.5 -33q-38 -2 -82 18.5t-82.5 41t-64.5 19.5q-37 0 -65.5 -16.5t-76.5 -62.5zM881 0h-720l176 1000h706l-24 -137h-547l-50 -283h474l-24 -135h-474
l-54 -308h561z" />
    <glyph glyph-name="Euro.onum" horiz-adv-x="1205" 
d="M303 402h-127l19 109h116q3 15 13 68h-117l19 109h132q70 180 211 291t326 111q125 0 221 -70t127 -189l-138 -66q-24 81 -88 132t-147 51q-113 0 -205 -68.5t-145 -191.5h446l-19 -109h-463q-10 -53 -13 -68h464l-19 -109h-451q5 -132 74 -206.5t189 -74.5
q87 0 168.5 50.5t131.5 128.5l114 -63q-69 -113 -189.5 -186t-249.5 -73q-189 0 -295.5 117t-104.5 307z" />
    <glyph glyph-name="Euro.onum.tnum" 
d="M407 402h-127l19 109h116q2 15 13 68h-117l19 109h132q70 180 211 291t326 111q125 0 221 -70t127 -189l-138 -66q-24 81 -88 132t-147 51q-113 0 -205 -68.5t-145 -191.5h446l-19 -109h-463q-11 -53 -13 -68h464l-19 -109h-451q5 -132 74 -206.5t189 -74.5
q87 0 168.5 50.5t131.5 128.5l114 -63q-69 -113 -189.5 -186t-249.5 -73q-189 0 -295.5 117t-104.5 307z" />
    <glyph glyph-name="Euro.tnum" 
d="M304 502h-157l21 121h144q6 59 21 117h-145l21 118h159q41 110 105 203.5t148 164.5t191 111.5t225 40.5q164 0 285 -84.5t166 -239.5l-155 -81q-33 116 -118.5 183t-204.5 67q-160 0 -278.5 -102t-182.5 -263h539l-21 -118h-555q-15 -56 -21 -117h556l-21 -121h-540
q5 -106 41.5 -187t112 -130.5t182.5 -49.5q121 0 231 65.5t189 180.5l119 -77q-91 -147 -244 -235.5t-323 -88.5q-232 0 -360 143.5t-130 378.5z" />
    <glyph glyph-name="F.smcp" horiz-adv-x="951" 
d="M866 579l-24 -137h-444l-78 -442h-159l176 1000h714l-24 -137h-555l-50 -284h444z" />
    <glyph glyph-name="G.smcp" horiz-adv-x="1197" 
d="M612 -18q-141 -3 -250 67t-158 191t-21 261q23 142 112.5 262.5t223 189.5t277.5 67q140 0 244 -65t158 -185l-134 -89q-40 90 -115.5 140.5t-178.5 50.5q-160 0 -279.5 -105.5t-147.5 -265.5q-28 -162 55 -267q83 -104 241 -104q131 0 229 66.5t143 188.5h-361l24 137
h522q-23 -241 -183 -390.5t-401 -149.5z" />
    <glyph glyph-name="Gbreve.smcp" horiz-adv-x="1197" 
d="M1148 1448q-28 -120 -113.5 -194t-205.5 -74q-117 0 -178 73q-62 74 -47 195h136q-5 -66 25 -105.5t86 -39.5q57 0 101 39.5t60 105.5h136zM612 -18q-141 -3 -250 67t-158 191t-21 261q23 142 112.5 262.5t223 189.5t277.5 67q140 0 244 -65t158 -185l-134 -89
q-40 90 -115.5 140.5t-178.5 50.5q-160 0 -279.5 -105.5t-147.5 -265.5q-28 -162 55 -267q83 -104 241 -104q131 0 229 66.5t143 188.5h-361l24 137h522q-23 -241 -183 -390.5t-401 -149.5z" />
    <glyph glyph-name="Gcaron.smcp" horiz-adv-x="1197" 
d="M848 1126h-73l-210 369h156l114 -222l197 222h156zM612 -18q-141 -3 -250 67t-158 191t-21 261q23 142 112.5 262.5t223 189.5t277.5 67q140 0 244 -65t158 -185l-134 -89q-40 90 -115.5 140.5t-178.5 50.5q-160 0 -279.5 -105.5t-147.5 -265.5q-28 -162 55 -267
q83 -104 241 -104q131 0 229 66.5t143 188.5h-361l24 137h522q-23 -241 -183 -390.5t-401 -149.5z" />
    <glyph glyph-name="Gcircumflex.smcp" horiz-adv-x="1197" 
d="M649 1125h-156l340 369h73l210 -369h-156l-116 221zM612 -18q-141 -3 -250 67t-158 191t-21 261q23 142 112.5 262.5t223 189.5t277.5 67q140 0 244 -65t158 -185l-134 -89q-40 90 -115.5 140.5t-178.5 50.5q-160 0 -279.5 -105.5t-147.5 -265.5q-28 -162 55 -267
q83 -104 241 -104q131 0 229 66.5t143 188.5h-361l24 137h522q-23 -241 -183 -390.5t-401 -149.5z" />
    <glyph glyph-name="Gcommaaccent.smcp" horiz-adv-x="1197" 
d="M612 -18q-141 -3 -250 67t-158 191t-21 261q23 142 112.5 262.5t223 189.5t277.5 67q140 0 244 -65t158 -185l-134 -89q-40 90 -115.5 140.5t-178.5 50.5q-160 0 -279.5 -105.5t-147.5 -265.5q-28 -162 55 -267q83 -104 241 -104q131 0 229 66.5t143 188.5h-361l24 137
h522q-23 -241 -183 -390.5t-401 -149.5zM687 -122l-121 -391h-132l82 391h171z" />
    <glyph glyph-name="Gdotaccent.smcp" horiz-adv-x="1197" 
d="M837 1220q-43 0 -65.5 27.5t-14.5 71.5q7 43 39 70.5t76 27.5t67 -27.5t16 -70.5q-8 -43 -41 -71t-77 -28zM612 -18q-141 -3 -250 67t-158 191t-21 261q23 142 112.5 262.5t223 189.5t277.5 67q140 0 244 -65t158 -185l-134 -89q-40 90 -115.5 140.5t-178.5 50.5
q-160 0 -279.5 -105.5t-147.5 -265.5q-28 -162 55 -267q83 -104 241 -104q131 0 229 66.5t143 188.5h-361l24 137h522q-23 -241 -183 -390.5t-401 -149.5z" />
    <glyph glyph-name="H.smcp" horiz-adv-x="1200" 
d="M320 0h-159l176 1000h159l-74 -419h560l74 419h159l-176 -1000h-159l78 444h-560z" />
    <glyph glyph-name="Hbar.smcp" horiz-adv-x="1251" 
d="M424 444l-78 -444h-159l130 737h-118l23 130h118l23 133h159l-23 -133h560l23 133h159l-23 -133h117l-23 -130h-117l-130 -737h-159l78 444h-560zM1008 581l28 156h-560l-28 -156h560z" />
    <glyph glyph-name="Hcircumflex.smcp" horiz-adv-x="1200" 
d="M838 1346l-195 -221h-156l340 369h73l210 -369h-156zM398 444l-78 -444h-159l176 1000h159l-74 -419h560l74 419h159l-176 -1000h-159l78 444h-560z" />
    <glyph glyph-name="I.smcp" horiz-adv-x="481" 
d="M320 0h-159l176 1000h159z" />
    <glyph glyph-name="IJ.smcp" horiz-adv-x="1320" 
d="M818 -20q-92 0 -162 40t-110 113l123 108q71 -113 176 -113q90 0 150.5 62t80.5 176l111 634h159l-115 -656q-30 -168 -137.5 -266t-275.5 -98zM496 1000l-176 -1000h-159l176 1000h159z" />
    <glyph glyph-name="IJacute" horiz-adv-x="1598" 
d="M1670 1473h-139l206 334h180zM613 1473h-139l206 334h180zM603 170l130 112q41 -69 109 -108.5t146 -39.5q138 0 230.5 91.5t121.5 256.5l154 876h166l-157 -892q-39 -223 -180 -354.5t-363 -131.5q-112 0 -210 49t-147 141zM594 1358l-239 -1358h-165l239 1358h165z" />
    <glyph glyph-name="IJacute.smcp" horiz-adv-x="1320" 
d="M1611 1487l-247 -334h-139l206 334h180zM765 1487l-247 -334h-139l206 334h180zM546 133l123 108q71 -113 176 -113q90 0 150.5 62t80.5 176l111 634h159l-115 -656q-30 -168 -137.5 -266t-275.5 -98q-92 0 -162 40t-110 113zM320 0h-159l176 1000h159z" />
    <glyph glyph-name="Iacute.smcp" horiz-adv-x="481" 
d="M580 1487h180l-247 -334h-139zM320 0h-159l176 1000h159z" />
    <glyph glyph-name="Ibreve.smcp" horiz-adv-x="481" 
d="M767 1448q-28 -120 -113.5 -194t-205.5 -74q-117 0 -178 73q-62 74 -47 195h136q-5 -66 25 -105.5t86 -39.5q58 0 101.5 39.5t59.5 105.5h136zM496 1000l-176 -1000h-159l176 1000h159z" />
    <glyph glyph-name="Icircumflex.smcp" horiz-adv-x="481" 
d="M283 1125h-156l340 369h73l210 -369h-156l-116 221zM320 0h-159l176 1000h159z" />
    <glyph glyph-name="Idieresis.smcp" horiz-adv-x="481" 
d="M631 1218q-44 0 -66.5 28t-15.5 71t40 70.5t77 27.5q43 0 66 -27t15 -71t-40.5 -71.5t-75.5 -27.5zM279 1218q-43 0 -66 27.5t-15 71.5q7 43 39.5 70.5t76.5 27.5t67 -27q22 -28 15 -71q-8 -44 -40.5 -71.5t-76.5 -27.5zM320 0h-159l176 1000h159z" />
    <glyph glyph-name="Idotaccent.smcp" horiz-adv-x="481" 
d="M454 1220q-43 0 -65.5 27.5t-14.5 71.5q7 43 39 70.5t76 27.5t67 -27.5t16 -70.5q-8 -43 -41 -71t-77 -28zM496 1000l-176 -1000h-159l176 1000h159z" />
    <glyph glyph-name="Idotbelow.smcp" horiz-adv-x="481" 
d="M496 1000l-176 -1000h-159l176 1000h159zM172 -381q-43 0 -66 27.5t-15 71.5t40.5 71t75.5 27q44 0 67 -27.5t15 -70.5q-7 -43 -40 -71t-77 -28z" />
    <glyph glyph-name="Igrave.smcp" horiz-adv-x="481" 
d="M363 1156l-129 334h180l88 -334h-139zM320 0h-159l176 1000h159z" />
    <glyph glyph-name="Imacron.smcp" horiz-adv-x="481" 
d="M778 1374l-22 -125h-591l22 125h591zM320 0h-159l176 1000h159z" />
    <glyph glyph-name="Iogonek.smcp" horiz-adv-x="481" 
d="M122 -447q-105 0 -156 50.5t-36 137.5q24 142 234 259h-3l176 1000h159l-176 -1000h-5q-104 -61 -167 -120.5t-71 -106.5q-8 -41 16 -64t75 -23q56 0 124 30l18 -117q-82 -46 -188 -46z" />
    <glyph glyph-name="Itilde.smcp" horiz-adv-x="481" 
d="M206 1219l-73 71q117 143 234 143q39 1 82 -20t82 -42t68 -20q40 0 71.5 18t74.5 63l68 -76q-59 -71 -114.5 -104t-121.5 -33q-38 -2 -82 18.5t-82.5 41t-64.5 19.5q-37 0 -65.5 -16.5t-76.5 -62.5zM320 0h-159l176 1000h159z" />
    <glyph glyph-name="J.smcp" horiz-adv-x="831" 
d="M329 -20q-92 0 -162 40t-110 113l123 108q71 -113 176 -113q90 0 150.5 62t80.5 176l111 634h159l-115 -656q-30 -168 -137.5 -266t-275.5 -98z" />
    <glyph glyph-name="Jcircumflex.smcp" horiz-adv-x="831" 
d="M841 1346l-195 -221h-156l340 369h73l210 -369h-156zM57 133l123 108q71 -113 176 -113q90 0 150.5 62t80.5 176l111 634h159l-115 -656q-30 -168 -137.5 -266t-275.5 -98q-92 0 -162 40t-110 113z" />
    <glyph glyph-name="K.smcp" horiz-adv-x="1063" 
d="M320 0h-159l177 1001h159l-90 -505l581 508h213l-510 -427l340 -576h-202l-269 468l-187 -166z" />
    <glyph glyph-name="Kcommaaccent.smcp" horiz-adv-x="1063" 
d="M320 0h-159l177 1001h159l-90 -505l581 508h213l-510 -427l340 -576h-202l-269 468l-187 -166zM486 -513h-132l82 391h171z" />
    <glyph glyph-name="L.smcp" horiz-adv-x="954" 
d="M918 137l-24 -137h-733l176 1000h159l-152 -863h574z" />
    <glyph glyph-name="Lacute.smcp" horiz-adv-x="954" 
d="M584 1487h180l-247 -334h-139zM918 137l-24 -137h-733l176 1000h159l-152 -863h574z" />
    <glyph glyph-name="Lcaron.smcp" horiz-adv-x="954" 
d="M918 137l-24 -137h-733l176 1000h159l-152 -863h574zM822 641h-124l71 346h163z" />
    <glyph glyph-name="Lcommaaccent.smcp" horiz-adv-x="954" 
d="M918 137l-24 -137h-733l176 1000h159l-152 -863h574zM466 -513h-132l82 391h171z" />
    <glyph glyph-name="Ldot.smcp" horiz-adv-x="954" 
d="M918 137l-24 -137h-733l176 1000h159l-152 -863h574zM880 496q-8 -44 -40 -71t-76 -27t-66 28q-23 28 -16 70q8 44 41 71.5t76 27.5q44 0 66.5 -28t14.5 -71z" />
    <glyph glyph-name="Lslash.smcp" horiz-adv-x="1016" 
d="M312 506l-163 -14l23 132l163 14l64 362h159l-61 -348l293 25l-23 -131l-293 -26l-68 -383h574l-24 -137h-733z" />
    <glyph glyph-name="M.smcp" horiz-adv-x="1385" 
d="M320 0h-159l176 1000h187l219 -716l470 716h187l-176 -1000h-159l127 721l-430 -649h-113l-202 649z" />
    <glyph glyph-name="N.smcp" horiz-adv-x="1228" 
d="M320 0h-159l176 1000h157l456 -763l134 763h159l-176 -1000h-157l-455 763z" />
    <glyph glyph-name="Nacute.smcp" horiz-adv-x="1228" 
d="M889 1153h-139l206 334h180zM320 0h-159l176 1000h157l456 -763l134 763h159l-176 -1000h-157l-455 763z" />
    <glyph glyph-name="Ncaron.smcp" horiz-adv-x="1228" 
d="M795 1126l-210 369h156l114 -222l197 222h156l-340 -369h-73zM455 763l-135 -763h-159l176 1000h157l456 -763l134 763h159l-176 -1000h-157z" />
    <glyph glyph-name="Ncommaaccent.smcp" horiz-adv-x="1228" 
d="M320 0h-159l176 1000h157l456 -763l134 763h159l-176 -1000h-157l-455 763zM687 -122l-121 -391h-132l82 391h171z" />
    <glyph glyph-name="Nhookleft.smcp" horiz-adv-x="1228" 
d="M-37 -420q-83 0 -129 27l41 134q43 -20 103 -20q134 0 168 195l191 1084h157l456 -763l134 763h159l-176 -1000h-157l-455 763l-152 -858q-27 -155 -115 -240t-225 -85z" />
    <glyph glyph-name="Ntilde.smcp" horiz-adv-x="1228" 
d="M580 1219l-73 71q117 143 234 143q39 1 82 -20t82 -42t68 -20q40 0 71.5 18t74.5 63l68 -76q-59 -71 -114.5 -104t-121.5 -33q-38 -2 -82 18.5t-82.5 41t-64.5 19.5q-37 0 -65.5 -16.5t-76.5 -62.5zM455 763l-135 -763h-159l176 1000h157l456 -763l134 763h159
l-176 -1000h-157z" />
    <glyph glyph-name="O.smcp" horiz-adv-x="1237" 
d="M615 -19q-225 0 -348 145q-123 146 -83 374t211.5 374t402.5 146q146 2 254.5 -63.5t156.5 -186t20 -270.5q-24 -148 -114.5 -268.5t-222.5 -187t-277 -63.5zM345 500q-30 -168 53 -269q82 -102 243 -102q166 0 282 103t145 268q30 171 -52 271q-83 101 -244 101
q-166 0 -282 -103.5t-145 -268.5z" />
    <glyph glyph-name="OE.smcp" horiz-adv-x="1777" 
d="M608 -20q-226 0 -345 146t-79 374q40 227 209.5 373.5t398.5 146.5q95 0 179.5 -35.5t142.5 -98.5l20 114h707l-24 -137h-548l-50 -283h475l-24 -135h-475l-54 -308h562l-24 -137h-721l20 114q-170 -134 -370 -134zM346 500q-29 -165 52 -268q81 -104 237 -104
q161 0 276 105.5t143 266.5q29 165 -51 269q-79 103 -237 103q-161 0 -276.5 -105.5t-143.5 -266.5z" />
    <glyph glyph-name="Oacute.smcp" horiz-adv-x="1237" 
d="M877 1153h-139l206 334h180zM615 -19q-225 0 -348 145q-123 146 -83 374t211.5 374t402.5 146q146 2 254.5 -63.5t156.5 -186t20 -270.5q-24 -148 -114.5 -268.5t-222.5 -187t-277 -63.5zM345 500q-30 -168 53 -269q82 -102 243 -102q166 0 282 103t145 268
q30 171 -52 271q-83 101 -244 101q-166 0 -282 -103.5t-145 -268.5z" />
    <glyph glyph-name="Obreve.smcp" horiz-adv-x="1237" 
d="M1146 1448q-28 -120 -113.5 -194t-205.5 -74q-117 0 -178 73q-62 74 -47 195h136q-5 -66 25 -105.5t86 -39.5q57 0 101 39.5t60 105.5h136zM615 -19q-225 0 -348 145q-123 146 -83 374t211.5 374t402.5 146q146 2 254.5 -63.5t156.5 -186t20 -270.5
q-24 -148 -114.5 -268.5t-222.5 -187t-277 -63.5zM345 500q-30 -168 53 -269q82 -102 243 -102q166 0 282 103t145 268q30 171 -52 271q-83 101 -244 101q-166 0 -282 -103.5t-145 -268.5z" />
    <glyph glyph-name="Ocircumflex.smcp" horiz-adv-x="1237" 
d="M661 1125h-156l340 369h73l210 -369h-156l-116 221zM615 -19q-225 0 -348 145q-123 146 -83 374t211.5 374t402.5 146q146 2 254.5 -63.5t156.5 -186t20 -270.5q-24 -148 -114.5 -268.5t-222.5 -187t-277 -63.5zM345 500q-30 -168 53 -269q82 -102 243 -102
q166 0 282 103t145 268q30 171 -52 271q-83 101 -244 101q-166 0 -282 -103.5t-145 -268.5z" />
    <glyph glyph-name="Odieresis.smcp" horiz-adv-x="1237" 
d="M1009 1218q-44 0 -66.5 28t-15.5 71t40 70.5t77 27.5q43 0 66 -27t15 -71t-40.5 -71.5t-75.5 -27.5zM657 1218q-43 0 -66 27.5t-15 71.5q7 43 39.5 70.5t76.5 27.5t67 -27q22 -28 15 -71q-8 -44 -40.5 -71.5t-76.5 -27.5zM615 -19q-225 0 -348 145q-123 146 -83 374
t211.5 374t402.5 146q146 2 254.5 -63.5t156.5 -186t20 -270.5q-24 -148 -114.5 -268.5t-222.5 -187t-277 -63.5zM345 500q-30 -168 53 -269q82 -102 243 -102q166 0 282 103t145 268q30 171 -52 271q-83 101 -244 101q-166 0 -282 -103.5t-145 -268.5z" />
    <glyph glyph-name="Odotbelow.smcp" horiz-adv-x="1237" 
d="M615 -19q-225 0 -348 145q-123 146 -83 374t211.5 374t402.5 146q146 2 254.5 -63.5t156.5 -186t20 -270.5q-24 -148 -114.5 -268.5t-222.5 -187t-277 -63.5zM345 500q-30 -168 53 -269q82 -102 243 -102q166 0 282 103t145 268q30 171 -52 271q-83 101 -244 101
q-166 0 -282 -103.5t-145 -268.5zM551 -381q-43 0 -66 27.5t-15 71.5t40.5 71t75.5 27q44 0 67 -27.5t15 -70.5q-7 -43 -40 -71t-77 -28z" />
    <glyph glyph-name="Ograve.smcp" horiz-adv-x="1237" 
d="M889 1156h-139l-129 334h180zM615 -19q-225 0 -348 145q-123 146 -83 374t211.5 374t402.5 146q146 2 254.5 -63.5t156.5 -186t20 -270.5q-24 -148 -114.5 -268.5t-222.5 -187t-277 -63.5zM345 500q-30 -168 53 -269q82 -102 243 -102q166 0 282 103t145 268
q30 171 -52 271q-83 101 -244 101q-166 0 -282 -103.5t-145 -268.5z" />
    <glyph glyph-name="Ohungarumlaut.smcp" horiz-adv-x="1237" 
d="M1286 1487l-247 -334h-139l206 334h180zM710 1153h-139l206 334h180zM615 -19q-225 0 -348 145q-123 146 -83 374t211.5 374t402.5 146q146 2 254.5 -63.5t156.5 -186t20 -270.5q-24 -148 -114.5 -268.5t-222.5 -187t-277 -63.5zM345 500q-30 -168 53 -269
q82 -102 243 -102q166 0 282 103t145 268q30 171 -52 271q-83 101 -244 101q-166 0 -282 -103.5t-145 -268.5z" />
    <glyph glyph-name="Omacron.smcp" horiz-adv-x="1237" 
d="M1134 1249h-591l22 125h591zM615 -19q-225 0 -348 145q-123 146 -83 374t211.5 374t402.5 146q146 2 254.5 -63.5t156.5 -186t20 -270.5q-24 -148 -114.5 -268.5t-222.5 -187t-277 -63.5zM345 500q-30 -168 53 -269q82 -102 243 -102q166 0 282 103t145 268
q30 171 -52 271q-83 101 -244 101q-166 0 -282 -103.5t-145 -268.5z" />
    <glyph glyph-name="Oogonek.smcp" horiz-adv-x="1237" 
d="M581 -18q-211 12 -323 156q-113 143 -74 362q40 228 211.5 374t402.5 146q146 2 254.5 -63.5t156.5 -186t20 -270.5q-32 -187 -159.5 -323t-311.5 -180q-102 -60 -164 -118.5t-70 -105.5q-8 -41 16 -64t75 -23q56 0 124 30l18 -117q-82 -46 -188 -46q-105 0 -156 50.5
t-36 137.5q26 132 204 241zM345 500q-30 -168 53 -269q82 -102 243 -102q166 0 282 103t145 268q30 171 -52 271q-83 101 -244 101q-166 0 -282 -103.5t-145 -268.5z" />
    <glyph glyph-name="Oslash.smcp" horiz-adv-x="1237" 
d="M1064 948l172 174l90 -85l-171 -172q113 -143 74 -365q-24 -148 -114.5 -268.5t-222.5 -187t-277 -63.5q-154 0 -265 72l-174 -175l-88 83l172 174q-115 142 -76 365q40 228 211.5 374t402.5 146q157 0 266 -72zM380 256l567 574q-75 42 -175 42q-166 0 -282 -103.5
t-145 -268.5q-25 -144 35 -244zM1035 744l-568 -572q73 -43 174 -43q166 0 282 103t145 268q27 147 -33 244z" />
    <glyph glyph-name="Oslashacute.smcp" horiz-adv-x="1237" 
d="M1126 1487l-247 -334h-139l206 334h180zM350 53l-174 -175l-88 83l172 174q-115 142 -76 365q40 228 211.5 374t402.5 146q157 0 266 -72l172 174l90 -85l-171 -172q113 -143 74 -365q-24 -148 -114.5 -268.5t-222.5 -187t-277 -63.5q-154 0 -265 72zM380 256l567 574
q-75 42 -175 42q-166 0 -282 -103.5t-145 -268.5q-25 -144 35 -244zM1035 744l-568 -572q73 -43 174 -43q166 0 282 103t145 268q27 147 -33 244z" />
    <glyph glyph-name="Otilde.smcp" horiz-adv-x="1237" 
d="M585 1219l-73 71q117 143 234 143q39 1 82 -20t82 -42t68 -20q40 0 71.5 18t74.5 63l68 -76q-59 -71 -114.5 -104t-121.5 -33q-38 -2 -82 18.5t-82.5 41t-64.5 19.5q-37 0 -65.5 -16.5t-76.5 -62.5zM615 -19q-225 0 -348 145q-123 146 -83 374t211.5 374t402.5 146
q146 2 254.5 -63.5t156.5 -186t20 -270.5q-24 -148 -114.5 -268.5t-222.5 -187t-277 -63.5zM345 500q-30 -168 53 -269q82 -102 243 -102q166 0 282 103t145 268q30 171 -52 271q-83 101 -244 101q-166 0 -282 -103.5t-145 -268.5z" />
    <glyph glyph-name="P.smcp" horiz-adv-x="998" 
d="M386 373l-66 -373h-159l176 999h421q157 0 236 -84q78 -86 53 -230q-26 -147 -136 -229.5t-263 -82.5h-262zM472 863l-63 -356h257q90 0 148.5 48t73.5 130t-27 130t-132 48h-257z" />
    <glyph glyph-name="Q.alt" horiz-adv-x="1596" 
d="M794 -20q-145 0 -265 50.5t-197 142.5q-78 92 -107.5 223.5t-2.5 282.5q26 149 100 278t181 221.5t246.5 145.5t291.5 53q145 0 265.5 -50.5t197.5 -141.5q78 -92 107.5 -223.5t2.5 -282.5q-36 -210 -166.5 -378.5t-325.5 -252.5l286 -305l-131 -118l-342 366l2 1
q-70 -12 -143 -12zM395 679q-43 -242 77 -394q120 -151 350 -151q158 0 290.5 72t216.5 195t112 278q42 242 -77 394q-120 150 -350 150q-148 2 -280.5 -66.5t-222.5 -194.5t-116 -283z" />
    <glyph glyph-name="Q.alt.smcp" horiz-adv-x="1229" 
d="M615 -19q-225 0 -348 145q-123 146 -83 374t211.5 374t402.5 146q146 2 254.5 -63.5t156.5 -186t20 -270.5q-28 -159 -126 -283.5t-246 -186.5l228 -247l-113 -104l-288 306q-28 -4 -69 -4zM345 500q-30 -168 53 -269q82 -102 243 -102q166 0 282 103t145 268
q30 171 -52 271q-83 101 -244 101q-166 0 -282 -103.5t-145 -268.5z" />
    <glyph glyph-name="Q.smcp" horiz-adv-x="1237" 
d="M612 -19q-225 0 -348 145q-123 146 -83 374t211.5 374t402.5 146q146 2 254.5 -63.5t156.5 -186t20 -270.5q-21 -121 -84 -223t-160 -174l92 -161l-130 -85l-98 170q-111 -46 -234 -46zM342 500q-30 -168 53 -269q83 -102 243 -102q72 0 137 21l-103 179l133 85l107 -188
q123 103 153 274t-52 271q-83 101 -244 101q-166 0 -282 -103.5t-145 -268.5z" />
    <glyph glyph-name="R.smcp" horiz-adv-x="1048" 
d="M389 390l-69 -390h-159l176 1000h440q158 0 237 -82q80 -84 55 -223q-19 -103 -87 -177.5t-172 -107.5l173 -410h-179l-161 390h-254zM473 866l-61 -344h277q91 0 148 46t72 127q14 81 -27 126t-132 45h-277z" />
    <glyph glyph-name="Racute.smcp" horiz-adv-x="1048" 
d="M1016 1487l-247 -334h-139l206 334h180zM320 0h-159l176 1000h440q158 0 237 -82q80 -84 55 -223q-19 -103 -87 -177.5t-172 -107.5l173 -410h-179l-161 390h-254zM473 866l-61 -344h277q91 0 148 46t72 127q14 81 -27 126t-132 45h-277z" />
    <glyph glyph-name="Rcaron.smcp" horiz-adv-x="1048" 
d="M756 1126h-73l-210 369h156l114 -222l197 222h156zM389 390l-69 -390h-159l176 1000h440q158 0 237 -82q80 -84 55 -223q-19 -103 -87 -177.5t-172 -107.5l173 -410h-179l-161 390h-254zM473 866l-61 -344h277q91 0 148 46t72 127q14 81 -27 126t-132 45h-277z" />
    <glyph glyph-name="Rcommaaccent.smcp" horiz-adv-x="1048" 
d="M389 390l-69 -390h-159l176 1000h440q158 0 237 -82q80 -84 55 -223q-19 -103 -87 -177.5t-172 -107.5l173 -410h-179l-161 390h-254zM750 866h-277l-61 -344h277q91 0 148 46t72 127q14 81 -27 126t-132 45zM607 -122l-121 -391h-132l82 391h171z" />
    <glyph glyph-name="S.smcp" horiz-adv-x="969" 
d="M128 213l145 87q30 -81 94 -126.5t160 -45.5q47 0 92 10t86 39.5t49 74.5q9 52 -32 90q-57 49 -209 108q-132 56 -191 105q-44 35 -57 82.5t-1 115.5q15 85 82.5 148t151.5 91t170 28q113 0 204 -51t129 -151l-130 -89q-29 65 -88.5 104t-140.5 39q-91 0 -149.5 -31.5
t-68.5 -87.5q-7 -29 -0.5 -51t31.5 -40q22 -17 46 -28q10 -6 72 -32q10 -5 30.5 -13.5t34.5 -14.5q78 -35 105 -48q39 -20 46 -25q50 -29 71 -52q76 -76 54 -197q-12 -68 -54 -122t-101 -85.5t-125.5 -48t-133.5 -16.5q-140 0 -238.5 62t-133.5 171z" />
    <glyph glyph-name="Sacute.smcp" horiz-adv-x="969" 
d="M1001 1487l-247 -334h-139l206 334h180zM500 -20q-140 0 -238.5 62t-133.5 171l145 87q30 -81 94 -126.5t160 -45.5q47 0 92 10t86 39.5t49 74.5q9 52 -32 90q-57 49 -209 108q-132 56 -191 105q-44 35 -57 82.5t-1 115.5q15 85 82.5 148t151.5 91t170 28q113 0 204 -51
t129 -151l-130 -89q-29 65 -88.5 104t-140.5 39q-91 0 -149.5 -31.5t-68.5 -87.5q-7 -29 -0.5 -51t31.5 -40q22 -17 46 -28q10 -6 72 -32q10 -5 30.5 -13.5t34.5 -14.5q78 -35 105 -48q39 -20 46 -25q50 -29 71 -52q76 -76 54 -197q-12 -68 -54 -122t-101 -85.5t-125.5 -48
t-133.5 -16.5z" />
    <glyph glyph-name="Scaron.smcp" horiz-adv-x="969" 
d="M655 1126l-210 369h156l114 -222l197 222h156l-340 -369h-73zM128 213l145 87q30 -81 94 -126.5t160 -45.5q47 0 92 10t86 39.5t49 74.5q9 52 -32 90q-57 49 -209 108q-132 56 -191 105q-44 35 -57 82.5t-1 115.5q15 85 82.5 148t151.5 91t170 28q113 0 204 -51t129 -151
l-130 -89q-29 65 -88.5 104t-140.5 39q-91 0 -149.5 -31.5t-68.5 -87.5q-7 -29 -0.5 -51t31.5 -40q22 -17 46 -28q10 -6 72 -32q10 -5 30.5 -13.5t34.5 -14.5q78 -35 105 -48q39 -20 46 -25q50 -29 71 -52q76 -76 54 -197q-12 -68 -54 -122t-101 -85.5t-125.5 -48
t-133.5 -16.5q-140 0 -238.5 62t-133.5 171z" />
    <glyph glyph-name="Scedilla.smcp" horiz-adv-x="969" 
d="M128 213l145 87q30 -81 94 -126.5t160 -45.5q47 0 92 10t86 39.5t49 74.5q9 52 -32 90q-57 49 -209 108q-132 56 -191 105q-44 35 -57 82.5t-1 115.5q15 85 82.5 148t151.5 91t170 28q113 0 204 -51t129 -151l-130 -89q-29 65 -88.5 104t-140.5 39q-91 0 -149.5 -31.5
t-68.5 -87.5q-7 -29 -0.5 -51t31.5 -40q22 -17 46 -28q10 -6 72 -32q10 -5 30.5 -13.5t34.5 -14.5q78 -35 105 -48q39 -20 46 -25q50 -29 71 -52q76 -76 54 -197q-15 -86 -79 -149t-145 -91.5t-169 -31.5l-39 -77q93 -7 140 -51t35 -115q-16 -86 -93.5 -135t-198.5 -49
q-80 0 -131 20l20 114q50 -19 120 -19q129 0 141 70q7 37 -27 56t-106 19h-59l96 173q-109 16 -185.5 75.5t-105.5 151.5z" />
    <glyph glyph-name="Schwa.smcp" horiz-adv-x="1186" 
d="M582 -20q-104 0 -186 30.5t-133.5 85.5t-77.5 127.5t-22.5 159t36.5 177.5h819q10 153 -71 242t-223 89q-103 0 -201.5 -48t-176.5 -137l-108 91q96 113 232 178t282 65q142 0 252.5 -68.5t156.5 -198.5q43 -121 17 -273q-39 -223 -205.5 -371.5t-390.5 -148.5zM993 425
h-667q-17 -136 56 -215.5t222 -79.5q142 0 248 79.5t141 215.5z" />
    <glyph glyph-name="Scircumflex.smcp" horiz-adv-x="969" 
d="M537 1125h-156l340 369h73l210 -369h-156l-116 221zM128 213l145 87q30 -81 94 -126.5t160 -45.5q47 0 92 10t86 39.5t49 74.5q9 52 -32 90q-57 49 -209 108q-132 56 -191 105q-44 35 -57 82.5t-1 115.5q15 85 82.5 148t151.5 91t170 28q113 0 204 -51t129 -151l-130 -89
q-29 65 -88.5 104t-140.5 39q-91 0 -149.5 -31.5t-68.5 -87.5q-7 -29 -0.5 -51t31.5 -40q22 -17 46 -28q10 -6 72 -32q10 -5 30.5 -13.5t34.5 -14.5q78 -35 105 -48q39 -20 46 -25q50 -29 71 -52q76 -76 54 -197q-12 -68 -54 -122t-101 -85.5t-125.5 -48t-133.5 -16.5
q-140 0 -238.5 62t-133.5 171z" />
    <glyph glyph-name="Scommaaccent.smcp" horiz-adv-x="969" 
d="M500 -20q-140 0 -238.5 62t-133.5 171l145 87q30 -81 94 -126.5t160 -45.5q47 0 92 10t86 39.5t49 74.5q9 52 -32 90q-57 49 -209 108q-132 56 -191 105q-44 35 -57 82.5t-1 115.5q15 85 82.5 148t151.5 91t170 28q113 0 204 -51t129 -151l-130 -89q-29 65 -88.5 104
t-140.5 39q-91 0 -149.5 -31.5t-68.5 -87.5q-7 -29 -0.5 -51t31.5 -40q22 -17 46 -28q10 -6 72 -32q10 -5 30.5 -13.5t34.5 -14.5q78 -35 105 -48q39 -20 46 -25q50 -29 71 -52q76 -76 54 -197q-12 -68 -54 -122t-101 -85.5t-125.5 -48t-133.5 -16.5zM562 -122l-121 -391
h-132l82 391h171z" />
    <glyph glyph-name="T.smcp" horiz-adv-x="915" 
d="M530 862h-322l24 138h803l-24 -138h-322l-152 -862h-159z" />
    <glyph glyph-name="Tbar.smcp" horiz-adv-x="957" 
d="M479 451h-263l23 132h263l49 279h-322l24 138h803l-24 -138h-322l-49 -279h263l-23 -132h-263l-80 -451h-159z" />
    <glyph glyph-name="Tcaron.smcp" horiz-adv-x="915" 
d="M693 1126h-73l-210 369h156l114 -222l197 222h156zM530 862h-322l24 138h803l-24 -138h-322l-152 -862h-159z" />
    <glyph glyph-name="Tcommaaccent.smcp" horiz-adv-x="915" 
d="M378 0l152 862h-322l24 138h803l-24 -138h-322l-152 -862h-159zM394 -513h-132l82 391h171z" />
    <glyph glyph-name="Thorn.smcp" horiz-adv-x="1081" 
d="M320 0h-159l176 1000h159l-26 -151h297q164 0 248 -93q84 -92 55 -256q-27 -158 -145.5 -253.5t-280.5 -95.5h-297zM445 711l-74 -423h285q96 0 164.5 59t85.5 153q18 98 -30 154.5t-146 56.5h-285z" />
    <glyph glyph-name="U.smcp" horiz-adv-x="1164" 
d="M577 -20q-195 0 -294 104q-100 103 -70 275l113 641h159l-110 -626q-20 -113 42 -179.5t187 -66.5q122 0 209 64.5t107 181.5l110 626h160l-113 -641q-21 -120 -95.5 -207.5t-178.5 -129.5t-226 -42z" />
    <glyph glyph-name="Uacute.smcp" horiz-adv-x="1164" 
d="M839 1153h-139l206 334h180zM577 -20q-195 0 -294 104q-100 103 -70 275l113 641h159l-110 -626q-20 -113 42 -179.5t187 -66.5q122 0 209 64.5t107 181.5l110 626h160l-113 -641q-21 -120 -95.5 -207.5t-178.5 -129.5t-226 -42z" />
    <glyph glyph-name="Ubreve.smcp" horiz-adv-x="1164" 
d="M1109 1448q-28 -120 -113.5 -194t-205.5 -74q-117 0 -178 73q-62 74 -47 195h136q-5 -66 25 -105.5t86 -39.5q58 0 101.5 39.5t59.5 105.5h136zM577 -20q-195 0 -294 104q-100 103 -70 275l113 641h159l-110 -626q-20 -113 42 -179.5t187 -66.5q122 0 209 64.5t107 181.5
l110 626h160l-113 -641q-21 -120 -95.5 -207.5t-178.5 -129.5t-226 -42z" />
    <glyph glyph-name="Ucircumflex.smcp" horiz-adv-x="1164" 
d="M820 1346l-195 -221h-156l340 369h73l210 -369h-156zM577 -20q-195 0 -294 104q-100 103 -70 275l113 641h159l-110 -626q-20 -113 42 -179.5t187 -66.5q122 0 209 64.5t107 181.5l110 626h160l-113 -641q-21 -120 -95.5 -207.5t-178.5 -129.5t-226 -42z" />
    <glyph glyph-name="Udieresis.smcp" horiz-adv-x="1164" 
d="M973 1218q-44 0 -66.5 28t-15.5 71t40 70.5t77 27.5q43 0 66 -27t15 -71t-40.5 -71.5t-75.5 -27.5zM621 1218q-43 0 -66 27.5t-15 71.5q7 43 39.5 70.5t76.5 27.5t67 -27q22 -28 15 -71q-8 -44 -40.5 -71.5t-76.5 -27.5zM577 -20q-195 0 -294 104q-100 103 -70 275
l113 641h159l-110 -626q-20 -113 42 -179.5t187 -66.5q122 0 209 64.5t107 181.5l110 626h160l-113 -641q-21 -120 -95.5 -207.5t-178.5 -129.5t-226 -42z" />
    <glyph glyph-name="Udotbelow.smcp" horiz-adv-x="1164" 
d="M577 -20q-195 0 -294 104q-100 103 -70 275l113 641h159l-110 -626q-20 -113 42 -179.5t187 -66.5q122 0 209 64.5t107 181.5l110 626h160l-113 -641q-21 -120 -95.5 -207.5t-178.5 -129.5t-226 -42zM514 -381q-43 0 -66 27.5t-15 71.5t40.5 71t75.5 27q44 0 67 -27.5
t15 -70.5q-7 -43 -40 -71t-77 -28z" />
    <glyph glyph-name="Ugrave.smcp" horiz-adv-x="1164" 
d="M859 1156h-139l-129 334h180zM577 -20q-195 0 -294 104q-100 103 -70 275l113 641h159l-110 -626q-20 -113 42 -179.5t187 -66.5q122 0 209 64.5t107 181.5l110 626h160l-113 -641q-21 -120 -95.5 -207.5t-178.5 -129.5t-226 -42z" />
    <glyph glyph-name="Uhungarumlaut.smcp" horiz-adv-x="1164" 
d="M1247 1487l-247 -334h-139l206 334h180zM680 1153h-139l206 334h180zM577 -20q-195 0 -294 104q-100 103 -70 275l113 641h159l-110 -626q-20 -113 42 -179.5t187 -66.5q122 0 209 64.5t107 181.5l110 626h160l-113 -641q-21 -120 -95.5 -207.5t-178.5 -129.5t-226 -42z
" />
    <glyph glyph-name="Umacron.smcp" horiz-adv-x="1164" 
d="M1120 1374l-22 -125h-591l22 125h591zM577 -20q-195 0 -294 104q-100 103 -70 275l113 641h159l-110 -626q-20 -113 42 -179.5t187 -66.5q122 0 209 64.5t107 181.5l110 626h160l-113 -641q-21 -120 -95.5 -207.5t-178.5 -129.5t-226 -42z" />
    <glyph glyph-name="Uogonek.smcp" horiz-adv-x="1164" 
d="M553 -20q-185 8 -276 110q-93 102 -64 269l113 641h159l-110 -626q-20 -113 42 -179.5t187 -66.5q122 0 209 64.5t107 181.5l110 626h160l-113 -641q-23 -134 -115 -229t-226 -130h1q-104 -61 -167 -120.5t-71 -106.5q-8 -41 16 -64t75 -23q56 0 124 30l18 -117
q-82 -46 -188 -46q-105 0 -156 50.5t-36 137.5q23 130 201 239z" />
    <glyph glyph-name="Uring.smcp" horiz-adv-x="1164" 
d="M1029 1330q-17 -88 -87 -144t-161 -56q-93 0 -142 57q-50 58 -34 143q15 90 85 146.5t162 56.5t142 -57q50 -59 35 -146zM714 1330q-8 -44 15.5 -72t69.5 -28q45 0 78.5 28t41.5 72q8 45 -15.5 74.5t-68.5 29.5t-79 -29.5t-42 -74.5zM577 -20q-195 0 -294 104
q-100 103 -70 275l113 641h159l-110 -626q-20 -113 42 -179.5t187 -66.5q122 0 209 64.5t107 181.5l110 626h160l-113 -641q-21 -120 -95.5 -207.5t-178.5 -129.5t-226 -42z" />
    <glyph glyph-name="Utilde.smcp" horiz-adv-x="1164" 
d="M548 1219l-73 71q117 143 234 143q39 1 82 -20t82 -42t68 -20q40 0 71.5 18t74.5 63l68 -76q-59 -71 -114.5 -104t-121.5 -33q-38 -2 -82 18.5t-82.5 41t-64.5 19.5q-37 0 -65.5 -16.5t-76.5 -62.5zM577 -20q-195 0 -294 104q-100 103 -70 275l113 641h159l-110 -626
q-20 -113 42 -179.5t187 -66.5q122 0 209 64.5t107 181.5l110 626h160l-113 -641q-21 -120 -95.5 -207.5t-178.5 -129.5t-226 -42z" />
    <glyph glyph-name="V.smcp" horiz-adv-x="1079" 
d="M440 0l-219 1000h170l177 -839l475 839h168l-570 -1000h-201z" />
    <glyph glyph-name="W.smcp" horiz-adv-x="1586" 
d="M353 0l-123 1000h164l100 -816l400 808h148l114 -808l388 816h164l-475 -1000h-208l-105 723l-359 -723h-208z" />
    <glyph glyph-name="Wacute.smcp" horiz-adv-x="1586" 
d="M1336 1487l-247 -334h-139l206 334h180zM561 0h-208l-123 1000h164l100 -816l400 808h148l114 -808l388 816h164l-475 -1000h-208l-105 723z" />
    <glyph glyph-name="Wcircumflex.smcp" horiz-adv-x="1586" 
d="M1031 1346l-195 -221h-156l340 369h73l210 -369h-156zM353 0l-123 1000h164l100 -816l400 808h148l114 -808l388 816h164l-475 -1000h-208l-105 723l-359 -723h-208z" />
    <glyph glyph-name="Wdieresis.smcp" horiz-adv-x="1586" 
d="M1184 1218q-44 0 -66.5 28t-15.5 71t40 70.5t77 27.5q43 0 66 -27t15 -71t-40.5 -71.5t-75.5 -27.5zM832 1218q-43 0 -66 27.5t-15 71.5q7 43 39.5 70.5t76.5 27.5q45 0 67 -27q22 -28 15 -71q-8 -44 -40.5 -71.5t-76.5 -27.5zM561 0h-208l-123 1000h164l100 -816
l400 808h148l114 -808l388 816h164l-475 -1000h-208l-105 723z" />
    <glyph glyph-name="Wgrave.smcp" horiz-adv-x="1586" 
d="M1040 1156h-139l-129 334h180zM561 0h-208l-123 1000h164l100 -816l400 808h148l114 -808l388 816h164l-475 -1000h-208l-105 723z" />
    <glyph glyph-name="X.smcp" horiz-adv-x="1042" 
d="M590 392l-362 -392h-191l478 513l-283 487h189l212 -367l340 367h190l-456 -487l299 -513h-191z" />
    <glyph glyph-name="Y.smcp" horiz-adv-x="1034" 
d="M439 0l69 391l-288 609h179l214 -455l374 455h179l-501 -608l-69 -392h-157z" />
    <glyph glyph-name="Yacute.smcp" horiz-adv-x="1034" 
d="M779 1153h-139l206 334h180zM439 0l69 391l-288 609h179l214 -455l374 455h179l-501 -608l-69 -392h-157z" />
    <glyph glyph-name="Ycircumflex.smcp" horiz-adv-x="1034" 
d="M755 1346l-195 -221h-156l340 369h73l210 -369h-156zM439 0l69 391l-288 609h179l214 -455l374 455h179l-501 -608l-69 -392h-157z" />
    <glyph glyph-name="Ydieresis.smcp" horiz-adv-x="1034" 
d="M908 1218q-44 0 -66.5 28t-15.5 71t40 70.5t77 27.5q43 0 66 -27t15 -71t-40.5 -71.5t-75.5 -27.5zM556 1218q-43 0 -66 27.5t-15 71.5q7 43 39.5 70.5t76.5 27.5q45 0 67 -27q22 -28 15 -71q-8 -44 -40.5 -71.5t-76.5 -27.5zM508 391l-288 609h179l214 -455l374 455h179
l-501 -608l-69 -392h-157z" />
    <glyph glyph-name="Ygrave.smcp" horiz-adv-x="1034" 
d="M789 1156h-139l-129 334h180zM439 0l69 391l-288 609h179l214 -455l374 455h179l-501 -608l-69 -392h-157z" />
    <glyph glyph-name="Ymacron.smcp" horiz-adv-x="1034" 
d="M1055 1374l-22 -125h-591l22 125h591zM439 0l69 391l-288 609h179l214 -455l374 455h179l-501 -608l-69 -392h-157z" />
    <glyph glyph-name="Ytilde.smcp" horiz-adv-x="1034" 
d="M483 1219l-73 71q117 143 234 143q39 1 82 -20t82 -42t68 -20q40 0 71.5 18t74.5 63l68 -76q-59 -71 -114.5 -104t-121.5 -33q-38 -2 -82 18.5t-82.5 41t-64.5 19.5q-37 0 -65.5 -16.5t-76.5 -62.5zM508 391l-288 609h179l214 -455l374 455h179l-501 -608l-69 -392h-157z
" />
    <glyph glyph-name="Z.smcp" horiz-adv-x="992" 
d="M98 0l22 122l718 741h-581l24 137h781l-22 -125l-717 -738h595l-24 -137h-796z" />
    <glyph glyph-name="Zacute.smcp" horiz-adv-x="992" 
d="M802 1487h180l-247 -334h-139zM98 0l22 122l718 741h-581l24 137h781l-22 -125l-717 -738h595l-24 -137h-796z" />
    <glyph glyph-name="Zcaron.smcp" horiz-adv-x="992" 
d="M665 1126l-210 369h156l114 -222l197 222h156l-340 -369h-73zM894 0h-796l22 122l718 741h-581l24 137h781l-22 -125l-717 -738h595z" />
    <glyph glyph-name="Zdotaccent.smcp" horiz-adv-x="992" 
d="M707 1220q-43 0 -65.5 27.5t-14.5 71.5q7 43 39 70.5t76 27.5t67 -27.5t16 -70.5q-8 -43 -41 -71t-77 -28zM894 0h-796l22 122l718 741h-581l24 137h781l-22 -125l-717 -738h595z" />
    <glyph glyph-name="ampersand.smcp" horiz-adv-x="1072" 
d="M464 -20q-166 0 -258 81q-93 80 -71 207q28 162 266 269q-56 59 -74.5 111.5t-7.5 115.5q14 81 69 140.5t128.5 87.5t155.5 28q124 0 193 -70q68 -71 49 -179q-28 -155 -294 -268l198 -224q62 75 66 267h143q-11 -230 -123 -356l165 -190h-201l-79 87
q-146 -107 -325 -107zM464 768q-8 -50 12 -86q20 -39 67 -90q209 85 226 178q10 56 -23 90.5t-94 34.5q-68 0 -122.5 -32.5t-65.5 -94.5zM489 111q128 0 222 67l-243 267v1l-2 -1h2q-76 -34 -123 -73t-59 -104q-12 -70 46 -113q58 -44 157 -44z" />
    <glyph glyph-name="approxequal.onum" horiz-adv-x="1210" 
d="M326 626l-75 121q173 144 320 144q112 0 189 -53t169 -53q51 0 98 21t111 69l76 -121q-172 -144 -320 -144q-112 0 -187 54q-79 53 -172 53q-85 0 -209 -91zM258 182l-76 121q174 144 321 144q112 0 189 -53t169 -53q51 0 98 21t111 69l76 -121q-174 -144 -321 -144
q-17 0 -32.5 1t-30.5 4.5t-26 5.5t-26 8t-22 8.5t-22 10.5t-19 10t-19.5 11t-17.5 10q-67 38 -143 38q-87 0 -209 -91z" />
    <glyph glyph-name="approxequal.onum.tnum" 
d="M392 626l-75 121q173 144 319 144q111 0 190 -53q77 -53 169 -53q51 0 97.5 21t110.5 69l76 -121q-173 -144 -319 -144q-21 0 -40.5 2t-39 7t-31 8.5t-31 13t-25 12t-26.5 14.5t-23 13q-68 37 -143 37q-87 0 -209 -91zM324 182l-76 121q174 144 320 144q111 0 190 -53
q77 -53 169 -53q51 0 97.5 21t110.5 69l76 -121q-174 -144 -320 -144q-112 0 -187 54q-79 53 -171 53q-88 0 -209 -91z" />
    <glyph glyph-name="approxequal.tnum" 
d="M418 769l-76 121q172 144 320 144q111 0 190 -53q77 -53 169 -53q51 0 97 21t112 69l75 -121q-173 -144 -320 -144q-17 0 -32.5 1t-30.5 4.5t-26 5.5t-26 8t-22 8.5t-22 10.5t-19 10t-19.5 11t-17.5 10q-67 38 -143 38q-87 0 -209 -91zM349 325l-75 121q172 144 320 144
q112 0 189 -53t169 -53q51 0 98 21t111 69l76 -121q-173 -144 -321 -144q-17 0 -32.5 1t-30.5 4.5t-26 5.5t-26 8t-22 8.5t-22 10.5t-19 10t-19.5 11t-17.5 10q-67 38 -143 38q-85 0 -209 -91z" />
    <glyph glyph-name="cent.onum" horiz-adv-x="1159" 
d="M535 -120l32 182q-188 22 -289 163q-100 139 -66 333t183.5 333t346.5 163l29 167h131l-29 -166q121 -14 207.5 -80t123.5 -173l-140 -78q-62 153 -218 181l-122 -693q80 13 152 59t124 116l113 -78q-70 -102 -180.5 -167.5t-234.5 -79.5l-32 -182h-131zM371 558
q-23 -131 39 -227q61 -96 183 -119l122 692q-128 -22 -224.5 -119.5t-119.5 -226.5z" />
    <glyph glyph-name="cent.onum.tnum" 
d="M608 -120l32 183q-184 25 -282 165t-63 330q33 190 180 329t339 165l30 169h131l-29 -165q125 -12 214.5 -78.5t126.5 -175.5l-140 -78q-65 158 -227 182l-123 -696q84 12 159 58.5t127 118.5l113 -78q-71 -104 -185 -170t-240 -78l-32 -181h-131zM454 558
q-23 -128 38 -223q59 -95 175 -121l121 688q-125 -25 -218 -121.5t-116 -222.5z" />
    <glyph glyph-name="cent.tnum" 
d="M699 0l32 183q-184 27 -280 166q-97 139 -63 329q33 190 179 328.5t338 165.5l30 169h131l-29 -165q125 -12 215 -78.5t128 -175.5l-141 -78q-64 159 -228 182l-123 -696q84 12 159.5 59t127.5 118l114 -78q-71 -105 -185 -170.5t-242 -77.5l-32 -181h-131zM547 678
q-22 -126 37 -222q59 -97 174 -122l121 687q-125 -27 -217.5 -122t-114.5 -221z" />
    <glyph glyph-name="currency.onum" horiz-adv-x="1193" 
d="M212 37l-91 110l211 178q-48 100 -28 214q20 111 100 209l-146 174l131 111l143 -173q116 65 225 65q112 0 209 -65l202 173l91 -111l-207 -173q48 -97 28 -210q-20 -108 -106 -214l150 -178l-131 -110l-148 179q-113 -60 -223 -60q-107 0 -198 61zM439 538
q-18 -100 43 -170q60 -71 163 -71q105 0 194 69.5t106 171.5q18 102 -44 176q-61 72 -169 72q-105 0 -190 -72.5t-103 -175.5z" />
    <glyph glyph-name="currency.onum.tnum" 
d="M286 38l-92 110l211 177q-47 105 -28 214q18 107 100 210l-145 173l130 112l143 -173q118 65 226 65q113 0 208 -66l202 173l91 -111l-206 -173q48 -95 27 -210q-20 -110 -106 -213l151 -178l-132 -111l-148 180q-112 -61 -222 -61q-107 0 -198 62zM512 539
q-17 -101 44 -170q62 -71 164 -71q105 0 193 69.5t105 171.5q18 102 -44 176q-62 72 -168 72q-105 0 -190.5 -72t-103.5 -176z" />
    <glyph glyph-name="currency.tnum" 
d="M308 157l-92 110l211 177q-47 105 -28 214q18 107 100 210l-145 173l130 112l143 -173q118 65 226 65q113 0 208 -66l202 173l91 -111l-206 -173q48 -94 27 -210q-20 -110 -106 -213l151 -178l-132 -111l-148 180q-112 -61 -223 -61q-106 0 -197 62zM534 658
q-17 -101 44 -170q62 -71 164 -71q105 0 193 69.5t105 171.5q18 102 -44 176q-62 72 -168 72q-105 0 -190.5 -72t-103.5 -176z" />
    <glyph glyph-name="degree.onum" horiz-adv-x="926" 
d="M546 478q-154 0 -237 99q-83 98 -56 249q25 152 144 252t273 100t238 -100q82 -100 57 -252q-27 -152 -145.5 -250t-273.5 -98zM386 825q-17 -98 35 -160q52 -64 147 -64q97 0 169 64t88 160q18 99 -32 164t-145 65q-97 0 -170.5 -66t-91.5 -163z" />
    <glyph glyph-name="degree.onum.tnum" 
d="M754 478q-154 0 -237 99q-83 98 -56 249q25 152 144 252t273 100t238 -100q82 -100 57 -252q-27 -152 -145.5 -250t-273.5 -98zM594 825q-17 -98 35 -160q52 -64 147 -64q97 0 169 64t88 160q18 99 -32 164t-145 65q-97 0 -170.5 -66t-91.5 -163z" />
    <glyph glyph-name="degree.tnum" 
d="M790 678q-154 0 -237 99q-84 97 -57 249q27 153 144.5 252.5t272.5 99.5t239 -100q83 -101 56 -252q-27 -152 -145 -250t-273 -98zM630 1025q-17 -98 35 -160q51 -64 146 -64q96 0 169 64t89 160q17 99 -33 164q-51 65 -145 65q-97 0 -171 -66t-90 -163z" />
    <glyph glyph-name="divide.onum" horiz-adv-x="1249" 
d="M778 841q-43 0 -66 27.5t-15 71.5q7 43 39.5 70.5t76.5 27.5q45 0 67 -27q22 -28 15 -71q-8 -44 -40.5 -71.5t-76.5 -27.5zM1219 457h-1027l27 158h1027zM753 138q-8 -44 -40 -71t-76 -27t-66 28q-23 28 -16 70q8 44 41 71.5t76 27.5q44 0 66.5 -28t14.5 -71z" />
    <glyph glyph-name="divide.onum.tnum" 
d="M938 939q-7 -43 -40.5 -70.5t-77.5 -27.5t-66 28q-22 26 -14 70t40 71.5t75 27.5q44 0 67 -28t16 -71zM1265 457h-1027l27 158h1027zM679 39q-43 0 -66 27.5t-15 71.5t40.5 71t75.5 27q44 0 67 -27.5t15 -70.5q-7 -43 -40 -71t-77 -28z" />
    <glyph glyph-name="divide.tnum" 
d="M962 1081q-7 -43 -40 -70.5t-77 -27.5t-66 28q-22 27 -15 70q8 44 40.5 71.5t75.5 27.5q44 0 66.5 -28t15.5 -71zM1290 600h-1027l28 158h1027zM704 181q-44 0 -66.5 28t-15.5 71q8 43 40.5 70.5t76.5 27.5t66.5 -27.5t14.5 -70.5q-8 -44 -40.5 -71.5t-75.5 -27.5z" />
    <glyph glyph-name="dollar.onum" horiz-adv-x="1042" 
d="M145 232l144 80q45 -148 192 -180l62 355q-133 46 -199 107q-80 71 -57 197q23 123 125.5 200t235.5 92l23 130h131l-23 -131q107 -15 179.5 -71t102.5 -139l-140 -90q-21 54 -64.5 94.5t-103.5 55.5l-58 -329q15 -6 34.5 -13.5t34.5 -13t31 -12.5q87 -37 119 -72
q86 -79 62 -211q-12 -66 -50 -121t-92.5 -91.5t-118 -58.5t-130.5 -29l-25 -142h-131l25 144q-110 17 -195.5 82t-113.5 167zM450 793q-16 -96 121 -148l51 290q-68 -13 -115.5 -51t-56.5 -91zM667 446l-56 -317q81 13 136.5 53.5t65.5 97.5q11 56 -24 94.5t-122 71.5z" />
    <glyph glyph-name="dollar.onum.tnum" 
d="M314 232l144 80q45 -148 192 -180l62 355q-133 46 -199 107q-80 71 -57 197q23 123 125.5 200t235.5 92l23 130h131l-23 -131q107 -15 179.5 -71t102.5 -139l-140 -90q-21 54 -64.5 94.5t-103.5 55.5l-58 -329q15 -6 34.5 -13.5t34.5 -13t31 -12.5q87 -37 119 -72
q86 -79 62 -211q-12 -66 -50 -121t-92.5 -91.5t-118 -58.5t-130.5 -29l-25 -142h-131l25 144q-110 17 -195.5 82t-113.5 167zM619 793q-16 -96 121 -148l51 290q-68 -13 -115.5 -51t-56.5 -91zM836 446l-56 -317q81 13 136.5 53.5t65.5 97.5q11 56 -24 94.5t-122 71.5z" />
    <glyph glyph-name="dollar.tnum" 
d="M199 273l140 89q35 -93 107 -152.5t179 -74.5l86 491q-38 14 -69 27.5t-63.5 29.5t-56.5 32t-49 36t-40.5 40.5t-30.5 45.5t-19.5 52t-7.5 59.5t6 67.5q29 156 162 252t301 108l28 160h131l-29 -164q120 -16 209.5 -80.5t134.5 -172.5l-145 -94q-72 157 -226 193
l-81 -460q37 -14 65.5 -26t61 -27.5t56.5 -29.5t49.5 -31.5t43.5 -36t35 -40t26.5 -45.5t16 -51.5t6 -59t-6.5 -66.5q-14 -83 -62.5 -150.5t-118 -111t-148.5 -69t-161 -32.5l-28 -158h-131l28 159q-141 14 -251 88t-148 202zM554 1018q-14 -77 32 -123q48 -48 157 -91
l74 421q-63 -7 -117 -30.5t-94.5 -69t-51.5 -107.5zM834 580l-78 -447q105 12 189 65t101 145q15 82 -35 135q-51 52 -177 102z" />
    <glyph glyph-name="dotlessi.smcp" horiz-adv-x="481" 
d="M320 0h-159l176 1000h159z" />
    <glyph glyph-name="dotlessj.smcp" horiz-adv-x="831" 
d="M329 -20q-92 0 -162 40t-110 113l123 108q71 -113 176 -113q90 0 150.5 62t80.5 176l111 634h159l-115 -656q-30 -168 -137.5 -266t-275.5 -98z" />
    <glyph glyph-name="eight.onum" horiz-adv-x="1169" 
d="M579 -20q-217 0 -329 108q-113 107 -82 284q20 118 99.5 207t207.5 135q-177 94 -140 305q20 118 94 202t176 122.5t222 38.5q196 0 297 -98q98 -98 70 -265q-38 -211 -246 -305q110 -46 157 -134t27 -208q-17 -97 -70.5 -173.5t-130 -123.5t-166 -71t-186.5 -24z
M495 1010q-19 -106 43 -168q61 -63 182 -63q117 0 203 60t106 171q18 99 -44 165q-63 65 -183 65q-112 0 -199.5 -61.5t-107.5 -168.5zM335 386q-21 -115 54 -190q73 -75 215 -75q133 0 238 70t128 195q20 116 -54 185t-220 69q-134 0 -237 -65t-124 -189z" />
    <glyph glyph-name="eight.onum.tnum" 
d="M666 -20q-216 0 -329 108q-113 107 -82 284q20 118 99.5 207t207.5 135q-177 94 -140 305q20 118 94 202t176 122.5t222 38.5q196 0 297 -98q99 -98 70 -265q-38 -211 -246 -305q110 -46 157 -134t27 -208q-17 -97 -70.5 -173.5t-130 -123.5t-166 -71t-186.5 -24z
M582 1010q-19 -106 43 -168q61 -63 182 -63q117 0 203 60t106 171q18 99 -44 165q-63 65 -183 65q-112 0 -199.5 -61.5t-107.5 -168.5zM422 386q-21 -115 54 -190q74 -75 215 -75q133 0 238 70t128 195q20 116 -54 185q-73 69 -220 69q-134 0 -237 -65t-124 -189z" />
    <glyph glyph-name="eight.tnum" 
d="M666 -20q-216 0 -329 108q-113 107 -82 284q20 118 99.5 207t207.5 135q-177 94 -140 305q20 118 94 202t176 122.5t222 38.5q196 0 297 -98q99 -98 70 -265q-38 -211 -246 -305q110 -46 157 -134t27 -208q-17 -97 -70.5 -173.5t-130 -123.5t-166 -71t-186.5 -24z
M582 1010q-19 -106 43 -168q61 -63 182 -63q117 0 203 60t106 171q18 99 -44 165q-63 65 -183 65q-112 0 -199.5 -61.5t-107.5 -168.5zM422 386q-21 -115 54 -190q74 -75 215 -75q133 0 238 70t128 195q20 116 -54 185q-73 69 -220 69q-134 0 -237 -65t-124 -189z" />
    <glyph glyph-name="equal.onum" horiz-adv-x="1310" 
d="M292 868h1032l-28 -161h-1032zM203 364h1032l-28 -162h-1032z" />
    <glyph glyph-name="equal.onum.tnum" 
d="M308 868h1032l-28 -161h-1032zM219 364h1032l-28 -162h-1032z" />
    <glyph glyph-name="equal.tnum" 
d="M333 1011h1032l-28 -161h-1032zM244 507h1032l-28 -162h-1032z" />
    <glyph glyph-name="five.onum" horiz-adv-x="1086" 
d="M56 -29l148 79q25 -100 106 -153.5t188 -53.5q132 0 232.5 77.5t123.5 205.5q23 133 -46 212q-69 80 -207 80q-148 0 -272 -97l-127 55l186 691h739l-28 -157h-597l-116 -424q42 35 112 58.5t151 23.5q200 0 307 -122q106 -121 71 -320q-23 -132 -105 -232.5
t-199.5 -152.5t-251.5 -52q-150 0 -266 72t-149 210z" />
    <glyph glyph-name="five.onum.tnum" 
d="M204 -29l148 79q25 -100 106 -153.5t188 -53.5q132 0 232.5 77.5t123.5 205.5q23 133 -46 212q-69 80 -207 80q-148 0 -272 -97l-127 55l186 691h739l-28 -157h-597l-116 -424q42 35 112 58.5t151 23.5q200 0 307 -122q106 -121 71 -320q-23 -132 -105 -232.5
t-199.5 -152.5t-251.5 -52q-150 0 -266 72t-149 210z" />
    <glyph glyph-name="five.tnum" 
d="M255 262l148 79q25 -99 107 -153t188 -54q130 0 231.5 78.5t124.5 204.5q23 133 -46 212q-71 80 -208 80q-147 0 -272 -97l-126 55l185 691h739l-27 -157h-597l-117 -424q43 35 113 58.5t150 23.5q200 0 307 -122t72 -320q-35 -196 -194.5 -316.5t-362.5 -120.5
q-150 0 -266 72t-149 210z" />
    <glyph glyph-name="florin.onum" horiz-adv-x="1166" 
d="M34 -107l91 128q52 -35 123 -35q80 0 142.5 51.5t87.5 139.5l131 434h-189l40 137h189l48 159q46 152 163 242t274 90q106 0 174 -52l-89 -128q-53 35 -123 35q-84 0 -149.5 -51.5t-92.5 -139.5l-46 -155h290l-40 -137h-290l-131 -438q-44 -150 -159 -241t-269 -91
q-107 0 -175 52z" />
    <glyph glyph-name="florin.onum.tnum" 
d="M142 -128l56 132q43 -25 115 -25q100 0 170 64.5t106 183.5l114 383h-189l41 136h191l39 132q46 166 163 260t287 94q97 0 153 -29l-52 -133q-55 23 -116 23q-211 0 -282 -230l-35 -117h291l-41 -136h-288l-118 -390q-57 -184 -174 -282.5t-277 -98.5q-46 0 -90.5 10
t-63.5 23z" />
    <glyph glyph-name="florin.tnum" 
d="M159 32l90 128q52 -35 123 -35q81 0 143.5 52t87.5 139l130 434h-189l40 137h189l48 159q46 151 163.5 241.5t274.5 90.5q106 0 174 -52l-90 -128q-53 35 -123 35q-84 0 -149.5 -51.5t-91.5 -139.5l-47 -155h290l-40 -137h-290l-131 -438q-44 -150 -159 -241t-269 -91
q-106 0 -174 52z" />
    <glyph glyph-name="foundryicon" horiz-adv-x="2293" 
d="M299 951h-103v71h295v-71h-112v-302h-80v302zM1175 951h-101v71h283v-71h-101v-302h-81v302zM1670 553h-81v349h66l8 -24l7 7q22 22 60 22q48 0 75.5 -35t27.5 -94q0 -60 -33 -96.5t-88 -36.5q-25 0 -42 10v-102zM590 553v349h65l9 -24l8 7q19 22 58 22q48 0 75.5 -34.5
t27.5 -94.5t-32.5 -96.5t-88.5 -36.5q-24 0 -40 10v-102h-82zM870 773q0 61 34 97.5t94 36.5t94 -34.5t34 -94.5q0 -61 -35 -97t-96 -36q-57 0 -91 35t-34 93zM1868 773q0 61 34.5 97.5t93.5 36.5q47 0 74 -26t27 -69q0 -31 -8 -52h-139q4 -49 55 -49q39 0 69 13l17 -58
q-39 -21 -95 -21q-59 0 -93.5 35t-34.5 93zM1391 638l-9 27l-89 237h89l51 -173h3l41 173h88l-80 -257q-19 -54 -48.5 -78t-77.5 -24q-33 0 -60 13l9 59q30 -6 46 -6q31 0 37 29zM445 649v253h81v-253h-81zM997 849q-45 0 -45 -71q0 -75 46 -75q45 0 45 72q0 74 -46 74z
M1950 803h70q4 21 -4 33.5t-26 12.5q-36 0 -40 -46zM1670 832v-117q16 -9 33 -9q21 0 33.5 19t12.5 50q0 69 -46 69q-19 0 -33 -12zM672 832v-117q9 -9 30 -9q48 0 48 69t-46 69q-20 0 -32 -12zM1806 376q-2 27 15.5 44.5t41.5 17.5q23 0 37 -17q25 -27 11 -69t-51 -38
q-23 0 -38.5 17t-15.5 45zM1148 314q-24 0 -39 17t-15 45q0 27 15.5 44.5t39.5 17.5q23 0 38.5 -17.5t15.5 -44.5t-15 -44.5t-40 -17.5zM1690 376q0 27 16 44.5t42 17.5q16 0 27 -7l-1 -24h-6l-1 21q-12 3 -19 3q-22 0 -35 -14t-13 -40q0 -56 53 -56q13 0 22 4l3 -6
q-13 -5 -27 -5q-28 0 -44.5 17t-16.5 45zM946 316h-9v120h9v-120zM269 316l-39 120h9l35 -110l35 105h9l35 -105l35 110h10l-40 -120h-10l-34 104l-35 -104h-10zM993 316v120h34q39 0 39 -35q0 -16 -11 -25.5t-29 -9.5h-24v-50h-9zM1462 316h-9v120h34q39 0 39 -35t-41 -35
h-23v-50zM460 316l-39 120h9l35 -110l35 105h9l36 -105l34 110h10l-40 -120h-9l-35 104l-35 -104h-10zM1963 316h-8v120h14l45 -93l45 93h14v-120h-9v111l-46 -94h-8l-47 94v-111zM651 316l-39 120h9l35 -110l35 105h9l36 -105l35 110h9l-40 -120h-9l-35 104l-35 -104h-10z
M1369 363l-42 73h10l37 -66l37 66h9l-42 -73v-47h-9v47zM1629 322v-6h-67v120h65v-6h-57v-50h55v-7h-55v-51h59zM1262 316v114h-37v6h83v-6h-37v-114h-9zM858 316v114h-38v6h84v-6h-38v-114h-8zM1829 417q-21 -23 -9.5 -61.5t41.5 -34.5q19 0 31.5 14.5t12.5 38.5
q0 26 -12.5 41.5t-32.5 15.5q-19 0 -31 -14zM1148 431q-19 0 -31.5 -15t-12.5 -39q0 -25 12.5 -40.5t32.5 -15.5q19 0 31.5 14.5t12.5 38.5q0 26 -12.5 41.5t-32.5 15.5zM1026 430h-24v-58h25q30 0 30 28q0 30 -31 30zM1462 430v-58h25q30 0 30 28q0 30 -32 30h-23z
M1669 321q0 -7 -7 -7t-7 7t7 7t7 -7zM811 321q0 -7 -7 -7t-7 7t7 7t7 -7z" />
    <glyph glyph-name="four.onum" horiz-adv-x="1171" 
d="M746 71h-671l26 151l766 845h218l-150 -850h207l-25 -145h-207l-64 -364h-164zM771 217l118 670l-602 -670h484z" />
    <glyph glyph-name="four.onum.tnum" 
d="M861 71h-671l26 151l766 845h218l-150 -850h207l-25 -145h-207l-64 -364h-164zM886 217l118 670l-602 -670h484z" />
    <glyph glyph-name="four.tnum" 
d="M902 362h-671l26 151l766 845h218l-149 -850h207l-26 -145h-207l-64 -364h-164zM928 508l118 670l-602 -670h484z" />
    <glyph glyph-name="greater.onum" horiz-adv-x="1136" 
d="M1118 439l-984 -400l30 173l815 323l-699 332l30 173l842 -412z" />
    <glyph glyph-name="greater.onum.tnum" 
d="M1205 439l-984 -400l30 173l814 323l-698 332l30 173l842 -412z" />
    <glyph glyph-name="greater.tnum" 
d="M1231 582l-985 -400l31 173l814 323l-699 332l31 173l841 -412z" />
    <glyph glyph-name="greaterequal.onum" horiz-adv-x="1318" 
d="M222 354l28 159h847l-776 374l32 179l942 -489l-40 -223h-1033zM149 -68l29 162h1033l-29 -162h-1033z" />
    <glyph glyph-name="greaterequal.onum.tnum" 
d="M216 354l28 159h846l-776 374l32 179l943 -489l-40 -223h-1033zM142 -68l29 162h1033l-29 -162h-1033z" />
    <glyph glyph-name="greaterequal.tnum" 
d="M242 497l28 159h846l-776 374l31 179l943 -489l-39 -223h-1033zM167 75l29 162h1033l-29 -162h-1033z" />
    <glyph glyph-name="i.TRK" horiz-adv-x="491" 
d="M454 1183q-43 0 -66 27.5t-15 71.5q7 43 39 70.5t76 27.5t67 -27q23 -29 16 -71q-8 -44 -40.5 -71.5t-76.5 -27.5zM494 960l-169 -960h-159l169 960h159z" />
    <glyph glyph-name="ijacute" horiz-adv-x="990" 
d="M1267 1447l-247 -334h-139l206 334h180zM757 1447l-247 -334h-139l206 334h180zM447 -420q-93 0 -146 27l41 134q51 -20 120 -20q154 0 188 195l184 1044h159l-186 -1055q-27 -155 -120.5 -240t-239.5 -85zM494 960l-169 -960h-159l169 960h159z" />
    <glyph glyph-name="kgreenlandic.smcp" horiz-adv-x="1063" 
d="M320 0h-159l177 1001h159l-90 -505l581 508h213l-510 -427l340 -576h-202l-269 468l-187 -166z" />
    <glyph glyph-name="less.onum" horiz-adv-x="1136" 
d="M346 535l700 -323l-30 -173l-844 400l34 189l986 412l-30 -173z" />
    <glyph glyph-name="less.onum.tnum" 
d="M465 535l700 -323l-30 -173l-844 400l34 189l986 412l-30 -173z" />
    <glyph glyph-name="less.tnum" 
d="M491 678l700 -323l-31 -173l-843 400l33 189l987 412l-31 -173z" />
    <glyph glyph-name="lessequal.onum" horiz-adv-x="1318" 
d="M401 513h847l-28 -159h-1033l40 223l1114 489l-32 -179zM139 94h1033l-29 -162h-1033z" />
    <glyph glyph-name="lessequal.onum.tnum" 
d="M432 513h847l-28 -159h-1033l40 223l1114 489l-32 -179zM170 94h1033l-29 -162h-1033z" />
    <glyph glyph-name="lessequal.tnum" 
d="M458 656h847l-28 -159h-1033l39 223l1114 489l-31 -179zM195 237h1033l-29 -162h-1033z" />
    <glyph glyph-name="logicalnot.onum" horiz-adv-x="1325" 
d="M1230 285h-162l69 391h-919l28 159h1081z" />
    <glyph glyph-name="logicalnot.onum.tnum" 
d="M1261 285h-162l69 391h-919l28 159h1081z" />
    <glyph glyph-name="logicalnot.tnum" 
d="M1286 428h-162l69 391h-919l28 159h1081z" />
    </font>
</defs>
</svg>
