<?xml version="1.0" standalone="no"?>
<!DOCTYPE svg PUBLIC "-//W3C//DTD SVG 1.1//EN" "http://www.w3.org/Graphics/SVG/1.1/DTD/svg11.dtd" >
<svg xmlns="http://www.w3.org/2000/svg" xmlns:xlink="http://www.w3.org/1999/xlink" version="1.1">
<metadata>
Created by FontForge 20170731 at Sun Sep 13 23:32:34 2020
 By Aleksey,,,
Copyright (c) 2020 by TipoType Team. All rights reserved.
</metadata>
<defs>
<font id="Mundial-DemiboldItalic" horiz-adv-x="1391" >
  <font-face 
    font-family="Mundial DemiBd"
    font-weight="600"
    font-style="italic"
    font-stretch="normal"
    units-per-em="2048"
    panose-1="0 0 0 0 0 0 0 0 0 0"
    ascent="1638"
    descent="-410"
    x-height="960"
    cap-height="1358"
    bbox="-263 -528 2692.01 2296"
    underline-thickness="150"
    underline-position="-950"
    unicode-range="U+000D-FB04"
  />
<missing-glyph horiz-adv-x="1401" 
d="M702 776l-243 242l-97 -97l242 -240l-244 -245l97 -97l245 242l243 -242l97 97l-244 245l242 240l-97 97zM1210 0h-1018v1358h1018v-1358z" />
    <glyph glyph-name="f_f" unicode="ff" horiz-adv-x="1415" 
d="M206 0l132 747h-169l37 213h171l17 94q30 176 155.5 275t306.5 99q84 0 176 -34l-64 -210q-51 24 -124 24q-175 0 -205 -169l-14 -79h414l17 94q30 176 155.5 275t306.5 99q83 0 176 -34l-64 -210q-51 24 -124 24q-175 0 -205 -169l-14 -79h274l-37 -213h-267l-132 -747
h-257l132 747h-405l-132 -747h-257z" />
    <glyph glyph-name="fi" unicode="fi" horiz-adv-x="1260" 
d="M206 0l132 747h-169l37 213h171l17 94q30 173 148.5 273.5t293.5 100.5q83 0 176 -34l-64 -210q-51 24 -124 24q-155 0 -185 -169l-14 -79h274l-37 -213h-267l-132 -747h-257zM1357 1268q-12 -65 -60 -106t-114 -41q-64 0 -99 41q-34 40 -22 106q11 65 59.5 106.5
t113.5 41.5t99 -41t23 -107zM1284 960l-169 -960h-257l169 960h257z" />
    <glyph glyph-name="fl" unicode="fl" horiz-adv-x="1259" 
d="M206 0l132 747h-169l37 213h171l17 94q30 173 148.5 273.5t293.5 100.5q83 0 176 -34l-64 -210q-51 24 -124 24q-155 0 -185 -169l-14 -79h274l-37 -213h-267l-132 -747h-257zM1114 0h-256l248 1408h256z" />
    <glyph glyph-name="f_f_i" unicode="ffi" horiz-adv-x="1922" 
d="M338 747h-169l37 213h171l17 94q30 176 155.5 275t306.5 99q84 0 176 -34l-64 -210q-51 24 -124 24q-175 0 -205 -169l-14 -79h414l17 94q30 173 148.5 273.5t293.5 100.5q83 0 176 -34l-64 -210q-51 24 -124 24q-155 0 -185 -169l-14 -79h274l-37 -213h-267l-132 -747
h-257l132 747h-405l-132 -747h-257zM2019 1268q-12 -65 -60 -106t-114 -41q-64 0 -99 41q-34 40 -22 106q11 65 59.5 106.5t113.5 41.5t99 -41t23 -107zM1946 960l-169 -960h-257l169 960h257z" />
    <glyph glyph-name="f_f_l" unicode="ffl" horiz-adv-x="1911" 
d="M338 747h-169l37 213h171l17 94q30 176 155.5 275t306.5 99q84 0 176 -34l-64 -210q-51 24 -124 24q-175 0 -205 -169l-14 -79h404l17 94q30 173 148.5 273.5t293.5 100.5q83 0 176 -34l-64 -210q-51 24 -124 24q-155 0 -185 -169l-14 -79h274l-37 -213h-267l-132 -747
h-257l132 747h-395l-132 -747h-257zM1766 0h-256l248 1408h256z" />
    <glyph glyph-name=".notdef" horiz-adv-x="1401" 
d="M702 776l-243 242l-97 -97l242 -240l-244 -245l97 -97l245 242l243 -242l97 97l-244 245l242 240l-97 97zM1210 0h-1018v1358h1018v-1358z" />
    <glyph glyph-name="uni0000" horiz-adv-x="41" 
 />
    <glyph glyph-name="uni0000" horiz-adv-x="41" 
 />
    <glyph glyph-name="uni000D" unicode="&#xd;" horiz-adv-x="525" 
 />
    <glyph glyph-name="space" unicode=" " horiz-adv-x="499" 
 />
    <glyph glyph-name="exclam" unicode="!" horiz-adv-x="583" 
d="M460 388h-200l126 970h292zM401 23q-50 -43 -114 -43t-98 43q-35 42 -24 104q10 60 61 105q50 42 113 42t99 -42q34 -44 24 -105q-11 -63 -61 -104z" />
    <glyph glyph-name="quotedbl" unicode="&#x22;" horiz-adv-x="833" 
d="M610 1428l-133 -510h-173l47 510h259zM853 918h-172l47 510h259z" />
    <glyph glyph-name="numbersign" unicode="#" horiz-adv-x="1434" 
d="M357 332h-232l67 190h234q23 67 60 170q45 125 60 170h-233l67 189h232l108 307h215l-105 -307h274l109 307h216l-107 -307h234l-66 -189h-235l-121 -340h234l-68 -190h-232l-120 -333h-218l120 333h-275l-121 -333h-217zM1041 862h-279l-121 -340h279z" />
    <glyph glyph-name="dollar" unicode="$" horiz-adv-x="1219" 
d="M128 301l224 144q27 -86 87.5 -141.5t149.5 -72.5l61 347q-124 44 -185 77q-64 35 -94 65q-53 50 -72.5 113.5t-5.5 154.5q15 85 64 157t118.5 119.5t150.5 76t165 35.5l28 160h131l-29 -163q141 -20 235 -99q93 -79 137 -191l-234 -148q-61 147 -182 186l-57 -322
q176 -67 240 -106q128 -80 142 -205q6 -48 -5 -111q-15 -86 -65.5 -159.5t-125.5 -122.5q-150 -98 -330 -112l-28 -159h-131l28 159q-163 16 -273 104q-109 85 -144 214zM773 535l-54 -307q81 11 137 51.5t66 95.5q9 51 -27 88t-122 72zM697 844l50 287q-70 -11 -119 -49.5
t-59 -92.5q-9 -55 19.5 -85.5t108.5 -59.5z" />
    <glyph glyph-name="percent" unicode="%" horiz-adv-x="1818" 
d="M1378 -20q-164 0 -254 108q-90 106 -61 267q28 161 157 270q128 108 291 108q165 0 256 -108q91 -107 62 -270q-28 -160 -157 -267q-129 -108 -294 -108zM838 733q-129 -108 -293 -108t-254 108q-90 107 -62 267q28 161 157 270q128 108 292 108q165 0 255 -108t61 -270
q-28 -160 -156 -267zM1589 1334l-967 -1334h-157l5 26l968 1332h155zM428 1000q-14 -79 29 -131q44 -53 122 -53t140 53q60 53 74 131q14 80 -28 133q-42 54 -121 54q-78 0 -140 -54q-63 -55 -76 -133zM1263 355q-14 -79 29 -131q42 -53 120 -53t140 53q61 52 75 131
q14 80 -28 134q-42 53 -121 53q-78 0 -139 -54q-63 -55 -76 -133z" />
    <glyph glyph-name="ampersand" unicode="&#x26;" horiz-adv-x="1431" 
d="M592 -20q-239 0 -363 106t-94 279q24 131 133 227q93 82 212 136q-123 145 -99 284q19 111 94 198q74 85 176 126q103 42 220 42q178 0 276 -98q98 -100 70 -254q-19 -104 -106 -186.5t-255 -159.5l200 -231q33 48 49 131q17 87 20 163h249q-7 -144 -42 -251
q-35 -109 -116 -207l246 -285h-357l-90 104q-199 -124 -423 -124zM412 382q-14 -80 49 -123q61 -45 175 -45q139 0 236 61l-261 302q-72 -29 -129 -78q-56 -49 -70 -117zM648 1015q-6 -37 3 -73t26 -59q15 -21 46 -55q217 96 233 196q9 58 -27 91t-101 33q-62 0 -115 -36
q-55 -36 -65 -97z" />
    <glyph glyph-name="quotesingle" unicode="'" horiz-adv-x="456" 
d="M610 1428l-133 -510h-173l47 510h259z" />
    <glyph glyph-name="parenleft" unicode="(" horiz-adv-x="641" 
d="M567 -400h-247q-137 235 -161 598q-12 185 24 382q49 281 175 522q122 234 308 458h245q-38 -46 -81 -107q-45 -63 -104 -159q-65 -104 -113 -204q-53 -107 -98 -240q-48 -136 -72 -270q-23 -136 -23 -270q-1 -133 14 -240q13 -99 41 -205q27 -102 48 -158
q20 -54 44 -107z" />
    <glyph glyph-name="parenright" unicode=")" horiz-adv-x="641" 
d="M179 -400h-246q50 63 109 147q52 74 132 211q75 129 138 295q62 163 90 327q23 131 25 270q0 133 -14 240q-12 95 -40 204q-27 100 -48 159q-20 54 -44 107h245q230 -458 137 -980q-49 -281 -182 -537q-130 -253 -302 -443z" />
    <glyph glyph-name="asterisk" unicode="*" horiz-adv-x="936" 
d="M623 1408h187l-56 -254l250 87l29 -170l-258 -74l130 -206l-168 -107l-110 218l-184 -218l-132 106l203 207l-232 74l89 170l218 -87z" />
    <glyph glyph-name="plus" unicode="+" horiz-adv-x="1177" 
d="M480 151l72 411h-412l42 240h412l72 404h268l-72 -404h415l-42 -240h-415l-72 -411h-268z" />
    <glyph glyph-name="comma" unicode="," horiz-adv-x="519" 
d="M-22 -263l223 516h260l-268 -516h-215z" />
    <glyph glyph-name="hyphen" unicode="-" horiz-adv-x="931" 
d="M238 667h692l-38 -214h-692z" />
    <glyph glyph-name="period" unicode="." horiz-adv-x="476" 
d="M348 23q-50 -43 -114 -43t-98 43q-35 42 -24 104q10 60 61 105q49 42 113 42q63 0 99 -42q35 -44 24 -105q-11 -63 -61 -104z" />
    <glyph glyph-name="slash" unicode="/" horiz-adv-x="1105" 
d="M1081 1529h263l-1119 -1929h-262z" />
    <glyph glyph-name="zero" unicode="0" horiz-adv-x="1328" 
d="M660 -20q-97 0 -175.5 25.5t-132.5 71.5t-90.5 109.5t-52.5 141.5t-15.5 164.5t17.5 181.5q30 174 105 320.5t191 243.5q166 140 400 140q98 0 177 -26t133 -73.5t90 -112t51.5 -144t15 -166.5t-17.5 -182q-50 -291 -222 -486q-86 -98 -208.5 -153t-265.5 -55zM488 679
q-19 -90 -14.5 -172.5t26.5 -146t74 -101t129 -37.5t142 37t111 102t77.5 145t47.5 173q13 71 14 136.5t-11.5 124.5t-39 102t-72.5 68.5t-108 25.5q-77 0 -142.5 -38t-110.5 -104t-76 -145t-47 -170z" />
    <glyph glyph-name="one" unicode="1" horiz-adv-x="759" 
d="M589 0h-270l198 1121h-289l41 237h559z" />
    <glyph glyph-name="two" unicode="2" horiz-adv-x="1126" 
d="M1083 236l-42 -236h-942l20 113q15 88 78 179q48 70 144 152q26 22 86 67q63 45 84 59q5 3 84 55q151 97 229 169q72 66 86 144q16 90 -31 143.5t-140 53.5q-84 0 -156.5 -53.5t-121.5 -147.5l-208 108q81 151 226 244q146 92 300 92q213 0 329 -123t81 -314
q-15 -84 -55 -153.5t-116 -135.5q-88 -75 -125 -101q-51 -36 -154 -102q-27 -18 -35 -23q-218 -140 -249 -190h628z" />
    <glyph glyph-name="three" unicode="3" horiz-adv-x="1137" 
d="M127 311l239 120q20 -97 83 -152.5t153 -55.5q85 0 154 48q70 47 83 126q15 84 -38.5 134t-156.5 50h-198l38 211h198q87 0 152 50q64 49 79 132q12 71 -33.5 116t-131.5 45q-89 0 -167 -57q-79 -56 -127 -141l-197 119q83 139 222 230q140 92 311 92q93 0 172.5 -26
t137 -75t83 -125.5t9.5 -170.5q-17 -91 -85 -170q-69 -79 -155 -117q87 -31 133 -118q47 -89 30 -187q-23 -129 -110 -222q-89 -97 -203 -141q-114 -46 -239 -46q-168 0 -283 87q-117 87 -153 244z" />
    <glyph glyph-name="four" unicode="4" horiz-adv-x="1188" 
d="M742 341h-642l37 209l726 808h317l-138 -787h188l-41 -230h-188l-60 -342h-259zM867 1050l-432 -479h348z" />
    <glyph glyph-name="five" unicode="5" horiz-adv-x="1134" 
d="M550 -20q-176 0 -287 86.5t-150 249.5l238 113q22 -99 83 -152.5t153 -53.5q102 0 179 61q76 60 93 153q16 97 -39 157q-56 60 -165 60q-134 0 -252 -100l-171 83l207 721h791l-42 -238h-572l-84 -299q40 29 102.5 47.5t129.5 18.5q198 0 303 -122q105 -123 70 -324
q-36 -202 -201 -331q-164 -130 -386 -130z" />
    <glyph glyph-name="six" unicode="6" horiz-adv-x="1212" 
d="M628 -20q-113 0 -199 33t-136.5 91.5t-79.5 139t-28.5 176t16.5 201.5q63 352 263 555q199 202 505 202q199 0 332 -79l-102 -215q-107 65 -251 65q-161 0 -282 -97q-123 -99 -166 -290q49 61 141 100q93 38 193 38q93 0 171 -26.5t135.5 -78.5t81.5 -140t3 -200
q-37 -216 -203 -345q-164 -130 -394 -130zM470 448q-18 -105 36 -171q52 -67 160 -67q110 0 189 66q78 63 98 170q19 107 -36.5 170t-167.5 63q-107 0 -183 -64q-78 -65 -96 -167z" />
    <glyph glyph-name="seven" unicode="7" horiz-adv-x="990" 
d="M431 0h-292q300 603 707 1113h-602l43 245h910l-35 -202q-418 -519 -731 -1156z" />
    <glyph glyph-name="eight" unicode="8" horiz-adv-x="1195" 
d="M784 4q-139 -37 -284.5 -18t-238.5 87q-67 47 -96 126t-11 178q21 115 93 202.5t179 133.5q-76 44 -111 121t-17 174q15 90 69 163.5t132 118.5q155 88 341 88q188 0 311 -88q62 -44 89 -117.5t12 -164.5q-18 -97 -79.5 -174t-151.5 -121q91 -46 132.5 -134t20.5 -202
q-24 -147 -133 -243.5t-257 -129.5zM436 404q-17 -95 40 -147q56 -54 157 -54q102 0 177 54q76 53 92 147q16 93 -39 148q-57 54 -159 54q-101 0 -176 -54q-76 -56 -92 -148zM569 976q-15 -84 30.5 -134t137.5 -50q93 0 155.5 50t77.5 134q14 79 -32 127.5t-138 48.5
t-154.5 -48.5t-76.5 -127.5z" />
    <glyph glyph-name="nine" unicode="9" horiz-adv-x="1235" 
d="M156 82l116 216q114 -87 264 -87q212 0 343 170q68 90 95 214q-129 -132 -341 -132q-215 0 -326 123q-111 122 -76 322q37 211 203 341q166 129 399 129q116 0 204.5 -32.5t141 -90t82.5 -137t30.5 -173.5t-15.5 -198q-65 -359 -261 -563q-197 -204 -510 -204
q-221 0 -349 102zM504 916q-19 -105 39.5 -166.5t173.5 -61.5q111 0 192 66q79 66 96 161q17 97 -40 164q-57 68 -166 68q-113 0 -195 -63q-82 -64 -100 -168z" />
    <glyph glyph-name="colon" unicode=":" horiz-adv-x="534" 
d="M502 728q-50 -43 -114 -43t-98 43q-35 42 -24 104q10 60 61 105q49 43 113 43q63 0 99 -43q35 -43 24 -105q-10 -61 -61 -104zM377 23q-50 -43 -114 -43t-98 43q-35 42 -24 104q10 60 61 105q50 42 113 42t99 -42q34 -44 24 -105q-11 -63 -61 -104z" />
    <glyph glyph-name="semicolon" unicode=";" horiz-adv-x="565" 
d="M213 -263h-216l223 516h260zM536 728q-50 -43 -114 -43t-98 43q-35 42 -24 104q10 60 61 105q49 43 113 43q63 0 99 -43q35 -43 24 -105q-10 -61 -61 -104z" />
    <glyph glyph-name="less" unicode="&#x3c;" horiz-adv-x="1198" 
d="M515 679l612 -283l-47 -268l-892 431l42 238l1045 437l-48 -268z" />
    <glyph glyph-name="equal" unicode="=" horiz-adv-x="1316" 
d="M223 562h1069l-43 -244h-1069zM307 1039h1069l-43 -243h-1069z" />
    <glyph glyph-name="greater" unicode="&#x3e;" horiz-adv-x="1198" 
d="M165 128l47 268l712 283l-612 287l48 268l891 -437l-42 -237z" />
    <glyph glyph-name="question" unicode="?" horiz-adv-x="1037" 
d="M437 934l-208 108q79 150 224 244q145 92 302 92q186 0 298 -98q55 -49 78 -123.5t8 -162.5q-19 -113 -130 -219q-47 -47 -102 -96q-11 -10 -35 -32t-35 -32t-30.5 -29t-31.5 -32t-26 -31t-26 -35q-36 -54 -45 -106l-3 -24h-233q-4 38 4 85q19 110 119 207q59 57 91 86
q14 13 45.5 40.5t46.5 41.5t36 36.5t35 43.5q32 45 39 88q12 72 -27 110.5t-118 38.5q-163 0 -276 -201zM393 23q-35 42 -24 104q10 60 61 105q50 42 113 42t99 -42q34 -44 24 -105q-11 -63 -61 -104q-50 -43 -114 -43t-98 43z" />
    <glyph glyph-name="at" unicode="@" horiz-adv-x="1897" 
d="M891 -334q-175 0 -324.5 63.5t-249.5 177.5q-99 111 -142 277q-42 164 -9 351q39 230 172 416.5t325 300.5q253 156 555 156q168 0 314 -63q144 -63 240 -171q96 -112 136 -263q41 -155 11 -326q-42 -240 -159 -370q-117 -132 -278 -132q-89 0 -147.5 46t-80.5 131
q-46 -68 -139 -117q-91 -48 -195 -48q-176 0 -276 123q-101 122 -68 312q34 192 171 315t310 123q178 0 251 -118l28 100h200l-101 -571q-14 -77 11.5 -118t83.5 -41q84 0 149 102q63 100 92 263q25 140 -5.5 266t-108.5 218q-79 92 -202 144.5t-271 52.5q-334 0 -575 -202
q-240 -202 -299 -531q-36 -203 31.5 -369t219 -260t355.5 -94q212 0 440 109l33 -121q-263 -132 -498 -132zM787 535q-18 -101 35 -172t151 -71q99 0 179 71q79 70 96 172q18 101 -36 171q-54 69 -153 69t-176 -69q-78 -69 -96 -171z" />
    <glyph glyph-name="A" unicode="A" horiz-adv-x="1414" 
d="M440 266l-148 -266h-288l787 1358h310l310 -1358h-288l-53 266h-630zM898 1076l-344 -595h476z" />
    <glyph glyph-name="B" unicode="B" horiz-adv-x="1344" 
d="M839 0h-669l239 1358h625q184 0 284 -103t71 -268q-21 -116 -113 -206q-52 -52 -119 -75q102 -42 146 -129.5t24 -199.5q-29 -167 -164 -272q-137 -105 -324 -105zM897 581h-355l-61 -350h355q79 0 138 47q56 46 70 120q15 84 -25 133.5t-122 49.5zM639 1126l-59 -332
h319q80 0 136.5 45t69.5 118q14 77 -30 123t-127 46h-309z" />
    <glyph glyph-name="C" unicode="C" horiz-adv-x="1440" 
d="M781 -20q-144 0 -265 53.5t-199 147.5q-79 94 -110.5 224t-5.5 274q34 193 154 356q118 160 295 252q175 91 371 91q187 0 332 -90t216 -249l-240 -152q-103 241 -352 241q-185 0 -324 -126q-141 -127 -175 -323q-35 -197 64 -323q98 -126 284 -126q244 0 452 234
l173 -144q-125 -163 -303 -251q-180 -89 -367 -89z" />
    <glyph glyph-name="D" unicode="D" horiz-adv-x="1514" 
d="M732 -1h-562l239 1358h562q199 0 344 -88q144 -87 209 -244q63 -156 29 -347q-35 -194 -152 -347q-118 -155 -294 -244q-175 -88 -375 -88zM922 1125h-284l-157 -893h284q192 0 335 127q143 128 177 319q33 190 -65 319q-99 128 -290 128z" />
    <glyph glyph-name="E" unicode="E" horiz-adv-x="1231" 
d="M481 233h711l-41 -233h-981l239 1358h966l-41 -234h-696l-55 -313h604l-41 -234h-604z" />
    <glyph glyph-name="F" unicode="F" horiz-adv-x="1186" 
d="M1088 571h-547l-101 -571h-270l239 1358h967l-41 -234h-697l-56 -319h547z" />
    <glyph glyph-name="G" unicode="G" horiz-adv-x="1517" 
d="M781 -20q-194 0 -340 92q-145 92 -210 252q-64 160 -30 355q34 193 154 356q118 160 295 252q175 91 371 91q178 0 318.5 -83t220.5 -236l-240 -152q-108 221 -343 221q-185 0 -324 -126q-141 -127 -175 -323q-35 -197 64 -323q98 -126 284 -126q160 0 273 80
q112 79 159 197h-411l41 233h684q-9 -155 -72.5 -296t-168.5 -243q-104 -102 -247 -161q-142 -60 -303 -60z" />
    <glyph glyph-name="H" unicode="H" horiz-adv-x="1540" 
d="M440 0h-270l239 1358h270l-96 -549h662l96 549h269l-239 -1358h-269l102 576h-662z" />
    <glyph glyph-name="I" unicode="I" horiz-adv-x="609" 
d="M409 1358h270l-239 -1358h-270z" />
    <glyph glyph-name="J" unicode="J" horiz-adv-x="1073" 
d="M430 -20q-137 0 -237 59.5t-155 174.5l200 174q86 -158 241 -158q99 0 166.5 72t90.5 203l150 853h270l-152 -867q-44 -240 -195 -375q-151 -136 -379 -136z" />
    <glyph glyph-name="K" unicode="K" horiz-adv-x="1378" 
d="M512 411l-72 -411h-270l239 1358h270l-108 -616l679 616h346l-620 -552l412 -806h-328l-308 626z" />
    <glyph glyph-name="L" unicode="L" horiz-adv-x="1197" 
d="M481 233h731l-41 -233h-1001l239 1358h270z" />
    <glyph glyph-name="M" unicode="M" horiz-adv-x="1786" 
d="M587 833l-147 -833h-270l239 1358h286l279 -904l596 904h286l-239 -1358h-270l147 833l-497 -742h-175z" />
    <glyph glyph-name="N" unicode="N" horiz-adv-x="1605" 
d="M440 0h-270l239 1358h245l587 -932l164 932h270l-239 -1358h-249l-584 922z" />
    <glyph glyph-name="O" unicode="O" horiz-adv-x="1586" 
d="M789 -20q-204 0 -350 88q-147 89 -210 247t-28 361q55 307 291 505q236 197 544 197q151 0 274.5 -52t202.5 -145q78 -94 108 -224.5t3 -280.5q-34 -201 -155 -361q-120 -159 -298 -247q-177 -88 -382 -88zM479 677q-34 -198 66 -322t290 -124q192 0 334 124
q144 124 178 322q35 199 -64 324t-290 125q-190 0 -334 -126q-145 -126 -180 -323z" />
    <glyph glyph-name="P" unicode="P" horiz-adv-x="1298" 
d="M523 467l-82 -466h-271l239 1357h594q219 0 332 -123q111 -124 75 -325q-34 -194 -189 -318q-157 -125 -375 -125h-323zM639 1124l-74 -423h306q107 0 177 59q68 58 85 150q18 97 -32 155.5t-156 58.5h-306z" />
    <glyph glyph-name="Q" unicode="Q" horiz-adv-x="1587" 
d="M802 -20q-204 0 -350 88q-147 89 -210 247t-28 361q55 307 291 505q236 197 544 197q151 0 274.5 -52t202.5 -145q78 -94 108 -224.5t3 -280.5q-29 -165 -115.5 -302.5t-218.5 -233.5l111 -204l-214 -132l-120 221q-135 -45 -278 -45zM492 677q-34 -198 66 -322t290 -124
q58 0 114 12l-101 187l213 132l111 -205q141 124 175 320q35 199 -64 324t-290 125q-190 0 -334 -126q-145 -126 -180 -323z" />
    <glyph glyph-name="R" unicode="R" horiz-adv-x="1359" 
d="M441 1h-271l239 1357h599q220 0 332 -120t78 -316q-23 -130 -108 -230.5t-213 -152.5l212 -539h-296l-190 494h-295zM950 1124h-311l-70 -396h311q106 0 177 56q69 56 84 138q15 91 -35 146.5t-156 55.5z" />
    <glyph glyph-name="S" unicode="S" horiz-adv-x="1224" 
d="M139 301l224 144q33 -104 113 -162.5t197 -58.5q100 0 174 43q76 44 86 108q11 61 -43.5 103t-186.5 86q-95 32 -142 51q-58 22 -116 58q-62 36 -93 77q-72 95 -48 238q15 90 70.5 166.5t135.5 125.5q162 98 344 98q172 0 287 -84q114 -85 163 -211l-234 -148
q-85 199 -266 199q-83 0 -147 -40q-65 -41 -77 -105q-10 -64 28 -94q39 -31 147 -69q15 -5 35.5 -12.5t26.5 -9.5q177 -67 239 -102q132 -77 154 -191q11 -62 -2 -134q-17 -94 -75 -172t-142 -126q-170 -99 -364 -99q-190 0 -320 89q-130 88 -168 232z" />
    <glyph glyph-name="T" unicode="T" horiz-adv-x="1161" 
d="M644 1118h-425l42 240h1118l-42 -240h-424l-197 -1118h-269z" />
    <glyph glyph-name="U" unicode="U" horiz-adv-x="1471" 
d="M1180 127q-186 -147 -448 -147q-261 0 -395 146t-91 390l148 842h269l-147 -836q-24 -136 49 -218t210 -82q138 0 239 82q102 83 126 218l147 836h269l-148 -842q-44 -244 -228 -389z" />
    <glyph glyph-name="V" unicode="V" horiz-adv-x="1379" 
d="M861 0h-340l-272 1358h289l202 -1081l580 1081h289z" />
    <glyph glyph-name="W" unicode="W" horiz-adv-x="2044" 
d="M396 0l-133 1358h271l109 -1089l494 1068h243l116 -1068l493 1089h271l-611 -1358h-378l-95 875l-402 -875h-378z" />
    <glyph glyph-name="X" unicode="X" horiz-adv-x="1348" 
d="M323 0h-324l633 696l-366 662h323l243 -462l405 462h324l-598 -662l387 -696h-324l-264 498z" />
    <glyph glyph-name="Y" unicode="Y" horiz-adv-x="1337" 
d="M626 513l-378 845h322l241 -571l445 571h312l-673 -845l-90 -513h-269z" />
    <glyph glyph-name="Z" unicode="Z" horiz-adv-x="1209" 
d="M1139 0h-1065l34 193l865 929h-691l41 236h1045l-34 -196l-866 -927h712z" />
    <glyph glyph-name="bracketleft" unicode="[" horiz-adv-x="722" 
d="M374 -217h277l-33 -183h-522l345 1953h522l-32 -183h-277z" />
    <glyph glyph-name="backslash" unicode="\" horiz-adv-x="1105" 
d="M739 -400l-437 1929h263l436 -1929h-262z" />
    <glyph glyph-name="bracketright" unicode="]" horiz-adv-x="722" 
d="M-37 -400l33 183h277l280 1587h-277l32 183h522l-345 -1953h-522z" />
    <glyph glyph-name="asciicircum" unicode="^" horiz-adv-x="1221" 
d="M445 510h-306l597 848h228l299 -848h-305l-163 533z" />
    <glyph glyph-name="underscore" unicode="_" horiz-adv-x="1147" 
d="M1053 -75l-35 -200h-984l35 200h984z" />
    <glyph glyph-name="grave" unicode="`" horiz-adv-x="736" 
d="M853 1473h-216l-174 334h292z" />
    <glyph glyph-name="a" unicode="a" horiz-adv-x="1093" 
d="M441 -20q-163 0 -249 81q-85 80 -62 214q24 136 155 222q130 85 321 85q109 0 196 -33l4 22q14 80 -35 132q-49 51 -141 51q-142 0 -275 -121l-121 147q72 76 191 139q115 61 253 61q211 0 315 -104q103 -105 72 -285l-104 -591h-244l19 107q-51 -60 -128.5 -93.5
t-166.5 -33.5zM376 289q-10 -54 28 -86t111 -32q93 0 167 57q72 56 89 146q-75 37 -178 37q-88 0 -147.5 -33.5t-69.5 -88.5z" />
    <glyph glyph-name="b" unicode="b" horiz-adv-x="1255" 
d="M397 0h-251l248 1408h252l-99 -564q130 136 340 136q203 0 310 -140q105 -139 67 -359q-38 -218 -194 -359q-155 -142 -360 -142q-101 0 -176 32t-114 90zM594 674q-88 -76 -108 -192t40 -193q60 -79 173 -79t201 79t107 193q19 117 -39 193q-60 75 -174 75t-200 -76z
" />
    <glyph glyph-name="c" unicode="c" horiz-adv-x="1088" 
d="M577 -20q-138 -2 -244 66t-153 184.5t-20 251.5q21 135 111 252t221 184.5t268 64.5q139 0 249 -71q108 -72 149 -203l-217 -124q-26 78 -84 120t-134 42q-113 0 -201 -77q-89 -78 -108 -193q-19 -112 40 -188q60 -77 170 -77q165 0 286 166l162 -130q-87 -127 -221 -198
q-134 -70 -274 -70z" />
    <glyph glyph-name="d" unicode="d" horiz-adv-x="1256" 
d="M538 -20q-203 0 -308 142q-106 140 -68 359t194 359q155 140 359 140q208 0 293 -136l99 564h252l-248 -1408h-252l13 102q-128 -122 -334 -122zM420 482q-20 -116 40 -193q58 -79 172 -79q113 0 201 79q89 78 108 193q20 116 -40 192q-61 76 -174 76q-115 0 -200 -75
q-88 -77 -107 -193z" />
    <glyph glyph-name="e" unicode="e" horiz-adv-x="1111" 
d="M578 -21q-147 -2 -253 66t-148.5 183t-15.5 253q39 219 203 359t379 140q203 0 312 -127q107 -127 70 -341q-9 -56 -28 -109h-694q-1 -82 64 -137q64 -55 158 -55q148 0 263 135l158 -136q-86 -111 -211 -170q-126 -61 -257 -61zM437 575h460q5 83 -47 136
q-53 53 -142 53q-93 0 -169 -53q-77 -54 -102 -136z" />
    <glyph glyph-name="f" unicode="f" horiz-adv-x="753" 
d="M338 747h-169l37 213h171l17 94q28 165 150 270q122 104 312 104q84 0 176 -34l-64 -210q-51 24 -124 24q-175 0 -205 -169l-14 -79h274l-37 -213h-267l-132 -747h-257z" />
    <glyph glyph-name="g" unicode="g" horiz-adv-x="1255" 
d="M56 -213l194 162q118 -139 273 -139q137 0 232 72q95 74 116 193l6 33q-55 -60 -143.5 -94t-191.5 -34q-203 0 -308 142q-106 140 -68 359t194 359q155 140 359 140q208 0 293 -136l25 116h246l-153 -859q-44 -239 -218 -381q-176 -141 -429 -141q-134 0 -247 55
q-114 56 -180 153zM424 482q-20 -116 40 -193q58 -79 172 -79q113 0 201 79q89 78 108 193q20 116 -40 192q-61 76 -174 76q-115 0 -200 -75q-88 -77 -107 -193z" />
    <glyph glyph-name="h" unicode="h" horiz-adv-x="1200" 
d="M403 0h-257l248 1408h257l-97 -550q54 54 136 88t174 34q167 0 254 -103q86 -104 56 -274l-106 -603h-257l95 537q17 95 -27.5 150t-132.5 55q-90 0 -160 -54q-72 -56 -88 -151z" />
    <glyph glyph-name="i" unicode="i" horiz-adv-x="548" 
d="M572 960l-169 -960h-257l169 960h257zM585 1162q-50 -41 -114 -41t-99 41q-34 40 -22 106q11 65 59.5 106.5t113.5 41.5t99 -41t23 -107q-12 -66 -60 -106z" />
    <glyph glyph-name="j" unicode="j" horiz-adv-x="548" 
d="M-25 -420q-117 0 -181 36l61 206q62 -20 117 -20q140 0 168 165l175 992h257l-178 -1009q-31 -176 -144 -274q-114 -96 -275 -96zM591 1162q-50 -41 -114 -41t-99 41q-34 40 -22 106q11 65 59.5 106.5t113.5 41.5t99 -41t23 -107q-12 -66 -60 -106z" />
    <glyph glyph-name="k" unicode="k" horiz-adv-x="1099" 
d="M450 286l-50 -285h-254l248 1407h254l-142 -806l413 358h341l-492 -409l332 -550h-317l-216 384z" />
    <glyph glyph-name="l" unicode="l" horiz-adv-x="547" 
d="M394 1408h256l-248 -1408h-256z" />
    <glyph glyph-name="m" unicode="m" horiz-adv-x="1853" 
d="M498 537l-95 -537h-257l169 960h244l-14 -111q49 55 134 93t183 38q111 0 187.5 -44.5t104.5 -125.5q67 79 163 124.5t200 45.5q168 0 255 -102q86 -103 55 -275l-106 -603h-257l95 537q17 95 -26.5 150t-129.5 55q-88 0 -159 -53q-70 -52 -87 -146l-96 -543h-257l95 537
q17 95 -26 150t-129 55q-88 0 -158 -54q-72 -56 -88 -151z" />
    <glyph glyph-name="n" unicode="n" horiz-adv-x="1202" 
d="M402 0h-256l169 960h244l-14 -111q54 59 138.5 95t180.5 36q168 0 255 -103t57 -274l-106 -603h-256l95 537q17 95 -28.5 150t-134.5 55q-90 0 -160 -54q-73 -56 -89 -151z" />
    <glyph glyph-name="o" unicode="o" horiz-adv-x="1175" 
d="M584 -20q-142 -2 -249.5 64.5t-154.5 182.5t-20 253q38 213 210 357q172 143 391 143q220 0 341 -143.5t84 -356.5q-37 -214 -209 -357q-173 -143 -393 -143zM415 480q-21 -116 39 -192q58 -76 171 -76q114 0 199 76q86 77 107 192q19 115 -39 191t-172 76
q-113 0 -198 -76q-88 -77 -107 -191z" />
    <glyph glyph-name="p" unicode="p" horiz-adv-x="1255" 
d="M420 101l-89 -501h-256l240 1360h247l-15 -116q130 136 340 136q203 0 309 -142q104 -142 67 -362q-37 -215 -193 -356q-157 -140 -360 -140q-205 0 -290 121zM485 477q-20 -115 41 -190q60 -77 173 -77q114 0 200 76q88 77 107 191q20 117 -39 195t-173 78
q-112 0 -201 -78q-89 -80 -108 -195z" />
    <glyph glyph-name="q" unicode="q" horiz-adv-x="1252" 
d="M538 -20q-204 0 -309 139q-106 138 -68 357t194 362q155 142 360 142q208 0 293 -136l25 116h247l-240 -1360h-257l89 501q-127 -121 -334 -121zM419 477q-19 -115 40 -191q58 -76 173 -76q112 0 201 77q88 77 107 190q20 116 -40 195q-62 78 -173 78q-114 0 -201 -78
q-88 -79 -107 -195z" />
    <glyph glyph-name="r" unicode="r" horiz-adv-x="803" 
d="M490 492l-87 -492h-257l169 960h248l-18 -131q48 73 120.5 112t156.5 39q62 0 121 -22l-60 -229q-60 22 -116 22q-93 0 -167 -54q-84 -62 -110 -205z" />
    <glyph glyph-name="s" unicode="s" horiz-adv-x="961" 
d="M108 203l196 139q32 -68 93 -108t134 -40q61 0 103 23t49 61q6 35 -26 54t-125 41q-160 36 -239 99q-89 70 -64 212q22 131 145 214q121 82 282 82q129 0 217 -53.5t133 -146.5l-188 -135q-53 119 -194 119q-64 0 -105.5 -20.5t-48.5 -56.5q-6 -36 30 -54q30 -17 133 -44
q160 -40 236 -103q83 -70 59 -208q-22 -132 -148 -215q-127 -83 -284 -83q-137 0 -238.5 59t-149.5 164z" />
    <glyph glyph-name="t" unicode="t" horiz-adv-x="808" 
d="M327 747h-162l37 213h163l55 308h249l-55 -308h288l-37 -213h-282l-70 -395q-13 -71 18 -107.5t99 -36.5q82 0 168 33l-13 -213q-106 -48 -241 -48q-165 0 -243.5 86t-49.5 249z" />
    <glyph glyph-name="u" unicode="u" horiz-adv-x="1203" 
d="M507 -25q-168 0 -255 103q-87 102 -57 273l107 609h256l-95 -543q-17 -95 28 -149.5t134 -54.5q91 0 163 54q72 55 88 150l95 543h256l-169 -960h-244l14 106q-53 -59 -138 -95t-183 -36z" />
    <glyph glyph-name="v" unicode="v" horiz-adv-x="1092" 
d="M703 0h-312l-197 960h272l125 -709l374 709h272z" />
    <glyph glyph-name="w" unicode="w" horiz-adv-x="1613" 
d="M635 0h-319l-114 960h265l66 -699l327 684h228l84 -684l313 699h265l-452 -960h-319l-69 582z" />
    <glyph glyph-name="x" unicode="x" horiz-adv-x="1054" 
d="M307 0h-288l439 490l-267 470h295l157 -296l260 296h294l-431 -470l270 -490h-289l-165 319z" />
    <glyph glyph-name="y" unicode="y" horiz-adv-x="1103" 
d="M-18 -378l69 206q53 -25 116 -25q78 0 143 51.5t105 144.5l-228 961h284l128 -699l371 699h285l-645 -1091q-88 -147 -196.5 -218t-255.5 -71q-98 0 -176 42z" />
    <glyph glyph-name="z" unicode="z" horiz-adv-x="916" 
d="M854 0h-777l33 185l553 561h-449l37 214h742l-33 -186l-552 -560h484z" />
    <glyph glyph-name="braceleft" unicode="{" horiz-adv-x="740" 
d="M150 478h-36l35 197h36q82 0 126.5 32.5t58.5 112.5l58 333q2 8 17 81q38 168 139 253q101 86 298 86q61 0 101 -4l-35 -196h-32q-120 0 -176 -44q-56 -45 -78 -177l-60 -341q-30 -174 -159 -235q111 -64 81 -234l-58 -328q-24 -136 11 -186q35 -48 150 -48q31 0 40 1
l-34 -196q-68 -5 -102 -5q-101 0 -168.5 25t-102 73t-45 109.5t-0.5 143.5q4 38 12 80l57 321q13 78 -15.5 112t-118.5 34z" />
    <glyph glyph-name="bar" unicode="|" horiz-adv-x="572" 
d="M477 1758h239l-381 -2158h-239z" />
    <glyph glyph-name="braceright" unicode="}" horiz-adv-x="740" 
d="M62 -420q-35 0 -100 5l34 196q9 -1 40 -1q114 0 167 48q52 49 76 186l58 328q29 168 165 234q-107 62 -77 235l60 341q8 46 9 80t-6.5 58.5t-20.5 40.5t-37 25.5t-52.5 13t-68.5 3.5h-32l35 196q40 4 101 4q197 0 268 -86t51 -253q-11 -69 -13 -81l-58 -333
q-14 -80 18.5 -112.5t114.5 -32.5h36l-35 -197h-36q-92 0 -132 -35q-38 -35 -52 -111l-57 -321q-1 -7 -8 -40t-8 -40q-39 -170 -141.5 -260.5t-298.5 -90.5z" />
    <glyph glyph-name="asciitilde" unicode="~" horiz-adv-x="1273" 
d="M293 411l-103 190q100 87 199 133t182 46q112 0 204 -59q90 -59 182 -59q77 0 150 44q25 16 81 54l103 -189q-100 -87 -199 -133.5t-181 -46.5q-17 0 -32.5 1t-31.5 5t-27.5 6.5t-27.5 9.5t-23.5 9.5t-24.5 11.5t-20.5 11t-22 12.5t-19.5 11.5q-77 42 -157 42
q-92 0 -232 -100z" />
    <glyph glyph-name="uni00A0" unicode="&#xa0;" horiz-adv-x="525" 
 />
    <glyph glyph-name="exclamdown" unicode="&#xa1;" horiz-adv-x="556" 
d="M356 -397h-293l215 969h200zM511 728q-50 -43 -114 -43t-98 43q-35 42 -24 104q10 60 61 105q49 43 113 43q63 0 99 -43q34 -43 24 -105q-10 -61 -61 -104z" />
    <glyph glyph-name="cent" unicode="&#xa2;" horiz-adv-x="1147" 
d="M542 0l32 183q-187 22 -286 164q-100 141 -66 334q35 193 184 332q149 138 343 164l29 164h131l-29 -162q123 -15 214 -85.5t126 -185.5l-217 -124q-21 64 -64 104t-101 52l-92 -523q127 25 226 160l162 -130q-77 -114 -191 -181q-115 -68 -238 -83l-32 -183h-131z
M476 676q-16 -91 23 -162q37 -70 117 -93l91 515q-90 -26 -152 -95q-62 -70 -79 -165z" />
    <glyph glyph-name="sterling" unicode="&#xa3;" horiz-adv-x="1235" 
d="M1154 228l-40 -228h-1032l36 202q113 59 165 116q53 58 68 145l25 145h-180l32 179h178l28 167q33 193 182 309q148 115 349 115q161 0 267 -85t132 -243l-235 -110q-45 194 -206 194q-89 0 -152 -51t-80 -143l-27 -153h365l-32 -179h-364l-20 -116q-33 -189 -147 -264
h688z" />
    <glyph glyph-name="currency" unicode="&#xa4;" horiz-adv-x="1243" 
d="M268 125l-128 155l203 172q-41 97 -20 209q19 113 90 204l-140 167l182 155l138 -168q107 56 217 56t201 -56l196 168l128 -155l-198 -167q38 -96 19 -204q-21 -115 -97 -209l143 -172l-182 -155l-143 176q-107 -51 -213 -51q-105 0 -189 51zM535 661q-15 -83 34 -141
q48 -58 132 -58q87 0 158 58q71 59 86 141q15 85 -35 145q-51 60 -137 60q-84 0 -153 -60q-70 -60 -85 -145z" />
    <glyph glyph-name="yen" unicode="&#xa5;" horiz-adv-x="1392" 
d="M597 640l-321 718h322l241 -571l445 571h312l-572 -718h228l-26 -144h-306l-20 -113h296l-26 -143h-295l-42 -240h-269l42 240h-302l26 143h301l20 113h-313l26 144h233z" />
    <glyph glyph-name="brokenbar" unicode="&#xa6;" horiz-adv-x="572" 
d="M477 1758h239l-150 -848h-239zM246 448h239l-150 -848h-239z" />
    <glyph glyph-name="section" unicode="&#xa7;" horiz-adv-x="1166" 
d="M529 -342q-193 0 -308 82q-118 83 -152 211l213 124q27 -91 100.5 -144.5t183.5 -53.5q94 0 162 36q66 38 75 94q11 65 -42 99q-51 34 -180 73q-229 69 -309 156q-81 86 -55 232q10 59 59 122q46 61 110 102q-96 93 -70 243q25 146 172 246q146 98 335 98q176 0 287 -79
q99 -71 143 -175l-207 -128q-85 166 -260 166q-86 0 -146 -36q-60 -38 -69 -95q-16 -57 52 -103q14 -10 50 -24q45 -18 59 -22l72 -24q232 -73 310 -157q80 -86 54 -230q-11 -63 -60 -124q-51 -64 -114 -103q90 -94 64 -240q-14 -95 -90.5 -175.5t-193.5 -126.5t-245 -44z
M699 636q-83 24 -149 52q-74 -50 -86 -120q-9 -52 42 -90t180 -76q98 -31 147 -53q76 51 88 121q9 52 -42.5 90.5t-179.5 75.5z" />
    <glyph glyph-name="dieresis" unicode="&#xa8;" horiz-adv-x="923" 
d="M1014 1530q-47 -38 -107 -38t-92 38q-31 37 -21 98q11 62 55 99q46 38 106 38q61 0 93 -38q32 -37 21 -99q-11 -61 -55 -98zM541 1492q-60 0 -91 37.5t-21 98.5q10 60 55 98.5t105 38.5q61 0 92.5 -38t21.5 -99q-10 -60 -55.5 -98t-106.5 -38z" />
    <glyph glyph-name="copyright" unicode="&#xa9;" horiz-adv-x="1663" 
d="M827 -20q-142 0 -266 53.5t-208 147.5q-83 92 -119 223q-37 128 -11 276q25 145 109 277q81 129 199 222q116 92 259 146q144 53 284 53q141 0 265.5 -53t209.5 -146q83 -90 121 -223q37 -128 11 -276q-34 -196 -165 -358t-313 -252q-184 -90 -376 -90zM319 680
q-30 -169 32 -312q61 -142 193 -222q130 -81 298 -81q166 0 327 81q160 81 273 224t143 310q28 168 -33 310q-62 141 -194 224q-132 81 -299 81t-326 -81q-160 -82 -272 -224q-114 -144 -142 -310zM549 678q28 168 164 282q136 113 311 113q104 0 182.5 -49.5t113.5 -137.5
l-78 -49q-69 148 -234 148q-134 0 -237 -88q-106 -89 -128 -219q-23 -128 50 -215q72 -88 204 -88q80 0 158 40t135 108l61 -49q-69 -88 -166 -136q-101 -51 -204 -51q-171 0 -266 113t-66 278z" />
    <glyph glyph-name="ordfeminine" unicode="&#xaa;" horiz-adv-x="815" 
d="M479 750q-100 0 -152 50.5t-37 133.5q15 85 95 138q79 52 193 52q78 0 127 -21l2 6q8 48 -20.5 79t-84.5 31q-93 0 -170 -65l-75 116q50 46 127 76q79 32 159 32q129 0 193 -64t45 -174l-67 -378h-159l12 66q-71 -78 -188 -78zM800 655l-24 -140h-554l24 140h554z
M494 989q-30 -17 -36 -47t15 -47q20 -17 56 -17q52 0 101 32q47 32 54 71q-34 25 -109 25q-49 0 -81 -17z" />
    <glyph glyph-name="guillemotleft" unicode="&#xab;" horiz-adv-x="1086" 
d="M1017 86h-235l-202 394l341 395h235l-323 -395zM374 86l-202 394l341 395h235l-323 -395l184 -394h-235z" />
    <glyph glyph-name="logicalnot" unicode="&#xac;" horiz-adv-x="1304" 
d="M1244 386h-267l63 359h-842l43 240h1109z" />
    <glyph glyph-name="uni00AD" unicode="&#xad;" horiz-adv-x="847" 
d="M238 667h608l-38 -214h-608z" />
    <glyph glyph-name="registered" unicode="&#xae;" horiz-adv-x="1263" 
d="M724 541q-224 0 -352 149q-127 148 -90 365q21 139 113.5 258.5t229 188.5t280.5 66q146 3 260 -66t165.5 -188.5t24.5 -258.5q-25 -141 -117 -260q-93 -119 -229 -186q-138 -68 -285 -68zM372 1055q-23 -116 19.5 -216t135.5 -158t212 -56q121 -2 236 56t193.5 158
t96.5 216q32 182 -76 308q-110 125 -298 125q-185 0 -336 -125q-151 -126 -183 -308zM666 805h-85l89 506h216q80 0 120.5 -42t27.5 -113q-10 -52 -42.5 -89t-80.5 -51l86 -211h-99l-75 197h-122zM714 1078h129q42 0 69.5 21t33.5 57q6 37 -13.5 58t-61.5 21h-129z" />
    <glyph glyph-name="macron" unicode="&#xaf;" horiz-adv-x="878" 
d="M442 1690h591l-31 -174h-591z" />
    <glyph glyph-name="degree" unicode="&#xb0;" horiz-adv-x="862" 
d="M550 678q-156 0 -239 98t-56 250q27 154 145 253q117 99 273 99q157 0 241 -99q83 -99 56 -253q-27 -153 -145 -250q-119 -98 -275 -98zM440 1025q-14 -76 26 -124q39 -50 114 -50q76 0 131 49q56 50 69 125q14 79 -24.5 129t-113.5 50t-131 -50q-58 -52 -71 -129z" />
    <glyph glyph-name="plusminus" unicode="&#xb1;" horiz-adv-x="1280" 
d="M583 430l61 348h-394l43 240h394l59 339h265l-59 -339h395l-43 -240h-395l-61 -348h-265zM1179 22h-1070l42 237h1070z" />
    <glyph glyph-name="twosuperior" unicode="&#xb2;" horiz-adv-x="734" 
d="M790 697l-29 -163h-592l18 102q12 62 49 106q6 6 13.5 15t13.5 15.5t10 11.5q18 19 51 43q34 25 48 36q27 18 56 37l24 16l18 12t8 5q7 5 37 25q17 11 35 23q45 30 57 42q34 34 39 42q16 29 19 48q8 45 -17 71.5t-76 26.5q-48 0 -95 -32t-77 -88l-133 75q50 95 142 153
q94 59 190 59q130 0 206 -71q74 -72 53 -190q-13 -72 -56 -122q-50 -60 -98 -94q-13 -9 -31.5 -21.5t-22.5 -15.5q-24 -16 -58 -37q-45 -28 -53 -33q-6 -4 -40.5 -25t-44.5 -27q-41 -25 -54 -45h390z" />
    <glyph glyph-name="threesuperior" unicode="&#xb3;" horiz-adv-x="745" 
d="M190 718l159 85q12 -56 53.5 -91t94.5 -35q50 0 85 26.5t42 66.5q9 50 -22 81t-87 31h-127l24 141h127q50 0 86 29t44 76q7 39 -18.5 63t-72.5 24q-55 0 -101.5 -32t-78.5 -87l-126 85q50 85 137 141q89 56 198 56q125 0 199 -65q74 -66 53 -183q-9 -54 -45.5 -102.5
t-84.5 -72.5q47 -24 71.5 -76t13.5 -111q-21 -118 -120 -186q-101 -68 -221 -68q-109 0 -184.5 54t-98.5 150z" />
    <glyph glyph-name="acute" unicode="&#xb4;" horiz-adv-x="736" 
d="M620 1807h292l-292 -334h-216z" />
    <glyph glyph-name="paragraph" unicode="&#xb6;" horiz-adv-x="1325" 
d="M724 429h-105q-212 0 -329 130t-81 335t199 335q162 129 374 129h683l-29 -169h-393l-281 -1589h-185zM1329 1064l-259 -1464h-175l259 1464h175z" />
    <glyph glyph-name="periodcentered" unicode="&#xb7;" horiz-adv-x="518" 
d="M433 385q-50 -43 -114 -43t-98 43q-35 42 -24 104q10 60 61 105q49 42 113 42q63 0 99 -42q34 -44 24 -105q-11 -63 -61 -104z" />
    <glyph glyph-name="cedilla" unicode="&#xb8;" horiz-adv-x="670" 
d="M164 -467q-93 0 -148 26l25 142q56 -19 127 -19q118 0 130 66q5 32 -24.5 49.5t-90.5 17.5h-71l121 212h141l-55 -113q99 -12 145 -60t34 -122q-16 -91 -107 -145q-92 -54 -227 -54z" />
    <glyph glyph-name="onesuperior" unicode="&#xb9;" horiz-adv-x="498" 
d="M480 534h-183l117 664h-170l28 160h353z" />
    <glyph glyph-name="ordmasculine" unicode="&#xba;" horiz-adv-x="893" 
d="M577 743q-141 0 -218 89t-52 226q24 139 133 230q108 90 249 90q143 0 219 -90q77 -92 53 -230q-25 -138 -133 -226q-110 -89 -251 -89zM873 645l-26 -148h-624l26 148h624zM484 1058q-12 -65 22 -107t100 -42q65 0 113.5 41.5t60.5 107.5q11 67 -22 110t-98 43
q-66 0 -115 -43q-51 -44 -61 -110z" />
    <glyph glyph-name="guillemotright" unicode="&#xbb;" horiz-adv-x="1086" 
d="M743 86h-235l324 394l-185 395h235l203 -395zM677 480l-342 -394h-235l324 394l-185 395h235z" />
    <glyph glyph-name="onequarter" unicode="&#xbc;" horiz-adv-x="1613" 
d="M1263 183h-390l25 139l475 502h176l-85 -481h108l-28 -160h-108l-32 -183h-173zM1363 1334l-967 -1334h-157l5 26l968 1332h155zM462 1194h-170l28 160h353l-146 -824h-183zM1331 569l-210 -226h170z" />
    <glyph glyph-name="onehalf" unicode="&#xbd;" horiz-adv-x="1712" 
d="M1567 0h-592l18 102q12 62 49 106q30 34 38 42q19 21 49 43q43 32 49 36q3 2 55 37q16 11 33 22l17 11q3 2 31.5 20.5t33.5 22.5q15 10 27 19q25 17 47 36q42 39 49 82q8 45 -17.5 71.5t-76.5 26.5q-48 0 -94 -32t-77 -88l-134 75q50 95 143 153q94 59 190 59
q130 0 206 -71q74 -72 53 -190q-13 -72 -56 -122q-50 -60 -98 -94q-13 -9 -31.5 -21.5t-22.5 -15.5q-24 -17 -58 -37q-46 -28 -53 -33q-8 -5 -43.5 -26.5t-42.5 -25.5q-41 -26 -53 -45h390zM1383 1334l-967 -1334h-157l5 26l968 1332h155zM462 1194h-170l28 160h353
l-146 -824h-183z" />
    <glyph glyph-name="threequarters" unicode="&#xbe;" horiz-adv-x="1797" 
d="M480 520q-109 0 -184.5 54t-98.5 150l159 85q12 -56 53.5 -91t94.5 -35q50 0 85 26.5t42 66.5q9 50 -22 81t-87 31h-127l24 141h127q50 0 86 29t44 76q7 39 -18.5 63t-72.5 24q-55 0 -101.5 -32t-78.5 -87l-126 85q50 85 137 141q89 56 198 56q125 0 199 -65
q74 -66 53 -183q-9 -54 -45.5 -102.5t-84.5 -72.5q47 -24 71.5 -76t13.5 -111q-21 -118 -120 -186q-101 -68 -221 -68zM1472 183h-390l25 139l475 502h176l-85 -481h108l-28 -160h-108l-32 -183h-173zM1612 1334l-967 -1334h-157l5 26l968 1332h155zM1540 569l-210 -226h170
z" />
    <glyph glyph-name="questiondown" unicode="&#xbf;" horiz-adv-x="1025" 
d="M374 -418q-186 0 -298 98q-55 49 -78 123.5t-8 162.5q9 55 44.5 113.5t85.5 106.5q53 51 102 95q11 10 35 32t35 32t30.5 29t31.5 32t26 31t26 35q36 54 45 106q0 4 1.5 12t1.5 12h233q4 -38 -4 -85q-19 -110 -118 -207q-79 -74 -92 -85q-16 -14 -46 -41t-46 -41.5
t-36.5 -37t-34.5 -43.5q-32 -45 -39 -88q-12 -72 27 -110.5t118 -38.5q165 0 277 201l208 -108q-81 -151 -225 -244q-146 -92 -302 -92zM488 729q-36 42 -25 104q10 61 62 105q49 42 113 42t98 -42q34 -44 24 -105t-61 -104q-49 -43 -113 -43t-98 43z" />
    <glyph glyph-name="Agrave" unicode="&#xc0;" horiz-adv-x="1414" 
d="M440 266l-148 -266h-288l787 1358h310l310 -1358h-288l-53 266h-630zM1030 481l-132 595l-344 -595h476zM855 1473l-174 334h292l98 -334h-216z" />
    <glyph glyph-name="Aacute" unicode="&#xc1;" horiz-adv-x="1414" 
d="M440 266l-148 -266h-288l787 1358h310l310 -1358h-288l-53 266h-630zM1030 481l-132 595l-344 -595h476zM1382 1807l-292 -334h-216l216 334h292z" />
    <glyph glyph-name="Acircumflex" unicode="&#xc2;" horiz-adv-x="1414" 
d="M292 0h-288l787 1358h310l310 -1358h-288l-53 266h-630zM1030 481l-132 595l-344 -595h476zM838 1471h-226l353 370h135l221 -370h-227l-96 178z" />
    <glyph glyph-name="Atilde" unicode="&#xc3;" horiz-adv-x="1414" 
d="M440 266l-148 -266h-288l787 1358h310l310 -1358h-288l-53 266h-630zM898 1076l-344 -595h476zM726 1506l-93 96q137 183 270 183q43 2 124 -44.5t108 -44.5q36 0 67 19t71 65l87 -99q-68 -93 -134 -135.5t-141 -42.5q-50 0 -111 37t-85 42q-32 8 -55 3q-41 -8 -108 -79z
" />
    <glyph glyph-name="Adieresis" unicode="&#xc4;" horiz-adv-x="1414" 
d="M440 266l-148 -266h-288l787 1358h310l310 -1358h-288l-53 266h-630zM898 1076l-344 -595h476zM1260 1530q-47 -38 -107 -38t-92 38q-31 37 -21 98q11 62 55 99q46 38 106 38q61 0 93 -38q32 -37 21 -99q-11 -61 -55 -98zM787 1492q-60 0 -91 37.5t-21 98.5
q10 60 55 98.5t105 38.5q61 0 92.5 -38t21.5 -99q-10 -60 -55.5 -98t-106.5 -38z" />
    <glyph glyph-name="Aring" unicode="&#xc5;" horiz-adv-x="1414" 
d="M440 266l-148 -266h-288l787 1358h310l310 -1358h-288l-53 266h-630zM1134 1543q-70 -58 -165 -58t-144 58q-50 59 -34 148q17 93 87 151t164 58t145 -58q50 -59 33 -151q-17 -90 -86 -148zM898 1076l-344 -595h476zM931 1691q-5 -31 11.5 -51.5t49.5 -20.5t57 20.5
t29 51.5q6 33 -10 54.5t-49 21.5t-57.5 -21.5t-30.5 -54.5z" />
    <glyph glyph-name="AE" unicode="&#xc6;" horiz-adv-x="1997" 
d="M465 266l-207 -266h-308l1068 1358h1123l-41 -234h-696l-55 -313h604l-41 -234h-604l-61 -344h711l-41 -233h-982l47 266h-517zM1133 1124l-501 -643h388z" />
    <glyph glyph-name="Ccedilla" unicode="&#xc7;" horiz-adv-x="1440" 
d="M581 -185l98 172q-124 17 -224.5 76.5t-164.5 151.5q-65 91 -89 212t0 252q34 193 154 356q118 160 295 252q175 91 371 91q187 0 332 -90t216 -249l-240 -152q-103 241 -352 241q-185 0 -324 -126q-141 -127 -175 -323q-35 -197 64 -323q98 -126 284 -126q244 0 452 234
l173 -144q-118 -152 -285 -241q-168 -89 -345 -98l-33 -67q99 -12 145 -60t34 -122q-16 -91 -107 -145q-92 -54 -227 -54q-93 0 -148 26l25 142q56 -19 127 -19q118 0 130 66q5 32 -24.5 49.5t-90.5 17.5h-71z" />
    <glyph glyph-name="Egrave" unicode="&#xc8;" horiz-adv-x="1231" 
d="M481 233h711l-41 -233h-981l239 1358h966l-41 -234h-696l-55 -313h604l-41 -234h-604zM1048 1473h-216l-174 334h292z" />
    <glyph glyph-name="Eacute" unicode="&#xc9;" horiz-adv-x="1231" 
d="M481 233h711l-41 -233h-981l239 1358h966l-41 -234h-696l-55 -313h604l-41 -234h-604zM1070 1807h292l-292 -334h-216z" />
    <glyph glyph-name="Ecircumflex" unicode="&#xca;" horiz-adv-x="1231" 
d="M1151 0h-981l239 1358h966l-41 -234h-696l-55 -313h604l-41 -234h-604l-61 -344h711zM810 1471h-226l353 370h135l221 -370h-227l-96 178z" />
    <glyph glyph-name="Edieresis" unicode="&#xcb;" horiz-adv-x="1231" 
d="M1151 0h-981l239 1358h966l-41 -234h-696l-55 -313h604l-41 -234h-604l-61 -344h711zM1224 1530q-47 -38 -107 -38t-92 38q-31 37 -21 98q11 62 55 99q46 38 106 38q61 0 93 -38q32 -37 21 -99q-11 -61 -55 -98zM751 1492q-60 0 -91 37.5t-21 98.5q10 60 55 98.5
t105 38.5q61 0 92.5 -38t21.5 -99q-10 -60 -55.5 -98t-106.5 -38z" />
    <glyph glyph-name="Igrave" unicode="&#xcc;" horiz-adv-x="609" 
d="M409 1358h270l-239 -1358h-270zM671 1473h-216l-174 334h292z" />
    <glyph glyph-name="Iacute" unicode="&#xcd;" horiz-adv-x="609" 
d="M409 1358h270l-239 -1358h-270zM670 1807h292l-292 -334h-216z" />
    <glyph glyph-name="Icircumflex" unicode="&#xce;" horiz-adv-x="609" 
d="M679 1358l-239 -1358h-270l239 1358h270zM435 1471h-226l353 370h135l221 -370h-227l-96 178z" />
    <glyph glyph-name="Idieresis" unicode="&#xcf;" horiz-adv-x="609" 
d="M679 1358l-239 -1358h-270l239 1358h270zM857 1530q-47 -38 -107 -38t-92 38q-31 37 -21 98q11 62 55 99q46 38 106 38q61 0 93 -38q31 -37 21 -99q-11 -61 -55 -98zM384 1492q-60 0 -91 37.5t-21 98.5q10 60 55 98.5t105 38.5q61 0 92.5 -38t21.5 -99q-10 -60 -55.5 -98
t-106.5 -38z" />
    <glyph glyph-name="Eth" unicode="&#xd0;" horiz-adv-x="1555" 
d="M318 607h-133l32 179h133l100 571h562q199 0 344 -88q144 -87 209 -244q63 -156 29 -347q-35 -194 -152 -347q-118 -155 -294 -244q-175 -88 -375 -88h-562zM1020 786l-32 -179h-400l-66 -375h284q192 0 335 127q143 128 177 319q33 190 -65 319q-99 128 -290 128h-284
l-60 -339h401z" />
    <glyph glyph-name="Ntilde" unicode="&#xd1;" horiz-adv-x="1605" 
d="M440 0h-270l239 1358h245l587 -932l164 932h270l-239 -1358h-249l-584 922zM825 1506l-93 96q136 183 270 183q43 2 124 -44.5t108 -44.5q36 0 67 19t71 65l87 -99q-68 -93 -134 -135.5t-141 -42.5q-50 0 -111 37t-85 42q-32 8 -55 3q-41 -8 -108 -79z" />
    <glyph glyph-name="Ograve" unicode="&#xd2;" horiz-adv-x="1586" 
d="M789 -20q-204 0 -350 88q-147 89 -210 247t-28 361q55 307 291 505q236 197 544 197q151 0 274.5 -52t202.5 -145q78 -94 108 -224.5t3 -280.5q-34 -201 -155 -361q-120 -159 -298 -247q-177 -88 -382 -88zM479 677q-34 -198 66 -322t290 -124q192 0 334 124
q144 124 178 322q35 199 -64 324t-290 125q-190 0 -334 -126q-145 -126 -180 -323zM958 1473l-174 334h292l98 -334h-216z" />
    <glyph glyph-name="Oacute" unicode="&#xd3;" horiz-adv-x="1586" 
d="M789 -20q-204 0 -350 88q-147 89 -210 247t-28 361q55 307 291 505q236 197 544 197q151 0 274.5 -52t202.5 -145q78 -94 108 -224.5t3 -280.5q-34 -201 -155 -361q-120 -159 -298 -247q-177 -88 -382 -88zM479 677q-34 -198 66 -322t290 -124q192 0 334 124
q144 124 178 322q35 199 -64 324t-290 125q-190 0 -334 -126q-145 -126 -180 -323zM1170 1473h-216l216 334h292z" />
    <glyph glyph-name="Ocircumflex" unicode="&#xd4;" horiz-adv-x="1586" 
d="M789 -20q-204 0 -350 88q-147 89 -210 247t-28 361q55 307 291 505q236 197 544 197q151 0 274.5 -52t202.5 -145q78 -94 108 -224.5t3 -280.5q-34 -201 -155 -361q-120 -159 -298 -247q-177 -88 -382 -88zM479 677q-34 -198 66 -322t290 -124q192 0 334 124
q144 124 178 322q35 199 -64 324t-290 125q-190 0 -334 -126q-145 -126 -180 -323zM924 1471h-226l353 370h135l221 -370h-227l-96 178z" />
    <glyph glyph-name="Otilde" unicode="&#xd5;" horiz-adv-x="1586" 
d="M789 -20q-204 0 -350 88q-147 89 -210 247t-28 361q55 307 291 505q236 197 544 197q151 0 274.5 -52t202.5 -145q78 -94 108 -224.5t3 -280.5q-34 -201 -155 -361q-120 -159 -298 -247q-177 -88 -382 -88zM479 677q-34 -198 66 -322t290 -124q192 0 334 124
q144 124 178 322q35 199 -64 324t-290 125q-190 0 -334 -126q-145 -126 -180 -323zM812 1506l-93 96q137 183 270 183q43 2 124 -44.5t108 -44.5q36 0 67 19t71 65l87 -99q-68 -93 -134 -135.5t-141 -42.5q-50 0 -111 37t-85 42q-32 8 -55 3q-41 -8 -108 -79z" />
    <glyph glyph-name="Odieresis" unicode="&#xd6;" horiz-adv-x="1586" 
d="M789 -20q-204 0 -350 88q-147 89 -210 247t-28 361q55 307 291 505q236 197 544 197q151 0 274.5 -52t202.5 -145q78 -94 108 -224.5t3 -280.5q-34 -201 -155 -361q-120 -159 -298 -247q-177 -88 -382 -88zM479 677q-34 -198 66 -322t290 -124q192 0 334 124
q144 124 178 322q35 199 -64 324t-290 125q-190 0 -334 -126q-145 -126 -180 -323zM1346 1530q-47 -38 -107 -38t-92 38q-31 37 -21 98q11 62 55 99q46 38 106 38q61 0 93 -38q32 -37 21 -99q-11 -61 -55 -98zM873 1492q-60 0 -91 37.5t-21 98.5q10 60 55 98.5t105 38.5
q61 0 92.5 -38t21.5 -99q-10 -60 -55.5 -98t-106.5 -38z" />
    <glyph glyph-name="multiply" unicode="&#xd7;" horiz-adv-x="1215" 
d="M293 157l-148 179l404 343l-283 343l212 179l281 -343l404 343l147 -179l-403 -343l282 -343l-210 -179l-283 343z" />
    <glyph glyph-name="Oslash" unicode="&#xd8;" horiz-adv-x="1586" 
d="M198 -12l140 160q-94 96 -130 232t-7 296q55 307 291 505q236 197 544 197q179 0 315 -70l149 170l129 -108l-142 -162q94 -96 130 -233.5t7 -298.5q-34 -201 -155 -361q-120 -159 -298 -247q-177 -88 -382 -88q-179 0 -314 69l-148 -169zM1294 986l-631 -721
q75 -34 172 -34q192 0 334 124q144 124 178 322q33 184 -53 309zM533 371l630 721q-75 34 -170 34q-190 0 -334 -126q-145 -126 -180 -323q-33 -185 54 -306z" />
    <glyph glyph-name="Ugrave" unicode="&#xd9;" horiz-adv-x="1471" 
d="M1180 127q-186 -147 -448 -147q-261 0 -395 146t-91 390l148 842h269l-147 -836q-24 -136 49 -218t210 -82q138 0 239 82q102 83 126 218l147 836h269l-148 -842q-44 -244 -228 -389zM906 1473l-174 334h292l98 -334h-216z" />
    <glyph glyph-name="Uacute" unicode="&#xda;" horiz-adv-x="1471" 
d="M1180 127q-186 -147 -448 -147q-261 0 -395 146t-91 390l148 842h269l-147 -836q-24 -136 49 -218t210 -82q138 0 239 82q102 83 126 218l147 836h269l-148 -842q-44 -244 -228 -389zM1117 1473h-216l216 334h292z" />
    <glyph glyph-name="Ucircumflex" unicode="&#xdb;" horiz-adv-x="1471" 
d="M1180 127q-186 -147 -448 -147q-261 0 -395 146t-91 390l148 842h269l-147 -836q-24 -136 49 -218t210 -82q138 0 239 82q102 83 126 218l147 836h269l-148 -842q-44 -244 -228 -389zM1027 1649l-160 -178h-226l353 370h135l221 -370h-227z" />
    <glyph glyph-name="Udieresis" unicode="&#xdc;" horiz-adv-x="1471" 
d="M1180 127q-186 -147 -448 -147q-261 0 -395 146t-91 390l148 842h269l-147 -836q-24 -136 49 -218t210 -82q138 0 239 82q102 83 126 218l147 836h269l-148 -842q-44 -244 -228 -389zM1288 1530q-47 -38 -107 -38t-92 38q-31 37 -21 98q11 62 55 99q46 38 106 38
q61 0 93 -38q32 -37 21 -99q-11 -61 -55 -98zM815 1492q-60 0 -91 37.5t-21 98.5q10 60 55 98.5t105 38.5q61 0 92.5 -38t21.5 -99q-10 -60 -55.5 -98t-106.5 -38z" />
    <glyph glyph-name="Yacute" unicode="&#xdd;" horiz-adv-x="1337" 
d="M626 513l-378 845h322l241 -571l445 571h312l-673 -845l-90 -513h-269zM1050 1473h-216l216 334h292z" />
    <glyph glyph-name="Thorn" unicode="&#xde;" horiz-adv-x="1407" 
d="M474 199l-35 -199h-269l239 1358h269l-33 -191h377q224 0 342 -126q117 -126 76 -359q-25 -146 -112 -259q-88 -112 -210 -167q-124 -57 -267 -57h-377zM935 933h-331l-89 -501h331q125 0 210 67q85 65 106 182q21 122 -39 187t-188 65z" />
    <glyph glyph-name="germandbls" unicode="&#xdf;" horiz-adv-x="1345" 
d="M569 941l-166 -941h-257l171 968q36 205 203 333q166 127 399 127q236 0 355 -107q118 -106 85 -292q-18 -103 -88 -179q-72 -78 -162 -106q131 -28 192 -129q62 -101 39 -232q-31 -175 -171 -289q-139 -114 -323 -114q-123 0 -215 55q-94 54 -129 146l195 153
q59 -119 176 -119q76 0 128.5 47.5t66.5 127.5q17 100 -53 156t-212 56q-33 0 -88 -4l36 202q132 3 223 57q90 52 110 158q14 81 -44 131q-59 50 -166 50q-120 0 -202 -69q-84 -70 -103 -186z" />
    <glyph glyph-name="agrave" unicode="&#xe0;" horiz-adv-x="1093" 
d="M441 -20q-163 0 -249 81q-85 80 -62 214q24 136 155 222q130 85 321 85q109 0 196 -33l4 22q14 80 -35 132q-49 51 -141 51q-142 0 -275 -121l-121 147q72 76 191 139q115 61 253 61q211 0 315 -104q103 -105 72 -285l-104 -591h-244l19 107q-51 -60 -128.5 -93.5
t-166.5 -33.5zM835 1121h-216l-174 334h292zM376 289q-10 -54 28 -86t111 -32q93 0 167 57q72 56 89 146q-75 37 -178 37q-88 0 -147.5 -33.5t-69.5 -88.5z" />
    <glyph glyph-name="aacute" unicode="&#xe1;" horiz-adv-x="1093" 
d="M441 -20q-163 0 -249 81q-85 80 -62 214q24 136 155 222q130 85 321 85q109 0 196 -33l4 22q14 80 -35 132q-49 51 -141 51q-142 0 -275 -121l-121 147q72 76 191 139q115 61 253 61q211 0 315 -104q103 -105 72 -285l-104 -591h-244l19 107q-51 -60 -128.5 -93.5
t-166.5 -33.5zM845 1113h-216l216 334h292zM376 289q-10 -54 28 -86t111 -32q93 0 167 57q72 56 89 146q-75 37 -178 37q-88 0 -147.5 -33.5t-69.5 -88.5z" />
    <glyph glyph-name="acircumflex" unicode="&#xe2;" horiz-adv-x="1093" 
d="M441 -20q-163 0 -249 81q-85 80 -62 214q24 136 155 222q130 85 321 85q109 0 196 -33l4 22q14 80 -35 132q-49 51 -141 51q-142 0 -275 -121l-121 147q72 76 191 139q115 61 253 61q211 0 315 -104q103 -105 72 -285l-104 -591h-244l19 107q-51 -60 -128.5 -93.5
t-166.5 -33.5zM757 1262l-160 -178h-226l352 370h135l222 -370h-227zM376 289q-10 -54 28 -86t111 -32q93 0 167 57q72 56 89 146q-75 37 -178 37q-88 0 -147.5 -33.5t-69.5 -88.5z" />
    <glyph glyph-name="atilde" unicode="&#xe3;" horiz-adv-x="1093" 
d="M441 -20q-163 0 -249 81q-85 80 -62 214q24 136 155 222q130 85 321 85q109 0 196 -33l4 22q14 80 -35 132q-49 51 -141 51q-142 0 -275 -121l-121 147q72 76 191 139q115 61 253 61q211 0 315 -104q103 -105 72 -285l-104 -591h-244l19 107q-51 -60 -128.5 -93.5
t-166.5 -33.5zM473 1146l-92 96q137 183 269 183q34 1 80 -22t87.5 -46t65.5 -21q36 0 67 19t70 65l88 -99q-68 -93 -134 -135.5t-141 -42.5q-50 0 -111 37t-86 42q-32 8 -54 3q-41 -6 -109 -79zM376 289q-10 -54 28 -86t111 -32q93 0 167 57q72 56 89 146q-75 37 -178 37
q-88 0 -147.5 -33.5t-69.5 -88.5z" />
    <glyph glyph-name="adieresis" unicode="&#xe4;" horiz-adv-x="1093" 
d="M441 -20q-163 0 -249 81q-85 80 -62 214q24 136 155 222q130 85 321 85q109 0 196 -33l4 22q14 80 -35 132q-49 51 -141 51q-142 0 -275 -121l-121 147q72 76 191 139q115 61 253 61q211 0 315 -104q103 -105 72 -285l-104 -591h-244l19 107q-51 -60 -128.5 -93.5
t-166.5 -33.5zM376 289q-10 -54 28 -86t111 -32q93 0 167 57q72 56 89 146q-75 37 -178 37q-88 0 -147.5 -33.5t-69.5 -88.5zM1013 1193q-46 -38 -106 -38t-92 38q-31 37 -21 98t55 99t106 38t92.5 -38t21.5 -99q-10 -60 -56 -98zM541 1155q-60 0 -91.5 38t-20.5 98
q10 60 55 98.5t105 38.5q61 0 92.5 -38t21.5 -99q-11 -61 -56 -98.5t-106 -37.5z" />
    <glyph glyph-name="aring" unicode="&#xe5;" horiz-adv-x="1093" 
d="M441 -20q-163 0 -249 81q-85 80 -62 214q24 136 155 222q130 85 321 85q109 0 196 -33l4 22q14 80 -35 132q-49 51 -141 51q-142 0 -275 -121l-121 147q72 76 191 139q115 61 253 61q211 0 315 -104q103 -105 72 -285l-104 -591h-244l19 107q-51 -60 -128.5 -93.5
t-166.5 -33.5zM901 1141q-70 -58 -165 -58t-144 58q-50 59 -34 148q17 93 87 151t164 58t145 -58q50 -59 33 -151q-17 -90 -86 -148zM376 289q-10 -54 28 -86t111 -32q93 0 167 57q72 56 89 146q-75 37 -178 37q-88 0 -147.5 -33.5t-69.5 -88.5zM698 1289q-5 -31 12 -51.5
t50 -20.5t56.5 20.5t28.5 51.5q6 33 -10 54.5t-49 21.5t-57.5 -21.5t-30.5 -54.5z" />
    <glyph glyph-name="ae" unicode="&#xe6;" horiz-adv-x="1743" 
d="M482 -20q-182 0 -278 81q-95 81 -73 214q24 136 155 222q130 85 321 85q114 0 206 -33l4 22q14 80 -38 132q-52 51 -148 51q-142 0 -275 -121l-121 147q72 76 191 139q115 61 253 61q113 0 193.5 -40.5t119.5 -115.5q78 75 176.5 115.5t205.5 40.5q203 0 312 -127
q107 -127 70 -341q-9 -56 -28 -109h-694q-1 -82 64 -137q64 -55 158 -55q148 0 263 135l158 -136q-86 -111 -211 -170q-126 -61 -257 -61q-118 0 -206.5 45t-140.5 128q-78 -82 -176.5 -127t-203.5 -45zM377 289q-9 -53 29 -83.5t111 -30.5q97 0 174 56q75 55 91 143
q-80 37 -188 37q-88 0 -147.5 -33.5t-69.5 -88.5zM1068 575h460q5 83 -47 136q-53 53 -142 53q-93 0 -169 -53q-77 -54 -102 -136z" />
    <glyph glyph-name="ccedilla" unicode="&#xe7;" horiz-adv-x="1088" 
d="M392 -185l98 172q-177 30 -270 169q-93 138 -60 326q21 135 111 252t221 184.5t268 64.5q139 0 249 -71q108 -72 149 -203l-217 -124q-26 78 -84 120t-134 42q-113 0 -201 -77q-89 -78 -108 -193q-19 -112 40 -188q60 -77 170 -77q165 0 286 166l162 -130
q-78 -114 -195 -183q-118 -68 -244 -82l-34 -69q99 -12 145 -60t34 -122q-16 -91 -107 -145t-227 -54q-93 0 -148 26l25 142q56 -19 127 -19q118 0 130 66q5 32 -24.5 49.5t-90.5 17.5h-71z" />
    <glyph glyph-name="egrave" unicode="&#xe8;" horiz-adv-x="1111" 
d="M578 -21q-147 -2 -253 66t-148.5 183t-15.5 253q39 219 203 359t379 140q203 0 312 -127q107 -127 70 -341q-9 -56 -28 -109h-694q-1 -82 64 -137q64 -55 158 -55q148 0 263 135l158 -136q-86 -111 -211 -170q-126 -61 -257 -61zM671 1121l-174 334h292l98 -334h-216z
M708 764q-93 0 -169 -53q-77 -54 -102 -136h460q5 83 -47 136q-53 53 -142 53z" />
    <glyph glyph-name="eacute" unicode="&#xe9;" horiz-adv-x="1111" 
d="M578 -21q-147 -2 -253 66t-148.5 183t-15.5 253q39 219 203 359t379 140q203 0 312 -127q107 -127 70 -341q-9 -56 -28 -109h-694q-1 -82 64 -137q64 -55 158 -55q148 0 263 135l158 -136q-86 -111 -211 -170q-126 -61 -257 -61zM1179 1447l-292 -334h-216l216 334h292z
M708 764q-93 0 -169 -53q-77 -54 -102 -136h460q5 83 -47 136q-53 53 -142 53z" />
    <glyph glyph-name="ecircumflex" unicode="&#xea;" horiz-adv-x="1111" 
d="M578 -21q-147 -2 -253 66t-148.5 183t-15.5 253q39 219 203 359t379 140q203 0 312 -127q107 -127 70 -341q-9 -56 -28 -109h-694q-1 -82 64 -137q64 -55 158 -55q148 0 263 135l158 -136q-86 -111 -211 -170q-126 -61 -257 -61zM634 1084h-226l352 370h135l222 -370
h-227l-96 178zM437 575h460q5 83 -47 136q-53 53 -142 53q-93 0 -169 -53q-77 -54 -102 -136z" />
    <glyph glyph-name="edieresis" unicode="&#xeb;" horiz-adv-x="1111" 
d="M578 -21q-147 -2 -253 66t-148.5 183t-15.5 253q39 219 203 359t379 140q203 0 312 -127q107 -127 70 -341q-9 -56 -28 -109h-694q-1 -82 64 -137q64 -55 158 -55q148 0 263 135l158 -136q-86 -111 -211 -170q-126 -61 -257 -61zM437 575h460q5 83 -47 136
q-53 53 -142 53q-93 0 -169 -53q-77 -54 -102 -136zM1043 1193q-46 -38 -106 -38t-92 38q-31 37 -21 98t55 99t106 38t92.5 -38t21.5 -99q-10 -60 -56 -98zM571 1155q-60 0 -91.5 38t-20.5 98q10 60 55 98.5t105 38.5q61 0 92.5 -38t21.5 -99q-11 -61 -56 -98.5t-106 -37.5z
" />
    <glyph glyph-name="igrave" unicode="&#xec;" horiz-adv-x="548" 
d="M572 960l-169 -960h-257l169 960h257zM568 1121h-216l-174 334h292z" />
    <glyph glyph-name="iacute" unicode="&#xed;" horiz-adv-x="548" 
d="M572 960l-169 -960h-257l169 960h257zM568 1447h292l-292 -334h-216z" />
    <glyph glyph-name="icircumflex" unicode="&#xee;" horiz-adv-x="548" 
d="M572 960l-169 -960h-257l169 960h257zM337 1084h-226l352 370h135l222 -370h-227l-96 178z" />
    <glyph glyph-name="idieresis" unicode="&#xef;" horiz-adv-x="548" 
d="M572 960l-169 -960h-257l169 960h257zM766 1193q-46 -38 -106 -38t-92 38q-31 37 -21 98t55 99t106 38t92.5 -38t21.5 -99q-10 -60 -56 -98zM294 1155q-60 0 -91.5 38t-20.5 98q10 60 55 98.5t105 38.5q61 0 92.5 -38t21.5 -99q-11 -61 -56 -98.5t-106 -37.5z" />
    <glyph glyph-name="eth" unicode="&#xf0;" horiz-adv-x="1161" 
d="M566 -20q-218 0 -332 129t-78 336q38 205 186 333q149 128 352 128q85 0 151 -33t91 -79q-7 185 -171 334l-233 -153l-73 136l171 112q-68 39 -146 67l156 190q116 -46 212 -111l228 149l69 -137l-175 -115q269 -279 190 -727q-44 -249 -209 -404q-167 -155 -389 -155z
M416 445q-18 -102 35 -167t154 -65q102 0 178 65q75 65 93 167q20 107 -33 174q-52 67 -155 67t-177 -67q-76 -68 -95 -174z" />
    <glyph glyph-name="ntilde" unicode="&#xf1;" horiz-adv-x="1202" 
d="M402 0h-256l169 960h244l-14 -111q54 59 138.5 95t180.5 36q168 0 255 -103t57 -274l-106 -603h-256l95 537q17 95 -28.5 150t-134.5 55q-90 0 -160 -54q-73 -56 -89 -151zM552 1146l-92 96q136 183 269 183q34 1 80 -22t87.5 -46t65.5 -21q36 0 67 19t70 65l88 -99
q-68 -93 -134 -135.5t-141 -42.5q-50 0 -111 37t-86 42q-31 8 -54 3q-41 -6 -109 -79z" />
    <glyph glyph-name="ograve" unicode="&#xf2;" horiz-adv-x="1245" 
d="M619 -20q-142 -2 -249.5 64.5t-154.5 182.5t-20 253q37 213 210 357q172 143 391 143q220 0 341 -143.5t84 -356.5q-37 -214 -209 -357q-173 -143 -393 -143zM450 480q-21 -116 39 -192q58 -76 171 -76q114 0 199 76q86 77 107 192q19 115 -39 191t-172 76
q-113 0 -198 -76q-88 -77 -107 -191zM721 1121l-174 334h292l98 -334h-216z" />
    <glyph glyph-name="oacute" unicode="&#xf3;" horiz-adv-x="1245" 
d="M619 -20q-142 -2 -249.5 64.5t-154.5 182.5t-20 253q37 213 210 357q172 143 391 143q220 0 341 -143.5t84 -356.5q-37 -214 -209 -357q-173 -143 -393 -143zM450 480q-21 -116 39 -192q58 -76 171 -76q114 0 199 76q86 77 107 192q19 115 -39 191t-172 76
q-113 0 -198 -76q-88 -77 -107 -191zM962 1113h-216l216 334h292z" />
    <glyph glyph-name="ocircumflex" unicode="&#xf4;" horiz-adv-x="1245" 
d="M619 -20q-142 -2 -249.5 64.5t-154.5 182.5t-20 253q37 213 210 357q172 143 391 143q220 0 341 -143.5t84 -356.5q-37 -214 -209 -357q-173 -143 -393 -143zM450 480q-21 -116 39 -192q58 -76 171 -76q114 0 199 76q86 77 107 192q19 115 -39 191t-172 76
q-113 0 -198 -76q-88 -77 -107 -191zM686 1084h-226l352 370h135l222 -370h-227l-96 178z" />
    <glyph glyph-name="otilde" unicode="&#xf5;" horiz-adv-x="1245" 
d="M619 -20q-142 -2 -249.5 64.5t-154.5 182.5t-20 253q37 213 210 357q172 143 391 143q220 0 341 -143.5t84 -356.5q-37 -214 -209 -357q-173 -143 -393 -143zM450 480q-21 -116 39 -192q58 -76 171 -76q114 0 199 76q86 77 107 192q19 115 -39 191t-172 76
q-113 0 -198 -76q-88 -77 -107 -191zM578 1146l-92 96q136 183 269 183q34 1 80 -22t87.5 -46t65.5 -21q36 0 67 19t70 65l88 -99q-68 -93 -134 -135.5t-141 -42.5q-50 0 -111 37t-86 42q-31 8 -54 3q-41 -6 -109 -79z" />
    <glyph glyph-name="odieresis" unicode="&#xf6;" horiz-adv-x="1245" 
d="M619 -20q-142 -2 -249.5 64.5t-154.5 182.5t-20 253q37 213 210 357q172 143 391 143q220 0 341 -143.5t84 -356.5q-37 -214 -209 -357q-173 -143 -393 -143zM450 480q-21 -116 39 -192q58 -76 171 -76q114 0 199 76q86 77 107 192q19 115 -39 191t-172 76
q-113 0 -198 -76q-88 -77 -107 -191zM1115 1193q-46 -38 -106 -38t-92 38q-31 37 -21 98t55 99t106 38t92.5 -38t21.5 -99q-10 -60 -56 -98zM643 1155q-60 0 -91.5 38t-20.5 98q10 60 55 98.5t105 38.5q61 0 92.5 -38t21.5 -99q-11 -61 -56 -98.5t-106 -37.5z" />
    <glyph glyph-name="divide" unicode="&#xf7;" horiz-adv-x="1308" 
d="M1300 559h-1093l42 240h1093zM822 948q-64 0 -98 42q-35 42 -24 104q10 63 61 106q49 42 113 42q65 0 99 -43q35 -43 24 -105q-11 -63 -62 -104q-51 -42 -113 -42zM676 119q-64 0 -98 42q-35 42 -24 104q10 63 61 106q49 42 113 42q63 0 99 -42q34 -43 24 -106
q-11 -63 -62 -104q-51 -42 -113 -42z" />
    <glyph glyph-name="oslash" unicode="&#xf8;" horiz-adv-x="1245" 
d="M1044 916l189 191l97 -95l-184 -186q111 -141 75 -346q-37 -214 -209 -357q-173 -143 -393 -143q-143 0 -247 64l-189 -191l-97 95l184 186q-111 140 -75 346q37 213 210 357q172 143 391 143q142 0 248 -64zM952 630l-393 -397q43 -21 101 -21q114 0 199 76
q86 77 107 192q15 82 -14 150zM464 330l392 396q-43 21 -101 21q-113 0 -198 -76q-88 -77 -107 -191q-15 -85 14 -150z" />
    <glyph glyph-name="ugrave" unicode="&#xf9;" horiz-adv-x="736" 
 />
    <glyph glyph-name="uacute" unicode="&#xfa;" horiz-adv-x="736" 
d="M894 1429h292l-292 -334h-216z" />
    <glyph glyph-name="ucircumflex" unicode="&#xfb;" horiz-adv-x="1203" 
d="M507 -25q-168 0 -255 103q-87 102 -57 273l107 609h256l-95 -543q-17 -95 28 -149.5t134 -54.5q91 0 163 54q72 55 88 150l95 543h256l-169 -960h-244l14 106q-53 -59 -138 -95t-183 -36zM649 1079h-227l352 370h135l222 -370h-226l-96 178z" />
    <glyph glyph-name="udieresis" unicode="&#xfc;" horiz-adv-x="1203" 
d="M507 -25q-168 0 -255 103q-87 102 -57 273l107 609h256l-95 -543q-17 -95 28 -149.5t134 -54.5q91 0 163 54q72 55 88 150l95 543h256l-169 -960h-244l14 106q-53 -59 -138 -95t-183 -36zM606 1126q-60 0 -91.5 37.5t-21.5 97.5q11 61 55.5 99t105.5 38t92 -38t20 -99
q-11 -60 -55 -97.5t-105 -37.5zM971 1126q-60 0 -91.5 37.5t-21.5 97.5q11 61 56 99t105 38q61 0 92 -38t20 -99q-11 -60 -55 -97.5t-105 -37.5z" />
    <glyph glyph-name="yacute" unicode="&#xfd;" horiz-adv-x="1103" 
d="M158 -420q-98 0 -176 42l69 206q53 -25 116 -25q78 0 143 51.5t105 144.5l-228 961h284l128 -699l371 699h285l-645 -1091q-88 -147 -196.5 -218t-255.5 -71zM1143 1447l-292 -334h-216l216 334h292z" />
    <glyph glyph-name="thorn" unicode="&#xfe;" horiz-adv-x="1256" 
d="M332 -400h-257l319 1809h252l-99 -564q132 135 341 135q203 0 310 -140q105 -139 67 -359q-38 -218 -194 -359q-155 -142 -360 -142t-290 121zM594 674q-88 -76 -108 -192t41 -193q60 -79 172 -79q114 0 200 79q87 78 108 193q19 117 -39 193q-60 75 -174 75t-200 -76z
" />
    <glyph glyph-name="ydieresis" unicode="&#xff;" horiz-adv-x="1103" 
d="M158 -420q-98 0 -176 42l69 206q53 -25 116 -25q78 0 143 51.5t105 144.5l-228 961h284l128 -699l371 699h285l-645 -1091q-88 -147 -196.5 -218t-255.5 -71zM1038 1193q-46 -38 -106 -38t-92 38q-31 37 -21 98t55 99t106 38t92.5 -38t21.5 -99q-10 -60 -56 -98z
M566 1155q-60 0 -91.5 38t-20.5 98q10 60 55 98.5t105 38.5q61 0 92.5 -38t21.5 -99q-11 -61 -56 -98.5t-106 -37.5z" />
    <glyph glyph-name="Amacron" unicode="&#x100;" horiz-adv-x="1414" 
d="M440 266l-148 -266h-288l787 1358h310l310 -1358h-288l-53 266h-630zM1030 481l-132 595l-344 -595h476zM1270 1516h-591l31 174h591z" />
    <glyph glyph-name="amacron" unicode="&#x101;" horiz-adv-x="1093" 
d="M441 -20q-163 0 -249 81q-85 80 -62 214q24 136 155 222q130 85 321 85q109 0 196 -33l4 22q14 80 -35 132q-49 51 -141 51q-142 0 -275 -121l-121 147q72 76 191 139q115 61 253 61q211 0 315 -104q103 -105 72 -285l-104 -591h-244l19 107q-51 -60 -128.5 -93.5
t-166.5 -33.5zM1017 1180h-591l31 174h591zM376 289q-10 -54 28 -86t111 -32q93 0 167 57q72 56 89 146q-75 37 -178 37q-88 0 -147.5 -33.5t-69.5 -88.5z" />
    <glyph glyph-name="Abreve" unicode="&#x102;" horiz-adv-x="1414" 
d="M292 0h-288l787 1358h310l310 -1358h-288l-53 266h-630zM1030 481l-132 595l-344 -595h476zM968 1480q-130 0 -197 82q-68 82 -50 219h185q-6 -58 19 -94t73 -36q51 0 88 35.5t50 94.5h186q-31 -139 -127 -220q-97 -81 -227 -81z" />
    <glyph glyph-name="abreve" unicode="&#x103;" horiz-adv-x="1093" 
d="M441 -20q-163 0 -249 81q-85 80 -62 214q24 136 155 222q130 85 321 85q109 0 196 -33l4 22q14 80 -35 132q-49 51 -141 51q-142 0 -275 -121l-121 147q72 76 191 139q115 61 253 61q211 0 315 -104q103 -105 72 -285l-104 -591h-244l19 107q-51 -60 -128.5 -93.5
t-166.5 -33.5zM731 1123q-130 0 -197 82q-68 82 -50 219h185q-5 -59 19.5 -94.5t72.5 -35.5q51 0 88.5 36t49.5 94h186q-31 -139 -127 -220q-98 -81 -227 -81zM376 289q-10 -54 28 -86t111 -32q93 0 167 57q72 56 89 146q-75 37 -178 37q-88 0 -147.5 -33.5t-69.5 -88.5z
" />
    <glyph glyph-name="Aogonek" unicode="&#x104;" horiz-adv-x="1414" 
d="M292 0h-288l787 1358h310l310 -1358h-92q-216 -122 -229 -207q-7 -35 15 -56t66 -21q59 0 117 27l26 -158q-91 -52 -212 -52q-117 0 -174.5 54t-40.5 147q26 146 236 266l-53 266h-630zM898 1076l-344 -595h476z" />
    <glyph glyph-name="aogonek" unicode="&#x105;" horiz-adv-x="1093" 
d="M441 -20q-163 0 -249 81q-85 80 -62 214q24 136 155 222q130 85 321 85q109 0 196 -33l4 22q14 80 -35 132q-49 51 -141 51q-142 0 -275 -121l-121 147q72 76 191 139q115 61 253 61q211 0 315 -104q103 -105 72 -285l-104 -591h-48q-216 -122 -229 -207q-7 -35 15 -56
t66 -21q59 0 117 27l26 -158q-91 -52 -212 -52q-117 0 -174.5 54t-40.5 147q26 146 236 266l19 107q-51 -60 -128.5 -93.5t-166.5 -33.5zM376 289q-10 -54 28 -86t111 -32q93 0 167 57q72 56 89 146q-75 37 -178 37q-88 0 -147.5 -33.5t-69.5 -88.5z" />
    <glyph glyph-name="Cacute" unicode="&#x106;" horiz-adv-x="1440" 
d="M781 -20q-144 0 -265 53.5t-199 147.5q-79 94 -110.5 224t-5.5 274q34 193 154 356q118 160 295 252q175 91 371 91q187 0 332 -90t216 -249l-240 -152q-103 241 -352 241q-185 0 -324 -126q-141 -127 -175 -323q-35 -197 64 -323q98 -126 284 -126q244 0 452 234
l173 -144q-125 -163 -303 -251q-180 -89 -367 -89zM1154 1473h-216l216 334h292z" />
    <glyph glyph-name="cacute" unicode="&#x107;" horiz-adv-x="1088" 
d="M577 -20q-138 -2 -244 66t-153 184.5t-20 251.5q21 135 111 252t221 184.5t268 64.5q139 0 249 -71q108 -72 149 -203l-217 -124q-26 78 -84 120t-134 42q-113 0 -201 -77q-89 -78 -108 -193q-19 -112 40 -188q60 -77 170 -77q165 0 286 166l162 -130q-87 -127 -221 -198
q-134 -70 -274 -70zM887 1113h-216l216 334h292z" />
    <glyph glyph-name="Ccircumflex" unicode="&#x108;" horiz-adv-x="1440" 
d="M781 -20q-144 0 -265 53.5t-199 147.5q-79 94 -110.5 224t-5.5 274q34 193 154 356q118 160 295 252q175 91 371 91q187 0 332 -90t216 -249l-240 -152q-103 241 -352 241q-185 0 -324 -126q-141 -127 -175 -323q-35 -197 64 -323q98 -126 284 -126q244 0 452 234
l173 -144q-125 -163 -303 -251q-180 -89 -367 -89zM932 1471h-226l353 370h135l221 -370h-227l-96 178z" />
    <glyph glyph-name="ccircumflex" unicode="&#x109;" horiz-adv-x="1088" 
d="M577 -20q-138 -2 -244 66t-153 184.5t-20 251.5q21 135 111 252t221 184.5t268 64.5q139 0 249 -71q108 -72 149 -203l-217 -124q-26 78 -84 120t-134 42q-113 0 -201 -77q-89 -78 -108 -193q-19 -112 40 -188q60 -77 170 -77q165 0 286 166l162 -130q-87 -127 -221 -198
q-134 -70 -274 -70zM824 1262l-160 -178h-226l352 370h135l222 -370h-227z" />
    <glyph glyph-name="Cdotaccent" unicode="&#x10a;" horiz-adv-x="1440" 
d="M781 -20q-144 0 -265 53.5t-199 147.5q-79 94 -110.5 224t-5.5 274q34 193 154 356q118 160 295 252q175 91 371 91q187 0 332 -90t216 -249l-240 -152q-103 241 -352 241q-185 0 -324 -126q-141 -127 -175 -323q-35 -197 64 -323q98 -126 284 -126q244 0 452 234
l173 -144q-125 -163 -303 -251q-180 -89 -367 -89zM1166 1521q-50 -41 -114 -41q-65 0 -98 41q-34 40 -23 106q11 65 60 107q49 41 113 41t99 -41q34 -40 23 -107q-11 -66 -60 -106z" />
    <glyph glyph-name="cdotaccent" unicode="&#x10b;" horiz-adv-x="1088" 
d="M577 -20q-138 -2 -244 66t-153 184.5t-20 251.5q21 135 111 252t221 184.5t268 64.5q139 0 249 -71q108 -72 149 -203l-217 -124q-26 78 -84 120t-134 42q-113 0 -201 -77q-89 -78 -108 -193q-19 -112 40 -188q60 -77 170 -77q165 0 286 166l162 -130q-87 -127 -221 -198
q-134 -70 -274 -70zM910 1187q-50 -41 -114 -41q-65 0 -98 41q-34 40 -23 106q11 65 59.5 106.5t113.5 41.5q66 0 100 -41t22 -107q-11 -66 -60 -106z" />
    <glyph glyph-name="Ccaron" unicode="&#x10c;" horiz-adv-x="1440" 
d="M781 -20q-144 0 -265 53.5t-199 147.5q-79 94 -110.5 224t-5.5 274q34 193 154 356q118 160 295 252q175 91 371 91q187 0 332 -90t216 -249l-240 -152q-103 241 -352 241q-185 0 -324 -126q-141 -127 -175 -323q-35 -197 64 -323q98 -126 284 -126q244 0 452 234
l173 -144q-125 -163 -303 -251q-180 -89 -367 -89zM1123 1481h-135l-222 370h226l97 -178l159 178h227z" />
    <glyph glyph-name="ccaron" unicode="&#x10d;" horiz-adv-x="1088" 
d="M577 -20q-138 -2 -244 66t-153 184.5t-20 251.5q21 135 111 252t221 184.5t268 64.5q139 0 249 -71q108 -72 149 -203l-217 -124q-26 78 -84 120t-134 42q-113 0 -201 -77q-89 -78 -108 -193q-19 -112 40 -188q60 -77 170 -77q165 0 286 166l162 -130q-87 -127 -221 -198
q-134 -70 -274 -70zM859 1096h-135l-222 370h226l97 -178l159 178h227z" />
    <glyph glyph-name="Dcaron" unicode="&#x10e;" horiz-adv-x="1514" 
d="M732 -1h-562l239 1358h562q199 0 344 -88q144 -87 209 -244q63 -156 29 -347q-35 -194 -152 -347q-118 -155 -294 -244q-175 -88 -375 -88zM922 1125h-284l-157 -893h284q192 0 335 127q143 128 177 319q33 190 -65 319q-99 128 -290 128zM882 1481l-222 370h226l97 -178
l159 178h227l-352 -370h-135z" />
    <glyph glyph-name="dcaron" unicode="&#x10f;" horiz-adv-x="1359" 
d="M1609 987h-196l74 422h252zM538 -20q-203 0 -308 142q-106 140 -68 359q24 138 99 251t194.5 180.5t259.5 67.5q208 0 293 -136l99 564h252l-248 -1408h-252l13 102q-128 -122 -334 -122zM420 482q-20 -116 40 -193q58 -79 172 -79q115 0 202.5 79t106.5 193
q20 116 -40 192q-61 76 -174 76q-116 0 -202 -76.5t-105 -191.5z" />
    <glyph glyph-name="Dcroat" unicode="&#x110;" horiz-adv-x="1555" 
d="M318 607h-133l32 179h133l100 571h562q123 0 228.5 -34t191.5 -110t133 -188q63 -156 29 -347q-35 -194 -153.5 -349.5t-293.5 -242.5t-374 -87h-562zM1020 786l-32 -179h-400l-66 -375h284q194 0 336 126.5t176 319.5q33 190 -65 319q-99 128 -290 128h-284l-60 -339
h401z" />
    <glyph glyph-name="dcroat" unicode="&#x111;" horiz-adv-x="1232" 
d="M538 -20q-203 0 -308 142q-106 140 -68 359q24 138 99 251t194.5 180.5t259.5 67.5q208 0 293 -136l44 252h-319l31 176h319l24 136h252l-24 -136h118l-31 -176h-118l-193 -1096h-252l13 102q-128 -122 -334 -122zM420 482q-20 -116 40 -193q58 -79 172 -79
q115 0 202.5 79t106.5 193q20 116 -40 192q-61 76 -174 76q-116 0 -202 -76.5t-105 -191.5z" />
    <glyph glyph-name="Emacron" unicode="&#x112;" horiz-adv-x="1231" 
d="M662 1690h591l-31 -174h-591zM481 233h711l-41 -233h-981l239 1358h966l-41 -234h-696l-55 -313h604l-41 -234h-604z" />
    <glyph glyph-name="emacron" unicode="&#x113;" horiz-adv-x="1111" 
d="M1071 1180h-591l31 174h591zM578 -21q-147 -2 -253 66t-148.5 183t-15.5 253q39 217 201 358t381 141q203 0 312 -127q107 -127 70 -341q-9 -56 -28 -109h-694q-1 -86 66 -139t156 -53q148 0 263 135l158 -136q-84 -107 -208.5 -169t-259.5 -62zM437 575h460
q5 83 -47 136q-53 53 -142 53q-91 0 -168 -52t-103 -137z" />
    <glyph glyph-name="Ebreve" unicode="&#x114;" horiz-adv-x="1231" 
d="M941 1480q-130 0 -197 82q-68 82 -50 219h185q-6 -58 19 -94t73 -36q51 0 88 35.5t50 94.5h186q-31 -135 -125 -218t-229 -83zM1151 0h-981l239 1358h966l-41 -234h-696l-55 -313h604l-41 -234h-604l-61 -344h711z" />
    <glyph glyph-name="ebreve" unicode="&#x115;" horiz-adv-x="1111" 
d="M774 1123q-130 0 -197 82q-68 82 -50 219h185q-5 -59 19.5 -94.5t72.5 -35.5q51 0 88.5 36t49.5 94h186q-31 -135 -125 -218t-229 -83zM578 -21q-147 -2 -253 66t-148.5 183t-15.5 253q39 217 201 358t381 141q203 0 312 -127q107 -127 70 -341q-9 -56 -28 -109h-694
q-1 -86 66 -139t156 -53q148 0 263 135l158 -136q-84 -107 -208.5 -169t-259.5 -62zM708 764q-91 0 -168 -52t-103 -137h460q5 83 -47 136q-53 53 -142 53z" />
    <glyph glyph-name="Edotaccent" unicode="&#x116;" horiz-adv-x="1231" 
d="M1126 1627q-10 -64 -59.5 -105.5t-114.5 -41.5t-98 41q-34 40 -23 106q11 65 59.5 106.5t113.5 41.5q64 0 99 -41q34 -40 23 -107zM1151 0h-981l239 1358h966l-41 -234h-696l-55 -313h604l-41 -234h-604l-61 -344h711z" />
    <glyph glyph-name="edotaccent" unicode="&#x117;" horiz-adv-x="1111" 
d="M942 1293q-10 -64 -59.5 -105.5t-114.5 -41.5t-98 41q-34 40 -23 106q11 65 59.5 106.5t113.5 41.5q66 0 100 -41t22 -107zM578 -21q-147 -2 -253 66t-148.5 183t-15.5 253q39 217 201 358t381 141q203 0 312 -127q107 -127 70 -341q-9 -56 -28 -109h-694q-1 -86 66 -139
t156 -53q148 0 263 135l158 -136q-84 -107 -208.5 -169t-259.5 -62zM708 764q-91 0 -168 -52t-103 -137h460q5 83 -47 136q-53 53 -142 53z" />
    <glyph glyph-name="Eogonek" unicode="&#x118;" horiz-adv-x="1231" 
d="M955 0h-785l239 1358h966l-41 -234h-696l-55 -313h604l-41 -234h-604l-61 -344h711l-41 -233q-216 -122 -229 -207q-7 -35 15 -56t66 -21q59 0 117 27l26 -158q-91 -52 -212 -52q-117 0 -174.5 54t-40.5 147q26 146 236 266z" />
    <glyph glyph-name="eogonek" unicode="&#x119;" horiz-adv-x="1111" 
d="M502 -16q-125 15 -211.5 85t-120 178t-9.5 234q39 217 201 358t381 141q203 0 312 -127q107 -127 70 -341q-9 -56 -28 -109h-694q-1 -86 66 -139t156 -53q148 0 263 135l158 -136q-123 -159 -323 -212q-213 -121 -226 -205q-7 -35 15 -56t66 -21q58 0 117 27l26 -158
q-91 -52 -212 -52q-117 0 -174.5 54t-40.5 147q25 135 208 250zM437 575h460q5 83 -47 136q-53 53 -142 53q-91 0 -168 -52t-103 -137z" />
    <glyph glyph-name="Ecaron" unicode="&#x11a;" horiz-adv-x="1231" 
d="M1017 1481h-135l-222 370h226l97 -178l159 178h227zM1151 0h-981l239 1358h966l-41 -234h-696l-55 -313h604l-41 -234h-604l-61 -344h711z" />
    <glyph glyph-name="ecaron" unicode="&#x11b;" horiz-adv-x="1111" 
d="M694 1096l-222 370h226l97 -178l159 178h227l-352 -370h-135zM578 -21q-147 -2 -253 66t-148.5 183t-15.5 253q39 217 201 358t381 141q203 0 312 -127q107 -127 70 -341q-9 -56 -28 -109h-694q-1 -86 66 -139t156 -53q148 0 263 135l158 -136q-84 -107 -208.5 -169
t-259.5 -62zM437 575h460q5 83 -47 136q-53 53 -142 53q-91 0 -168 -52t-103 -137z" />
    <glyph glyph-name="Gcircumflex" unicode="&#x11c;" horiz-adv-x="1517" 
d="M1068 1649l-160 -178h-226l353 370h135l221 -370h-227zM781 -20q-187 0 -335 88.5t-215 255.5q-64 160 -30 355t151.5 354.5t294 252t374.5 92.5q178 0 318.5 -83t220.5 -236l-240 -152q-108 221 -343 221q-190 0 -327.5 -128.5t-171.5 -320.5q-35 -197 64 -323
q98 -126 284 -126q160 0 273 80q112 79 159 197h-411l41 233h684q-9 -158 -73.5 -298.5t-168.5 -242t-247 -160.5t-302 -59z" />
    <glyph glyph-name="gcircumflex" unicode="&#x11d;" horiz-adv-x="1255" 
d="M618 1084h-226l352 370h135l222 -370h-227l-96 178zM56 -213l194 162q118 -139 273 -139q132 0 229 69.5t119 195.5l6 33q-55 -60 -143.5 -94t-191.5 -34q-203 0 -308 142q-106 140 -68 359q24 138 99 251t194.5 180.5t259.5 67.5q208 0 293 -136l25 116h246l-153 -859
q-44 -244 -220 -383t-427 -139q-129 0 -243.5 53.5t-183.5 154.5zM424 482q-20 -116 40 -193q58 -79 172 -79q115 0 202.5 79t106.5 193q20 116 -40 192q-61 76 -174 76q-116 0 -202 -76.5t-105 -191.5z" />
    <glyph glyph-name="Gbreve" unicode="&#x11e;" horiz-adv-x="1517" 
d="M1024 1480q-130 0 -197 82q-68 82 -50 219h185q-6 -58 19 -94t73 -36q51 0 88 35.5t50 94.5h186q-31 -135 -125 -218t-229 -83zM781 -20q-187 0 -335 88.5t-215 255.5q-64 160 -30 355t151.5 354.5t294 252t374.5 92.5q178 0 318.5 -83t220.5 -236l-240 -152
q-108 221 -343 221q-190 0 -327.5 -128.5t-171.5 -320.5q-35 -197 64 -323q98 -126 284 -126q160 0 273 80q112 79 159 197h-411l41 233h684q-9 -158 -73.5 -298.5t-168.5 -242t-247 -160.5t-302 -59z" />
    <glyph glyph-name="gbreve" unicode="&#x11f;" horiz-adv-x="1255" 
d="M797 1123q-130 0 -197 82q-68 82 -50 219h185q-5 -59 19.5 -94.5t72.5 -35.5q51 0 88.5 36t49.5 94h186q-31 -135 -125 -218t-229 -83zM483 -421q-129 0 -243.5 53.5t-183.5 154.5l194 162q118 -139 273 -139q132 0 229 69.5t119 195.5l6 33q-55 -60 -143.5 -94
t-191.5 -34q-203 0 -308 142q-106 140 -68 359q24 138 99 251t194.5 180.5t259.5 67.5q208 0 293 -136l25 116h246l-153 -859q-44 -244 -220 -383t-427 -139zM424 482q-20 -116 40 -193q58 -79 172 -79q115 0 202.5 79t106.5 193q20 116 -40 192q-61 76 -174 76
q-116 0 -202 -76.5t-105 -191.5z" />
    <glyph glyph-name="Gdotaccent" unicode="&#x120;" horiz-adv-x="1517" 
d="M1229 1627q-10 -64 -59.5 -105.5t-114.5 -41.5t-98 41q-34 40 -23 106q11 65 59.5 106.5t113.5 41.5q64 0 99 -41q34 -40 23 -107zM781 -20q-187 0 -335 88.5t-215 255.5q-64 160 -30 355t151.5 354.5t294 252t374.5 92.5q178 0 318.5 -83t220.5 -236l-240 -152
q-108 221 -343 221q-190 0 -327.5 -128.5t-171.5 -320.5q-35 -197 64 -323q98 -126 284 -126q160 0 273 80q112 79 159 197h-411l41 233h684q-9 -158 -73.5 -298.5t-168.5 -242t-247 -160.5t-302 -59z" />
    <glyph glyph-name="gdotaccent" unicode="&#x121;" horiz-adv-x="1255" 
d="M970 1293q-10 -64 -59.5 -105.5t-114.5 -41.5t-98 41q-34 40 -23 106q11 65 59.5 106.5t113.5 41.5q66 0 100 -41t22 -107zM483 -421q-129 0 -243.5 53.5t-183.5 154.5l194 162q118 -139 273 -139q132 0 229 69.5t119 195.5l6 33q-55 -60 -143.5 -94t-191.5 -34
q-203 0 -308 142q-106 140 -68 359q24 138 99 251t194.5 180.5t259.5 67.5q208 0 293 -136l25 116h246l-153 -859q-44 -244 -220 -383t-427 -139zM424 482q-20 -116 40 -193q58 -79 172 -79q115 0 202.5 79t106.5 193q20 116 -40 192q-61 76 -174 76q-116 0 -202 -76.5
t-105 -191.5z" />
    <glyph glyph-name="uni0122" unicode="&#x122;" horiz-adv-x="1517" 
d="M781 -20q-187 0 -335 88.5t-215 255.5q-64 160 -30 355t151.5 354.5t294 252t374.5 92.5q178 0 318.5 -83t220.5 -236l-240 -152q-108 221 -343 221q-190 0 -327.5 -128.5t-171.5 -320.5q-35 -197 64 -323q98 -126 284 -126q160 0 273 80q112 79 159 197h-411l41 233h684
q-9 -158 -73.5 -298.5t-168.5 -242t-247 -160.5t-302 -59zM884 -106l-137 -422h-196l81 422h252z" />
    <glyph glyph-name="uni0123" unicode="&#x123;" horiz-adv-x="1255" 
d="M869 1094h-252l137 422h196zM483 -421q-129 0 -243.5 53.5t-183.5 154.5l194 162q118 -139 273 -139q132 0 229 69.5t119 195.5l6 33q-55 -60 -143.5 -94t-191.5 -34q-203 0 -308 142q-106 140 -68 359q24 138 99 251t194.5 180.5t259.5 67.5q208 0 293 -136l25 116h246
l-153 -859q-44 -244 -220 -383t-427 -139zM424 482q-20 -116 40 -193q58 -79 172 -79q115 0 202.5 79t106.5 193q20 116 -40 192q-61 76 -174 76q-116 0 -202 -76.5t-105 -191.5z" />
    <glyph glyph-name="Hcircumflex" unicode="&#x124;" horiz-adv-x="1540" 
d="M1061 1649l-160 -178h-226l353 370h135l221 -370h-227zM542 576l-102 -576h-270l239 1358h270l-96 -549h662l96 549h269l-239 -1358h-269l102 576h-662z" />
    <glyph glyph-name="hcircumflex" unicode="&#x125;" horiz-adv-x="1200" 
d="M558 1667l-159 -178h-226l352 370h135l222 -370h-227zM403 0h-257l248 1408h257l-97 -550q54 54 136 88t174 34q167 0 254 -103q86 -104 56 -274l-106 -603h-257l95 537q17 95 -27.5 150t-132.5 55q-94 0 -163 -56.5t-85 -148.5z" />
    <glyph glyph-name="Hbar" unicode="&#x126;" horiz-adv-x="1562" 
d="M246 1190h144l30 168h270l-29 -168h662l29 168h269l-30 -168h146l-31 -174h-145l-179 -1016h-269l102 576h-662l-102 -576h-270l179 1016h-145zM1256 809l36 207h-662l-36 -207h662z" />
    <glyph glyph-name="hbar" unicode="&#x127;" horiz-adv-x="1213" 
d="M511 537l-95 -537h-257l193 1096h-128l31 176h128l24 136h257l-24 -136h324l-31 -176h-324l-42 -238q54 54 136 88t174 34q167 0 254 -103q86 -104 56 -274l-106 -603h-257l95 537q17 95 -27.5 150t-132.5 55q-94 0 -163 -56.5t-85 -148.5z" />
    <glyph glyph-name="Itilde" unicode="&#x128;" horiz-adv-x="609" 
d="M323 1506l-93 96q136 183 270 183q43 2 124 -44.5t108 -44.5q36 0 67 19t71 65l87 -99q-68 -93 -134 -135.5t-141 -42.5q-50 0 -111 37t-85 42q-32 8 -55 3q-41 -8 -108 -79zM679 1358l-239 -1358h-270l239 1358h270z" />
    <glyph glyph-name="itilde" unicode="&#x129;" horiz-adv-x="548" 
d="M229 1146l-92 96q137 183 269 183q34 1 80 -22t87.5 -46t65.5 -21q36 0 67 19t70 65l88 -99q-68 -93 -134 -135.5t-141 -42.5q-50 0 -111 37t-86 42q-32 8 -54 3q-41 -6 -109 -79zM403 0h-257l169 960h257z" />
    <glyph glyph-name="Imacron" unicode="&#x12a;" horiz-adv-x="609" 
d="M307 1690h591l-31 -174h-591zM409 1358h270l-239 -1358h-270z" />
    <glyph glyph-name="imacron" unicode="&#x12b;" horiz-adv-x="548" 
d="M218 1354h591l-31 -174h-591zM572 960l-169 -960h-257l169 960h257z" />
    <glyph glyph-name="Ibreve" unicode="&#x12c;" horiz-adv-x="609" 
d="M565 1480q-130 0 -197 82q-68 82 -50 219h185q-6 -58 19 -94t73 -36q51 0 88 35.5t50 94.5h186q-31 -135 -125 -218t-229 -83zM440 0h-270l239 1358h270z" />
    <glyph glyph-name="ibreve" unicode="&#x12d;" horiz-adv-x="548" 
d="M472 1123q-130 0 -197 82q-68 82 -50 219h185q-5 -59 19.5 -94.5t72.5 -35.5q51 0 88.5 36t49.5 94h186q-31 -135 -125 -218t-229 -83zM403 0h-257l169 960h257z" />
    <glyph glyph-name="Iogonek" unicode="&#x12e;" horiz-adv-x="609" 
d="M189 -467q-117 0 -174.5 54t-40.5 147q26 146 236 266h-40l239 1358h270l-239 -1358h-34q-216 -122 -229 -207q-7 -35 15 -56t66 -21q58 0 117 27l26 -158q-91 -52 -212 -52z" />
    <glyph glyph-name="iogonek" unicode="&#x12f;" horiz-adv-x="548" 
d="M650 1293q-10 -64 -59.5 -105.5t-114.5 -41.5t-98 41q-34 40 -23 106q11 65 59.5 106.5t113.5 41.5q66 0 100 -41t22 -107zM157 -467q-117 0 -174.5 54t-40.5 147q26 146 236 266h-32l169 960h257l-169 -960h-29q-216 -122 -229 -207q-7 -35 15 -56t66 -21q58 0 117 27
l26 -158q-91 -52 -212 -52z" />
    <glyph glyph-name="Idotaccent" unicode="&#x130;" horiz-adv-x="609" 
d="M740 1627q-10 -64 -59.5 -105.5t-114.5 -41.5t-98 41q-34 40 -23 106q11 65 59.5 106.5t113.5 41.5q64 0 99 -41q34 -40 23 -107zM440 0h-270l239 1358h270z" />
    <glyph glyph-name="dotlessi" unicode="&#x131;" horiz-adv-x="548" 
d="M572 960l-169 -960h-257l169 960h257z" />
    <glyph glyph-name="IJ" unicode="&#x132;" horiz-adv-x="1641" 
d="M606 214l200 174q86 -158 241 -158q99 0 166.5 72t90.5 203l150 853h270l-152 -867q-42 -234 -191.5 -372.5t-382.5 -138.5q-137 0 -237 59.5t-155 174.5zM679 1358l-239 -1358h-270l239 1358h270z" />
    <glyph glyph-name="ij" unicode="&#x133;" horiz-adv-x="1063" 
d="M1174 1293q-10 -64 -59.5 -105.5t-114.5 -41.5t-98 41q-34 40 -23 106q11 65 59.5 106.5t113.5 41.5q66 0 100 -41t22 -107zM648 1293q-10 -64 -59.5 -105.5t-114.5 -41.5t-98 41q-34 40 -23 106q11 65 59.5 106.5t113.5 41.5q66 0 100 -41t22 -107zM580 960l-169 -960
h-257l169 960h257zM309 -384l61 206q62 -20 117 -20q139 0 168 165l175 992h257l-178 -1009q-30 -170 -139.5 -270t-279.5 -100q-116 0 -181 36z" />
    <glyph glyph-name="Jcircumflex" unicode="&#x134;" horiz-adv-x="1073" 
d="M1066 1649l-160 -178h-226l353 370h135l221 -370h-227zM38 214l200 174q86 -158 241 -158q99 0 166.5 72t90.5 203l150 853h270l-152 -867q-42 -234 -191.5 -372.5t-382.5 -138.5q-137 0 -237 59.5t-155 174.5z" />
    <glyph glyph-name="jcircumflex" unicode="&#x135;" horiz-adv-x="546" 
d="M494 1262l-160 -178h-226l352 370h135l222 -370h-227zM-27 -420q-117 0 -181 36l61 206q62 -20 117 -20q140 0 168 165l175 992h257l-178 -1009q-30 -170 -139.5 -270t-279.5 -100z" />
    <glyph glyph-name="uni0136" unicode="&#x136;" horiz-adv-x="1378" 
d="M512 411l-72 -411h-270l239 1358h270l-108 -616l679 616h346l-620 -552l412 -806h-328l-308 626zM811 -106l-137 -422h-196l81 422h252z" />
    <glyph glyph-name="uni0137" unicode="&#x137;" horiz-adv-x="1099" 
d="M400 1h-254l248 1407h254l-142 -806l413 358h341l-492 -409l332 -550h-317l-216 384l-117 -99zM527 -528h-196l81 422h252z" />
    <glyph glyph-name="kgreenlandic" unicode="&#x138;" horiz-adv-x="1099" 
d="M400 1h-254l169 959h254l-63 -358l413 358h341l-492 -409l332 -550h-317l-216 384l-117 -99z" />
    <glyph glyph-name="Lacute" unicode="&#x139;" horiz-adv-x="1197" 
d="M675 1807h292l-292 -334h-216zM481 233h731l-41 -233h-1001l239 1358h270z" />
    <glyph glyph-name="lacute" unicode="&#x13a;" horiz-adv-x="547" 
d="M641 1826h292l-292 -334h-216zM394 1408h256l-248 -1408h-256z" />
    <glyph glyph-name="uni013B" unicode="&#x13b;" horiz-adv-x="1197" 
d="M481 233h731l-41 -233h-1001l239 1358h270zM636 -528h-196l81 422h252z" />
    <glyph glyph-name="uni013C" unicode="&#x13c;" horiz-adv-x="547" 
d="M394 1408h256l-248 -1408h-256zM237 -528h-196l81 422h252z" />
    <glyph glyph-name="Lcaron" unicode="&#x13d;" horiz-adv-x="1197" 
d="M481 233h731l-41 -233h-1001l239 1358h270zM1102 927h-196l82 422h252z" />
    <glyph glyph-name="lcaron" unicode="&#x13e;" horiz-adv-x="547" 
d="M402 0h-256l248 1408h256zM1004 1408l-130 -422h-196l74 422h252z" />
    <glyph glyph-name="Ldot" unicode="&#x13f;" horiz-adv-x="1200" 
d="M1171 0h-1001l239 1358h270l-198 -1125h731zM1152 685q-10 -62 -61 -104.5t-114 -42.5q-64 0 -98 43q-35 42 -24 104t60.5 104.5t113.5 42.5q63 0 99 -42q34 -44 24 -105z" />
    <glyph glyph-name="ldot" unicode="&#x140;" horiz-adv-x="739" 
d="M402 0h-256l248 1408h256zM889 678q-10 -62 -61 -104.5t-114 -42.5q-64 0 -98 43q-35 42 -24 104t60.5 104.5t112.5 42.5t99 -42q36 -43 25 -105z" />
    <glyph glyph-name="Lslash" unicode="&#x141;" horiz-adv-x="1322" 
d="M295 0l119 678l-204 -14l32 179l204 14l88 501h270l-85 -483l347 23l-31 -179l-348 -23l-81 -463h731l-41 -233h-1001z" />
    <glyph glyph-name="lslash" unicode="&#x142;" horiz-adv-x="728" 
d="M315 442l-195 -72l31 174l195 74l139 790h256l-121 -686l194 73l-32 -181l-193 -71l-96 -543h-256z" />
    <glyph glyph-name="Nacute" unicode="&#x143;" horiz-adv-x="1605" 
d="M1472 1807l-292 -334h-216l216 334h292zM440 0h-270l239 1358h245l587 -932l164 932h270l-239 -1358h-249l-584 922z" />
    <glyph glyph-name="nacute" unicode="&#x144;" horiz-adv-x="1202" 
d="M937 1113h-216l216 334h292zM402 0h-256l169 960h244l-14 -111q54 59 138.5 95t180.5 36q168 0 255 -103t57 -274l-106 -603h-256l95 537q17 95 -28.5 150t-134.5 55q-94 0 -163.5 -56.5t-85.5 -148.5z" />
    <glyph glyph-name="uni0145" unicode="&#x145;" horiz-adv-x="1605" 
d="M440 0h-270l239 1358h245l587 -932l164 932h270l-239 -1358h-249l-584 922zM953 -106l-137 -422h-196l81 422h252z" />
    <glyph glyph-name="uni0146" unicode="&#x146;" horiz-adv-x="1202" 
d="M497 537l-95 -537h-256l169 960h244l-14 -111q54 59 138.5 95t180.5 36q168 0 255 -103t57 -274l-106 -603h-256l95 537q17 95 -28.5 150t-134.5 55q-94 0 -163.5 -56.5t-85.5 -148.5zM593 -528h-196l81 422h252z" />
    <glyph glyph-name="Ncaron" unicode="&#x147;" horiz-adv-x="1605" 
d="M1147 1481h-135l-222 370h226l97 -178l159 178h227zM440 0h-270l239 1358h245l587 -932l164 932h270l-239 -1358h-249l-584 922z" />
    <glyph glyph-name="ncaron" unicode="&#x148;" horiz-adv-x="1202" 
d="M899 1096h-135l-222 370h226l97 -178l159 178h227zM402 0h-256l169 960h244l-14 -111q54 59 138.5 95t180.5 36q168 0 255 -103t57 -274l-106 -603h-256l95 537q17 95 -28.5 150t-134.5 55q-94 0 -163.5 -56.5t-85.5 -148.5z" />
    <glyph glyph-name="napostrophe" unicode="&#x149;" horiz-adv-x="1481" 
d="M711 1428l-294 -516h-206l228 516h272zM681 0h-256l169 960h244l-14 -111q54 59 138.5 95t180.5 36q168 0 255 -103t57 -274l-106 -603h-256l95 537q17 95 -28.5 150t-134.5 55q-94 0 -163.5 -56.5t-85.5 -148.5z" />
    <glyph glyph-name="Eng" unicode="&#x14a;" horiz-adv-x="1605" 
d="M603 922l-163 -922h-270l239 1358h245l587 -932l164 932h270l-251 -1428q-29 -161 -133.5 -255.5t-265.5 -94.5q-105 0 -161 36l61 206q51 -20 97 -20q110 0 135 145l14 78z" />
    <glyph glyph-name="eng" unicode="&#x14b;" horiz-adv-x="1202" 
d="M402 0h-256l169 960h244l-14 -111q54 59 138.5 95t180.5 36q168 0 255 -103t57 -274l-118 -673q-29 -159 -129 -254.5t-256 -95.5q-105 0 -161 36l61 206q51 -20 97 -20q110 0 135 145l104 590q17 95 -28.5 150t-134.5 55q-94 0 -163.5 -56.5t-85.5 -148.5z" />
    <glyph glyph-name="Omacron" unicode="&#x14c;" horiz-adv-x="1586" 
d="M1356 1516h-591l31 174h591zM789 -20q-192 0 -342.5 83.5t-217.5 251.5q-63 158 -28 361q37 202 155 362t296 250t384 90q151 0 274.5 -52t202.5 -145q78 -94 108 -224.5t3 -280.5q-34 -201 -153 -360t-298 -247.5t-384 -88.5zM479 677q-34 -198 66 -322t290 -124
q196 0 337.5 125.5t174.5 320.5q35 199 -64 324t-290 125q-194 0 -337 -127.5t-177 -321.5z" />
    <glyph glyph-name="omacron" unicode="&#x14d;" horiz-adv-x="1245" 
d="M1127 1180h-591l31 174h591zM619 -20q-142 -2 -249.5 64.5t-154.5 182.5t-20 253q38 215 209.5 357.5t391.5 142.5t341 -143.5t84 -356.5q-25 -143 -112.5 -257.5t-216 -178.5t-273.5 -64zM450 480q-21 -116 39 -192q58 -76 171 -76q115 0 200 76.5t106 191.5
q19 115 -39 191t-172 76t-200 -77t-105 -190z" />
    <glyph glyph-name="Obreve" unicode="&#x14e;" horiz-adv-x="1586" 
d="M1054 1480q-130 0 -197 82q-68 82 -50 219h185q-6 -58 19 -94t73 -36q51 0 88 35.5t50 94.5h186q-31 -135 -125 -218t-229 -83zM789 -20q-192 0 -342.5 83.5t-217.5 251.5q-63 158 -28 361q37 202 155 362t296 250t384 90q151 0 274.5 -52t202.5 -145q78 -94 108 -224.5
t3 -280.5q-34 -201 -153 -360t-298 -247.5t-384 -88.5zM479 677q-34 -198 66 -322t290 -124q196 0 337.5 125.5t174.5 320.5q35 199 -64 324t-290 125q-194 0 -337 -127.5t-177 -321.5z" />
    <glyph glyph-name="obreve" unicode="&#x14f;" horiz-adv-x="1245" 
d="M821 1123q-130 0 -197 82q-68 82 -50 219h185q-5 -59 19.5 -94.5t72.5 -35.5q51 0 88.5 36t49.5 94h186q-31 -135 -125 -218t-229 -83zM619 -20q-142 -2 -249.5 64.5t-154.5 182.5t-20 253q38 215 209.5 357.5t391.5 142.5t341 -143.5t84 -356.5q-25 -143 -112.5 -257.5
t-216 -178.5t-273.5 -64zM450 480q-21 -116 39 -192q58 -76 171 -76q115 0 200 76.5t106 191.5q19 115 -39 191t-172 76t-200 -77t-105 -190z" />
    <glyph glyph-name="Ohungarumlaut" unicode="&#x150;" horiz-adv-x="1586" 
d="M1645 1807l-292 -334h-216l216 334h292zM1315 1807l-292 -334h-216l216 334h292zM789 -20q-192 0 -342.5 83.5t-217.5 251.5q-63 158 -28 361q37 202 155 362t296 250t384 90q151 0 274.5 -52t202.5 -145q78 -94 108 -224.5t3 -280.5q-34 -201 -153 -360t-298 -247.5
t-384 -88.5zM479 677q-34 -198 66 -322t290 -124q196 0 337.5 125.5t174.5 320.5q35 199 -64 324t-290 125q-194 0 -337 -127.5t-177 -321.5z" />
    <glyph glyph-name="ohungarumlaut" unicode="&#x151;" horiz-adv-x="1245" 
d="M1384 1447l-292 -334h-216l216 334h292zM762 1113h-216l216 334h292zM619 -20q-142 -2 -249.5 64.5t-154.5 182.5t-20 253q38 215 209.5 357.5t391.5 142.5t341 -143.5t84 -356.5q-25 -143 -112.5 -257.5t-216 -178.5t-273.5 -64zM450 480q-21 -116 39 -192
q58 -76 171 -76q115 0 200 76.5t106 191.5q19 115 -39 191t-172 76t-200 -77t-105 -190z" />
    <glyph glyph-name="OE" unicode="&#x152;" horiz-adv-x="2269" 
d="M789 -20q-192 0 -342.5 83.5t-217.5 251.5q-63 158 -28 361q37 202 155 362t296 250t384 90q244 0 388 -152l23 132h966l-41 -234h-696l-55 -313h604l-41 -234h-604l-61 -344h711l-41 -233h-981l23 130q-197 -150 -442 -150zM479 677q-34 -198 66 -322t290 -124
q196 0 337.5 125.5t174.5 320.5q35 199 -64 324t-290 125q-194 0 -337 -127.5t-177 -321.5z" />
    <glyph glyph-name="oe" unicode="&#x153;" horiz-adv-x="1862" 
d="M584 -20q-142 -2 -249.5 64.5t-154.5 182.5t-20 253q38 215 209.5 357.5t391.5 142.5q112 0 200.5 -45.5t140.5 -127.5q79 83 180 128t211 45q203 0 312 -127q107 -127 70 -341q-9 -56 -28 -109h-694q-1 -86 66 -139t156 -53q147 0 263 135l158 -136
q-84 -107 -208.5 -169t-259.5 -62q-116 0 -203.5 45.5t-136.5 129.5q-82 -83 -186.5 -128.5t-217.5 -45.5zM1187 575h460q5 83 -47 136q-53 53 -142 53q-91 0 -168 -52t-103 -137zM415 480q-21 -116 39 -192q58 -76 171 -76q115 0 200 76.5t106 191.5q19 115 -39 191
t-172 76t-200 -77t-105 -190z" />
    <glyph glyph-name="Racute" unicode="&#x154;" horiz-adv-x="1359" 
d="M1322 1807l-292 -334h-216l216 334h292zM528 494l-87 -493h-271l239 1357h599q220 0 332 -120t78 -316q-23 -130 -108 -230.5t-213 -152.5l212 -539h-296l-190 494h-295zM950 1124h-311l-70 -396h311q97 0 170.5 51t90.5 143q15 91 -35 146.5t-156 55.5z" />
    <glyph glyph-name="racute" unicode="&#x155;" horiz-adv-x="803" 
d="M1081 1447l-292 -334h-216l216 334h292zM403 0h-257l169 960h248l-18 -131q48 73 120.5 112t156.5 39q62 0 121 -22l-60 -229q-60 22 -116 22q-115 0 -185.5 -70.5t-91.5 -188.5z" />
    <glyph glyph-name="uni0156" unicode="&#x156;" horiz-adv-x="1359" 
d="M441 1h-271l239 1357h599q220 0 332 -120t78 -316q-23 -130 -108 -230.5t-213 -152.5l212 -539h-296l-190 494h-295zM950 1124h-311l-70 -396h311q97 0 170.5 51t90.5 143q15 91 -35 146.5t-156 55.5zM646 -528h-196l81 422h252z" />
    <glyph glyph-name="uni0157" unicode="&#x157;" horiz-adv-x="803" 
d="M403 0h-257l169 960h248l-18 -131q48 73 120.5 112t156.5 39q62 0 121 -22l-60 -229q-60 22 -116 22q-115 0 -185.5 -70.5t-91.5 -188.5zM386 -106l-137 -422h-196l81 422h252z" />
    <glyph glyph-name="Rcaron" unicode="&#x158;" horiz-adv-x="1359" 
d="M842 1481l-222 370h226l97 -178l159 178h227l-352 -370h-135zM528 494l-87 -493h-271l239 1357h599q220 0 332 -120t78 -316q-23 -130 -108 -230.5t-213 -152.5l212 -539h-296l-190 494h-295zM639 1124l-70 -396h311q97 0 170.5 51t90.5 143q15 91 -35 146.5t-156 55.5
h-311z" />
    <glyph glyph-name="rcaron" unicode="&#x159;" horiz-adv-x="803" 
d="M771 1096h-135l-222 370h226l97 -178l159 178h227zM490 492l-87 -492h-257l169 960h248l-18 -131q48 73 120.5 112t156.5 39q62 0 121 -22l-60 -229q-60 22 -116 22q-115 0 -185.5 -70.5t-91.5 -188.5z" />
    <glyph glyph-name="Sacute" unicode="&#x15a;" horiz-adv-x="1224" 
d="M994 1473h-216l216 334h292zM627 -20q-82 0 -158.5 19.5t-143.5 57.5t-116 100.5t-70 143.5l224 144q33 -104 113 -162.5t197 -58.5q52 0 105.5 14t100 50t54.5 87q11 61 -43.5 103t-186.5 86q-95 32 -142 51q-154 61 -209 135q-72 95 -48 238q16 91 71 166.5t132 123.5
t167 74t180 26q172 0 287 -84q114 -85 163 -211l-234 -148q-85 199 -266 199q-48 0 -94 -14.5t-83.5 -49t-46.5 -81.5q-10 -64 28 -94q39 -31 147 -69q15 -5 35.5 -12.5t26.5 -9.5q177 -67 239 -102q132 -77 154 -191q11 -62 -2 -134q-17 -95 -75.5 -172.5t-141 -125.5
t-176.5 -73.5t-188 -25.5z" />
    <glyph glyph-name="sacute" unicode="&#x15b;" horiz-adv-x="961" 
d="M790 1113h-216l216 334h292zM496 -20q-137 0 -238.5 59t-149.5 164l196 139q32 -68 93 -108t134 -40q61 0 103 23t49 61q6 35 -26 54t-125 41q-160 36 -239 99q-89 70 -64 212q16 94 84.5 163.5t157.5 101t185 31.5q129 0 217 -53.5t133 -146.5l-188 -135
q-53 119 -194 119q-64 0 -105.5 -20.5t-48.5 -56.5q-6 -36 30 -54q30 -17 133 -44q160 -40 236 -103q83 -70 59 -208q-16 -94 -86 -164t-160.5 -102t-185.5 -32z" />
    <glyph glyph-name="Scircumflex" unicode="&#x15c;" horiz-adv-x="1224" 
d="M746 1471h-226l353 370h135l221 -370h-227l-96 178zM139 301l224 144q33 -104 113 -162.5t197 -58.5q52 0 105.5 14t100 50t54.5 87q11 61 -43.5 103t-186.5 86q-95 32 -142 51q-154 61 -209 135q-72 95 -48 238q16 91 71 166.5t132 123.5t167 74t180 26q172 0 287 -84
q114 -85 163 -211l-234 -148q-85 199 -266 199q-48 0 -94 -14.5t-83.5 -49t-46.5 -81.5q-10 -64 28 -94q39 -31 147 -69q15 -5 35.5 -12.5t26.5 -9.5q177 -67 239 -102q132 -77 154 -191q11 -62 -2 -134q-17 -95 -75.5 -172.5t-141 -125.5t-176.5 -73.5t-188 -25.5
q-82 0 -158.5 19.5t-143.5 57.5t-116 100.5t-70 143.5z" />
    <glyph glyph-name="scircumflex" unicode="&#x15d;" horiz-adv-x="961" 
d="M557 1084h-226l352 370h135l222 -370h-227l-96 178zM108 203l196 139q32 -68 93 -108t134 -40q61 0 103 23t49 61q6 35 -26 54t-125 41q-160 36 -239 99q-89 70 -64 212q16 94 84.5 163.5t157.5 101t185 31.5q129 0 217 -53.5t133 -146.5l-188 -135q-53 119 -194 119
q-64 0 -105.5 -20.5t-48.5 -56.5q-6 -36 30 -54q30 -17 133 -44q160 -40 236 -103q83 -70 59 -208q-16 -94 -86 -164t-160.5 -102t-185.5 -32q-137 0 -238.5 59t-149.5 164z" />
    <glyph glyph-name="Scedilla" unicode="&#x15e;" horiz-adv-x="1224" 
d="M139 301l224 144q33 -104 113 -162.5t197 -58.5q52 0 105.5 14t100 50t54.5 87q11 61 -43.5 103t-186.5 86q-95 32 -142 51q-154 61 -209 135q-72 95 -48 238q16 91 71 166.5t132 123.5t167 74t180 26q172 0 287 -84q114 -85 163 -211l-234 -148q-85 199 -266 199
q-48 0 -94 -14.5t-83.5 -49t-46.5 -81.5q-10 -64 28 -94q39 -31 147 -69q15 -5 35.5 -12.5t26.5 -9.5q177 -67 239 -102q132 -77 154 -191q11 -62 -2 -134q-16 -92 -70.5 -167t-132.5 -123t-167 -75t-180 -31l-32 -67q99 -12 145 -60t34 -122q-10 -54 -44.5 -94.5t-84 -62
t-101 -32t-104.5 -10.5q-93 0 -148 26l25 142q56 -19 127 -19q118 0 130 66q5 32 -24.5 49.5t-90.5 17.5h-71l99 173q-137 22 -241 103.5t-138 209.5z" />
    <glyph glyph-name="scedilla" unicode="&#x15f;" horiz-adv-x="961" 
d="M108 203l196 139q32 -68 93 -108t134 -40q61 0 103 23t49 61q6 35 -26 54t-125 41q-160 36 -239 99q-89 70 -64 212q16 94 84.5 163.5t157.5 101t185 31.5q129 0 217 -53.5t133 -146.5l-188 -135q-53 119 -194 119q-64 0 -105.5 -20.5t-48.5 -56.5q-6 -36 30 -54
q30 -17 133 -44q160 -40 236 -103q83 -70 59 -208q-22 -127 -133.5 -205t-249.5 -91l-33 -68q99 -12 145 -60t34 -122q-10 -54 -44.5 -94.5t-84 -62t-101 -32t-104.5 -10.5q-93 0 -148 26l25 142q56 -19 127 -19q118 0 130 66q5 32 -24.5 49.5t-90.5 17.5h-71l98 172
q-212 37 -295 216z" />
    <glyph glyph-name="Scaron" unicode="&#x160;" horiz-adv-x="1224" 
d="M806 1481l-222 370h226l97 -178l159 178h227l-352 -370h-135zM139 301l224 144q33 -104 113 -162.5t197 -58.5q52 0 105.5 14t100 50t54.5 87q11 61 -43.5 103t-186.5 86q-95 32 -142 51q-154 61 -209 135q-72 95 -48 238q16 91 71 166.5t132 123.5t167 74t180 26
q172 0 287 -84q114 -85 163 -211l-234 -148q-85 199 -266 199q-48 0 -94 -14.5t-83.5 -49t-46.5 -81.5q-10 -64 28 -94q39 -31 147 -69q15 -5 35.5 -12.5t26.5 -9.5q177 -67 239 -102q132 -77 154 -191q11 -62 -2 -134q-17 -95 -75.5 -172.5t-141 -125.5t-176.5 -73.5
t-188 -25.5q-82 0 -158.5 19.5t-143.5 57.5t-116 100.5t-70 143.5z" />
    <glyph glyph-name="scaron" unicode="&#x161;" horiz-adv-x="961" 
d="M618 1096l-222 370h226l97 -178l159 178h227l-352 -370h-135zM108 203l196 139q32 -68 93 -108t134 -40q61 0 103 23t49 61q6 35 -26 54t-125 41q-160 36 -239 99q-89 70 -64 212q16 94 84.5 163.5t157.5 101t185 31.5q129 0 217 -53.5t133 -146.5l-188 -135
q-53 119 -194 119q-64 0 -105.5 -20.5t-48.5 -56.5q-6 -36 30 -54q30 -17 133 -44q160 -40 236 -103q83 -70 59 -208q-16 -94 -86 -164t-160.5 -102t-185.5 -32q-137 0 -238.5 59t-149.5 164z" />
    <glyph glyph-name="uni0162" unicode="&#x162;" horiz-adv-x="1161" 
d="M447 0l197 1118h-425l42 240h1118l-42 -240h-424l-197 -1118h-81l-42 -86q99 -12 145 -60t34 -122q-10 -54 -44.5 -94.5t-84 -62t-101 -32t-104.5 -10.5q-93 0 -148 26l25 142q56 -19 127 -19q118 0 130 66q5 32 -24.5 49.5t-90.5 17.5h-71l106 185h-45z" />
    <glyph glyph-name="uni0163" unicode="&#x163;" horiz-adv-x="808" 
d="M327 747h-162l37 213h163l55 308h249l-55 -308h288l-37 -213h-282l-70 -395q-13 -71 18 -107.5t99 -36.5q82 0 168 33l-13 -213q-106 -48 -241 -48q-21 0 -27 1l-32 -67q99 -12 145 -60t34 -122q-10 -54 -44.5 -94.5t-84 -62t-101 -32t-104.5 -10.5q-93 0 -148 26l25 142
q56 -19 127 -19q118 0 130 66q5 32 -24.5 49.5t-90.5 17.5h-71l109 192q-86 34 -121.5 112t-14.5 196z" />
    <glyph glyph-name="Tcaron" unicode="&#x164;" horiz-adv-x="1161" 
d="M910 1481h-135l-222 370h226l97 -178l159 178h227zM644 1118h-425l42 240h1118l-42 -240h-424l-197 -1118h-269z" />
    <glyph glyph-name="tcaron" unicode="&#x165;" horiz-adv-x="828" 
d="M1066 1509l-130 -422h-196l74 422h252zM327 747h-162l37 213h163l55 308h249l-55 -308h288l-37 -213h-282l-70 -395q-13 -71 18 -107.5t99 -36.5q82 0 168 33l-13 -213q-106 -48 -241 -48q-165 0 -243.5 86t-49.5 249z" />
    <glyph glyph-name="Tbar" unicode="&#x166;" horiz-adv-x="1227" 
d="M620 792l57 326h-425l42 240h1118l-42 -240h-424l-57 -326h317l-32 -179h-317l-108 -613h-269l108 613h-317l32 179h317z" />
    <glyph glyph-name="tbar" unicode="&#x167;" horiz-adv-x="827" 
d="M265 315l18 100h-146l31 176h146l27 156h-162l37 213h163l55 308h249l-55 -308h288l-37 -213h-282l-28 -156h261l-31 -176h-261l-11 -63q-13 -71 18 -107.5t99 -36.5q82 0 168 33l-13 -213q-106 -48 -241 -48q-165 0 -243.5 86t-49.5 249z" />
    <glyph glyph-name="Utilde" unicode="&#x168;" horiz-adv-x="1471" 
d="M755 1506l-93 96q136 183 270 183q43 2 124 -44.5t108 -44.5q36 0 67 19t71 65l87 -99q-68 -93 -134 -135.5t-141 -42.5q-50 0 -111 37t-85 42q-32 8 -55 3q-41 -8 -108 -79zM1408 516q-45 -249 -231.5 -392.5t-444.5 -143.5q-261 0 -395 146t-91 390l148 842h269
l-147 -836q-24 -136 49 -218t210 -82q138 0 239.5 82.5t125.5 217.5l147 836h269z" />
    <glyph glyph-name="utilde" unicode="&#x169;" horiz-adv-x="1203" 
d="M543 1127l-92 96q133 183 269 183q61 0 125 -44q65 -45 107 -45q36 0 67 19t71 65l88 -99q-68 -92 -134.5 -135t-141.5 -43q-49 0 -110 37t-86 42q-32 7 -54 3q-43 -7 -109 -79zM507 -25q-168 0 -255 103q-87 102 -57 273l107 609h256l-95 -543q-17 -95 28 -149.5
t134 -54.5q95 0 165 55.5t86 148.5l95 543h256l-169 -960h-244l14 106q-53 -59 -138 -95t-183 -36z" />
    <glyph glyph-name="Umacron" unicode="&#x16a;" horiz-adv-x="1471" 
d="M1299 1516h-591l31 174h591zM1408 516q-45 -249 -231.5 -392.5t-444.5 -143.5q-261 0 -395 146t-91 390l148 842h269l-147 -836q-24 -136 49 -218t210 -82q138 0 239.5 82.5t125.5 217.5l147 836h269z" />
    <glyph glyph-name="umacron" unicode="&#x16b;" horiz-adv-x="1203" 
d="M1090 1151h-591l31 174h591zM507 -25q-168 0 -255 103q-87 102 -57 273l107 609h256l-95 -543q-17 -95 28 -149.5t134 -54.5q95 0 165 55.5t86 148.5l95 543h256l-169 -960h-244l14 106q-53 -59 -138 -95t-183 -36z" />
    <glyph glyph-name="Ubreve" unicode="&#x16c;" horiz-adv-x="1471" 
d="M997 1480q-130 0 -197 82q-68 82 -50 219h185q-6 -58 19 -94t73 -36q51 0 88 35.5t50 94.5h186q-31 -135 -125 -218t-229 -83zM1408 516q-45 -249 -231.5 -392.5t-444.5 -143.5q-261 0 -395 146t-91 390l148 842h269l-147 -836q-24 -136 49 -218t210 -82
q138 0 239.5 82.5t125.5 217.5l147 836h269z" />
    <glyph glyph-name="ubreve" unicode="&#x16d;" horiz-adv-x="1203" 
d="M784 1102q-129 0 -196 82q-68 81 -51 219h185q-5 -59 19.5 -94.5t72.5 -35.5q51 0 88.5 36t49.5 94h186q-31 -134 -125 -217.5t-229 -83.5zM507 -25q-168 0 -255 103q-87 102 -57 273l107 609h256l-95 -543q-17 -95 28 -149.5t134 -54.5q95 0 165 55.5t86 148.5l95 543
h256l-169 -960h-244l14 106q-53 -59 -138 -95t-183 -36z" />
    <glyph glyph-name="Uring" unicode="&#x16e;" horiz-adv-x="1471" 
d="M1249 1691q-17 -92 -87 -149t-164 -57q-95 0 -144 58q-50 59 -34 148q16 93 86 151t165 58q94 0 145 -58q50 -59 33 -151zM960 1691q-5 -31 11.5 -51.5t49.5 -20.5t57 20.5t29 51.5q6 33 -10 54.5t-49 21.5t-57.5 -21.5t-30.5 -54.5zM1408 516q-45 -249 -231.5 -392.5
t-444.5 -143.5q-261 0 -395 146t-91 390l148 842h269l-147 -836q-24 -136 49 -218t210 -82q138 0 239.5 82.5t125.5 217.5l147 836h269z" />
    <glyph glyph-name="uring" unicode="&#x16f;" horiz-adv-x="1203" 
d="M1032 1288q-17 -92 -87 -149t-164 -57q-95 0 -144 58q-50 59 -34 148q16 93 86 151t165 58q94 0 145 -58q50 -59 33 -151zM743 1287q-5 -31 11.5 -51.5t49.5 -20.5t57 20.5t29 51.5q6 33 -10 55t-49 22t-57.5 -22t-30.5 -55zM507 -25q-168 0 -255 103q-87 102 -57 273
l107 609h256l-95 -543q-17 -95 28 -149.5t134 -54.5q95 0 165 55.5t86 148.5l95 543h256l-169 -960h-244l14 106q-53 -59 -138 -95t-183 -36z" />
    <glyph glyph-name="Uhungarumlaut" unicode="&#x170;" horiz-adv-x="1471" 
d="M1269 1473h-216l216 334h292zM940 1473h-216l216 334h292zM1408 516q-45 -249 -231.5 -392.5t-444.5 -143.5q-261 0 -395 146t-91 390l148 842h269l-147 -836q-24 -136 49 -218t210 -82q138 0 239.5 82.5t125.5 217.5l147 836h269z" />
    <glyph glyph-name="uhungarumlaut" unicode="&#x171;" horiz-adv-x="1249" 
d="M1356 1429l-297 -334h-211l226 334h282zM980 1429l-277 -334h-211l216 334h272zM507 -25q-168 0 -255 103q-87 102 -57 273l107 609h256l-95 -543q-17 -95 28 -149.5t134 -54.5q95 0 165 55.5t86 148.5l95 543h256l-169 -960h-244l14 106q-53 -59 -138 -95t-183 -36z" />
    <glyph glyph-name="Uogonek" unicode="&#x172;" horiz-adv-x="1471" 
d="M678 -18q-237 17 -354 160q-119 144 -78 374l148 842h269l-147 -836q-24 -136 49 -218t210 -82q138 0 239.5 82.5t125.5 217.5l147 836h269l-148 -842q-34 -200 -170 -337.5t-338 -181.5q-211 -120 -224 -204q-7 -35 15 -56t66 -21q59 0 117 27l26 -158q-91 -52 -212 -52
q-117 0 -174.5 54t-40.5 147q24 133 205 248z" />
    <glyph glyph-name="uogonek" unicode="&#x173;" horiz-adv-x="1219" 
d="M507 -25q-168 0 -255 103q-87 102 -57 273l107 609h256l-95 -543q-17 -95 28 -149.5t134 -54.5q95 0 165 55.5t86 148.5l95 543h256l-169 -960h-48q-216 -122 -229 -207q-7 -35 15 -56t66 -21q58 0 117 27l26 -158q-91 -52 -212 -52q-117 0 -174.5 54t-40.5 147
q14 76 76.5 144t159.5 122l14 106q-53 -59 -138 -95t-183 -36z" />
    <glyph glyph-name="Wcircumflex" unicode="&#x174;" horiz-adv-x="2044" 
d="M1313 1649l-160 -178h-226l353 370h135l221 -370h-227zM396 0l-133 1358h271l109 -1089l494 1068h243l116 -1068l493 1089h271l-611 -1358h-378l-95 875l-402 -875h-378z" />
    <glyph glyph-name="wcircumflex" unicode="&#x175;" horiz-adv-x="1613" 
d="M1030 1262l-160 -178h-226l352 370h135l222 -370h-227zM316 0l-114 960h265l66 -699l327 684h228l84 -684l313 699h265l-452 -960h-319l-69 582l-275 -582h-319z" />
    <glyph glyph-name="Ycircumflex" unicode="&#x176;" horiz-adv-x="1337" 
d="M960 1649l-160 -178h-226l353 370h135l221 -370h-227zM626 513l-378 845h322l241 -571l445 571h312l-673 -845l-90 -513h-269z" />
    <glyph glyph-name="ycircumflex" unicode="&#x177;" horiz-adv-x="1103" 
d="M761 1262l-160 -178h-226l352 370h135l222 -370h-227zM158 -420q-98 0 -176 42l69 206q53 -25 116 -25q78 0 143 51.5t105 144.5l-228 961h284l128 -699l371 699h285l-645 -1091q-88 -147 -196.5 -218t-255.5 -71z" />
    <glyph glyph-name="Ydieresis" unicode="&#x178;" horiz-adv-x="1337" 
d="M1276 1628q-10 -61 -55 -98.5t-107 -37.5q-60 0 -92 38q-31 37 -21 98q11 61 55 99t106 38q61 0 93 -38q31 -37 21 -99zM748 1492q-60 0 -91 37.5t-21 98.5q10 60 55 98.5t105 38.5q61 0 92.5 -38t21.5 -99q-10 -60 -55.5 -98t-106.5 -38zM536 0l90 513l-378 845h322
l241 -571l445 571h312l-673 -845l-90 -513h-269z" />
    <glyph glyph-name="Zacute" unicode="&#x179;" horiz-adv-x="1209" 
d="M940 1807h292l-292 -334h-216zM1139 0h-1065l34 193l865 929h-691l41 236h1045l-34 -196l-866 -927h712z" />
    <glyph glyph-name="zacute" unicode="&#x17a;" horiz-adv-x="916" 
d="M757 1447h292l-292 -334h-216zM854 0h-777l33 185l553 561h-449l37 214h742l-33 -186l-552 -560h484z" />
    <glyph glyph-name="Zdotaccent" unicode="&#x17b;" horiz-adv-x="1209" 
d="M1074 1627q-10 -64 -59.5 -105.5t-114.5 -41.5t-98 41q-34 40 -23 106q11 65 59.5 106.5t113.5 41.5q64 0 99 -41q34 -40 23 -107zM1139 0h-1065l34 193l865 929h-691l41 236h1045l-34 -196l-866 -927h712z" />
    <glyph glyph-name="zdotaccent" unicode="&#x17c;" horiz-adv-x="916" 
d="M840 1293q-10 -64 -59.5 -105.5t-114.5 -41.5t-98 41q-34 40 -23 106q11 65 59.5 106.5t113.5 41.5q66 0 100 -41t22 -107zM854 0h-777l33 185l553 561h-449l37 214h742l-33 -186l-552 -560h484z" />
    <glyph glyph-name="Zcaron" unicode="&#x17d;" horiz-adv-x="1209" 
d="M812 1481l-222 370h226l97 -178l159 178h227l-352 -370h-135zM1180 235l-41 -235h-1065l34 193l865 929h-691l41 236h1045l-34 -196l-866 -927h712z" />
    <glyph glyph-name="zcaron" unicode="&#x17e;" horiz-adv-x="916" 
d="M603 1096l-222 370h226l97 -178l159 178h227l-352 -370h-135zM892 214l-38 -214h-777l33 185l553 561h-449l37 214h742l-33 -186l-552 -560h484z" />
    <glyph glyph-name="uni018F" unicode="&#x18f;" horiz-adv-x="1524" 
d="M733 -20q-141 -2 -256 48t-187.5 138.5t-100 212.5t-0.5 264q13 64 27 112h1081q6 167 -91 269t-269 102q-247 0 -435 -227l-185 154q124 150 299 237.5t364 87.5q147 0 269.5 -53t200.5 -147q79 -95 109.5 -224.5t4.5 -274.5q-35 -195 -155 -355t-298.5 -252t-377.5 -92
zM1240 527h-788q-4 -132 86 -213q89 -82 241 -82q149 0 272 79.5t189 215.5z" />
    <glyph glyph-name="florin" unicode="&#x192;" horiz-adv-x="1203" 
d="M45 28l109 218q56 -35 122 -35q75 0 133.5 44t85.5 128l94 301h-170l67 217h167l34 99q51 168 189.5 273t312.5 105q113 0 202 -48l-110 -216q-56 35 -121 35q-76 0 -138 -45.5t-89 -128.5l-24 -74h274l-67 -217h-267l-101 -326q-51 -171 -195.5 -276.5t-306.5 -101.5
q-112 0 -201 48z" />
    <glyph glyph-name="uni019D" unicode="&#x19d;" horiz-adv-x="1605" 
d="M29 -420q-105 0 -161 36l61 206q51 -20 97 -20q110 0 135 145l248 1411h245l587 -932l164 932h270l-239 -1358h-249l-584 922l-175 -992q-29 -161 -133.5 -255.5t-265.5 -94.5z" />
    <glyph glyph-name="Gcaron" unicode="&#x1e6;" horiz-adv-x="1517" 
d="M1096 1481h-135l-222 370h226l97 -178l159 178h227zM781 -20q-187 0 -335 88.5t-215 255.5q-64 160 -30 355t151.5 354.5t294 252t374.5 92.5q178 0 318.5 -83t220.5 -236l-240 -152q-108 221 -343 221q-190 0 -327.5 -128.5t-171.5 -320.5q-35 -197 64 -323
q98 -126 284 -126q160 0 273 80q112 79 159 197h-411l41 233h684q-9 -158 -73.5 -298.5t-168.5 -242t-247 -160.5t-302 -59z" />
    <glyph glyph-name="gcaron" unicode="&#x1e7;" horiz-adv-x="1255" 
d="M720 1096l-222 370h226l97 -178l159 178h227l-352 -370h-135zM483 -421q-129 0 -243.5 53.5t-183.5 154.5l194 162q118 -139 273 -139q132 0 229 69.5t119 195.5l6 33q-55 -60 -143.5 -94t-191.5 -34q-203 0 -308 142q-106 140 -68 359q24 138 99 251t194.5 180.5
t259.5 67.5q208 0 293 -136l25 116h246l-153 -859q-44 -244 -220 -383t-427 -139zM424 482q-20 -116 40 -193q58 -79 172 -79q115 0 202.5 79t106.5 193q20 116 -40 192q-61 76 -174 76q-116 0 -202 -76.5t-105 -191.5z" />
    <glyph glyph-name="uni01EA" unicode="&#x1ea;" horiz-adv-x="1586" 
d="M748 -19q-290 13 -445 207q-154 193 -102 488q37 202 155 362t296 250t384 90q151 0 274.5 -52t202.5 -145q78 -94 108 -224.5t3 -280.5q-45 -255 -220 -437.5t-428 -238.5q-216 -122 -229 -207q-7 -35 15 -56t66 -21q58 0 117 27l26 -158q-91 -52 -212 -52
q-117 0 -174.5 54t-40.5 147q24 134 204 247zM479 677q-34 -198 66 -322t290 -124q196 0 337.5 125.5t174.5 320.5q35 199 -64 324t-290 125q-194 0 -337 -127.5t-177 -321.5z" />
    <glyph glyph-name="uni01EB" unicode="&#x1eb;" horiz-adv-x="1245" 
d="M548 -16q-190 26 -288 164q-99 139 -65 332q38 215 209.5 357.5t391.5 142.5t341 -143.5t84 -356.5q-31 -176 -155 -306.5t-299 -174.5q-213 -122 -226 -206q-7 -35 15 -56t66 -21q58 0 117 27l26 -158q-91 -52 -212 -52q-117 0 -174.5 54t-40.5 147q25 137 210 250z
M450 480q-21 -116 39 -192q58 -76 171 -76q115 0 200 76.5t106 191.5q19 115 -39 191t-172 76t-200 -77t-105 -190z" />
    <glyph glyph-name="Aringacute" unicode="&#x1fa;" horiz-adv-x="1414" 
d="M1155 1962h-216l216 334h292zM1220 1691q-17 -92 -87 -149t-164 -57q-95 0 -144 58q-50 59 -34 148q16 93 86 151t165 58q94 0 145 -58q50 -59 33 -151zM931 1691q-5 -31 11.5 -51.5t49.5 -20.5t57 20.5t29 51.5q6 33 -10 54.5t-49 21.5t-57.5 -21.5t-30.5 -54.5z
M440 266l-148 -266h-288l787 1358h310l310 -1358h-288l-53 266h-630zM898 1076l-344 -595h476z" />
    <glyph glyph-name="aringacute" unicode="&#x1fb;" horiz-adv-x="1093" 
d="M925 1567h-216l216 334h292zM977 1289q-17 -92 -87 -149t-164 -57q-95 0 -144 58q-50 59 -34 148q16 93 86 151t165 58q94 0 145 -58q50 -59 33 -151zM688 1289q-5 -31 12 -51.5t50 -20.5t56.5 20.5t28.5 51.5q6 33 -10 54.5t-49 21.5t-57.5 -21.5t-30.5 -54.5zM441 -20
q-163 0 -249 81q-85 80 -62 214q24 136 155 222q130 85 321 85q109 0 196 -33l4 22q14 80 -35 132q-49 51 -141 51q-142 0 -275 -121l-121 147q72 76 191 139q115 61 253 61q211 0 315 -104q103 -105 72 -285l-104 -591h-244l19 107q-51 -60 -128.5 -93.5t-166.5 -33.5z
M376 289q-10 -54 28 -86t111 -32q94 0 166.5 56t89.5 147q-75 37 -178 37q-88 0 -147.5 -33.5t-69.5 -88.5z" />
    <glyph glyph-name="AEacute" unicode="&#x1fc;" horiz-adv-x="1997" 
d="M1724 1473h-216l216 334h292zM465 266l-207 -266h-308l1068 1358h1123l-41 -234h-696l-55 -313h604l-41 -234h-604l-61 -344h711l-41 -233h-982l47 266h-517zM1020 481l113 643l-501 -643h388z" />
    <glyph glyph-name="aeacute" unicode="&#x1fd;" horiz-adv-x="1743" 
d="M1459 1447l-292 -334h-216l216 334h292zM482 -20q-182 0 -278 81q-95 81 -73 214q24 136 155 222q130 85 321 85q114 0 206 -33l4 22q14 80 -38 132q-52 51 -148 51q-142 0 -275 -121l-121 147q72 76 191 139q115 61 253 61q113 0 193.5 -40.5t119.5 -115.5
q78 75 176.5 115.5t205.5 40.5q203 0 312 -127q107 -127 70 -341q-9 -56 -28 -109h-694q-1 -86 66 -139t156 -53q148 0 263 135l158 -136q-84 -107 -208.5 -169t-259.5 -62q-118 0 -206.5 45t-140.5 128q-78 -82 -176.5 -127t-203.5 -45zM1068 575h460q5 83 -47 136
q-53 53 -142 53q-91 0 -168 -52t-103 -137zM377 289q-9 -53 29 -83.5t111 -30.5q95 0 171.5 54t93.5 145q-80 37 -188 37q-88 0 -147.5 -33.5t-69.5 -88.5z" />
    <glyph glyph-name="Oslashacute" unicode="&#x1fe;" horiz-adv-x="1586" 
d="M1495 1807l-292 -334h-216l216 334h292zM207 -25l142 162q-100 95 -139 234t-9 305q37 202 155 362t296 250t384 90q187 0 327 -77l142 163l113 -88l-139 -159q99 -97 137 -236t8 -305q-34 -201 -153 -360t-298 -247.5t-384 -88.5q-187 0 -326 75l-147 -169zM542 359
l634 728q-81 39 -183 39q-194 0 -337 -127.5t-177 -321.5q-35 -193 63 -318zM1286 996l-634 -726q81 -39 183 -39q196 0 337.5 125.5t174.5 320.5q34 193 -61 319z" />
    <glyph glyph-name="oslashacute" unicode="&#x1ff;" horiz-adv-x="1245" 
d="M1223 1447l-292 -334h-216l216 334h292zM365 48l-188 -189l-88 83l185 187q-116 141 -79 351q38 215 209.5 357.5t391.5 142.5q146 0 253 -67l188 190l90 -85l-185 -187q116 -141 79 -351q-25 -143 -112.5 -257.5t-216 -178.5t-273.5 -64t-254 68zM466 324l396 400
q-48 23 -107 23q-114 0 -200 -77t-105 -190q-16 -85 16 -156zM949 637l-398 -401q49 -24 109 -24q115 0 200 76.5t106 191.5q16 87 -17 157z" />
    <glyph glyph-name="uni0218" unicode="&#x218;" horiz-adv-x="1224" 
d="M627 -20q-82 0 -158.5 19.5t-143.5 57.5t-116 100.5t-70 143.5l224 144q33 -104 113 -162.5t197 -58.5q52 0 105.5 14t100 50t54.5 87q11 61 -43.5 103t-186.5 86q-95 32 -142 51q-154 61 -209 135q-72 95 -48 238q16 91 71 166.5t132 123.5t167 74t180 26q172 0 287 -84
q114 -85 163 -211l-234 -148q-85 199 -266 199q-48 0 -94 -14.5t-83.5 -49t-46.5 -81.5q-10 -64 28 -94q39 -31 147 -69q15 -5 35.5 -12.5t26.5 -9.5q177 -67 239 -102q132 -77 154 -191q11 -62 -2 -134q-17 -95 -75.5 -172.5t-141 -125.5t-176.5 -73.5t-188 -25.5z
M594 -528h-196l81 422h252z" />
    <glyph glyph-name="uni0219" unicode="&#x219;" horiz-adv-x="961" 
d="M496 -20q-137 0 -238.5 59t-149.5 164l196 139q32 -68 93 -108t134 -40q61 0 103 23t49 61q6 35 -26 54t-125 41q-160 36 -239 99q-89 70 -64 212q16 94 84.5 163.5t157.5 101t185 31.5q129 0 217 -53.5t133 -146.5l-188 -135q-53 119 -194 119q-64 0 -105.5 -20.5
t-48.5 -56.5q-6 -36 30 -54q30 -17 133 -44q160 -40 236 -103q83 -70 59 -208q-16 -94 -86 -164t-160.5 -102t-185.5 -32zM480 -528h-196l81 422h252z" />
    <glyph glyph-name="uni021A" unicode="&#x21a;" horiz-adv-x="1161" 
d="M447 0l197 1118h-425l42 240h1118l-42 -240h-424l-197 -1118h-269zM687 -106l-137 -422h-196l81 422h252z" />
    <glyph glyph-name="uni021B" unicode="&#x21b;" horiz-adv-x="808" 
d="M327 747h-162l37 213h163l55 308h249l-55 -308h288l-37 -213h-282l-70 -395q-13 -71 18 -107.5t99 -36.5q82 0 168 33l-13 -213q-106 -48 -241 -48q-165 0 -243.5 86t-49.5 249zM608 -106l-137 -422h-196l81 422h252z" />
    <glyph glyph-name="uni0232" unicode="&#x232;" horiz-adv-x="1337" 
d="M1263 1690l-31 -174h-591l31 174h591zM626 513l-378 845h322l241 -571l445 571h312l-673 -845l-90 -513h-269z" />
    <glyph glyph-name="uni0233" unicode="&#x233;" horiz-adv-x="1103" 
d="M1057 1180h-591l31 174h591zM158 -420q-98 0 -176 42l69 206q53 -25 116 -25q78 0 143 51.5t105 144.5l-228 961h284l128 -699l371 699h285l-645 -1091q-88 -147 -196.5 -218t-255.5 -71z" />
    <glyph glyph-name="uni0237" unicode="&#x237;" horiz-adv-x="546" 
d="M-208 -384l61 206q62 -20 117 -20q140 0 168 165l175 992h257l-178 -1009q-30 -170 -139.5 -270t-279.5 -100q-117 0 -181 36z" />
    <glyph glyph-name="uni0259" unicode="&#x259;" horiz-adv-x="1111" 
d="M551 -18q-203 0 -311 127q-109 127 -72 341q11 53 29 109h694q0 87 -67 139.5t-156 52.5q-146 0 -262 -135l-158 136q84 108 207.5 169.5t259.5 61.5q150 0 254.5 -67t146 -181t17.5 -254q-40 -217 -201.5 -358t-380.5 -141zM856 387h-460q-4 -83 48 -135q53 -54 142 -54
q91 0 167.5 52t102.5 137z" />
    <glyph glyph-name="uni0272" unicode="&#x272;" horiz-adv-x="1202" 
d="M-156 -384l61 206q51 -20 97 -20q110 0 135 145l178 1013h244l-14 -111q54 59 138.5 95t180.5 36q168 0 255 -103t57 -274l-106 -603h-256l95 537q17 95 -28.5 150t-134.5 55q-94 0 -163.5 -56.5t-85.5 -148.5l-107 -607q-29 -159 -129 -254.5t-256 -95.5q-105 0 -161 36
z" />
    <glyph glyph-name="circumflex" unicode="&#x2c6;" horiz-adv-x="996" 
d="M629 1471h-226l353 370h135l221 -370h-227l-96 178z" />
    <glyph glyph-name="caron" unicode="&#x2c7;" horiz-adv-x="996" 
d="M827 1481h-135l-222 370h226l97 -178l159 178h227z" />
    <glyph glyph-name="breve" unicode="&#x2d8;" horiz-adv-x="868" 
d="M695 1480q-130 0 -197 82q-68 82 -50 219h185q-6 -58 19 -94t73 -36q51 0 88 35.5t50 94.5h186q-31 -135 -125 -218t-229 -83z" />
    <glyph glyph-name="dotaccent" unicode="&#x2d9;" horiz-adv-x="582" 
d="M726 1627q-10 -64 -59.5 -105.5t-114.5 -41.5t-98 41q-34 40 -23 106q11 65 59.5 106.5t113.5 41.5q64 0 99 -41q34 -40 23 -107z" />
    <glyph glyph-name="ring" unicode="&#x2da;" horiz-adv-x="716" 
d="M871 1691q-17 -92 -87 -149t-164 -57q-95 0 -144 58q-50 59 -34 148q16 93 86 151t165 58q94 0 145 -58q50 -59 33 -151zM582 1691q-5 -31 11.5 -51.5t49.5 -20.5t57 20.5t29 51.5q6 33 -10 54.5t-49 21.5t-57.5 -21.5t-30.5 -54.5z" />
    <glyph glyph-name="ogonek" unicode="&#x2db;" horiz-adv-x="688" 
d="M293 -467q-117 0 -174.5 54t-40.5 147q9 51 41 99.5t79 86.5t94 67t98 52l120 -39q-216 -122 -229 -207q-7 -35 15 -56t66 -21q58 0 117 27l26 -158q-91 -52 -212 -52z" />
    <glyph glyph-name="tilde" unicode="&#x2dc;" horiz-adv-x="1000" 
d="M519 1506l-93 96q136 183 270 183q43 2 124 -44.5t108 -44.5q36 0 67 19t71 65l87 -99q-68 -93 -134 -135.5t-141 -42.5q-50 0 -111 37t-85 42q-32 8 -55 3q-41 -8 -108 -79z" />
    <glyph glyph-name="hungarumlaut" unicode="&#x2dd;" horiz-adv-x="1092" 
d="M971 1473h-211l226 334h282zM892 1807l-277 -334h-211l216 334h272z" />
    <glyph glyph-name="acutecomb" unicode="&#x301;" horiz-adv-x="736" 
d="M702 2277h292l-291 -334h-216z" />
    <glyph glyph-name="uni030A" unicode="&#x30a;" horiz-adv-x="716" 
d="M871 1691q-17 -92 -87 -149t-164 -57q-95 0 -144 58q-50 59 -34 148q16 93 86 151t165 58q94 0 145 -58q50 -59 33 -151zM582 1691q-5 -31 11.5 -51.5t49.5 -20.5t57 20.5t29 51.5q6 33 -10 54.5t-49 21.5t-57.5 -21.5t-30.5 -54.5z" />
    <glyph glyph-name="dotbelowcomb" unicode="&#x323;" horiz-adv-x="584" 
d="M215 -430q-63 0 -97 42q-35 42 -24 104q11 63 60.5 105.5t112.5 42.5q64 0 100 -43q35 -43 24 -105q-10 -63 -61 -104.5t-115 -41.5z" />
    <glyph glyph-name="uni0326" unicode="&#x326;" horiz-adv-x="546" 
d="M247 -528h-196l81 422h252z" />
    <glyph glyph-name="uni03BC" unicode="&#x3bc;" horiz-adv-x="1214" 
d="M409 36l-77 -436h-257l240 1360h257l-97 -552q-13 -88 32 -139t129 -51q94 0 164.5 56t86.5 148l95 538h256l-169 -960h-244l15 111q-47 -57 -118.5 -91.5t-153.5 -34.5q-108 0 -159 51z" />
    <glyph glyph-name="pi" unicode="&#x3c0;" horiz-adv-x="1373" 
d="M365 863h-182l43 241h1242l-43 -241h-175l-95 -537q-11 -63 19.5 -90.5t109.5 -27.5q34 0 54 4l-38 -216q-42 -13 -131 -13q-137 0 -219 80q-82 79 -56 229l101 571h-375l-152 -863h-255z" />
    <glyph glyph-name="Wgrave" unicode="&#x1e80;" horiz-adv-x="2044" 
d="M1164 1473l-174 334h292l98 -334h-216zM774 0h-378l-133 1358h271l109 -1089l494 1068h243l116 -1068l493 1089h271l-611 -1358h-378l-95 875z" />
    <glyph glyph-name="wgrave" unicode="&#x1e81;" horiz-adv-x="1613" 
d="M882 1121l-174 334h292l98 -334h-216zM316 0l-114 960h265l66 -699l327 684h228l84 -684l313 699h265l-452 -960h-319l-69 582l-275 -582h-319z" />
    <glyph glyph-name="Wacute" unicode="&#x1e82;" horiz-adv-x="2044" 
d="M1712 1807l-292 -334h-216l216 334h292zM774 0h-378l-133 1358h271l109 -1089l494 1068h243l116 -1068l493 1089h271l-611 -1358h-378l-95 875z" />
    <glyph glyph-name="wacute" unicode="&#x1e83;" horiz-adv-x="1613" 
d="M1140 1113h-216l216 334h292zM635 0h-319l-114 960h265l66 -699l327 684h228l84 -684l313 699h265l-452 -960h-319l-69 582z" />
    <glyph glyph-name="Wdieresis" unicode="&#x1e84;" horiz-adv-x="2044" 
d="M1630 1628q-10 -61 -55 -98.5t-107 -37.5q-60 0 -92 38q-31 37 -21 98q11 61 55 99t106 38q61 0 93 -38q31 -37 21 -99zM1102 1492q-60 0 -91 37.5t-21 98.5q10 60 55 98.5t105 38.5q61 0 92.5 -38t21.5 -99q-10 -60 -55.5 -98t-106.5 -38zM774 0h-378l-133 1358h271
l109 -1089l494 1068h243l116 -1068l493 1089h271l-611 -1358h-378l-95 875z" />
    <glyph glyph-name="wdieresis" unicode="&#x1e85;" horiz-adv-x="1613" 
d="M1355 1291q-10 -60 -55.5 -98t-106.5 -38q-60 0 -92 38q-31 37 -21 98t55 99t106 38t92.5 -38t21.5 -99zM827 1155q-60 0 -91.5 38t-20.5 98q10 60 55 98.5t105 38.5q61 0 92.5 -38t21.5 -99q-11 -61 -56 -98.5t-106 -37.5zM635 0h-319l-114 960h265l66 -699l327 684h228
l84 -684l313 699h265l-452 -960h-319l-69 582z" />
    <glyph glyph-name="Germandbls" unicode="&#x1e9e;" horiz-adv-x="1455" 
d="M423 0h-269l145 820q29 169 136.5 297.5t260 194.5t324.5 66q148 0 277.5 -63t185.5 -186l-14 -80l-385 -290h31q165 0 263 -104q97 -103 70 -257q-34 -193 -184 -305t-350 -112q-132 0 -228 60.5t-141 172.5l213 150q74 -146 205 -146q80 0 136.5 47t70.5 125
q12 70 -37 118t-139 48h-296l29 164l459 356q-74 58 -209 58q-145 0 -265.5 -90t-144.5 -229z" />
    <glyph glyph-name="uni1EA0" unicode="&#x1ea0;" horiz-adv-x="1414" 
d="M440 266l-148 -266h-288l787 1358h310l310 -1358h-288l-53 266h-630zM1030 481l-132 595l-344 -595h476zM630 -431q-62 0 -97 42t-24 104q11 63 60.5 105.5t112.5 42.5t99 -43q36 -42 25 -105q-10 -63 -61 -104.5t-115 -41.5z" />
    <glyph glyph-name="uni1EA1" unicode="&#x1ea1;" horiz-adv-x="1093" 
d="M441 -20q-163 0 -249 81q-85 80 -62 214q24 136 155 222q130 85 321 85q109 0 196 -33l4 22q14 80 -35 132q-49 51 -141 51q-142 0 -275 -121l-121 147q72 76 191 139q115 61 253 61q211 0 315 -104q103 -105 72 -285l-104 -591h-244l19 107q-51 -60 -128.5 -93.5
t-166.5 -33.5zM376 289q-10 -54 28 -86t111 -32q94 0 166.5 56t89.5 147q-75 37 -178 37q-88 0 -147.5 -33.5t-69.5 -88.5zM460 -430q-62 0 -97 42t-24 104q11 63 60.5 105.5t112.5 42.5q64 0 100 -43q34 -43 24 -105q-10 -63 -61 -104.5t-115 -41.5z" />
    <glyph glyph-name="uni1EB8" unicode="&#x1eb8;" horiz-adv-x="1231" 
d="M1151 0h-981l239 1358h966l-41 -234h-696l-55 -313h604l-41 -234h-604l-61 -344h711zM624 -430q-62 0 -97 42t-24 104q11 63 60.5 105.5t112.5 42.5q64 0 100 -43q34 -43 24 -105q-10 -63 -61 -104.5t-115 -41.5z" />
    <glyph glyph-name="uni1EB9" unicode="&#x1eb9;" horiz-adv-x="1111" 
d="M578 -21q-147 -2 -253 66t-148.5 183t-15.5 253q39 217 201 358t381 141q203 0 312 -127q107 -127 70 -341q-9 -56 -28 -109h-694q-1 -86 66 -139t156 -53q148 0 263 135l158 -136q-84 -107 -208.5 -169t-259.5 -62zM708 764q-91 0 -168 -52t-103 -137h460q5 83 -47 136
q-53 53 -142 53zM535 -430q-63 0 -97 42q-35 42 -24 104q11 63 60.5 105.5t112.5 42.5q64 0 100 -43q35 -43 24 -105q-10 -63 -61 -104.5t-115 -41.5z" />
    <glyph glyph-name="uni1EBC" unicode="&#x1ebc;" horiz-adv-x="1231" 
d="M699 1506l-93 96q136 183 270 183q43 2 124 -44.5t108 -44.5q36 0 67 19t71 65l87 -99q-68 -93 -134 -135.5t-141 -42.5q-50 0 -111 37t-85 42q-32 8 -55 3q-41 -8 -108 -79zM1151 0h-981l239 1358h966l-41 -234h-696l-55 -313h604l-41 -234h-604l-61 -344h711z" />
    <glyph glyph-name="uni1EBD" unicode="&#x1ebd;" horiz-adv-x="1111" 
d="M531 1146l-92 96q137 183 269 183q34 1 80 -22t87.5 -46t65.5 -21q36 0 67 19t70 65l88 -99q-68 -93 -134 -135.5t-141 -42.5q-50 0 -111 37t-86 42q-32 8 -54 3q-41 -6 -109 -79zM578 -21q-147 -2 -253 66t-148.5 183t-15.5 253q39 217 201 358t381 141q203 0 312 -127
q107 -127 70 -341q-9 -56 -28 -109h-694q-1 -86 66 -139t156 -53q148 0 263 135l158 -136q-84 -107 -208.5 -169t-259.5 -62zM437 575h460q5 83 -47 136q-53 53 -142 53q-91 0 -168 -52t-103 -137z" />
    <glyph glyph-name="uni1ECA" unicode="&#x1eca;" horiz-adv-x="609" 
d="M679 1358l-239 -1358h-270l239 1358h270zM228 -430q-62 0 -97 42t-24 104q11 63 60.5 105.5t112.5 42.5q64 0 100 -43q34 -43 24 -105q-10 -63 -61 -104.5t-115 -41.5z" />
    <glyph glyph-name="uni1ECB" unicode="&#x1ecb;" horiz-adv-x="548" 
d="M650 1293q-10 -64 -59.5 -105.5t-114.5 -41.5t-98 41q-34 40 -23 106q11 65 59.5 106.5t113.5 41.5q66 0 100 -41t22 -107zM572 960l-169 -960h-257l169 960h257zM197 -430q-63 0 -97 42q-35 42 -24 104q11 63 60.5 105.5t112.5 42.5q64 0 100 -43q35 -43 24 -105
q-10 -63 -61 -104.5t-115 -41.5z" />
    <glyph glyph-name="uni1ECC" unicode="&#x1ecc;" horiz-adv-x="1586" 
d="M789 -20q-192 0 -342.5 83.5t-217.5 251.5q-63 158 -28 361q37 202 155 362t296 250t384 90q151 0 274.5 -52t202.5 -145q78 -94 108 -224.5t3 -280.5q-34 -201 -153 -360t-298 -247.5t-384 -88.5zM479 677q-34 -198 66 -322t290 -124q196 0 337.5 125.5t174.5 320.5
q35 199 -64 324t-290 125q-194 0 -337 -127.5t-177 -321.5zM716 -430q-62 0 -97 42t-24 104q11 63 60.5 105.5t112.5 42.5q64 0 100 -43q34 -43 24 -105q-10 -63 -61 -104.5t-115 -41.5z" />
    <glyph glyph-name="uni1ECD" unicode="&#x1ecd;" horiz-adv-x="1245" 
d="M619 -20q-142 -2 -249.5 64.5t-154.5 182.5t-20 253q38 215 209.5 357.5t391.5 142.5t341 -143.5t84 -356.5q-25 -143 -112.5 -257.5t-216 -178.5t-273.5 -64zM450 480q-21 -116 39 -192q58 -76 171 -76q115 0 200 76.5t106 191.5q19 115 -39 191t-172 76t-200 -77
t-105 -190zM546 -430q-62 0 -97 42t-24 104q11 63 60.5 105.5t112.5 42.5q64 0 100 -43q34 -43 24 -105q-10 -63 -61 -104.5t-115 -41.5z" />
    <glyph glyph-name="uni1EE4" unicode="&#x1ee4;" horiz-adv-x="1471" 
d="M1408 516q-45 -249 -231.5 -392.5t-444.5 -143.5q-261 0 -395 146t-91 390l148 842h269l-147 -836q-24 -136 49 -218t210 -82q138 0 239.5 82.5t125.5 217.5l147 836h269zM659 -430q-63 0 -97 42q-35 42 -24 104q11 63 60.5 105.5t112.5 42.5q64 0 100 -43
q35 -43 24 -105q-10 -63 -61 -104.5t-115 -41.5z" />
    <glyph glyph-name="uni1EE5" unicode="&#x1ee5;" horiz-adv-x="1203" 
d="M507 -25q-168 0 -255 103q-87 102 -57 273l107 609h256l-95 -543q-17 -95 28 -149.5t134 -54.5q95 0 165 55.5t86 148.5l95 543h256l-169 -960h-244l14 106q-53 -59 -138 -95t-183 -36zM514 -430q-63 0 -98 42t-24 104q11 63 60.5 105.5t113.5 42.5q65 0 99 -43
q35 -43 24 -105q-10 -63 -61 -104.5t-114 -41.5z" />
    <glyph glyph-name="Ygrave" unicode="&#x1ef2;" horiz-adv-x="1337" 
d="M818 1473l-174 334h292l98 -334h-216zM536 0l90 513l-378 845h322l241 -571l445 571h312l-673 -845l-90 -513h-269z" />
    <glyph glyph-name="ygrave" unicode="&#x1ef3;" horiz-adv-x="1103" 
d="M653 1121l-174 334h292l98 -334h-216zM158 -420q-98 0 -176 42l69 206q53 -25 116 -25q78 0 143 51.5t105 144.5l-228 961h284l128 -699l371 699h285l-645 -1091q-88 -147 -196.5 -218t-255.5 -71z" />
    <glyph glyph-name="uni1EF8" unicode="&#x1ef8;" horiz-adv-x="1337" 
d="M688 1506l-93 96q137 183 270 183q43 2 124 -44.5t108 -44.5q36 0 67 19t71 65l87 -99q-68 -93 -134 -135.5t-141 -42.5q-50 0 -111 37t-85 42q-32 8 -55 3q-41 -8 -108 -79zM536 0l90 513l-378 845h322l241 -571l445 571h312l-673 -845l-90 -513h-269z" />
    <glyph glyph-name="uni1EF9" unicode="&#x1ef9;" horiz-adv-x="1103" 
d="M490 1146l-92 96q136 183 269 183q34 1 80 -22t87.5 -46t65.5 -21q36 0 67 19t70 65l88 -99q-68 -93 -134 -135.5t-141 -42.5q-50 0 -111 37t-86 42q-31 8 -54 3q-41 -6 -109 -79zM158 -420q-98 0 -176 42l69 206q53 -25 116 -25q78 0 143 51.5t105 144.5l-228 961h284
l128 -699l371 699h285l-645 -1091q-88 -147 -196.5 -218t-255.5 -71z" />
    <glyph glyph-name="uni2000" unicode="&#x2000;" horiz-adv-x="1148" 
 />
    <glyph glyph-name="uni2001" unicode="&#x2001;" horiz-adv-x="2296" 
 />
    <glyph glyph-name="uni2002" unicode="&#x2002;" horiz-adv-x="1148" 
 />
    <glyph glyph-name="uni2003" unicode="&#x2003;" horiz-adv-x="2296" 
 />
    <glyph glyph-name="uni2004" unicode="&#x2004;" horiz-adv-x="765" 
 />
    <glyph glyph-name="uni2005" unicode="&#x2005;" horiz-adv-x="574" 
 />
    <glyph glyph-name="uni2006" unicode="&#x2006;" horiz-adv-x="382" 
 />
    <glyph glyph-name="uni2007" unicode="&#x2007;" horiz-adv-x="382" 
 />
    <glyph glyph-name="uni2008" unicode="&#x2008;" horiz-adv-x="287" 
 />
    <glyph glyph-name="uni2009" unicode="&#x2009;" horiz-adv-x="459" 
 />
    <glyph glyph-name="uni200A" unicode="&#x200a;" horiz-adv-x="127" 
 />
    <glyph glyph-name="uni2010" unicode="&#x2010;" horiz-adv-x="931" 
d="M238 667h692l-38 -214h-692z" />
    <glyph glyph-name="uni2011" unicode="&#x2011;" horiz-adv-x="931" 
d="M238 667h692l-38 -214h-692z" />
    <glyph glyph-name="figuredash" unicode="&#x2012;" horiz-adv-x="931" 
d="M238 667h692l-38 -214h-692z" />
    <glyph glyph-name="endash" unicode="&#x2013;" horiz-adv-x="1244" 
d="M238 667h1005l-38 -214h-1005z" />
    <glyph glyph-name="emdash" unicode="&#x2014;" horiz-adv-x="2277" 
d="M238 667h2038l-38 -214h-2038z" />
    <glyph glyph-name="quoteleft" unicode="&#x2018;" horiz-adv-x="530" 
d="M731 1428l-228 -516h-272l294 516h206z" />
    <glyph glyph-name="quoteright" unicode="&#x2019;" horiz-adv-x="522" 
d="M239 912l228 516h272l-294 -516h-206z" />
    <glyph glyph-name="quotesinglbase" unicode="&#x201a;" horiz-adv-x="516" 
d="M-41 -283l228 516h272l-279 -516h-221z" />
    <glyph glyph-name="quotedblleft" unicode="&#x201c;" horiz-adv-x="958" 
d="M1159 1428l-228 -516h-272l294 516h206zM731 1428l-228 -516h-272l294 516h206z" />
    <glyph glyph-name="quotedblright" unicode="&#x201d;" horiz-adv-x="944" 
d="M867 912h-206l228 516h272zM445 912h-206l228 516h272z" />
    <glyph glyph-name="quotedblbase" unicode="&#x201e;" horiz-adv-x="944" 
d="M587 -287h-206l228 516h272zM458 229l-294 -516h-206l228 516h272z" />
    <glyph glyph-name="dagger" unicode="&#x2020;" horiz-adv-x="785" 
d="M496 1160h-229l31 179h229l47 268h203l-47 -268h231l-31 -179h-231l-116 -653h-203z" />
    <glyph glyph-name="daggerdbl" unicode="&#x2021;" horiz-adv-x="856" 
d="M410 477l40 226h-229l32 180h229l61 348h-229l32 180h229l40 227h203l-40 -227h231l-32 -180h-231l-61 -348h231l-32 -180h-231l-40 -226h-203z" />
    <glyph glyph-name="bullet" unicode="&#x2022;" horiz-adv-x="721" 
d="M437 431q-102 0 -159 70q-58 68 -41 170q18 102 100 171.5t185 69.5t161 -70q57 -70 39 -171q-16 -102 -99 -171t-186 -69z" />
    <glyph glyph-name="ellipsis" unicode="&#x2026;" horiz-adv-x="1419" 
d="M879 126q-10 -61 -61.5 -103.5t-113.5 -42.5q-63 0 -97 43q-36 41 -25 103t61.5 105t112.5 43q63 0 99 -43q35 -43 24 -105zM1352 126q-10 -62 -61.5 -104t-114.5 -42t-97 43t-24 103q11 61 61 104.5t112 43.5q63 0 99 -43t25 -105zM409 126q-10 -62 -61.5 -104
t-114.5 -42t-97 43t-24 103q11 61 61 104.5t112 43.5q63 0 99 -43t25 -105z" />
    <glyph glyph-name="uni202F" unicode="&#x202f;" horiz-adv-x="459" 
 />
    <glyph glyph-name="perthousand" unicode="&#x2030;" horiz-adv-x="2677" 
d="M994 1000q-28 -162 -156 -268.5t-293 -106.5q-164 0 -254 108q-90 107 -62 267q29 162 156.5 270t292.5 108t255 -108t61 -270zM1589 1334l-967 -1334h-157l5 26l968 1332h155zM428 1000q-14 -79 29 -131q44 -53 122 -53q80 0 140 52.5t74 131.5q14 80 -28 133
q-42 54 -121 54t-140.5 -54t-75.5 -133zM1378 -20q-164 0 -254 108q-90 106 -61 267q29 162 156.5 270t291.5 108q165 0 256 -108q91 -107 62 -270q-19 -106 -84.5 -192t-162 -134.5t-204.5 -48.5zM2234 -20q-164 0 -254 108q-90 106 -61 267q29 162 156.5 270t291.5 108
q165 0 256 -108q91 -107 62 -270q-19 -106 -84.5 -192t-162 -134.5t-204.5 -48.5zM2119 355q-14 -79 29 -131q42 -53 120 -53q79 0 140 53t75 131q14 80 -28 134q-42 53 -121 53t-140.5 -54.5t-74.5 -132.5zM1263 355q-14 -79 29 -131q42 -53 120 -53q79 0 140 53t75 131
q14 80 -28 134q-42 53 -121 53t-140.5 -54.5t-74.5 -132.5z" />
    <glyph glyph-name="guilsinglleft" unicode="&#x2039;" horiz-adv-x="678" 
d="M425 480l184 -394h-235l-202 394l341 395h235z" />
    <glyph glyph-name="guilsinglright" unicode="&#x203a;" horiz-adv-x="678" 
d="M676 479l-341 -394h-235l323 394l-184 395h235z" />
    <glyph glyph-name="fraction" unicode="&#x2044;" horiz-adv-x="357" 
d="M-106 0h-157l5 26l968 1332h155l-4 -24z" />
    <glyph glyph-name="uni205F" unicode="&#x205f;" horiz-adv-x="574" 
 />
    <glyph glyph-name="uni2070" unicode="&#x2070;" horiz-adv-x="844" 
d="M955 947q-16 -90 -49 -166t-84.5 -137t-127 -95.5t-166.5 -34.5q-80 0 -147.5 32t-99.5 98q-65 131 -29 303q16 89 49 164t84.5 136.5t127 96t167.5 34.5q74 0 130 -23.5t88 -64.5t50.5 -96t17.5 -117.5t-11 -129.5zM435 947q-19 -115 9 -192q29 -77 113 -77
q48 0 87.5 25.5t64.5 67.5t40.5 85.5t23.5 90.5q10 72 6 131t-37 97.5t-91 38.5q-48 0 -87 -25.5t-64.5 -67t-41 -85t-23.5 -89.5z" />
    <glyph glyph-name="uni2074" unicode="&#x2074;" horiz-adv-x="757" 
d="M555 717h-390l25 139l475 502h176l-84 -481h108l-29 -160h-108l-32 -183h-173zM584 877l39 226l-209 -226h170z" />
    <glyph glyph-name="uni2075" unicode="&#x2075;" horiz-adv-x="743" 
d="M455 514q-110 0 -184 55t-96 154l159 89q12 -61 52 -96.5t92 -35.5q57 0 97.5 32t50.5 87q10 54 -23.5 89.5t-92.5 35.5q-76 0 -135 -51l-122 41l119 444h499l-28 -163h-332l-38 -141q43 22 99 22q132 0 203 -77q69 -78 47 -202q-23 -129 -128 -206t-239 -77z" />
    <glyph glyph-name="uni2076" unicode="&#x2076;" horiz-adv-x="788" 
d="M497 514q-73 0 -128 21.5t-85 58.5t-47.5 86.5t-16 105t9.5 114.5q18 102 55.5 186.5t96 151t142 103.5t185.5 37q141 0 227 -72l-92 -159q-68 56 -174 56q-78 0 -140 -52t-81 -129q29 32 78 51.5t100 19.5q127 0 195 -77q67 -77 46 -199q-26 -141 -133 -222
q-109 -81 -238 -81zM415 807q-10 -57 21 -94.5t89 -37.5t103.5 37.5t56.5 97.5q10 57 -22.5 95t-90.5 38t-102 -38.5t-55 -97.5z" />
    <glyph glyph-name="uni2077" unicode="&#x2077;" horiz-adv-x="662" 
d="M405 534h-192q169 324 446 661h-381l28 163h583l-23 -134q-263 -318 -461 -690z" />
    <glyph glyph-name="uni2078" unicode="&#x2078;" horiz-adv-x="795" 
d="M499 514q-136 -3 -220 66t-64 187q12 65 54 117.5t105 82.5q-43 27 -61.5 75t-8.5 104q19 107 121.5 171t225.5 61q122 0 204 -62q80 -62 61 -170q-10 -55 -45 -103t-85 -76q51 -30 73.5 -82.5t10.5 -117.5q-15 -84 -74 -143t-135.5 -84.5t-161.5 -25.5zM487 1131
q-8 -44 21 -71.5t84 -27.5q53 0 91 27.5t45 71.5q8 43 -20 70t-81 27q-54 0 -93 -27t-47 -70zM567 892q-61 0 -104 -28.5t-54 -85.5q-10 -56 25 -85t93 -29q61 0 105 29.5t53 84.5t-23.5 84.5t-94.5 29.5z" />
    <glyph glyph-name="uni2079" unicode="&#x2079;" horiz-adv-x="787" 
d="M190 586l92 159q68 -56 174 -56q77 0 139.5 52.5t81.5 128.5q-29 -32 -78 -51.5t-99 -19.5q-128 0 -195 78q-68 77 -46 198q26 142 134 222q108 81 237 81q73 0 128 -21.5t85 -58.5t47.5 -86.5t16 -105t-9.5 -114.5q-18 -102 -56 -186.5t-96 -151t-142 -103.5t-185 -37
q-141 0 -228 72zM442 1082q-10 -57 22 -95t90 -38t102.5 38.5t54.5 97.5q11 57 -20 94.5t-89 37.5q-61 0 -105 -37.5t-55 -97.5z" />
    <glyph glyph-name="uni2080" unicode="&#x2080;" horiz-adv-x="844" 
d="M419 -20q-73 0 -128.5 23t-88 63t-51.5 95t-18.5 118.5t11.5 133.5q16 89 49 164t84.5 136.5t127 96t167.5 34.5q74 0 130 -23.5t88 -64.5t50.5 -96t17.5 -117.5t-11 -129.5q-16 -89 -49.5 -165.5t-85.5 -137.5t-127 -95.5t-166 -34.5zM327 413q-21 -115 7.5 -192
t113.5 -77q56 0 103 38.5t75 99.5q26 59 39 131q10 72 6 131t-37 97.5t-91 38.5q-48 0 -87 -25.5t-64.5 -67t-41 -85t-23.5 -89.5z" />
    <glyph glyph-name="uni2081" unicode="&#x2081;" horiz-adv-x="498" 
d="M382 0h-183l117 664h-170l28 160h353z" />
    <glyph glyph-name="uni2082" unicode="&#x2082;" horiz-adv-x="734" 
d="M694 163l-29 -163h-592l18 102q12 62 49 106q49 56 87 85q34 25 104 73q16 11 33 22l17 11q3 2 31.5 20.5t33.5 22.5q15 10 27 19q86 57 96 118q8 45 -17.5 71.5t-76.5 26.5q-48 0 -94 -32t-77 -88l-134 75q48 91 140 151.5t193 60.5q130 0 206 -71q74 -72 53 -190
q-22 -122 -154 -216q-64 -45 -112 -74q-45 -28 -53 -33t-43.5 -26.5t-42.5 -25.5q-41 -26 -53 -45h390z" />
    <glyph glyph-name="uni2083" unicode="&#x2083;" horiz-adv-x="745" 
d="M90 184l159 85q13 -56 54.5 -91t94.5 -35q50 0 84.5 26t42.5 67q9 50 -22 81t-88 31h-127l25 141h127q50 0 86 29t44 76q7 39 -18.5 63t-72.5 24q-55 0 -101.5 -32t-78.5 -87l-126 85q54 91 142.5 144t192.5 53q125 0 199 -65q74 -66 53 -183q-9 -54 -45.5 -102.5
t-84.5 -72.5q47 -24 71.5 -76t13.5 -111q-21 -117 -119.5 -185.5t-222.5 -68.5q-109 0 -184.5 54t-98.5 150z" />
    <glyph glyph-name="uni2084" unicode="&#x2084;" horiz-adv-x="759" 
d="M461 183h-390l25 139l475 502h176l-85 -481h108l-28 -160h-108l-32 -183h-173zM489 343l40 226l-210 -226h170z" />
    <glyph glyph-name="uni2085" unicode="&#x2085;" horiz-adv-x="743" 
d="M360 -20q-109 0 -183 55t-96 154l159 89q12 -61 52 -96.5t92 -35.5q57 0 97.5 32t50.5 87q9 54 -24 89.5t-92 35.5q-76 0 -135 -51l-122 41l119 444h499l-28 -163h-332l-38 -141q43 22 99 22q133 0 202 -77q69 -78 47 -202q-23 -129 -128 -206t-239 -77z" />
    <glyph glyph-name="uni2086" unicode="&#x2086;" horiz-adv-x="789" 
d="M403 -20q-73 0 -128 21.5t-85 58.5t-47 86.5t-15.5 105t9.5 114.5q18 102 55.5 186.5t96 151t142 103.5t185.5 37q142 0 227 -72l-92 -159q-68 56 -174 56q-78 0 -140 -52t-81 -129q28 31 78 51t100 20q127 0 195 -77q67 -77 46 -199q-26 -142 -134 -222
q-109 -81 -238 -81zM322 273q-10 -57 21 -94.5t89 -37.5t103.5 37.5t56.5 97.5q10 57 -22.5 95t-90.5 38t-102 -38.5t-55 -97.5z" />
    <glyph glyph-name="uni2087" unicode="&#x2087;" horiz-adv-x="663" 
d="M291 0h-192q169 324 446 661h-381l28 163h583l-23 -134q-270 -327 -461 -690z" />
    <glyph glyph-name="uni2088" unicode="&#x2088;" horiz-adv-x="796" 
d="M395 -20q-136 -3 -220 66t-63 187q12 66 53.5 118.5t104.5 81.5q-42 27 -60.5 75t-8.5 104q19 107 121.5 171t225.5 61q122 0 204 -62q80 -62 61 -170q-10 -55 -45.5 -103t-85.5 -76q51 -30 74 -82.5t11 -117.5q-15 -84 -74 -143t-135.5 -84.5t-162.5 -25.5zM384 597
q-8 -44 21 -71.5t84 -27.5q53 0 91 27.5t45 71.5q8 43 -20.5 70t-81.5 27q-54 0 -92.5 -27t-46.5 -70zM464 358q-61 0 -104 -28.5t-54 -85.5q-10 -56 25 -85t93 -29q61 0 105 29.5t53 84.5t-23.5 84.5t-94.5 29.5z" />
    <glyph glyph-name="uni2089" unicode="&#x2089;" horiz-adv-x="789" 
d="M329 -20q-145 0 -230 72l92 159q1 0 1 -1l2 -1l1 -1l1 3q70 -55 171 -56q76 1 136.5 50t80.5 123q-30 -29 -78 -46t-97 -17q-127 0 -195 78q-68 77 -47 198q24 137 130.5 220t246.5 83q73 0 128 -21.5t85 -58.5t47 -86.5t15.5 -105t-9.5 -114.5q-17 -100 -54.5 -184
t-95.5 -151t-143 -105t-188 -38zM355 548q-10 -56 21.5 -94t89.5 -39q57 1 100 39.5t54 96.5q11 56 -19.5 93.5t-87.5 38.5q-58 -1 -102.5 -38.5t-55.5 -96.5z" />
    <glyph glyph-name="Euro" unicode="&#x20ac;" horiz-adv-x="1462" 
d="M331 497h-153l23 130h138q6 50 19 107h-139l23 130h154q86 235 267.5 374.5t424.5 139.5q178 0 307.5 -84.5t166.5 -250.5l-240 -124q-32 104 -104.5 160t-172.5 56q-113 0 -208.5 -72t-153.5 -199h421l-23 -130h-443q-15 -70 -19 -107h444l-23 -130h-423
q12 -129 82.5 -201t184.5 -72q108 0 204 58t163 160l187 -127q-90 -158 -251 -246.5t-346 -88.5q-240 0 -374 138.5t-136 378.5z" />
    <glyph glyph-name="trademark" unicode="&#x2122;" horiz-adv-x="1374" 
d="M845 818h-85l104 590h99l134 -433l285 433h99l-104 -590h-85l76 431l-261 -389h-61l-125 388zM395 818l90 510h-197l14 80h479l-14 -80h-197l-90 -510h-85z" />
    <glyph glyph-name="estimated" unicode="&#x212e;" horiz-adv-x="1712" 
d="M879 -20q-216 0 -394 93q-176 92 -279 251t-103 353q0 122 42 232.5t116 195t171.5 146.5t212.5 94.5t234 32.5q151 0 295.5 -54.5t253.5 -154.5q106 -98 166 -229t60 -272v-23h-1257q-11 0 -11 -9v-359q0 -24 17 -47q185 -177 478 -177q150 0 279.5 51.5t219.5 147.5
h113q-111 -132 -273.5 -202t-340.5 -70zM386 1077v-351q0 -13 11 -13h966q6 0 6 13v358q0 23 -17 46q-86 84 -209.5 129.5t-261.5 45.5q-294 0 -475 -175q-20 -25 -20 -53z" />
    <glyph glyph-name="onethird" unicode="&#x2153;" horiz-adv-x="1718" 
d="M1393 1334l-967 -1334h-157l5 26l968 1332h155zM344 530l118 664h-170l28 160h353l-146 -824h-183zM1012 184l159 85q13 -56 54.5 -91t94.5 -35q50 0 84.5 26t42.5 67q9 50 -22 81t-88 31h-127l25 141h127q50 0 86 29t44 76q7 39 -18.5 63t-72.5 24q-55 0 -101.5 -32
t-78.5 -87l-126 85q54 91 142.5 144t192.5 53q125 0 199 -65q74 -66 53 -183q-9 -54 -45.5 -102.5t-84.5 -72.5q47 -24 71.5 -76t13.5 -111q-21 -117 -119.5 -185.5t-222.5 -68.5q-109 0 -184.5 54t-98.5 150z" />
    <glyph glyph-name="twothirds" unicode="&#x2154;" horiz-adv-x="1892" 
d="M774 540h-592l18 102q12 62 49 106q6 6 13.5 15t13.5 15.5t10 11.5q18 19 51 43q35 25 48 36q27 18 56 37l24 16l18 12t8 5q7 5 37 25q17 11 35 23q75 50 96 84q16 29 19 48q8 45 -17 71.5t-76 26.5q-48 0 -95 -32t-77 -88l-133 75q49 92 140.5 152t191.5 60
q130 0 206 -71q74 -72 53 -190q-22 -122 -154 -216q-64 -45 -112 -74q-45 -28 -53 -33q-6 -4 -40.5 -25t-44.5 -27q-41 -25 -54 -45h390zM673 0h-157l5 26l968 1332h155l-4 -24zM1219 184l159 85q13 -56 54.5 -91t94.5 -35q50 0 84.5 26t42.5 67q9 50 -22 81t-88 31h-127
l25 141h127q50 0 86 29t44 76q7 39 -18.5 63t-72.5 24q-55 0 -101.5 -32t-78.5 -87l-126 85q54 91 142.5 144t192.5 53q125 0 199 -65q74 -66 53 -183q-9 -54 -45.5 -102.5t-84.5 -72.5q47 -24 71.5 -76t13.5 -111q-21 -117 -119.5 -185.5t-222.5 -68.5q-109 0 -184.5 54
t-98.5 150z" />
    <glyph glyph-name="minus" unicode="&#x2212;" horiz-adv-x="1168" 
d="M1203 801l-42 -240h-955l42 240h955z" />
    <glyph glyph-name="uni2215" unicode="&#x2215;" horiz-adv-x="828" 
d="M130 0h-157l5 26l968 1332h155l-4 -24z" />
    <glyph glyph-name="uni2219" unicode="&#x2219;" horiz-adv-x="546" 
d="M508 489q-10 -62 -61 -104.5t-114 -42.5q-64 0 -98 43q-35 42 -24 104t60.5 104.5t113.5 42.5q63 0 99 -42q34 -44 24 -105z" />
    <glyph glyph-name="approxequal" unicode="&#x2248;" horiz-adv-x="1315" 
d="M364 735l-97 184q215 175 380 175q22 0 42.5 -2.5t35.5 -4.5t34 -9t28 -10t26.5 -12.5t22.5 -12t23 -14t20 -12.5q68 -42 154 -42q65 0 118 22t120 67l96 -180q-215 -174 -379 -174q-24 0 -45 2t-41.5 8t-33 9.5t-32 13.5t-25.5 13.5t-26 16t-23 14.5q-69 42 -160 42
q-105 0 -238 -94zM284 281l-97 184q215 175 380 175q24 0 46 -2t43 -8t34 -9.5t33 -14.5t25.5 -13.5t27 -15.5t22.5 -14q68 -42 155 -42q66 0 119 22t118 67l97 -180q-215 -174 -380 -174q-24 0 -45 2t-41.5 8t-33 9.5t-32 13.5t-25.5 13.5t-26 16t-23 14.5q-69 42 -159 42
q-105 0 -238 -94z" />
    <glyph glyph-name="notequal" unicode="&#x2260;" horiz-adv-x="1316" 
d="M459 318h-279l43 244h388l146 234h-493l43 243h603l230 367l150 -59l-195 -308h281l-43 -243h-391l-147 -234h497l-43 -244h-607l-232 -368l-142 64z" />
    <glyph glyph-name="lessequal" unicode="&#x2264;" horiz-adv-x="1347" 
d="M567 712h759l-43 -242h-1076l59 335l1149 502l-49 -282zM164 275h1085l-41 -238h-1085z" />
    <glyph glyph-name="greaterequal" unicode="&#x2265;" horiz-adv-x="1350" 
d="M235 470l43 242h759l-690 313l49 282l973 -502l-59 -335h-1075zM155 37l41 238h1085l-41 -238h-1085z" />
    <glyph glyph-name="uni25FC" unicode="&#x25fc;" horiz-adv-x="960" 
d="M0 0v960h960v-960h-960z" />
    <glyph glyph-name="foundryicon" horiz-adv-x="2342" 
d="M324 951h-103v71h295v-71h-112v-302h-80v302zM1099 951v71h283v-71h-101v-302h-81v302h-101zM1695 655v-102h-81v349h66l8 -24l7 7q22 22 60 22q48 0 75.5 -35t27.5 -94q0 -60 -33 -96.5t-88 -36.5q-25 0 -42 10zM697 655v-102h-82v349h65l9 -24l8 7q19 22 58 22
q48 0 75.5 -34.5t27.5 -94.5t-32.5 -96.5t-88.5 -36.5q-24 0 -40 10zM895 773q0 61 34 97.5t94 36.5t94 -34.5t34 -94.5q0 -61 -35 -97t-96 -36q-57 0 -91 35t-34 93zM2021 645q-59 0 -93.5 35t-34.5 93q0 61 34.5 97.5t93.5 36.5q47 0 74 -26t27 -69q0 -31 -8 -52h-139
q4 -49 55 -49q37 0 69 13l17 -58q-39 -21 -95 -21zM1407 665l-89 237h89l51 -173h3l41 173h88l-80 -257q-19 -54 -48.5 -78t-77.5 -24q-33 0 -60 13l9 59q30 -6 46 -6q31 0 37 29zM551 649h-81v253h81v-253zM1022 849q-45 0 -45 -71q0 -75 46 -75q45 0 45 72q0 74 -46 74z
M1975 803h70q4 21 -4 33.5t-26 12.5q-36 0 -40 -46zM1728 844q-20 0 -33 -12v-117q17 -9 33 -9q21 0 33.5 19t12.5 50q0 69 -46 69zM697 832v-117q9 -9 30 -9q48 0 48 69t-46 69q-20 0 -32 -12zM1885 314q-23 0 -38.5 17t-15.5 45q-2 27 15.5 44.5t41.5 17.5q23 0 37 -17
q25 -27 11 -69t-51 -38zM1173 314q-24 0 -39 17t-15 45q0 27 15.5 44.5t39.5 17.5q23 0 38.5 -17.5t15.5 -44.5t-15 -44.5t-40 -17.5zM1776 314q-28 0 -44.5 17t-16.5 45q0 27 16 44.5t42 17.5q16 0 27 -7l-1 -24h-6l-1 21q-12 3 -19 3q-22 0 -35 -14t-13 -40q0 -56 53 -56
q13 0 22 4l3 -6q-13 -5 -27 -5zM971 436v-120h-9v120h9zM304 316h-10l-39 120h9l35 -110l35 105h9l35 -105l35 110h10l-40 -120h-10l-34 104zM1027 316h-9v120h34q39 0 39 -35q0 -16 -11 -25.5t-29 -9.5h-24v-50zM1487 366v-50h-9v120h34q39 0 39 -35t-41 -35h-23zM485 316
l-39 120h9l35 -110l35 105h9l36 -105l34 110h10l-40 -120h-9l-35 104l-35 -104h-10zM1988 316h-8v120h14l45 -93l45 93h14v-120h-9v111l-46 -94h-8l-47 94v-111zM686 316h-10l-39 120h9l35 -110l35 105h9l36 -105l35 110h9l-40 -120h-9l-35 104zM1394 316v47l-42 73h10
l37 -66l37 66h9l-42 -73v-47h-9zM1654 316h-67v120h65v-6h-57v-50h55v-7h-55v-51h59v-6zM1287 316v114h-37v6h83v-6h-37v-114h-9zM845 430v6h84v-6h-38v-114h-8v114h-38zM1854 417q-21 -23 -9.5 -61.5t41.5 -34.5q19 0 31.5 14.5t12.5 38.5q0 26 -12.5 41.5t-32.5 15.5
q-19 0 -31 -14zM1173 431q-19 0 -31.5 -15t-12.5 -39q0 -25 12.5 -40.5t32.5 -15.5q19 0 31.5 14.5t12.5 38.5q0 26 -12.5 41.5t-32.5 15.5zM1051 430h-24v-58h25q30 0 30 28q0 30 -31 30zM1487 430v-58h25q30 0 30 28q0 30 -32 30h-23zM1687 314q-7 0 -7 7t7 7t7 -7t-7 -7z
M829 314q-7 0 -7 7t7 7t7 -7t-7 -7z" />
    <glyph glyph-name="IJacute" horiz-adv-x="1641" 
d="M2014 1807l-292 -334h-216l216 334h292zM677 1473h-216l216 334h292zM606 214l200 174q86 -158 241 -158q99 0 166.5 72t90.5 203l150 853h270l-152 -867q-42 -234 -191.5 -372.5t-382.5 -138.5q-137 0 -237 59.5t-155 174.5zM440 0h-270l239 1358h270z" />
    <glyph glyph-name="i.TRK" horiz-adv-x="548" 
d="M650 1293q-10 -64 -59.5 -105.5t-114.5 -41.5t-98 41q-34 40 -23 106q11 65 59.5 106.5t113.5 41.5q66 0 100 -41t22 -107zM572 960l-169 -960h-257l169 960h257z" />
    <glyph glyph-name="ijacute" horiz-adv-x="1063" 
d="M1106 1113h-216l216 334h292zM877 1447l-292 -334h-216l216 334h292zM580 960l-169 -960h-257l169 960h257zM309 -384l61 206q62 -20 117 -20q139 0 168 165l175 992h257l-178 -1009q-30 -170 -139.5 -270t-279.5 -100q-116 0 -181 36z" />
    <glyph glyph-name="zero.slash" horiz-adv-x="1315" 
d="M1197 1289l188 219l126 -100l-209 -244q101 -188 47 -490q-24 -141 -79.5 -263.5t-140 -220t-207.5 -154t-269 -56.5q-181 0 -293 85l-183 -214l-127 100l203 237q-102 185 -49 486q20 113 58 214.5t98.5 192t137.5 156t180.5 103.5t221.5 38q182 0 297 -89zM472 443
l541 631q-59 62 -156 62q-77 0 -142.5 -38t-110.5 -104t-76 -145t-47 -170q-24 -133 -9 -236zM1082 908l-538 -629q57 -57 152 -57q77 0 142 37t111 102t77.5 145t47.5 173q22 125 8 229z" />
    <glyph glyph-name="Q.alt" horiz-adv-x="1586" 
d="M789 -20q-192 0 -342.5 83.5t-217.5 251.5q-63 158 -28 361q37 202 155 362t296 250t384 90q151 0 274.5 -52t202.5 -145q78 -94 108 -224.5t3 -280.5q-34 -198 -152.5 -357.5t-298.5 -249.5l247 -264l-219 -189l-339 367q-36 -3 -73 -3zM479 677q-34 -198 66 -322
t290 -124q196 0 337.5 125.5t174.5 320.5q35 199 -64 324t-290 125q-194 0 -337 -127.5t-177 -321.5z" />
    <glyph glyph-name="y.alt" horiz-adv-x="1123" 
d="M1276 960l-832 -1360h-258l241 422l-239 938h287l134 -679l382 679h285z" />
    <glyph glyph-name="yacute.alt" horiz-adv-x="1123" 
d="M857 1113h-216l216 334h292zM444 -400h-258l241 422l-239 938h287l134 -679l382 679h285z" />
    <glyph glyph-name="ycircumflex.alt" horiz-adv-x="1123" 
d="M618 1085h-226l353 370h135l221 -370h-227l-96 178zM444 -400h-258l241 422l-239 938h287l134 -679l382 679h285z" />
    <glyph glyph-name="ydieresis.alt" horiz-adv-x="1123" 
d="M1096 1295q-10 -61 -55 -98.5t-107 -37.5q-60 0 -92 38q-31 37 -21 98q11 61 56 99t106 38t92.5 -38t20.5 -99zM568 1159q-60 0 -91 37.5t-21 98.5q11 61 56 99t105 38q61 0 92.5 -38t20.5 -99q-10 -60 -55.5 -98t-106.5 -38zM1276 960l-832 -1360h-258l241 422l-239 938
h287l134 -679l382 679h285z" />
    <glyph glyph-name="ygrave.alt" horiz-adv-x="1123" 
d="M662 1121l-174 334h292l98 -334h-216zM444 -400h-258l241 422l-239 938h287l134 -679l382 679h285z" />
    <glyph glyph-name="ymacron.alt" horiz-adv-x="1123" 
d="M1075 1324l-30 -174h-591l30 174h591zM444 -400h-258l241 422l-239 938h287l134 -679l382 679h285z" />
    <glyph glyph-name="ytilde.alt" horiz-adv-x="1123" 
d="M516 1146l-92 96q136 183 269 183q34 1 80 -22t87.5 -46t65.5 -21q36 0 67 19t70 65l88 -99q-68 -93 -134 -135.5t-141 -42.5q-50 0 -111 37t-86 42q-31 8 -54 3q-41 -6 -109 -79zM1276 960l-832 -1360h-258l241 422l-239 938h287l134 -679l382 679h285z" />
    <glyph glyph-name="zero.slash.tnum" 
d="M1234 1291l186 217l126 -100l-207 -241q102 -190 49 -493q-24 -141 -79.5 -263.5t-140 -220t-207.5 -154t-269 -56.5q-179 0 -295 86l-185 -215l-127 100l206 240q-101 185 -48 483q20 113 58 214.5t98.5 192t137.5 156t180.5 103.5t221.5 38q179 0 295 -87zM510 447
l540 629q-58 60 -154 60q-77 0 -142.5 -38t-110.5 -104t-76 -145t-47 -170q-23 -132 -10 -232zM1121 912l-540 -631q57 -59 154 -59q77 0 142 37t111 102t77.5 145t47.5 173q22 127 8 233z" />
    <glyph glyph-name="zero.tnum" 
d="M692 -20q-97 0 -175.5 25.5t-132.5 71.5t-90.5 109.5t-52.5 141.5t-15.5 164.5t17.5 181.5q20 113 58 214.5t98.5 192t137.5 156t180.5 103.5t221.5 38q98 0 177 -26t133 -73.5t90 -112t51.5 -144t15 -166.5t-17.5 -182q-24 -141 -79.5 -263.5t-140 -220t-207.5 -154
t-269 -56.5zM520 679q-19 -90 -14.5 -172.5t26.5 -146t74 -101t129 -37.5t142 37t111 102t77.5 145t47.5 173q13 71 14 136.5t-11.5 124.5t-39 102t-72.5 68.5t-108 25.5q-77 0 -142.5 -38t-110.5 -104t-76 -145t-47 -170z" />
    <glyph glyph-name="one.tnum" 
d="M1215 236l-42 -236h-934l42 236h343l156 885h-309l41 237h579l-197 -1122h321z" />
    <glyph glyph-name="two.tnum" 
d="M1228 236l-42 -236h-942l20 113q11 62 41 120t76 108.5t89.5 88.5t101.5 81q82 59 168 114q151 97 229 169q72 66 86 144q16 90 -31 143.5t-140 53.5q-84 0 -156.5 -53.5t-121.5 -147.5l-208 108q79 147 222 241.5t304 94.5q214 0 329 -123q116 -123 81 -314
q-15 -84 -55 -153.5t-116 -135.5q-88 -75 -125 -101q-71 -51 -189 -125q-218 -140 -249 -190h628z" />
    <glyph glyph-name="three.tnum" 
d="M255 311l239 120q20 -97 83 -152.5t153 -55.5q84 0 153.5 47t83.5 127q15 84 -38.5 134t-156.5 50h-198l38 211h198q87 0 151.5 49t79.5 133q12 71 -33.5 116t-131.5 45q-89 0 -167 -57t-127 -141l-197 119q87 146 228 234t305 88q93 0 172.5 -26t137 -75t83 -125.5
t9.5 -170.5q-17 -91 -84.5 -169.5t-155.5 -117.5q87 -31 133 -118q47 -89 30 -187q-22 -124 -107.5 -219t-201.5 -142.5t-243 -47.5q-165 0 -282.5 86.5t-153.5 244.5z" />
    <glyph glyph-name="four.tnum" 
d="M902 341h-642l37 209l726 808h317l-138 -787h188l-41 -230h-188l-60 -342h-259zM1027 1050l-432 -479h348z" />
    <glyph glyph-name="five.tnum" 
d="M688 -20q-176 0 -287 86.5t-150 249.5l238 113q22 -99 83 -152.5t153 -53.5q99 0 177 59t95 155q16 97 -39 157q-56 60 -165 60q-134 0 -252 -100l-171 83l207 721h791l-42 -238h-572l-84 -299q40 29 102.5 47.5t129.5 18.5q198 0 303 -122q105 -123 70 -324
q-25 -138 -112 -244.5t-211 -161.5t-264 -55z" />
    <glyph glyph-name="six.tnum" 
d="M716 -20q-113 0 -199 33t-136.5 91.5t-79.5 139t-28.5 176t16.5 201.5q23 127 64.5 237.5t107.5 207t151 165t198.5 108t246.5 39.5q199 0 332 -79l-102 -215q-107 65 -251 65q-176 0 -292 -105.5t-156 -281.5q54 67 147 102.5t187 35.5q93 0 171 -26.5t135.5 -78.5
t81.5 -140t3 -200q-38 -219 -204.5 -347t-392.5 -128zM558 448q-18 -105 36 -171q52 -67 160 -67q109 0 188 64.5t99 171.5q19 107 -36.5 170t-167.5 63q-106 0 -183.5 -63.5t-95.5 -167.5z" />
    <glyph glyph-name="seven.tnum" 
d="M634 0h-292q300 603 707 1113h-602l43 245h910l-35 -202q-418 -519 -731 -1156z" />
    <glyph glyph-name="eight.tnum" 
d="M1272 377q-16 -99 -73.5 -177.5t-140 -125t-176 -70.5t-191.5 -24q-205 0 -332 93q-67 47 -96 126t-11 178q21 115 93 202.5t179 133.5q-76 44 -111 121t-17 174q13 74 51 136t91.5 104.5t120 72.5t137 43.5t142.5 13.5q188 0 311 -88q62 -44 89 -117.5t12 -164.5
q-18 -97 -79.5 -174t-151.5 -121q91 -46 132.5 -134t20.5 -202zM667 976q-15 -84 30.5 -134t137.5 -50q93 0 155.5 50t77.5 134q14 79 -32 127.5t-138 48.5t-154.5 -48.5t-76.5 -127.5zM534 404q-17 -95 40 -147q56 -54 157 -54q100 0 176 53t93 148q16 93 -39 148
q-57 54 -159 54q-100 0 -175.5 -53.5t-92.5 -148.5z" />
    <glyph glyph-name="nine.tnum" 
d="M191 59l102 215q107 -65 252 -65q175 0 291 105.5t156 281.5q-53 -66 -146.5 -102t-186.5 -36q-189 0 -306 105q-59 53 -82.5 141.5t-3.5 198.5q40 220 205 347.5t392 127.5q95 0 170.5 -23t126.5 -65.5t85 -100.5t48 -130t13.5 -152t-16.5 -170q-28 -159 -88 -293
t-152.5 -239.5t-228 -165t-299.5 -59.5q-199 0 -332 79zM540 912q-19 -107 36.5 -170t167.5 -63q106 0 183 63.5t95 167.5q19 103 -35 171q-54 67 -161 67q-108 0 -188 -65t-98 -171z" />
    <glyph glyph-name="plus.tnum" 
d="M587 151l72 411h-412l42 240h412l72 404h268l-72 -404h415l-42 -240h-415l-72 -411h-268z" />
    <glyph glyph-name="minus.tnum" 
d="M1314 801l-42 -240h-955l42 240h955z" />
    <glyph glyph-name="plusminus.tnum" 
d="M638 430l61 348h-394l43 240h394l59 339h265l-59 -339h395l-43 -240h-395l-61 -348h-265zM1234 22h-1070l42 237h1070z" />
    <glyph glyph-name="equal.tnum" 
d="M344 1039h1069l-43 -243h-1069zM260 562h1069l-43 -244h-1069z" />
    <glyph glyph-name="notequal.tnum" 
d="M496 318h-279l43 244h388l146 234h-493l43 243h603l230 367l150 -59l-195 -308h281l-43 -243h-391l-147 -234h497l-43 -244h-607l-232 -368l-142 64z" />
    <glyph glyph-name="approxequal.tnum" 
d="M401 735l-97 184q215 175 380 175q22 0 42.5 -2.5t35.5 -4.5t34 -9t28 -10t26.5 -12.5t22.5 -12t23 -14t20 -12.5q68 -42 154 -42q65 0 118 22t120 67l96 -180q-214 -174 -379 -174q-24 0 -45 2t-41.5 8t-33 9.5t-32 13.5t-25.5 13.5t-26 16t-23 14.5q-69 42 -160 42
q-105 0 -238 -94zM321 281l-97 184q215 175 380 175q24 0 46 -2t43 -8t34 -9.5t33 -14.5t25.5 -13.5t27 -15.5t22.5 -14q68 -42 155 -42q66 0 119 22t118 67l97 -180q-214 -174 -380 -174q-24 0 -45 2t-41.5 8t-33 9.5t-32 13.5t-25.5 13.5t-26 16t-23 14.5q-69 42 -159 42
q-105 0 -238 -94z" />
    <glyph glyph-name="multiply.tnum" 
d="M380 157l-148 179l403 343l-282 343l211 179l282 -343l404 343l147 -179l-403 -343l282 -343l-210 -179l-283 343z" />
    <glyph glyph-name="less.tnum" 
d="M637 679l612 -283l-47 -268l-892 431l42 238l1045 437l-48 -268z" />
    <glyph glyph-name="greater.tnum" 
d="M234 128l47 268l712 283l-612 287l48 268l891 -437l-42 -237z" />
    <glyph glyph-name="lessequal.tnum" 
d="M603 712h759l-43 -242h-1075l59 335l1149 502l-49 -282zM201 275h1084l-41 -238h-1084z" />
    <glyph glyph-name="greaterequal.tnum" 
d="M240 470l43 242h759l-690 313l49 282l973 -502l-59 -335h-1075zM160 37l41 238h1085l-41 -238h-1085z" />
    <glyph glyph-name="divide.tnum" 
d="M862 948q-62 0 -97 42t-24 104q11 63 60.5 105.5t112.5 42.5q64 0 100 -43q34 -43 24 -105t-61.5 -104t-114.5 -42zM1341 559h-1093l42 240h1093zM716 119q-62 0 -97 42t-24 104q11 63 60.5 105.5t112.5 42.5t99 -42q36 -43 25 -106q-10 -62 -61.5 -104t-114.5 -42z" />
    <glyph glyph-name="logicalnot.tnum" 
d="M1318 386h-268l63 359h-842l43 240h1110z" />
    <glyph glyph-name="numbersign.tnum" 
d="M334 332h-232l67 190h234q23 67 60 170q45 125 60 170h-234l68 189h231l109 307h215l-106 -307h275l109 307h216l-108 -307h235l-67 -189h-235l-121 -340h235l-69 -190h-232l-120 -333h-217l120 333h-276l-120 -333h-218zM1017 862h-279l-121 -340h279z" />
    <glyph glyph-name="dollar.tnum" 
d="M221 301l224 144q27 -83 85.5 -138.5t141.5 -73.5l62 348q-36 13 -65 24t-60.5 24.5t-56 27.5t-49.5 30.5t-43 35t-34 39.5t-26 45.5t-15.5 52t-5 60t6.5 68.5q20 110 96.5 196.5t177.5 133t214 57.5l28 161h131l-29 -162q132 -15 233 -91.5t149 -199.5l-234 -148
q-66 155 -192 189l-56 -322q173 -65 240 -104q129 -76 149 -196q9 -56 -3 -125q-16 -90 -68.5 -163.5t-127.5 -121.5t-160.5 -76t-174.5 -34l-28 -158h-131l28 161q-148 17 -258.5 98.5t-148.5 217.5zM780 847l50 282q-67 -13 -113 -50.5t-55 -89.5q-9 -53 17.5 -83.5
t100.5 -58.5zM857 538l-55 -311q74 9 137.5 46.5t75.5 101.5q9 52 -29.5 90t-128.5 73z" />
    <glyph glyph-name="Euro.tnum" 
d="M291 497h-153l23 130h138q6 50 19 107h-139l23 130h154q86 235 267.5 374.5t424.5 139.5q178 0 307.5 -84.5t166.5 -250.5l-240 -124q-32 104 -104.5 160t-172.5 56q-113 0 -208.5 -72t-153.5 -199h421l-23 -130h-443q-15 -70 -19 -107h444l-23 -130h-423
q12 -129 82.5 -201t184.5 -72q108 0 204 58t163 160l187 -127q-90 -158 -251 -246.5t-346 -88.5q-240 0 -374 138.5t-136 378.5z" />
    <glyph glyph-name="yen.tnum" 
d="M365 640h244l-364 718h322l272 -566l474 566h312l-615 -718h242l-26 -144h-307l-19 -113h296l-26 -143h-296l-42 -240h-269l42 240h-301l26 143h301l19 113h-311z" />
    <glyph glyph-name="sterling.tnum" 
d="M1250 228l-40 -228h-1032l36 202q103 54 160 110.5t73 150.5l25 145h-180l32 179h178l28 167q33 195 181.5 309.5t349.5 114.5q161 0 267 -85t132 -243l-235 -110q-45 194 -206 194q-89 0 -152 -51t-80 -143l-27 -153h365l-32 -179h-364l-20 -116q-33 -189 -147 -264h688
z" />
    <glyph glyph-name="currency.tnum" 
d="M342 125l-128 155l204 172q-41 97 -20 209q20 113 90 204l-141 167l182 155l139 -168q107 56 217 56t201 -56l195 168l128 -155l-197 -167q38 -96 19 -204q-21 -115 -97 -209l142 -172l-182 -155l-143 176q-107 -51 -212 -51q-106 0 -190 51zM609 661q-15 -82 34 -140
q50 -59 132 -59q86 0 157 57.5t87 141.5q15 85 -35 145q-51 60 -137 60q-85 0 -154 -60.5t-84 -144.5z" />
    <glyph glyph-name="florin.tnum" 
d="M183 28l109 218q56 -35 122 -35q75 0 133.5 44t85.5 128l94 301h-170l67 217h167l34 99q51 168 189.5 273t312.5 105q113 0 202 -48l-110 -216q-56 35 -121 35q-76 0 -138 -45.5t-89 -128.5l-24 -74h274l-67 -217h-267l-101 -326q-51 -171 -195.5 -276.5t-306.5 -101.5
q-112 0 -201 48z" />
    <glyph glyph-name="cent.tnum" 
d="M660 0l32 182q-188 23 -288 163q-101 142 -67 335q33 192 183.5 331.5t346.5 165.5l29 164h131l-29 -164q122 -15 212 -85.5t125 -184.5l-217 -124q-42 127 -162 156l-92 -523q126 27 223 160l162 -130q-75 -110 -187.5 -179t-238.5 -85l-32 -182h-131zM591 675
q-16 -93 24 -163q39 -70 119 -93l91 516q-90 -23 -154 -95t-80 -165z" />
    <glyph glyph-name="mu.tnum" 
d="M497 36l-77 -436h-257l240 1360h257l-97 -552q-13 -88 32 -139t129 -51q94 0 164.5 56t86.5 148l95 538h256l-169 -960h-244l15 111q-47 -57 -118.5 -91.5t-153.5 -34.5q-108 0 -159 51z" />
    <glyph glyph-name="pi.tnum" 
d="M394 863h-182l43 241h1242l-43 -241h-175l-95 -537q-11 -63 19.5 -90.5t109.5 -27.5q34 0 54 4l-38 -216q-42 -13 -131 -13q-137 0 -219 80q-82 79 -56 229l101 571h-375l-152 -863h-255z" />
    <glyph glyph-name="degree.tnum" 
d="M814 678q-156 0 -239 98t-56 250q27 155 144 253.5t274 98.5t241 -99q83 -99 56 -253q-28 -154 -145.5 -251t-274.5 -97zM704 1025q-14 -76 26 -124q39 -50 114 -50q76 0 131 49t69 125q14 79 -24.5 129t-113.5 50q-77 0 -133 -51t-69 -128z" />
    <glyph glyph-name="ordmasculine.tnum" 
d="M1209 1058q-25 -139 -133 -227t-251 -88q-141 0 -218 89t-52 226q24 141 131.5 230.5t250.5 89.5t219 -90q77 -92 53 -230zM731 1058q-12 -65 22.5 -107t100.5 -42q65 0 113 41.5t60 107.5q11 67 -21.5 110t-97.5 43q-67 0 -116.5 -43.5t-60.5 -109.5zM1121 645l-26 -148
h-624l26 148h624z" />
    <glyph glyph-name="ordfeminine.tnum" 
d="M759 752q-100 0 -152 50.5t-38 133.5q17 94 101 142t188 48q76 0 127 -21l1 6q8 48 -20.5 79t-84.5 31q-92 0 -169 -65l-76 116q56 50 133.5 79t152.5 29q129 0 193.5 -64t44.5 -174l-66 -378h-159l11 66q-67 -78 -187 -78zM737 944q-5 -30 14.5 -47t56.5 -17
q48 0 97.5 29.5t57.5 73.5q-32 25 -108 25q-49 0 -80.5 -17t-37.5 -47zM1080 657l-25 -140h-554l25 140h554z" />
    <glyph glyph-name="zero.slash.onum" horiz-adv-x="1295" 
d="M1120 1017l206 206l108 -102l-203 -202q118 -153 78 -385q-43 -246 -229 -400t-436 -154q-163 0 -281 71l-205 -205l-107 101l201 201q-119 153 -78 386q29 163 123.5 289t236 195t306.5 69q164 0 280 -70zM449 345l476 477q-54 25 -128 25q-141 0 -243 -87t-128 -226
q-19 -109 23 -189zM1035 722l-477 -477q57 -25 129 -25q141 0 242.5 87t127.5 227q19 105 -22 188z" />
    <glyph glyph-name="zero.onum" horiz-adv-x="1308" 
d="M651 -20q-163 -2 -281 69.5t-168.5 199t-20.5 285.5q29 163 123.5 289t236 195t306.5 69q121 2 220 -39.5t161 -114.5t86.5 -176.5t1.5 -222.5q-43 -246 -229 -400t-436 -154zM433 534q-25 -139 48 -226q73 -88 213 -88q141 0 242.5 87t127.5 227q25 139 -47 226
q-73 87 -213 87q-141 0 -243 -87t-128 -226z" />
    <glyph glyph-name="one.onum" horiz-adv-x="1023" 
d="M1038 234l-41 -234h-928l41 234h347l108 609h-314l41 234h579l-149 -843h316z" />
    <glyph glyph-name="two.onum" horiz-adv-x="1072" 
d="M1047 236l-42 -236h-922l38 218l370 225q160 97 227 153q64 54 75 111q11 64 -23.5 101t-106.5 37q-77 0 -142.5 -42.5t-109.5 -110.5l-202 107q76 131 209.5 210t284.5 79q198 0 298 -102q100 -103 69 -275q-18 -107 -105 -195q-90 -90 -272 -192l-155 -88h509z" />
    <glyph glyph-name="three.onum" horiz-adv-x="1121" 
d="M65 21l239 120q19 -97 81.5 -152.5t154.5 -55.5q85 0 154 47t83 127q15 84 -38.5 134t-156.5 50h-198l38 211h198q87 0 151.5 49t79.5 133q12 71 -33.5 116t-131.5 45q-89 0 -167 -57t-127 -141l-197 119q87 146 228 234t305 88q93 0 172.5 -26t137 -75t83 -125.5
t9.5 -170.5q-17 -91 -84.5 -169.5t-155.5 -117.5q87 -31 133 -118q47 -89 29 -187q-22 -125 -107 -220t-200.5 -142t-243.5 -47q-165 0 -282.5 86.5t-153.5 244.5z" />
    <glyph glyph-name="four.onum" horiz-adv-x="1177" 
d="M693 50h-642l37 209l726 808h317l-139 -787h188l-40 -230h-188l-60 -342h-259zM818 759l-433 -479h348z" />
    <glyph glyph-name="five.onum" horiz-adv-x="1103" 
d="M483 -311q-176 0 -287.5 86.5t-150.5 249.5l238 113q23 -99 84 -152.5t153 -53.5q100 0 177.5 58.5t94.5 155.5q16 97 -39 157t-165 60q-135 0 -253 -100l-170 83l207 721h791l-42 -238h-572l-85 -299q40 29 103 47.5t130 18.5q129 2 222.5 -53.5t134.5 -159t15 -233.5
q-31 -198 -200.5 -331t-385.5 -130z" />
    <glyph glyph-name="six.onum" horiz-adv-x="1202" 
d="M623 -20q-113 0 -199 33t-136.5 91.5t-79.5 139t-28.5 176t16.5 201.5q23 127 64.5 237.5t107.5 207t151 165t198.5 108t246.5 39.5q199 0 332 -79l-102 -215q-107 65 -251 65q-176 0 -292 -105.5t-156 -281.5q54 67 147 102.5t187 35.5q93 0 171 -26.5t135.5 -78.5
t81.5 -140t3 -200q-38 -219 -204.5 -347t-392.5 -128zM465 448q-18 -105 36 -171q52 -67 160 -67q109 0 188 64.5t99 171.5q19 107 -36.5 170t-167.5 63q-106 0 -183.5 -63.5t-95.5 -167.5z" />
    <glyph glyph-name="seven.onum" horiz-adv-x="963" 
d="M365 -291h-292q300 603 707 1113h-602l43 245h910l-35 -202q-418 -519 -731 -1156z" />
    <glyph glyph-name="eight.onum" horiz-adv-x="1184" 
d="M1168 377q-16 -99 -73.5 -177.5t-140 -125t-176 -70.5t-191.5 -24q-205 0 -332 93q-67 47 -96 126t-11 178q21 115 93 202.5t179 133.5q-76 44 -111 121t-17 174q13 74 51 136t91.5 104.5t120 72.5t137 43.5t142.5 13.5q188 0 311 -88q62 -44 89 -117.5t12 -164.5
q-18 -97 -79.5 -174t-151.5 -121q91 -46 132.5 -134t20.5 -202zM563 976q-15 -84 30.5 -134t137.5 -50q93 0 155.5 50t77.5 134q14 79 -32 127.5t-138 48.5t-154.5 -48.5t-76.5 -127.5zM430 404q-17 -95 40 -147q56 -54 157 -54q100 0 176 53t93 148q16 93 -39 148
q-57 54 -159 54q-100 0 -175.5 -53.5t-92.5 -148.5z" />
    <glyph glyph-name="nine.onum" horiz-adv-x="1200" 
d="M105 -234l102 215q107 -65 251 -65q161 0 282 97q122 98 165 290q-53 -66 -146.5 -102t-186.5 -36t-171 26.5t-135.5 78.5t-81.5 140t-3 200q25 146 111 255t211.5 164.5t273.5 55.5q95 0 170.5 -23t126.5 -65.5t85 -100.5t48 -130t13.5 -152t-16.5 -170
q-28 -160 -87.5 -293.5t-152.5 -239t-228 -165t-299 -59.5q-199 0 -332 79zM453 619q-19 -107 36.5 -170t167.5 -63q106 0 183.5 63.5t95.5 167.5t-35 172q-54 66 -161 66q-109 0 -188.5 -64.5t-98.5 -171.5z" />
    <glyph glyph-name="plus.onum" horiz-adv-x="1242" 
d="M487 6l73 411h-412l42 240h412l71 404h268l-71 -404h415l-42 -240h-415l-73 -411h-268z" />
    <glyph glyph-name="minus.onum" horiz-adv-x="1136" 
d="M1162 656l-43 -240h-955l43 240h955z" />
    <glyph glyph-name="plusminus.onum" horiz-adv-x="1250" 
d="M542 285l62 348h-394l42 240h394l60 339h265l-60 -339h395l-42 -240h-395l-62 -348h-265zM1138 -123h-1070l42 237h1070z" />
    <glyph glyph-name="equal.onum" horiz-adv-x="1306" 
d="M277 894h1069l-43 -243h-1069zM193 417h1069l-43 -244h-1069z" />
    <glyph glyph-name="notequal.onum" horiz-adv-x="1282" 
d="M410 173h-279l43 244h388l146 234h-493l43 243h603l229 367l150 -59l-194 -308h281l-43 -243h-391l-147 -234h497l-43 -244h-607l-232 -368l-142 64z" />
    <glyph glyph-name="approxequal.onum" horiz-adv-x="1304" 
d="M333 590l-97 184q217 175 380 175q22 0 42.5 -2.5t35.5 -4.5t33.5 -8.5t28 -10t27 -13t22 -12t22.5 -13.5t20 -12q66 -43 155 -43q66 0 119 22t118 67l97 -180q-214 -174 -379 -174q-17 0 -33 1.5t-29 3t-27.5 6t-23.5 7t-22.5 8.5t-20 9t-19.5 10.5t-17.5 10t-17.5 11
t-16 10.5q-69 42 -159 42q-106 0 -239 -94zM252 136l-97 184q217 175 380 175q22 0 42.5 -2.5t35.5 -4.5t34 -9t28 -10t26.5 -12.5t22.5 -12t23 -14t20 -12.5q68 -42 154 -42q65 0 118 22t120 67l96 -180q-215 -174 -378 -174q-17 0 -33 1.5t-29 3t-27.5 6t-23.5 7
t-22.5 8.5t-20 9t-19.5 10.5t-17.5 10t-17.5 11t-16 10.5q-69 42 -160 42q-106 0 -239 -94z" />
    <glyph glyph-name="multiply.onum" horiz-adv-x="1169" 
d="M244 12l-147 179l402 343l-281 343l210 179l283 -343l403 343l148 -179l-404 -343l283 -343l-211 -179l-282 343z" />
    <glyph glyph-name="less.onum" horiz-adv-x="1149" 
d="M475 534l612 -283l-47 -268l-892 431l42 238l1045 437l-47 -268z" />
    <glyph glyph-name="greater.onum" horiz-adv-x="1149" 
d="M104 -17l47 268l712 283l-611 287l47 268l891 -437l-42 -237z" />
    <glyph glyph-name="lessequal.onum" horiz-adv-x="1325" 
d="M526 567h759l-43 -242h-1075l59 335l1150 502l-50 -282zM125 130h1084l-42 -238h-1084z" />
    <glyph glyph-name="greaterequal.onum" horiz-adv-x="1327" 
d="M200 325l43 242h759l-689 313l50 282l972 -502l-59 -335h-1076zM121 -108l42 238h1084l-42 -238h-1084z" />
    <glyph glyph-name="divide.onum" horiz-adv-x="1273" 
d="M956 951q-10 -62 -61 -104t-115 -42q-62 0 -97 42t-24 104q11 63 60.5 105.5t112.5 42.5t99 -42q36 -43 25 -106zM1256 414h-1092l42 240h1092zM810 122q-12 -64 -61.5 -105t-114.5 -41q-62 0 -97 42t-24 104q11 63 60.5 105.5t112.5 42.5t99 -42q36 -43 25 -106z" />
    <glyph glyph-name="logicalnot.onum" horiz-adv-x="1313" 
d="M1231 241h-268l64 359h-842l42 240h1110z" />
    <glyph glyph-name="numbersign.onum" horiz-adv-x="1278" 
d="M219 0l87 246h-202l65 180h202l84 238h-201l66 181h199l80 222h203l-80 -222h235l80 222h203l-80 -222h210l-66 -181h-208l-84 -238h207l-65 -180h-207l-87 -246h-203l87 246h-235l-87 -246h-203zM893 664h-235l-84 -238h235z" />
    <glyph glyph-name="dollar.onum" horiz-adv-x="1064" 
d="M123 224l200 136q25 -61 72 -101t111 -53l41 234q-155 40 -232 107q-85 73 -60 219q16 92 79.5 162.5t147.5 106.5t178 44l27 154h131l-28 -158q109 -17 188 -74t113 -138l-178 -130q-53 96 -162 122l-39 -224q90 -25 146.5 -50.5t100.5 -62.5q88 -75 62 -221
q-12 -70 -54.5 -128t-103 -95.5t-128 -60.5t-137.5 -30l-29 -164h-131l29 165q-126 14 -216.5 77.5t-127.5 162.5zM587 667l34 190q-111 -19 -124 -88q-6 -36 15 -59.5t75 -42.5zM672 407l-35 -201q58 9 95.5 33.5t43.5 57.5q7 41 -16.5 65.5t-87.5 44.5z" />
    <glyph glyph-name="Euro.onum" horiz-adv-x="1202" 
d="M295 407h-138l19 108h128q4 27 13 66h-130l19 108h144q69 181 213 287.5t333 106.5q137 0 236.5 -66.5t127.5 -195.5l-212 -98q-50 138 -191 138q-79 0 -143 -44.5t-105 -127.5h337l-19 -108h-357q-9 -39 -13 -66h359l-19 -108h-346q6 -99 55 -152t135 -53q152 0 245 137
l174 -103q-78 -124 -195 -190t-264 -66q-195 0 -301 114q-108 114 -105 313z" />
    <glyph glyph-name="yen.onum" horiz-adv-x="1203" 
d="M495 504l-274 563h295l197 -436l354 436h292l-473 -563h169l-20 -115h-236l-17 -96h224l-21 -115h-224l-31 -178h-256l31 178h-219l21 115h219l17 96h-230l20 115h162z" />
    <glyph glyph-name="sterling.onum" horiz-adv-x="1045" 
d="M953 0h-858l35 201q85 38 125 75t49 95l16 89h-140l29 162h138l22 128q19 106 86 183t160 114t201 37q130 0 212.5 -67t101.5 -187l-213 -102q-31 132 -142 132q-63 0 -105 -33t-52 -91l-20 -114h275l-29 -162h-274l-13 -76q-19 -110 -106 -162h541z" />
    <glyph glyph-name="currency.onum" horiz-adv-x="1211" 
d="M228 -9l-127 155l202 172q-39 97 -20 209q19 113 90 204l-140 167l183 155l137 -168q107 56 217 56t201 -56l197 168l127 -155l-198 -167q38 -96 19 -204q-19 -113 -97 -209l144 -172l-183 -155l-143 176q-105 -51 -213 -51q-104 0 -189 51zM495 527q-14 -83 35 -141
q48 -58 132 -58q85 0 157.5 58t85.5 141q15 85 -35 145q-51 60 -137 60q-85 0 -154 -60t-84 -145z" />
    <glyph glyph-name="florin.onum" horiz-adv-x="1195" 
d="M13 -111l110 218q56 -35 122 -35q75 0 133 44t85 128l94 301h-170l67 217h167l35 99q51 172 195 277t306 101q113 0 202 -48l-109 -216q-56 35 -122 35q-76 0 -138 -45.5t-89 -128.5l-24 -74h274l-67 -217h-267l-100 -326q-51 -171 -195.5 -276.5t-306.5 -101.5
q-113 0 -202 48z" />
    <glyph glyph-name="cent.onum" horiz-adv-x="1127" 
d="M511 -120l32 183q-186 24 -285 165q-99 140 -65 333q35 193 182.5 331.5t342.5 164.5l29 164h131l-29 -162q124 -14 215.5 -85t126.5 -186l-217 -124q-42 129 -166 157l-93 -525q128 26 228 161l162 -130q-74 -108 -188 -178t-243 -86l-32 -183h-131zM447 556
q-16 -92 22 -161.5t116 -93.5l91 514q-90 -26 -151.5 -96t-77.5 -163z" />
    <glyph glyph-name="mu.onum" horiz-adv-x="1214" 
d="M409 36l-77 -436h-257l240 1360h257l-97 -552q-16 -88 31 -139q46 -51 130 -51q94 0 164.5 56t86.5 148l95 538h256l-169 -960h-244l15 111q-47 -57 -118.5 -91.5t-153.5 -34.5q-108 0 -159 51z" />
    <glyph glyph-name="pi.onum" horiz-adv-x="1373" 
d="M365 863h-182l43 241h1242l-43 -241h-175l-95 -537q-11 -63 19.5 -90.5t109.5 -27.5q34 0 54 4l-38 -216q-42 -13 -131 -13q-137 0 -219 80q-82 79 -56 229l101 571h-375l-152 -863h-255z" />
    <glyph glyph-name="degree.onum" horiz-adv-x="888" 
d="M527 478q-155 0 -238 98t-56 250q27 155 144 253.5t274 98.5t241 -99q83 -99 56 -253q-28 -154 -145.5 -251t-275.5 -97zM417 825q-13 -76 27 -125q39 -49 114 -49q76 0 130.5 49t68.5 125q14 78 -24 128.5t-113 50.5q-77 0 -133.5 -51t-69.5 -128z" />
    <glyph glyph-name="ordmasculine.onum" horiz-adv-x="893" 
d="M925 858q-24 -139 -132.5 -227t-250.5 -88q-141 0 -218 89t-53 226q26 140 133 230t250 90q142 0 219 -90q77 -92 52 -230zM447 858q-11 -65 23.5 -107t100.5 -42q65 0 113 41.5t59 107.5q12 66 -21 109.5t-98 43.5q-67 0 -116 -43.5t-61 -109.5zM837 445l-26 -148h-624
l26 148h624z" />
    <glyph glyph-name="ordfeminine.onum" horiz-adv-x="818" 
d="M447 552q-100 0 -152 50.5t-37 133.5q17 94 101 142t187 48q77 0 128 -21l1 6q8 48 -20.5 79t-84.5 31q-93 0 -169 -65l-76 116q54 49 133 78.5t153 29.5q129 0 193 -64t45 -174l-67 -378h-159l12 66q-71 -78 -188 -78zM462 791q-30 -17 -36 -47t15 -47q20 -17 56 -17
q48 0 97.5 29.5t57.5 73.5q-34 25 -109 25q-49 0 -81 -17zM769 457l-25 -140h-554l25 140h554z" />
    <glyph glyph-name="onehalf.onum" horiz-adv-x="1743" 
d="M1440 1194l-968 -1334h-157l5 26l969 1332h155zM361 390l117 664h-170l28 160h353l-145 -824h-183zM1583 -140h-592l18 102q12 62 49 106q6 6 13.5 15t13.5 15.5t10 11.5q18 19 51 43q34 25 48 36q27 18 56 37l24 16l18 12t8 5q7 5 37 25q17 11 35 23q75 50 96 84
q16 29 19 48q8 45 -17 71.5t-76 26.5q-49 0 -95 -32t-76 -88l-134 75q49 92 140.5 152t191.5 60q130 0 206 -71q74 -72 53 -190q-13 -72 -56 -122q-66 -79 -151 -131q-20 -14 -59 -37q-48 -30 -53 -33q-6 -4 -40.5 -25t-44.5 -27q-41 -25 -54 -45h390z" />
    <glyph glyph-name="onethird.onum" horiz-adv-x="1752" 
d="M1439 1194l-968 -1334h-157l5 26l969 1332h155zM477 1054h-170l28 160h353l-145 -824h-183zM1028 44l159 85q12 -56 53.5 -91t95.5 -35q50 0 84.5 26t41.5 67q9 50 -22 81t-87 31h-127l25 141h127q50 0 85.5 29t43.5 76q7 39 -18.5 63t-72.5 24q-55 0 -101.5 -32
t-78.5 -87l-126 85q52 91 141.5 144t193.5 53q125 0 199 -65q74 -66 53 -183q-9 -54 -45 -102.5t-84 -72.5q46 -24 70.5 -75.5t14.5 -111.5q-22 -117 -120.5 -185.5t-221.5 -68.5q-109 0 -184.5 54t-98.5 150z" />
    <glyph glyph-name="onequarter.onum" horiz-adv-x="1643" 
d="M1440 1194l-968 -1334h-157l5 26l969 1332h155zM478 1054h-170l28 160h353l-145 -824h-183zM1290 43h-390l24 139l476 502h176l-85 -481h108l-28 -160h-108l-33 -183h-173zM1358 429l-210 -226h170z" />
    <glyph glyph-name="twothirds.onum" horiz-adv-x="1863" 
d="M744 400h-592l18 102q19 121 198 236l48 32q12 8 26.5 17.5t17.5 11.5q143 89 169 132q16 29 19 48q8 45 -17.5 71.5t-76.5 26.5q-49 0 -95 -32t-76 -88l-134 75q49 92 140.5 152t191.5 60q130 0 206 -71q74 -72 53 -190q-18 -87 -82 -154q-31 -32 -76 -65.5t-74.5 -51.5
t-86.5 -52q-5 -3 -19 -12t-23 -14q-69 -44 -75 -49q-16 -13 -22 -22h390zM632 -140h-157l5 26l969 1332h155l-4 -24zM1189 44l159 85q12 -56 53.5 -91t95.5 -35q50 0 84.5 26t41.5 67q9 50 -22 81t-87 31h-127l25 141h127q50 0 85.5 29t43.5 76q7 39 -18.5 63t-72.5 24
q-55 0 -101.5 -32t-78.5 -87l-126 85q52 91 141.5 144t193.5 53q125 0 199 -65q74 -66 53 -183q-9 -54 -45 -102.5t-84 -72.5q46 -24 70.5 -75.5t14.5 -111.5q-22 -117 -120.5 -185.5t-221.5 -68.5q-109 0 -184.5 54t-98.5 150z" />
    <glyph glyph-name="threequarters.onum" horiz-adv-x="1778" 
d="M444 380q-109 0 -184.5 54t-98.5 150l159 85q13 -56 54.5 -91t94.5 -35q50 0 84.5 26t41.5 67q9 50 -22 81t-87 31h-127l25 141h127q50 0 85.5 29t43.5 76q7 39 -18 63t-72 24q-55 0 -101.5 -32t-78.5 -87l-126 85q54 91 142 144t192 53q125 0 199 -65q73 -66 54 -183
q-10 -54 -46.5 -102t-83.5 -73q47 -24 71.5 -76t13.5 -111q-21 -117 -119.5 -185.5t-222.5 -68.5zM609 -140h-157l5 26l969 1332h155l-4 -24zM1457 43h-390l24 139l476 502h176l-85 -481h108l-28 -160h-108l-33 -183h-173zM1525 429l-210 -226h170z" />
    <glyph glyph-name="percent.onum" horiz-adv-x="1808" 
d="M965 855q-28 -161 -156.5 -268t-292.5 -107t-254 108q-91 106 -62 267q29 162 156.5 270t291.5 108t256 -108q90 -108 61 -270zM1560 1189l-968 -1334h-157l5 26l969 1332h155zM399 855q-14 -79 29 -131q42 -53 121 -53t140 53t75 131q14 80 -28 134q-42 53 -121 53
t-140.5 -54t-75.5 -133zM1349 -165q-164 0 -254 107q-90 108 -62 268q29 162 156.5 270t292.5 108t256 -108q90 -108 61 -270q-29 -163 -157 -269t-293 -106zM1233 210q-14 -79 29 -131q44 -53 121 -53q80 0 140 52.5t74 131.5q14 80 -28 134q-42 53 -121 53t-140.5 -54.5
t-74.5 -132.5z" />
    <glyph glyph-name="perthousand.onum" horiz-adv-x="2667" 
d="M965 855q-28 -161 -156.5 -268t-292.5 -107t-254 108q-91 106 -62 267q29 162 156.5 270t291.5 108t256 -108q90 -108 61 -270zM1560 1189l-968 -1334h-157l5 26l969 1332h155zM399 855q-14 -79 29 -131q42 -53 121 -53t140 53t75 131q14 80 -28 134q-42 53 -121 53
t-140.5 -54t-75.5 -133zM1349 -165q-164 0 -254 107q-90 108 -62 268q29 162 156.5 270t292.5 108t256 -108q90 -108 61 -270q-29 -163 -157 -269t-293 -106zM2205 -165q-164 0 -254 107q-90 108 -62 268q29 162 156.5 270t292.5 108q164 0 256 -108q90 -108 61 -270
q-29 -163 -157 -269t-293 -106zM2089 210q-14 -79 29 -131q44 -53 121 -53q80 0 140 52.5t74 131.5q14 80 -28 134q-42 53 -121 53t-140.5 -54.5t-74.5 -132.5zM1233 210q-14 -79 29 -131q44 -53 121 -53q80 0 140 52.5t74 131.5q14 80 -28 134q-42 53 -121 53t-140.5 -54.5
t-74.5 -132.5z" />
    <glyph glyph-name="zero.slash.onum.tnum" 
d="M1168 1017l206 206l108 -102l-202 -202q119 -152 78 -385q-43 -246 -229 -400t-436 -154q-164 0 -282 71l-205 -205l-107 101l202 202q-118 153 -78 385q29 163 123.5 289t236 195t306.5 69q163 0 279 -70zM498 346l476 476q-57 25 -128 25q-141 0 -243 -87t-128 -226
q-19 -108 23 -188zM1083 722l-477 -476q58 -26 130 -26q141 0 242.5 87t127.5 227q19 108 -23 188z" />
    <glyph glyph-name="zero.onum.tnum" 
d="M693 -20q-163 -2 -281 69.5t-168.5 199t-20.5 285.5q29 163 123.5 289t236 195t306.5 69q121 2 220 -39.5t161 -114.5t86.5 -176.5t1.5 -222.5q-43 -246 -229 -400t-436 -154zM475 534q-25 -139 48 -226q73 -88 213 -88q141 0 242.5 87t127.5 227q25 139 -47 226
q-73 87 -213 87q-141 0 -243 -87t-128 -226z" />
    <glyph glyph-name="one.onum.tnum" 
d="M1221 234l-41 -234h-928l41 234h347l108 609h-314l41 234h579l-149 -843h316z" />
    <glyph glyph-name="two.onum.tnum" 
d="M1210 236l-42 -236h-922l38 218l370 225q160 97 227 153q65 54 75 111q11 64 -23.5 101t-106.5 37q-77 0 -142.5 -42.5t-109.5 -110.5l-202 107q76 131 209.5 210t284.5 79q198 0 298 -102q100 -103 69 -275q-18 -107 -105 -195q-90 -90 -272 -192l-155 -88h509z" />
    <glyph glyph-name="three.onum.tnum" 
d="M221 21l239 120q19 -97 81.5 -152.5t154.5 -55.5q85 0 154 47t83 127q15 84 -38.5 134t-156.5 50h-198l38 211h198q87 0 151.5 49t79.5 133q12 71 -33.5 116t-131.5 45q-89 0 -167 -57t-127 -141l-197 119q87 146 228 234t305 88q93 0 172.5 -26t137 -75t83 -125.5
t9.5 -170.5q-17 -91 -84.5 -169.5t-155.5 -117.5q87 -31 133 -118q47 -89 29 -187q-22 -125 -107 -220t-200.5 -142t-243.5 -47q-165 0 -282.5 86.5t-153.5 244.5z" />
    <glyph glyph-name="four.onum.tnum" 
d="M803 50h-642l37 209l726 808h317l-139 -787h188l-40 -230h-188l-60 -342h-259zM928 759l-433 -479h348z" />
    <glyph glyph-name="five.onum.tnum" 
d="M647 -311q-176 0 -287.5 86.5t-150.5 249.5l238 113q23 -99 84 -152.5t153 -53.5q100 0 177.5 58.5t94.5 155.5q16 97 -39 157t-165 60q-135 0 -253 -100l-170 83l207 721h791l-42 -238h-572l-85 -299q40 29 103 47.5t130 18.5q129 2 222.5 -53.5t134.5 -159t15 -233.5
q-31 -198 -200.5 -331t-385.5 -130z" />
    <glyph glyph-name="six.onum.tnum" 
d="M717 -20q-113 0 -199 33t-136.5 91.5t-79.5 139t-28.5 176t16.5 201.5q23 127 64.5 237.5t107.5 207t151 165t198.5 108t246.5 39.5q199 0 332 -79l-102 -215q-107 65 -251 65q-176 0 -292 -105.5t-156 -281.5q54 67 147 102.5t187 35.5q93 0 171 -26.5t135.5 -78.5
t81.5 -140t3 -200q-38 -219 -204.5 -347t-392.5 -128zM559 448q-18 -105 36 -171q52 -67 160 -67q109 0 188 64.5t99 171.5q19 107 -36.5 170t-167.5 63q-106 0 -183.5 -63.5t-95.5 -167.5z" />
    <glyph glyph-name="seven.onum.tnum" 
d="M573 -291h-292q300 603 707 1113h-602l43 245h910l-35 -202q-418 -519 -731 -1156z" />
    <glyph glyph-name="eight.onum.tnum" 
d="M1272 377q-16 -99 -73.5 -177.5t-140 -125t-176 -70.5t-191.5 -24q-205 0 -332 93q-67 47 -96 126t-11 178q21 115 93 202.5t179 133.5q-76 44 -111 121t-17 174q13 74 51 136t91.5 104.5t120 72.5t137 43.5t142.5 13.5q188 0 311 -88q62 -44 89 -117.5t12 -164.5
q-18 -97 -79.5 -174t-151.5 -121q91 -46 132.5 -134t20.5 -202zM667 976q-15 -84 30.5 -134t137.5 -50q93 0 155.5 50t77.5 134q14 79 -32 127.5t-138 48.5t-154.5 -48.5t-76.5 -127.5zM534 404q-17 -95 40 -147q56 -54 157 -54q100 0 176 53t93 148q16 93 -39 148
q-57 54 -159 54q-100 0 -175.5 -53.5t-92.5 -148.5z" />
    <glyph glyph-name="nine.onum.tnum" 
d="M170 -234l102 215q107 -65 251 -65q161 0 282 97q122 98 165 290q-53 -66 -146.5 -102t-186.5 -36t-171 26.5t-135.5 78.5t-81.5 140t-3 200q25 146 111 255t211.5 164.5t273.5 55.5q95 0 170.5 -23t126.5 -65.5t85 -100.5t48 -130t13.5 -152t-16.5 -170
q-28 -160 -87.5 -293.5t-152.5 -239t-228 -165t-299 -59.5q-199 0 -332 79zM518 619q-19 -107 36.5 -170t167.5 -63q106 0 183.5 63.5t95.5 167.5t-35 172q-54 66 -161 66q-109 0 -188.5 -64.5t-98.5 -171.5z" />
    <glyph glyph-name="plus.onum.tnum" 
d="M561 6l73 411h-412l42 240h412l71 404h268l-71 -404h415l-42 -240h-415l-73 -411h-268z" />
    <glyph glyph-name="minus.onum.tnum" 
d="M1289 656l-43 -240h-955l43 240h955z" />
    <glyph glyph-name="plusminus.onum.tnum" 
d="M612 285l62 348h-394l42 240h394l60 339h265l-60 -339h395l-42 -240h-395l-62 -348h-265zM1208 -123h-1070l42 237h1070z" />
    <glyph glyph-name="equal.onum.tnum" 
d="M319 894h1069l-43 -243h-1069zM235 417h1069l-43 -244h-1069z" />
    <glyph glyph-name="notequal.onum.tnum" 
d="M471 173h-279l43 244h388l146 234h-493l43 243h603l229 367l150 -59l-194 -308h281l-43 -243h-391l-147 -234h497l-43 -244h-607l-232 -368l-142 64z" />
    <glyph glyph-name="approxequal.onum.tnum" 
d="M376 590l-97 184q217 175 380 175q22 0 42.5 -2.5t35.5 -4.5t33.5 -8.5t28 -10t27 -13t22 -12t22.5 -13.5t20 -12q66 -43 155 -43q66 0 119 22t118 67l97 -180q-214 -174 -379 -174q-17 0 -33 1.5t-29 3t-27.5 6t-23.5 7t-22.5 8.5t-20 9t-19.5 10.5t-17.5 10t-17.5 11
t-16 10.5q-69 42 -159 42q-106 0 -239 -94zM295 136l-97 184q217 175 380 175q22 0 42.5 -2.5t35.5 -4.5t34 -9t28 -10t26.5 -12.5t22.5 -12t23 -14t20 -12.5q68 -42 154 -42q65 0 118 22t120 67l96 -180q-214 -174 -378 -174q-17 0 -33 1.5t-29 3t-27.5 6t-23.5 7
t-22.5 8.5t-20 9t-19.5 10.5t-17.5 10t-17.5 11t-16 10.5q-69 42 -160 42q-106 0 -239 -94z" />
    <glyph glyph-name="multiply.onum.tnum" 
d="M354 12l-147 179l402 343l-281 343l210 179l283 -343l403 343l148 -179l-404 -343l283 -343l-211 -179l-282 343z" />
    <glyph glyph-name="less.onum.tnum" 
d="M611 534l612 -283l-47 -268l-892 431l42 238l1045 437l-47 -268z" />
    <glyph glyph-name="greater.onum.tnum" 
d="M208 -17l47 268l712 283l-611 287l47 268l891 -437l-42 -237z" />
    <glyph glyph-name="lessequal.onum.tnum" 
d="M577 567h759l-43 -242h-1075l59 335l1150 502l-50 -282zM176 130h1084l-42 -238h-1084z" />
    <glyph glyph-name="greaterequal.onum.tnum" 
d="M214 325l43 242h759l-690 313l50 282l972 -502l-59 -335h-1075zM134 -108l42 238h1085l-42 -238h-1085z" />
    <glyph glyph-name="divide.onum.tnum" 
d="M838 804q-64 0 -98 42q-35 42 -24 104q11 63 60.5 105.5t113.5 42.5q63 0 99 -42q34 -43 24 -106q-12 -63 -61.5 -104.5t-113.5 -41.5zM1315 414h-1093l42 240h1093zM692 -25q-64 0 -98 42q-36 42 -25 104q11 63 60.5 105.5t113.5 42.5q65 0 99 -43q34 -44 24 -105
q-10 -63 -60 -104.5t-114 -41.5z" />
    <glyph glyph-name="logicalnot.onum.tnum" 
d="M1292 241h-268l64 359h-842l42 240h1110z" />
    <glyph glyph-name="numbersign.onum.tnum" 
d="M273 0l87 246h-202l65 180h202l84 238h-201l66 181h199l80 222h203l-80 -222h235l80 222h203l-80 -222h210l-66 -181h-208l-84 -238h207l-65 -180h-207l-87 -246h-203l87 246h-235l-87 -246h-203zM947 664h-235l-84 -238h235z" />
    <glyph glyph-name="dollar.onum.tnum" 
d="M330 224l200 136q25 -61 72 -101t111 -53l41 234q-155 40 -232 107q-86 73 -60 219q16 92 79.5 162.5t147.5 106.5t178 44l27 154h131l-28 -158q109 -17 188 -74t113 -138l-178 -130q-53 96 -162 122l-39 -224q90 -25 146.5 -50.5t100.5 -62.5q88 -75 62 -221
q-12 -70 -54.5 -128t-103 -95.5t-128 -60.5t-137.5 -30l-29 -164h-131l29 165q-126 14 -216.5 77.5t-127.5 162.5zM794 667l34 190q-111 -19 -124 -88q-6 -36 15 -59.5t75 -42.5zM879 407l-35 -201q58 9 95.5 33.5t43.5 57.5q7 41 -16.5 65.5t-87.5 44.5z" />
    <glyph glyph-name="Euro.onum.tnum" 
d="M392 407h-138l19 108h128q4 27 13 66h-130l19 108h144q69 181 213 287.5t333 106.5q137 0 236.5 -66.5t127.5 -195.5l-212 -98q-49 138 -191 138q-79 0 -143 -44.5t-105 -127.5h337l-19 -108h-357q-9 -39 -13 -66h359l-19 -108h-346q6 -99 55 -152t135 -53q152 0 245 137
l174 -103q-78 -124 -195 -190t-264 -66q-194 0 -301 114q-108 114 -105 313z" />
    <glyph glyph-name="yen.onum.tnum" 
d="M589 504l-274 563h295l197 -436l354 436h292l-473 -563h169l-20 -115h-236l-17 -96h224l-21 -115h-224l-31 -178h-256l31 178h-219l21 115h219l17 96h-230l20 115h162z" />
    <glyph glyph-name="sterling.onum.tnum" 
d="M1120 0h-858l35 201q85 38 125 75t49 95l16 89h-140l29 162h138l22 128q19 106 86 183t160 114t201 37q130 0 212.5 -67t101.5 -187l-213 -102q-32 132 -142 132q-63 0 -105 -33t-52 -91l-20 -114h275l-29 -162h-274l-13 -76q-19 -110 -106 -162h541z" />
    <glyph glyph-name="currency.onum.tnum" 
d="M325 -9l-127 155l202 172q-39 97 -20 209q20 113 90 204l-140 167l183 155l137 -168q107 56 217 56t201 -56l197 168l127 -155l-198 -167q38 -96 19 -204q-19 -113 -97 -209l144 -172l-183 -155l-143 176q-105 -51 -213 -51q-103 0 -189 51zM592 527q-14 -83 35 -141
q48 -58 132 -58q85 0 157.5 58t85.5 141q15 85 -35 145q-51 60 -137 60q-85 0 -154 -60t-84 -145z" />
    <glyph glyph-name="florin.onum.tnum" 
d="M134 -111l110 218q56 -35 122 -35q75 0 133 44t85 128l94 301h-170l67 217h167l35 99q51 172 195 277t306 101q114 0 202 -48l-109 -216q-56 35 -122 35q-76 0 -138 -45.5t-89 -128.5l-24 -74h274l-67 -217h-267l-100 -326q-51 -171 -195.5 -276.5t-306.5 -101.5
q-114 0 -202 48z" />
    <glyph glyph-name="cent.onum.tnum" 
d="M657 -120l32 182q-190 19 -292 162q-103 140 -68 337q33 194 185.5 334t349.5 163l29 163h131l-29 -163q121 -16 208.5 -86.5t123.5 -183.5l-217 -124q-40 123 -157 154l-91 -519q119 25 217 158l162 -130q-72 -106 -183 -176t-238 -87l-32 -184h-131zM583 556
q-16 -93 25 -165q41 -71 123 -92l91 519q-92 -22 -157.5 -94.5t-81.5 -167.5z" />
    <glyph glyph-name="mu.onum.tnum" 
d="M497 36l-77 -436h-257l240 1360h257l-97 -552q-16 -88 31 -139q46 -51 130 -51q94 0 164.5 56t86.5 148l95 538h256l-169 -960h-244l15 111q-47 -57 -118.5 -91.5t-153.5 -34.5q-108 0 -159 51z" />
    <glyph glyph-name="pi.onum.tnum" 
d="M394 863h-182l43 241h1242l-43 -241h-175l-95 -537q-11 -63 19.5 -90.5t109.5 -27.5q34 0 54 4l-38 -216q-42 -13 -131 -13q-137 0 -219 80q-82 79 -56 229l101 571h-375l-152 -863h-255z" />
    <glyph glyph-name="degree.onum.tnum" 
d="M778 478q-155 0 -238 98t-56 250q27 155 144 253.5t274 98.5t241 -99q83 -99 56 -253q-28 -154 -145.5 -251t-275.5 -97zM668 825q-13 -75 27 -124q39 -50 114 -50q77 0 131 49t68 125q14 78 -24 128.5t-113 50.5q-77 0 -133.5 -51t-69.5 -128z" />
    <glyph glyph-name="ordmasculine.onum.tnum" 
d="M1173 858q-24 -139 -132.5 -227t-250.5 -88q-141 0 -218 89t-53 226q26 140 133 230t250 90q142 0 219 -90q77 -92 52 -230zM695 858q-11 -65 23.5 -107t100.5 -42q65 0 113 41.5t59 107.5q12 66 -21 109.5t-98 43.5q-67 0 -116 -43.5t-61 -109.5zM1085 445l-26 -148
h-624l26 148h624z" />
    <glyph glyph-name="ordfeminine.onum.tnum" 
d="M725 552q-100 0 -152 50.5t-37 133.5q17 94 101 142t187 48q77 0 128 -21l1 6q8 48 -20.5 79t-84.5 31q-93 0 -169 -65l-76 116q54 49 133 78.5t153 29.5q129 0 193 -64t45 -174l-67 -378h-159l12 66q-71 -78 -188 -78zM740 791q-30 -17 -36 -47t15 -47q20 -17 56 -17
q48 0 97.5 29.5t57.5 73.5q-34 25 -109 25q-49 0 -81 -17zM1047 457l-25 -140h-554l25 140h554z" />
    <glyph glyph-name="A.smcp" horiz-adv-x="1137" 
d="M389 179l-99 -179h-271l578 1005h297l225 -1005h-271l-35 179h-424zM701 751l-204 -371h278z" />
    <glyph glyph-name="B.smcp" horiz-adv-x="1058" 
d="M668 0h-527l177 1005h487q135 0 212 -74q77 -75 54 -197q-24 -136 -170 -216q79 -27 113 -91.5t19 -147.5q-23 -129 -126.5 -204t-238.5 -75zM537 801l-34 -196h189q48 0 80.5 26.5t40.5 72.5q9 49 -21 73t-94 24h-161zM688 411h-220l-36 -207h220q50 0 85.5 28.5
t43.5 73.5q8 48 -17 76.5t-76 28.5z" />
    <glyph glyph-name="C.smcp" horiz-adv-x="1113" 
d="M597 -20q-106 -2 -197 38.5t-149.5 111t-83 168.5t-3.5 205q22 141 113 262.5t225.5 191.5t276.5 67q147 0 256 -70.5t162 -201.5l-217 -136q-72 175 -243 175q-118 0 -205.5 -84t-109.5 -204q-22 -123 40 -207t176 -84q163 0 298 169l167 -135q-101 -127 -233 -196.5
t-273 -69.5z" />
    <glyph glyph-name="D.smcp" horiz-adv-x="1166" 
d="M573 0h-432l177 1005h432q144 2 252.5 -64.5t156.5 -183t21 -255.5q-40 -219 -212 -360.5t-395 -141.5zM722 792h-186l-102 -578h186q115 0 197 83.5t103 200.5q21 124 -34 209t-164 85z" />
    <glyph glyph-name="E.smcp" horiz-adv-x="981" 
d="M434 213h508l-38 -213h-763l177 1005h755l-37 -213h-500l-32 -179h438l-36 -204h-438z" />
    <glyph glyph-name="F.smcp" horiz-adv-x="944" 
d="M853 398h-387l-70 -398h-255l177 1005h748l-37 -213h-493l-33 -188h387z" />
    <glyph glyph-name="G.smcp" horiz-adv-x="1176" 
d="M599 -20q-143 -3 -253.5 66.5t-160 191.5t-21.5 265q22 142 114 263.5t226.5 191t277.5 67.5q143 0 253.5 -63.5t162.5 -189.5l-215 -140q-66 159 -243 159q-120 0 -208 -83.5t-110 -204.5q-23 -125 42 -208t177 -83q98 0 169 39.5t111 107.5h-311l34 191h552
q0 -36 -9 -89q-39 -216 -203.5 -348.5t-384.5 -132.5z" />
    <glyph glyph-name="H.smcp" horiz-adv-x="1225" 
d="M396 0h-255l177 1005h255l-68 -387h434l68 387h255l-177 -1005h-255l71 405h-434z" />
    <glyph glyph-name="I.smcp" horiz-adv-x="536" 
d="M318 1005h255l-177 -1005h-255z" />
    <glyph glyph-name="J.smcp" horiz-adv-x="877" 
d="M353 -21q-98 0 -183 45.5t-129 128.5l190 165q70 -109 162 -109q139 0 167 171l110 626h255l-112 -636q-32 -185 -152.5 -288t-307.5 -103z" />
    <glyph glyph-name="K.smcp" horiz-adv-x="1098" 
d="M450 305l-54 -306h-255l177 1007h255l-66 -378l420 378h326l-486 -434l320 -573h-302l-221 403z" />
    <glyph glyph-name="L.smcp" horiz-adv-x="952" 
d="M434 213h517l-38 -213h-772l177 1005h255z" />
    <glyph glyph-name="M.smcp" horiz-adv-x="1403" 
d="M391 0h-250l177 1004h283l176 -578l380 578h283l-177 -1004h-250l103 585l-339 -518h-126l-157 518z" />
    <glyph glyph-name="N.smcp" horiz-adv-x="1235" 
d="M391 0h-250l177 1005h212l386 -605l106 605h250l-177 -1005h-212l-386 599z" />
    <glyph glyph-name="O.smcp" horiz-adv-x="1205" 
d="M599 -20q-150 -2 -259.5 65t-156.5 188t-18 270q41 231 213 376.5t406 145.5q232 0 354 -146t81 -376t-214 -376.5t-406 -146.5zM423 503q-23 -130 38 -210q61 -81 180 -81q123 0 211.5 83.5t110.5 207.5q23 128 -39 209q-62 80 -180 80q-124 0 -211.5 -82t-109.5 -207z
" />
    <glyph glyph-name="P.smcp" horiz-adv-x="1022" 
d="M454 331l-58 -331h-255l177 1005h445q175 0 263 -93q89 -95 62 -247q-27 -156 -153.5 -245t-290.5 -89h-190zM536 792l-45 -256h171q68 0 113 35t55 91q10 60 -22 95t-101 35h-171z" />
    <glyph glyph-name="Q.smcp" horiz-adv-x="1205" 
d="M618 -20q-150 -2 -259.5 65t-156.5 188t-18 270q41 231 213 376.5t406 145.5q232 0 354 -146t81 -376q-43 -248 -241 -398l65 -116l-191 -119l-76 135q-85 -25 -177 -25zM442 503q-23 -130 38 -210q62 -81 180 -81h18l-73 129l189 121l88 -156q79 79 100 197
q23 128 -39 209q-62 80 -180 80q-124 0 -211.5 -82t-109.5 -207z" />
    <glyph glyph-name="R.smcp" horiz-adv-x="1080" 
d="M396 0h-255l177 1005h464q167 0 253 -92q84 -91 58 -243q-32 -183 -211 -274l154 -397h-281l-128 348h-170zM536 793l-43 -244h190q60 0 101.5 34t50.5 86q9 56 -19.5 90t-89.5 34h-190z" />
    <glyph glyph-name="S.smcp" horiz-adv-x="1003" 
d="M112 239l216 125q31 -74 92.5 -117.5t138.5 -43.5q145 0 155 66q6 31 -19 50q-46 32 -156 74q-128 56 -161 75q-125 73 -136 183q-4 36 3 75q23 131 152 215q127 84 294 84q117 0 215.5 -57t147.5 -161l-202 -135q-23 57 -77.5 93.5t-126.5 36.5q-59 0 -99 -20t-45 -53
q-6 -33 19 -49q23 -18 104 -51q9 -4 28 -12t32 -13q131 -54 177 -83q113 -72 116 -183q0 -88 -43 -158.5t-112.5 -113t-150 -64.5t-163.5 -22q-149 0 -253 66.5t-146 192.5z" />
    <glyph glyph-name="T.smcp" horiz-adv-x="938" 
d="M481 791h-306l38 214h867l-38 -214h-306l-139 -791h-255z" />
    <glyph glyph-name="U.smcp" horiz-adv-x="1162" 
d="M1102 393q-23 -130 -98 -224t-184 -141t-241 -47q-207 0 -310 112t-70 300l108 612h255l-108 -613q-14 -82 31 -131t134 -49q86 0 150 48.5t78 131.5l108 613h255z" />
    <glyph glyph-name="V.smcp" horiz-adv-x="1120" 
d="M726 0h-330l-194 1005h275l128 -755l394 755h275z" />
    <glyph glyph-name="W.smcp" horiz-adv-x="1601" 
d="M309 0l-98 1005h260l67 -733l334 718h208l80 -718l325 733h260l-452 -1005h-329l-62 574l-264 -574h-329z" />
    <glyph glyph-name="X.smcp" horiz-adv-x="1102" 
d="M317 0h-300l474 514l-279 491h297l166 -305l271 305h300l-449 -491l290 -514h-297l-179 332z" />
    <glyph glyph-name="Y.smcp" horiz-adv-x="1124" 
d="M501 372l-300 633h295l174 -394l316 394h292l-521 -633l-66 -372h-256z" />
    <glyph glyph-name="Z.smcp" horiz-adv-x="985" 
d="M908 0h-830l32 182l605 610h-491l37 213h820l-32 -183l-605 -610h501z" />
    <glyph glyph-name="ampersand.smcp" horiz-adv-x="1110" 
d="M466 -20q-183 0 -278 80q-95 79 -73 208q30 166 252 273q-91 103 -73 210q21 125 130.5 200.5t246.5 73.5q140 0 216 -73q77 -74 56 -190q-14 -79 -77.5 -141.5t-187.5 -122.5l130 -150q23 35 39 94.5t18 107.5h198q-6 -104 -34 -181t-92 -153l190 -221h-287l-67 77
q-142 -92 -307 -92zM510 754q-7 -29 1 -49q12 -33 28 -52q11 -15 31 -35q145 69 158 142q7 39 -19.5 61t-73.5 22q-46 0 -82 -24.5t-43 -64.5zM342 280q-9 -51 35 -80t125 -29q80 0 150 40l-177 205q-118 -54 -133 -136z" />
    <glyph glyph-name="Agrave.smcp" horiz-adv-x="1137" 
d="M655 1156l-174 334h292l98 -334h-216zM290 0h-271l578 1005h297l225 -1005h-271l-35 179h-424zM775 380l-74 371l-204 -371h278z" />
    <glyph glyph-name="Aacute.smcp" horiz-adv-x="1137" 
d="M1178 1487l-292 -334h-216l216 334h292zM389 179l-99 -179h-271l578 1005h297l225 -1005h-271l-35 179h-424zM775 380l-74 371l-204 -371h278z" />
    <glyph glyph-name="Acircumflex.smcp" horiz-adv-x="1137" 
d="M639 1125h-226l353 370h135l221 -370h-227l-96 178zM389 179l-99 -179h-271l578 1005h297l225 -1005h-271l-35 179h-424zM775 380l-74 371l-204 -371h278z" />
    <glyph glyph-name="Adotbelow.smcp" horiz-adv-x="1137" 
d="M389 179l-99 -179h-271l578 1005h297l225 -1005h-271l-35 179h-424zM701 751l-204 -371h278zM492 -430q-63 0 -97 42q-35 42 -24 104q11 63 60.5 105.5t112.5 42.5q64 0 100 -43q34 -43 24 -105q-10 -63 -61 -104.5t-115 -41.5z" />
    <glyph glyph-name="Atilde.smcp" horiz-adv-x="1137" 
d="M532 1191l-92 96q136 183 269 183q34 2 80 -21t87.5 -46t65.5 -22q36 0 67 19t70 65l88 -99q-68 -92 -134.5 -135t-141.5 -43q-49 0 -110 37t-86 42q-31 7 -54 3q-41 -6 -109 -79zM389 179l-99 -179h-271l578 1005h297l225 -1005h-271l-35 179h-424zM775 380l-74 371
l-204 -371h278z" />
    <glyph glyph-name="Adieresis.smcp" horiz-adv-x="1137" 
d="M1123 1328q-10 -61 -55 -98.5t-107 -37.5q-60 0 -92 38q-31 37 -21 98q11 61 55 99t106 38q61 0 93 -38q32 -37 21 -99zM595 1192q-60 0 -91 37.5t-21 98.5q10 60 55 98.5t105 38.5q61 0 92.5 -38t21.5 -99q-10 -60 -55.5 -98t-106.5 -38zM389 179l-99 -179h-271
l578 1005h297l225 -1005h-271l-35 179h-424zM701 751l-204 -371h278z" />
    <glyph glyph-name="Amacron.smcp" horiz-adv-x="1137" 
d="M1111 1393l-31 -174h-591l31 174h591zM389 179l-99 -179h-271l578 1005h297l225 -1005h-271l-35 179h-424zM775 380l-74 371l-204 -371h278z" />
    <glyph glyph-name="Abreve.smcp" horiz-adv-x="1137" 
d="M775 1168q-130 0 -197 82q-68 82 -50 219h185q-6 -58 19 -94t73 -36q51 0 88 35.5t50 94.5h186q-31 -135 -125 -218t-229 -83zM290 0h-271l578 1005h297l225 -1005h-271l-35 179h-424zM775 380l-74 371l-204 -371h278z" />
    <glyph glyph-name="Aring.smcp" horiz-adv-x="1137" 
d="M1018 1329q-17 -92 -87 -149t-164 -57q-95 0 -144 58q-50 59 -34 148q16 93 86 151t165 58q94 0 145 -58q50 -59 33 -151zM729 1329q-5 -31 12 -51.5t50 -20.5t56.5 20.5t28.5 51.5q6 33 -10 54.5t-49 21.5t-57.5 -21.5t-30.5 -54.5zM389 179l-99 -179h-271l578 1005h297
l225 -1005h-271l-35 179h-424zM701 751l-204 -371h278z" />
    <glyph glyph-name="Aringacute.smcp" horiz-adv-x="1137" 
d="M1249 1935l-292 -334h-216l216 334h292zM1018 1329q-17 -92 -87 -149t-164 -57q-95 0 -144 58q-50 59 -34 148q16 93 86 151t165 58q94 0 145 -58q50 -59 33 -151zM729 1329q-5 -31 12 -51.5t50 -20.5t56.5 20.5t28.5 51.5q6 33 -10 54.5t-49 21.5t-57.5 -21.5
t-30.5 -54.5zM389 179l-99 -179h-271l578 1005h297l225 -1005h-271l-35 179h-424zM775 380l-74 371l-204 -371h278z" />
    <glyph glyph-name="Aogonek.smcp" horiz-adv-x="1137" 
d="M290 0h-271l578 1005h297l225 -1005h-79q-216 -122 -229 -207q-7 -35 15 -56t66 -21q58 0 117 27l26 -158q-91 -52 -212 -52q-117 0 -174.5 54t-40.5 147q27 148 240 268l-35 177h-424zM701 751l-204 -371h278z" />
    <glyph glyph-name="AE.smcp" horiz-adv-x="1549" 
d="M374 178l-134 -178h-262l770 1005h895l-37 -213h-501l-32 -179h440l-36 -204h-440l-35 -197h507l-37 -212h-763l31 178h-366zM851 807l-325 -426h250z" />
    <glyph glyph-name="AEacute.smcp" horiz-adv-x="1549" 
d="M1326 1153h-216l216 334h292zM374 178l-134 -178h-262l770 1005h895l-37 -213h-501l-32 -179h440l-36 -204h-440l-35 -197h507l-37 -212h-763l31 178h-366zM776 381l75 426l-325 -426h250z" />
    <glyph glyph-name="Cacute.smcp" horiz-adv-x="1113" 
d="M914 1153h-216l216 334h292zM597 -20q-106 -2 -197 38.5t-149.5 111t-83 168.5t-3.5 205q22 141 113 262.5t225.5 191.5t276.5 67q147 0 256 -70.5t162 -201.5l-217 -136q-72 175 -243 175q-118 0 -205.5 -84t-109.5 -204q-22 -123 40 -207t176 -84q163 0 298 169
l167 -135q-101 -127 -233 -196.5t-273 -69.5z" />
    <glyph glyph-name="Ccircumflex.smcp" horiz-adv-x="1113" 
d="M836 1303l-160 -178h-226l353 370h135l221 -370h-227zM597 -20q-106 -2 -197 38.5t-149.5 111t-83 168.5t-3.5 205q22 141 113 262.5t225.5 191.5t276.5 67q147 0 256 -70.5t162 -201.5l-217 -136q-72 175 -243 175q-118 0 -205.5 -84t-109.5 -204q-22 -123 40 -207
t176 -84q163 0 298 169l167 -135q-101 -127 -233 -196.5t-273 -69.5z" />
    <glyph glyph-name="Ccaron.smcp" horiz-adv-x="1113" 
d="M726 1133l-222 370h226l97 -178l159 178h227l-352 -370h-135zM597 -20q-106 -2 -197 38.5t-149.5 111t-83 168.5t-3.5 205q22 141 113 262.5t225.5 191.5t276.5 67q147 0 256 -70.5t162 -201.5l-217 -136q-72 175 -243 175q-118 0 -205.5 -84t-109.5 -204
q-22 -123 40 -207t176 -84q163 0 298 169l167 -135q-101 -127 -233 -196.5t-273 -69.5z" />
    <glyph glyph-name="Cdotaccent.smcp" horiz-adv-x="1113" 
d="M982 1330q-12 -65 -60 -106t-114 -41q-64 0 -99 41q-34 40 -22 106q11 65 59.5 106.5t113.5 41.5t99 -41t23 -107zM597 -20q-106 -2 -197 38.5t-149.5 111t-83 168.5t-3.5 205q22 141 113 262.5t225.5 191.5t276.5 67q147 0 256 -70.5t162 -201.5l-217 -136
q-72 175 -243 175q-118 0 -205.5 -84t-109.5 -204q-22 -123 40 -207t176 -84q163 0 298 169l167 -135q-101 -127 -233 -196.5t-273 -69.5z" />
    <glyph glyph-name="Ccedilla.smcp" horiz-adv-x="1113" 
d="M420 -185l97 171q-188 29 -288 173q-101 145 -65 344q22 141 113 262.5t225.5 191.5t276.5 67q147 0 256 -70.5t162 -201.5l-217 -136q-72 175 -243 175q-118 0 -205.5 -84t-109.5 -204q-22 -123 40 -207t176 -84q163 0 298 169l167 -135q-90 -113 -204 -180.5
t-238 -81.5l-34 -70q99 -12 145 -60t34 -122q-10 -54 -44.5 -94.5t-84 -62t-101 -32t-104.5 -10.5q-93 0 -148 26l25 142q56 -19 127 -19q118 0 130 66q5 32 -24.5 49.5t-90.5 17.5h-71z" />
    <glyph glyph-name="Dcaron.smcp" horiz-adv-x="1166" 
d="M813 1133h-135l-222 370h226l97 -178l159 178h227zM573 0h-432l177 1005h432q144 2 252.5 -64.5t156.5 -183t21 -255.5q-40 -219 -212 -360.5t-395 -141.5zM722 792h-186l-102 -578h186q115 0 197 83.5t103 200.5q21 124 -34 209t-164 85z" />
    <glyph glyph-name="Dcroat.smcp" horiz-adv-x="1213" 
d="M159 0l77 434h-113l27 158h113l73 413h456q247 0 362 -133q114 -133 73 -368q-41 -239 -204.5 -371.5t-407.5 -132.5h-456zM738 434h-245l-40 -222h179q140 0 226.5 76t110.5 216q24 139 -35 213.5t-199 74.5h-179l-36 -200h245z" />
    <glyph glyph-name="Eth.smcp" horiz-adv-x="1213" 
d="M159 0l77 434h-113l27 158h113l73 413h456q247 0 362 -133q114 -133 73 -368q-41 -239 -204.5 -371.5t-407.5 -132.5h-456zM738 434h-245l-40 -222h179q140 0 226.5 76t110.5 216q24 139 -35 213.5t-199 74.5h-179l-36 -200h245z" />
    <glyph glyph-name="Egrave.smcp" horiz-adv-x="981" 
d="M851 1156h-216l-174 334h292zM434 213h508l-38 -213h-763l177 1005h755l-37 -213h-500l-32 -179h438l-36 -204h-438z" />
    <glyph glyph-name="Eacute.smcp" horiz-adv-x="981" 
d="M826 1487h292l-292 -334h-216zM434 213h508l-38 -213h-763l177 1005h755l-37 -213h-500l-32 -179h438l-36 -204h-438z" />
    <glyph glyph-name="Ecircumflex.smcp" horiz-adv-x="981" 
d="M759 1303l-160 -178h-226l353 370h135l221 -370h-227zM904 0h-763l177 1005h755l-37 -213h-500l-32 -179h438l-36 -204h-438l-34 -196h508z" />
    <glyph glyph-name="Ecaron.smcp" horiz-adv-x="981" 
d="M803 1133h-135l-222 370h226l97 -178l159 178h227zM904 0h-763l177 1005h755l-37 -213h-500l-32 -179h438l-36 -204h-438l-34 -196h508z" />
    <glyph glyph-name="Edieresis.smcp" horiz-adv-x="981" 
d="M1089 1328q-10 -61 -55 -98.5t-107 -37.5q-60 0 -92 38q-31 37 -21 98q11 61 55 99t106 38q61 0 93 -38q32 -37 21 -99zM561 1192q-60 0 -91 37.5t-21 98.5q10 60 55 98.5t105 38.5q61 0 92.5 -38t21.5 -99q-10 -60 -55.5 -98t-106.5 -38zM904 0h-763l177 1005h755
l-37 -213h-500l-32 -179h438l-36 -204h-438l-34 -196h508z" />
    <glyph glyph-name="Etilde.smcp" horiz-adv-x="981" 
d="M486 1191l-92 96q136 183 269 183q34 2 80 -21t87.5 -46t65.5 -22q36 0 67 19t70 65l88 -99q-68 -92 -134.5 -135t-141.5 -43q-49 0 -110 37t-86 42q-31 7 -54 3q-41 -6 -109 -79zM904 0h-763l177 1005h755l-37 -213h-500l-32 -179h438l-36 -204h-438l-34 -196h508z" />
    <glyph glyph-name="Emacron.smcp" horiz-adv-x="981" 
d="M462 1393h591l-31 -174h-591zM434 213h508l-38 -213h-763l177 1005h755l-37 -213h-500l-32 -179h438l-36 -204h-438z" />
    <glyph glyph-name="Ebreve.smcp" horiz-adv-x="981" 
d="M735 1168q-130 0 -197 82q-68 82 -50 219h185q-6 -58 19 -94t73 -36q51 0 88 35.5t50 94.5h186q-31 -135 -125 -218t-229 -83zM904 0h-763l177 1005h755l-37 -213h-500l-32 -179h438l-36 -204h-438l-34 -196h508z" />
    <glyph glyph-name="Edotaccent.smcp" horiz-adv-x="981" 
d="M934 1330q-12 -65 -60 -106t-114 -41q-64 0 -99 41q-34 40 -22 106q11 65 59.5 106.5t113.5 41.5t99 -41t23 -107zM904 0h-763l177 1005h755l-37 -213h-500l-32 -179h438l-36 -204h-438l-34 -196h508z" />
    <glyph glyph-name="Edotbelow.smcp" horiz-adv-x="981" 
d="M904 0h-763l177 1005h755l-37 -213h-500l-32 -179h438l-36 -204h-438l-34 -196h508zM475 -430q-63 0 -97 42q-35 42 -24 104q11 63 60.5 105.5t112.5 42.5q64 0 100 -43q35 -43 24 -105q-10 -63 -61 -104.5t-115 -41.5z" />
    <glyph glyph-name="Eogonek.smcp" horiz-adv-x="981" 
d="M707 0h-566l177 1005h755l-37 -213h-500l-32 -179h438l-36 -204h-438l-34 -196h508l-38 -213h-1q-216 -122 -229 -207q-7 -35 15 -56t66 -21q59 0 117 27l26 -158q-91 -52 -212 -52q-117 0 -174.5 54t-40.5 147q26 146 236 266z" />
    <glyph glyph-name="Schwa.smcp" horiz-adv-x="1150" 
d="M554 -20q-212 0 -326 132t-75 351q7 47 29 114h727q1 96 -66 154t-165 58q-74 0 -145 -35t-124 -102l-179 126q90 115 221.5 182.5t274.5 67.5q155 1 266 -70t155.5 -191.5t16.5 -264.5q-40 -227 -210.5 -374.5t-399.5 -147.5zM873 397h-482q-5 -83 51 -138
q56 -56 149 -56t174 53.5t108 140.5z" />
    <glyph glyph-name="Gcircumflex.smcp" horiz-adv-x="1176" 
d="M817 1303l-160 -178h-226l353 370h135l221 -370h-227zM599 -20q-143 -3 -253.5 66.5t-160 191.5t-21.5 265q22 142 114 263.5t226.5 191t277.5 67.5q143 0 253.5 -63.5t162.5 -189.5l-215 -140q-66 159 -243 159q-120 0 -208 -83.5t-110 -204.5q-23 -125 42 -208t177 -83
q98 0 169 39.5t111 107.5h-311l34 191h552q0 -36 -9 -89q-39 -216 -203.5 -348.5t-384.5 -132.5z" />
    <glyph glyph-name="Gbreve.smcp" horiz-adv-x="1176" 
d="M793 1168q-130 0 -197 82q-68 82 -50 219h185q-6 -58 19 -94t73 -36q51 0 88 35.5t50 94.5h186q-31 -135 -125 -218t-229 -83zM599 -20q-143 -3 -253.5 66.5t-160 191.5t-21.5 265q22 142 114 263.5t226.5 191t277.5 67.5q143 0 253.5 -63.5t162.5 -189.5l-215 -140
q-66 159 -243 159q-120 0 -208 -83.5t-110 -204.5q-23 -125 42 -208t177 -83q98 0 169 39.5t111 107.5h-311l34 191h552q0 -36 -9 -89q-39 -216 -203.5 -348.5t-384.5 -132.5z" />
    <glyph glyph-name="Gcaron.smcp" horiz-adv-x="1176" 
d="M716 1133l-222 370h226l97 -178l159 178h227l-352 -370h-135zM599 -20q-143 -3 -253.5 66.5t-160 191.5t-21.5 265q22 142 114 263.5t226.5 191t277.5 67.5q143 0 253.5 -63.5t162.5 -189.5l-215 -140q-66 159 -243 159q-120 0 -208 -83.5t-110 -204.5q-23 -125 42 -208
t177 -83q98 0 169 39.5t111 107.5h-311l34 191h552q0 -36 -9 -89q-39 -216 -203.5 -348.5t-384.5 -132.5z" />
    <glyph glyph-name="Gdotaccent.smcp" horiz-adv-x="1176" 
d="M982 1330q-12 -65 -60 -106t-114 -41q-64 0 -99 41q-34 40 -22 106q11 65 59.5 106.5t113.5 41.5t99 -41t23 -107zM599 -20q-143 -3 -253.5 66.5t-160 191.5t-21.5 265q22 142 114 263.5t226.5 191t277.5 67.5q143 0 253.5 -63.5t162.5 -189.5l-215 -140
q-66 159 -243 159q-120 0 -208 -83.5t-110 -204.5q-23 -125 42 -208t177 -83q98 0 169 39.5t111 107.5h-311l34 191h552q0 -36 -9 -89q-39 -216 -203.5 -348.5t-384.5 -132.5z" />
    <glyph glyph-name="Gcommaaccent.smcp" horiz-adv-x="1176" 
d="M599 -20q-143 -3 -253.5 66.5t-160 191.5t-21.5 265q22 142 114 263.5t226.5 191t277.5 67.5q143 0 253.5 -63.5t162.5 -189.5l-215 -140q-66 159 -243 159q-120 0 -208 -83.5t-110 -204.5q-23 -125 42 -208t177 -83q98 0 169 39.5t111 107.5h-311l34 191h552
q0 -36 -9 -89q-39 -216 -203.5 -348.5t-384.5 -132.5zM712 -106l-137 -422h-196l81 422h252z" />
    <glyph glyph-name="Hcircumflex.smcp" horiz-adv-x="1225" 
d="M843 1303l-160 -178h-226l353 370h135l221 -370h-227zM396 0h-255l177 1005h255l-68 -387h434l68 387h255l-177 -1005h-255l71 405h-434z" />
    <glyph glyph-name="Hbar.smcp" horiz-adv-x="1285" 
d="M426 0h-257l130 739h-120l27 153h120l20 113h257l-20 -113h434l20 113h256l-20 -113h121l-27 -153h-121l-130 -739h-256l71 405h-434zM990 739h-434l-21 -121h434z" />
    <glyph glyph-name="Igrave.smcp" horiz-adv-x="536" 
d="M577 1156h-216l-174 334h292zM318 1005h255l-177 -1005h-255z" />
    <glyph glyph-name="Iacute.smcp" horiz-adv-x="536" 
d="M574 1487h292l-292 -334h-216zM318 1005h255l-177 -1005h-255z" />
    <glyph glyph-name="Ibreve.smcp" horiz-adv-x="536" 
d="M474 1168q-130 0 -197 82q-68 82 -50 219h185q-6 -58 19 -94t73 -36q51 0 88 35.5t50 94.5h186q-31 -135 -125 -218t-229 -83zM396 0h-255l177 1005h255z" />
    <glyph glyph-name="Icircumflex.smcp" horiz-adv-x="536" 
d="M498 1303l-160 -178h-226l353 370h135l221 -370h-227zM573 1005l-177 -1005h-255l177 1005h255z" />
    <glyph glyph-name="Itilde.smcp" horiz-adv-x="536" 
d="M231 1191l-92 96q136 183 269 183q34 2 80 -21t87.5 -46t65.5 -22q36 0 67 19t70 65l88 -99q-68 -92 -134.5 -135t-141.5 -43q-49 0 -110 37t-86 42q-32 7 -54 3q-41 -6 -109 -79zM396 0h-255l177 1005h255z" />
    <glyph glyph-name="Idieresis.smcp" horiz-adv-x="536" 
d="M822 1328q-10 -61 -55 -98.5t-107 -37.5q-60 0 -92 38q-31 37 -21 98q11 61 55 99t106 38q61 0 93 -38q31 -37 21 -99zM294 1192q-60 0 -91 37.5t-21 98.5q10 60 55 98.5t105 38.5q61 0 92.5 -38t21.5 -99q-10 -60 -55.5 -98t-106.5 -38zM573 1005l-177 -1005h-255
l177 1005h255z" />
    <glyph glyph-name="Imacron.smcp" horiz-adv-x="536" 
d="M219 1393h591l-31 -174h-591zM318 1005h255l-177 -1005h-255z" />
    <glyph glyph-name="Idotaccent.smcp" horiz-adv-x="536" 
d="M651 1330q-12 -65 -60 -106t-114 -41q-64 0 -99 41q-34 40 -22 106q11 65 59.5 106.5t113.5 41.5t99 -41t23 -107zM396 0h-255l177 1005h255z" />
    <glyph glyph-name="Iogonek.smcp" horiz-adv-x="536" 
d="M152 -467q-117 0 -174.5 54t-40.5 147q26 146 236 266h-32l177 1005h255l-177 -1005h-27q-216 -122 -229 -207q-7 -35 15 -56t66 -21q59 0 117 27l26 -158q-91 -52 -212 -52z" />
    <glyph glyph-name="Idotbelow.smcp" horiz-adv-x="536" 
d="M573 1005l-177 -1005h-255l177 1005h255zM191 -430q-63 0 -97 42q-35 42 -24 104q11 63 60.5 105.5t112.5 42.5q64 0 100 -43q35 -43 24 -105q-10 -63 -61 -104.5t-115 -41.5z" />
    <glyph glyph-name="Jcircumflex.smcp" horiz-adv-x="889" 
d="M825 1303l-160 -178h-226l353 370h135l221 -370h-227zM27 153l190 165q70 -109 162 -109q139 0 167 171l110 626h255l-112 -636q-32 -185 -152.5 -288t-307.5 -103q-98 0 -183 45.5t-129 128.5z" />
    <glyph glyph-name="Kcommaaccent.smcp" horiz-adv-x="1098" 
d="M450 305l-54 -306h-255l177 1007h255l-66 -378l420 378h326l-486 -434l320 -573h-302l-221 403zM664 -106l-137 -422h-196l81 422h252z" />
    <glyph glyph-name="Lacute.smcp" horiz-adv-x="952" 
d="M586 1487h292l-292 -334h-216zM434 213h517l-38 -213h-772l177 1005h255z" />
    <glyph glyph-name="Lcaron.smcp" horiz-adv-x="957" 
d="M434 212h517l-37 -212h-773l177 1005h256zM868 625h-187l70 377h243z" />
    <glyph glyph-name="Lcommaaccent.smcp" horiz-adv-x="952" 
d="M434 213h517l-38 -213h-772l177 1005h255zM507 -528h-196l81 422h252z" />
    <glyph glyph-name="Lslash.smcp" horiz-adv-x="1022" 
d="M503 212h517l-37 -212h-773l86 489l-147 -9l27 153l147 10l64 362h256l-61 -346l252 17l-27 -154l-252 -16z" />
    <glyph glyph-name="Ldot.smcp" horiz-adv-x="955" 
d="M914 0h-773l177 1005h256l-140 -793h517zM946 516q-10 -64 -59.5 -105.5t-114.5 -41.5t-98 41q-34 40 -23 106q10 64 59 105.5t114 41.5q64 0 99 -41q34 -40 23 -106z" />
    <glyph glyph-name="Nacute.smcp" horiz-adv-x="1235" 
d="M926 1153h-216l216 334h292zM391 0h-250l177 1005h212l386 -605l106 605h250l-177 -1005h-212l-386 599z" />
    <glyph glyph-name="Ncaron.smcp" horiz-adv-x="1235" 
d="M903 1133h-135l-222 370h226l97 -178l159 178h227zM391 0h-250l177 1005h212l386 -605l106 605h250l-177 -1005h-212l-386 599z" />
    <glyph glyph-name="Ntilde.smcp" horiz-adv-x="1235" 
d="M578 1191l-92 96q136 183 269 183q34 2 80 -21t87.5 -46t65.5 -22q36 0 67 19t70 65l88 -99q-68 -92 -134.5 -135t-141.5 -43q-49 0 -110 37t-86 42q-31 7 -54 3q-41 -6 -109 -79zM391 0h-250l177 1005h212l386 -605l106 605h250l-177 -1005h-212l-386 599z" />
    </font>
</defs>
</svg>
