<?xml version="1.0" standalone="no"?>
<!DOCTYPE svg PUBLIC "-//W3C//DTD SVG 1.1//EN" "http://www.w3.org/Graphics/SVG/1.1/DTD/svg11.dtd" >
<svg xmlns="http://www.w3.org/2000/svg" xmlns:xlink="http://www.w3.org/1999/xlink" version="1.1">
<metadata>
Created by FontForge 20170731 at Sun Sep 13 23:32:38 2020
 By Aleksey,,,
Copyright (c) 2020 by TipoType Team. All rights reserved.
</metadata>
<defs>
<font id="Mundial-Bold" horiz-adv-x="1427" >
  <font-face 
    font-family="Mundial"
    font-weight="700"
    font-stretch="normal"
    units-per-em="2048"
    panose-1="0 0 0 0 0 0 0 0 0 0"
    ascent="1638"
    descent="-410"
    x-height="960"
    cap-height="1358"
    bbox="-270 -538 2618 2296"
    underline-thickness="150"
    underline-position="-500"
    unicode-range="U+0008-FB04"
  />
<missing-glyph horiz-adv-x="1441" 
d="M722 776l-243 242l-97 -97l242 -240l-244 -245l97 -97l245 242l243 -242l97 97l-244 245l242 240l-97 97zM1230 0h-1018v1358h1018v-1358z" />
    <glyph glyph-name="f_f" unicode="ff" horiz-adv-x="1429" 
d="M30 703v257h158v84q0 156 99 267q50 55 133.5 86t187.5 31q97 0 205 -32l-33 -256q-56 24 -126 24q-74 0 -118 -34t-44 -104v-66h352v84q0 156 99 267q50 55 133.5 86t187.5 31q97 0 205 -32l-33 -256q-56 24 -126 24q-74 0 -118 -34t-44 -104v-66h266v-257h-255v-703
h-315v703h-341v-703h-315v703h-158z" />
    <glyph glyph-name="fi" unicode="fi" horiz-adv-x="1288" 
d="M30 703v257h158v84q0 157 92 267q47 55 124 86t174 31q91 0 195 -32l-33 -256q-46 24 -109 24t-101 -34t-38 -104v-66h246v-257h-235v-703h-315v703h-158zM987 1083q-76 0 -124 48t-48 124q0 77 48 125t124 48q77 0 125.5 -48t48.5 -125t-48.5 -124.5t-125.5 -47.5z
M835 0v960h315v-960h-315z" />
    <glyph glyph-name="fl" unicode="fl" horiz-adv-x="1288" 
d="M188 703h-158v257h158v84q0 157 92 267q47 55 124 86t174 31q91 0 195 -32l-33 -256q-46 24 -109 24t-101 -34t-38 -104v-66h246v-257h-235v-703h-315v703zM1150 0h-315v1408h315v-1408z" />
    <glyph glyph-name="f_f_i" unicode="ffi" horiz-adv-x="1944" 
d="M30 703v257h158v84q0 156 99 267q50 55 133.5 86t187.5 31q97 0 205 -32l-33 -256q-56 24 -126 24q-74 0 -118 -34t-44 -104v-66h352v84q0 157 92 267q47 55 124 86t174 31q91 0 195 -32l-33 -256q-46 24 -109 24t-101 -34t-38 -104v-66h246v-257h-235v-703h-315v703
h-341v-703h-315v703h-158zM1643 1083q-76 0 -124 48t-48 124q0 77 48 125t124 48q77 0 125.5 -48t48.5 -125t-48.5 -124.5t-125.5 -47.5zM1491 0v960h315v-960h-315z" />
    <glyph glyph-name="f_f_l" unicode="ffl" horiz-adv-x="1944" 
d="M30 703v257h158v84q0 156 99 267q50 55 133.5 86t187.5 31q97 0 205 -32l-33 -256q-56 24 -126 24q-74 0 -118 -34t-44 -104v-66h352v84q0 157 92 267q47 55 124 86t174 31q91 0 195 -32l-33 -256q-46 24 -109 24t-101 -34t-38 -104v-66h246v-257h-235v-703h-315v703
h-341v-703h-315v703h-158zM1491 0v1408h315v-1408h-315z" />
    <glyph glyph-name=".notdef" horiz-adv-x="1441" 
d="M722 776l-243 242l-97 -97l242 -240l-244 -245l97 -97l245 242l243 -242l97 97l-244 245l242 240l-97 97zM1230 0h-1018v1358h1018v-1358z" />
    <glyph glyph-name="uni0000" horiz-adv-x="23" 
 />
    <glyph glyph-name="uni0000" horiz-adv-x="23" 
 />
    <glyph glyph-name="uni000D" unicode="&#xd;" horiz-adv-x="507" 
 />
    <glyph glyph-name="uni0008" horiz-adv-x="0" 
 />
    <glyph glyph-name="space" unicode=" " horiz-adv-x="469" 
 />
    <glyph glyph-name="exclam" unicode="!" horiz-adv-x="621" 
d="M198 408l-59 950h344l-57 -950h-228zM435 30q-50 -50 -125 -50t-124 50q-50 50 -50 122q0 73 50 123q49 49 124 49t125 -49q50 -50 50 -123q0 -72 -50 -122z" />
    <glyph glyph-name="quotedbl" unicode="&#x22;" horiz-adv-x="894" 
d="M145 918l-53 510h299l-53 -510h-193zM557 918l-53 510h299l-54 -510h-192z" />
    <glyph glyph-name="numbersign" unicode="#" horiz-adv-x="1449" 
d="M280 312h-221l40 227h223l54 301h-223l42 226h222l52 292h255l-49 -292h240l52 292h256l-51 -292h221l-40 -226h-223l-55 -301h223l-42 -227h-221l-56 -312h-257l56 312h-241l-56 -312h-257zM875 840h-243l-55 -301h243z" />
    <glyph glyph-name="dollar" unicode="$" horiz-adv-x="1259" 
d="M68 292l247 180q90 -138 236 -181v258q-39 12 -99 32q-43 14 -92 36q-88 38 -153 97q-99 90 -103 259q0 113 64 204t165 141q99 49 218 58v160h131v-163q278 -35 449 -285l-243 -179q-89 129 -206 167v-250l2 -1q2 -1 3 -1q75 -24 144 -50q60 -24 119 -51q62 -30 99 -60
q136 -106 129 -270q0 -95 -41.5 -174t-114.5 -129q-144 -98 -340 -109v-157h-131v161q-164 20 -289 98q-130 80 -194 209zM846 382q0 43 -38 71.5t-126 56.5v-232q72 6 118 34.5t46 69.5zM436 979q0 -40 27 -64.5t88 -46.5v217q-53 -9 -84 -37.5t-31 -68.5z" />
    <glyph glyph-name="percent" unicode="%" horiz-adv-x="1800" 
d="M698 735q-109 -106 -273 -106q-165 0 -271 106q-108 107 -108 266q0 162 108 270q107 107 271 107q163 0 273 -107q108 -108 108 -270q0 -159 -108 -266zM1647 86q-109 -106 -273 -106q-165 0 -271 106q-108 106 -108 266q0 162 108 270q107 107 271 107q163 0 273 -107
q108 -108 108 -270q0 -160 -108 -266zM451 0v26l734 1332h165v-24l-732 -1334h-167zM1374 508q-65 0 -107 -45q-43 -44 -43 -111q0 -65 43 -108q42 -44 107 -44q64 0 106 44q41 44 41 108q0 65 -41 111q-42 45 -106 45zM425 1157q-65 0 -107 -45q-43 -44 -43 -111
q0 -65 43 -108q42 -44 107 -44q64 0 106 44q41 44 41 108q0 65 -41 111q-42 45 -106 45z" />
    <glyph glyph-name="ampersand" unicode="&#x26;" horiz-adv-x="1476" 
d="M64 378q0 222 300 357q-145 157 -145 287q0 167 124 261q124 95 338 95q191 0 313 -98q121 -97 121 -253q0 -119 -101 -214q-84 -79 -203 -139l191 -180q30 36 40.5 79.5t8.5 121.5h300q5 -231 -136 -400l299 -295h-378l-124 114q-158 -134 -402 -134q-146 0 -268 47.5
t-199 138.5q-79 91 -79 212zM809 301l-272 256q-139 -57 -139 -163q0 -59 64 -102t162 -43q109 0 185 52zM680 1110q-60 0 -97.5 -31t-37.5 -83q0 -61 92 -156q171 74 171 163q0 45 -33.5 76t-94.5 31z" />
    <glyph glyph-name="quotesingle" unicode="'" horiz-adv-x="482" 
d="M391 1428l-53 -510h-193l-53 510h299z" />
    <glyph glyph-name="parenleft" unicode="(" horiz-adv-x="685" 
d="M689 -400h-293q-145 189 -233 439q-89 252 -89 541q0 523 322 980h293q-300 -476 -300 -980t300 -980z" />
    <glyph glyph-name="parenright" unicode=")" horiz-adv-x="685" 
d="M290 -400h-293q300 476 300 980t-300 980h293q145 -189 233 -438q89 -252 89 -542q0 -523 -322 -980z" />
    <glyph glyph-name="asterisk" unicode="*" horiz-adv-x="947" 
d="M340 685l-174 119l152 186l-232 74l69 190l222 -82l-12 236h218l-12 -236l221 82l70 -190l-233 -74l153 -184l-174 -121l-135 199z" />
    <glyph glyph-name="plus" unicode="+" horiz-adv-x="1195" 
d="M34 542v283h398v383h327v-383h402v-283h-402v-391h-327v391h-398z" />
    <glyph glyph-name="comma" unicode="," horiz-adv-x="562" 
d="M17 -263l137 516h312l-193 -516h-256z" />
    <glyph glyph-name="hyphen" unicode="-" horiz-adv-x="954" 
d="M113 668h729v-244h-729v244z" />
    <glyph glyph-name="period" unicode="." horiz-adv-x="514" 
d="M133 30q-50 50 -50 122q0 73 50 123q49 49 124 49t125 -49q50 -50 50 -123q0 -72 -50 -122t-125 -50t-124 50z" />
    <glyph glyph-name="slash" unicode="/" horiz-adv-x="1131" 
d="M796 1529h311l-770 -1929h-310z" />
    <glyph glyph-name="zero" unicode="0" horiz-adv-x="1310" 
d="M656 -20q-144 0 -255 52.5t-180 148.5q-136 190 -136 488q0 300 134 499q68 100 180 155t257 55q179 -1 301.5 -82t187.5 -223q81 -172 81 -404q0 -148 -34 -271t-101.5 -217.5t-178.5 -147.5t-256 -53zM410 680q0 -249 101 -355q57 -60 145 -60q67 0 116.5 35t77.5 98
q51 116 51 282q0 172 -53 288q-59 125 -192 125q-67 0 -116.5 -34.5t-77.5 -96.5q-52 -117 -52 -282z" />
    <glyph glyph-name="one" unicode="1" horiz-adv-x="794" 
d="M631 0h-329v1075h-279v283h608v-1358z" />
    <glyph glyph-name="two" unicode="2" horiz-adv-x="1163" 
d="M319 899l-257 122q50 134 165 237q62 56 149.5 88t187.5 32q235 0 374 -121t139 -324q0 -117 -79 -227q-35 -48 -89 -97q-55 -50 -100 -85q-58 -44 -111 -83q-8 -6 -18.5 -13.5t-13.5 -9.5q-145 -107 -158 -136h577v-282h-985v120q0 98 69 201q66 101 127 156
q55 49 176 144q6 4 14.5 11t11.5 10q126 98 165 138q72 77 74 149q0 74 -49 120.5t-128 46.5q-73 0 -137.5 -53.5t-103.5 -143.5z" />
    <glyph glyph-name="three" unicode="3" horiz-adv-x="1165" 
d="M575 -20q-185 0 -318 94q-133 93 -193 250l242 132q92 -195 272 -195q77 0 127 43q51 42 51 105q0 73 -53 115t-145 42h-203v241h203q77 0 130 44t53 109q0 60 -49 98.5t-126 38.5q-170 0 -249 -177l-244 122q51 129 169 227q61 51 147.5 80t184.5 29q220 0 356 -112
t136 -295q0 -94 -49 -165.5t-135 -110.5q91 -37 145 -117t54 -183q0 -184 -140 -300q-139 -115 -366 -115z" />
    <glyph glyph-name="four" unicode="4" horiz-adv-x="1213" 
d="M654 0v340h-621v227l554 791h377v-750h197v-268h-197v-340h-310zM654 988l-265 -380h265v380z" />
    <glyph glyph-name="five" unicode="5" horiz-adv-x="1159" 
d="M559 -20q-180 0 -309.5 87.5t-199.5 245.5l260 138q92 -188 246 -188q88 0 149 55q60 56 60 136q0 86 -57 140q-59 53 -148 53q-134 0 -213 -111l-233 102l77 720h818v-283h-554l-25 -239q20 19 75 35q52 16 119 16q213 0 340 -118t127 -317q0 -212 -147 -342
q-146 -130 -385 -130z" />
    <glyph glyph-name="six" unicode="6" horiz-adv-x="1239" 
d="M640 -20q-113 0 -206 33t-157 90.5t-108 138t-64 173t-20 197.5q0 363 173 565q172 201 489 201q109 0 192.5 -19t166.5 -62l-65 -258q-135 66 -271 66q-68 0 -125 -15.5t-106 -49t-80 -95t-39 -145.5q38 51 115 83q78 32 170 32q195 0 330 -108q68 -54 106 -141.5
t38 -196.5q0 -225 -149 -357q-150 -132 -390 -132zM496 598q-60 -57 -60 -144t60 -144t148 -57t148 57t60 144t-60 144t-148 57t-148 -57z" />
    <glyph glyph-name="seven" unicode="7" horiz-adv-x="1054" 
d="M41 1071v287h988v-242q-367 -568 -543 -1116h-339q241 656 540 1071h-646z" />
    <glyph glyph-name="eight" unicode="8" horiz-adv-x="1202" 
d="M81 381q0 113 58.5 198.5t159.5 129.5q-86 38 -138 114t-52 176q0 95 39.5 170t110.5 121q139 88 342 88q99 0 185.5 -22t156.5 -66.5t110.5 -119t40.5 -171.5q0 -100 -52 -176t-138 -114q101 -44 159.5 -129.5t58.5 -198.5q0 -103 -43.5 -182.5t-118 -126t-165.5 -69.5
t-194 -23q-81 0 -155.5 14t-141.5 45.5t-116 77t-78 113.5t-29 151zM737 527q-55 46 -136 46t-136 -46q-56 -47 -56 -125q0 -76 57 -121q55 -46 135 -46t136 46q56 45 56 121q0 78 -56 125zM434 970q0 -66 44 -116q43 -49 123 -49q75 0 121 49t46 116q0 65 -46 110
q-47 44 -121 44q-73 0 -120 -44q-47 -45 -47 -110z" />
    <glyph glyph-name="nine" unicode="9" horiz-adv-x="1242" 
d="M538 443q-195 0 -330 109q-68 54 -106 142t-38 197q0 224 150 356q149 131 389 131q116 0 209.5 -33t157 -90.5t106.5 -138t62.5 -173t19.5 -197.5q0 -367 -163 -566q-164 -200 -469 -200q-234 0 -401 102l99 257q152 -82 293 -82q267 0 306 301q-42 -52 -118 -83.5
t-167 -31.5zM747 1050q-60 57 -148 57t-148 -57t-60 -144t60 -144t148 -57t148 57t60 144t-60 144z" />
    <glyph glyph-name="colon" unicode=":" horiz-adv-x="572" 
d="M162 30q-50 50 -50 122q0 73 50 123q49 49 124 49t125 -49q50 -50 50 -123q0 -72 -50 -122t-125 -50t-124 50zM162 686q-50 50 -50 122q0 73 50 123q49 49 124 49t125 -49q50 -50 50 -123q0 -72 -50 -122q-52 -50 -125 -50q-74 0 -124 50z" />
    <glyph glyph-name="semicolon" unicode=";" horiz-adv-x="603" 
d="M292 -263h-256l137 516h312zM196 686q-50 50 -50 122q0 73 50 123q49 49 124 49t125 -49q50 -50 50 -123q0 -72 -50 -122q-52 -50 -125 -50q-74 0 -124 50z" />
    <glyph glyph-name="less" unicode="&#x3c;" horiz-adv-x="1243" 
d="M1109 408v-319l-1027 462v257l1027 463v-320l-629 -271z" />
    <glyph glyph-name="equal" unicode="=" horiz-adv-x="1318" 
d="M1202 594v-287h-1085v287h1085zM117 766v286h1085v-286h-1085z" />
    <glyph glyph-name="greater" unicode="&#x3e;" horiz-adv-x="1243" 
d="M1162 809v-257l-1027 -463v320l629 271l-629 272v319z" />
    <glyph glyph-name="question" unicode="?" horiz-adv-x="1075" 
d="M295 903l-257 122q61 163 194 258t314 95q191 0 324 -93q66 -46 102.5 -122t36.5 -172q6 -139 -145 -284q-34 -35 -78 -72q-44 -39 -62 -59q-4 -5 -27 -28q-27 -28 -27 -29q-8 -7 -21 -27q-20 -26 -30 -70q-5 -25 -5 -47h-254q-11 53 -11 83q0 74 33 142q12 25 40 59
q32 37 44 49q4 4 21.5 20.5t31.5 29.5q13 14 17 16q89 83 115 117q28 37 28 84q0 52 -38 86.5t-105 34.5q-78 0 -140 -51t-101 -142zM490 -20q-76 0 -124 48t-48 124q0 77 48 125t124 48q77 0 125.5 -48t48.5 -125q0 -76 -48 -124q-50 -48 -126 -48z" />
    <glyph glyph-name="at" unicode="@" horiz-adv-x="1883" 
d="M65 535q0 193 72 358q69 163 193 277q124 113 288 175.5t345 62.5q169 0 325 -63q154 -63 270 -171q115 -110 183 -263q68 -156 68 -326q0 -237 -92 -371q-92 -133 -242 -131q-188 0 -270 178q-37 -72 -117 -124q-82 -54 -179 -54q-175 0 -304 129t-129 318
q0 194 113 322t285 128q166 0 254 -109l10 89h253v-597q0 -64 27 -101t74 -37q83 0 126 100q43 99 43 260q0 139 -52.5 265.5t-146.5 218.5q-95 92 -227.5 144.5t-280.5 52.5q-334 0 -539 -202q-206 -203 -206 -531q0 -204 97 -370q97 -165 265 -260q168 -93 372 -93
q210 0 417 108l58 -120q-238 -132 -475 -132q-178 0 -337 64q-162 65 -280 177q-118 111 -190 277q-71 165 -71 351zM736 535q0 -87 57 -147q57 -61 139 -61t139 61q56 61 56 147q0 87 -56 148q-57 60 -139 61q-82 0 -139 -60q-57 -62 -57 -149z" />
    <glyph glyph-name="A" unicode="A" horiz-adv-x="1456" 
d="M349 0h-352l536 1358h390l537 -1358h-352l-92 249h-575zM922 505l-193 524l-194 -524h387z" />
    <glyph glyph-name="B" unicode="B" horiz-adv-x="1343" 
d="M843 0h-680v1358h635q193 0 312 -97q119 -98 119 -265q0 -201 -189 -309q227 -86 227 -316q0 -159 -115 -265t-309 -106zM492 553v-279h268q68 0 109 42q41 43 41 96q0 59 -40 100q-41 41 -110 41h-268zM492 1083v-278h255q63 0 101.5 40t38.5 99q0 54 -41 97
q-40 42 -109 42h-245z" />
    <glyph glyph-name="C" unicode="C" horiz-adv-x="1439" 
d="M790 -20q-200 0 -363 91t-258 252t-95 357t95 357q94 159 258 251q163 90 363 90q181 0 348 -92q165 -93 258 -247l-253 -187q-48 72 -94 116t-111 73q-69 29 -148 29q-171 0 -274 -109q-105 -109 -105 -281t105 -281q104 -111 274 -111q216 0 359 216l252 -184
q-98 -162 -258 -250q-161 -90 -353 -90z" />
    <glyph glyph-name="D" unicode="D" horiz-adv-x="1523" 
d="M757 0h-594v1358h594q140 0 270 -53q128 -54 221 -144q94 -92 147.5 -218t53.5 -263q0 -138 -54 -264q-55 -125 -147 -217q-92 -90 -221 -145q-129 -54 -270 -54zM492 1081v-805h233q168 0 276 118q108 117 108 286q0 170 -108 285q-108 116 -276 116h-233z" />
    <glyph glyph-name="E" unicode="E" horiz-adv-x="1209" 
d="M1136 0h-973v1358h963v-277h-634v-252h555v-276h-555v-277h644v-276z" />
    <glyph glyph-name="F" unicode="F" horiz-adv-x="1193" 
d="M492 0h-329v1358h988v-277h-659v-259h517v-277h-517v-545z" />
    <glyph glyph-name="G" unicode="G" horiz-adv-x="1534" 
d="M74 680q0 145 55 275t152 224t229.5 146.5t279.5 52.5q180 0 337 -85q155 -85 246 -220l-253 -187q-127 184 -330 184q-169 0 -274 -109t-105 -281t105 -281q105 -111 274 -111q121 0 208.5 50t117.5 142h-358v276h707q6 -59 6 -142q0 -180 -90 -326q-92 -146 -246 -227
q-156 -81 -345 -81q-199 0 -363 92q-163 92 -258 252q-95 161 -95 356z" />
    <glyph glyph-name="H" unicode="H" horiz-adv-x="1571" 
d="M163 0v1358h329v-527h588v527h329v-1358h-329v555h-588v-555h-329z" />
    <glyph glyph-name="I" unicode="I" horiz-adv-x="654" 
d="M163 1358h329v-1358h-329v1358z" />
    <glyph glyph-name="J" unicode="J" horiz-adv-x="1122" 
d="M-7 225l218 211q108 -158 246 -158q87 0 137 56t50 158v866h329v-892q0 -221 -141 -353q-140 -133 -382 -133q-152 0 -271 68t-186 177z" />
    <glyph glyph-name="K" unicode="K" horiz-adv-x="1442" 
d="M492 406v-406h-329v1358h329v-572l529 572h415l-529 -564l552 -794h-400l-393 585z" />
    <glyph glyph-name="L" unicode="L" horiz-adv-x="1200" 
d="M492 276h689v-276h-1018v1358h329v-1082z" />
    <glyph glyph-name="M" unicode="M" horiz-adv-x="1819" 
d="M492 0h-329v1358h337l410 -886l410 886h337v-1358h-329v734l-308 -654h-220l-308 654v-734z" />
    <glyph glyph-name="N" unicode="N" horiz-adv-x="1618" 
d="M492 820v-820h-329v1358h280l684 -828v828h329v-1358h-285z" />
    <glyph glyph-name="O" unicode="O" horiz-adv-x="1568" 
d="M784 -20q-191 0 -353 90q-161 90 -259 252q-97 160 -97 358q0 142 56 274q54 128 151 223q97 94 228.5 147.5t273.5 53.5q145 0 277 -54q133 -57 226 -148q96 -95 151 -222q56 -132 56 -274t-55 -270q-56 -129 -148 -223q-97 -97 -226 -151q-135 -56 -281 -56zM1051 952
q-107 107 -267 107t-265 -107q-106 -107 -106 -272q0 -163 104 -273q103 -109 267 -109q159 0 266 107t107 275q0 165 -106 272z" />
    <glyph glyph-name="P" unicode="P" horiz-adv-x="1344" 
d="M491 444v-444h-328v1358h676q124 2 231.5 -56.5t171 -164.5t61.5 -233q2 -126 -61.5 -233.5t-171 -168.5t-231.5 -58h-348zM768 1078h-277v-354h277q88 0 144 54q54 54 54 126q0 75 -53 125q-53 49 -145 49z" />
    <glyph glyph-name="Q" unicode="Q" horiz-adv-x="1569" 
d="M813 -20q-191 0 -353 90q-161 90 -259 252q-97 160 -97 358q0 142 56 274q54 128 151 223q97 94 228.5 147.5t273.5 53.5q145 0 277 -54q133 -57 226 -148q96 -95 151 -222q56 -132 56 -274q0 -147 -58 -279.5t-164 -231.5l126 -179l-231 -155l-133 189
q-118 -44 -250 -44zM548 952q-106 -107 -106 -272q0 -163 104 -273q103 -109 267 -109q27 0 54 3l-124 176l231 155l136 -192q76 100 76 240q0 165 -106 272q-107 107 -267 107t-265 -107z" />
    <glyph glyph-name="R" unicode="R" horiz-adv-x="1373" 
d="M491 468v-468h-328v1358h686q196 0 330 -124q134 -125 134 -317q0 -142 -72 -250q-73 -107 -195 -160l284 -508h-355l-257 469h-227zM778 1078h-287v-330h287q90 0 144 47t54 122q0 71 -54 116t-144 45z" />
    <glyph glyph-name="S" unicode="S" horiz-adv-x="1264" 
d="M79 292l247 180q58 -90 147.5 -142.5t188.5 -52.5q82 0 139 30q56 29 56 75q0 38 -35 67q-34 28 -73 42q-52 18 -130 41q-34 10 -40 12q-56 17 -103 33q-55 19 -94 35q-90 36 -160 99q-101 88 -107 262q0 121 72 215t184 142q111 48 237 48q334 0 534 -290l-243 -179
q-126 180 -291 180q-71 0 -116 -30.5t-45 -79.5q0 -40 25 -61q31 -28 67 -41q37 -14 100 -33q13 -4 33 -11t26 -9q75 -24 144 -50q60 -24 119 -51q61 -30 99 -60q136 -106 129 -270q0 -100 -45.5 -181.5t-124.5 -131.5q-160 -100 -365 -100q-190 0 -344 82q-156 81 -231 230
z" />
    <glyph glyph-name="T" unicode="T" horiz-adv-x="1160" 
d="M417 1075h-402v283h1131v-283h-401v-1075h-328v1075z" />
    <glyph glyph-name="U" unicode="U" horiz-adv-x="1446" 
d="M148 489v869h329v-851q0 -112 67 -176q66 -66 179 -66q114 0 180.5 65t66.5 177v851h329v-869q0 -237 -154 -373t-422 -136q-271 0 -423 134t-152 375z" />
    <glyph glyph-name="V" unicode="V" horiz-adv-x="1400" 
d="M917 0h-433l-481 1358h359l340 -1027l337 1027h359z" />
    <glyph glyph-name="W" unicode="W" horiz-adv-x="2049" 
d="M383 0l-366 1358h332l265 -1009l280 989h262l280 -989l265 1009h332l-366 -1358h-418l-224 744l-224 -744h-418z" />
    <glyph glyph-name="X" unicode="X" horiz-adv-x="1401" 
d="M377 0h-385l515 695l-489 663h385l298 -423l298 423h385l-489 -663l515 -695h-385l-324 464z" />
    <glyph glyph-name="Y" unicode="Y" horiz-adv-x="1424" 
d="M550 505l-548 853h403l314 -518l319 518h385l-544 -853v-505h-329v505z" />
    <glyph glyph-name="Z" unicode="Z" horiz-adv-x="1211" 
d="M1148 0h-1081v220l638 857h-628v281h1061v-222l-636 -856h646v-280z" />
    <glyph glyph-name="bracketleft" unicode="[" horiz-adv-x="792" 
d="M766 -177v-223h-606v1953h606v-223h-301v-1507h301z" />
    <glyph glyph-name="backslash" unicode="\" horiz-adv-x="1131" 
d="M1105 -400h-310l-770 1929h311z" />
    <glyph glyph-name="bracketright" unicode="]" horiz-adv-x="792" 
d="M633 1553v-1953h-606v223h301v1507h-301v223h606z" />
    <glyph glyph-name="asciicircum" unicode="^" horiz-adv-x="1286" 
d="M410 510h-368l478 848h246l479 -848h-368l-234 468z" />
    <glyph glyph-name="underscore" unicode="_" horiz-adv-x="1153" 
d="M1079 -60v-230h-1004v230h1004z" />
    <glyph glyph-name="grave" unicode="`" horiz-adv-x="797" 
d="M661 1473h-261l-263 334h362z" />
    <glyph glyph-name="a" unicode="a" horiz-adv-x="1113" 
d="M433 -20q-157 0 -257 79q-101 80 -101 213q-1 137 119 223t287 83q102 0 192 -25v19q0 58 -48.5 94t-131.5 36q-67 0 -127 -29t-104 -78l-174 187q70 77 182 138q110 60 250 60q220 0 344 -109t124 -301v-570h-299v98q-40 -53 -108 -85.5t-148 -32.5zM377 291
q0 -43 35 -69.5t90 -26.5q74 0 123 46q48 47 48 121q-56 25 -136 25q-75 0 -117.5 -25.5t-42.5 -70.5z" />
    <glyph glyph-name="b" unicode="b" horiz-adv-x="1253" 
d="M444 0h-305v1408h306v-549q97 121 291 121q200 0 325 -141q123 -143 123 -361t-123 -357q-125 -141 -325 -141q-87 0 -165 26q-76 25 -117 68zM655 698q-89 0 -147 -61t-58 -157t58 -157t147 -61q90 0 152 62q60 62 60 156q0 98 -60 158t-152 60z" />
    <glyph glyph-name="c" unicode="c" horiz-adv-x="1080" 
d="M574 -20q-221 0 -363 142q-143 143 -143 358q0 216 147 358q146 142 369 142q150 0 268 -72q119 -74 178 -185l-243 -173q-27 66 -81 103t-122 37q-89 0 -146 -60q-58 -59 -58 -150q0 -93 58 -152q57 -61 146 -61q132 0 210 137l238 -174q-157 -250 -458 -250z" />
    <glyph glyph-name="d" unicode="d" horiz-adv-x="1253" 
d="M518 -20q-201 0 -324 141q-124 139 -124 357q0 219 124 361q123 141 324 141q194 0 291 -121v549h306v-1408h-305l-10 74q-43 -44 -118 -69t-164 -25zM387 480q0 -95 61 -156q60 -62 151 -62q89 0 147 61t58 157t-58 157t-147 61q-92 0 -152 -60t-60 -158z" />
    <glyph glyph-name="e" unicode="e" horiz-adv-x="1103" 
d="M213 120q-144 140 -144 360t135 360q134 140 350 140q188 0 328 -113q71 -57 111.5 -149.5t40.5 -206.5q0 -53 -9 -112h-648q9 -74 71 -113q61 -40 141 -40q59 0 115.5 32t99.5 87l200 -176q-58 -91 -168 -150q-109 -59 -251 -59q-227 0 -372 140zM563 732
q-77 0 -127 -41.5t-59 -106.5h366q-1 58 -54 103t-126 45z" />
    <glyph glyph-name="f" unicode="f" horiz-adv-x="773" 
d="M188 0v703h-158v257h158v84q0 156 99 267q50 55 133.5 86t187.5 31q97 0 205 -32l-33 -256q-56 24 -126 24q-74 0 -118 -34t-44 -104v-66h266v-257h-255v-703h-315z" />
    <glyph glyph-name="g" unicode="g" horiz-adv-x="1253" 
d="M74 -212l187 187q69 -66 138.5 -95.5t156.5 -29.5q43 0 84.5 11t79 33.5t61 62t23.5 90.5v54q-97 -121 -283 -121q-192 0 -318 142t-126 357q0 217 126 359t318 142q184 0 283 -121l10 101h305v-926q0 -92 -32.5 -168.5t-87 -128.5t-127 -88t-151.5 -52.5t-161 -16.5
q-151 0 -276.5 54.5t-209.5 153.5zM596 700q-91 0 -149 -61t-58 -160q0 -98 58 -159q59 -62 149 -62t149 62q58 61 58 159q0 97 -57 159q-58 60 -150 62z" />
    <glyph glyph-name="h" unicode="h" horiz-adv-x="1216" 
d="M455 534v-534h-316v1408h315v-531q97 103 282 103q144 0 249.5 -96.5t105.5 -259.5v-624h-315v534q0 75 -49 117q-50 41 -112 41q-65 0 -112 -41q-48 -42 -48 -117z" />
    <glyph glyph-name="i" unicode="i" horiz-adv-x="592" 
d="M139 0v960h315v-960h-315zM119 1255q0 77 48 125t124 48q77 0 125.5 -48t48.5 -125q0 -76 -48 -124q-49 -48 -126 -48q-76 0 -124 48t-48 124z" />
    <glyph glyph-name="j" unicode="j" horiz-adv-x="578" 
d="M-147 -377l26 248q74 -21 119 -21q127 0 127 139v971h315v-994q0 -94 -30.5 -170t-84.5 -122q-109 -94 -258 -94q-140 0 -214 43zM291 1083q-76 0 -124 48t-48 124q0 77 48 125t124 48q77 0 125.5 -48t48.5 -125q0 -76 -48 -124q-49 -48 -126 -48z" />
    <glyph glyph-name="k" unicode="k" horiz-adv-x="1174" 
d="M139 0v1408h315v-751l301 303h411l-415 -406l431 -554h-384l-257 359l-87 -86v-273h-315z" />
    <glyph glyph-name="l" unicode="l" horiz-adv-x="592" 
d="M139 1408h315v-1408h-315v1408z" />
    <glyph glyph-name="m" unicode="m" horiz-adv-x="1845" 
d="M454 0h-315v960h289l10 -101q48 59 126 90t171 31q99 0 183 -41q81 -41 119 -119q55 77 140.5 118.5t182.5 41.5q146 0 250 -89q51 -44 80.5 -114t29.5 -153v-624h-315v534q0 77 -46 117q-47 41 -111 41t-113 -41q-49 -42 -49 -117v-534h-315v534q0 75 -47 117
q-47 41 -110 41q-65 0 -112 -41q-48 -42 -48 -117v-534z" />
    <glyph glyph-name="n" unicode="n" horiz-adv-x="1162" 
d="M427 534v-534h-315v960h289l10 -101q48 59 126 90t171 31q144 0 249.5 -96.5t105.5 -259.5v-624h-315v534q0 75 -49 117q-50 41 -112 41q-65 0 -112 -41q-48 -42 -48 -117z" />
    <glyph glyph-name="o" unicode="o" horiz-adv-x="1167" 
d="M215 123q-147 143 -147 357q0 216 147 358q146 142 369 142t369 -142q147 -142 147 -358q0 -214 -147 -357q-148 -143 -369 -143t-369 143zM380 480q0 -93 58 -152q57 -61 146 -61t147 61q57 60 57 152q0 90 -57 150q-59 60 -147 60q-89 0 -146 -60q-58 -59 -58 -150z
" />
    <glyph glyph-name="p" unicode="p" horiz-adv-x="1253" 
d="M454 -400h-315v1360h296l10 -101q97 121 291 121q200 0 325 -141q123 -143 123 -361t-123 -357q-125 -141 -325 -141q-88 0 -163.5 24.5t-118.5 66.5v-471zM655 698q-89 0 -147 -61t-58 -157t58 -157t147 -61q90 0 152 62q60 62 60 156q0 98 -60 158t-152 60z" />
    <glyph glyph-name="q" unicode="q" horiz-adv-x="1249" 
d="M518 -20q-201 0 -324 141q-124 139 -124 357q0 219 124 361q123 141 324 141q194 0 291 -121l10 101h296v-1360h-315v471q-43 -42 -118.5 -66.5t-163.5 -24.5zM387 480q0 -95 61 -156q60 -62 151 -62q89 0 147 61t58 157t-58 157t-147 61q-92 0 -152 -60t-60 -158z" />
    <glyph glyph-name="r" unicode="r" horiz-adv-x="836" 
d="M454 462v-462h-315v960h297l10 -131q34 71 100.5 111t150.5 40q54 0 117 -20l-19 -275q-60 21 -121 21q-102 0 -161 -61t-59 -183z" />
    <glyph glyph-name="s" unicode="s" horiz-adv-x="978" 
d="M65 182l192 173q109 -130 251 -130q104 0 104 59q0 17 -14 28t-45 20q-14 4 -62 16q-30 6 -86 20q-140 36 -220 101q-92 72 -92 200q0 135 110 224q110 87 286 87q134 0 234 -55q98 -54 157 -133l-185 -157q-36 44 -90 72.5t-119 28.5q-54 0 -84 -17t-30 -46
q0 -25 38.5 -41.5t149.5 -42.5q152 -36 241 -100q102 -74 102 -206q0 -131 -113 -217q-115 -86 -284 -86q-296 0 -441 202z" />
    <glyph glyph-name="t" unicode="t" horiz-adv-x="834" 
d="M179 703h-153v257h153v308h305v-308h291v-257h-281v-310q0 -136 142 -136q72 0 155 33l22 -256q-47 -24 -117.5 -39t-137.5 -15q-173 0 -276 89q-103 88 -103 273v361z" />
    <glyph glyph-name="u" unicode="u" horiz-adv-x="1215" 
d="M481 -30q-144 0 -249.5 96.5t-105.5 259.5v634h315v-544q0 -76 49 -116q50 -42 112 -42q65 0 113 42q47 41 47 116v544h315v-960h-289l-10 91q-48 -59 -126 -90t-171 -31z" />
    <glyph glyph-name="v" unicode="v" horiz-adv-x="1089" 
d="M739 0h-388l-333 960h331l196 -652l196 652h331z" />
    <glyph glyph-name="w" unicode="w" horiz-adv-x="1648" 
d="M309 0l-283 960h321l167 -632l187 613h247l186 -613l168 632h321l-283 -960h-368l-148 481l-147 -481h-368z" />
    <glyph glyph-name="x" unicode="x" horiz-adv-x="1088" 
d="M14 0l344 490l-346 470h362l169 -253l166 253h360l-341 -470l349 -490h-350l-184 280l-182 -280h-347z" />
    <glyph glyph-name="y" unicode="y" horiz-adv-x="1125" 
d="M397 -1l-386 961h351l203 -642l198 642h352l-445 -1101q-55 -137 -161.5 -208t-246.5 -71q-104 0 -207 50l43 248q60 -26 112 -26q67 0 117 38t70 109z" />
    <glyph glyph-name="z" unicode="z" horiz-adv-x="929" 
d="M70 0v206l414 494h-414v260h774v-207l-412 -493h442v-260h-804z" />
    <glyph glyph-name="braceleft" unicode="{" horiz-adv-x="777" 
d="M110 455h-87v242h87q59 0 82.5 26.5t23.5 85.5v366q0 189 84 290q90 108 318 108q66 0 132 -6v-234q-9 1 -36 1q-120 0 -159 -40t-39 -157v-332q0 -86 -29.5 -137.5t-99.5 -91.5q70 -40 99.5 -91.5t29.5 -137.5v-319q0 -120 40 -164q39 -45 158 -45q27 0 36 1v-234
q-66 -6 -132 -6q-227 0 -318 114q-84 105 -84 296v353q0 59 -23.5 85.5t-82.5 26.5z" />
    <glyph glyph-name="bar" unicode="|" horiz-adv-x="604" 
d="M160 1758h285v-2158h-285v2158z" />
    <glyph glyph-name="braceright" unicode="}" horiz-adv-x="777" 
d="M28 1332v234q66 6 132 6q227 0 318 -114q84 -105 84 -296v-353q0 -59 23.5 -85.5t82.5 -26.5h87v-242h-87q-59 0 -82.5 -26.5t-23.5 -85.5v-366q0 -189 -84 -290q-90 -108 -318 -108q-66 0 -132 6v234q9 -1 36 -1q120 0 159 40t39 157v332q0 86 29.5 137.5t99.5 91.5
q-70 40 -99.5 91.5t-29.5 137.5v319q0 119 -39 164q-41 45 -159 45q-27 0 -36 -1z" />
    <glyph glyph-name="asciitilde" unicode="~" horiz-adv-x="1382" 
d="M229 381l-152 223q88 101 192 157q103 54 196 54q118 0 238 -67q120 -68 214 -68q70 0 126 34q31 20 51 33q9 6 61 49l151 -223q-89 -103 -191 -156q-103 -55 -196 -55q-22 0 -43 2.5t-44 9t-38 11t-41 15.5t-35.5 15.5t-38 18.5t-33.5 16q-98 48 -179 48
q-54 0 -109 -26.5t-129 -90.5z" />
    <glyph glyph-name="uni00A0" unicode="&#xa0;" horiz-adv-x="507" 
 />
    <glyph glyph-name="exclamdown" unicode="&#xa1;" horiz-adv-x="593" 
d="M467 -396h-344l57 948h228zM171 686q-50 50 -50 122q0 73 50 123q49 49 124 49t125 -49q50 -50 50 -123q0 -72 -50 -122q-52 -50 -125 -50q-74 0 -124 50z" />
    <glyph glyph-name="cent" unicode="&#xa2;" horiz-adv-x="1139" 
d="M95 678q0 195 123 333q121 136 316 162v168h131v-166q133 -14 235 -83q103 -70 157 -171l-243 -173q-45 107 -149 134v-411q98 26 156 131l238 -174q-139 -221 -394 -247v-181h-131v182q-196 23 -317 160q-122 139 -122 336zM534 479v395q-58 -23 -92.5 -75.5
t-34.5 -120.5q0 -69 34.5 -122.5t92.5 -76.5z" />
    <glyph glyph-name="sterling" unicode="&#xa3;" horiz-adv-x="1276" 
d="M1151 264v-264h-1076v215q87 61 124.5 119t36.5 132l-1 142h-153v179h152l-1 115q-1 216 140 347q140 130 380 130q320 0 474 -304l-258 -149q-77 170 -220 170q-84 0 -135.5 -53t-51.5 -139v-117h321v-179h-321v-112q0 -144 -91 -232h680z" />
    <glyph glyph-name="currency" unicode="&#xa4;" horiz-adv-x="1264" 
d="M252 876l-168 166l163 163l166 -167q103 59 218 59q118 0 222 -59l165 167l163 -163l-167 -166q58 -98 58 -214q0 -122 -63 -220l172 -171l-163 -163l-173 175q-102 -54 -214 -54q-111 0 -209 54l-175 -175l-163 163l171 171q-60 100 -60 220q0 116 57 214zM450 662
q0 -73 53 -126t128 -53q76 0 132 53q54 52 54 126q0 76 -54 130q-56 53 -132 53q-75 0 -128 -53q-53 -55 -53 -130z" />
    <glyph glyph-name="yen" unicode="&#xa5;" horiz-adv-x="1479" 
d="M494 635l-464 723h403l314 -518l319 518h385l-461 -723h201v-130h-284v-107h284v-130h-284v-268h-329v268h-289v130h289v107h-289v130h205z" />
    <glyph glyph-name="brokenbar" unicode="&#xa6;" horiz-adv-x="604" 
d="M445 1758v-848h-285v848h285zM160 -400v848h285v-848h-285z" />
    <glyph glyph-name="section" unicode="&#xa7;" horiz-adv-x="1170" 
d="M587 -341q-180 0 -311 76t-205 203l208 154q60 -91 142.5 -140t177.5 -49q86 0 142 35q56 36 56 88q0 47 -38 70q-39 22 -161 59q-44 12 -72 22q-171 56 -259 106.5t-123 111t-38 156.5q0 136 127 227q-107 89 -107 231q0 166 134 268q134 101 329 101q164 0 285.5 -68
t191.5 -190l-208 -154q-54 87 -120 127.5t-161 40.5q-75 0 -123 -33q-49 -33 -49 -81q0 -50 39 -73t168 -63q25 -7 77 -24q166 -54 251 -103t119.5 -108.5t36.5 -153.5q0 -139 -130 -233q110 -87 110 -225q1 -112 -66.5 -200.5t-179 -134.5t-243.5 -43zM556 633
q-64 18 -133 43q-53 -44 -53 -94q0 -61 65 -99q67 -39 205 -79q108 -33 129 -41q63 47 63 101q-5 39 -28.5 64t-79.5 49q-38 15 -74 28q-73 22 -94 28z" />
    <glyph glyph-name="dieresis" unicode="&#xa8;" horiz-adv-x="951" 
d="M664 1488q-67 0 -109 42t-42 109t42 109.5t109 42.5q68 0 110.5 -42.5t42.5 -109.5t-42.5 -109t-110.5 -42zM286 1488q-67 0 -109 42t-42 109t42 109.5t109 42.5q68 0 110.5 -42.5t42.5 -109.5t-42.5 -109t-110.5 -42z" />
    <glyph glyph-name="copyright" unicode="&#xa9;" horiz-adv-x="1649" 
d="M96 680q0 148 61 277q60 131 160 222q100 93 232 146q135 53 275 53q192 0 359 -90q168 -92 269 -253q102 -162 102 -355q0 -148 -60 -278q-60 -131 -159 -223q-103 -94 -233 -145q-133 -54 -278 -54q-144 0 -277 54q-134 54 -233 147q-99 92 -158 223q-60 130 -60 276z
M192 680q0 -126 50.5 -240.5t138.5 -197.5q87 -83 203 -130t240 -47q123 0 239.5 47.5t204.5 130.5t139 198t51 239q0 168 -87 310q-88 141 -234 224q-145 81 -313 81q-166 0 -312 -81q-146 -83 -232 -224q-88 -142 -88 -310zM422 678q0 168 115 282q116 113 291 113
q104 0 191 -49.5t138 -137.5l-70 -49q-94 148 -260 148q-134 0 -222 -88q-89 -89 -89 -219q0 -127 88 -215t220 -88q80 0 151 40t116 108l69 -49q-52 -87 -141 -136q-91 -51 -196 -51q-170 0 -286 113q-115 112 -115 278z" />
    <glyph glyph-name="ordfeminine" unicode="&#xaa;" horiz-adv-x="801" 
d="M334 750q-98 0 -156 51q-60 51 -60 133q0 85 71 138q70 52 184 52q71 0 121 -21v6q0 43 -32.5 71.5t-85.5 28.5q-91 0 -154 -65l-96 126q42 45 114 76q73 32 153 32q129 0 205 -64q75 -64 75 -174v-378h-169v66q-56 -78 -170 -78zM678 505h-554v150h554v-150zM304 945
q0 -26 20.5 -40.5t53.5 -14.5q47 0 81 28q35 29 35 63q-32 23 -93 23q-46 0 -71.5 -15.5t-25.5 -43.5z" />
    <glyph glyph-name="guillemotleft" unicode="&#xab;" horiz-adv-x="1105" 
d="M768 86l-272 394l272 395h260l-254 -395l254 -394h-260zM612 86h-260l-272 394l272 395h260l-254 -395z" />
    <glyph glyph-name="logicalnot" unicode="&#xac;" horiz-adv-x="1304" 
d="M1183 364h-327v346h-796v283h1123v-629z" />
    <glyph glyph-name="uni00AD" unicode="&#xad;" horiz-adv-x="874" 
d="M113 668h649v-244h-649v244z" />
    <glyph glyph-name="registered" unicode="&#xae;" horiz-adv-x="1249" 
d="M622 541q-145 -3 -269 66.5t-195.5 189t-68.5 258.5q-3 139 68.5 258.5t195.5 188.5t269 66q145 3 271 -66t199 -188.5t70 -258.5q3 -139 -70 -259t-199 -189t-271 -66zM622 1488q-186 0 -314 -125q-129 -126 -129 -308q0 -181 129 -305q128 -125 314 -125q188 0 319 125
t131 305q0 182 -130 308q-131 125 -320 125zM517 805h-85v506h216q80 0 127.5 -42t47.5 -113q0 -51 -26.5 -88.5t-71.5 -51.5l123 -211h-99l-110 197h-122v-197zM517 1235v-157h129q42 0 65.5 21t23.5 57t-23.5 57.5t-65.5 21.5h-129z" />
    <glyph glyph-name="macron" unicode="&#xaf;" horiz-adv-x="864" 
d="M137 1705h591v-204h-591v204z" />
    <glyph glyph-name="degree" unicode="&#xb0;" horiz-adv-x="848" 
d="M423 678q-155 0 -255 99q-101 99 -101 249q0 151 101 252q100 100 255 100q156 0 257 -100q102 -100 102 -252q0 -150 -102 -249t-257 -99zM283 1026q0 -61 40 -101q41 -41 100 -41q60 0 99 40.5t39 101.5q0 63 -39 104.5t-99 41.5q-59 0 -100 -42q-40 -43 -40 -104z" />
    <glyph glyph-name="plusminus" unicode="&#xb1;" horiz-adv-x="1281" 
d="M98 758v283h380v317h323v-317h380v-283h-380v-327h-323v327h-380zM1183 275v-275h-1085v275h1085z" />
    <glyph glyph-name="twosuperior" unicode="&#xb2;" horiz-adv-x="755" 
d="M228 1071l-159 101q32 84 119 146q86 60 201 60q133 0 225 -68q91 -69 91 -202q0 -77 -44 -146q-16 -24 -50 -58q-25 -25 -53 -47q-4 -3 -15.5 -11.5t-22.5 -16.5l-22 -16q-8 -6 -21.5 -15.5t-27.5 -19.5t-18 -13q-7 -5 -23 -17q-24 -19 -30 -30h332v-184h-610v78
q0 79 54 152t160 153q2 2 27.5 20.5t28.5 21.5q19 15 26 20q2 1 46 41q14 13 33 41q12 18 12 42q0 39 -27 60.5t-66 21.5q-94 0 -166 -114z" />
    <glyph glyph-name="threesuperior" unicode="&#xb3;" horiz-adv-x="752" 
d="M348 513q-109 0 -191 55q-84 55 -115 128l151 106q10 -17 26 -36t33 -32q45 -36 112 -36q40 0 68.5 23t28.5 63q0 44 -29 66t-72 22h-131v154h131q37 0 66 24t29 57q0 38 -29 60t-72 22q-89 0 -154 -104l-153 105q33 75 115 132q83 56 192 56q134 0 227 -66
q92 -66 92 -185q0 -123 -109 -180q52 -25 83.5 -74.5t31.5 -109.5q0 -79 -47 -138t-121.5 -86.5t-162.5 -25.5z" />
    <glyph glyph-name="acute" unicode="&#xb4;" horiz-adv-x="797" 
d="M299 1807h362l-263 -334h-261z" />
    <glyph glyph-name="paragraph" unicode="&#xb6;" horiz-adv-x="1373" 
d="M622 406h-70q-140 -3 -257 57.5t-185 171t-66 247.5q-2 137 66 247.5t185 171t257 57.5h729v-214h-440v-1544h-219v806zM1175 -400h-214v1429h214v-1429z" />
    <glyph glyph-name="periodcentered" unicode="&#xb7;" horiz-adv-x="556" 
d="M154 392q-50 50 -50 122q0 73 50 123q49 49 124 49t125 -49q50 -50 50 -123q0 -72 -50 -122q-52 -50 -125 -50q-74 0 -124 50z" />
    <glyph glyph-name="cedilla" unicode="&#xb8;" horiz-adv-x="690" 
d="M251 -477q-103 0 -164 30v155q60 -19 131 -19q56 0 88 17.5t32 48.5t-32.5 48.5t-89.5 17.5h-74l82 206h164l-33 -108q106 -15 161.5 -66t55.5 -126q0 -91 -89 -148q-89 -56 -232 -56z" />
    <glyph glyph-name="onesuperior" unicode="&#xb9;" horiz-adv-x="519" 
d="M370 534h-208v637h-180v187h388v-824z" />
    <glyph glyph-name="ordmasculine" unicode="&#xba;" horiz-adv-x="889" 
d="M113 1051q0 141 94 234q95 93 237 93q144 0 238 -93q95 -95 95 -234t-95 -231t-238 -92q-142 0 -237 92q-94 91 -94 231zM133 480v155h624v-155h-624zM313 1051q0 -55 38 -93q37 -39 93 -39t92 37.5t36 94.5q0 58 -36 96.5t-92 38.5t-93 -39q-38 -40 -38 -96z" />
    <glyph glyph-name="guillemotright" unicode="&#xbb;" horiz-adv-x="1105" 
d="M494 86l254 394l-254 395h260l272 -395l-272 -394h-260zM338 86h-260l254 394l-254 395h260l272 -395z" />
    <glyph glyph-name="onequarter" unicode="&#xbc;" horiz-adv-x="1573" 
d="M820 186v140l339 498h240v-469h108v-169h-108v-186h-204v186h-375zM334 0v26l734 1332h165v-24l-732 -1334h-167zM310 530v637h-180v187h388v-824h-208zM1195 355v232l-146 -232h146z" />
    <glyph glyph-name="onehalf" unicode="&#xbd;" horiz-adv-x="1674" 
d="M1129 537l-159 101q32 84 119 146q85 60 201 60q133 0 225 -68q91 -69 91 -202q0 -77 -44 -146q-16 -24 -50 -58q-25 -25 -53 -47q-4 -3 -15.5 -11.5t-22.5 -16.5l-22 -16q-8 -6 -21.5 -15.5t-27.5 -19.5t-18 -13q-7 -5 -23 -17q-24 -19 -30 -30h332v-184h-610v78
q0 79 54 152t160 153q2 2 27.5 20.5t28.5 21.5q19 15 26 20q2 1 46 41q14 13 33 41q12 18 12 42q0 39 -27 60.5t-66 21.5q-94 0 -166 -114zM378 0v26l734 1332h165v-24l-732 -1334h-167zM360 530v637h-180v187h388v-824h-208z" />
    <glyph glyph-name="threequarters" unicode="&#xbe;" horiz-adv-x="1702" 
d="M354 519q-109 0 -191 55q-84 55 -115 128l151 106q10 -17 26 -36t33 -32q45 -36 112 -36q40 0 68.5 23t28.5 63q0 44 -29 66t-72 22h-131v154h131q37 0 66 24t29 57q0 38 -29 60t-72 22q-89 0 -154 -104l-153 105q33 75 115 132q83 56 192 56q134 0 227 -66
q92 -66 92 -185q0 -123 -109 -180q52 -25 83.5 -74.5t31.5 -109.5q0 -79 -47 -138t-121.5 -86.5t-162.5 -25.5zM964 186v140l339 498h240v-469h108v-169h-108v-186h-204v186h-375zM1368 1334l-732 -1334h-167v26l734 1332h165v-24zM1339 355v232l-146 -232h146z" />
    <glyph glyph-name="questiondown" unicode="&#xbf;" horiz-adv-x="1063" 
d="M512 -420q-191 0 -324 93q-66 46 -102.5 122t-36.5 172q-7 138 146 285q29 29 77 72q41 36 62 58q0 1 27 29q8 8 17.5 18t10.5 11q6 8 21 27q19 25 29 70q5 25 5 46h254q11 -53 11 -83q0 -74 -33 -142q-12 -26 -40 -58q-30 -36 -44 -49q-28 -28 -53 -51q-14 -14 -17 -16
q-86 -80 -114 -117q-29 -38 -29 -84q0 -52 38 -86.5t105 -34.5q78 0 140 51t101 142l257 -122q-61 -163 -194 -258t-314 -95zM568 633q-77 0 -125.5 48t-48.5 125q0 76 49 124q48 48 125 48q76 0 124 -48t48 -124q0 -77 -48 -125t-124 -48z" />
    <glyph glyph-name="Agrave" unicode="&#xc0;" horiz-adv-x="1456" 
d="M349 0h-352l536 1358h390l537 -1358h-352l-92 249h-575zM839 1473h-261l-263 334h362zM922 505l-193 524l-194 -524h387z" />
    <glyph glyph-name="Aacute" unicode="&#xc1;" horiz-adv-x="1456" 
d="M441 249l-92 -249h-352l536 1358h390l537 -1358h-352l-92 249h-575zM858 1473h-261l162 334h362zM922 505l-193 524l-194 -524h387z" />
    <glyph glyph-name="Acircumflex" unicode="&#xc2;" horiz-adv-x="1456" 
d="M441 249l-92 -249h-352l536 1358h390l537 -1358h-352l-92 249h-575zM608 1471h-264l287 370h196l287 -370h-264l-121 169zM922 505l-193 524l-194 -524h387z" />
    <glyph glyph-name="Atilde" unicode="&#xc3;" horiz-adv-x="1456" 
d="M349 0h-352l536 1358h390l537 -1358h-352l-92 249h-575zM471 1493l-115 104q110 207 258 207q44 0 138 -48q95 -48 122 -48q57 0 113 86l115 -104q-110 -207 -259 -207q-49 0 -134 48t-126 48q-49 0 -112 -86zM922 505l-193 524l-194 -524h387z" />
    <glyph glyph-name="Adieresis" unicode="&#xc4;" horiz-adv-x="1456" 
d="M349 0h-352l536 1358h390l537 -1358h-352l-92 249h-575zM922 505l-193 524l-194 -524h387zM917 1488q-67 0 -109 42t-42 109t42 109.5t109 42.5q68 0 110.5 -42.5t42.5 -109.5t-42.5 -109t-110.5 -42zM430 1530q-42 42 -42 109t42 110q42 42 109 42q68 0 110.5 -42.5
t42.5 -109.5t-42.5 -109t-110.5 -42q-67 0 -109 42z" />
    <glyph glyph-name="Aring" unicode="&#xc5;" horiz-adv-x="1456" 
d="M349 0h-352l536 1358h390l537 -1358h-352l-92 249h-575zM889 1536q-64 -62 -160 -62t-160 62q-63 62 -63 155q0 95 63 158q64 62 160 62t160 -62q63 -63 63 -158q0 -93 -63 -155zM729 1029l-194 -524h387zM773 1738q-26 31 -68 13.5t-38 -60.5q0 -27 17.5 -45t44.5 -18
q26 0 43.5 18.5t17.5 44.5q0 27 -17 47z" />
    <glyph glyph-name="AE" unicode="&#xc6;" horiz-adv-x="1996" 
d="M471 249l-143 -249h-385l822 1358h1148v-277h-634v-252h555v-276h-555v-277h644v-276h-973v249h-479zM950 505v576l-332 -576h332z" />
    <glyph glyph-name="Ccedilla" unicode="&#xc7;" horiz-adv-x="1439" 
d="M609 -179l67 167q-263 39 -432 232q-170 193 -170 460q0 196 95 357q94 159 258 251q163 90 363 90q181 0 348 -92q165 -93 258 -247l-253 -187q-48 72 -94 116t-111 73q-69 29 -148 29q-171 0 -274 -109q-105 -109 -105 -281t105 -281q104 -111 274 -111q216 0 359 216
l252 -184q-89 -149 -236 -238q-149 -90 -324 -100l-19 -63q106 -15 161.5 -66t55.5 -126q0 -91 -89 -148q-89 -56 -232 -56q-102 0 -164 30v155q60 -19 131 -19q56 0 88 17.5t32 48.5t-32.5 48.5t-89.5 17.5h-74z" />
    <glyph glyph-name="Egrave" unicode="&#xc8;" horiz-adv-x="1209" 
d="M1136 0h-973v1358h963v-277h-634v-252h555v-276h-555v-277h644v-276zM575 1473l-263 334h362l162 -334h-261z" />
    <glyph glyph-name="Eacute" unicode="&#xc9;" horiz-adv-x="1209" 
d="M1136 276v-276h-973v1358h963v-277h-634v-252h555v-276h-555v-277h644zM788 1473h-261l162 334h362z" />
    <glyph glyph-name="Ecircumflex" unicode="&#xca;" horiz-adv-x="1209" 
d="M163 0v1358h963v-277h-634v-252h555v-276h-555v-277h644v-276h-973zM645 1640l-121 -169h-264l287 370h196l287 -370h-264z" />
    <glyph glyph-name="Edieresis" unicode="&#xcb;" horiz-adv-x="1209" 
d="M1136 276v-276h-973v1358h963v-277h-634v-252h555v-276h-555v-277h644zM724 1530q-42 42 -42 109t42 110q42 42 109 42q68 0 110.5 -42.5t42.5 -109.5t-42.5 -109t-110.5 -42q-67 0 -109 42zM346 1530q-42 42 -42 109t42 110q42 42 109 42q68 0 110.5 -42.5t42.5 -109.5
t-42.5 -109t-110.5 -42q-67 0 -109 42z" />
    <glyph glyph-name="Igrave" unicode="&#xcc;" horiz-adv-x="654" 
d="M163 1358h329v-1358h-329v1358zM449 1473h-261l-263 334h362z" />
    <glyph glyph-name="Iacute" unicode="&#xcd;" horiz-adv-x="654" 
d="M163 1358h329v-1358h-329v1358zM359 1807h362l-263 -334h-261z" />
    <glyph glyph-name="Icircumflex" unicode="&#xce;" horiz-adv-x="654" 
d="M163 0v1358h329v-1358h-329zM206 1471h-264l287 370h196l287 -370h-264l-121 169z" />
    <glyph glyph-name="Idieresis" unicode="&#xcf;" horiz-adv-x="654" 
d="M492 1358v-1358h-329v1358h329zM515 1488q-67 0 -109 42t-42 109t42 109.5t109 42.5q68 0 110.5 -42.5t42.5 -109.5t-42.5 -109t-110.5 -42zM28 1530q-42 42 -42 109t42 110q42 42 109 42q68 0 110.5 -42.5t42.5 -109.5t-42.5 -109t-110.5 -42q-67 0 -109 42z" />
    <glyph glyph-name="Eth" unicode="&#xd0;" horiz-adv-x="1596" 
d="M103 604v185h133v569h594q140 0 270 -53q128 -54 221 -144q94 -92 147.5 -218t53.5 -263q0 -138 -54 -264q-55 -125 -147 -217q-92 -90 -221 -145q-129 -54 -270 -54h-594v604h-133zM565 1081v-292h345v-185h-345v-328h233q168 0 276 118q108 117 108 286q0 170 -108 285
q-108 116 -276 116h-233z" />
    <glyph glyph-name="Ntilde" unicode="&#xd1;" horiz-adv-x="1618" 
d="M492 0h-329v1358h280l684 -828v828h329v-1358h-285l-679 820v-820zM552 1493l-115 104q109 207 258 207q43 0 138 -48t122 -48q57 0 113 86l115 -104q-109 -207 -259 -207q-48 0 -134 48t-126 48q-49 0 -112 -86z" />
    <glyph glyph-name="Ograve" unicode="&#xd2;" horiz-adv-x="1568" 
d="M784 -20q-191 0 -353 90q-161 90 -259 252q-97 160 -97 358q0 142 56 274q54 128 151 223q97 94 228.5 147.5t273.5 53.5q145 0 277 -54q133 -57 226 -148q96 -95 151 -222q56 -132 56 -274t-55 -270q-56 -129 -148 -223q-97 -97 -226 -151q-135 -56 -281 -56zM1051 952
q-107 107 -267 107t-265 -107q-106 -107 -106 -272q0 -163 104 -273q103 -109 267 -109q159 0 266 107t107 275q0 165 -106 272zM933 1473h-261l-263 334h362z" />
    <glyph glyph-name="Oacute" unicode="&#xd3;" horiz-adv-x="1568" 
d="M784 -20q-191 0 -353 90q-161 90 -259 252q-97 160 -97 358q0 142 56 274q54 128 151 223q97 94 228.5 147.5t273.5 53.5q145 0 277 -54q133 -57 226 -148q96 -95 151 -222q56 -132 56 -274t-55 -270q-56 -129 -148 -223q-97 -97 -226 -151q-135 -56 -281 -56zM519 952
q-106 -107 -106 -272q0 -163 104 -273q103 -109 267 -109q159 0 266 107t107 275q0 165 -106 272q-107 107 -267 107t-265 -107zM929 1473h-261l162 334h362z" />
    <glyph glyph-name="Ocircumflex" unicode="&#xd4;" horiz-adv-x="1568" 
d="M784 -20q-191 0 -353 90q-161 90 -259 252q-97 160 -97 358q0 142 56 274q54 128 151 223q97 94 228.5 147.5t273.5 53.5q145 0 277 -54q133 -57 226 -148q96 -95 151 -222q56 -132 56 -274t-55 -270q-56 -129 -148 -223q-97 -97 -226 -151q-135 -56 -281 -56zM1051 952
q-107 107 -267 107t-265 -107q-106 -107 -106 -272q0 -163 104 -273q103 -109 267 -109q159 0 266 107t107 275q0 165 -106 272zM664 1471h-264l287 370h196l287 -370h-264l-121 169z" />
    <glyph glyph-name="Otilde" unicode="&#xd5;" horiz-adv-x="1568" 
d="M784 -20q-191 0 -353 90q-161 90 -259 252q-97 160 -97 358q0 142 56 274q54 128 151 223q97 94 228.5 147.5t273.5 53.5q145 0 277 -54q133 -57 226 -148q96 -95 151 -222q56 -132 56 -274t-55 -270q-56 -129 -148 -223q-97 -97 -226 -151q-135 -56 -281 -56zM1051 952
q-107 107 -267 107t-265 -107q-106 -107 -106 -272q0 -163 104 -273q103 -109 267 -109q159 0 266 107t107 275q0 165 -106 272zM527 1493l-115 104q110 207 258 207q44 0 138 -48t122 -48q57 0 113 86l115 -104q-110 -207 -259 -207q-49 0 -134 48t-126 48q-49 0 -112 -86z
" />
    <glyph glyph-name="Odieresis" unicode="&#xd6;" horiz-adv-x="1568" 
d="M784 -20q-191 0 -353 90q-161 90 -259 252q-97 160 -97 358q0 142 56 274q54 128 151 223q97 94 228.5 147.5t273.5 53.5q145 0 277 -54q133 -57 226 -148q96 -95 151 -222q56 -132 56 -274t-55 -270q-56 -129 -148 -223q-97 -97 -226 -151q-135 -56 -281 -56zM1051 952
q-107 107 -267 107t-265 -107q-106 -107 -106 -272q0 -163 104 -273q103 -109 267 -109q159 0 266 107t107 275q0 165 -106 272zM973 1488q-67 0 -109 42t-42 109t42 109.5t109 42.5q68 0 110.5 -42.5t42.5 -109.5t-42.5 -109t-110.5 -42zM486 1530q-42 42 -42 109t42 110
q42 42 109 42q68 0 110.5 -42.5t42.5 -109.5t-42.5 -109t-110.5 -42q-67 0 -109 42z" />
    <glyph glyph-name="multiply" unicode="&#xd7;" horiz-adv-x="1243" 
d="M79 350l328 329l-328 329l214 214l329 -329l329 329l214 -214l-329 -329l329 -329l-214 -214l-329 329l-329 -329z" />
    <glyph glyph-name="Oslash" unicode="&#xd8;" horiz-adv-x="1568" 
d="M201 -26l120 173q-116 97 -181 235.5t-65 297.5q0 142 56 274q54 128 151 223q97 94 228.5 147.5t273.5 53.5q180 0 338 -83l118 169l128 -88l-117 -168q115 -98 179 -235.5t64 -292.5q0 -142 -55 -270q-56 -129 -148 -223q-97 -97 -226 -151q-135 -56 -281 -56
q-177 0 -333 81l-122 -175zM509 415l428 614q-73 30 -153 30q-160 0 -265 -107q-106 -107 -106 -272q0 -158 96 -265zM1063 939l-427 -613q66 -28 148 -28q159 0 266 107t107 275q0 153 -94 259z" />
    <glyph glyph-name="Ugrave" unicode="&#xd9;" horiz-adv-x="1446" 
d="M148 489v869h329v-851q0 -112 67 -176q66 -66 179 -66q114 0 180.5 65t66.5 177v851h329v-869q0 -237 -154 -373t-422 -136q-271 0 -423 134t-152 375zM605 1473l-263 334h362l162 -334h-261z" />
    <glyph glyph-name="Uacute" unicode="&#xda;" horiz-adv-x="1446" 
d="M148 489v869h329v-851q0 -112 67 -176q66 -66 179 -66q114 0 180.5 65t66.5 177v851h329v-869q0 -237 -154 -373t-422 -136q-271 0 -423 134t-152 375zM860 1473h-261l162 334h362z" />
    <glyph glyph-name="Ucircumflex" unicode="&#xdb;" horiz-adv-x="1446" 
d="M148 489v869h329v-851q0 -112 67 -176q66 -66 179 -66q114 0 180.5 65t66.5 177v851h329v-869q0 -237 -154 -373t-422 -136q-271 0 -423 134t-152 375zM603 1471h-264l287 370h196l287 -370h-264l-121 169z" />
    <glyph glyph-name="Udieresis" unicode="&#xdc;" horiz-adv-x="1446" 
d="M148 489v869h329v-851q0 -112 67 -176q66 -66 179 -66q114 0 180.5 65t66.5 177v851h329v-869q0 -237 -154 -373t-422 -136q-271 0 -423 134t-152 375zM912 1488q-67 0 -109 42t-42 109t42 109.5t109 42.5q68 0 110.5 -42.5t42.5 -109.5t-42.5 -109t-110.5 -42zM534 1488
q-67 0 -109 42t-42 109t42 109.5t109 42.5q68 0 110.5 -42.5t42.5 -109.5t-42.5 -109t-110.5 -42z" />
    <glyph glyph-name="Yacute" unicode="&#xdd;" horiz-adv-x="1424" 
d="M550 0v505l-548 853h403l314 -518l319 518h385l-544 -853v-505h-329zM828 1473h-261l162 334h362z" />
    <glyph glyph-name="Thorn" unicode="&#xde;" horiz-adv-x="1454" 
d="M491 186v-186h-328v1358h328v-178h349q243 0 388 -130q146 -131 146 -366q0 -232 -147 -365q-146 -133 -387 -133h-349zM491 903v-440h295q123 0 186.5 56.5t63.5 164.5q0 219 -250 219h-295z" />
    <glyph glyph-name="germandbls" unicode="&#xdf;" horiz-adv-x="1385" 
d="M454 0h-315v948q0 219 152 350q151 130 406 130q240 0 381 -108q141 -110 141 -294q0 -109 -59 -185t-141 -107q133 -21 217 -121q83 -101 83 -244q0 -173 -120 -281t-305 -108q-121 0 -221 50t-162 143l202 188q64 -94 155 -94q55 0 89.5 35t34.5 98q0 162 -244 162
q-40 0 -122 -8v239q123 3 193.5 51t70.5 130q0 76 -59 121q-59 44 -142 44q-109 0 -172 -59t-63 -163v-917z" />
    <glyph glyph-name="agrave" unicode="&#xe0;" horiz-adv-x="1113" 
d="M75 272q-1 137 119 223t287 83q102 0 192 -25v19q0 58 -48.5 94t-131.5 36q-67 0 -127 -29t-104 -78l-174 187q70 77 182 138q110 60 250 60q220 0 344 -109t124 -301v-570h-299v98q-40 -53 -108 -85.5t-148 -32.5q-157 0 -257 79q-101 80 -101 213zM410 1121l-263 334
h362l162 -334h-261zM537 387q-75 0 -117.5 -25.5t-42.5 -70.5q0 -43 35 -69.5t90 -26.5q74 0 123 46q48 47 48 121q-56 25 -136 25z" />
    <glyph glyph-name="aacute" unicode="&#xe1;" horiz-adv-x="1113" 
d="M75 272q-1 137 119 223t287 83q102 0 192 -25v19q0 58 -48.5 94t-131.5 36q-67 0 -127 -29t-104 -78l-174 187q70 77 182 138q110 60 250 60q220 0 344 -109t124 -301v-570h-299v98q-40 -53 -108 -85.5t-148 -32.5q-157 0 -257 79q-101 80 -101 213zM662 1113h-261
l162 334h362zM377 291q0 -43 35 -69.5t90 -26.5q74 0 123 46q48 47 48 121q-56 25 -136 25q-75 0 -117.5 -25.5t-42.5 -70.5z" />
    <glyph glyph-name="acircumflex" unicode="&#xe2;" horiz-adv-x="1113" 
d="M75 272q-1 137 119 223t287 83q102 0 192 -25v19q0 58 -48.5 94t-131.5 36q-67 0 -127 -29t-104 -78l-174 187q70 77 182 138q110 60 250 60q220 0 344 -109t124 -301v-570h-299v98q-40 -53 -108 -85.5t-148 -32.5q-157 0 -257 79q-101 80 -101 213zM427 1084h-264
l287 370h196l287 -370h-264l-121 169zM537 387q-75 0 -117.5 -25.5t-42.5 -70.5q0 -43 35 -69.5t90 -26.5q74 0 123 46q48 47 48 121q-56 25 -136 25z" />
    <glyph glyph-name="atilde" unicode="&#xe3;" horiz-adv-x="1113" 
d="M75 272q-1 137 119 223t287 83q102 0 192 -25v19q0 58 -48.5 94t-131.5 36q-67 0 -127 -29t-104 -78l-174 187q70 77 182 138q110 60 250 60q220 0 344 -109t124 -301v-570h-299v98q-40 -53 -108 -85.5t-148 -32.5q-157 0 -257 79q-101 80 -101 213zM273 1133l-115 104
q110 207 258 207q44 0 138 -48t122 -48q57 0 113 86l115 -104q-110 -207 -259 -207q-49 0 -134 48t-126 48q-49 0 -112 -86zM537 387q-75 0 -117.5 -25.5t-42.5 -70.5q0 -43 35 -69.5t90 -26.5q74 0 123 46q48 47 48 121q-56 25 -136 25z" />
    <glyph glyph-name="adieresis" unicode="&#xe4;" horiz-adv-x="1113" 
d="M75 272q-1 137 119 223t287 83q102 0 192 -25v19q0 58 -48.5 94t-131.5 36q-67 0 -127 -29t-104 -78l-174 187q70 77 182 138q110 60 250 60q220 0 344 -109t124 -301v-570h-299v98q-40 -53 -108 -85.5t-148 -32.5q-157 0 -257 79q-101 80 -101 213zM348 1151
q-67 0 -109 42t-42 109t42 109.5t109 42.5q68 0 110.5 -42.5t42.5 -109.5t-42.5 -109t-110.5 -42zM726 1151q-67 0 -109 42t-42 109t42 109.5t109 42.5q68 0 110.5 -42.5t42.5 -109.5t-42.5 -109t-110.5 -42zM537 387q-75 0 -117.5 -25.5t-42.5 -70.5q0 -43 35 -69.5
t90 -26.5q74 0 123 46q48 47 48 121q-56 25 -136 25z" />
    <glyph glyph-name="aring" unicode="&#xe5;" horiz-adv-x="1113" 
d="M433 -20q-157 0 -257 79q-101 80 -101 213q-1 137 119 223t287 83q102 0 192 -25v19q0 58 -48.5 94t-131.5 36q-67 0 -127 -29t-104 -78l-174 187q70 77 182 138q110 60 250 60q220 0 344 -109t124 -301v-570h-299v98q-40 -53 -108 -85.5t-148 -32.5zM332 1289
q0 95 63 158q64 62 160 62t160 -62q63 -63 63 -158q0 -93 -63 -155q-64 -62 -160 -62t-160 62q-63 62 -63 155zM377 291q0 -43 35 -69.5t90 -26.5q74 0 123 46q48 47 48 121q-56 25 -136 25q-75 0 -117.5 -25.5t-42.5 -70.5zM599 1336q-26 31 -68 13.5t-38 -60.5
q0 -27 17.5 -45t44.5 -18q26 0 43.5 18.5t17.5 44.5q0 27 -17 47z" />
    <glyph glyph-name="ae" unicode="&#xe6;" horiz-adv-x="1700" 
d="M76 272q-1 137 119 223t287 83q102 0 192 -25v19q0 58 -48.5 94t-131.5 36q-66 0 -127 -29t-104 -78l-174 187q70 77 182 138q109 60 250 60q202 0 307 -125q128 125 322 125q188 0 328 -113q71 -57 111.5 -149.5t40.5 -206.5q0 -53 -9 -112h-648q9 -74 71 -113
q61 -40 141 -40q59 0 115.5 32t99.5 87l200 -176q-58 -91 -168 -150q-109 -59 -251 -59q-229 0 -368 151q-120 -151 -347 -151q-171 0 -280 79q-110 80 -110 213zM538 387q-75 0 -117.5 -25.5t-42.5 -70.5q0 -43 35 -69.5t90 -26.5q74 0 123 46q48 47 48 121q-56 25 -136 25
zM973 584h366q-1 58 -54 103t-126 45q-77 0 -127 -41.5t-59 -106.5z" />
    <glyph glyph-name="ccedilla" unicode="&#xe7;" horiz-adv-x="1080" 
d="M392 -179l68 170q-177 36 -284 170q-108 133 -108 319q0 216 147 358q146 142 369 142q150 0 268 -72q119 -74 178 -185l-243 -173q-27 66 -81 103t-122 37q-89 0 -146 -60q-58 -59 -58 -150q0 -93 58 -152q57 -61 146 -61q132 0 210 137l238 -174q-144 -227 -408 -248
l-19 -63q106 -15 161.5 -66t55.5 -126q0 -91 -89 -148q-89 -56 -232 -56q-103 0 -164 30v155q60 -19 131 -19q56 0 88 17.5t32 48.5t-32.5 48.5t-89.5 17.5h-74z" />
    <glyph glyph-name="egrave" unicode="&#xe8;" horiz-adv-x="1103" 
d="M585 -20q-227 0 -372 140q-144 140 -144 360t135 360q134 140 350 140q188 0 328 -113q71 -57 111.5 -149.5t40.5 -206.5q0 -53 -9 -112h-648q9 -74 71 -113q61 -40 141 -40q59 0 115.5 32t99.5 87l200 -176q-58 -91 -168 -150q-109 -59 -251 -59zM447 1121l-263 334h362
l162 -334h-261zM377 584h366q-1 58 -54 103t-126 45q-77 0 -127 -41.5t-59 -106.5z" />
    <glyph glyph-name="eacute" unicode="&#xe9;" horiz-adv-x="1103" 
d="M213 120q-144 140 -144 360t135 360q134 140 350 140q188 0 328 -113q71 -57 111.5 -149.5t40.5 -206.5q0 -53 -9 -112h-648q9 -74 71 -113q61 -40 141 -40q59 0 115.5 32t99.5 87l200 -176q-58 -91 -168 -150q-109 -59 -251 -59q-227 0 -372 140zM972 1447l-263 -334
h-261l162 334h362zM563 732q-77 0 -127 -41.5t-59 -106.5h366q-1 58 -54 103t-126 45z" />
    <glyph glyph-name="ecircumflex" unicode="&#xea;" horiz-adv-x="1103" 
d="M213 120q-144 140 -144 360t135 360q134 140 350 140q188 0 328 -113q71 -57 111.5 -149.5t40.5 -206.5q0 -53 -9 -112h-648q9 -74 71 -113q61 -40 141 -40q59 0 115.5 32t99.5 87l200 -176q-58 -91 -168 -150q-109 -59 -251 -59q-227 0 -372 140zM547 1253l-121 -169
h-264l287 370h196l287 -370h-264zM563 732q-77 0 -127 -41.5t-59 -106.5h366q-1 58 -54 103t-126 45z" />
    <glyph glyph-name="edieresis" unicode="&#xeb;" horiz-adv-x="1103" 
d="M213 120q-144 140 -144 360t135 360q134 140 350 140q188 0 328 -113q71 -57 111.5 -149.5t40.5 -206.5q0 -53 -9 -112h-648q9 -74 71 -113q61 -40 141 -40q59 0 115.5 32t99.5 87l200 -176q-58 -91 -168 -150q-109 -59 -251 -59q-227 0 -372 140zM263 1193
q-42 42 -42 109q0 66 42 110q42 42 109 42q68 0 110.5 -42.5t42.5 -109.5t-42.5 -109t-110.5 -42q-67 0 -109 42zM641 1193q-42 42 -42 109q0 66 42 110q42 42 109 42q68 0 110.5 -42.5t42.5 -109.5t-42.5 -109t-110.5 -42q-67 0 -109 42zM377 584h366q-1 58 -54 103
t-126 45q-77 0 -127 -41.5t-59 -106.5z" />
    <glyph glyph-name="igrave" unicode="&#xec;" horiz-adv-x="592" 
d="M139 960h315v-960h-315v960zM409 1121h-261l-263 334h362z" />
    <glyph glyph-name="iacute" unicode="&#xed;" horiz-adv-x="592" 
d="M139 960h315v-960h-315v960zM338 1447h362l-263 -334h-261z" />
    <glyph glyph-name="icircumflex" unicode="&#xee;" horiz-adv-x="592" 
d="M139 0v960h315v-960h-315zM175 1084h-264l287 370h196l287 -370h-264l-121 169z" />
    <glyph glyph-name="idieresis" unicode="&#xef;" horiz-adv-x="592" 
d="M454 960v-960h-315v960h315zM484 1151q-67 0 -109 42t-42 109t42 109.5t109 42.5q68 0 110.5 -42.5t42.5 -109.5t-42.5 -109t-110.5 -42zM-3 1193q-42 42 -42 109q0 66 42 110q42 42 109 42q68 0 110.5 -42.5t42.5 -109.5t-42.5 -109t-110.5 -42q-67 0 -109 42z" />
    <glyph glyph-name="eth" unicode="&#xf0;" horiz-adv-x="1176" 
d="M575 -20q-225 0 -364 132q-140 131 -140 342q0 202 124 327q125 125 323 125q87 0 155.5 -31t105.5 -83q-53 184 -237 312l-198 -147l-97 136l137 102q-54 26 -151 65l146 220q131 -51 235 -115l206 153l93 -137l-156 -117q334 -274 334 -728q0 -246 -143 -401t-373 -155
zM393 454q0 -87 52 -139q51 -54 134 -54t136 54q52 52 52 139q0 85 -52 137t-136 52q-83 0 -134 -52q-52 -52 -52 -137z" />
    <glyph glyph-name="ntilde" unicode="&#xf1;" horiz-adv-x="1215" 
d="M423 0h-315v960h289l10 -101q48 59 126 90t171 31q144 0 249.5 -96.5t105.5 -259.5v-624h-315v534q0 75 -49 117q-50 41 -112 41q-65 0 -112 -41q-48 -42 -48 -117v-534zM352 1133l-115 104q109 207 258 207q43 0 138 -48t122 -48q57 0 113 86l115 -104
q-109 -207 -259 -207q-48 0 -134 48t-126 48q-49 0 -112 -86z" />
    <glyph glyph-name="ograve" unicode="&#xf2;" horiz-adv-x="1167" 
d="M215 123q-147 143 -147 357q0 216 147 358q146 142 369 142t369 -142q147 -142 147 -358q0 -214 -147 -357q-148 -143 -369 -143t-369 143zM380 480q0 -93 58 -152q57 -61 146 -61t147 61q57 60 57 152q0 90 -57 150q-59 60 -147 60q-89 0 -146 -60q-58 -59 -58 -150z
M471 1121l-263 334h362l162 -334h-261z" />
    <glyph glyph-name="oacute" unicode="&#xf3;" horiz-adv-x="1167" 
d="M215 123q-147 143 -147 357q0 216 147 358q146 142 369 142t369 -142q147 -142 147 -358q0 -214 -147 -357q-148 -143 -369 -143t-369 143zM731 630q-59 60 -147 60q-89 0 -146 -60q-58 -59 -58 -150q0 -93 58 -152q57 -61 146 -61t147 61q57 60 57 152q0 90 -57 150z
M1002 1447l-263 -334h-261l162 334h362z" />
    <glyph glyph-name="ocircumflex" unicode="&#xf4;" horiz-adv-x="1167" 
d="M215 123q-147 143 -147 357q0 216 147 358q146 142 369 142t369 -142q147 -142 147 -358q0 -214 -147 -357q-148 -143 -369 -143t-369 143zM463 1084h-264l287 370h196l287 -370h-264l-121 169zM380 480q0 -93 58 -152q57 -61 146 -61t147 61q57 60 57 152q0 90 -57 150
q-59 60 -147 60q-89 0 -146 -60q-58 -59 -58 -150z" />
    <glyph glyph-name="otilde" unicode="&#xf5;" horiz-adv-x="1167" 
d="M215 123q-147 143 -147 357q0 216 147 358q146 142 369 142t369 -142q147 -142 147 -358q0 -214 -147 -357q-148 -143 -369 -143t-369 143zM326 1133l-115 104q109 207 258 207q43 0 138 -48q94 -48 122 -48q57 0 113 86l115 -104q-109 -207 -259 -207q-48 0 -134 48
t-126 48q-49 0 -112 -86zM731 630q-59 60 -147 60q-89 0 -146 -60q-58 -59 -58 -150q0 -93 58 -152q57 -61 146 -61t147 61q57 60 57 152q0 90 -57 150z" />
    <glyph glyph-name="odieresis" unicode="&#xf6;" horiz-adv-x="1167" 
d="M215 123q-147 143 -147 357q0 216 147 358q146 142 369 142t369 -142q147 -142 147 -358q0 -214 -147 -357q-148 -143 -369 -143t-369 143zM380 480q0 -93 58 -152q57 -61 146 -61t147 61q57 60 57 152q0 90 -57 150q-59 60 -147 60q-89 0 -146 -60q-58 -59 -58 -150z
M663 1193q-42 42 -42 109q0 66 42 110q42 42 109 42q68 0 110.5 -42.5t42.5 -109.5t-42.5 -109t-110.5 -42q-67 0 -109 42zM285 1193q-42 42 -42 109q0 66 42 110q42 42 109 42q68 0 110.5 -42.5t42.5 -109.5t-42.5 -109t-110.5 -42q-67 0 -109 42z" />
    <glyph glyph-name="divide" unicode="&#xf7;" horiz-adv-x="1308" 
d="M1208 821v-283h-1107v283h1107zM530 144q-50 50 -50 122q0 73 50 123q49 49 124 49t125 -49q50 -50 50 -123q0 -72 -50 -122q-52 -50 -125 -50q-74 0 -124 50zM779 973q-52 -50 -125 -50q-74 0 -124 50t-50 122q0 73 50 123q49 49 124 49t125 -49q50 -50 50 -123
q0 -72 -50 -122z" />
    <glyph glyph-name="oslash" unicode="&#xf8;" horiz-adv-x="1201" 
d="M338 44l-142 -172l-116 106l135 162q-130 139 -130 340q0 216 147 358q146 142 369 142q143 0 259 -62l141 170l121 -96l-139 -168q134 -140 134 -344q0 -214 -147 -357q-148 -143 -369 -143q-145 0 -263 64zM782 581l-250 -303q35 -11 69 -11q89 0 147 61q57 60 57 152
q0 53 -23 101zM417 384l246 297q-29 9 -62 9q-89 0 -146 -60q-58 -59 -58 -150q0 -51 20 -96z" />
    <glyph glyph-name="ugrave" unicode="&#xf9;" horiz-adv-x="1215" 
d="M126 326v634h315v-544q0 -76 49 -116q50 -42 112 -42q65 0 113 42q47 41 47 116v544h315v-960h-289l-10 91q-48 -59 -126 -90t-171 -31q-144 0 -249.5 96.5t-105.5 259.5zM487 1121l-263 334h362l162 -334h-261z" />
    <glyph glyph-name="uacute" unicode="&#xfa;" horiz-adv-x="1215" 
d="M126 326v634h315v-544q0 -76 49 -116q50 -42 112 -42q65 0 113 42q47 41 47 116v544h315v-960h-289l-10 91q-48 -59 -126 -90t-171 -31q-144 0 -249.5 96.5t-105.5 259.5zM992 1447l-263 -334h-261l162 334h362z" />
    <glyph glyph-name="ucircumflex" unicode="&#xfb;" horiz-adv-x="1215" 
d="M126 326v634h315v-544q0 -76 49 -116q50 -42 112 -42q65 0 113 42q47 41 47 116v544h315v-960h-289l-10 91q-48 -59 -126 -90t-171 -31q-144 0 -249.5 96.5t-105.5 259.5zM504 1084h-264l287 370h196l287 -370h-264l-121 169z" />
    <glyph glyph-name="udieresis" unicode="&#xfc;" horiz-adv-x="1215" 
d="M126 326v634h315v-544q0 -76 49 -116q50 -42 112 -42q65 0 113 42q47 41 47 116v544h315v-960h-289l-10 91q-48 -59 -126 -90t-171 -31q-144 0 -249.5 96.5t-105.5 259.5zM796 1151q-67 0 -109 42t-42 109t42 109.5t109 42.5q68 0 110.5 -42.5t42.5 -109.5t-42.5 -109
t-110.5 -42zM418 1151q-67 0 -109 42t-42 109t42 109.5t109 42.5q68 0 110.5 -42.5t42.5 -109.5t-42.5 -109t-110.5 -42z" />
    <glyph glyph-name="yacute" unicode="&#xfd;" horiz-adv-x="1125" 
d="M397 -1l-386 961h351l203 -642l198 642h352l-445 -1101q-55 -137 -161.5 -208t-246.5 -71q-104 0 -207 50l43 248q60 -26 112 -26q67 0 117 38t70 109zM693 1113h-261l162 334h362z" />
    <glyph glyph-name="thorn" unicode="&#xfe;" horiz-adv-x="1254" 
d="M455 -400h-316v1808h307v-547q95 119 291 119q201 0 325 -141q123 -143 123 -361t-123 -357q-124 -141 -325 -141q-88 0 -163.5 24.5t-118.5 66.5v-471zM656 698q-89 0 -147 -61t-58 -157t58 -157t147 -61q90 0 152 62q60 62 60 156q0 98 -60 158t-152 60z" />
    <glyph glyph-name="ydieresis" unicode="&#xff;" horiz-adv-x="1125" 
d="M397 -1l-386 961h351l203 -642l198 642h352l-445 -1101q-55 -137 -161.5 -208t-246.5 -71q-104 0 -207 50l43 248q60 -26 112 -26q67 0 117 38t70 109zM642 1193q-42 42 -42 109q0 66 42 110q42 42 109 42q68 0 110.5 -42.5t42.5 -109.5t-42.5 -109t-110.5 -42
q-67 0 -109 42zM373 1151q-67 0 -109 42t-42 109t42 109.5t109 42.5q68 0 110.5 -42.5t42.5 -109.5t-42.5 -109t-110.5 -42z" />
    <glyph glyph-name="Amacron" unicode="&#x100;" horiz-adv-x="1456" 
d="M441 249l-92 -249h-352l536 1358h390l537 -1358h-352l-92 249h-575zM1024 1705v-204h-591v204h591zM922 505l-193 524l-194 -524h387z" />
    <glyph glyph-name="amacron" unicode="&#x101;" horiz-adv-x="1113" 
d="M433 -20q-157 0 -257 79q-101 80 -101 213q-1 137 119 223t287 83q102 0 192 -25v19q0 58 -48.5 94t-131.5 36q-67 0 -127 -29t-104 -78l-174 187q70 77 182 138q110 60 250 60q220 0 344 -109t124 -301v-570h-299v98q-40 -53 -108 -85.5t-148 -32.5zM238 1165v204h591
v-204h-591zM537 387q-75 0 -117.5 -25.5t-42.5 -70.5q0 -43 35 -69.5t90 -26.5q74 0 123 46q48 47 48 121q-56 25 -136 25z" />
    <glyph glyph-name="Abreve" unicode="&#x102;" horiz-adv-x="1456" 
d="M349 0h-352l536 1358h390l537 -1358h-352l-92 249h-575zM405 1793h210q2 -57 33.5 -92.5t80.5 -35.5q51 0 81.5 35t32.5 93h210q-7 -149 -95 -236q-89 -89 -229 -89q-139 0 -228 89q-88 88 -96 236zM922 505l-193 524l-194 -524h387z" />
    <glyph glyph-name="abreve" unicode="&#x103;" horiz-adv-x="1113" 
d="M75 272q-1 137 119 223t287 83q102 0 192 -25v19q0 58 -48.5 94t-131.5 36q-67 0 -127 -29t-104 -78l-174 187q70 77 182 138q110 60 250 60q220 0 344 -109t124 -301v-570h-299v98q-40 -53 -108 -85.5t-148 -32.5q-157 0 -257 79q-101 80 -101 213zM533 1111
q-139 0 -228 89q-88 88 -96 236h210q2 -57 33.5 -92.5t80.5 -35.5q51 0 81.5 35t32.5 93h210q-7 -149 -95 -236q-89 -89 -229 -89zM377 291q0 -43 35 -69.5t90 -26.5q74 0 123 46q48 47 48 121q-56 25 -136 25q-75 0 -117.5 -25.5t-42.5 -70.5z" />
    <glyph glyph-name="Aogonek" unicode="&#x104;" horiz-adv-x="1456" 
d="M441 249l-92 -249h-352l536 1358h390l537 -1358h-134q-196 -112 -196 -194q0 -35 25 -56t68 -21q57 0 109 27l64 -176q-88 -57 -220 -57q-120 0 -190 58t-70 153q0 154 192 266l-92 249h-575zM729 1029l-194 -524h387z" />
    <glyph glyph-name="aogonek" unicode="&#x105;" horiz-adv-x="1113" 
d="M433 -20q-157 0 -257 79q-101 80 -101 213q-1 137 119 223t287 83q102 0 192 -25v19q0 58 -48.5 94t-131.5 36q-67 0 -127 -29t-104 -78l-174 187q70 77 182 138q110 60 250 60q220 0 344 -109t124 -301v-570h-81q-196 -112 -196 -194q0 -35 25 -56t68 -21q56 0 109 27
l64 -176q-89 -57 -220 -57q-120 0 -190 58t-70 153q0 152 192 267v97q-40 -53 -108 -85.5t-148 -32.5zM537 387q-75 0 -117.5 -25.5t-42.5 -70.5q0 -43 35 -69.5t90 -26.5q74 0 123 46q48 47 48 121q-56 25 -136 25z" />
    <glyph glyph-name="Cacute" unicode="&#x106;" horiz-adv-x="1439" 
d="M169 323q-95 161 -95 357t95 357q94 159 258 251q163 90 363 90q181 0 348 -92q165 -93 258 -247l-253 -187q-48 72 -94 116t-111 73q-69 29 -148 29q-171 0 -274 -109q-105 -109 -105 -281t105 -281q104 -111 274 -111q216 0 359 216l252 -184q-98 -162 -258 -250
q-161 -90 -353 -90q-200 0 -363 91t-258 252zM940 1473h-261l162 334h362z" />
    <glyph glyph-name="cacute" unicode="&#x107;" horiz-adv-x="1080" 
d="M68 480q0 216 147 358q146 142 369 142q150 0 268 -72q119 -74 178 -185l-243 -173q-27 66 -81 103t-122 37q-89 0 -146 -60q-58 -59 -58 -150q0 -93 58 -152q57 -61 146 -61q132 0 210 137l238 -174q-157 -250 -458 -250q-221 0 -363 142q-143 143 -143 358zM982 1447
l-263 -334h-261l162 334h362z" />
    <glyph glyph-name="Ccircumflex" unicode="&#x108;" horiz-adv-x="1439" 
d="M790 -20q-200 0 -363 91t-258 252t-95 357t95 357q94 159 258 251q163 90 363 90q181 0 348 -92q165 -93 258 -247l-253 -187q-48 72 -94 116t-111 73q-69 29 -148 29q-171 0 -274 -109q-105 -109 -105 -281t105 -281q104 -111 274 -111q216 0 359 216l252 -184
q-98 -162 -258 -250q-161 -90 -353 -90zM673 1471h-264l287 370h196l287 -370h-264l-121 169z" />
    <glyph glyph-name="ccircumflex" unicode="&#x109;" horiz-adv-x="1080" 
d="M574 -20q-221 0 -363 142q-143 143 -143 358q0 216 147 358q146 142 369 142q150 0 268 -72q119 -74 178 -185l-243 -173q-27 66 -81 103t-122 37q-89 0 -146 -60q-58 -59 -58 -150q0 -93 58 -152q57 -61 146 -61q132 0 210 137l238 -174q-157 -250 -458 -250zM585 1253
l-121 -169h-264l287 370h196l287 -370h-264z" />
    <glyph glyph-name="Cdotaccent" unicode="&#x10a;" horiz-adv-x="1439" 
d="M169 323q-95 161 -95 357t95 357q94 159 258 251q163 90 363 90q181 0 348 -92q165 -93 258 -247l-253 -187q-48 72 -94 116t-111 73q-69 29 -148 29q-171 0 -274 -109q-105 -109 -105 -281t105 -281q104 -111 274 -111q216 0 359 216l252 -184q-98 -162 -258 -250
q-161 -90 -353 -90q-200 0 -363 91t-258 252zM625 1639q0 77 48 125t124 48q77 0 125.5 -48t48.5 -125q0 -76 -48 -124q-49 -48 -126 -48q-76 0 -124 48t-48 124z" />
    <glyph glyph-name="cdotaccent" unicode="&#x10b;" horiz-adv-x="1080" 
d="M68 480q0 216 147 358q146 142 369 142q150 0 268 -72q119 -74 178 -185l-243 -173q-27 66 -81 103t-122 37q-89 0 -146 -60q-58 -59 -58 -150q0 -93 58 -152q57 -61 146 -61q132 0 210 137l238 -174q-157 -250 -458 -250q-221 0 -363 142q-143 143 -143 358zM612 1133
q-76 0 -124 48t-48 124q0 77 48 125t124 48q77 0 125.5 -48t48.5 -125q0 -76 -48 -124q-50 -48 -126 -48z" />
    <glyph glyph-name="Ccaron" unicode="&#x10c;" horiz-adv-x="1439" 
d="M169 323q-95 161 -95 357t95 357q94 159 258 251q163 90 363 90q181 0 348 -92q165 -93 258 -247l-253 -187q-48 72 -94 116t-111 73q-69 29 -148 29q-171 0 -274 -109q-105 -109 -105 -281t105 -281q104 -111 274 -111q216 0 359 216l252 -184q-98 -162 -258 -250
q-161 -90 -353 -90q-200 0 -363 91t-258 252zM884 1481h-196l-287 370h264l121 -169l121 169h264z" />
    <glyph glyph-name="ccaron" unicode="&#x10d;" horiz-adv-x="1080" 
d="M68 480q0 216 147 358q146 142 369 142q150 0 268 -72q119 -74 178 -185l-243 -173q-27 66 -81 103t-122 37q-89 0 -146 -60q-58 -59 -58 -150q0 -93 58 -152q57 -61 146 -61q132 0 210 137l238 -174q-157 -250 -458 -250q-221 0 -363 142q-143 143 -143 358zM680 1096
h-196l-287 370h264l121 -169l121 169h264z" />
    <glyph glyph-name="Dcaron" unicode="&#x10e;" horiz-adv-x="1523" 
d="M790 1481h-196l-287 370h264l121 -169l121 169h264zM757 0h-594v1358h594q137 0 265 -51t226 -146q94 -92 147.5 -218t53.5 -263q0 -186 -93 -342.5t-252 -247t-347 -90.5zM492 1081v-805h233q169 0 276.5 117t107.5 287t-108 285.5t-276 115.5h-233z" />
    <glyph glyph-name="dcaron" unicode="&#x10f;" horiz-adv-x="1379" 
d="M518 -20q-138 0 -241.5 68.5t-155 180.5t-51.5 249q0 138 51 250.5t154.5 182t242.5 69.5q194 0 291 -121v549h306v-1408h-305l-10 74q-43 -44 -118 -69t-164 -25zM1547 1408l-71 -442h-226v442h297zM387 480q0 -93 59.5 -155.5t152.5 -62.5t149 62t56 156t-56 156
t-149 62q-95 0 -153.5 -61t-58.5 -157z" />
    <glyph glyph-name="Dcroat" unicode="&#x110;" horiz-adv-x="1596" 
d="M103 604v185h133v569h594q137 0 265 -51t226 -146q94 -92 147.5 -218t53.5 -263q0 -186 -93 -342.5t-252 -247t-347 -90.5h-594v604h-133zM565 1081v-292h345v-185h-345v-328h233q169 0 276.5 117t107.5 287t-108 285.5t-276 115.5h-233z" />
    <glyph glyph-name="dcroat" unicode="&#x111;" horiz-adv-x="1207" 
d="M518 -20q-138 0 -241.5 68.5t-155 180.5t-51.5 249q0 138 51 250.5t154.5 182t242.5 69.5q194 0 291 -121v233h-287v184h287v132h306v-132h111v-184h-111v-1092h-305l-10 74q-43 -44 -118 -69t-164 -25zM599 698q-95 0 -153.5 -61t-58.5 -157q0 -93 59.5 -155.5
t152.5 -62.5t149 62t56 156t-56 156t-149 62z" />
    <glyph glyph-name="Emacron" unicode="&#x112;" horiz-adv-x="1209" 
d="M931 1705v-204h-591v204h591zM1136 276v-276h-973v1358h963v-277h-634v-252h555v-276h-555v-277h644z" />
    <glyph glyph-name="emacron" unicode="&#x113;" horiz-adv-x="1103" 
d="M848 1369v-204h-591v204h591zM585 -20q-225 0 -370.5 138t-145.5 362q0 219 133.5 359.5t351.5 140.5q188 0 328 -113q71 -57 111.5 -149.5t40.5 -206.5q0 -53 -9 -112h-648q9 -74 71 -113.5t141 -39.5q59 0 115.5 32t99.5 87l200 -176q-65 -102 -178 -155.5t-241 -53.5z
M563 732q-77 0 -127 -41.5t-59 -106.5h366q-1 65 -57 106.5t-123 41.5z" />
    <glyph glyph-name="Ebreve" unicode="&#x114;" horiz-adv-x="1209" 
d="M331 1793h210q2 -57 33.5 -92.5t80.5 -35.5q51 0 81.5 35t32.5 93h210q-8 -146 -94 -235.5t-230 -89.5q-143 0 -229.5 90.5t-94.5 234.5zM1136 276v-276h-973v1358h963v-277h-634v-252h555v-276h-555v-277h644z" />
    <glyph glyph-name="ebreve" unicode="&#x115;" horiz-adv-x="1103" 
d="M248 1436h210q2 -57 33.5 -92.5t80.5 -35.5q51 0 81.5 35t32.5 93h210q-8 -146 -94 -235.5t-230 -89.5q-143 0 -229.5 90.5t-94.5 234.5zM585 -20q-225 0 -370.5 138t-145.5 362q0 219 133.5 359.5t351.5 140.5q188 0 328 -113q71 -57 111.5 -149.5t40.5 -206.5
q0 -53 -9 -112h-648q9 -74 71 -113.5t141 -39.5q59 0 115.5 32t99.5 87l200 -176q-65 -102 -178 -155.5t-241 -53.5zM377 584h366q-1 65 -57 106.5t-123 41.5q-77 0 -127 -41.5t-59 -106.5z" />
    <glyph glyph-name="Edotaccent" unicode="&#x116;" horiz-adv-x="1209" 
d="M664 1467q-76 0 -124 48t-48 124q0 77 48 125t124 48q77 0 125.5 -48t48.5 -125t-48.5 -124.5t-125.5 -47.5zM163 0v1358h963v-277h-634v-252h555v-276h-555v-277h644v-276h-973z" />
    <glyph glyph-name="edotaccent" unicode="&#x117;" horiz-adv-x="1103" 
d="M571 1133q-76 0 -124 48t-48 124q0 77 48 125t124 48q77 0 125.5 -48t48.5 -125t-48.5 -124.5t-125.5 -47.5zM585 -20q-225 0 -370.5 138t-145.5 362q0 219 133.5 359.5t351.5 140.5q188 0 328 -113q71 -57 111.5 -149.5t40.5 -206.5q0 -53 -9 -112h-648q9 -74 71 -113.5
t141 -39.5q59 0 115.5 32t99.5 87l200 -176q-65 -102 -178 -155.5t-241 -53.5zM563 732q-77 0 -127 -41.5t-59 -106.5h366q-1 65 -57 106.5t-123 41.5z" />
    <glyph glyph-name="Eogonek" unicode="&#x118;" horiz-adv-x="1209" 
d="M917 0h-754v1358h963v-277h-634v-252h555v-276h-555v-277h644v-276q-196 -112 -196 -194q0 -35 25 -56t68 -21q57 0 109 27l64 -176q-89 -57 -220 -57q-109 0 -184.5 53.5t-75.5 157.5q0 150 191 266z" />
    <glyph glyph-name="eogonek" unicode="&#x119;" horiz-adv-x="1103" 
d="M493 -13q-193 28 -308.5 162.5t-115.5 330.5q0 219 133.5 359.5t351.5 140.5q188 0 328 -113q71 -57 111.5 -149.5t40.5 -206.5q0 -53 -9 -112h-648q9 -74 71 -113.5t141 -39.5q59 0 115.5 32t99.5 87l200 -176q-43 -67 -114 -117t-160 -74q-193 -112 -193 -192
q0 -35 25 -56t68 -21q56 0 109 27l64 -176q-89 -57 -220 -57q-109 0 -184.5 53.5t-75.5 157.5q0 143 170 253zM377 584h366q-1 65 -57 106.5t-123 41.5q-77 0 -127 -41.5t-59 -106.5z" />
    <glyph glyph-name="Ecaron" unicode="&#x11a;" horiz-adv-x="1209" 
d="M763 1481h-196l-287 370h264l121 -169l121 169h264zM163 0v1358h963v-277h-634v-252h555v-276h-555v-277h644v-276h-973z" />
    <glyph glyph-name="ecaron" unicode="&#x11b;" horiz-adv-x="1103" 
d="M474 1096l-287 370h264l121 -169l121 169h264l-287 -370h-196zM585 -20q-225 0 -370.5 138t-145.5 362q0 219 133.5 359.5t351.5 140.5q188 0 328 -113q71 -57 111.5 -149.5t40.5 -206.5q0 -53 -9 -112h-648q9 -74 71 -113.5t141 -39.5q59 0 115.5 32t99.5 87l200 -176
q-65 -102 -178 -155.5t-241 -53.5zM377 584h366q-1 65 -57 106.5t-123 41.5q-77 0 -127 -41.5t-59 -106.5z" />
    <glyph glyph-name="Gcircumflex" unicode="&#x11c;" horiz-adv-x="1534" 
d="M644 1471h-264l287 370h196l287 -370h-264l-121 169zM74 680q0 148 56 278.5t152 222t228.5 144.5t279.5 53q173 0 330 -81.5t253 -223.5l-253 -187q-127 184 -330 184q-171 0 -275 -109t-104 -281q0 -171 104.5 -281.5t274.5 -110.5q121 0 208.5 50t117.5 142h-358v276
h707q6 -59 6 -142q0 -139 -54 -258.5t-146.5 -201t-217 -128t-263.5 -46.5q-196 0 -359.5 89.5t-260 250.5t-96.5 360z" />
    <glyph glyph-name="gcircumflex" unicode="&#x11d;" horiz-adv-x="1253" 
d="M507 1084h-264l287 370h196l287 -370h-264l-121 169zM74 -212l187 187q69 -66 138.5 -95.5t156.5 -29.5q43 0 84.5 11t79 33.5t61 62t23.5 90.5v54q-97 -121 -283 -121q-192 0 -318 142t-126 357q0 217 126 359t318 142q184 0 283 -121l10 101h305v-926
q0 -92 -32.5 -168.5t-87 -128.5t-127 -88t-151.5 -52.5t-161 -16.5q-151 0 -276.5 54.5t-209.5 153.5zM596 700q-95 0 -151 -62.5t-56 -158.5q0 -95 56.5 -158t150.5 -63t150.5 63t56.5 158q0 96 -56 158t-151 63z" />
    <glyph glyph-name="Gbreve" unicode="&#x11e;" horiz-adv-x="1534" 
d="M764 1468q-143 0 -229.5 90.5t-94.5 234.5h210q2 -57 33.5 -92.5t80.5 -35.5q51 0 81.5 35t32.5 93h210q-8 -146 -94 -235.5t-230 -89.5zM74 680q0 148 56 278.5t152 222t228.5 144.5t279.5 53q173 0 330 -81.5t253 -223.5l-253 -187q-127 184 -330 184q-171 0 -275 -109
t-104 -281q0 -171 104.5 -281.5t274.5 -110.5q121 0 208.5 50t117.5 142h-358v276h707q6 -59 6 -142q0 -139 -54 -258.5t-146.5 -201t-217 -128t-263.5 -46.5q-196 0 -359.5 89.5t-260 250.5t-96.5 360z" />
    <glyph glyph-name="gbreve" unicode="&#x11f;" horiz-adv-x="1253" 
d="M615 1111q-143 0 -229.5 90.5t-94.5 234.5h210q2 -57 33.5 -92.5t80.5 -35.5q51 0 81.5 35t32.5 93h210q-8 -146 -94 -235.5t-230 -89.5zM560 -420q-151 0 -276.5 54.5t-209.5 153.5l187 187q69 -66 138.5 -95.5t156.5 -29.5q43 0 84.5 11t79 33.5t61 62t23.5 90.5v54
q-97 -121 -283 -121q-192 0 -318 142t-126 357q0 217 126 359t318 142q184 0 283 -121l10 101h305v-926q0 -92 -32.5 -168.5t-87 -128.5t-127 -88t-151.5 -52.5t-161 -16.5zM596 700q-95 0 -151 -62.5t-56 -158.5q0 -95 56.5 -158t150.5 -63t150.5 63t56.5 158q0 96 -56 158
t-151 63z" />
    <glyph glyph-name="Gdotaccent" unicode="&#x120;" horiz-adv-x="1534" 
d="M599 1639q0 77 48 125t124 48q77 0 125.5 -48t48.5 -125t-48.5 -124.5t-125.5 -47.5q-76 0 -124 48t-48 124zM790 -20q-196 0 -359.5 89.5t-260 250.5t-96.5 360q0 148 56 278.5t152 222t228.5 144.5t279.5 53q173 0 330 -81.5t253 -223.5l-253 -187q-127 184 -330 184
q-171 0 -275 -109t-104 -281q0 -171 104.5 -281.5t274.5 -110.5q121 0 208.5 50t117.5 142h-358v276h707q6 -59 6 -142q0 -139 -54 -258.5t-146.5 -201t-217 -128t-263.5 -46.5z" />
    <glyph glyph-name="gdotaccent" unicode="&#x121;" horiz-adv-x="1253" 
d="M411 1305q0 77 48 125t124 48q77 0 125.5 -48t48.5 -125t-48.5 -124.5t-125.5 -47.5q-76 0 -124 48t-48 124zM560 -420q-151 0 -276.5 54.5t-209.5 153.5l187 187q69 -66 138.5 -95.5t156.5 -29.5q43 0 84.5 11t79 33.5t61 62t23.5 90.5v54q-97 -121 -283 -121
q-192 0 -318 142t-126 357q0 217 126 359t318 142q184 0 283 -121l10 101h305v-926q0 -92 -32.5 -168.5t-87 -128.5t-127 -88t-151.5 -52.5t-161 -16.5zM596 700q-95 0 -151 -62.5t-56 -158.5q0 -95 56.5 -158t150.5 -63t150.5 63t56.5 158q0 96 -56 158t-151 63z" />
    <glyph glyph-name="uni0122" unicode="&#x122;" horiz-adv-x="1534" 
d="M790 -20q-196 0 -359.5 89.5t-260 250.5t-96.5 360q0 148 56 278.5t152 222t228.5 144.5t279.5 53q173 0 330 -81.5t253 -223.5l-253 -187q-127 184 -330 184q-171 0 -275 -109t-104 -281q0 -171 104.5 -281.5t274.5 -110.5q121 0 208.5 50t117.5 142h-358v276h707
q6 -59 6 -142q0 -139 -54 -258.5t-146.5 -201t-217 -128t-263.5 -46.5zM857 -538h-226v442h297z" />
    <glyph glyph-name="uni0123" unicode="&#x123;" horiz-adv-x="1253" 
d="M706 1113h-297l71 442h226v-442zM74 -212l187 187q69 -66 138.5 -95.5t156.5 -29.5q43 0 84.5 11t79 33.5t61 62t23.5 90.5v54q-97 -121 -283 -121q-192 0 -318 142t-126 357q0 217 126 359t318 142q184 0 283 -121l10 101h305v-926q0 -92 -32.5 -168.5t-87 -128.5
t-127 -88t-151.5 -52.5t-161 -16.5q-151 0 -276.5 54.5t-209.5 153.5zM596 700q-95 0 -151 -62.5t-56 -158.5q0 -95 56.5 -158t150.5 -63t150.5 63t56.5 158q0 96 -56 158t-151 63z" />
    <glyph glyph-name="Hcircumflex" unicode="&#x124;" horiz-adv-x="1571" 
d="M665 1471h-264l287 370h196l287 -370h-264l-121 169zM492 0h-329v1358h329v-527h588v527h329v-1358h-329v555h-588v-555z" />
    <glyph glyph-name="hcircumflex" unicode="&#x125;" horiz-adv-x="1216" 
d="M167 1489h-264l287 370h196l287 -370h-264l-121 169zM455 0h-316v1408h315v-531q97 103 282 103q144 0 249.5 -96.5t105.5 -259.5v-624h-315v534q0 70 -45.5 114t-115.5 44q-71 0 -115.5 -44t-44.5 -114v-534z" />
    <glyph glyph-name="Hbar" unicode="&#x126;" horiz-adv-x="1563" 
d="M1405 1358v-170h130v-184h-130v-1004h-329v555h-588v-555h-329v1004h-130v184h130v170h329v-170h588v170h329zM1076 831v173h-588v-173h588z" />
    <glyph glyph-name="hbar" unicode="&#x127;" horiz-adv-x="1238" 
d="M139 1092h-111v184h111v132h315v-132h298v-184h-298v-215q97 103 282 103q144 0 249.5 -96.5t105.5 -259.5v-624h-315v534q0 70 -45.5 114t-115.5 44q-71 0 -115.5 -44t-44.5 -114v-534h-316v1092z" />
    <glyph glyph-name="Itilde" unicode="&#x128;" horiz-adv-x="654" 
d="M69 1493l-115 104q110 207 258 207q44 0 138 -48q95 -48 122 -48q57 0 113 86l115 -104q-110 -207 -259 -207q-49 0 -134 48t-126 48q-49 0 -112 -86zM163 0v1358h329v-1358h-329z" />
    <glyph glyph-name="itilde" unicode="&#x129;" horiz-adv-x="592" 
d="M38 1133l-115 104q109 207 258 207q43 0 138 -48t122 -48q57 0 113 86l115 -104q-109 -207 -259 -207q-48 0 -134 48t-126 48q-49 0 -112 -86zM139 0v960h315v-960h-315z" />
    <glyph glyph-name="Imacron" unicode="&#x12a;" horiz-adv-x="654" 
d="M32 1705h591v-204h-591v204zM163 1358h329v-1358h-329v1358z" />
    <glyph glyph-name="imacron" unicode="&#x12b;" horiz-adv-x="592" 
d="M1 1369h591v-204h-591v204zM139 960h315v-960h-315v960z" />
    <glyph glyph-name="Ibreve" unicode="&#x12c;" horiz-adv-x="654" 
d="M3 1793h210q2 -57 33.5 -92.5t80.5 -35.5q51 0 81.5 35t32.5 93h210q-8 -146 -94 -235.5t-230 -89.5q-143 0 -229.5 90.5t-94.5 234.5zM492 1358v-1358h-329v1358h329z" />
    <glyph glyph-name="ibreve" unicode="&#x12d;" horiz-adv-x="592" 
d="M-28 1436h210q2 -57 33.5 -92.5t80.5 -35.5q51 0 81.5 35t32.5 93h210q-8 -146 -94 -235.5t-230 -89.5q-143 0 -229.5 90.5t-94.5 234.5zM454 960v-960h-315v960h315z" />
    <glyph glyph-name="Iogonek" unicode="&#x12e;" horiz-adv-x="654" 
d="M31 -266q0 150 191 266h-59v1358h329v-1358h-51q-196 -112 -196 -194q0 -35 25 -56t68 -21q56 0 109 27l64 -176q-89 -57 -220 -57q-109 0 -184.5 53.5t-75.5 157.5z" />
    <glyph glyph-name="iogonek" unicode="&#x12f;" horiz-adv-x="592" 
d="M295 1133q-76 0 -124 48t-48 124q0 77 48 125t124 48q77 0 125.5 -48t48.5 -125t-48.5 -124.5t-125.5 -47.5zM-5 -266q0 150 191 266h-47v960h315v-960h-49q-196 -112 -196 -194q0 -35 25 -56t68 -21q56 0 109 27l64 -176q-89 -57 -220 -57q-109 0 -184.5 53.5
t-75.5 157.5z" />
    <glyph glyph-name="Idotaccent" unicode="&#x130;" horiz-adv-x="654" 
d="M155 1639q0 77 48 125t124 48q77 0 125.5 -48t48.5 -125t-48.5 -124.5t-125.5 -47.5q-76 0 -124 48t-48 124zM163 0v1358h329v-1358h-329z" />
    <glyph glyph-name="dotlessi" unicode="&#x131;" horiz-adv-x="592" 
d="M139 960h315v-960h-315v960z" />
    <glyph glyph-name="IJ" unicode="&#x132;" horiz-adv-x="1697" 
d="M568 225l218 211q108 -158 246 -158q87 0 137 56t50 158v866h329v-892q0 -229 -145 -357.5t-378 -128.5q-141 0 -262.5 63.5t-194.5 181.5zM163 0v1358h329v-1358h-329z" />
    <glyph glyph-name="ij" unicode="&#x133;" horiz-adv-x="1093" 
d="M796 1133q-76 0 -124 48t-48 124q0 77 48 125t124 48q77 0 125.5 -48t48.5 -125t-48.5 -124.5t-125.5 -47.5zM296 1133q-76 0 -124 48t-48 124q0 77 48 125t124 48q77 0 125.5 -48t48.5 -125t-48.5 -124.5t-125.5 -47.5zM368 -377l26 248q73 -21 119 -21q127 0 127 139
v971h315v-994q0 -94 -30.5 -170t-84.5 -122q-109 -94 -258 -94q-140 0 -214 43zM454 960v-960h-315v960h315z" />
    <glyph glyph-name="Jcircumflex" unicode="&#x134;" horiz-adv-x="1122" 
d="M683 1471h-264l287 370h196l287 -370h-264l-121 169zM-7 225l218 211q108 -158 246 -158q87 0 137 56t50 158v866h329v-892q0 -229 -145 -357.5t-378 -128.5q-141 0 -262.5 63.5t-194.5 181.5z" />
    <glyph glyph-name="jcircumflex" unicode="&#x135;" horiz-adv-x="578" 
d="M168 1084h-264l287 370h196l287 -370h-264l-121 169zM-147 -377l26 248q74 -21 119 -21q127 0 127 139v971h315v-994q0 -94 -30.5 -170t-84.5 -122q-109 -94 -258 -94q-140 0 -214 43z" />
    <glyph glyph-name="uni0136" unicode="&#x136;" horiz-adv-x="1442" 
d="M492 406v-406h-329v1358h329v-572l529 572h415l-529 -564l552 -794h-400l-393 585zM892 -96l-71 -442h-226v442h297z" />
    <glyph glyph-name="uni0137" unicode="&#x137;" horiz-adv-x="1174" 
d="M454 0h-315v1408h315v-751l301 303h411l-415 -406l431 -554h-384l-257 359l-87 -86v-273zM744 -96l-71 -442h-226v442h297z" />
    <glyph glyph-name="kgreenlandic" unicode="&#x138;" horiz-adv-x="1174" 
d="M454 0h-315v960h315v-303l301 303h411l-415 -406l431 -554h-384l-257 359l-87 -86v-273z" />
    <glyph glyph-name="Lacute" unicode="&#x139;" horiz-adv-x="1200" 
d="M355 1807h362l-263 -334h-261zM492 276h689v-276h-1018v1358h329v-1082z" />
    <glyph glyph-name="lacute" unicode="&#x13a;" horiz-adv-x="592" 
d="M327 1826h362l-263 -334h-261zM139 1408h315v-1408h-315v1408z" />
    <glyph glyph-name="uni013B" unicode="&#x13b;" horiz-adv-x="1200" 
d="M492 276h689v-276h-1018v1358h329v-1082zM762 -538h-226v442h297z" />
    <glyph glyph-name="uni013C" unicode="&#x13c;" horiz-adv-x="592" 
d="M139 1408h315v-1408h-315v1408zM371 -538h-226v442h297z" />
    <glyph glyph-name="Lcaron" unicode="&#x13d;" horiz-adv-x="1200" 
d="M1181 0h-1018v1358h329v-1082h689v-276zM1041 1358l-71 -442h-226v442h297z" />
    <glyph glyph-name="lcaron" unicode="&#x13e;" horiz-adv-x="670" 
d="M454 0h-315v1408h315v-1408zM866 1408l-71 -442h-226v442h297z" />
    <glyph glyph-name="Ldot" unicode="&#x13f;" horiz-adv-x="1203" 
d="M1181 276v-276h-1018v1358h329v-1082h689zM711 698q0 77 48 125t124 48q77 0 125.5 -48t48.5 -125t-48.5 -124.5t-125.5 -47.5q-76 0 -124 48t-48 124z" />
    <glyph glyph-name="ldot" unicode="&#x140;" horiz-adv-x="803" 
d="M139 0v1408h315v-1408h-315zM687 507q-76 0 -124 48t-48 124q0 77 48 125t124 48q77 0 125.5 -48t48.5 -125t-48.5 -124.5t-125.5 -47.5z" />
    <glyph glyph-name="Lslash" unicode="&#x141;" horiz-adv-x="1286" 
d="M578 1358v-478l297 18v-184l-297 -18v-420h689v-276h-1018v677l-210 -13v184l210 13v497h329z" />
    <glyph glyph-name="lslash" unicode="&#x142;" horiz-adv-x="729" 
d="M523 1408v-671l159 63v-184l-159 -59v-557h-315v440l-160 -60v170l160 63v795h315z" />
    <glyph glyph-name="Nacute" unicode="&#x143;" horiz-adv-x="1618" 
d="M1215 1807l-263 -334h-261l162 334h362zM163 0v1358h280l684 -828v828h329v-1358h-285l-679 820v-820h-329z" />
    <glyph glyph-name="nacute" unicode="&#x144;" horiz-adv-x="1215" 
d="M799 1113h-261l162 334h362zM423 534v-534h-315v960h289l10 -101q48 59 126 90t171 31q144 0 249.5 -96.5t105.5 -259.5v-624h-315v534q0 70 -45.5 114t-115.5 44q-71 0 -115.5 -44t-44.5 -114z" />
    <glyph glyph-name="uni0145" unicode="&#x145;" horiz-adv-x="1618" 
d="M163 0v1358h280l684 -828v828h329v-1358h-285l-679 820v-820h-329zM926 -538h-226v442h297z" />
    <glyph glyph-name="uni0146" unicode="&#x146;" horiz-adv-x="1215" 
d="M108 0v960h289l10 -101q48 59 126 90t171 31q144 0 249.5 -96.5t105.5 -259.5v-624h-315v534q0 70 -45.5 114t-115.5 44q-71 0 -115.5 -44t-44.5 -114v-534h-315zM473 -538v442h297l-71 -442h-226z" />
    <glyph glyph-name="Ncaron" unicode="&#x147;" horiz-adv-x="1618" 
d="M722 1481l-287 370h264l121 -169l121 169h264l-287 -370h-196zM492 0h-329v1358h280l684 -828v828h329v-1358h-285l-679 820v-820z" />
    <glyph glyph-name="ncaron" unicode="&#x148;" horiz-adv-x="1215" 
d="M740 1096h-196l-287 370h264l121 -169l121 169h264zM423 0h-315v960h289l10 -101q48 59 126 90t171 31q144 0 249.5 -96.5t105.5 -259.5v-624h-315v534q0 70 -45.5 114t-115.5 44q-71 0 -115.5 -44t-44.5 -114v-534z" />
    <glyph glyph-name="napostrophe" unicode="&#x149;" horiz-adv-x="1465" 
d="M237 912h-226l137 516h312zM673 0h-315v960h289l10 -101q48 59 126 90t171 31q144 0 249.5 -96.5t105.5 -259.5v-624h-315v534q0 70 -45.5 114t-115.5 44q-71 0 -115.5 -44t-44.5 -114v-534z" />
    <glyph glyph-name="Eng" unicode="&#x14a;" horiz-adv-x="1618" 
d="M492 0h-329v1358h280l684 -828v828h329v-1392q0 -94 -30.5 -169.5t-83.5 -122.5q-108 -94 -257 -94q-129 0 -194 43l26 248q67 -21 109 -21q101 0 101 139v64l-635 767v-820z" />
    <glyph glyph-name="eng" unicode="&#x14b;" horiz-adv-x="1215" 
d="M108 0v960h289l10 -101q48 59 126 90t171 31q144 0 249.5 -96.5t105.5 -259.5v-624h31v-34q0 -94 -29 -169.5t-80 -122.5q-103 -94 -244 -94q-121 0 -186 41l26 248q42 -17 84 -17q114 0 114 137v11h-31v534q0 70 -45.5 114t-115.5 44q-71 0 -115.5 -44t-44.5 -114v-534
h-315z" />
    <glyph glyph-name="Omacron" unicode="&#x14c;" horiz-adv-x="1568" 
d="M489 1501v204h591v-204h-591zM784 -20q-193 0 -355.5 90.5t-258 252t-95.5 357.5q0 192 94.5 352.5t257.5 253t357 92.5q143 0 274 -53.5t226.5 -146t152.5 -222.5t57 -276q0 -142 -55 -270q-86 -200 -261 -315t-394 -115zM784 1059q-162 0 -266.5 -108t-104.5 -271
q0 -165 103.5 -273.5t267.5 -108.5t268.5 108.5t104.5 273.5q0 164 -105 271.5t-268 107.5z" />
    <glyph glyph-name="omacron" unicode="&#x14d;" horiz-adv-x="1167" 
d="M289 1165v204h591v-204h-591zM584 -20q-144 0 -261.5 63t-186 177.5t-68.5 259.5t68 260t185.5 177.5t262.5 62.5t262.5 -62.5t185.5 -177.5t68 -260t-68.5 -259.5t-186 -177.5t-261.5 -63zM788 480q0 90 -57 150t-147 60q-89 0 -146.5 -60t-57.5 -150q0 -91 57 -152
t147 -61q91 0 147.5 60.5t56.5 152.5z" />
    <glyph glyph-name="Obreve" unicode="&#x14e;" horiz-adv-x="1568" 
d="M785 1468q-143 0 -229.5 90.5t-94.5 234.5h210q2 -57 33.5 -92.5t80.5 -35.5q51 0 81.5 35t32.5 93h210q-8 -146 -94 -235.5t-230 -89.5zM784 -20q-193 0 -355.5 90.5t-258 252t-95.5 357.5q0 192 94.5 352.5t257.5 253t357 92.5q143 0 274 -53.5t226.5 -146
t152.5 -222.5t57 -276q0 -142 -55 -270q-86 -200 -261 -315t-394 -115zM784 1059q-162 0 -266.5 -108t-104.5 -271q0 -165 103.5 -273.5t267.5 -108.5t268.5 108.5t104.5 273.5q0 164 -105 271.5t-268 107.5z" />
    <glyph glyph-name="obreve" unicode="&#x14f;" horiz-adv-x="1167" 
d="M584 1111q-143 0 -229.5 90.5t-94.5 234.5h210q2 -57 33.5 -92.5t80.5 -35.5q51 0 81.5 35t32.5 93h210q-8 -146 -94 -235.5t-230 -89.5zM584 -20q-144 0 -261.5 63t-186 177.5t-68.5 259.5t68 260t185.5 177.5t262.5 62.5t262.5 -62.5t185.5 -177.5t68 -260
t-68.5 -259.5t-186 -177.5t-261.5 -63zM380 480q0 -91 57 -152t147 -61q91 0 147.5 60.5t56.5 152.5q0 90 -57 150t-147 60q-89 0 -146.5 -60t-57.5 -150z" />
    <glyph glyph-name="Ohungarumlaut" unicode="&#x150;" horiz-adv-x="1568" 
d="M1109 1473h-251l182 334h342zM739 1473h-251l162 334h322zM784 -20q-193 0 -355.5 90.5t-258 252t-95.5 357.5q0 192 94.5 352.5t257.5 253t357 92.5q143 0 274 -53.5t226.5 -146t152.5 -222.5t57 -276q0 -142 -55 -270q-86 -200 -261 -315t-394 -115zM1157 680
q0 164 -105 271.5t-268 107.5q-162 0 -266.5 -108t-104.5 -271q0 -165 103.5 -273.5t267.5 -108.5t268.5 108.5t104.5 273.5z" />
    <glyph glyph-name="ohungarumlaut" unicode="&#x151;" horiz-adv-x="1167" 
d="M919 1113h-251l182 334h342zM782 1447l-233 -334h-251l162 334h322zM584 -20q-144 0 -261.5 63t-186 177.5t-68.5 259.5t68 260t185.5 177.5t262.5 62.5t262.5 -62.5t185.5 -177.5t68 -260t-68.5 -259.5t-186 -177.5t-261.5 -63zM380 480q0 -91 57 -152t147 -61
q91 0 147.5 60.5t56.5 152.5q0 90 -57 150t-147 60q-89 0 -146.5 -60t-57.5 -150z" />
    <glyph glyph-name="OE" unicode="&#x152;" horiz-adv-x="2194" 
d="M774 -20q-192 0 -352.5 92t-253.5 253t-93 355q0 190 92 350.5t253 254t354 93.5q215 0 384 -133v113h953v-277h-634v-252h555v-276h-555v-277h644v-276h-963v113q-169 -133 -384 -133zM784 1059q-162 0 -266.5 -108t-104.5 -271q0 -165 103.5 -273.5t267.5 -108.5
t268.5 108.5t104.5 273.5q0 164 -105 271.5t-268 107.5z" />
    <glyph glyph-name="oe" unicode="&#x153;" horiz-adv-x="1823" 
d="M579 -20q-218 0 -364.5 141.5t-146.5 358.5q0 218 146 359t365 141q105 0 195.5 -45.5t153.5 -127.5q61 83 151.5 128t200.5 45q184 0 324 -113q70 -57 109.5 -149.5t39.5 -206.5q0 -53 -9 -112h-648q9 -74 71 -113.5t141 -39.5q59 0 115.5 32t99.5 87l200 -176
q-65 -102 -178 -155.5t-241 -53.5q-116 0 -212.5 46t-160.5 131q-63 -85 -154 -131t-198 -46zM1096 584h366q-1 65 -57 106.5t-123 41.5q-77 0 -127 -41.5t-59 -106.5zM788 480q0 90 -57 150t-147 60q-89 0 -146.5 -60t-57.5 -150q0 -91 57 -152t147 -61q91 0 147.5 60.5
t56.5 152.5z" />
    <glyph glyph-name="Racute" unicode="&#x154;" horiz-adv-x="1373" 
d="M807 1473h-261l162 334h362zM491 468v-468h-328v1358h686q196 0 330 -123t134 -318q0 -139 -70 -247.5t-197 -162.5l284 -508h-355l-257 469h-227zM491 1078v-330h287q90 0 144 47t54 122q0 71 -54 116t-144 45h-287z" />
    <glyph glyph-name="racute" unicode="&#x155;" horiz-adv-x="836" 
d="M609 1113h-261l162 334h362zM454 0h-315v960h297l10 -131q34 71 100.5 111t150.5 40q54 0 117 -20l-19 -275q-60 21 -121 21q-102 0 -161 -61t-59 -183v-462z" />
    <glyph glyph-name="uni0156" unicode="&#x156;" horiz-adv-x="1373" 
d="M491 0h-328v1358h686q196 0 330 -123t134 -318q0 -139 -70 -247.5t-197 -162.5l284 -508h-355l-257 469h-227v-468zM778 1078h-287v-330h287q90 0 144 47t54 122q0 71 -54 116t-144 45zM872 -96l-71 -442h-226v442h297z" />
    <glyph glyph-name="uni0157" unicode="&#x157;" horiz-adv-x="836" 
d="M454 0h-315v960h297l10 -131q34 71 100.5 111t150.5 40q54 0 117 -20l-19 -275q-60 21 -121 21q-102 0 -161 -61t-59 -183v-462zM445 -96l-71 -442h-226v442h297z" />
    <glyph glyph-name="Rcaron" unicode="&#x158;" horiz-adv-x="1373" 
d="M779 1481h-196l-287 370h264l121 -169l121 169h264zM491 0h-328v1358h686q196 0 330 -123t134 -318q0 -139 -70 -247.5t-197 -162.5l284 -508h-355l-257 469h-227v-468zM778 1078h-287v-330h287q90 0 144 47t54 122q0 71 -54 116t-144 45z" />
    <glyph glyph-name="rcaron" unicode="&#x159;" horiz-adv-x="836" 
d="M590 1096h-196l-287 370h264l121 -169l121 169h264zM454 462v-462h-315v960h297l10 -131q34 71 100.5 111t150.5 40q54 0 117 -20l-19 -275q-60 21 -121 21q-102 0 -161 -61t-59 -183z" />
    <glyph glyph-name="Sacute" unicode="&#x15a;" horiz-adv-x="1264" 
d="M1027 1807l-263 -334h-261l162 334h362zM79 292l247 180q58 -90 147.5 -142.5t188.5 -52.5q26 0 56.5 5t63 16t54 33t21.5 51q0 37 -33 65.5t-75 43.5q-52 18 -130 41q-75 22 -143 45q-83 28 -142 57t-112 77q-101 88 -107 262q0 94 43.5 172.5t114.5 128t158 77
t177 27.5q334 0 534 -290l-243 -179q-126 180 -291 180q-71 0 -116 -30.5t-45 -79.5q0 -40 25 -61q31 -28 67 -41q37 -14 100 -33q210 -69 322 -121q61 -30 99 -60q136 -106 129 -270q0 -84 -31.5 -153.5t-84.5 -117t-122.5 -80t-144.5 -47.5t-152 -15q-183 0 -340.5 79.5
t-234.5 232.5z" />
    <glyph glyph-name="sacute" unicode="&#x15b;" horiz-adv-x="978" 
d="M605 1113h-261l162 334h362zM506 -20q-296 0 -441 202l192 173q109 -130 251 -130q104 0 104 59q0 17 -14 28t-45 20q-14 4 -62 16q-52 10 -92 21t-89.5 29t-85 42t-67 55.5t-48 76t-16.5 97.5q0 135 110 224q110 87 286 87q118 0 220.5 -48t170.5 -140l-185 -157
q-36 44 -90 72.5t-119 28.5q-54 0 -84 -17t-30 -46q0 -25 38.5 -41.5t149.5 -42.5q55 -13 99 -27.5t91.5 -40t79.5 -56.5t52.5 -78t20.5 -104q0 -131 -113 -217q-115 -86 -284 -86z" />
    <glyph glyph-name="Scircumflex" unicode="&#x15c;" horiz-adv-x="1264" 
d="M631 1640l-121 -169h-264l287 370h196l287 -370h-264zM79 292l247 180q58 -90 147.5 -142.5t188.5 -52.5q26 0 56.5 5t63 16t54 33t21.5 51q0 37 -33 65.5t-75 43.5q-52 18 -130 41q-75 22 -143 45q-83 28 -142 57t-112 77q-101 88 -107 262q0 94 43.5 172.5t114.5 128
t158 77t177 27.5q334 0 534 -290l-243 -179q-126 180 -291 180q-71 0 -116 -30.5t-45 -79.5q0 -40 25 -61q31 -28 67 -41q37 -14 100 -33q210 -69 322 -121q61 -30 99 -60q136 -106 129 -270q0 -84 -31.5 -153.5t-84.5 -117t-122.5 -80t-144.5 -47.5t-152 -15
q-183 0 -340.5 79.5t-234.5 232.5z" />
    <glyph glyph-name="scircumflex" unicode="&#x15d;" horiz-adv-x="978" 
d="M390 1084h-264l287 370h196l287 -370h-264l-121 169zM506 -20q-296 0 -441 202l192 173q109 -130 251 -130q104 0 104 59q0 17 -14 28t-45 20q-14 4 -62 16q-52 10 -92 21t-89.5 29t-85 42t-67 55.5t-48 76t-16.5 97.5q0 135 110 224q110 87 286 87q118 0 220.5 -48
t170.5 -140l-185 -157q-36 44 -90 72.5t-119 28.5q-54 0 -84 -17t-30 -46q0 -25 38.5 -41.5t149.5 -42.5q55 -13 99 -27.5t91.5 -40t79.5 -56.5t52.5 -78t20.5 -104q0 -131 -113 -217q-115 -86 -284 -86z" />
    <glyph glyph-name="Scedilla" unicode="&#x15e;" horiz-adv-x="1264" 
d="M471 -179l67 167q-150 22 -272.5 99.5t-186.5 204.5l247 180q58 -90 147.5 -142.5t188.5 -52.5q26 0 56.5 5t63 16t54 33t21.5 51q0 37 -33 65.5t-75 43.5q-52 18 -130 41q-75 22 -143 45q-83 28 -142 57t-112 77q-101 88 -107 262q0 94 43.5 172.5t114.5 128t158 77
t177 27.5q334 0 534 -290l-243 -179q-126 180 -291 180q-71 0 -116 -30.5t-45 -79.5q0 -40 25 -61q31 -28 67 -41q37 -14 100 -33q210 -69 322 -121q61 -30 99 -60q136 -106 129 -270q0 -96 -41 -173.5t-111 -126.5t-154.5 -77t-179.5 -34l-19 -63q106 -15 161.5 -66
t55.5 -126q0 -56 -31.5 -98t-82.5 -64t-103 -32t-104 -10q-102 0 -164 30v155q60 -19 131 -19q56 0 88 17.5t32 48.5t-32.5 48.5t-89.5 17.5h-74z" />
    <glyph glyph-name="scedilla" unicode="&#x15f;" horiz-adv-x="978" 
d="M328 -179l66 167q-212 33 -329 194l192 173q109 -130 251 -130q104 0 104 59q0 17 -14 28t-45 20q-14 4 -62 16q-52 10 -92 21t-89.5 29t-85 42t-67 55.5t-48 76t-16.5 97.5q0 135 110 224q110 87 286 87q118 0 220.5 -48t170.5 -140l-185 -157q-36 44 -90 72.5
t-119 28.5q-54 0 -84 -17t-30 -46q0 -25 38.5 -41.5t149.5 -42.5q55 -13 99 -27.5t91.5 -40t79.5 -56.5t52.5 -78t20.5 -104q0 -67 -30 -122.5t-79.5 -92t-109.5 -58t-124 -27.5l-19 -64q106 -15 161.5 -66t55.5 -126q0 -56 -31.5 -98t-82.5 -64t-103 -32t-104 -10
q-103 0 -164 30v155q60 -19 131 -19q56 0 88 17.5t32 48.5t-32.5 48.5t-89.5 17.5h-74z" />
    <glyph glyph-name="Scaron" unicode="&#x160;" horiz-adv-x="1264" 
d="M536 1481l-287 370h264l121 -169l121 169h264l-287 -370h-196zM79 292l247 180q58 -90 147.5 -142.5t188.5 -52.5q26 0 56.5 5t63 16t54 33t21.5 51q0 37 -33 65.5t-75 43.5q-52 18 -130 41q-75 22 -143 45q-83 28 -142 57t-112 77q-101 88 -107 262q0 94 43.5 172.5
t114.5 128t158 77t177 27.5q334 0 534 -290l-243 -179q-126 180 -291 180q-71 0 -116 -30.5t-45 -79.5q0 -40 25 -61q31 -28 67 -41q37 -14 100 -33q210 -69 322 -121q61 -30 99 -60q136 -106 129 -270q0 -84 -31.5 -153.5t-84.5 -117t-122.5 -80t-144.5 -47.5t-152 -15
q-183 0 -340.5 79.5t-234.5 232.5z" />
    <glyph glyph-name="scaron" unicode="&#x161;" horiz-adv-x="978" 
d="M606 1096h-196l-287 370h264l121 -169l121 169h264zM506 -20q-296 0 -441 202l192 173q109 -130 251 -130q104 0 104 59q0 17 -14 28t-45 20q-14 4 -62 16q-52 10 -92 21t-89.5 29t-85 42t-67 55.5t-48 76t-16.5 97.5q0 135 110 224q110 87 286 87q118 0 220.5 -48
t170.5 -140l-185 -157q-36 44 -90 72.5t-119 28.5q-54 0 -84 -17t-30 -46q0 -25 38.5 -41.5t149.5 -42.5q55 -13 99 -27.5t91.5 -40t79.5 -56.5t52.5 -78t20.5 -104q0 -131 -113 -217q-115 -86 -284 -86z" />
    <glyph glyph-name="uni0162" unicode="&#x162;" horiz-adv-x="1160" 
d="M417 0v1075h-402v283h1131v-283h-401v-1075h-106l-25 -81q106 -15 161.5 -66t55.5 -126q0 -56 -31.5 -98t-82.5 -64t-103 -32t-104 -10q-102 0 -164 30v155q60 -19 131 -19q56 0 88 17.5t32 48.5t-32.5 48.5t-89.5 17.5h-74l71 179h-55z" />
    <glyph glyph-name="uni0163" unicode="&#x163;" horiz-adv-x="834" 
d="M179 342v361h-153v257h153v308h305v-308h291v-257h-281v-310q0 -136 142 -136q72 0 155 33l22 -256q-47 -24 -117.5 -39t-137.5 -15q-6 0 -46 2l-19 -63q106 -15 161.5 -66t55.5 -126q0 -56 -31.5 -98t-82.5 -64t-103 -32t-104 -10q-103 0 -164 30v155q60 -19 131 -19
q56 0 88 17.5t32 48.5t-32.5 48.5t-89.5 17.5h-74l79 197q-180 82 -180 324z" />
    <glyph glyph-name="Tcaron" unicode="&#x164;" horiz-adv-x="1160" 
d="M679 1481h-196l-287 370h264l121 -169l121 169h264zM417 1075h-402v283h1131v-283h-401v-1075h-328v1075z" />
    <glyph glyph-name="tcaron" unicode="&#x165;" horiz-adv-x="863" 
d="M545 1066v442h297l-71 -442h-226zM179 342v361h-153v257h153v308h305v-308h291v-257h-281v-310q0 -136 142 -136q72 0 155 33l22 -256q-47 -24 -117.5 -39t-137.5 -15q-173 0 -276 89q-103 88 -103 273z" />
    <glyph glyph-name="Tbar" unicode="&#x166;" horiz-adv-x="1226" 
d="M450 790v285h-402v283h1131v-283h-401v-285h293v-184h-293v-606h-328v606h-294v184h294z" />
    <glyph glyph-name="tbar" unicode="&#x167;" horiz-adv-x="853" 
d="M193 590v113h-153v257h153v308h305v-308h291v-257h-281v-113h258v-184h-258v-13q0 -136 142 -136q72 0 155 33l22 -256q-47 -24 -117.5 -39t-137.5 -15q-173 0 -276 89q-103 88 -103 273v64h-138v184h138z" />
    <glyph glyph-name="Utilde" unicode="&#x168;" horiz-adv-x="1446" 
d="M466 1493l-115 104q109 207 258 207q43 0 138 -48t122 -48q57 0 113 86l115 -104q-109 -207 -259 -207q-48 0 -134 48t-126 48q-49 0 -112 -86zM148 489v869h329v-851q0 -112 67 -177t179 -65q114 0 180.5 65t66.5 177v851h329v-869q0 -126 -44 -224.5t-122.5 -160
t-182.5 -93t-227 -31.5q-125 0 -228.5 30.5t-181.5 91.5t-121.5 160t-43.5 227z" />
    <glyph glyph-name="utilde" unicode="&#x169;" horiz-adv-x="1215" 
d="M339 1133l-115 104q110 207 258 207q44 0 138 -48q95 -48 122 -48q57 0 113 86l115 -104q-110 -207 -259 -207q-49 0 -134 48t-126 48q-49 0 -112 -86zM126 326v634h315v-544q0 -76 49 -116q50 -42 112 -42q71 0 115.5 44t44.5 114v544h315v-960h-289l-10 91
q-48 -59 -126 -90t-171 -31q-144 0 -249.5 96.5t-105.5 259.5z" />
    <glyph glyph-name="Umacron" unicode="&#x16a;" horiz-adv-x="1446" 
d="M428 1501v204h591v-204h-591zM148 489v869h329v-851q0 -112 67 -177t179 -65q114 0 180.5 65t66.5 177v851h329v-869q0 -126 -44 -224.5t-122.5 -160t-182.5 -93t-227 -31.5q-125 0 -228.5 30.5t-181.5 91.5t-121.5 160t-43.5 227z" />
    <glyph glyph-name="umacron" unicode="&#x16b;" horiz-adv-x="1215" 
d="M313 1165v204h591v-204h-591zM126 326v634h315v-544q0 -76 49 -116q50 -42 112 -42q71 0 115.5 44t44.5 114v544h315v-960h-289l-10 91q-48 -59 -126 -90t-171 -31q-144 0 -249.5 96.5t-105.5 259.5z" />
    <glyph glyph-name="Ubreve" unicode="&#x16c;" horiz-adv-x="1446" 
d="M724 1468q-143 0 -229.5 90.5t-94.5 234.5h210q2 -57 33.5 -92.5t80.5 -35.5q51 0 81.5 35t32.5 93h210q-8 -146 -94 -235.5t-230 -89.5zM148 489v869h329v-851q0 -112 67 -177t179 -65q114 0 180.5 65t66.5 177v851h329v-869q0 -126 -44 -224.5t-122.5 -160t-182.5 -93
t-227 -31.5q-125 0 -228.5 30.5t-181.5 91.5t-121.5 160t-43.5 227z" />
    <glyph glyph-name="ubreve" unicode="&#x16d;" horiz-adv-x="1215" 
d="M608 1111q-143 0 -229.5 90.5t-94.5 234.5h210q2 -57 33.5 -92.5t80.5 -35.5q51 0 81.5 35t32.5 93h210q-8 -146 -94 -235.5t-230 -89.5zM126 326v634h315v-544q0 -76 49 -116q50 -42 112 -42q71 0 115.5 44t44.5 114v544h315v-960h-289l-10 91q-48 -59 -126 -90
t-171 -31q-144 0 -249.5 96.5t-105.5 259.5z" />
    <glyph glyph-name="Uring" unicode="&#x16e;" horiz-adv-x="1446" 
d="M501 1691q0 96 63.5 158t159.5 62t159.5 -62t63.5 -158q0 -95 -64 -156t-159 -61t-159 61t-64 156zM785 1691q0 27 -16.5 46.5t-42.5 19.5t-46 -19t-18 -47q0 -27 17.5 -45t44.5 -18q26 0 43.5 18.5t17.5 44.5zM148 489v869h329v-851q0 -112 67 -177t179 -65
q114 0 180.5 65t66.5 177v851h329v-869q0 -126 -44 -224.5t-122.5 -160t-182.5 -93t-227 -31.5q-125 0 -228.5 30.5t-181.5 91.5t-121.5 160t-43.5 227z" />
    <glyph glyph-name="uring" unicode="&#x16f;" horiz-adv-x="1215" 
d="M379 1289q0 96 63.5 158t159.5 62t159.5 -62t63.5 -158q0 -95 -64 -156t-159 -61t-159 61t-64 156zM663 1289q0 27 -16.5 46.5t-42.5 19.5t-46 -19t-18 -47q0 -27 17.5 -45t44.5 -18q26 0 43.5 18.5t17.5 44.5zM126 326v634h315v-544q0 -76 49 -116q50 -42 112 -42
q71 0 115.5 44t44.5 114v544h315v-960h-289l-10 91q-48 -59 -126 -90t-171 -31q-144 0 -249.5 96.5t-105.5 259.5z" />
    <glyph glyph-name="Uhungarumlaut" unicode="&#x170;" horiz-adv-x="1446" 
d="M1040 1473h-251l182 334h342zM903 1807l-233 -334h-251l162 334h322zM148 489v869h329v-851q0 -112 67 -177t179 -65q114 0 180.5 65t66.5 177v851h329v-869q0 -126 -44 -224.5t-122.5 -160t-182.5 -93t-227 -31.5q-125 0 -228.5 30.5t-181.5 91.5t-121.5 160t-43.5 227z
" />
    <glyph glyph-name="uhungarumlaut" unicode="&#x171;" horiz-adv-x="1215" 
d="M1191 1447l-273 -334h-251l182 334h342zM781 1447l-233 -334h-251l162 334h322zM126 326v634h315v-544q0 -76 49 -116q50 -42 112 -42q71 0 115.5 44t44.5 114v544h315v-960h-289l-10 91q-48 -59 -126 -90t-171 -31q-144 0 -249.5 96.5t-105.5 259.5z" />
    <glyph glyph-name="Uogonek" unicode="&#x172;" horiz-adv-x="1446" 
d="M148 489v869h329v-851q0 -112 67 -177t179 -65q114 0 180.5 65t66.5 177v851h329v-869q0 -194 -103 -322t-292 -168q-194 -113 -194 -193q0 -35 25 -56t68 -21q56 0 109 27l64 -176q-88 -57 -220 -57q-109 0 -184.5 53.5t-75.5 157.5q0 142 163 248q-237 16 -374 145
t-137 362z" />
    <glyph glyph-name="uogonek" unicode="&#x173;" horiz-adv-x="1215" 
d="M126 326v634h315v-544q0 -76 49 -116q50 -42 112 -42q71 0 115.5 44t44.5 114v544h315v-960h-71q-196 -112 -196 -194q0 -35 25 -56t68 -21q57 0 109 27l64 -176q-88 -57 -220 -57q-109 0 -184.5 53.5t-75.5 157.5q0 153 192 267l-10 90q-48 -59 -126 -90t-171 -31
q-144 0 -249.5 96.5t-105.5 259.5z" />
    <glyph glyph-name="Wcircumflex" unicode="&#x174;" horiz-adv-x="2049" 
d="M1025 1640l-121 -169h-264l287 370h196l287 -370h-264zM383 0l-366 1358h332l265 -1009l280 989h262l280 -989l265 1009h332l-366 -1358h-418l-224 744l-224 -744h-418z" />
    <glyph glyph-name="wcircumflex" unicode="&#x175;" horiz-adv-x="1648" 
d="M825 1253l-121 -169h-264l287 370h196l287 -370h-264zM309 0l-283 960h321l167 -632l187 613h247l186 -613l168 632h321l-283 -960h-368l-148 481l-147 -481h-368z" />
    <glyph glyph-name="Ycircumflex" unicode="&#x176;" horiz-adv-x="1424" 
d="M592 1471h-264l287 370h196l287 -370h-264l-121 169zM550 0v505l-548 853h403l314 -518l319 518h385l-544 -853v-505h-329z" />
    <glyph glyph-name="ycircumflex" unicode="&#x177;" horiz-adv-x="1125" 
d="M444 1084h-264l287 370h196l287 -370h-264l-121 169zM397 -1l-386 961h351l203 -642l198 642h352l-445 -1101q-55 -137 -161.5 -208t-246.5 -71q-104 0 -207 50l43 248q60 -26 112 -26q67 0 117 38t70 109z" />
    <glyph glyph-name="Ydieresis" unicode="&#x178;" horiz-adv-x="1424" 
d="M901 1488q-67 0 -109 42t-42 109q0 68 42 110t109 42q68 0 110.5 -42.5t42.5 -109.5t-42.5 -109t-110.5 -42zM523 1488q-67 0 -109 42t-42 109q0 68 42 110t109 42q68 0 110.5 -42.5t42.5 -109.5t-42.5 -109t-110.5 -42zM550 0v505l-548 853h403l314 -518l319 518h385
l-544 -853v-505h-329z" />
    <glyph glyph-name="Zacute" unicode="&#x179;" horiz-adv-x="1211" 
d="M629 1807h362l-263 -334h-261zM1148 0h-1081v220l638 857h-628v281h1061v-222l-636 -856h646v-280z" />
    <glyph glyph-name="zacute" unicode="&#x17a;" horiz-adv-x="929" 
d="M852 1447l-263 -334h-261l162 334h362zM70 700v260h774v-207l-412 -493h442v-260h-804v206l414 494h-414z" />
    <glyph glyph-name="Zdotaccent" unicode="&#x17b;" horiz-adv-x="1211" 
d="M605 1467q-76 0 -124 48t-48 124q0 77 48 125t124 48q77 0 125.5 -48t48.5 -125t-48.5 -124.5t-125.5 -47.5zM67 0v220l638 857h-628v281h1061v-222l-636 -856h646v-280h-1081z" />
    <glyph glyph-name="zdotaccent" unicode="&#x17c;" horiz-adv-x="929" 
d="M320 1305q0 77 48 125t124 48q77 0 125.5 -48t48.5 -125t-48.5 -124.5t-125.5 -47.5q-76 0 -124 48t-48 124zM484 700h-414v260h774v-207l-412 -493h442v-260h-804v206z" />
    <glyph glyph-name="Zcaron" unicode="&#x17d;" horiz-adv-x="1211" 
d="M508 1481l-287 370h264l121 -169l121 169h264l-287 -370h-196zM1148 0h-1081v220l638 857h-628v281h1061v-222l-636 -856h646v-280z" />
    <glyph glyph-name="zcaron" unicode="&#x17e;" horiz-adv-x="929" 
d="M383 1096l-287 370h264l121 -169l121 169h264l-287 -370h-196zM70 700v260h774v-207l-412 -493h442v-260h-804v206l414 494h-414z" />
    <glyph glyph-name="uni018F" unicode="&#x18f;" horiz-adv-x="1512" 
d="M69 633q0 78 13 152h1009q-22 130 -126 202.5t-240 72.5q-227 0 -368 -192l-252 187q98 155 266.5 239t359.5 84q157 0 291 -53.5t226 -149.5q91 -95 141 -224.5t50 -274.5q0 -199 -88.5 -358t-248.5 -249t-363 -90q-295 0 -482.5 180t-187.5 474zM1085 545h-682
q16 -121 111 -191t221 -70q129 0 230.5 69.5t119.5 191.5z" />
    <glyph glyph-name="florin" unicode="&#x192;" horiz-adv-x="1267" 
d="M276 -20q-135 0 -243 53l91 235q46 -31 125 -31q74 0 123 36.5t60 108.5l35 258h-158l36 257h158l13 94q23 157 134 268q56 56 143 87.5t191 31.5q135 0 243 -53l-91 -235q-46 31 -125 31q-76 0 -129.5 -37.5t-63.5 -110.5l-11 -76h266l-36 -257h-255l-38 -276
q-20 -157 -133 -266q-57 -56 -144 -87t-191 -31z" />
    <glyph glyph-name="uni019D" unicode="&#x19d;" horiz-adv-x="1618" 
d="M-73 -377l26 248q67 -21 109 -21q101 0 101 139v1369h280l684 -828v828h329v-1358h-285l-679 820v-854q0 -94 -30.5 -169.5t-83.5 -122.5q-108 -94 -257 -94q-129 0 -194 43z" />
    <glyph glyph-name="Gcaron" unicode="&#x1e6;" horiz-adv-x="1534" 
d="M863 1481h-196l-287 370h264l121 -169l121 169h264zM74 680q0 148 56 278.5t152 222t228.5 144.5t279.5 53q173 0 330 -81.5t253 -223.5l-253 -187q-127 184 -330 184q-171 0 -275 -109t-104 -281q0 -171 104.5 -281.5t274.5 -110.5q121 0 208.5 50t117.5 142h-358v276
h707q6 -59 6 -142q0 -139 -54 -258.5t-146.5 -201t-217 -128t-263.5 -46.5q-196 0 -359.5 89.5t-260 250.5t-96.5 360z" />
    <glyph glyph-name="gcaron" unicode="&#x1e7;" horiz-adv-x="1253" 
d="M519 1096l-287 370h264l121 -169l121 169h264l-287 -370h-196zM560 -420q-151 0 -276.5 54.5t-209.5 153.5l187 187q69 -66 138.5 -95.5t156.5 -29.5q43 0 84.5 11t79 33.5t61 62t23.5 90.5v54q-97 -121 -283 -121q-192 0 -318 142t-126 357q0 217 126 359t318 142
q184 0 283 -121l10 101h305v-926q0 -92 -32.5 -168.5t-87 -128.5t-127 -88t-151.5 -52.5t-161 -16.5zM596 700q-95 0 -151 -62.5t-56 -158.5q0 -95 56.5 -158t150.5 -63t150.5 63t56.5 158q0 96 -56 158t-151 63z" />
    <glyph glyph-name="uni01EA" unicode="&#x1ea;" horiz-adv-x="1568" 
d="M701 -15q-177 21 -320 116.5t-224.5 247.5t-81.5 331q0 192 94.5 352.5t257.5 253t357 92.5q143 0 274 -53.5t226.5 -146t152.5 -222.5t57 -276q0 -250 -155.5 -440.5t-400.5 -243.5q-189 -110 -189 -190q0 -35 25 -56t68 -21q56 0 109 27l64 -176q-88 -57 -220 -57
q-109 0 -184.5 53.5t-75.5 157.5q0 142 166 251zM1157 680q0 164 -105 271.5t-268 107.5q-162 0 -266.5 -108t-104.5 -271q0 -165 103.5 -273.5t267.5 -108.5t268.5 108.5t104.5 273.5z" />
    <glyph glyph-name="uni01EB" unicode="&#x1eb;" horiz-adv-x="1167" 
d="M68 480q0 145 68 260t185.5 177.5t262.5 62.5t262.5 -62.5t185.5 -177.5t68 -260q0 -175 -101 -306.5t-270 -175.5q-193 -112 -193 -192q0 -35 25 -56t68 -21q57 0 109 27l64 -176q-89 -57 -220 -57q-109 0 -184.5 53.5t-75.5 157.5q0 143 170 253q-188 29 -306 166
t-118 327zM380 480q0 -91 57 -152t147 -61q91 0 147.5 60.5t56.5 152.5q0 90 -57 150t-147 60q-89 0 -146.5 -60t-57.5 -150z" />
    <glyph glyph-name="Aringacute" unicode="&#x1fa;" horiz-adv-x="1456" 
d="M1133 2296l-263 -334h-261l162 334h362zM952 1691q0 -95 -64 -156t-159 -61t-159 61t-64 156q0 96 63.5 158t159.5 62t159.5 -62t63.5 -158zM790 1691q0 27 -16.5 46.5t-42.5 19.5t-46 -19t-18 -47q0 -27 17.5 -45t44.5 -18q26 0 43.5 18.5t17.5 44.5zM349 0h-352
l536 1358h390l537 -1358h-352l-92 249h-575zM729 1029l-194 -524h387z" />
    <glyph glyph-name="aringacute" unicode="&#x1fb;" horiz-adv-x="1113" 
d="M958 1901l-263 -334h-261l162 334h362zM778 1289q0 -95 -64 -156t-159 -61t-159 61t-64 156q0 96 63.5 158t159.5 62t159.5 -62t63.5 -158zM616 1289q0 27 -16.5 46.5t-42.5 19.5t-46 -19t-18 -47q0 -27 17.5 -45t44.5 -18q26 0 43.5 18.5t17.5 44.5zM433 -20
q-94 0 -173 30t-132 98t-53 164q-1 137 119 223t287 83q102 0 192 -25v19q0 58 -48.5 94t-131.5 36q-67 0 -127 -29t-104 -78l-174 187q70 77 182 138q110 60 250 60q135 0 238.5 -42.5t166.5 -136.5t63 -231v-570h-299v98q-40 -53 -108 -85.5t-148 -32.5zM377 291
q0 -43 35 -69.5t90 -26.5q76 0 123.5 46t47.5 121q-56 25 -136 25q-75 0 -117.5 -25.5t-42.5 -70.5z" />
    <glyph glyph-name="AEacute" unicode="&#x1fc;" horiz-adv-x="2059" 
d="M1765 1807l-263 -334h-261l162 334h362zM328 0h-385l822 1358h1148v-277h-634v-252h555v-276h-555v-277h644v-276h-973v249h-479zM950 1081l-332 -576h332v576z" />
    <glyph glyph-name="aeacute" unicode="&#x1fd;" horiz-adv-x="1700" 
d="M1232 1447l-263 -334h-261l162 334h362zM76 272q-1 137 119 223t287 83q102 0 192 -25v19q0 58 -48.5 94t-131.5 36q-66 0 -127 -29t-104 -78l-174 187q70 77 182 138q109 60 250 60q202 0 307 -125q128 125 322 125q188 0 328 -113q71 -57 111.5 -149.5t40.5 -206.5
q0 -53 -9 -112h-648q9 -74 71 -113.5t141 -39.5q59 0 115.5 32t99.5 87l200 -176q-65 -102 -178 -155.5t-241 -53.5q-229 0 -368 151q-120 -151 -347 -151q-71 0 -137.5 16.5t-124.5 50t-93 91.5t-35 134zM973 584h366q-1 65 -57 106.5t-123 41.5q-77 0 -127 -41.5
t-59 -106.5zM538 387q-75 0 -117.5 -25.5t-42.5 -70.5q0 -43 35 -69.5t90 -26.5q76 0 123.5 46t47.5 121q-56 25 -136 25z" />
    <glyph glyph-name="Oslashacute" unicode="&#x1fe;" horiz-adv-x="1568" 
d="M1185 1807l-263 -334h-261l162 334h362zM203 -25l119 171q-117 98 -182 236t-65 298q0 192 94.5 352.5t257.5 253t357 92.5q180 0 338 -83l117 169l128 -88l-117 -167q116 -99 180 -236.5t64 -292.5q0 -142 -55 -270q-86 -200 -261 -315t-394 -115q-178 0 -334 81
l-122 -175zM509 415l427 614q-74 30 -152 30q-162 0 -266.5 -108t-104.5 -271q0 -158 96 -265zM1062 939l-427 -613q69 -28 149 -28q164 0 268.5 108.5t104.5 273.5q0 153 -95 259z" />
    <glyph glyph-name="oslashacute" unicode="&#x1ff;" horiz-adv-x="1177" 
d="M726 1113h-261l162 334h362zM326 44l-142 -172l-116 106l135 162q-130 139 -130 340q0 145 68 260t185.5 177.5t262.5 62.5q143 0 259 -62l141 170l121 -96l-139 -168q134 -140 134 -344q0 -145 -68.5 -259.5t-186 -177.5t-261.5 -63q-145 0 -263 64zM405 384l246 297
q-29 9 -62 9q-89 0 -146.5 -60t-57.5 -150q0 -51 20 -96zM770 581l-250 -303q35 -11 69 -11q91 0 147.5 60.5t56.5 152.5q0 53 -23 101z" />
    <glyph glyph-name="uni0218" unicode="&#x218;" horiz-adv-x="1264" 
d="M79 292l247 180q58 -90 147.5 -142.5t188.5 -52.5q26 0 56.5 5t63 16t54 33t21.5 51q0 37 -33 65.5t-75 43.5q-52 18 -130 41q-75 22 -143 45q-83 28 -142 57t-112 77q-101 88 -107 262q0 94 43.5 172.5t114.5 128t158 77t177 27.5q334 0 534 -290l-243 -179
q-126 180 -291 180q-71 0 -116 -30.5t-45 -79.5q0 -40 25 -61q31 -28 67 -41q37 -14 100 -33q210 -69 322 -121q61 -30 99 -60q136 -106 129 -270q0 -84 -31.5 -153.5t-84.5 -117t-122.5 -80t-144.5 -47.5t-152 -15q-183 0 -340.5 79.5t-234.5 232.5zM506 -538v442h297
l-71 -442h-226z" />
    <glyph glyph-name="uni0219" unicode="&#x219;" horiz-adv-x="978" 
d="M65 182l192 173q109 -130 251 -130q104 0 104 59q0 17 -14 28t-45 20q-14 4 -62 16q-52 10 -92 21t-89.5 29t-85 42t-67 55.5t-48 76t-16.5 97.5q0 135 110 224q110 87 286 87q118 0 220.5 -48t170.5 -140l-185 -157q-36 44 -90 72.5t-119 28.5q-54 0 -84 -17t-30 -46
q0 -25 38.5 -41.5t149.5 -42.5q55 -13 99 -27.5t91.5 -40t79.5 -56.5t52.5 -78t20.5 -104q0 -131 -113 -217q-115 -86 -284 -86q-296 0 -441 202zM642 -96l-71 -442h-226v442h297z" />
    <glyph glyph-name="uni021A" unicode="&#x21a;" horiz-adv-x="1160" 
d="M15 1075v283h1131v-283h-401v-1075h-328v1075h-402zM666 -538h-226v442h297z" />
    <glyph glyph-name="uni021B" unicode="&#x21b;" horiz-adv-x="834" 
d="M179 703h-153v257h153v308h305v-308h291v-257h-281v-310q0 -136 142 -136q72 0 155 33l22 -256q-47 -24 -117.5 -39t-137.5 -15q-173 0 -276 89q-103 88 -103 273v361zM549 -538h-226v442h297z" />
    <glyph glyph-name="uni0232" unicode="&#x232;" horiz-adv-x="1424" 
d="M1008 1705v-204h-591v204h591zM550 0v505l-548 853h403l314 -518l319 518h385l-544 -853v-505h-329z" />
    <glyph glyph-name="uni0233" unicode="&#x233;" horiz-adv-x="1125" 
d="M859 1165h-591v204h591v-204zM397 -1l-386 961h351l203 -642l198 642h352l-445 -1101q-55 -137 -161.5 -208t-246.5 -71q-104 0 -207 50l43 248q60 -26 112 -26q67 0 117 38t70 109z" />
    <glyph glyph-name="uni0237" unicode="&#x237;" horiz-adv-x="578" 
d="M-147 -377l26 248q74 -21 119 -21q127 0 127 139v971h315v-994q0 -94 -30.5 -170t-84.5 -122q-109 -94 -258 -94q-140 0 -214 43z" />
    <glyph glyph-name="uni0259" unicode="&#x259;" horiz-adv-x="1103" 
d="M472 -20q-186 0 -328 114q-71 57 -111.5 149t-40.5 206q0 53 9 112h648q-9 75 -70 114t-142 39q-59 0 -115.5 -32t-99.5 -87l-200 176q66 103 178 156t241 53q225 0 370.5 -138t145.5 -362q0 -220 -133 -360t-352 -140zM649 376h-366q1 -65 57 -106.5t123 -41.5
q77 0 127 41.5t59 106.5z" />
    <glyph glyph-name="uni0272" unicode="&#x272;" horiz-adv-x="1215" 
d="M-85 -379l26 248q42 -17 84 -17q114 0 114 137v11h-31v960h289l10 -101q48 59 126 90t171 31q144 0 249.5 -96.5t105.5 -259.5v-624h-315v534q0 70 -45.5 114t-115.5 44q-71 0 -115.5 -44t-44.5 -114v-534h31v-34q0 -94 -29 -169.5t-80 -122.5q-103 -94 -244 -94
q-121 0 -186 41z" />
    <glyph glyph-name="circumflex" unicode="&#x2c6;" horiz-adv-x="1043" 
d="M401 1471h-264l287 370h196l287 -370h-264l-121 169z" />
    <glyph glyph-name="caron" unicode="&#x2c7;" horiz-adv-x="1043" 
d="M620 1481h-196l-287 370h264l121 -169l121 169h264z" />
    <glyph glyph-name="breve" unicode="&#x2d8;" horiz-adv-x="901" 
d="M127 1793h210q2 -57 33.5 -92.5t80.5 -35.5q51 0 81.5 35t32.5 93h210q-8 -146 -94 -235.5t-230 -89.5q-143 0 -229.5 90.5t-94.5 234.5z" />
    <glyph glyph-name="dotaccent" unicode="&#x2d9;" horiz-adv-x="619" 
d="M137 1639q0 77 48 125t124 48q77 0 125.5 -48t48.5 -125t-48.5 -124.5t-125.5 -47.5q-76 0 -124 48t-48 124z" />
    <glyph glyph-name="ring" unicode="&#x2da;" horiz-adv-x="719" 
d="M583 1691q0 -95 -64 -156t-159 -61t-159 61t-64 156q0 96 63.5 158t159.5 62t159.5 -62t63.5 -158zM298 1691q0 -27 17.5 -45t44.5 -18q26 0 43.5 18.5t17.5 44.5q0 28 -17 47t-44 19t-44.5 -19t-17.5 -47z" />
    <glyph glyph-name="ogonek" unicode="&#x2db;" horiz-adv-x="701" 
d="M118 -266q0 53 23.5 101.5t64.5 86.5t84 66t93 51l145 -39q-196 -112 -196 -194q0 -35 25 -56t68 -21q56 0 109 27l64 -176q-89 -57 -220 -57q-109 0 -184.5 53.5t-75.5 157.5z" />
    <glyph glyph-name="tilde" unicode="&#x2dc;" horiz-adv-x="1019" 
d="M252 1493l-115 104q109 207 258 207q43 0 138 -48t122 -48q57 0 113 86l115 -104q-109 -207 -259 -207q-48 0 -134 48t-126 48q-49 0 -112 -86z" />
    <glyph glyph-name="hungarumlaut" unicode="&#x2dd;" horiz-adv-x="1187" 
d="M768 1473h-251l182 334h342zM398 1473h-251l162 334h322z" />
    <glyph glyph-name="acutecomb" unicode="&#x301;" horiz-adv-x="797" 
d="M299 2277h362l-263 -334h-261z" />
    <glyph glyph-name="uni030A" unicode="&#x30a;" horiz-adv-x="719" 
d="M583 1691q0 -95 -64 -156t-159 -61t-159 61t-64 156q0 96 63.5 158t159.5 62t159.5 -62t63.5 -158zM298 1691q0 -27 17.5 -45t44.5 -18q26 0 43.5 18.5t17.5 44.5q0 28 -17 47t-44 19t-44.5 -19t-17.5 -47z" />
    <glyph glyph-name="dotbelowcomb" unicode="&#x323;" horiz-adv-x="622" 
d="M137 -285q0 72 50.5 123t122.5 51t124 -51t52 -123q0 -73 -51 -121.5t-125 -48.5q-71 0 -122 49.5t-51 120.5z" />
    <glyph glyph-name="uni0326" unicode="&#x326;" horiz-adv-x="570" 
d="M363 -538h-226v442h297z" />
    <glyph glyph-name="uni03BC" unicode="&#x3bc;" horiz-adv-x="1232" 
d="M454 -400h-315v1360h315v-534q0 -76 49 -116q49 -42 112 -42q71 0 117.5 44t46.5 114v534h315v-960h-289l-10 101q-72 -110 -203 -110q-86 0 -138 40v-431z" />
    <glyph glyph-name="pi" unicode="&#x3c0;" horiz-adv-x="1370" 
d="M192 838h-168v284h1281l-1 -284h-160v-455q0 -68 41 -100t116 -25v-270q-37 -8 -93 -8q-173 0 -276 89q-103 88 -103 273v496h-322v-838h-315v838z" />
    <glyph glyph-name="Wgrave" unicode="&#x1e80;" horiz-adv-x="2049" 
d="M877 1473l-263 334h362l162 -334h-261zM383 0l-366 1358h332l265 -1009l280 989h262l280 -989l265 1009h332l-366 -1358h-418l-224 744l-224 -744h-418z" />
    <glyph glyph-name="wgrave" unicode="&#x1e81;" horiz-adv-x="1648" 
d="M938 1121h-261l-263 334h362zM309 0l-283 960h321l167 -632l187 613h247l186 -613l168 632h321l-283 -960h-368l-148 481l-147 -481h-368z" />
    <glyph glyph-name="Wacute" unicode="&#x1e82;" horiz-adv-x="2049" 
d="M1441 1807l-263 -334h-261l162 334h362zM801 0h-418l-366 1358h332l265 -1009l280 989h262l280 -989l265 1009h332l-366 -1358h-418l-224 744z" />
    <glyph glyph-name="wacute" unicode="&#x1e83;" horiz-adv-x="1648" 
d="M1235 1447l-263 -334h-261l162 334h362zM309 0l-283 960h321l167 -632l187 613h247l186 -613l168 632h321l-283 -960h-368l-148 481l-147 -481h-368z" />
    <glyph glyph-name="Wdieresis" unicode="&#x1e84;" horiz-adv-x="2049" 
d="M1213 1488q-67 0 -109 42t-42 109t42 109.5t109 42.5q68 0 110.5 -42.5t42.5 -109.5t-42.5 -109t-110.5 -42zM835 1488q-67 0 -109 42t-42 109t42 109.5t109 42.5q68 0 110.5 -42.5t42.5 -109.5t-42.5 -109t-110.5 -42zM383 0l-366 1358h332l265 -1009l280 989h262
l280 -989l265 1009h332l-366 -1358h-418l-224 744l-224 -744h-418z" />
    <glyph glyph-name="wdieresis" unicode="&#x1e85;" horiz-adv-x="1648" 
d="M1013 1151q-67 0 -109 42t-42 109t42 109.5t109 42.5q68 0 110.5 -42.5t42.5 -109.5t-42.5 -109t-110.5 -42zM635 1151q-67 0 -109 42t-42 109t42 109.5t109 42.5q68 0 110.5 -42.5t42.5 -109.5t-42.5 -109t-110.5 -42zM309 0l-283 960h321l167 -632l187 613h247
l186 -613l168 632h321l-283 -960h-368l-148 481l-147 -481h-368z" />
    <glyph glyph-name="Germandbls" unicode="&#x1e9e;" horiz-adv-x="1468" 
d="M476 804v-804h-329v827q0 159 84 287q85 130 226 197t305 67q182 0 328 -74q169 -88 231 -194v-158l-310 -224h44q54 2 124.5 -25t127.5 -81q41 -38 66 -101t25 -138q0 -173 -130 -287t-329 -114q-121 0 -229 50t-168 146l203 180q78 -91 177 -91q56 0 96 35t40 90
q0 153 -208 153h-190v189l352 275q-37 38 -99 60.5t-136 22.5q-130 0 -215.5 -79.5t-85.5 -208.5z" />
    <glyph glyph-name="uni1EA0" unicode="&#x1ea0;" horiz-adv-x="1456" 
d="M349 0h-352l536 1358h390l537 -1358h-352l-92 249h-575zM729 1029l-194 -524h387zM727 -455q-71 0 -122 49.5t-51 120.5q0 72 50.5 123t122.5 51t124 -51t52 -123q0 -73 -51 -121.5t-125 -48.5z" />
    <glyph glyph-name="uni1EA1" unicode="&#x1ea1;" horiz-adv-x="1113" 
d="M75 272q-1 137 119 223t287 83q102 0 192 -25v19q0 58 -48.5 94t-131.5 36q-67 0 -127 -29t-104 -78l-174 187q70 77 182 138q110 60 250 60q135 0 238.5 -42.5t166.5 -136.5t63 -231v-570h-299v98q-40 -53 -108 -85.5t-148 -32.5q-94 0 -173 30t-132 98t-53 164z
M537 387q-75 0 -117.5 -25.5t-42.5 -70.5q0 -43 35 -69.5t90 -26.5q76 0 123.5 46t47.5 121q-56 25 -136 25zM553 -455q-71 0 -122 49.5t-51 120.5q0 72 50.5 123t122.5 51t124 -51t52 -123q0 -73 -51 -121.5t-125 -48.5z" />
    <glyph glyph-name="uni1EB8" unicode="&#x1eb8;" horiz-adv-x="1209" 
d="M163 0v1358h963v-277h-634v-252h555v-276h-555v-277h644v-276h-973zM664 -455q-71 0 -122 49.5t-51 120.5q0 72 50.5 123t122.5 51t124 -51t52 -123q0 -73 -51 -121.5t-125 -48.5z" />
    <glyph glyph-name="uni1EB9" unicode="&#x1eb9;" horiz-adv-x="1103" 
d="M585 -20q-225 0 -370.5 138t-145.5 362q0 219 133.5 359.5t351.5 140.5q188 0 328 -113q71 -57 111.5 -149.5t40.5 -206.5q0 -53 -9 -112h-648q9 -74 71 -113.5t141 -39.5q59 0 115.5 32t99.5 87l200 -176q-65 -102 -178 -155.5t-241 -53.5zM563 732q-77 0 -127 -41.5
t-59 -106.5h366q-1 65 -57 106.5t-123 41.5zM398 -285q0 72 50.5 123t122.5 51t124 -51t52 -123q0 -73 -51 -121.5t-125 -48.5q-71 0 -122 49.5t-51 120.5z" />
    <glyph glyph-name="uni1EBC" unicode="&#x1ebc;" horiz-adv-x="1209" 
d="M387 1493l-115 104q110 207 258 207q44 0 138 -48q95 -48 122 -48q57 0 113 86l115 -104q-110 -207 -259 -207q-49 0 -134 48t-126 48q-49 0 -112 -86zM1136 0h-973v1358h963v-277h-634v-252h555v-276h-555v-277h644v-276z" />
    <glyph glyph-name="uni1EBD" unicode="&#x1ebd;" horiz-adv-x="1103" 
d="M294 1133l-115 104q109 207 258 207q43 0 138 -48t122 -48q57 0 113 86l115 -104q-109 -207 -259 -207q-48 0 -134 48t-126 48q-49 0 -112 -86zM585 -20q-225 0 -370.5 138t-145.5 362q0 219 133.5 359.5t351.5 140.5q188 0 328 -113q71 -57 111.5 -149.5t40.5 -206.5
q0 -53 -9 -112h-648q9 -74 71 -113.5t141 -39.5q59 0 115.5 32t99.5 87l200 -176q-65 -102 -178 -155.5t-241 -53.5zM377 584h366q-1 65 -57 106.5t-123 41.5q-77 0 -127 -41.5t-59 -106.5z" />
    <glyph glyph-name="uni1ECA" unicode="&#x1eca;" horiz-adv-x="654" 
d="M492 0h-329v1358h329v-1358zM153 -285q0 72 50.5 123t122.5 51t124 -51t52 -123q0 -73 -51 -121.5t-125 -48.5q-71 0 -122 49.5t-51 120.5z" />
    <glyph glyph-name="uni1ECB" unicode="&#x1ecb;" horiz-adv-x="592" 
d="M295 1133q-76 0 -124 48t-48 124q0 77 48 125t124 48q77 0 125.5 -48t48.5 -125t-48.5 -124.5t-125.5 -47.5zM454 960v-960h-315v960h315zM295 -455q-71 0 -122 49.5t-51 120.5q0 72 50.5 123t122.5 51t124 -51t52 -123q0 -73 -51 -121.5t-125 -48.5z" />
    <glyph glyph-name="uni1ECC" unicode="&#x1ecc;" horiz-adv-x="1568" 
d="M784 -20q-193 0 -355.5 90.5t-258 252t-95.5 357.5q0 192 94.5 352.5t257.5 253t357 92.5q143 0 274 -53.5t226.5 -146t152.5 -222.5t57 -276q0 -142 -55 -270q-86 -200 -261 -315t-394 -115zM1157 680q0 164 -105 271.5t-268 107.5q-162 0 -266.5 -108t-104.5 -271
q0 -165 103.5 -273.5t267.5 -108.5t268.5 108.5t104.5 273.5zM610 -285q0 72 50.5 123t122.5 51t124 -51t52 -123q0 -73 -51 -121.5t-125 -48.5q-71 0 -122 49.5t-51 120.5z" />
    <glyph glyph-name="uni1ECD" unicode="&#x1ecd;" horiz-adv-x="1167" 
d="M584 -20q-144 0 -261.5 63t-186 177.5t-68.5 259.5t68 260t185.5 177.5t262.5 62.5t262.5 -62.5t185.5 -177.5t68 -260t-68.5 -259.5t-186 -177.5t-261.5 -63zM788 480q0 90 -57 150t-147 60q-89 0 -146.5 -60t-57.5 -150q0 -91 57 -152t147 -61q91 0 147.5 60.5
t56.5 152.5zM410 -285q0 72 50.5 123t122.5 51t124 -51t52 -123q0 -73 -51 -121.5t-125 -48.5q-71 0 -122 49.5t-51 120.5z" />
    <glyph glyph-name="uni1EE4" unicode="&#x1ee4;" horiz-adv-x="1446" 
d="M148 489v869h329v-851q0 -112 67 -177t179 -65q114 0 180.5 65t66.5 177v851h329v-869q0 -126 -44 -224.5t-122.5 -160t-182.5 -93t-227 -31.5q-125 0 -228.5 30.5t-181.5 91.5t-121.5 160t-43.5 227zM549 -285q0 72 50.5 123t122.5 51t124 -51t52 -123q0 -73 -51 -121.5
t-125 -48.5q-71 0 -122 49.5t-51 120.5z" />
    <glyph glyph-name="uni1EE5" unicode="&#x1ee5;" horiz-adv-x="1215" 
d="M126 326v634h315v-544q0 -76 49 -116q50 -42 112 -42q71 0 115.5 44t44.5 114v544h315v-960h-289l-10 91q-48 -59 -126 -90t-171 -31q-144 0 -249.5 96.5t-105.5 259.5zM427 -285q0 72 50.5 123t122.5 51t124 -51t52 -123q0 -73 -51 -121.5t-125 -48.5q-71 0 -122 49.5
t-51 120.5z" />
    <glyph glyph-name="Ygrave" unicode="&#x1ef2;" horiz-adv-x="1424" 
d="M852 1473h-261l-263 334h362zM550 0v505l-548 853h403l314 -518l319 518h385l-544 -853v-505h-329z" />
    <glyph glyph-name="ygrave" unicode="&#x1ef3;" horiz-adv-x="1125" 
d="M419 1121l-263 334h362l162 -334h-261zM397 -1l-386 961h351l203 -642l198 642h352l-445 -1101q-55 -137 -161.5 -208t-246.5 -71q-104 0 -207 50l43 248q60 -26 112 -26q67 0 117 38t70 109z" />
    <glyph glyph-name="uni1EF8" unicode="&#x1ef8;" horiz-adv-x="1424" 
d="M455 1493l-115 104q110 207 258 207q44 0 138 -48q95 -48 122 -48q57 0 113 86l115 -104q-109 -207 -259 -207q-49 0 -134 48t-126 48q-49 0 -112 -86zM550 505l-548 853h403l314 -518l319 518h385l-544 -853v-505h-329v505z" />
    <glyph glyph-name="uni1EF9" unicode="&#x1ef9;" horiz-adv-x="1125" 
d="M305 1133l-115 104q110 207 258 207q44 0 138 -48q95 -48 122 -48q57 0 113 86l115 -104q-110 -207 -259 -207q-49 0 -134 48t-126 48q-49 0 -112 -86zM397 -1l-386 961h351l203 -642l198 642h352l-445 -1101q-55 -137 -161.5 -208t-246.5 -71q-104 0 -207 50l43 248
q60 -26 112 -26q67 0 117 38t70 109z" />
    <glyph glyph-name="uni2000" unicode="&#x2000;" horiz-adv-x="1148" 
 />
    <glyph glyph-name="uni2001" unicode="&#x2001;" horiz-adv-x="2296" 
 />
    <glyph glyph-name="uni2002" unicode="&#x2002;" horiz-adv-x="1148" 
 />
    <glyph glyph-name="uni2003" unicode="&#x2003;" horiz-adv-x="2296" 
 />
    <glyph glyph-name="uni2004" unicode="&#x2004;" horiz-adv-x="765" 
 />
    <glyph glyph-name="uni2005" unicode="&#x2005;" horiz-adv-x="574" 
 />
    <glyph glyph-name="uni2006" unicode="&#x2006;" horiz-adv-x="382" 
 />
    <glyph glyph-name="uni2007" unicode="&#x2007;" horiz-adv-x="382" 
 />
    <glyph glyph-name="uni2008" unicode="&#x2008;" horiz-adv-x="287" 
 />
    <glyph glyph-name="uni2009" unicode="&#x2009;" horiz-adv-x="459" 
 />
    <glyph glyph-name="uni200A" unicode="&#x200a;" horiz-adv-x="127" 
 />
    <glyph glyph-name="uni2010" unicode="&#x2010;" horiz-adv-x="954" 
d="M113 668h729v-244h-729v244z" />
    <glyph glyph-name="uni2011" unicode="&#x2011;" horiz-adv-x="954" 
d="M113 668h729v-244h-729v244z" />
    <glyph glyph-name="figuredash" unicode="&#x2012;" horiz-adv-x="954" 
d="M113 668h729v-244h-729v244z" />
    <glyph glyph-name="endash" unicode="&#x2013;" horiz-adv-x="1249" 
d="M113 668h1024v-244h-1024v244z" />
    <glyph glyph-name="emdash" unicode="&#x2014;" horiz-adv-x="2273" 
d="M113 668h2048v-244h-2048v244z" />
    <glyph glyph-name="quoteleft" unicode="&#x2018;" horiz-adv-x="556" 
d="M512 1428l-137 -516h-312l223 516h226z" />
    <glyph glyph-name="quoteright" unicode="&#x2019;" horiz-adv-x="548" 
d="M71 912l137 516h312l-223 -516h-226z" />
    <glyph glyph-name="quotesinglbase" unicode="&#x201a;" horiz-adv-x="542" 
d="M2 -283l137 516h312l-193 -516h-256z" />
    <glyph glyph-name="quotedblleft" unicode="&#x201c;" horiz-adv-x="1012" 
d="M831 912h-312l223 516h226zM512 1428l-137 -516h-312l223 516h226z" />
    <glyph glyph-name="quotedblright" unicode="&#x201d;" horiz-adv-x="993" 
d="M742 912h-226l137 516h312zM297 912h-226l137 516h312z" />
    <glyph glyph-name="quotedblbase" unicode="&#x201e;" horiz-adv-x="992" 
d="M673 -285h-226l137 516h312zM228 -285h-226l137 516h312z" />
    <glyph glyph-name="dagger" unicode="&#x2020;" horiz-adv-x="809" 
d="M55 1143v215h226v250h247v-250h228v-215h-228v-636h-247v636h-226z" />
    <glyph glyph-name="daggerdbl" unicode="&#x2021;" horiz-adv-x="880" 
d="M316 1213h-226v215h226v210h247v-210h228v-215h-228v-312h228v-215h-228v-209h-247v209h-226v215h226v312z" />
    <glyph glyph-name="bullet" unicode="&#x2022;" horiz-adv-x="792" 
d="M396 391q-120 0 -202 80.5t-82 200.5t82 200.5t202 80.5t203 -80.5t83 -200.5q0 -119 -83 -200t-203 -81z" />
    <glyph glyph-name="ellipsis" unicode="&#x2026;" horiz-adv-x="1561" 
d="M1130 150q0 73 50 123.5t123 50.5t124.5 -50.5t51.5 -123.5t-51.5 -121.5t-124.5 -48.5q-71 0 -122 49.5t-51 120.5zM778 -20q-71 0 -122 49.5t-51 120.5q0 73 50 123.5t123 50.5t124.5 -50.5t51.5 -123.5t-51.5 -121.5t-124.5 -48.5zM83 150q0 73 50 123.5t123 50.5
t124.5 -50.5t51.5 -123.5t-51.5 -121.5t-124.5 -48.5q-71 0 -122 49.5t-51 120.5z" />
    <glyph glyph-name="uni202F" unicode="&#x202f;" horiz-adv-x="459" 
 />
    <glyph glyph-name="perthousand" unicode="&#x2030;" horiz-adv-x="2643" 
d="M806 1001q0 -163 -109 -267.5t-272 -104.5t-271 105t-108 267q0 164 107.5 270.5t271.5 106.5q165 0 273 -106.5t108 -270.5zM451 0v26l734 1332h165v-24l-732 -1334h-167zM425 1157q-65 0 -107.5 -45.5t-42.5 -110.5t43 -108.5t107 -43.5t105.5 43.5t41.5 108.5
q0 66 -41 111t-106 45zM1755 352q0 -163 -109 -267.5t-272 -104.5t-271 105t-108 267q0 164 107.5 270.5t271.5 106.5q165 0 273 -106.5t108 -270.5zM1835 352q0 164 107.5 270.5t271.5 106.5q165 0 273 -106.5t108 -270.5q0 -163 -109 -267.5t-272 -104.5t-271 105
t-108 267zM2214 508q-65 0 -107.5 -45.5t-42.5 -110.5t43 -108.5t107 -43.5t105.5 43.5t41.5 108.5q0 66 -41 111t-106 45zM1224 352q0 -65 43 -108.5t107 -43.5t105.5 43.5t41.5 108.5q0 66 -41 111t-106 45t-107.5 -45.5t-42.5 -110.5z" />
    <glyph glyph-name="guilsinglleft" unicode="&#x2039;" horiz-adv-x="689" 
d="M358 480l254 -394h-260l-272 394l272 395h260z" />
    <glyph glyph-name="guilsinglright" unicode="&#x203a;" horiz-adv-x="689" 
d="M78 874h260l272 -395l-272 -394h-260l254 394z" />
    <glyph glyph-name="fraction" unicode="&#x2044;" horiz-adv-x="353" 
d="M-103 0h-167v26l734 1332h165v-24z" />
    <glyph glyph-name="uni205F" unicode="&#x205f;" horiz-adv-x="574" 
 />
    <glyph glyph-name="uni2070" unicode="&#x2070;" horiz-adv-x="830" 
d="M783 946q0 -90 -20 -166t-61 -136.5t-110 -95t-160 -34.5q-90 0 -159.5 34.5t-110.5 95t-61.5 137t-20.5 165.5q0 88 20 163t60.5 136.5t110 97t161.5 35.5q74 0 134 -24t100 -64.5t66.5 -96.5t38.5 -117.5t12 -129.5zM432 1187q-73 -1 -110 -71t-35 -170q0 -40 6 -78
t21 -77t45.5 -62.5t72.5 -23.5t72.5 23.5t45.5 62.5t21 77t6 78t-6 78t-21 77t-45.5 62.5t-72.5 23.5z" />
    <glyph glyph-name="uni2074" unicode="&#x2074;" horiz-adv-x="759" 
d="M405 534v186h-375v140l339 498h240v-469h108v-169h-108v-186h-204zM405 1121l-146 -232h146v232z" />
    <glyph glyph-name="uni2075" unicode="&#x2075;" horiz-adv-x="710" 
d="M357 513q-60 0 -113.5 17t-85.5 43q-61 49 -84 93l-8 18l152 104q56 -94 141 -94q45 0 76 29t31 74q0 49 -33 77t-83 28q-68 0 -111 -42l-148 53l49 445h492v-178h-325l-13 -139q43 22 103 22q127 0 205 -70.5t78 -196.5q0 -135 -92 -209t-231 -74z" />
    <glyph glyph-name="uni2076" unicode="&#x2076;" horiz-adv-x="775" 
d="M422 514q-88 0 -154.5 32t-105 87t-57.5 122.5t-19 145.5q0 97 21.5 180t66 151t121 107t177.5 39q77 0 143.5 -21t101.5 -52l-66 -172q-83 50 -175 50q-70 0 -115.5 -40t-57.5 -115q55 54 155 54q56 0 105.5 -15.5t90 -47t63.5 -83.5t23 -120q0 -139 -88.5 -220.5
t-229.5 -81.5zM306 804q0 -50 31 -83.5t79 -33.5q49 0 80.5 33.5t31.5 83.5q0 48 -32 80.5t-80 32.5t-79 -32.5t-31 -80.5z" />
    <glyph glyph-name="uni2077" unicode="&#x2077;" horiz-adv-x="671" 
d="M80 1178v180h606v-150q-214 -322 -327 -673h-233q134 361 339 643h-385z" />
    <glyph glyph-name="uni2078" unicode="&#x2078;" horiz-adv-x="776" 
d="M66 761q0 72 35.5 127t98.5 82q-54 27 -86 73.5t-32 103.5q0 62 27 108.5t72.5 72t98 38t110.5 12.5t110.5 -12.5t98.5 -38t73 -72t27 -108.5q0 -57 -32.5 -103.5t-86.5 -73.5q62 -28 99 -84t37 -125q0 -116 -86.5 -181.5t-239.5 -65.5q-152 0 -238 66t-86 181zM301 1131
q0 -40 24 -63t65 -23q40 0 64.5 24t24.5 62q0 37 -24 58t-65 21t-65 -21.5t-24 -57.5zM494 780q0 47 -28.5 74.5t-75.5 27.5t-75.5 -28t-28.5 -74t29 -73.5t75 -27.5t75 27.5t29 73.5z" />
    <glyph glyph-name="uni2079" unicode="&#x2079;" horiz-adv-x="774" 
d="M343 810q-56 0 -105.5 15.5t-90 47t-63.5 83.5t-23 120q0 140 88.5 221t229.5 81q88 0 154.5 -32t105 -87t57.5 -122.5t19 -145.5q0 -77 -13 -145.5t-42.5 -130t-73 -105.5t-109.5 -70t-148 -26q-77 0 -143.5 21t-101.5 52l66 172q83 -50 175 -50q70 0 115.5 40t57.5 115
q-56 -54 -155 -54zM385 1205q-49 0 -80.5 -33.5t-31.5 -83.5q0 -48 32 -80.5t80 -32.5t79 32.5t31 80.5q0 50 -31 83.5t-79 33.5z" />
    <glyph glyph-name="uni2080" unicode="&#x2080;" horiz-adv-x="830" 
d="M767 412q0 -90 -20 -166t-61 -136.5t-110 -95t-160 -34.5q-90 0 -159.5 34.5t-110.5 95t-61.5 137t-20.5 165.5q0 88 20 163t60.5 136.5t110 97t161.5 35.5q74 0 134 -24t100 -64.5t66.5 -96.5t38.5 -117.5t12 -129.5zM416 653q-73 -1 -110 -71t-35 -170q0 -40 6 -78
t21 -77t45.5 -62.5t72.5 -23.5t72.5 23.5t45.5 62.5t21 77t6 78t-6 78t-21 77t-45.5 62.5t-72.5 23.5z" />
    <glyph glyph-name="uni2081" unicode="&#x2081;" horiz-adv-x="519" 
d="M410 0h-208v637h-180v187h388v-824z" />
    <glyph glyph-name="uni2082" unicode="&#x2082;" horiz-adv-x="755" 
d="M211 537l-159 101q32 84 119 146q85 60 201 60q137 0 226.5 -68.5t89.5 -201.5q0 -50 -16 -93t-50 -80.5t-63 -61.5t-78 -60q-30 -21 -90 -65q-24 -19 -30 -30h332v-184h-610v78q0 79 54 152t160 153q2 2 27.5 20.5t28.5 21.5q19 15 26 20q91 71 91 124q0 39 -27 60.5
t-66 21.5q-94 0 -166 -114z" />
    <glyph glyph-name="uni2083" unicode="&#x2083;" horiz-adv-x="752" 
d="M357 -21q-109 0 -191 55q-84 55 -115 128l151 106q63 -104 171 -104q40 0 68.5 23t28.5 63q0 44 -29 66t-72 22h-131v154h131q37 0 66 24t29 57q0 38 -29 60t-72 22q-89 0 -154 -104l-153 105q38 87 123.5 137.5t183.5 50.5q60 0 115.5 -15t102 -44t74 -78.5t27.5 -113.5
q0 -123 -109 -180q52 -25 83.5 -74.5t31.5 -109.5q0 -79 -47 -138t-121.5 -86.5t-162.5 -25.5z" />
    <glyph glyph-name="uni2084" unicode="&#x2084;" horiz-adv-x="761" 
d="M407 0v186h-375v140l339 498h240v-469h108v-169h-108v-186h-204zM407 587l-146 -232h146v232z" />
    <glyph glyph-name="uni2085" unicode="&#x2085;" horiz-adv-x="710" 
d="M332 -21q-66 0 -121 19.5t-88.5 48.5t-51.5 52t-26 41l-4 10l152 104q56 -94 141 -94q45 0 76 29t31 74q0 49 -33 77t-83 28q-67 0 -111 -42l-148 53l49 445h492v-178h-325l-13 -139q43 22 103 22q127 0 205 -70.5t78 -196.5q0 -135 -92 -209t-231 -74z" />
    <glyph glyph-name="uni2086" unicode="&#x2086;" horiz-adv-x="776" 
d="M401 -20q-88 0 -154.5 32t-105 87t-57.5 122.5t-19 145.5q0 97 21.5 180t66 151t121 107t177.5 39q77 0 143.5 -21t101.5 -52l-66 -172q-83 50 -175 50q-70 0 -115.5 -40t-57.5 -115q56 54 155 54q56 0 105.5 -15.5t90 -47t63.5 -83.5t23 -120q0 -139 -88.5 -220.5
t-229.5 -81.5zM285 270q0 -50 31 -83.5t79 -33.5q49 0 80.5 33.5t31.5 83.5q0 48 -32 80.5t-80 32.5t-79 -32.5t-31 -80.5z" />
    <glyph glyph-name="uni2087" unicode="&#x2087;" horiz-adv-x="672" 
d="M40 644v180h606v-150q-214 -322 -327 -673h-233q134 361 339 643h-385z" />
    <glyph glyph-name="uni2088" unicode="&#x2088;" horiz-adv-x="777" 
d="M64 227q0 72 35.5 127t98.5 82q-54 27 -86 73.5t-32 103.5q0 62 27 108.5t72.5 72t98 38t110.5 12.5t110.5 -12.5t98.5 -38t73 -72t27 -108.5q0 -57 -32.5 -103.5t-86.5 -73.5q62 -28 99 -84t37 -125q0 -116 -86.5 -181.5t-239.5 -65.5q-152 0 -238 66t-86 181zM299 597
q0 -40 24 -63t65 -23q40 0 64.5 24t24.5 62q0 37 -24 58t-65 21t-65 -21.5t-24 -57.5zM492 246q0 47 -28.5 74.5t-75.5 27.5t-75.5 -28t-28.5 -74t29 -73.5t75 -27.5t75 27.5t29 73.5z" />
    <glyph glyph-name="uni2089" unicode="&#x2089;" horiz-adv-x="776" 
d="M344 276q-56 0 -105.5 15.5t-90 47t-63.5 83.5t-23 120q0 140 88.5 221t229.5 81q88 0 154.5 -32t105 -87t57.5 -122.5t19 -145.5q0 -77 -13 -145.5t-42.5 -130t-73 -105.5t-109.5 -70t-148 -26q-77 0 -143.5 21t-101.5 52l66 172q83 -50 175 -50q70 0 115.5 40t57.5 115
q-55 -54 -155 -54zM386 671q-49 0 -80.5 -33.5t-31.5 -83.5q0 -48 32 -80.5t80 -32.5t79 32.5t31 80.5q0 50 -31 83.5t-79 33.5z" />
    <glyph glyph-name="Euro" unicode="&#x20ac;" horiz-adv-x="1495" 
d="M255 497h-172v130h159q-1 9 -1 44q0 7 2 63h-160v130h175q47 247 208 380.5t412 133.5q124 0 230 -34t190.5 -113t120.5 -196l-274 -142q-33 97 -101.5 150t-168.5 53q-96 0 -161.5 -60t-94.5 -172h326v-130h-345q-1 -11 -1 -52q0 -7 2 -55h344v-130h-324
q30 -111 98 -171t167 -60q92 0 160.5 57.5t99.5 155.5l276 -150q-36 -116 -121 -196.5t-192.5 -116.5t-230.5 -36q-255 0 -417 133.5t-206 383.5z" />
    <glyph glyph-name="trademark" unicode="&#x2122;" horiz-adv-x="1360" 
d="M694 818h-85v590h99l210 -433l209 433h99v-590h-85v431l-193 -389h-61l-193 388v-430zM244 818v510h-197v80h479v-80h-197v-510h-85z" />
    <glyph glyph-name="estimated" unicode="&#x212e;" horiz-adv-x="1698" 
d="M872 -20q-216 0 -394 93q-176 92 -279 251t-103 353q0 122 42 232.5t116 195t171.5 146.5t212.5 94.5t234 32.5q151 0 295.5 -54.5t253.5 -154.5q106 -98 166 -229t60 -272v-23h-1257q-11 0 -11 -9v-359q0 -24 17 -47q184 -177 478 -177q150 0 279.5 51.5t219.5 147.5
h113q-111 -132 -273.5 -202t-340.5 -70zM379 1077v-351q0 -13 11 -13h966q6 0 6 13v358q0 23 -17 46q-86 84 -209.5 129.5t-261.5 45.5q-294 0 -475 -175q-20 -25 -20 -53z" />
    <glyph glyph-name="onethird" unicode="&#x2153;" horiz-adv-x="1663" 
d="M324 0v26l734 1332h165v-24l-732 -1334h-167zM110 1167v187h388v-824h-208v637h-180zM1243 -21q-109 0 -191 55q-84 55 -115 128l151 106q63 -104 171 -104q40 0 68.5 23t28.5 63q0 44 -29 66t-72 22h-131v154h131q37 0 66 24t29 57q0 38 -29 60t-72 22q-89 0 -154 -104
l-153 105q38 87 123.5 137.5t183.5 50.5q60 0 115.5 -15t102 -44t74 -78.5t27.5 -113.5q0 -123 -109 -180q52 -25 83.5 -74.5t31.5 -109.5q0 -79 -47 -138t-121.5 -86.5t-162.5 -25.5z" />
    <glyph glyph-name="twothirds" unicode="&#x2154;" horiz-adv-x="1822" 
d="M240 1077l-159 101q32 84 119 146q86 60 201 60q137 0 226.5 -68.5t89.5 -201.5q0 -50 -16 -93t-50 -80.5t-63 -61.5t-78 -60q-30 -21 -90 -65q-24 -19 -30 -30h332v-184h-610v78q0 79 54 152t160 153q2 2 27.5 20.5t28.5 21.5q19 15 26 20q91 71 91 124q0 39 -27 60.5
t-66 21.5q-94 0 -166 -114zM1413 1334l-732 -1334h-167v26l734 1332h165v-24zM1416 -21q-109 0 -191 55q-84 55 -115 128l151 106q63 -104 171 -104q40 0 68.5 23t28.5 63q0 44 -29 66t-72 22h-131v154h131q37 0 66 24t29 57q0 38 -29 60t-72 22q-89 0 -154 -104l-153 105
q38 87 123.5 137.5t183.5 50.5q60 0 115.5 -15t102 -44t74 -78.5t27.5 -113.5q0 -123 -109 -180q52 -25 83.5 -74.5t31.5 -109.5q0 -79 -47 -138t-121.5 -86.5t-162.5 -25.5z" />
    <glyph glyph-name="minus" unicode="&#x2212;" horiz-adv-x="1176" 
d="M1077 821v-283h-977v283h977z" />
    <glyph glyph-name="uni2215" unicode="&#x2215;" horiz-adv-x="824" 
d="M133 0h-167v26l734 1332h165v-24z" />
    <glyph glyph-name="uni2219" unicode="&#x2219;" horiz-adv-x="584" 
d="M292 342q-74 0 -124 49.5t-50 122.5q0 74 50 123t124 49q75 0 125 -48.5t50 -123.5q0 -74 -50.5 -123t-124.5 -49z" />
    <glyph glyph-name="approxequal" unicode="&#x2248;" horiz-adv-x="1425" 
d="M241 722l-142 213q201 201 388 201q27 0 52 -2t49.5 -9t39.5 -11t39 -15.5t31 -15t33 -18.5t28 -16q87 -48 180 -48q75 0 130 22.5t118 73.5l141 -203q-201 -201 -387 -201q-67 0 -129 20t-103 48q-99 68 -220 68q-123 0 -248 -107zM240 252l-142 213q201 201 388 201
q27 0 52 -2t49.5 -9t39.5 -11t39 -15.5t31 -15t33 -18.5t28 -16q87 -48 180 -48q75 0 130 22.5t118 73.5l141 -203q-201 -201 -387 -201q-133 0 -232 68t-220 68q-123 0 -248 -107z" />
    <glyph glyph-name="notequal" unicode="&#x2260;" horiz-adv-x="1318" 
d="M117 307v287h411l77 172h-488v286h616l185 414l160 -59l-160 -355h284v-286h-413l-77 -172h490v-287h-619l-188 -417l-153 64l158 353h-283z" />
    <glyph glyph-name="lessequal" unicode="&#x2264;" horiz-adv-x="1363" 
d="M517 740h699v-280h-1097v384l1077 514v-340zM109 275h1115v-275h-1115v275z" />
    <glyph glyph-name="greaterequal" unicode="&#x2265;" horiz-adv-x="1366" 
d="M1246 460h-1097v280h699l-679 278v340l1077 -514v-384zM1256 0h-1115v275h1115v-275z" />
    <glyph glyph-name="uni25FC" unicode="&#x25fc;" horiz-adv-x="960" 
d="M0 0v960h960v-960h-960z" />
    <glyph glyph-name="foundryicon" horiz-adv-x="2324" 
d="M315 951h-103v71h295v-71h-112v-302h-80v302zM1090 951v71h283v-71h-101v-302h-81v302h-101zM1686 655v-102h-81v349h66l8 -24l7 7q22 22 60 22q48 0 75.5 -35t27.5 -94q0 -60 -33 -96.5t-88 -36.5q-25 0 -42 10zM688 655v-102h-82v349h65l9 -24l8 7q19 22 58 22
q48 0 75.5 -34.5t27.5 -94.5t-32.5 -96.5t-88.5 -36.5q-24 0 -40 10zM886 773q0 61 34 97.5t94 36.5t94 -34.5t34 -94.5q0 -61 -35 -97t-96 -36q-57 0 -91 35t-34 93zM2012 645q-59 0 -93.5 35t-34.5 93q0 61 34.5 97.5t93.5 36.5q47 0 74 -26t27 -69q0 -31 -8 -52h-139
q4 -49 55 -49q39 0 69 13l17 -58q-39 -21 -95 -21zM1398 665l-89 237h89l51 -173h3l41 173h88l-80 -257q-19 -54 -48.5 -78t-77.5 -24q-33 0 -60 13l9 59q30 -6 46 -6q31 0 37 29zM542 649h-81v253h81v-253zM1013 849q-45 0 -45 -71q0 -75 46 -75q45 0 45 72q0 74 -46 74z
M1966 803h70q4 21 -4 33.5t-26 12.5q-36 0 -40 -46zM1719 844q-19 0 -33 -12v-117q16 -9 33 -9q21 0 33.5 19t12.5 50q0 69 -46 69zM688 832v-117q9 -9 30 -9q48 0 48 69t-46 69q-20 0 -32 -12zM1876 314q-23 0 -38.5 17t-15.5 45q-2 27 15.5 44.5t41.5 17.5q23 0 37 -17
q25 -27 11 -69t-51 -38zM1164 314q-24 0 -39 17t-15 45q0 27 15.5 44.5t39.5 17.5q23 0 38.5 -17.5t15.5 -44.5t-15 -44.5t-40 -17.5zM1767 314q-28 0 -44.5 17t-16.5 45q0 27 16 44.5t42 17.5q16 0 27 -7l-1 -24h-6l-1 21q-12 3 -19 3q-22 0 -35 -14t-13 -40q0 -56 53 -56
q13 0 22 4l3 -6q-13 -5 -27 -5zM962 436v-120h-9v120h9zM295 316h-10l-39 120h9l35 -110l35 105h9l35 -105l35 110h10l-40 -120h-10l-34 104zM1018 316h-9v120h34q39 0 39 -35q0 -16 -11 -25.5t-29 -9.5h-24v-50zM1478 366v-50h-9v120h34q39 0 39 -35t-41 -35h-23zM476 316
l-39 120h9l35 -110l35 105h9l36 -105l34 110h10l-40 -120h-9l-35 104l-35 -104h-10zM1979 316h-8v120h14l45 -93l45 93h14v-120h-9v111l-46 -94h-8l-47 94v-111zM677 316h-10l-39 120h9l35 -110l35 105h9l36 -105l35 110h9l-40 -120h-9l-35 104zM1385 316v47l-42 73h10
l37 -66l37 66h9l-42 -73v-47h-9zM1645 316h-67v120h65v-6h-57v-50h55v-7h-55v-51h59v-6zM1278 316v114h-37v6h83v-6h-37v-114h-9zM836 430v6h84v-6h-38v-114h-8v114h-38zM1845 417q-21 -23 -9.5 -61.5t41.5 -34.5q19 0 31.5 14.5t12.5 38.5q0 26 -12.5 41.5t-32.5 15.5
q-19 0 -31 -14zM1164 431q-19 0 -31.5 -15t-12.5 -39q0 -25 12.5 -40.5t32.5 -15.5q19 0 31.5 14.5t12.5 38.5q0 26 -12.5 41.5t-32.5 15.5zM1042 430h-24v-58h25q30 0 30 28q0 30 -31 30zM1478 430v-58h25q30 0 30 28q0 30 -32 30h-23zM1678 314q-7 0 -7 7t7 7t7 -7t-7 -7z
M820 314q-7 0 -7 7t7 7t7 -7t-7 -7z" />
    <glyph glyph-name="IJacute" horiz-adv-x="1697" 
d="M1508 1473h-261l162 334h362zM713 1807l-263 -334h-261l162 334h362zM568 225l218 211q108 -158 246 -158q87 0 137 56t50 158v866h329v-892q0 -229 -145 -357.5t-378 -128.5q-141 0 -262.5 63.5t-194.5 181.5zM492 1358v-1358h-329v1358h329z" />
    <glyph glyph-name="i.TRK" horiz-adv-x="592" 
d="M123 1305q0 77 48 125t124 48q77 0 125.5 -48t48.5 -125t-48.5 -124.5t-125.5 -47.5q-76 0 -124 48t-48 124zM139 0v960h315v-960h-315z" />
    <glyph glyph-name="ijacute" horiz-adv-x="1093" 
d="M928 1113h-261l162 334h362zM691 1447l-263 -334h-261l162 334h362zM582 -420q-140 0 -214 43l26 248q73 -21 119 -21q127 0 127 139v971h315v-994q0 -94 -30.5 -170t-84.5 -122q-109 -94 -258 -94zM454 960v-960h-315v960h315z" />
    <glyph glyph-name="zero.slash" horiz-adv-x="1299" 
d="M958 1292l144 212l149 -97l-165 -243q134 -191 134 -495q0 -148 -34 -271t-101.5 -217.5t-178.5 -147.5t-256 -53q-182 0 -310 83l-142 -209l-149 97l160 237q-130 179 -130 481q0 114 19 215.5t62.5 193t108.5 157.5t162.5 104.5t218.5 38.5q178 0 308 -86zM421 500
l367 541q-55 52 -138 52q-60 0 -105.5 -28t-71.5 -70.5t-42 -100.5t-21.5 -109t-5.5 -105q0 -100 17 -180zM879 858l-367 -541q55 -52 138 -52q60 0 105.5 28.5t71 71t42 101t21.5 109.5t5 105q0 101 -16 178z" />
    <glyph glyph-name="Q.alt" horiz-adv-x="1568" 
d="M784 -20q-193 0 -355.5 90.5t-258 252t-95.5 357.5q0 192 94.5 352.5t257.5 253t357 92.5q143 0 274 -53.5t226.5 -146t152.5 -222.5t57 -276q0 -187 -93 -348.5t-255 -255.5l287 -271l-192 -205l-407 382q-42 -2 -50 -2zM784 1059q-162 0 -266.5 -108t-104.5 -271
q0 -165 103.5 -273.5t267.5 -108.5t268.5 108.5t104.5 273.5q0 164 -105 271.5t-268 107.5z" />
    <glyph glyph-name="a.alt" horiz-adv-x="1253" 
d="M518 -20q-138 0 -241.5 68.5t-155 180.5t-51.5 249q0 138 51 250.5t154.5 182t242.5 69.5q194 0 291 -121v101h306v-960h-305l-10 74q-43 -44 -118 -69t-164 -25zM387 480q0 -93 59.5 -155.5t152.5 -62.5t149 62t56 156t-56 156t-149 62q-95 0 -153.5 -61t-58.5 -157z
" />
    <glyph glyph-name="g.alt" horiz-adv-x="1125" 
d="M556 -439q-107 0 -194.5 15t-156 45.5t-106 82t-37.5 120.5q0 126 136 196q-57 42 -57 131q0 97 109 182q-79 49 -123.5 123t-44.5 167q0 110 59 193t157.5 124.5t219.5 39.5q81 0 161 -20h395v-217h-141q21 -59 21 -120q0 -110 -59 -193t-157.5 -124.5t-219.5 -39.5
q-55 0 -104 11q-23 -29 -23 -57q0 -18 14.5 -31t35.5 -13h263q83 0 149.5 -16t118 -49.5t79.5 -91.5t28 -137q0 -106 -68.5 -181t-185.5 -108q-117 -32 -269 -32zM676 623q0 68 -44 102t-114 34q-69 0 -113.5 -34.5t-44.5 -101.5t44.5 -101.5t113.5 -34.5q70 0 114 34
t44 102zM342 -113q0 -43 50.5 -62.5t161.5 -19.5q127 0 181.5 17.5t54.5 57.5q0 31 -25 48.5t-69 17.5h-330q-24 -27 -24 -59z" />
    <glyph glyph-name="l.alt" horiz-adv-x="632" 
d="M130 266v1142h315v-1087q0 -75 83 -75q41 0 87 11l13 -247q-88 -30 -203 -30q-295 0 -295 286z" />
    <glyph glyph-name="y.alt" horiz-adv-x="1166" 
d="M421 45l-409 915h356l221 -616l215 616h353l-586 -1360h-323z" />
    <glyph glyph-name="agrave.alt" horiz-adv-x="1253" 
d="M557 1121l-263 334h362l162 -334h-261zM518 -20q-138 0 -241.5 68.5t-155 180.5t-51.5 249q0 138 51 250.5t154.5 182t242.5 69.5q194 0 291 -121v101h306v-960h-305l-10 74q-43 -44 -118 -69t-164 -25zM599 698q-95 0 -153.5 -61t-58.5 -157q0 -93 59.5 -155.5
t152.5 -62.5t149 62t56 156t-56 156t-149 62z" />
    <glyph glyph-name="aacute.alt" horiz-adv-x="1253" 
d="M1042 1447l-263 -334h-261l162 334h362zM518 -20q-138 0 -241.5 68.5t-155 180.5t-51.5 249q0 138 51 250.5t154.5 182t242.5 69.5q194 0 291 -121v101h306v-960h-305l-10 74q-43 -44 -118 -69t-164 -25zM387 480q0 -93 59.5 -155.5t152.5 -62.5t149 62t56 156t-56 156
t-149 62q-95 0 -153.5 -61t-58.5 -157z" />
    <glyph glyph-name="acircumflex.alt" horiz-adv-x="1253" 
d="M508 1084h-264l287 370h196l287 -370h-264l-121 169zM518 -20q-138 0 -241.5 68.5t-155 180.5t-51.5 249q0 138 51 250.5t154.5 182t242.5 69.5q194 0 291 -121v101h306v-960h-305l-10 74q-43 -44 -118 -69t-164 -25zM387 480q0 -93 59.5 -155.5t152.5 -62.5t149 62
t56 156t-56 156t-149 62q-95 0 -153.5 -61t-58.5 -157z" />
    <glyph glyph-name="adotbelow.alt" horiz-adv-x="1253" 
d="M518 -20q-138 0 -241.5 68.5t-155 180.5t-51.5 249q0 138 51 250.5t154.5 182t242.5 69.5q194 0 291 -121v101h306v-960h-305l-10 74q-43 -44 -118 -69t-164 -25zM387 480q0 -93 59.5 -155.5t152.5 -62.5t149 62t56 156t-56 156t-149 62q-95 0 -153.5 -61t-58.5 -157z
M467 -285q0 72 50.5 123t122.5 51t124 -51t52 -123q0 -73 -51 -121.5t-125 -48.5q-71 0 -122 49.5t-51 120.5z" />
    <glyph glyph-name="atilde.alt" horiz-adv-x="1253" 
d="M342 1133l-115 104q109 207 258 207q43 0 138 -48q94 -48 122 -48q57 0 113 86l115 -104q-109 -207 -259 -207q-48 0 -134 48t-126 48q-49 0 -112 -86zM518 -20q-138 0 -241.5 68.5t-155 180.5t-51.5 249q0 138 51 250.5t154.5 182t242.5 69.5q194 0 291 -121v101h306
v-960h-305l-10 74q-43 -44 -118 -69t-164 -25zM599 698q-95 0 -153.5 -61t-58.5 -157q0 -93 59.5 -155.5t152.5 -62.5t149 62t56 156t-56 156t-149 62z" />
    <glyph glyph-name="adieresis.alt" horiz-adv-x="1253" 
d="M803 1151q-67 0 -109 41.5t-42 109.5t42 110t109 42q68 0 110.5 -42.5t42.5 -109.5t-42.5 -109t-110.5 -42zM425 1151q-67 0 -109 42t-42 109t42 109.5t109 42.5q68 0 110.5 -42.5t42.5 -109.5t-42.5 -109t-110.5 -42zM518 -20q-138 0 -241.5 68.5t-155 180.5t-51.5 249
q0 138 51 250.5t154.5 182t242.5 69.5q194 0 291 -121v101h306v-960h-305l-10 74q-43 -44 -118 -69t-164 -25zM599 698q-95 0 -153.5 -61t-58.5 -157q0 -93 59.5 -155.5t152.5 -62.5t149 62t56 156t-56 156t-149 62z" />
    <glyph glyph-name="amacron.alt" horiz-adv-x="1253" 
d="M887 1366v-204h-591v204h591zM518 -20q-138 0 -241.5 68.5t-155 180.5t-51.5 249q0 138 51 250.5t154.5 182t242.5 69.5q194 0 291 -121v101h306v-960h-305l-10 74q-43 -44 -118 -69t-164 -25zM387 480q0 -93 59.5 -155.5t152.5 -62.5t149 62t56 156t-56 156t-149 62
q-95 0 -153.5 -61t-58.5 -157z" />
    <glyph glyph-name="abreve.alt" horiz-adv-x="1253" 
d="M277 1440h210q2 -57 33.5 -92.5t80.5 -35.5q51 0 81.5 35t32.5 93h210q-8 -146 -94 -235.5t-230 -89.5q-143 0 -229.5 90.5t-94.5 234.5zM518 -20q-138 0 -241.5 68.5t-155 180.5t-51.5 249q0 138 51 250.5t154.5 182t242.5 69.5q194 0 291 -121v101h306v-960h-305
l-10 74q-43 -44 -118 -69t-164 -25zM599 698q-95 0 -153.5 -61t-58.5 -157q0 -93 59.5 -155.5t152.5 -62.5t149 62t56 156t-56 156t-149 62z" />
    <glyph glyph-name="aring.alt" horiz-adv-x="1253" 
d="M801 1287q0 -95 -64 -156t-159 -61t-159 61t-64 156q0 96 63.5 158t159.5 62t159.5 -62t63.5 -158zM639 1287q0 27 -16.5 46.5t-42.5 19.5t-46 -19t-18 -47q0 -27 17.5 -45t44.5 -18q26 0 43.5 18.5t17.5 44.5zM518 -20q-138 0 -241.5 68.5t-155 180.5t-51.5 249
q0 138 51 250.5t154.5 182t242.5 69.5q194 0 291 -121v101h306v-960h-305l-10 74q-43 -44 -118 -69t-164 -25zM599 698q-95 0 -153.5 -61t-58.5 -157q0 -93 59.5 -155.5t152.5 -62.5t149 62t56 156t-56 156t-149 62z" />
    <glyph glyph-name="aringacute.alt" horiz-adv-x="1253" 
d="M972 1903l-263 -334h-261l162 334h362zM355 1287q0 96 63.5 158t159.5 62t159.5 -62t63.5 -158q0 -95 -64 -156t-159 -61t-159 61t-64 156zM516 1287q0 -27 17.5 -45t44.5 -18q26 0 43.5 18.5t17.5 44.5q0 28 -17 47t-44 19t-44.5 -19t-17.5 -47zM518 -20
q-138 0 -241.5 68.5t-155 180.5t-51.5 249q0 138 51 250.5t154.5 182t242.5 69.5q194 0 291 -121v101h306v-960h-305l-10 74q-43 -44 -118 -69t-164 -25zM387 480q0 -93 59.5 -155.5t152.5 -62.5t149 62t56 156t-56 156t-149 62q-95 0 -153.5 -61t-58.5 -157z" />
    <glyph glyph-name="aogonek.alt" horiz-adv-x="1253" 
d="M518 -20q-138 0 -241.5 68.5t-155 180.5t-51.5 249q0 138 51 250.5t154.5 182t242.5 69.5q194 0 291 -121v101h306v-960h-90q-196 -112 -196 -194q0 -35 25 -56t68 -21q56 0 109 27l64 -176q-89 -57 -220 -57q-109 0 -184.5 53.5t-75.5 157.5q0 156 195 268l-10 72
q-43 -44 -118 -69t-164 -25zM387 480q0 -93 59.5 -155.5t152.5 -62.5t149 62t56 156t-56 156t-149 62q-95 0 -153.5 -61t-58.5 -157z" />
    <glyph glyph-name="gcircumflex.alt" horiz-adv-x="1125" 
d="M428 1084h-264l287 370h196l287 -370h-264l-121 169zM556 -439q-107 0 -194.5 15t-156 45.5t-106 82t-37.5 120.5q0 126 136 196q-57 42 -57 131q0 97 109 182q-79 49 -123.5 123t-44.5 167q0 110 59 193t157.5 124.5t219.5 39.5q81 0 161 -20h395v-217h-141
q21 -59 21 -120q0 -110 -59 -193t-157.5 -124.5t-219.5 -39.5q-55 0 -104 11q-23 -29 -23 -57q0 -18 14.5 -31t35.5 -13h263q83 0 149.5 -16t118 -49.5t79.5 -91.5t28 -137q0 -106 -68.5 -181t-185.5 -108q-117 -32 -269 -32zM518 759q-69 0 -113.5 -34.5t-44.5 -101.5
t44.5 -101.5t113.5 -34.5q70 0 114 34t44 102t-44 102t-114 34zM342 -113q0 -43 50.5 -62.5t161.5 -19.5q127 0 181.5 17.5t54.5 57.5q0 31 -25 48.5t-69 17.5h-330q-24 -27 -24 -59z" />
    <glyph glyph-name="gbreve.alt" horiz-adv-x="1125" 
d="M561 1115q-143 0 -229.5 90.5t-94.5 234.5h210q2 -57 33.5 -92.5t80.5 -35.5q51 0 81.5 35t32.5 93h210q-8 -146 -94 -235.5t-230 -89.5zM556 -439q-107 0 -194.5 15t-156 45.5t-106 82t-37.5 120.5q0 126 136 196q-57 42 -57 131q0 97 109 182q-79 49 -123.5 123
t-44.5 167q0 110 59 193t157.5 124.5t219.5 39.5q81 0 161 -20h395v-217h-141q21 -59 21 -120q0 -110 -59 -193t-157.5 -124.5t-219.5 -39.5q-55 0 -104 11q-23 -29 -23 -57q0 -18 14.5 -31t35.5 -13h263q83 0 149.5 -16t118 -49.5t79.5 -91.5t28 -137q0 -106 -68.5 -181
t-185.5 -108q-117 -32 -269 -32zM676 623q0 68 -44 102t-114 34q-69 0 -113.5 -34.5t-44.5 -101.5t44.5 -101.5t113.5 -34.5q70 0 114 34t44 102zM696 -54h-330q-24 -27 -24 -59q0 -43 50.5 -62.5t161.5 -19.5q127 0 181.5 17.5t54.5 57.5q0 31 -25 48.5t-69 17.5z" />
    <glyph glyph-name="gcaron.alt" horiz-adv-x="1125" 
d="M444 1095l-287 370h264l121 -169l121 169h264l-287 -370h-196zM556 -439q-107 0 -194.5 15t-156 45.5t-106 82t-37.5 120.5q0 126 136 196q-57 42 -57 131q0 97 109 182q-79 49 -123.5 123t-44.5 167q0 110 59 193t157.5 124.5t219.5 39.5q81 0 161 -20h395v-217h-141
q21 -59 21 -120q0 -110 -59 -193t-157.5 -124.5t-219.5 -39.5q-55 0 -104 11q-23 -29 -23 -57q0 -18 14.5 -31t35.5 -13h263q83 0 149.5 -16t118 -49.5t79.5 -91.5t28 -137q0 -106 -68.5 -181t-185.5 -108q-117 -32 -269 -32zM518 759q-69 0 -113.5 -34.5t-44.5 -101.5
t44.5 -101.5t113.5 -34.5q70 0 114 34t44 102t-44 102t-114 34zM342 -113q0 -43 50.5 -62.5t161.5 -19.5q127 0 181.5 17.5t54.5 57.5q0 31 -25 48.5t-69 17.5h-330q-24 -27 -24 -59z" />
    <glyph glyph-name="gdotaccent.alt" horiz-adv-x="1125" 
d="M537 1133q-76 0 -124 48t-48 124q0 77 48 125t124 48q77 0 125.5 -48t48.5 -125t-48.5 -124.5t-125.5 -47.5zM62 -176q0 126 136 196q-57 42 -57 131q0 97 109 182q-79 49 -123.5 123t-44.5 167q0 110 59 193t157.5 124.5t219.5 39.5q81 0 161 -20h395v-217h-141
q21 -59 21 -120q0 -110 -59 -193t-157.5 -124.5t-219.5 -39.5q-55 0 -104 11q-23 -29 -23 -57q0 -18 14.5 -31t35.5 -13h263q83 0 149.5 -16t118 -49.5t79.5 -91.5t28 -137q0 -106 -68.5 -181t-185.5 -108q-117 -32 -269 -32q-107 0 -194.5 15t-156 45.5t-106 82
t-37.5 120.5zM676 623q0 68 -44 102t-114 34q-69 0 -113.5 -34.5t-44.5 -101.5t44.5 -101.5t113.5 -34.5q70 0 114 34t44 102zM696 -54h-330q-24 -27 -24 -59q0 -43 50.5 -62.5t161.5 -19.5q127 0 181.5 17.5t54.5 57.5q0 31 -25 48.5t-69 17.5z" />
    <glyph glyph-name="gcommaaccent.alt" horiz-adv-x="1125" 
d="M597 1109h-297l71 442h226v-442zM556 -439q-107 0 -194.5 15t-156 45.5t-106 82t-37.5 120.5q0 126 136 196q-57 42 -57 131q0 97 109 182q-79 49 -123.5 123t-44.5 167q0 110 59 193t157.5 124.5t219.5 39.5q81 0 161 -20h395v-217h-141q21 -59 21 -120q0 -110 -59 -193
t-157.5 -124.5t-219.5 -39.5q-55 0 -104 11q-23 -29 -23 -57q0 -18 14.5 -31t35.5 -13h263q83 0 149.5 -16t118 -49.5t79.5 -91.5t28 -137q0 -106 -68.5 -181t-185.5 -108q-117 -32 -269 -32zM518 759q-69 0 -113.5 -34.5t-44.5 -101.5t44.5 -101.5t113.5 -34.5q70 0 114 34
t44 102t-44 102t-114 34zM342 -113q0 -43 50.5 -62.5t161.5 -19.5q127 0 181.5 17.5t54.5 57.5q0 31 -25 48.5t-69 17.5h-330q-24 -27 -24 -59z" />
    <glyph glyph-name="yacute.alt" horiz-adv-x="1166" 
d="M719 1113h-261l162 334h362zM248 -400l173 445l-409 915h356l221 -616l215 616h353l-586 -1360h-323z" />
    <glyph glyph-name="ycircumflex.alt" horiz-adv-x="1166" 
d="M463 1085h-264l287 370h196l287 -370h-264l-121 169zM421 45l-409 915h356l221 -616l215 616h353l-586 -1360h-323z" />
    <glyph glyph-name="ydieresis.alt" horiz-adv-x="1166" 
d="M772 1155q-68 0 -109.5 41.5t-41.5 109.5t42 110t109 42q68 0 110.5 -42.5t42.5 -109.5t-42.5 -109t-110.5 -42zM394 1155q-67 0 -109 42t-42 109t42 109.5t109 42.5q68 0 110.5 -42.5t42.5 -109.5t-42.5 -109t-110.5 -42zM248 -400l173 445l-409 915h356l221 -616
l215 616h353l-586 -1360h-323z" />
    <glyph glyph-name="ygrave.alt" horiz-adv-x="1166" 
d="M728 1121h-261l-263 334h362zM248 -400l173 445l-409 915h356l221 -616l215 616h353l-586 -1360h-323z" />
    <glyph glyph-name="ymacron.alt" horiz-adv-x="1166" 
d="M879 1339v-204h-591v204h591zM248 -400l173 445l-409 915h356l221 -616l215 616h353l-586 -1360h-323z" />
    <glyph glyph-name="ytilde.alt" horiz-adv-x="1166" 
d="M326 1133l-115 104q109 207 258 207q43 0 138 -48q94 -48 122 -48q57 0 113 86l115 -104q-109 -207 -259 -207q-48 0 -134 48t-126 48q-49 0 -112 -86zM421 45l-409 915h356l221 -616l215 616h353l-586 -1360h-323z" />
    <glyph glyph-name="zero.slash.tnum" 
d="M1022 1292l144 212l149 -97l-164 -242q134 -191 134 -496q0 -148 -34 -271t-101.5 -217.5t-178.5 -147.5t-256 -53q-183 0 -311 83l-142 -209l-149 97l161 237q-130 181 -130 481q0 114 19 215.5t62.5 193t108.5 157.5t162.5 104.5t218.5 38.5q179 0 307 -86zM486 501
l367 541q-57 51 -138 51q-60 0 -105.5 -28t-71.5 -70.5t-42 -100.5t-21.5 -109t-5.5 -105q0 -99 17 -179zM943 859l-367 -542q56 -52 139 -52q60 0 105.5 28.5t71 71t42 101t21.5 109.5t5 105q0 99 -17 179z" />
    <glyph glyph-name="zero.tnum" 
d="M715 -20q-119 0 -216 36.5t-162 100t-109 151.5t-64 188t-20 213q0 114 19 215.5t62.5 193t108.5 157.5t162.5 104.5t218.5 38.5q121 -1 218.5 -40t162 -105.5t108 -158t62.5 -192.5t19 -213q0 -148 -34 -271t-101.5 -217.5t-178.5 -147.5t-256 -53zM469 680
q0 -249 101 -355q57 -60 145 -60q60 0 105.5 28.5t71 71t42 101t21.5 109.5t5 105q0 45 -3.5 87t-12.5 91.5t-27.5 89.5t-44 73.5t-66 52.5t-91.5 19q-60 0 -105.5 -28t-71.5 -70.5t-42 -100.5t-21.5 -109t-5.5 -105z" />
    <glyph glyph-name="one.tnum" 
d="M230 0v283h340v792h-279v283h608v-1075h299v-283h-968z" />
    <glyph glyph-name="two.tnum" 
d="M460 899l-257 122q50 134 165 237q62 56 149.5 88t187.5 32q106 0 197.5 -27.5t162.5 -81.5t112 -140t41 -196q0 -170 -168 -324q-75 -69 -211 -168q-174 -126 -190 -159h577v-282h-985v120q0 98 69 201q66 101 127 156q55 49 176 144q5 4 14 11t12 10q126 98 165 138
q72 77 74 149q0 74 -49 120.5t-128 46.5q-73 0 -137.5 -53.5t-103.5 -143.5z" />
    <glyph glyph-name="three.tnum" 
d="M717 -20q-177 0 -313 90t-198 254l242 132q92 -195 272 -195q71 0 124.5 40t53.5 108q0 73 -53 115t-145 42h-203v241h203q72 0 127.5 41.5t55.5 111.5q0 60 -49 98.5t-126 38.5q-170 0 -249 -177l-244 122q51 129 169 227q61 51 147.5 80t184.5 29q220 0 356 -112
t136 -295q0 -94 -49 -165.5t-135 -110.5q91 -37 145 -117t54 -183q0 -184 -140 -300q-139 -115 -366 -115z" />
    <glyph glyph-name="four.tnum" 
d="M771 0v340h-621v227l554 791h377v-750h197v-268h-197v-340h-310zM771 988l-265 -380h265v380z" />
    <glyph glyph-name="five.tnum" 
d="M703 -20q-180 0 -309.5 87.5t-199.5 245.5l260 138q92 -188 246 -188q86 0 147.5 53t61.5 138q0 88 -58 140.5t-147 52.5q-134 0 -213 -111l-233 102l77 720h818v-283h-554l-25 -239q27 25 86 38t108 13q208 0 337.5 -115t129.5 -320q0 -212 -147 -342
q-146 -130 -385 -130z" />
    <glyph glyph-name="six.tnum" 
d="M722 -20q-113 0 -206 33t-157 90.5t-108 138t-64 173t-20 197.5q0 132 23.5 245.5t75 210t128 165t187.5 107t248 38.5q109 0 192.5 -19t166.5 -62l-65 -258q-135 66 -271 66q-68 0 -125 -15.5t-106 -49t-80 -95t-39 -145.5q43 57 123 86t162 29q210 0 342 -119t132 -327
q0 -154 -72.5 -266.5t-193 -167.5t-273.5 -55zM726 655q-88 0 -148 -57t-60 -144t60 -144t148 -57t148 57t60 144t-60 144t-148 57z" />
    <glyph glyph-name="seven.tnum" 
d="M220 1071v287h988v-242q-368 -568 -543 -1116h-339q242 656 540 1071h-646z" />
    <glyph glyph-name="eight.tnum" 
d="M194 381q0 113 58.5 198.5t159.5 129.5q-86 38 -138 114t-52 176q0 81 28 146.5t75.5 108t111.5 71t133 41t144 12.5q99 0 185.5 -22t156.5 -66.5t110.5 -119t40.5 -171.5q0 -100 -52 -176t-138 -114q101 -44 159.5 -129.5t58.5 -198.5q0 -103 -43.5 -182.5t-118 -126
t-165.5 -69.5t-194 -23q-81 0 -155.5 14t-141.5 45.5t-116 77t-78 113.5t-29 151zM547 970q0 -73 46.5 -119t120.5 -46q72 0 119.5 46.5t47.5 118.5q0 70 -48 112t-119 42q-70 0 -118.5 -42.5t-48.5 -111.5zM906 402q0 79 -55.5 125t-136.5 46t-136.5 -46t-55.5 -125
q0 -76 57 -121.5t135 -45.5q79 0 135.5 45t56.5 122z" />
    <glyph glyph-name="nine.tnum" 
d="M563 441q-210 0 -342 119t-132 327q0 154 72.5 266.5t193 167.5t273.5 55q113 0 206 -33t157 -90.5t108 -138t64 -173t20 -197.5q0 -132 -23.5 -245.5t-75 -210t-128 -165t-187.5 -107t-248 -38.5q-109 0 -192.5 19t-166.5 62l65 258q135 -66 271 -66q68 0 125 15.5
t106 49t80 95t39 145.5q-43 -57 -123 -86t-162 -29zM832 902q0 87 -60 144t-148 57t-148 -57t-60 -144t60 -144t148 -57t148 57t60 144z" />
    <glyph glyph-name="plus.tnum" 
d="M151 542v283h398v383h327v-383h402v-283h-402v-391h-327v391h-398z" />
    <glyph glyph-name="minus.tnum" 
d="M1203 821v-283h-977v283h977z" />
    <glyph glyph-name="plusminus.tnum" 
d="M172 758v283h380v317h323v-317h380v-283h-380v-327h-323v327h-380zM1257 275v-275h-1085v275h1085z" />
    <glyph glyph-name="equal.tnum" 
d="M172 766v286h1085v-286h-1085zM1257 594v-287h-1085v287h1085z" />
    <glyph glyph-name="notequal.tnum" 
d="M172 307v287h411l77 172h-488v286h616l185 414l160 -59l-160 -355h284v-286h-413l-77 -172h490v-287h-619l-188 -417l-153 64l158 353h-283z" />
    <glyph glyph-name="approxequal.tnum" 
d="M242 722l-142 213q201 201 388 201q27 0 52 -2t49.5 -9t39.5 -11t39 -15.5t31 -15t33 -18.5t28 -16q87 -48 180 -48q75 0 130 22.5t118 73.5l141 -203q-201 -201 -387 -201q-133 0 -232 68t-220 68q-123 0 -248 -107zM241 252l-142 213q201 201 388 201q27 0 52 -2
t49.5 -9t39.5 -11t39 -15.5t31 -15t33 -18.5t28 -16q87 -48 180 -48q75 0 130 22.5t118 73.5l141 -203q-201 -201 -387 -201q-67 0 -129 20t-103 48q-99 68 -220 68q-123 0 -248 -107z" />
    <glyph glyph-name="multiply.tnum" 
d="M171 350l328 329l-328 329l214 214l329 -329l329 329l214 -214l-329 -329l329 -329l-214 -214l-329 329l-329 -329z" />
    <glyph glyph-name="less.tnum" 
d="M1228 408v-319l-1027 462v257l1027 463v-320l-629 -271z" />
    <glyph glyph-name="greater.tnum" 
d="M1228 809v-257l-1027 -463v320l629 271l-629 272v319z" />
    <glyph glyph-name="lessequal.tnum" 
d="M565 740h699v-280h-1097v384l1077 514v-340zM157 275h1115v-275h-1115v275z" />
    <glyph glyph-name="greaterequal.tnum" 
d="M1262 460h-1097v280h699l-679 278v340l1077 -514v-384zM1272 0h-1115v275h1115v-275z" />
    <glyph glyph-name="divide.tnum" 
d="M889 1095q0 -74 -50.5 -123t-124.5 -49t-124 49.5t-50 122.5q0 74 50 123t124 49q75 0 125 -48.5t50 -123.5zM1268 821v-283h-1107v283h1107zM714 94q-74 0 -124 49.5t-50 122.5q0 74 50 123t124 49q75 0 125 -48.5t50 -123.5q0 -74 -50.5 -123t-124.5 -49z" />
    <glyph glyph-name="logicalnot.tnum" 
d="M1276 364h-327v346h-796v283h1123v-629z" />
    <glyph glyph-name="numbersign.tnum" 
d="M268 312h-221l40 227h223l54 301h-223l42 226h222l52 292h255l-49 -292h240l52 292h256l-51 -292h221l-40 -226h-223l-55 -301h223l-42 -227h-221l-56 -312h-257l56 312h-241l-56 -312h-257zM863 840h-243l-55 -301h243z" />
    <glyph glyph-name="dollar.tnum" 
d="M159 292l247 180q94 -145 248 -184v258q-79 23 -128.5 40t-114.5 50.5t-110 75.5q-52 46 -77.5 108.5t-28.5 152.5q0 115 66 207q130 180 393 197v159h131v-165q269 -38 437 -283l-243 -179q-86 122 -194 162v-249q73 -24 123 -42q49 -19 79.5 -32.5t73 -35t69 -41.5
t56 -49.5t45.5 -61.5t27 -74.5t11 -92.5q0 -78 -27.5 -144t-74.5 -112.5t-109.5 -80.5t-131 -51.5t-141.5 -22.5v-158h-131v160q-161 16 -294.5 94t-200.5 214zM654 1087q-52 -7 -89.5 -34t-37.5 -74q0 -25 10.5 -44.5t33 -33t38 -20.5t45.5 -17v223zM937 382q0 41 -35.5 69
t-116.5 55v-227q68 8 110 36t42 67z" />
    <glyph glyph-name="Euro.tnum" 
d="M217 497h-172v130h159q-1 9 -1 44q0 7 2 63h-160v130h175q47 247 208 380.5t412 133.5q124 0 230 -34t190.5 -113t120.5 -196l-274 -142q-33 97 -101.5 150t-168.5 53q-96 0 -161.5 -60t-94.5 -172h326v-130h-345q-1 -11 -1 -52q0 -7 2 -55h344v-130h-324
q30 -111 98 -171t167 -60q92 0 160.5 57.5t99.5 155.5l276 -150q-36 -116 -121 -196.5t-192.5 -116.5t-230.5 -36q-255 0 -417 133.5t-206 383.5z" />
    <glyph glyph-name="yen.tnum" 
d="M467 635l-464 723h403l314 -518l319 518h385l-461 -723h201v-130h-284v-107h284v-130h-284v-268h-329v268h-289v130h289v107h-289v130h205z" />
    <glyph glyph-name="sterling.tnum" 
d="M1214 264v-264h-1076v215q87 61 124.5 119t36.5 132l-1 142h-153v179h152l-1 115q-1 226 144.5 351.5t375.5 125.5q320 0 474 -304l-258 -149q-77 170 -220 170q-84 0 -135.5 -53t-51.5 -139v-117h321v-179h-321v-112q0 -144 -91 -232h680z" />
    <glyph glyph-name="currency.tnum" 
d="M334 876l-168 166l163 163l166 -167q103 59 218 59q118 0 222 -59l165 167l163 -163l-167 -166q58 -98 58 -214q0 -122 -63 -220l172 -171l-163 -163l-173 175q-102 -54 -214 -54q-111 0 -209 54l-175 -175l-163 163l171 171q-60 100 -60 220q0 116 57 214zM532 662
q0 -75 53 -127t128 -52q76 0 131 51.5t55 127.5q0 78 -54 130.5t-132 52.5q-76 0 -128.5 -53.5t-52.5 -129.5z" />
    <glyph glyph-name="florin.tnum" 
d="M360 -20q-135 0 -243 53l91 235q46 -31 125 -31q74 0 123 36.5t60 108.5l35 258h-158l36 257h158l13 94q23 157 134 268q56 56 143 87.5t191 31.5q135 0 243 -53l-91 -235q-46 31 -125 31q-76 0 -129.5 -37.5t-63.5 -110.5l-11 -76h266l-36 -257h-255l-38 -276
q-20 -157 -133 -266q-57 -56 -144 -87t-191 -31z" />
    <glyph glyph-name="cent.tnum" 
d="M232 678q0 197 123 334t319 161v168h131v-166q124 -13 227.5 -79.5t161.5 -174.5l-243 -173q-43 106 -146 133v-409q93 26 153 130l238 -174q-140 -221 -391 -247v-181h-131v181q-198 22 -320 159.5t-122 337.5zM674 478v397q-60 -22 -95 -75t-35 -122q0 -71 35 -124.5
t95 -75.5z" />
    <glyph glyph-name="mu.tnum" 
d="M552 -400h-315v1360h315v-534q0 -76 49 -116q49 -42 112 -42q71 0 117.5 44t46.5 114v534h315v-960h-289l-10 101q-72 -110 -203 -110q-86 0 -138 40v-431z" />
    <glyph glyph-name="pi.tnum" 
d="M242 838h-168v284h1281l-1 -284h-160v-455q0 -68 41 -100t116 -25v-270q-37 -8 -93 -8q-173 0 -276 89q-103 88 -103 273v496h-322v-838h-315v838z" />
    <glyph glyph-name="degree.tnum" 
d="M713 678q-153 0 -254.5 98t-101.5 250q0 154 101 253t255 99q155 0 257 -99t102 -253q0 -153 -102.5 -250.5t-256.5 -97.5zM573 1026q0 -60 40 -101t100 -41t99 40.5t39 101.5q0 63 -39 104.5t-99 41.5q-61 0 -100.5 -42t-39.5 -104z" />
    <glyph glyph-name="ordmasculine.tnum" 
d="M382 1051q0 143 94 235t237 92t238 -92.5t95 -234.5q0 -141 -95.5 -232t-237.5 -91t-236.5 91t-94.5 232zM582 1051q0 -55 38 -93.5t93 -38.5q56 0 92 37.5t36 94.5q0 58 -36 96.5t-92 38.5t-93.5 -39.5t-37.5 -95.5zM402 480v155h624v-155h-624z" />
    <glyph glyph-name="ordfeminine.tnum" 
d="M650 752q-91 0 -153.5 48t-62.5 136q0 49 23 87.5t61 60t81.5 32t89.5 10.5q71 0 121 -21v6q0 43 -32.5 71.5t-85.5 28.5q-91 0 -154 -65l-96 126q47 50 121 79t146 29q121 0 200.5 -60.5t79.5 -177.5v-378h-169v66q-56 -78 -170 -78zM620 947q0 -26 20.5 -40.5
t53.5 -14.5q41 0 78.5 26t37.5 65q-32 23 -93 23q-46 0 -71.5 -15.5t-25.5 -43.5zM994 507h-554v150h554v-150z" />
    <glyph glyph-name="zero.slash.onum" horiz-adv-x="1263" 
d="M932 1017l158 191l121 -96l-155 -187q150 -151 150 -389q0 -166 -73.5 -293t-203.5 -195t-296 -68q-168 0 -302 71l-157 -190l-121 96l155 186q-151 154 -151 393q0 250 162 400.5t414 150.5q168 0 299 -70zM409 387l324 390q-47 16 -99 16q-117 0 -191.5 -70.5
t-74.5 -186.5q0 -84 41 -149zM855 682l-324 -391q49 -17 103 -17q117 0 189 72.5t72 189.5q0 85 -40 146z" />
    <glyph glyph-name="zero.onum" horiz-adv-x="1308" 
d="M656 -20q-254 0 -415 152t-161 404q0 250 162 400.5t414 150.5t412.5 -150.5t160.5 -400.5q0 -166 -73.5 -293t-203.5 -195t-296 -68zM391 536q0 -118 74 -190t192 -72q117 0 189 72.5t72 189.5q0 116 -72.5 186.5t-188.5 70.5q-117 0 -191.5 -70.5t-74.5 -186.5z" />
    <glyph glyph-name="one.onum" horiz-adv-x="1049" 
d="M62 0v278h339v500h-309v299h638v-799h300v-278h-968z" />
    <glyph glyph-name="two.onum" horiz-adv-x="1121" 
d="M324 650l-263 144q58 124 190 210q130 85 307 85q72 0 138 -13t125.5 -42t103.5 -71.5t70 -105.5t26 -139q0 -59 -27.5 -116.5t-67 -102t-98 -89.5t-105.5 -73t-104 -59h442v-278h-968v217h-2l2 1v3l5 1l345 238q134 97 175 141q44 47 44 100q0 48 -33.5 77.5t-90.5 29.5
q-70 0 -126 -44t-88 -114z" />
    <glyph glyph-name="three.onum" horiz-adv-x="1149" 
d="M564 -310q-178 0 -313.5 89.5t-197.5 254.5l242 132q91 -195 272 -195q71 0 124.5 40t53.5 108q0 73 -53 115t-145 42h-203v241h203q72 0 127.5 41.5t55.5 111.5q0 60 -49 98.5t-126 38.5q-169 0 -249 -177l-244 122q51 129 169 227q61 51 147.5 80t184.5 29
q220 0 356 -112t136 -295q0 -94 -49 -165.5t-135 -110.5q91 -37 145 -117t54 -183q0 -184 -140 -300q-139 -115 -366 -115z" />
    <glyph glyph-name="four.onum" horiz-adv-x="1202" 
d="M656 -291v340h-621v227l554 791h377v-750h197v-268h-197v-340h-310zM656 697l-265 -380h265v380z" />
    <glyph glyph-name="five.onum" horiz-adv-x="1128" 
d="M543 -311q-180 0 -309.5 87.5t-199.5 245.5l260 138q92 -188 246 -188q86 0 147.5 53t61.5 138q0 88 -58 140.5t-147 52.5q-134 0 -213 -111l-233 102l77 720h818v-283h-554l-25 -239q27 25 86 38t108 13q208 0 337.5 -115t129.5 -320q0 -211 -147 -342
q-146 -130 -385 -130z" />
    <glyph glyph-name="six.onum" horiz-adv-x="1229" 
d="M635 -20q-113 0 -206 33t-157 90.5t-108 138t-64 173t-20 197.5q0 132 23.5 245.5t75 210t128 165t187.5 107t248 38.5q109 0 192.5 -19t166.5 -62l-65 -258q-135 66 -271 66q-68 0 -125 -15.5t-106 -49t-80 -95t-39 -145.5q43 57 123 86t162 29q210 0 342 -119t132 -327
q0 -154 -72.5 -266.5t-193 -167.5t-273.5 -55zM639 655q-88 0 -148 -57t-60 -144t60 -144t148 -57t148 57t60 144t-60 144t-148 57z" />
    <glyph glyph-name="seven.onum" horiz-adv-x="1027" 
d="M26 780v287h988v-242q-368 -569 -543 -1116h-339q242 655 540 1071h-646z" />
    <glyph glyph-name="eight.onum" horiz-adv-x="1191" 
d="M75 381q0 113 58.5 198.5t159.5 129.5q-86 38 -138 114t-52 176q0 81 28 146.5t75.5 108t111.5 71t133 41t144 12.5q99 0 185.5 -22t156.5 -66.5t110.5 -119t40.5 -171.5q0 -100 -52 -176t-138 -114q101 -44 159.5 -129.5t58.5 -198.5q0 -103 -43.5 -182.5t-118 -126
t-165.5 -69.5t-194 -23q-81 0 -155.5 14t-141.5 45.5t-116 77t-78 113.5t-29 151zM428 970q0 -73 46.5 -119t120.5 -46q72 0 119.5 46.5t47.5 118.5q0 70 -48 112t-119 42q-70 0 -118.5 -42.5t-48.5 -111.5zM787 402q0 79 -55.5 125t-136.5 46t-136.5 -46t-55.5 -125
q0 -76 57 -121.5t135 -45.5q79 0 135.5 45t56.5 122z" />
    <glyph glyph-name="nine.onum" horiz-adv-x="1227" 
d="M463 146q-210 0 -342 119t-132 327q0 154 72.5 266.5t193 167.5t273.5 55q113 0 206 -33t157 -90.5t108 -138t64 -173t20 -197.5q0 -132 -23.5 -245.5t-75 -210t-128 -165t-187.5 -107t-248 -38.5q-109 0 -192.5 19t-166.5 62l65 258q135 -66 271 -66q68 0 125 15.5
t106 49t80 95t39 145.5q-43 -57 -123 -86t-162 -29zM732 607q0 87 -60 144t-148 57t-148 -57t-60 -144t60 -144t148 -57t148 57t60 144z" />
    <glyph glyph-name="plus.onum" horiz-adv-x="1314" 
d="M94 395v283h398v383h327v-383h402v-283h-402v-391h-327v391h-398z" />
    <glyph glyph-name="minus.onum" horiz-adv-x="1198" 
d="M1088 674v-283h-977v283h977z" />
    <glyph glyph-name="plusminus.onum" horiz-adv-x="1305" 
d="M110 611v283h380v317h323v-317h380v-283h-380v-327h-323v327h-380zM1195 128v-275h-1085v275h1085z" />
    <glyph glyph-name="equal.onum" horiz-adv-x="1362" 
d="M139 619v286h1085v-286h-1085zM1224 447v-287h-1085v287h1085z" />
    <glyph glyph-name="notequal.onum" horiz-adv-x="1338" 
d="M120 160v287h411l77 172h-488v286h616l185 414l160 -59l-160 -355h284v-286h-413l-77 -172h490v-287h-619l-188 -417l-153 64l158 353h-283z" />
    <glyph glyph-name="approxequal.onum" horiz-adv-x="1467" 
d="M262 575l-142 213q201 201 388 201q19 0 38 -1.5t34 -3.5t33 -7t28.5 -7.5t27.5 -10t24.5 -10.5t24 -12t21 -11t22 -12.5t19.5 -11.5q84 -48 180 -48q75 0 130 22.5t118 73.5l141 -203q-201 -201 -387 -201q-27 0 -50.5 2.5t-47.5 9t-38.5 10.5t-38.5 16l-31 15.5
t-33 18.5t-28 16q-84 48 -185 48q-123 0 -248 -107zM261 105l-142 213q201 201 388 201q19 0 38 -1.5t34 -3.5t33 -7t28.5 -7.5t27.5 -10t24.5 -10.5t24 -12t21 -11t22 -12.5t19.5 -11.5q84 -48 180 -48q75 0 130 22.5t118 73.5l141 -203q-201 -201 -387 -201
q-27 0 -50.5 2.5t-47.5 9t-38.5 10.5t-38.5 16l-31 15.5t-33 18.5t-28 16q-84 48 -185 48q-123 0 -248 -107z" />
    <glyph glyph-name="multiply.onum" horiz-adv-x="1251" 
d="M83 203l328 329l-328 329l214 214l329 -329l329 329l214 -214l-329 -329l329 -329l-214 -214l-329 329l-329 -329z" />
    <glyph glyph-name="less.onum" horiz-adv-x="1248" 
d="M1122 261v-319l-1027 462v257l1027 463v-320l-629 -271z" />
    <glyph glyph-name="greater.onum" horiz-adv-x="1248" 
d="M1154 662v-257l-1027 -463v320l629 271l-629 272v319z" />
    <glyph glyph-name="lessequal.onum" horiz-adv-x="1396" 
d="M530 593h699v-280h-1097v384l1077 514v-340zM122 128h1115v-275h-1115v275z" />
    <glyph glyph-name="greaterequal.onum" horiz-adv-x="1398" 
d="M1265 313h-1097v280h699l-679 278v340l1077 -514v-384zM1275 -147h-1115v275h1115v-275z" />
    <glyph glyph-name="divide.onum" horiz-adv-x="1328" 
d="M839 948q0 -74 -50.5 -123t-124.5 -49t-124 49.5t-50 122.5q0 74 50 123t124 49q75 0 125 -48.5t50 -123.5zM1218 674v-283h-1107v283h1107zM664 -53q-74 0 -124 49t-50 123t50 123t124 49q75 0 125 -48.5t50 -123.5t-50 -123.5t-125 -48.5z" />
    <glyph glyph-name="logicalnot.onum" horiz-adv-x="1366" 
d="M1222 217h-327v346h-796v283h1123v-629z" />
    <glyph glyph-name="numbersign.onum" horiz-adv-x="1372" 
d="M284 230h-203l40 217h203l35 197h-202l40 217h201l38 206h247l-38 -206h183l38 206h247l-38 -206h220l-40 -217h-219l-35 -197h218l-40 -217h-218l-41 -230h-247l41 230h-183l-41 -230h-247zM606 644l-35 -197h183l35 197h-183z" />
    <glyph glyph-name="dollar.onum" horiz-adv-x="1111" 
d="M104 242l231 153q64 -105 158 -135v157q-60 16 -106.5 33t-95 45.5t-80.5 63t-52.5 86t-20.5 113.5q0 93 52.5 166t131.5 112.5t171 47.5v149h121v-151q240 -29 349 -237l-217 -150q-55 96 -132 121v-160q38 -12 79 -24q70 -25 115.5 -47t91.5 -57q47 -36 71.5 -92
t24.5 -118q0 -78 -32.5 -140t-87.5 -101.5t-121.5 -62t-140.5 -27.5v-168h-121v170q-135 15 -235 79t-154 174zM428 761q0 -23 15.5 -38.5t49.5 -27.5v125q-30 -7 -47.5 -23t-17.5 -36zM710 317q0 37 -96 67v-134q96 12 96 67z" />
    <glyph glyph-name="Euro.onum" horiz-adv-x="1260" 
d="M536 505h309v-108h-294q19 -75 63.5 -117t111.5 -42q56 0 100 42t69 113l261 -117q-39 -139 -151.5 -217.5t-284.5 -78.5q-206 0 -334.5 107t-160.5 310h-120v108h110v18q0 37 1 48h-111v108h124q36 184 159 293q121 109 332 109q155 0 271 -70t161 -211l-259 -125
q-24 67 -71.5 107.5t-104.5 40.5q-122 0 -164 -144h292v-108h-309q-1 -9 -1 -40q0 -20 1 -26z" />
    <glyph glyph-name="yen.onum" horiz-adv-x="1318" 
d="M424 504l-371 563h354l252 -404l253 404h354l-372 -563h133v-115h-209l-1 -2v-84h198v-115h-198v-188h-315v188h-186v115h186v84l-2 2h-195v115h119z" />
    <glyph glyph-name="sterling.onum" horiz-adv-x="1116" 
d="M237 373v70h-122v171h120v89q0 180 115 281.5t298 101.5q69 0 131 -21t101.5 -49t73.5 -66t49 -61.5t26 -46.5l6 -15l-223 -131q-24 56 -65.5 95t-94.5 39t-90.5 -37t-37.5 -92v-87h248v-171h-248v-57q0 -90 -53 -146h498v-240h-853v192q60 28 90.5 76t30.5 105z" />
    <glyph glyph-name="currency.onum" horiz-adv-x="1286" 
d="M263 729l-168 166l163 163l166 -167q103 59 218 59q118 0 222 -59l165 167l163 -163l-167 -166q58 -98 58 -214q0 -123 -63 -220l172 -171l-163 -163l-173 175q-102 -54 -214 -54t-209 54l-175 -175l-163 163l171 171q-60 101 -60 220q0 117 57 214zM461 515
q0 -75 53 -127t128 -52q76 0 131 51.5t55 127.5q0 78 -54 130.5t-132 52.5q-76 0 -128.5 -53.5t-52.5 -129.5z" />
    <glyph glyph-name="florin.onum" horiz-adv-x="1313" 
d="M296 -159q-135 0 -243 53l91 235q46 -31 125 -31q74 0 123 36.5t60 108.5l35 258h-158l36 257h158l13 94q23 157 134 268q56 56 143 87.5t191 31.5q135 0 243 -53l-91 -235q-46 31 -125 31q-76 0 -129.5 -37.5t-63.5 -110.5l-11 -76h266l-36 -257h-255l-38 -276
q-20 -157 -133 -267q-57 -55 -144 -86t-191 -31z" />
    <glyph glyph-name="cent.onum" horiz-adv-x="1173" 
d="M114 678q0 192 118.5 328t308.5 165v170h131v-165q130 -10 237 -76.5t167 -178.5l-243 -173q-46 115 -161 136v-415q102 20 168 133l238 -174q-144 -227 -406 -248v-180h-131v183q-192 26 -309.5 163t-117.5 332zM541 484v385q-54 -25 -84.5 -75.5t-30.5 -115.5
q0 -66 31 -117.5t84 -76.5z" />
    <glyph glyph-name="mu.onum" horiz-adv-x="1286" 
d="M481 -400h-315v1360h315v-534q0 -76 49 -116q50 -42 112 -42q71 0 117.5 44t46.5 114v534h315v-960h-289l-10 101q-72 -110 -203 -110q-86 0 -138 40v-431z" />
    <glyph glyph-name="pi.onum" horiz-adv-x="1424" 
d="M219 838h-168v284h1281l-1 -284h-160v-455q0 -68 41 -100t116 -25v-270q-37 -8 -93 -8q-173 0 -276 89q-103 88 -103 273v496h-322v-838h-315v838z" />
    <glyph glyph-name="degree.onum" horiz-adv-x="928" 
d="M463 478q-153 0 -254.5 98t-101.5 250q0 154 101 253t255 99q155 0 257 -99t102 -253q0 -153 -102.5 -250.5t-256.5 -97.5zM323 826q0 -60 40 -101t100 -41t99 40.5t39 101.5q0 63 -39 104.5t-99 41.5q-61 0 -100.5 -42t-39.5 -104z" />
    <glyph glyph-name="ordmasculine.onum" horiz-adv-x="943" 
d="M140 851q0 143 94 235t237 92t238 -92.5t95 -234.5q0 -141 -95.5 -232t-237.5 -91t-236.5 91t-94.5 232zM340 851q0 -55 38 -93.5t93 -38.5q56 0 92 37.5t36 94.5q0 58 -36 96.5t-92 38.5t-93.5 -39.5t-37.5 -95.5zM160 280v155h624v-155h-624z" />
    <glyph glyph-name="ordfeminine.onum" horiz-adv-x="858" 
d="M364 552q-91 0 -153.5 48t-62.5 136q0 49 23 87.5t61 60t81.5 32t89.5 10.5q71 0 121 -21v6q0 43 -32.5 71.5t-85.5 28.5q-91 0 -154 -65l-96 126q47 50 121 79t146 29q121 0 200.5 -60.5t79.5 -177.5v-378h-169v66q-56 -78 -170 -78zM334 747q0 -26 20.5 -40.5
t53.5 -14.5q41 0 78.5 26t37.5 65q-32 23 -93 23q-46 0 -71.5 -15.5t-25.5 -43.5zM708 307h-554v150h554v-150z" />
    <glyph glyph-name="onehalf.onum" horiz-adv-x="1706" 
d="M378 -140v26l734 1332h165v-24l-732 -1334h-167zM360 390v637h-180v187h388v-824h-208zM1129 397l-159 101q32 84 119 146q85 60 201 60q137 0 226.5 -68.5t89.5 -201.5q0 -50 -16 -93t-50 -80.5t-63 -61.5t-78 -60q-30 -21 -90 -65q-24 -19 -30 -30h332v-184h-610v78
q0 79 54 152t160 153q2 2 27.5 20.5t28.5 21.5q19 15 26 20q91 71 91 124q0 39 -27 60.5t-66 21.5q-94 0 -166 -114z" />
    <glyph glyph-name="onethird.onum" horiz-adv-x="1670" 
d="M324 -140v26l734 1332h165v-24l-732 -1334h-167zM110 1027v187h388v-824h-208v637h-180zM1243 -161q-109 0 -191 54q-84 56 -115 129l151 106q63 -104 171 -104q40 0 68.5 23t28.5 63q0 44 -29 66t-72 22h-131v154h131q37 0 66 24t29 57q0 38 -29 60t-72 22
q-89 0 -154 -104l-153 105q38 87 123.5 137.5t183.5 50.5q60 0 115.5 -15t102 -44t74 -78.5t27.5 -113.5q0 -123 -109 -180q52 -25 83.5 -74.5t31.5 -109.5q0 -79 -47 -138t-121.5 -86.5t-162.5 -25.5z" />
    <glyph glyph-name="onequarter.onum" horiz-adv-x="1587" 
d="M334 -140v26l734 1332h165v-24l-732 -1334h-167zM310 390v637h-180v187h388v-824h-208zM820 46v140l339 498h240v-469h108v-169h-108v-186h-204v186h-375zM1195 215v232l-146 -232h146z" />
    <glyph glyph-name="twothirds.onum" horiz-adv-x="1837" 
d="M246 937l-159 101q32 84 119 146q86 60 201 60q137 0 226.5 -68.5t89.5 -201.5q0 -50 -16 -93t-50 -80.5t-63 -61.5t-78 -60q-30 -21 -90 -65q-24 -19 -30 -30h332v-184h-610v78q0 79 54 152t160 153q2 2 27.5 20.5t28.5 21.5q19 15 26 20q91 71 91 124q0 39 -27 60.5
t-66 21.5q-94 0 -166 -114zM1419 1194l-732 -1334h-167v26l734 1332h165v-24zM1422 -161q-108 0 -191 54q-84 56 -115 129l151 106q63 -104 171 -104q40 0 68.5 23t28.5 63q0 44 -29 66t-72 22h-131v154h131q37 0 66 24t29 57q0 38 -29 60t-72 22q-89 0 -154 -104l-153 105
q38 87 123.5 137.5t183.5 50.5q60 0 115.5 -15t102 -44t74 -78.5t27.5 -113.5q0 -123 -109 -180q52 -25 83.5 -74.5t31.5 -109.5q0 -79 -47 -138t-121.5 -86.5t-162.5 -25.5z" />
    <glyph glyph-name="threequarters.onum" horiz-adv-x="1749" 
d="M384 379q-109 0 -191 55q-84 55 -115 128l151 106q63 -104 171 -104q40 0 68.5 23t28.5 63q0 44 -29 66t-72 22h-131v154h131q37 0 66 24t29 57q0 38 -29 60t-72 22q-89 0 -154 -104l-153 105q38 87 123.5 137.5t183.5 50.5q60 0 115.5 -15t102 -44t74 -78.5t27.5 -113.5
q0 -123 -109 -180q52 -25 83.5 -74.5t31.5 -109.5q0 -79 -47 -138t-121.5 -86.5t-162.5 -25.5zM1398 1194l-732 -1334h-167v26l734 1332h165v-24zM994 46v140l339 498h240v-469h108v-169h-108v-186h-204v186h-375zM1369 215v232l-146 -232h146z" />
    <glyph glyph-name="percent.onum" horiz-adv-x="1844" 
d="M829 854q0 -163 -109 -267.5t-272 -104.5t-271 105t-108 267q0 164 107.5 270.5t271.5 106.5q165 0 273 -106.5t108 -270.5zM474 -147v26l734 1332h165v-24l-732 -1334h-167zM448 1010q-65 0 -107.5 -45.5t-42.5 -110.5t43 -108.5t107 -43.5t105.5 43.5t41.5 108.5
q0 66 -41 111t-106 45zM1778 205q0 -163 -109 -267.5t-272 -104.5t-271 105t-108 267q0 164 107.5 270.5t271.5 106.5q165 0 273 -106.5t108 -270.5zM1397 361q-65 0 -107.5 -45.5t-42.5 -110.5t43 -108.5t107 -43.5t105.5 43.5t41.5 108.5q0 66 -41 111t-106 45z" />
    <glyph glyph-name="perthousand.onum" horiz-adv-x="2687" 
d="M829 854q0 -163 -109 -267.5t-272 -104.5t-271 105t-108 267q0 164 107.5 270.5t271.5 106.5q165 0 273 -106.5t108 -270.5zM474 -147v26l734 1332h165v-24l-732 -1334h-167zM448 1010q-65 0 -107.5 -45.5t-42.5 -110.5t43 -108.5t107 -43.5t105.5 43.5t41.5 108.5
q0 66 -41 111t-106 45zM1778 205q0 -163 -109 -267.5t-272 -104.5t-271 105t-108 267q0 164 107.5 270.5t271.5 106.5q165 0 273 -106.5t108 -270.5zM1858 205q0 164 107.5 270.5t271.5 106.5q165 0 273 -106.5t108 -270.5q0 -163 -109 -267.5t-272 -104.5t-271 105
t-108 267zM2237 361q-65 0 -107.5 -45.5t-42.5 -110.5t43 -108.5t107 -43.5t105.5 43.5t41.5 108.5q0 66 -41 111t-106 45zM1247 205q0 -65 43 -108.5t107 -43.5t105.5 43.5t41.5 108.5q0 66 -41 111t-106 45t-107.5 -45.5t-42.5 -110.5z" />
    <glyph glyph-name="zero.slash.onum.tnum" 
d="M1014 1018l158 190l121 -96l-154 -186q150 -153 150 -390q0 -166 -73.5 -293t-203.5 -195t-296 -68q-171 0 -302 71l-158 -190l-121 96l155 187q-150 153 -150 392q0 250 162 400.5t414 150.5q166 0 298 -69zM492 387l323 390q-42 16 -98 16q-117 0 -191.5 -70.5
t-74.5 -186.5q0 -84 41 -149zM937 683l-324 -392q49 -17 104 -17q117 0 189 72.5t72 189.5q0 83 -41 147z" />
    <glyph glyph-name="zero.onum.tnum" 
d="M716 -20q-254 0 -415 152t-161 404q0 250 162 400.5t414 150.5t412.5 -150.5t160.5 -400.5q0 -166 -73.5 -293t-203.5 -195t-296 -68zM451 536q0 -118 74 -190t192 -72q117 0 189 72.5t72 189.5q0 116 -72.5 186.5t-188.5 70.5q-117 0 -191.5 -70.5t-74.5 -186.5z" />
    <glyph glyph-name="one.onum.tnum" 
d="M230 0v278h339v500h-309v299h638v-799h300v-278h-968z" />
    <glyph glyph-name="two.onum.tnum" 
d="M477 650l-263 144q58 124 190 210q130 85 307 85q72 0 138 -13t125.5 -42t103.5 -71.5t70 -105.5t26 -139q0 -59 -27.5 -116.5t-67 -102t-98 -89.5t-105.5 -73t-104 -59h442v-278h-968v217h-2l2 1v3l5 1l345 238q134 97 175 141q44 47 44 100q0 48 -33.5 77.5t-90.5 29.5
q-70 0 -126 -44t-88 -114z" />
    <glyph glyph-name="three.onum.tnum" 
d="M717 -310q-178 0 -313.5 89.5t-197.5 254.5l242 132q92 -195 272 -195q71 0 124.5 40t53.5 108q0 73 -53 115t-145 42h-203v241h203q72 0 127.5 41.5t55.5 111.5q0 60 -49 98.5t-126 38.5q-170 0 -249 -177l-244 122q51 129 169 227q61 51 147.5 80t184.5 29
q220 0 356 -112t136 -295q0 -94 -49 -165.5t-135 -110.5q91 -37 145 -117t54 -183q0 -184 -140 -300q-139 -115 -366 -115z" />
    <glyph glyph-name="four.onum.tnum" 
d="M771 -291v340h-621v227l554 791h377v-750h197v-268h-197v-340h-310zM771 697l-265 -380h265v380z" />
    <glyph glyph-name="five.onum.tnum" 
d="M703 -311q-180 0 -309.5 87.5t-199.5 245.5l260 138q92 -188 246 -188q86 0 147.5 53t61.5 138q0 88 -58 140.5t-147 52.5q-134 0 -213 -111l-233 102l77 720h818v-283h-554l-25 -239q27 25 86 38t108 13q208 0 337.5 -115t129.5 -320q0 -211 -147 -342
q-146 -130 -385 -130z" />
    <glyph glyph-name="six.onum.tnum" 
d="M722 -20q-113 0 -206 33t-157 90.5t-108 138t-64 173t-20 197.5q0 132 23.5 245.5t75 210t128 165t187.5 107t248 38.5q109 0 192.5 -19t166.5 -62l-65 -258q-135 66 -271 66q-68 0 -125 -15.5t-106 -49t-80 -95t-39 -145.5q43 57 123 86t162 29q210 0 342 -119t132 -327
q0 -154 -72.5 -266.5t-193 -167.5t-273.5 -55zM726 655q-88 0 -148 -57t-60 -144t60 -144t148 -57t148 57t60 144t-60 144t-148 57z" />
    <glyph glyph-name="seven.onum.tnum" 
d="M220 780v287h988v-242q-368 -569 -543 -1116h-339q242 655 540 1071h-646z" />
    <glyph glyph-name="eight.onum.tnum" 
d="M194 381q0 113 58.5 198.5t159.5 129.5q-86 38 -138 114t-52 176q0 81 28 146.5t75.5 108t111.5 71t133 41t144 12.5q99 0 185.5 -22t156.5 -66.5t110.5 -119t40.5 -171.5q0 -100 -52 -176t-138 -114q101 -44 159.5 -129.5t58.5 -198.5q0 -103 -43.5 -182.5t-118 -126
t-165.5 -69.5t-194 -23q-81 0 -155.5 14t-141.5 45.5t-116 77t-78 113.5t-29 151zM547 970q0 -73 46.5 -119t120.5 -46q72 0 119.5 46.5t47.5 118.5q0 70 -48 112t-119 42q-70 0 -118.5 -42.5t-48.5 -111.5zM906 402q0 79 -55.5 125t-136.5 46t-136.5 -46t-55.5 -125
q0 -76 57 -121.5t135 -45.5q79 0 135.5 45t56.5 122z" />
    <glyph glyph-name="nine.onum.tnum" 
d="M563 146q-210 0 -342 119t-132 327q0 154 72.5 266.5t193 167.5t273.5 55q113 0 206 -33t157 -90.5t108 -138t64 -173t20 -197.5q0 -132 -23.5 -245.5t-75 -210t-128 -165t-187.5 -107t-248 -38.5q-109 0 -192.5 19t-166.5 62l65 258q135 -66 271 -66q68 0 125 15.5
t106 49t80 95t39 145.5q-43 -57 -123 -86t-162 -29zM832 607q0 87 -60 144t-148 57t-148 -57t-60 -144t60 -144t148 -57t148 57t60 144z" />
    <glyph glyph-name="plus.onum.tnum" 
d="M151 395v283h398v383h327v-383h402v-283h-402v-391h-327v391h-398z" />
    <glyph glyph-name="minus.onum.tnum" 
d="M1203 674v-283h-977v283h977z" />
    <glyph glyph-name="plusminus.onum.tnum" 
d="M172 611v283h380v317h323v-317h380v-283h-380v-327h-323v327h-380zM1257 128v-275h-1085v275h1085z" />
    <glyph glyph-name="equal.onum.tnum" 
d="M172 619v286h1085v-286h-1085zM1257 447v-287h-1085v287h1085z" />
    <glyph glyph-name="notequal.onum.tnum" 
d="M172 160v287h411l77 172h-488v286h616l185 414l160 -59l-160 -355h284v-286h-413l-77 -172h490v-287h-619l-188 -417l-153 64l158 353h-283z" />
    <glyph glyph-name="approxequal.onum.tnum" 
d="M242 575l-142 213q201 201 388 201q19 0 38 -1.5t34 -3.5t33 -7t28.5 -7.5t27.5 -10t24.5 -10.5t24 -12t21 -11t22 -12.5t19.5 -11.5q84 -48 180 -48q75 0 130 22.5t118 73.5l141 -203q-201 -201 -387 -201q-27 0 -50.5 2.5t-47.5 9t-38.5 10.5t-38.5 16l-31 15.5
t-33 18.5t-28 16q-84 48 -185 48q-123 0 -248 -107zM241 105l-142 213q201 201 388 201q19 0 38 -1.5t34 -3.5t33 -7t28.5 -7.5t27.5 -10t24.5 -10.5t24 -12t21 -11t22 -12.5t19.5 -11.5q84 -48 180 -48q75 0 130 22.5t118 73.5l141 -203q-201 -201 -387 -201
q-27 0 -50.5 2.5t-47.5 9t-38.5 10.5t-38.5 16l-31 15.5t-33 18.5t-28 16q-84 48 -185 48q-123 0 -248 -107z" />
    <glyph glyph-name="multiply.onum.tnum" 
d="M171 203l328 329l-328 329l214 214l329 -329l329 329l214 -214l-329 -329l329 -329l-214 -214l-329 329l-329 -329z" />
    <glyph glyph-name="less.onum.tnum" 
d="M1228 261v-319l-1027 462v257l1027 463v-320l-629 -271z" />
    <glyph glyph-name="greater.onum.tnum" 
d="M1228 662v-257l-1027 -463v320l629 271l-629 272v319z" />
    <glyph glyph-name="lessequal.onum.tnum" 
d="M565 593h699v-280h-1097v384l1077 514v-340zM157 128h1115v-275h-1115v275z" />
    <glyph glyph-name="greaterequal.onum.tnum" 
d="M1262 313h-1097v280h699l-679 278v340l1077 -514v-384zM1272 -147h-1115v275h1115v-275z" />
    <glyph glyph-name="divide.onum.tnum" 
d="M889 948q0 -74 -50.5 -123t-124.5 -49t-124 49.5t-50 122.5q0 74 50 123t124 49q75 0 125 -48.5t50 -123.5zM1268 674v-283h-1107v283h1107zM714 -53q-74 0 -124 49t-50 123t50 123t124 49q75 0 125 -48.5t50 -123.5t-50 -123.5t-125 -48.5z" />
    <glyph glyph-name="logicalnot.onum.tnum" 
d="M1276 217h-327v346h-796v283h1123v-629z" />
    <glyph glyph-name="numbersign.onum.tnum" 
d="M310 230h-203l40 217h203l35 197h-202l40 217h201l38 206h247l-38 -206h183l38 206h247l-38 -206h220l-40 -217h-219l-35 -197h218l-40 -217h-218l-41 -230h-247l41 230h-183l-41 -230h-247zM632 644l-35 -197h183l35 197h-183z" />
    <glyph glyph-name="dollar.onum.tnum" 
d="M268 242l231 153q64 -105 158 -135v157q-60 16 -106.5 33t-95 45.5t-80.5 63t-52.5 86t-20.5 113.5q0 93 52.5 166t131.5 112.5t171 47.5v149h121v-151q240 -29 349 -237l-217 -150q-55 96 -132 121v-160q38 -12 79 -24q70 -25 115.5 -47t91.5 -57q47 -36 71.5 -92
t24.5 -118q0 -78 -32.5 -140t-87.5 -101.5t-121.5 -62t-140.5 -27.5v-168h-121v170q-135 15 -235 79t-154 174zM592 761q0 -23 15.5 -38.5t49.5 -27.5v125q-30 -7 -47.5 -23t-17.5 -36zM874 317q0 37 -96 67v-134q96 12 96 67z" />
    <glyph glyph-name="Euro.onum.tnum" 
d="M620 505h309v-108h-294q19 -75 63.5 -117t111.5 -42q56 0 100 42t69 113l261 -117q-39 -139 -151.5 -217.5t-284.5 -78.5q-206 0 -334.5 107t-160.5 310h-120v108h110v18q0 37 1 48h-111v108h124q36 184 159 293q121 109 332 109q155 0 271 -70t161 -211l-259 -125
q-24 67 -71.5 107.5t-104.5 40.5q-122 0 -164 -144h292v-108h-309q-1 -9 -1 -40q0 -20 1 -26z" />
    <glyph glyph-name="yen.onum.tnum" 
d="M479 504l-371 563h354l252 -404l253 404h354l-372 -563h133v-115h-209l-1 -2v-84h198v-115h-198v-188h-315v188h-186v115h186v84l-2 2h-195v115h119z" />
    <glyph glyph-name="sterling.onum.tnum" 
d="M376 373v70h-122v171h120v89q0 180 115 281.5t298 101.5q69 0 131 -21t101.5 -49t73.5 -66t49 -61.5t26 -46.5l6 -15l-223 -131q-24 56 -65.5 95t-94.5 39t-90.5 -37t-37.5 -92v-87h248v-171h-248v-57q0 -90 -53 -146h498v-240h-853v192q60 28 90.5 76t30.5 105z" />
    <glyph glyph-name="currency.onum.tnum" 
d="M334 729l-168 166l163 163l166 -167q103 59 218 59q118 0 222 -59l165 167l163 -163l-167 -166q58 -98 58 -214q0 -123 -63 -220l172 -171l-163 -163l-173 175q-102 -54 -214 -54q-111 0 -209 54l-175 -175l-163 163l171 171q-60 101 -60 220q0 117 57 214zM532 515
q0 -75 53 -127t128 -52q76 0 131 51.5t55 127.5q0 78 -54 130.5t-132 52.5q-76 0 -128.5 -53.5t-52.5 -129.5z" />
    <glyph glyph-name="florin.onum.tnum" 
d="M360 -159q-135 0 -243 53l91 235q46 -31 125 -31q74 0 123 36.5t60 108.5l35 258h-158l36 257h158l13 94q23 157 134 268q56 56 143 87.5t191 31.5q135 0 243 -53l-91 -235q-46 31 -125 31q-76 0 -129.5 -37.5t-63.5 -110.5l-11 -76h266l-36 -257h-255l-38 -276
q-20 -157 -133 -267q-57 -55 -144 -86t-191 -31z" />
    <glyph glyph-name="cent.onum.tnum" 
d="M232 678q0 196 122.5 332.5t317.5 162.5v168h131v-166q124 -13 228.5 -79.5t162.5 -174.5l-243 -173q-44 108 -148 133v-409q95 24 155 130l238 -174q-140 -222 -393 -247v-181h-131v182q-197 22 -318.5 159.5t-121.5 336.5zM672 479v396q-59 -23 -93.5 -75.5
t-34.5 -121.5q0 -70 34.5 -123.5t93.5 -75.5z" />
    <glyph glyph-name="mu.onum.tnum" 
d="M552 -400h-315v1360h315v-534q0 -76 49 -116q49 -42 112 -42q71 0 117.5 44t46.5 114v534h315v-960h-289l-10 101q-72 -110 -203 -110q-86 0 -138 40v-431z" />
    <glyph glyph-name="pi.onum.tnum" 
d="M242 838h-168v284h1281l-1 -284h-160v-455q0 -68 41 -100t116 -25v-270q-37 -8 -93 -8q-173 0 -276 89q-103 88 -103 273v496h-322v-838h-315v838z" />
    <glyph glyph-name="degree.onum.tnum" 
d="M713 478q-153 0 -254.5 98t-101.5 250q0 154 101 253t255 99q155 0 257 -99t102 -253q0 -153 -102.5 -250.5t-256.5 -97.5zM573 826q0 -60 40 -101t100 -41t99 40.5t39 101.5q0 63 -39 104.5t-99 41.5q-61 0 -100.5 -42t-39.5 -104z" />
    <glyph glyph-name="ordmasculine.onum.tnum" 
d="M382 851q0 143 94 235t237 92t238 -92.5t95 -234.5q0 -141 -95.5 -232t-237.5 -91t-236.5 91t-94.5 232zM582 851q0 -55 38 -93.5t93 -38.5q56 0 92 37.5t36 94.5q0 58 -36 96.5t-92 38.5t-93.5 -39.5t-37.5 -95.5zM402 280v155h624v-155h-624z" />
    <glyph glyph-name="ordfeminine.onum.tnum" 
d="M650 552q-91 0 -153.5 48t-62.5 136q0 49 23 87.5t61 60t81.5 32t89.5 10.5q71 0 121 -21v6q0 43 -32.5 71.5t-85.5 28.5q-91 0 -154 -65l-96 126q47 50 121 79t146 29q121 0 200.5 -60.5t79.5 -177.5v-378h-169v66q-56 -78 -170 -78zM620 747q0 -26 20.5 -40.5
t53.5 -14.5q41 0 78.5 26t37.5 65q-32 23 -93 23q-46 0 -71.5 -15.5t-25.5 -43.5zM994 307h-554v150h554v-150z" />
    <glyph glyph-name="A.smcp" horiz-adv-x="1171" 
d="M400 166l-57 -166h-331l390 1010h367l391 -1010h-331l-57 166h-372zM690 403l-104 301l-104 -301h208z" />
    <glyph glyph-name="B.smcp" horiz-adv-x="1075" 
d="M690 0h-556v1010h526q139 0 230 -73t91 -208q0 -61 -41 -127t-96 -86q70 -25 117 -89.5t47 -137.5q0 -133 -91 -211t-227 -78zM439 768v-144h163q33 0 52.5 20t19.5 53t-21 52t-58 19h-156zM439 403v-163h174q35 0 58 24.5t23 56.5q0 35 -22.5 58.5t-58.5 23.5h-174z" />
    <glyph glyph-name="C.smcp" horiz-adv-x="1106" 
d="M596 -20q-228 0 -378 148.5t-150 376.5q0 230 151 377.5t382 147.5q147 0 269.5 -74t187.5 -205l-230 -162q-69 161 -220 161q-103 0 -164 -71.5t-61 -175.5q0 -101 60 -171.5t159 -70.5q145 0 233 148l229 -159q-156 -270 -468 -270z" />
    <glyph glyph-name="D.smcp" horiz-adv-x="1210" 
d="M638 0h-504v1010h503q134 3 252.5 -66.5t187 -187t65.5 -250.5q3 -133 -66 -251t-187 -188t-251 -67zM585 752h-136v-495h136q105 0 173.5 71.5t68.5 176.5q0 106 -68 176.5t-174 70.5z" />
    <glyph glyph-name="E.smcp" horiz-adv-x="948" 
d="M878 0h-744v1010h740v-257h-425v-119h377v-245h-377v-132h429v-257z" />
    <glyph glyph-name="F.smcp" horiz-adv-x="957" 
d="M449 0h-315v1010h775v-257h-460v-125h361v-245h-361v-383z" />
    <glyph glyph-name="G.smcp" horiz-adv-x="1175" 
d="M606 -20q-109 -2 -209.5 39t-173 111t-115 168.5t-40.5 206.5q0 112 42 210t114 167t171.5 108.5t210.5 39.5q155 0 274.5 -66t191.5 -190l-233 -170q-35 65 -93.5 104.5t-129.5 39.5q-106 0 -169.5 -69t-63.5 -176q0 -106 63 -177.5t167 -71.5q67 0 116 23t67 64h-233
v218h549v-76q0 -229 -143 -366t-363 -137z" />
    <glyph glyph-name="H.smcp" horiz-adv-x="1263" 
d="M134 0v1010h315v-368h366v368h315v-1010h-315v385h-366v-385h-315z" />
    <glyph glyph-name="I.smcp" horiz-adv-x="582" 
d="M134 1010h315v-1010h-315v1010z" />
    <glyph glyph-name="J.smcp" horiz-adv-x="923" 
d="M7 172l196 189q75 -102 160 -102q55 0 89 34.5t34 93.5v624h315v-642q0 -184 -117.5 -286.5t-304.5 -102.5q-124 0 -222 51.5t-150 140.5z" />
    <glyph glyph-name="K.smcp" horiz-adv-x="1191" 
d="M449 0h-315v1010h315v-380l341 380h381l-421 -459l437 -551h-378l-270 369l-90 -96v-273z" />
    <glyph glyph-name="L.smcp" horiz-adv-x="964" 
d="M449 257h483v-257h-798v1010h315v-753z" />
    <glyph glyph-name="M.smcp" horiz-adv-x="1449" 
d="M134 0v1010h376l215 -544l215 544h376v-1010h-310v549l-201 -474h-160l-201 474v-549h-310z" />
    <glyph glyph-name="N.smcp" horiz-adv-x="1217" 
d="M449 496v-496h-315v1010h262l373 -496v496h315v-1010h-262z" />
    <glyph glyph-name="O.smcp" horiz-adv-x="1225" 
d="M69 506q-2 106 40.5 204.5t115.5 169t174 112t211 39.5q147 3 274.5 -67.5t201.5 -193t71 -264.5q0 -148 -72.5 -269.5t-197.5 -189.5t-274 -68q-147 0 -271.5 67t-198.5 189t-74 271zM384 506q0 -107 61.5 -176t167.5 -69t167.5 69t61.5 176q0 104 -62.5 173t-166.5 69
t-166.5 -69t-62.5 -173z" />
    <glyph glyph-name="P.smcp" horiz-adv-x="1099" 
d="M449 315v-315h-315v1010h576q150 0 247.5 -101.5t97.5 -251.5q0 -146 -99.5 -244t-245.5 -98h-261zM626 753h-177v-198h177q51 0 82.5 28.5t31.5 71.5q0 42 -31.5 70t-82.5 28z" />
    <glyph glyph-name="Q.smcp" horiz-adv-x="1225" 
d="M102 506q-2 106 40.5 204.5t115.5 169t174 112t211 39.5q147 3 274.5 -67.5t201.5 -193t71 -264.5q0 -115 -45 -215t-128 -174l78 -105l-194 -141l-96 130q-78 -22 -159 -22q-147 0 -271.5 67t-198.5 189t-74 271zM875 506q0 104 -62.5 173t-166.5 69t-166.5 -69
t-62.5 -173q0 -95 51.5 -163t143.5 -80l-60 82l193 141l92 -124q38 62 38 144z" />
    <glyph glyph-name="R.smcp" horiz-adv-x="1098" 
d="M134 0v1010h575q148 0 246.5 -98.5t98.5 -247.5q0 -103 -51 -183.5t-139 -122.5l197 -359h-311l-168 325h-133v-324h-315zM625 753h-176v-189h176q53 0 83.5 25t30.5 67q0 43 -31 70t-83 27z" />
    <glyph glyph-name="S.smcp" horiz-adv-x="1008" 
d="M63 216l217 166q48 -69 111.5 -104t127.5 -35q50 0 81 14.5t31 41.5q0 28 -38 43q-33 13 -166 46q-66 16 -120.5 40t-104 61.5t-77.5 92.5t-28 123q0 142 115 233q116 92 290 92q138 0 243 -57.5t166 -161.5l-212 -157q-30 58 -83 89.5t-110 31.5q-48 0 -78.5 -17
t-30.5 -45t41 -45q40 -16 144 -42q355 -88 355 -328q0 -141 -118 -229q-119 -89 -310 -89q-153 0 -268 63.5t-178 172.5z" />
    <glyph glyph-name="T.smcp" horiz-adv-x="954" 
d="M320 753h-291v257h897v-257h-291v-753h-315v753z" />
    <glyph glyph-name="U.smcp" horiz-adv-x="1194" 
d="M123 397v613h315v-603q0 -70 44 -108.5t115 -38.5q73 0 116.5 38.5t43.5 108.5v603h315v-613q0 -104 -37 -185t-102 -131t-150 -75.5t-186 -25.5q-103 0 -188 25t-149.5 74.5t-100.5 130.5t-36 187z" />
    <glyph glyph-name="V.smcp" horiz-adv-x="1141" 
d="M763 0h-383l-362 1010h342l212 -681l211 681h342z" />
    <glyph glyph-name="W.smcp" horiz-adv-x="1585" 
d="M655 0h-346l-282 1010h321l165 -662l164 648h232l164 -648l165 662h321l-282 -1010h-346l-138 482z" />
    <glyph glyph-name="X.smcp" horiz-adv-x="1137" 
d="M363 0h-353l377 516l-359 494h349l192 -268l187 268h355l-357 -495l375 -515h-348l-212 297z" />
    <glyph glyph-name="Y.smcp" horiz-adv-x="1140" 
d="M413 357l-396 653h354l199 -369l200 369h354l-396 -653v-357h-315v357z" />
    <glyph glyph-name="Z.smcp" horiz-adv-x="1003" 
d="M933 0h-862v228l456 525h-445v257h842v-228l-456 -525h465v-257z" />
    <glyph glyph-name="ampersand.smcp" horiz-adv-x="1153" 
d="M461 -20q-70 0 -138.5 19t-128 54.5t-96.5 95.5t-37 134q0 164 224 268q-100 103 -100 206q0 71 27 124.5t74 85.5t105.5 47.5t126.5 15.5q84 0 155.5 -28.5t119.5 -91t48 -147.5q0 -80 -55 -153.5t-132 -112.5l107 -105q19 22 30 70q9 45 1 87h226q9 -106 -14.5 -181
t-74.5 -137l249 -236h-328l-80 74q-125 -89 -309 -89zM518 812q-33 0 -54.5 -19.5t-21.5 -47.5q0 -43 65 -105q78 40 78 105q0 26 -18.5 46.5t-48.5 20.5zM344 301q0 -38 35 -63.5t99 -25.5q65 0 102 34l-156 151q-80 -38 -80 -96z" />
    <glyph glyph-name="Agrave.smcp" horiz-adv-x="1171" 
d="M451 1156l-263 334h362l162 -334h-261zM400 166l-57 -166h-331l390 1010h367l391 -1010h-331l-57 166h-372zM690 403l-104 301l-104 -301h208z" />
    <glyph glyph-name="Aacute.smcp" horiz-adv-x="1171" 
d="M721 1153h-261l162 334h362zM400 166l-57 -166h-331l390 1010h367l391 -1010h-331l-57 166h-372zM586 704l-104 -301h208z" />
    <glyph glyph-name="Acircumflex.smcp" horiz-adv-x="1171" 
d="M586 1294l-121 -169h-264l287 370h196l287 -370h-264zM343 0h-331l390 1010h367l391 -1010h-331l-57 166h-372zM690 403l-104 301l-104 -301h208z" />
    <glyph glyph-name="Adotbelow.smcp" horiz-adv-x="1171" 
d="M400 166l-57 -166h-331l390 1010h367l391 -1010h-331l-57 166h-372zM690 403l-104 301l-104 -301h208zM585 -455q-71 0 -122 49.5t-51 120.5q0 72 50.5 123t122.5 51t124 -51t52 -123q0 -73 -51 -121.5t-125 -48.5z" />
    <glyph glyph-name="Atilde.smcp" horiz-adv-x="1171" 
d="M328 1178l-115 104q109 207 258 207q43 0 138 -48q94 -48 122 -48q57 0 113 86l115 -104q-109 -207 -259 -207q-48 0 -134 48t-126 48q-49 0 -112 -86zM400 166l-57 -166h-331l390 1010h367l391 -1010h-331l-57 166h-372zM586 704l-104 -301h208z" />
    <glyph glyph-name="Adieresis.smcp" horiz-adv-x="1171" 
d="M396 1188q-68 0 -109.5 42t-41.5 109q0 68 42 110t109 42q68 0 110.5 -42.5t42.5 -109.5t-42.5 -109t-110.5 -42zM774 1188q-68 0 -109.5 42t-41.5 109q0 68 42 110t109 42q68 0 110.5 -42.5t42.5 -109.5t-42.5 -109t-110.5 -42zM400 166l-57 -166h-331l390 1010h367
l391 -1010h-331l-57 166h-372zM690 403l-104 301l-104 -301h208z" />
    <glyph glyph-name="Amacron.smcp" horiz-adv-x="1171" 
d="M882 1204h-591v204h591v-204zM400 166l-57 -166h-331l390 1010h367l391 -1010h-331l-57 166h-372zM690 403l-104 301l-104 -301h208z" />
    <glyph glyph-name="Abreve.smcp" horiz-adv-x="1171" 
d="M262 1481h210q2 -57 33.5 -92.5t80.5 -35.5q51 0 81.5 35t32.5 93h210q-8 -146 -94 -235.5t-230 -89.5q-143 0 -229.5 90.5t-94.5 234.5zM343 0h-331l390 1010h367l391 -1010h-331l-57 166h-372zM690 403l-104 301l-104 -301h208z" />
    <glyph glyph-name="Aring.smcp" horiz-adv-x="1171" 
d="M363 1329q0 96 63.5 158t159.5 62t159.5 -62t63.5 -158q0 -95 -64 -156t-159 -61t-159 61t-64 156zM647 1329q0 27 -16.5 46.5t-42.5 19.5t-46 -19t-18 -47q0 -27 17.5 -45t44.5 -18q26 0 43.5 18.5t17.5 44.5zM400 166l-57 -166h-331l390 1010h367l391 -1010h-331
l-57 166h-372zM586 704l-104 -301h208z" />
    <glyph glyph-name="Aringacute.smcp" horiz-adv-x="1171" 
d="M723 1601h-261l162 334h362zM363 1329q0 96 63.5 158t159.5 62t159.5 -62t63.5 -158q0 -95 -64 -156t-159 -61t-159 61t-64 156zM647 1329q0 27 -16.5 46.5t-42.5 19.5t-46 -19t-18 -47q0 -27 17.5 -45t44.5 -18q26 0 43.5 18.5t17.5 44.5zM400 166l-57 -166h-331
l390 1010h367l391 -1010h-331l-57 166h-372zM690 403l-104 301l-104 -301h208z" />
    <glyph glyph-name="Aogonek.smcp" horiz-adv-x="1171" 
d="M343 0h-331l390 1010h367l391 -1010h-110q-196 -112 -196 -194q0 -35 25 -56t68 -21q56 0 109 27l64 -176q-88 -57 -220 -57q-109 0 -184.5 53.5t-75.5 157.5q0 150 191 266h-2l-57 166h-372zM690 403l-104 301l-104 -301h208z" />
    <glyph glyph-name="AE.smcp" horiz-adv-x="1549" 
d="M390 166l-89 -166h-330l588 1010h916v-257h-425v-119h377v-245h-377v-132h429v-257h-744v166h-345zM725 791l-209 -388h209v388z" />
    <glyph glyph-name="AEacute.smcp" horiz-adv-x="1554" 
d="M1191 1153h-261l162 334h362zM390 166l-89 -166h-330l588 1010h916v-257h-425v-119h377v-245h-377v-132h429v-257h-744v166h-345zM725 403v388l-209 -388h209z" />
    <glyph glyph-name="Cacute.smcp" horiz-adv-x="1106" 
d="M751 1153h-261l162 334h362zM596 -20q-228 0 -378 148.5t-150 376.5q0 230 151 377.5t382 147.5q147 0 269.5 -74t187.5 -205l-230 -162q-69 161 -220 161q-103 0 -164 -71.5t-61 -175.5q0 -101 60 -171.5t159 -70.5q145 0 233 148l229 -159q-156 -270 -468 -270z" />
    <glyph glyph-name="Ccircumflex.smcp" horiz-adv-x="1106" 
d="M604 1294l-121 -169h-264l287 370h196l287 -370h-264zM596 -20q-228 0 -378 148.5t-150 376.5q0 230 151 377.5t382 147.5q147 0 269.5 -74t187.5 -205l-230 -162q-69 161 -220 161q-103 0 -164 -71.5t-61 -175.5q0 -101 60 -171.5t159 -70.5q145 0 233 148l229 -159
q-156 -270 -468 -270z" />
    <glyph glyph-name="Ccaron.smcp" horiz-adv-x="1106" 
d="M692 1133h-196l-287 370h264l121 -169l121 169h264zM596 -20q-228 0 -378 148.5t-150 376.5q0 230 151 377.5t382 147.5q147 0 269.5 -74t187.5 -205l-230 -162q-69 161 -220 161q-103 0 -164 -71.5t-61 -175.5q0 -101 60 -171.5t159 -70.5q145 0 233 148l229 -159
q-156 -270 -468 -270z" />
    <glyph glyph-name="Cdotaccent.smcp" horiz-adv-x="1106" 
d="M411 1342q0 77 48 125t124 48q77 0 125.5 -48t48.5 -125t-48.5 -124.5t-125.5 -47.5q-76 0 -124 48t-48 124zM596 -20q-228 0 -378 148.5t-150 376.5q0 230 151 377.5t382 147.5q147 0 269.5 -74t187.5 -205l-230 -162q-69 161 -220 161q-103 0 -164 -71.5t-61 -175.5
q0 -101 60 -171.5t159 -70.5q145 0 233 148l229 -159q-156 -270 -468 -270z" />
    <glyph glyph-name="Ccedilla.smcp" horiz-adv-x="1106" 
d="M432 -179l66 167q-194 32 -312 175.5t-118 341.5q0 230 151 377.5t382 147.5q147 0 269.5 -74t187.5 -205l-230 -162q-69 161 -220 161q-103 0 -164 -71.5t-61 -175.5q0 -101 60 -171.5t159 -70.5q145 0 233 148l229 -159q-139 -237 -399 -266l-20 -65q106 -15 161.5 -66
t55.5 -126q0 -56 -31.5 -98t-82.5 -64t-103 -32t-104 -10q-103 0 -164 30v155q60 -19 131 -19q56 0 88 17.5t32 48.5t-32.5 48.5t-89.5 17.5h-74z" />
    <glyph glyph-name="Dcaron.smcp" horiz-adv-x="1210" 
d="M677 1133h-196l-287 370h264l121 -169l121 169h264zM638 0h-504v1010h503q134 3 252.5 -66.5t187 -187t65.5 -250.5q3 -133 -66 -251t-187 -188t-251 -67zM449 752v-495h136q105 0 173.5 71.5t68.5 176.5q0 106 -68 176.5t-174 70.5h-136z" />
    <glyph glyph-name="Dcroat.smcp" horiz-adv-x="1210" 
d="M28 434v158h106v418h503q134 3 252.5 -66.5t187 -187t65.5 -250.5q3 -133 -66 -251t-187 -188t-251 -67h-504v434h-106zM449 752v-160h184v-158h-184v-177h136q105 0 173.5 71.5t68.5 176.5q0 106 -68 176.5t-174 70.5h-136z" />
    <glyph glyph-name="Eth.smcp" horiz-adv-x="1210" 
d="M28 434v158h106v418h503q134 3 252.5 -66.5t187 -187t65.5 -250.5q3 -133 -66 -251t-187 -188t-251 -67h-504v434h-106zM449 752v-160h184v-158h-184v-177h136q105 0 173.5 71.5t68.5 176.5q0 106 -68 176.5t-174 70.5h-136z" />
    <glyph glyph-name="Egrave.smcp" horiz-adv-x="948" 
d="M645 1156h-261l-263 334h362zM878 257v-257h-744v1010h740v-257h-425v-119h377v-245h-377v-132h429z" />
    <glyph glyph-name="Eacute.smcp" horiz-adv-x="948" 
d="M894 1487l-263 -334h-261l162 334h362zM878 0h-744v1010h740v-257h-425v-119h377v-245h-377v-132h429v-257z" />
    <glyph glyph-name="Ecircumflex.smcp" horiz-adv-x="948" 
d="M382 1125h-264l287 370h196l287 -370h-264l-121 169zM878 257v-257h-744v1010h740v-257h-425v-119h377v-245h-377v-132h429z" />
    <glyph glyph-name="Ecaron.smcp" horiz-adv-x="948" 
d="M406 1133l-287 370h264l121 -169l121 169h264l-287 -370h-196zM878 257v-257h-744v1010h740v-257h-425v-119h377v-245h-377v-132h429z" />
    <glyph glyph-name="Edieresis.smcp" horiz-adv-x="948" 
d="M697 1188q-67 0 -109 42t-42 109q0 68 42 110t109 42q68 0 110.5 -42.5t42.5 -109.5t-42.5 -109t-110.5 -42zM319 1188q-67 0 -109 42t-42 109q0 68 42 110t109 42q68 0 110.5 -42.5t42.5 -109.5t-42.5 -109t-110.5 -42zM878 257v-257h-744v1010h740v-257h-425v-119h377
v-245h-377v-132h429z" />
    <glyph glyph-name="Etilde.smcp" horiz-adv-x="948" 
d="M237 1178l-115 104q110 207 258 207q44 0 138 -48t122 -48q57 0 113 86l115 -104q-110 -207 -259 -207q-49 0 -134 48t-126 48q-49 0 -112 -86zM878 257v-257h-744v1010h740v-257h-425v-119h377v-245h-377v-132h429z" />
    <glyph glyph-name="Emacron.smcp" horiz-adv-x="948" 
d="M791 1408v-204h-591v204h591zM878 257v-257h-744v1010h740v-257h-425v-119h377v-245h-377v-132h429z" />
    <glyph glyph-name="Ebreve.smcp" horiz-adv-x="948" 
d="M191 1481h210q2 -57 33.5 -92.5t80.5 -35.5q51 0 81.5 35t32.5 93h210q-8 -146 -94 -235.5t-230 -89.5q-143 0 -229.5 90.5t-94.5 234.5zM878 257v-257h-744v1010h740v-257h-425v-119h377v-245h-377v-132h429z" />
    <glyph glyph-name="Edotaccent.smcp" horiz-adv-x="948" 
d="M342 1342q0 77 48 125t124 48q77 0 125.5 -48t48.5 -125t-48.5 -124.5t-125.5 -47.5q-76 0 -124 48t-48 124zM878 0h-744v1010h740v-257h-425v-119h377v-245h-377v-132h429v-257z" />
    <glyph glyph-name="Edotbelow.smcp" horiz-adv-x="948" 
d="M134 0v1010h740v-257h-425v-119h377v-245h-377v-132h429v-257h-744zM503 -455q-71 0 -122 49.5t-51 120.5q0 72 50.5 123t122.5 51t124 -51t52 -123q0 -73 -51 -121.5t-125 -48.5z" />
    <glyph glyph-name="Eogonek.smcp" horiz-adv-x="948" 
d="M659 0h-525v1010h740v-257h-425v-119h377v-245h-377v-132h429v-257q-196 -112 -196 -194q0 -35 25 -56t68 -21q57 0 109 27l64 -176q-88 -57 -220 -57q-109 0 -184.5 53.5t-75.5 157.5q0 150 191 266z" />
    <glyph glyph-name="Schwa.smcp" horiz-adv-x="1166" 
d="M64 484q0 39 10 92h735q-12 86 -79 136.5t-156 50.5q-75 0 -135.5 -31.5t-94.5 -88.5l-237 144q69 114 194 178.5t263 64.5q145 3 269 -68t196 -194t69 -267q0 -228 -150.5 -374.5t-378.5 -146.5q-218 -4 -362 133.5t-143 370.5zM791 376h-428q16 -67 75.5 -108
t130.5 -41q75 0 136 40.5t86 108.5z" />
    <glyph glyph-name="Gcircumflex.smcp" horiz-adv-x="1175" 
d="M608 1294l-121 -169h-264l287 370h196l287 -370h-264zM606 -20q-109 -2 -209.5 39t-173 111t-115 168.5t-40.5 206.5q0 112 42 210t114 167t171.5 108.5t210.5 39.5q155 0 274.5 -66t191.5 -190l-233 -170q-35 65 -93.5 104.5t-129.5 39.5q-106 0 -169.5 -69t-63.5 -176
q0 -106 63 -177.5t167 -71.5q67 0 116 23t67 64h-233v218h549v-76q0 -229 -143 -366t-363 -137z" />
    <glyph glyph-name="Gbreve.smcp" horiz-adv-x="1175" 
d="M284 1481h210q2 -57 33.5 -92.5t80.5 -35.5q51 0 81.5 35t32.5 93h210q-8 -146 -94 -235.5t-230 -89.5q-143 0 -229.5 90.5t-94.5 234.5zM68 505q0 112 42 210t114 167t171.5 108.5t210.5 39.5q155 0 274.5 -66t191.5 -190l-233 -170q-35 65 -93.5 104.5t-129.5 39.5
q-106 0 -169.5 -69t-63.5 -176q0 -106 63 -177.5t167 -71.5q67 0 116 23t67 64h-233v218h549v-76q0 -229 -143 -366t-363 -137q-109 -2 -209.5 39t-173 111t-115 168.5t-40.5 206.5z" />
    <glyph glyph-name="Gcaron.smcp" horiz-adv-x="1175" 
d="M500 1133l-287 370h264l121 -169l121 169h264l-287 -370h-196zM68 505q0 112 42 210t114 167t171.5 108.5t210.5 39.5q155 0 274.5 -66t191.5 -190l-233 -170q-35 65 -93.5 104.5t-129.5 39.5q-106 0 -169.5 -69t-63.5 -176q0 -106 63 -177.5t167 -71.5q67 0 116 23
t67 64h-233v218h549v-76q0 -229 -143 -366t-363 -137q-109 -2 -209.5 39t-173 111t-115 168.5t-40.5 206.5z" />
    <glyph glyph-name="Gdotaccent.smcp" horiz-adv-x="1175" 
d="M435 1342q0 77 48 125t124 48q77 0 125.5 -48t48.5 -125t-48.5 -124.5t-125.5 -47.5q-76 0 -124 48t-48 124zM68 505q0 112 42 210t114 167t171.5 108.5t210.5 39.5q155 0 274.5 -66t191.5 -190l-233 -170q-35 65 -93.5 104.5t-129.5 39.5q-106 0 -169.5 -69t-63.5 -176
q0 -106 63 -177.5t167 -71.5q67 0 116 23t67 64h-233v218h549v-76q0 -229 -143 -366t-363 -137q-109 -2 -209.5 39t-173 111t-115 168.5t-40.5 206.5z" />
    <glyph glyph-name="Gcommaaccent.smcp" horiz-adv-x="1175" 
d="M606 -20q-109 -2 -209.5 39t-173 111t-115 168.5t-40.5 206.5q0 112 42 210t114 167t171.5 108.5t210.5 39.5q155 0 274.5 -66t191.5 -190l-233 -170q-35 65 -93.5 104.5t-129.5 39.5q-106 0 -169.5 -69t-63.5 -176q0 -106 63 -177.5t167 -71.5q67 0 116 23t67 64h-233
v218h549v-76q0 -229 -143 -366t-363 -137zM774 -96l-71 -442h-226v442h297z" />
    <glyph glyph-name="Hcircumflex.smcp" horiz-adv-x="1263" 
d="M632 1294l-121 -169h-264l287 370h196l287 -370h-264zM449 0h-315v1010h315v-368h366v368h315v-1010h-315v385h-366v-385z" />
    <glyph glyph-name="Hbar.smcp" horiz-adv-x="1286" 
d="M1142 1010v-120h103v-153h-103v-737h-315v385h-366v-385h-315v737h-104v153h104v120h315v-120h366v120h315zM827 642v95h-366v-95h366z" />
    <glyph glyph-name="Igrave.smcp" horiz-adv-x="582" 
d="M418 1156h-261l-263 334h362zM134 1010h315v-1010h-315v1010z" />
    <glyph glyph-name="Iacute.smcp" horiz-adv-x="582" 
d="M327 1487h362l-263 -334h-261zM134 1010h315v-1010h-315v1010z" />
    <glyph glyph-name="Ibreve.smcp" horiz-adv-x="582" 
d="M-33 1481h210q2 -57 33.5 -92.5t80.5 -35.5q51 0 81.5 35t32.5 93h210q-8 -146 -94 -235.5t-230 -89.5q-143 0 -229.5 90.5t-94.5 234.5zM449 1010v-1010h-315v1010h315z" />
    <glyph glyph-name="Icircumflex.smcp" horiz-adv-x="582" 
d="M170 1125h-264l287 370h196l287 -370h-264l-121 169zM134 0v1010h315v-1010h-315z" />
    <glyph glyph-name="Itilde.smcp" horiz-adv-x="582" 
d="M-13 1178l-115 104q110 207 258 207q44 0 138 -48t122 -48q57 0 113 86l115 -104q-109 -207 -259 -207q-48 0 -134 48q-85 48 -126 48q-49 0 -112 -86zM134 0v1010h315v-1010h-315z" />
    <glyph glyph-name="Idieresis.smcp" horiz-adv-x="582" 
d="M479 1188q-67 0 -109 42t-42 109t42 109.5t109 42.5q68 0 110.5 -42.5t42.5 -109.5t-42.5 -109t-110.5 -42zM101 1188q-67 0 -109 42t-42 109q0 68 42 110t109 42q68 0 110.5 -42.5t42.5 -109.5t-42.5 -109t-110.5 -42zM449 1010v-1010h-315v1010h315z" />
    <glyph glyph-name="Imacron.smcp" horiz-adv-x="582" 
d="M-4 1408h591v-204h-591v204zM134 1010h315v-1010h-315v1010z" />
    </font>
</defs>
</svg>
