<?xml version="1.0" standalone="no"?>
<!DOCTYPE svg PUBLIC "-//W3C//DTD SVG 1.1//EN" "http://www.w3.org/Graphics/SVG/1.1/DTD/svg11.dtd" >
<svg xmlns="http://www.w3.org/2000/svg" xmlns:xlink="http://www.w3.org/1999/xlink" version="1.1">
<metadata>
Created by FontForge 20170731 at Sun Sep 13 23:32:51 2020
 By Aleksey,,,
Copyright (c) 2020 by TipoType Team. All rights reserved.
</metadata>
<defs>
<font id="Mundial-BlackItalic" horiz-adv-x="1432" >
  <font-face 
    font-family="Mundial Black"
    font-weight="900"
    font-style="italic"
    font-stretch="normal"
    units-per-em="2048"
    panose-1="0 0 0 0 0 0 0 0 0 0"
    ascent="1638"
    descent="-410"
    x-height="960"
    cap-height="1358"
    bbox="-283 -548 2620.19 2296"
    underline-thickness="150"
    underline-position="-950"
    unicode-range="U+000D-FB04"
  />
<missing-glyph horiz-adv-x="1442" 
d="M722 776l-243 242l-97 -97l242 -240l-244 -245l97 -97l245 242l243 -242l97 97l-244 245l242 240l-97 97zM1230 0h-1018v1358h1018v-1358z" />
    <glyph glyph-name="f_f" unicode="ff" horiz-adv-x="1442" 
d="M279 658h-146l53 302h145l16 91q34 194 182 296q116 81 299 81q96 0 192 -32l-92 -301q-41 29 -103 29q-105 0 -122 -95l-12 -69h300l13 74q34 201 194 310q124 84 320 84q112 0 222 -32l-92 -301q-53 29 -133 29q-63 0 -104.5 -27.5t-50.5 -84.5l-9 -52h249l-53 -302
h-234l-116 -658h-374l116 658h-286l-116 -658h-374z" />
    <glyph glyph-name="fi" unicode="fi" horiz-adv-x="1336" 
d="M163 0l116 658h-146l53 302h145l16 91q34 192 179 296q115 81 292 81q96 0 192 -32l-92 -301q-41 29 -103 29q-95 0 -112 -95l-12 -69h229l-53 -302h-214l-116 -658h-374zM1379 960l-169 -960h-384l169 960h384zM1197 1046q-94 0 -142 58q-47 58 -31 152q17 95 86 154
q68 59 162 59t144 -59q48 -58 31 -154q-16 -93 -86 -152q-68 -58 -164 -58z" />
    <glyph glyph-name="fl" unicode="fl" horiz-adv-x="1336" 
d="M163 0l116 658h-146l53 302h145l16 91q34 194 182 296q116 81 299 81q96 0 192 -32l-92 -301q-41 29 -103 29q-105 0 -122 -95l-12 -69h229l-53 -302h-214l-116 -658h-374zM1458 1408l-248 -1408h-384l248 1408h384z" />
    <glyph glyph-name="f_f_i" unicode="ffi" horiz-adv-x="1996" 
d="M279 658h-146l53 302h145l16 91q34 194 182 296q116 81 299 81q96 0 192 -32l-92 -301q-41 29 -103 29q-105 0 -122 -95l-12 -69h300l16 91q34 194 182 296q116 81 299 81q96 0 192 -32l-92 -301q-41 29 -103 29q-105 0 -122 -95l-12 -69h229l-53 -302h-214l-116 -658
h-374l116 658h-286l-116 -658h-374zM2039 960l-169 -960h-384l169 960h384zM1857 1046q-94 0 -142 58q-47 58 -31 152q17 95 86 154q68 59 162 59t144 -59q48 -58 31 -154q-16 -93 -86 -152q-68 -58 -164 -58z" />
    <glyph glyph-name="f_f_l" unicode="ffl" horiz-adv-x="1996" 
d="M163 0l116 658h-146l53 302h145l16 91q34 194 182 296q116 81 299 81q96 0 192 -32l-92 -301q-41 29 -103 29q-105 0 -122 -95l-12 -69h300l16 91q34 194 182 296q116 81 299 81q96 0 192 -32l-92 -301q-41 29 -103 29q-105 0 -122 -95l-12 -69h229l-53 -302h-214
l-116 -658h-374l116 658h-286l-116 -658h-374zM2118 1408l-248 -1408h-384l248 1408h384z" />
    <glyph glyph-name=".notdef" horiz-adv-x="1442" 
d="M722 776l-243 242l-97 -97l242 -240l-244 -245l97 -97l245 242l243 -242l97 97l-244 245l242 240l-97 97zM1230 0h-1018v1358h1018v-1358z" />
    <glyph glyph-name="uni0000" horiz-adv-x="82" 
 />
    <glyph glyph-name="uni0000" horiz-adv-x="82" 
 />
    <glyph glyph-name="uni000D" unicode="&#xd;" horiz-adv-x="566" 
 />
    <glyph glyph-name="space" unicode=" " horiz-adv-x="464" 
 />
    <glyph glyph-name="exclam" unicode="!" horiz-adv-x="648" 
d="M535 458h-256l85 900h396zM473 37q-69 -57 -154 -57t-132 57q-47 56 -33 139q15 83 83 140q67 57 152 57t133 -57t33 -140q-13 -81 -82 -139z" />
    <glyph glyph-name="quotedbl" unicode="&#x22;" horiz-adv-x="944" 
d="M670 1428l-153 -510h-213l27 510h339zM963 918h-212l27 510h339z" />
    <glyph glyph-name="numbersign" unicode="#" horiz-adv-x="1456" 
d="M305 289h-208l96 273h210l90 249h-211l99 272h211l97 275h304l-94 -275h192l97 275h305l-96 -275h206l-96 -272h-210l-90 -249h210l-98 -273h-208l-102 -289h-306l102 289h-194l-101 -289h-306zM993 811h-195l-91 -249h195z" />
    <glyph glyph-name="dollar" unicode="$" horiz-adv-x="1265" 
d="M544 -176l28 159q-168 16 -287.5 96t-177.5 215l320 199q70 -138 204 -173l37 210q-1 0 -16 5q-98 31 -157 58q-65 30 -126 77q-129 98 -95 293q19 115 103 209q83 93 198 144t243 60l28 160h131l-29 -162q276 -32 399 -294l-304 -188q-47 108 -154 144l-36 -205
q48 -14 87.5 -28t79.5 -31t71 -34.5t61 -39t49.5 -44.5t37.5 -51.5t24 -59t9.5 -67.5t-6.5 -78q-17 -92 -71.5 -170t-135.5 -129q-160 -103 -356 -117l-28 -158h-131zM880 399q6 30 -14 49.5t-74 40.5l-31 -175q49 9 81.5 32t37.5 53zM729 874l30 171q-89 -18 -99 -81
q-9 -52 69 -90z" />
    <glyph glyph-name="percent" unicode="%" horiz-adv-x="1769" 
d="M811 736q-125 -105 -291 -105t-252 104q-88 104 -59 265q29 165 153 271t290 106t254 -106q87 -106 58 -271q-28 -160 -153 -264zM1644 85q-124 -105 -291 -105q-166 0 -252 104q-87 103 -58 265q29 165 153 271q122 106 289 106q166 0 254 -106t59 -271
q-28 -160 -154 -264zM1599 1334l-967 -1334h-227l5 26l968 1332h225zM1305 350q-10 -53 15.5 -87.5t75.5 -34.5q51 0 89.5 34.5t48.5 87.5q9 54 -17.5 88.5t-77.5 34.5q-50 0 -87.5 -34.5t-46.5 -88.5zM472 1001q-10 -53 15.5 -87.5t75.5 -34.5q51 0 89.5 34.5t48.5 87.5
q9 54 -17.5 88.5t-77.5 34.5q-50 0 -87.5 -34.5t-46.5 -88.5z" />
    <glyph glyph-name="ampersand" unicode="&#x26;" horiz-adv-x="1454" 
d="M568 -20q-231 0 -357 108q-127 108 -97 279q39 223 325 358q-104 148 -79 291q29 159 172 261q143 101 349 101q95 0 173 -29t125 -79q46 -49 65.5 -113.5t7.5 -132.5q-20 -111 -114 -198t-219 -147l116 -139q54 64 64 193h319q-36 -245 -192 -400l279 -333h-439l-77 90
q-188 -110 -421 -110zM471 407q-10 -58 39.5 -94.5t141.5 -36.5q72 0 137 31l-191 226q-49 -17 -85 -53t-42 -73zM703 996q-5 -31 5 -52q9 -22 44 -68q79 34 114.5 63t42.5 64q7 41 -16 65.5t-66 24.5q-47 0 -82 -27t-42 -70z" />
    <glyph glyph-name="quotesingle" unicode="'" horiz-adv-x="497" 
d="M670 1428l-153 -510h-213l27 510h339z" />
    <glyph glyph-name="parenleft" unicode="(" horiz-adv-x="720" 
d="M663 -400h-340q-256 433 -160 980q96 540 507 980h341q-227 -281 -329 -497q-104 -217 -150 -483q-30 -173 -32 -319q-1 -139 38 -306q37 -160 125 -355z" />
    <glyph glyph-name="parenright" unicode=")" horiz-adv-x="720" 
d="M254 -400h-341q227 280 330 498q102 215 149 482q32 177 33 319q0 140 -38 306q-39 162 -126 355h340q257 -435 160 -980q-95 -542 -507 -980z" />
    <glyph glyph-name="asterisk" unicode="*" horiz-adv-x="944" 
d="M482 682l-182 143l168 160l-210 62l119 222l198 -74l21 213h248l-53 -213l224 74l41 -222l-232 -62l110 -160l-232 -143l-78 181z" />
    <glyph glyph-name="plus" unicode="+" horiz-adv-x="1201" 
d="M435 151l65 370h-387l57 326h387l64 362h380l-64 -362h391l-57 -326h-391l-65 -370h-380z" />
    <glyph glyph-name="comma" unicode="," horiz-adv-x="594" 
d="M-42 -263l233 516h364l-301 -516h-296z" />
    <glyph glyph-name="hyphen" unicode="-" horiz-adv-x="965" 
d="M218 668h765l-49 -274h-765z" />
    <glyph glyph-name="period" unicode="." horiz-adv-x="541" 
d="M420 37q-69 -57 -154 -57q-86 0 -132 57q-47 56 -33 139q15 83 83 140t152 57q85 0 133 -57t33 -140q-13 -81 -82 -139z" />
    <glyph glyph-name="slash" unicode="/" horiz-adv-x="1146" 
d="M1045 1529h359l-1103 -1929h-358z" />
    <glyph glyph-name="zero" unicode="0" horiz-adv-x="1325" 
d="M659 -20q-119 0 -211 34.5t-148.5 96.5t-90 148.5t-35.5 190t16 220.5q53 301 229 499q88 100 214 155t273 55q120 0 212 -36.5t148 -101.5t88.5 -154.5t33.5 -194.5t-17 -222q-53 -299 -228 -489q-89 -96 -213.5 -148.5t-270.5 -52.5zM588 680q-35 -230 27 -319
q36 -54 102 -54q97 0 165 107q66 105 95 266q34 224 -25 316q-38 56 -104 56q-68 0 -123 -57q-57 -58 -88 -137q-33 -83 -49 -178z" />
    <glyph glyph-name="one" unicode="1" horiz-adv-x="828" 
d="M677 0h-388l181 1028h-279l58 330h667z" />
    <glyph glyph-name="two" unicode="2" horiz-adv-x="1172" 
d="M1106 0h-1010l25 142q18 104 76 182q59 81 120 128q57 44 219 154q11 7 36.5 25t35.5 24q126 85 181 141q54 54 66 121q11 60 -21 96t-98 36t-131 -48q-65 -49 -108 -123l-270 131q67 138 213 248q75 57 174.5 89.5t204.5 32.5q233 0 356 -124q122 -125 86 -328
q-17 -93 -78 -182q-48 -70 -147 -154q-39 -32 -91 -69q-53 -38 -92 -63q-4 -3 -95 -61q-21 -12 -62 -41q-41 -30 -43 -32h510z" />
    <glyph glyph-name="three" unicode="3" horiz-adv-x="1185" 
d="M575 -19q-98 0 -182.5 28.5t-142.5 78.5q-113 97 -143 231l311 152q54 -160 204 -160q65 0 110 32.5t53 83.5q10 58 -24 93t-101 35h-197l46 260h207q51 0 96 36q45 34 54 82q9 55 -23 87.5t-89 32.5q-142 0 -251 -156l-248 137q85 154 242 249t333 95q211 0 342 -103
q64 -52 91.5 -133.5t9.5 -180.5q-20 -111 -101 -181q-73 -62 -145 -85q77 -29 126 -106q49 -79 30 -192q-33 -185 -201 -301q-167 -115 -407 -115z" />
    <glyph glyph-name="four" unicode="4" horiz-adv-x="1221" 
d="M673 317h-597l42 237l692 804h426l-130 -739h184l-53 -302h-184l-56 -317h-380zM785 955l-262 -336h203z" />
    <glyph glyph-name="five" unicode="5" horiz-adv-x="1156" 
d="M545 -19q-363 0 -453 332l325 156q49 -159 181 -159q67 0 119 46q53 46 65 112q11 67 -26.5 110t-109.5 43q-54 0 -104.5 -28t-83.5 -70l-251 119l203 716h849l-57 -326h-523l-48 -172q70 41 188 41q188 0 293 -123q104 -123 69 -317q-38 -215 -213 -347
q-175 -133 -423 -133z" />
    <glyph glyph-name="six" unicode="6" horiz-adv-x="1255" 
d="M648 -20q-98 0 -178 23t-135 64t-94.5 98.5t-56 127t-20 148t13.5 162.5q67 379 280 577q211 198 545 198q112 0 195.5 -21t162.5 -67l-140 -291q-120 72 -265 72q-170 0 -279 -116q-59 -64 -86 -157q44 54 126.5 87.5t183.5 33.5q212 0 319 -119t72 -317
q-41 -229 -216 -365q-176 -138 -428 -138zM547 466q-14 -74 30 -121t122 -47q79 0 138 47q58 46 72 121q13 73 -29 122q-44 47 -122 47q-79 0 -138 -47q-59 -46 -73 -122z" />
    <glyph glyph-name="seven" unicode="7" horiz-adv-x="1052" 
d="M531 0h-419q333 626 684 1032h-586l57 326h1011l-46 -263q-430 -534 -701 -1095z" />
    <glyph glyph-name="eight" unicode="8" horiz-adv-x="1221" 
d="M607 -20q-157 -2 -272.5 50.5t-168.5 146.5t-30 211q23 119 102 203q80 83 180 123q-80 29 -125 101q-46 72 -28 173q32 176 194 283q163 107 395 107q233 0 355 -107q122 -109 91 -283q-18 -99 -89 -172q-70 -73 -163 -102q123 -54 165 -176q23 -70 8 -150
q-31 -181 -202 -294q-171 -114 -412 -114zM530 412q-11 -60 27 -97.5t103 -37.5q64 0 116 37q52 38 62 98q11 62 -27 100.5t-103 38.5t-115 -37q-53 -38 -63 -102zM656 964q-9 -52 18.5 -87.5t84.5 -35.5q58 0 98 37t49 86q8 50 -21 83t-84 33t-96 -33t-49 -83z" />
    <glyph glyph-name="nine" unicode="9" horiz-adv-x="1258" 
d="M137 71l120 293q131 -77 285 -77q169 0 273 109q56 59 85 154q-42 -47 -124 -84q-81 -37 -181 -37q-195 0 -308 107q-57 54 -79.5 142t-2.5 197q42 239 219 371t425 132q100 0 181 -22.5t136 -64t94 -99.5t54.5 -127t18.5 -147.5t-14 -162.5q-66 -379 -276 -577
t-539 -198q-228 0 -367 91zM649 1017q-56 -46 -70 -122q-13 -74 28 -122q41 -47 118 -47t135 47q57 47 71 122q13 75 -28 121.5t-119 46.5q-79 0 -135 -46z" />
    <glyph glyph-name="colon" unicode=":" horiz-adv-x="599" 
d="M556 644q-68 -57 -153 -57t-132 57q-48 55 -34 139q15 83 83 140q67 57 152 57t133 -57t33 -140q-14 -83 -82 -139zM449 37q-69 -57 -154 -57t-132 57q-47 56 -33 139q15 83 83 140q67 57 152 57t133 -57t33 -140q-13 -81 -82 -139z" />
    <glyph glyph-name="semicolon" unicode=";" horiz-adv-x="630" 
d="M273 -263h-296l233 516h364zM590 644q-68 -57 -153 -57t-132 57q-48 55 -34 139q15 83 83 140t152 57q85 0 133 -57t33 -140q-14 -83 -82 -139z" />
    <glyph glyph-name="less" unicode="&#x3c;" horiz-adv-x="1277" 
d="M1164 50l-999 492l48 277l1172 488l-65 -371l-642 -255q4 -1 227 -106q87 -41 324 -155z" />
    <glyph glyph-name="equal" unicode="=" horiz-adv-x="1309" 
d="M214 625h1101l-58 -330h-1101zM292 1065h1101l-58 -329h-1101z" />
    <glyph glyph-name="greater" unicode="&#x3e;" horiz-adv-x="1277" 
d="M1352 818l-49 -277l-1172 -488l66 371l642 255q-9 4 -227 107q-123 58 -324 154l65 370z" />
    <glyph glyph-name="question" unicode="?" horiz-adv-x="1044" 
d="M484 892l-278 136q91 168 239 259t330 91q200 0 310 -110t78 -287q-12 -67 -47.5 -130.5t-82.5 -110.5q-54 -51 -98 -87q-24 -20 -63 -49.5t-65 -51.5t-46 -44q-35 -38 -42 -71h-292q-1 35 5 75q16 84 65 145t123 115q13 10 46.5 35t47 36.5t34.5 31.5t30.5 38t13.5 38
q7 46 -19.5 72t-80.5 26t-110 -41.5t-98 -115.5zM652 37q-69 -57 -154 -57q-86 0 -132 57q-47 56 -33 139q15 83 83 140t152 57q85 0 133 -57t33 -140q-13 -81 -82 -139z" />
    <glyph glyph-name="at" unicode="@" horiz-adv-x="1847" 
d="M867 -324q-174 0 -322.5 63t-248.5 176q-100 114 -140 275q-42 162 -9 349q35 195 134 356q101 164 241 276q141 111 316 173.5t354 62.5q168 0 312 -63q144 -64 238 -171q96 -110 136 -261q41 -154 11 -324q-42 -237 -161 -371q-120 -135 -262 -136q-208 0 -262 155
q-134 -165 -344 -165q-177 0 -270 131t-59 326q34 196 169 329q134 131 304 131q149 0 211 -101l30 78h310l-106 -600q-7 -47 9 -75t56 -28q67 0 117 89q49 89 75 237q31 176 -28 325q-60 146 -198 232q-139 85 -328 85q-316 0 -543 -191q-227 -190 -283 -502
q-24 -142 6.5 -269.5t107.5 -218.5q78 -92 197 -143.5t261 -51.5q219 0 434 112l43 -153q-140 -70 -259.5 -103.5t-248.5 -33.5zM858 529q-13 -73 21.5 -118t104.5 -45q67 0 116 45t62 118q13 75 -20 120t-101 45q-69 0 -119 -45t-64 -120z" />
    <glyph glyph-name="A" unicode="A" horiz-adv-x="1487" 
d="M538 227l-128 -227h-426l761 1358h476l282 -1358h-426l-48 227h-491zM917 982l-236 -454h311z" />
    <glyph glyph-name="B" unicode="B" horiz-adv-x="1337" 
d="M841 0h-691l239 1358h646q196 0 300 -97q104 -98 75 -265q-34 -200 -247 -309q215 -85 175 -316q-28 -159 -163 -265q-136 -106 -334 -106zM643 532l-38 -215h170q58 0 99 32q40 31 48 73q9 47 -20.5 78.5t-88.5 31.5h-170zM881 1044h-148l-38 -216h156q53 0 90.5 31.5
t46.5 77.5q9 43 -21.5 75t-85.5 32z" />
    <glyph glyph-name="C" unicode="C" horiz-adv-x="1421" 
d="M786 -20q-210 0 -361 92q-151 91 -215 251q-64 159 -29 358q34 197 155 357q119 158 303 250q183 90 394 90q190 0 333 -92q142 -93 198 -248l-325 -201q-68 192 -268 192q-148 0 -253 -96q-104 -95 -133 -252q-27 -156 46 -253q72 -99 217 -99q207 0 354 194l250 -199
q-100 -149 -287 -247q-185 -97 -379 -97z" />
    <glyph glyph-name="D" unicode="D" horiz-adv-x="1502" 
d="M748 0h-598l239 1358h598q139 0 258.5 -52.5t197.5 -144.5t109.5 -218t7.5 -263t-101 -264q-75 -124 -185 -217q-109 -91 -247 -145t-279 -54zM732 1037l-127 -717h175q134 0 243 107q108 108 133 253q29 143 -42.5 251t-203.5 106h-178z" />
    <glyph glyph-name="E" unicode="E" horiz-adv-x="1213" 
d="M604 319h604l-56 -319h-1002l239 1358h992l-56 -320h-594l-33 -188h521l-56 -319h-521z" />
    <glyph glyph-name="F" unicode="F" horiz-adv-x="1199" 
d="M1127 519h-486l-92 -519h-399l239 1358h1019l-56 -319h-620l-35 -200h486z" />
    <glyph glyph-name="G" unicode="G" horiz-adv-x="1500" 
d="M786 -20q-210 0 -361 92q-151 91 -215 251q-64 157 -29 357q26 147 102.5 276.5t189.5 223.5t258.5 146t301.5 52q178 0 317 -82q138 -82 201 -225l-326 -201q-31 77 -96.5 118t-157.5 41q-148 0 -253 -96q-104 -95 -133 -252q-27 -156 46 -253q72 -99 217 -99
q97 0 169 41t111 119h-298l52 292h700q-4 -54 -18 -128q-56 -310 -270 -491q-217 -182 -508 -182z" />
    <glyph glyph-name="H" unicode="H" horiz-adv-x="1616" 
d="M549 0h-399l239 1358h399l-89 -506h518l89 506h399l-239 -1358h-399l94 533h-518z" />
    <glyph glyph-name="I" unicode="I" horiz-adv-x="699" 
d="M389 1358h399l-239 -1358h-399z" />
    <glyph glyph-name="J" unicode="J" horiz-adv-x="1119" 
d="M21 232l293 239q61 -142 188 -142q63 0 108.5 44t58.5 116l153 869h399l-159 -902q-37 -217 -201 -346q-163 -130 -404 -130q-316 0 -436 252z" />
    <glyph glyph-name="K" unicode="K" horiz-adv-x="1484" 
d="M621 406l-72 -406h-399l239 1358h399l-88 -501l551 501h478l-621 -556l405 -802h-467l-256 554z" />
    <glyph glyph-name="L" unicode="L" horiz-adv-x="1208" 
d="M605 318h652l-56 -318h-1051l239 1358h399z" />
    <glyph glyph-name="M" unicode="M" horiz-adv-x="1841" 
d="M663 676l-119 -676h-394l239 1358h417l216 -781l491 781h417l-239 -1358h-394l119 676l-363 -599h-237z" />
    <glyph glyph-name="N" unicode="N" horiz-adv-x="1592" 
d="M538 0h-388l239 1358h325l452 -725l127 725h388l-239 -1358h-311l-465 727z" />
    <glyph glyph-name="O" unicode="O" horiz-adv-x="1560" 
d="M779 -20q-153 -2 -278.5 50.5t-205 145t-111 224t-2.5 281.5q55 307 292 502q236 195 552 195q152 0 276 -51t203 -143q79 -93 109.5 -223.5t3.5 -280.5q-36 -203 -156 -364q-119 -159 -298 -248q-177 -88 -385 -88zM587 680q-27 -154 44 -249q71 -96 213 -96
q139 0 241 96q102 95 129 249q27 151 -41 246q-69 94 -208 94q-143 0 -246 -94q-105 -94 -132 -246z" />
    <glyph glyph-name="P" unicode="P" horiz-adv-x="1332" 
d="M624 426l-75 -426h-399l239 1358h675q129 2 229 -57.5t146.5 -167.5t21.5 -238q-34 -199 -198 -334q-163 -135 -363 -135h-276zM941 1035h-210l-50 -286h210q62 0 109 44q45 42 56 102q11 61 -20.5 100.5t-94.5 39.5z" />
    <glyph glyph-name="Q" unicode="Q" horiz-adv-x="1561" 
d="M825 -20q-153 -2 -278.5 50.5t-205 145t-111 224t-2.5 281.5q55 307 292 502q236 195 552 195q152 0 276 -51t203 -143q79 -93 109.5 -223.5t3.5 -280.5q-56 -319 -309 -519l86 -157l-281 -169l-92 179q-117 -34 -243 -34zM633 680q-27 -154 44 -249q71 -96 213 -96
q15 0 19 1l-87 165l259 155l93 -178q65 87 86 202q27 151 -41 246q-69 94 -208 94q-143 0 -246 -94q-105 -94 -132 -246z" />
    <glyph glyph-name="R" unicode="R" horiz-adv-x="1375" 
d="M547 0h-397l239 1358h685q96 2 178.5 -32t137.5 -93.5t78 -144.5t5 -180q-24 -136 -108 -239q-85 -105 -207 -162l186 -508h-425l-159 456h-133zM950 1035h-221l-47 -270h221q62 0 108 43q45 41 56 100q10 56 -22 91.5t-95 35.5z" />
    <glyph glyph-name="S" unicode="S" horiz-adv-x="1270" 
d="M118 294l320 199q44 -89 117.5 -136t167.5 -47q65 0 113 25.5t55 63.5q8 42 -32 64q-41 23 -168 63q-21 7 -28 9q-98 31 -157 58q-65 30 -126 77q-129 98 -95 293q22 122 114 220q93 97 217 146q125 49 261 49q178 0 295 -75.5t186 -222.5l-304 -188q-31 72 -94 114.5
t-145 42.5q-56 0 -96.5 -22.5t-47.5 -62.5q-8 -40 31 -67.5t130 -55.5q98 -29 164 -54q60 -23 131 -64q62 -37 98 -82q77 -96 52 -243q-18 -98 -79.5 -180.5t-150.5 -133.5q-182 -104 -386 -104q-199 0 -339 81.5t-204 232.5z" />
    <glyph glyph-name="T" unicode="T" horiz-adv-x="1187" 
d="M571 1032h-387l57 326h1183l-57 -326h-397l-182 -1032h-399z" />
    <glyph glyph-name="U" unicode="U" horiz-adv-x="1451" 
d="M721 -20q-269 0 -406 131t-92 386l151 861h399l-146 -832q-18 -99 25 -152.5t129 -53.5q87 0 149 53.5t80 152.5l146 832h399l-151 -861q-29 -168 -125.5 -287t-239.5 -175q-140 -55 -318 -55z" />
    <glyph glyph-name="V" unicode="V" horiz-adv-x="1391" 
d="M934 0h-474l-231 1358h428l114 -936l441 936h428z" />
    <glyph glyph-name="W" unicode="W" horiz-adv-x="1991" 
d="M825 0h-466l-116 1358h400l53 -892l376 873h320l67 -873l367 892h400l-594 -1358h-466l-67 582z" />
    <glyph glyph-name="X" unicode="X" horiz-adv-x="1414" 
d="M778 402l-343 -402h-456l621 694l-357 664h455l184 -363l312 363h456l-592 -664l377 -694h-456z" />
    <glyph glyph-name="Y" unicode="Y" horiz-adv-x="1430" 
d="M608 510l-380 848h472l171 -515l355 515h454l-674 -848l-90 -510h-398z" />
    <glyph glyph-name="Z" unicode="Z" horiz-adv-x="1234" 
d="M1183 0h-1129l49 280l766 758h-616l56 320h1102l-50 -288l-757 -741h637z" />
    <glyph glyph-name="bracketleft" unicode="[" horiz-adv-x="851" 
d="M488 -137h325l-47 -263h-690l345 1953h690l-47 -263h-325z" />
    <glyph glyph-name="backslash" unicode="\" horiz-adv-x="1146" 
d="M1061 -400h-358l-421 1929h359z" />
    <glyph glyph-name="bracketright" unicode="]" horiz-adv-x="851" 
d="M566 1290h-325l47 263h690l-345 -1953h-690l47 263h325z" />
    <glyph glyph-name="asciicircum" unicode="^" horiz-adv-x="1295" 
d="M519 510h-400l631 848h277l329 -848h-401l-139 429z" />
    <glyph glyph-name="underscore" unicode="_" horiz-adv-x="1148" 
d="M1078 -46l-46 -260h-1024l46 260h1024z" />
    <glyph glyph-name="grave" unicode="`" horiz-adv-x="847" 
d="M983 1473h-312l-228 334h432z" />
    <glyph glyph-name="a" unicode="a" horiz-adv-x="1119" 
d="M389 -20q-145 0 -221 81q-77 82 -55 208q16 93 89 163q70 67 164 99q93 30 193 30q93 0 162 -19v3q9 56 -25.5 89.5t-105.5 33.5q-117 0 -236 -95l-152 219q73 69 205 128q132 60 273 60q110 0 194 -25.5t143 -78t81 -139.5t2 -203l-94 -534h-354l17 98q-47 -57 -125 -88
q-78 -30 -155 -30zM468 291q-5 -29 15 -46.5t57 -17.5q55 0 96 34t50 86q-36 16 -94 16q-49 0 -83.5 -19.5t-40.5 -52.5z" />
    <glyph glyph-name="b" unicode="b" horiz-adv-x="1265" 
d="M508 0h-382l248 1408h384l-94 -534q112 106 282 106q189 0 287 -143q97 -142 59 -358q-37 -214 -185 -356q-149 -143 -338 -143q-169 0 -236 109zM659 610q-55 -49 -69 -130q-14 -80 24 -129q37 -49 112 -49q76 0 134 50q57 51 70 128q14 80 -25 130t-116 50
q-74 0 -130 -50z" />
    <glyph glyph-name="c" unicode="c" horiz-adv-x="1070" 
d="M577 -20q-229 0 -352 143q-123 142 -85 357q38 214 210 357q172 142 403 142q153 0 258.5 -64.5t146.5 -184.5l-312 -190q-34 118 -143 118q-69 0 -128 -50q-58 -51 -72 -128q-15 -81 26 -131q40 -49 115 -49q108 0 188 110l240 -192q-80 -110 -210 -174
q-129 -64 -285 -64z" />
    <glyph glyph-name="d" unicode="d" horiz-adv-x="1265" 
d="M488 -20q-123 -2 -212 64.5t-125 181.5t-10 253q39 216 187 358q149 143 337 143q171 0 244 -106l94 534h384l-248 -1408h-382l7 89q-109 -109 -276 -109zM505 480q-14 -79 24.5 -128.5t115.5 -49.5q75 0 131 50t69 128q14 80 -24 130t-113 50q-76 0 -132 -50
q-57 -50 -71 -130z" />
    <glyph glyph-name="e" unicode="e" horiz-adv-x="1092" 
d="M572 -20q-229 0 -349 141q-121 139 -82 361q37 213 202 357q163 141 384 141q96 0 179 -33t138 -91q56 -59 79 -144.5t6 -180.5q-10 -57 -37 -123h-605q-4 -64 40.5 -98t118.5 -34q126 0 217 102l187 -201q-55 -69 -188 -133q-131 -64 -290 -64zM678 700q-55 0 -101 -35
q-45 -33 -59 -83h271q8 47 -24 83q-32 35 -87 35z" />
    <glyph glyph-name="f" unicode="f" horiz-adv-x="782" 
d="M163 0l116 658h-146l53 302h145l13 74q34 201 194 310q124 84 320 84q112 0 222 -32l-92 -301q-53 29 -133 29q-63 0 -104.5 -27.5t-50.5 -84.5l-9 -52h249l-53 -302h-234l-116 -658h-374z" />
    <glyph glyph-name="g" unicode="g" horiz-adv-x="1265" 
d="M30 -235l237 232q89 -104 242 -104q89 0 166 47q75 46 87 117l6 32q-104 -89 -272 -89q-189 0 -287 140q-100 140 -62 349q38 213 185 351q149 140 337 140q167 0 237 -109l24 89h382l-161 -913q-26 -141 -117 -242t-222 -156q-162 -69 -346 -69q-162 0 -274 57t-162 128
zM510 490q-13 -75 26.5 -121.5t116.5 -46.5q75 0 129.5 46.5t67.5 121.5q14 76 -24.5 123t-113.5 47q-77 0 -133 -47q-55 -47 -69 -123z" />
    <glyph glyph-name="h" unicode="h" horiz-adv-x="1240" 
d="M510 0h-384l248 1408h384l-90 -514q112 86 288 86q152 0 232 -93q79 -92 53 -243l-114 -644h-384l93 530q9 51 -17.5 83t-78.5 32t-90 -32t-47 -83z" />
    <glyph glyph-name="i" unicode="i" horiz-adv-x="636" 
d="M679 960l-169 -960h-384l169 960h384zM497 1046q-94 0 -142 58q-47 58 -31 152q17 95 86 154q68 59 162 59t144 -59q48 -58 31 -154q-16 -93 -86 -152q-68 -58 -164 -58z" />
    <glyph glyph-name="j" unicode="j" horiz-adv-x="599" 
d="M7 -420q-147 0 -233 47l83 288q51 -23 115 -23q109 0 131 127l166 941h373l-172 -978q-21 -120 -85 -206.5t-154 -136.5q-108 -59 -224 -59zM493 1046q-94 0 -142 58q-47 58 -31 152q17 95 86 154q68 59 162 59t144 -59q48 -58 31 -154q-16 -93 -86 -152
q-68 -58 -164 -58z" />
    <glyph glyph-name="k" unicode="k" horiz-adv-x="1211" 
d="M561 286l-50 -286h-385l248 1408h385l-123 -701l279 253h470l-457 -397l303 -563h-456l-154 338z" />
    <glyph glyph-name="l" unicode="l" horiz-adv-x="636" 
d="M374 1408h384l-248 -1408h-384z" />
    <glyph glyph-name="m" unicode="m" horiz-adv-x="1847" 
d="M603 530l-93 -530h-384l169 960h345l-1 -92q113 112 320 112q89 0 163 -39q72 -38 92 -112q140 151 340 151q126 0 219 -75q49 -39 69.5 -107t5.5 -154l-114 -644h-383l93 530q9 51 -17.5 83t-78.5 32t-90 -32t-47 -83l-93 -530h-375l93 530q9 51 -17.5 83t-78.5 32
t-90 -32t-47 -83z" />
    <glyph glyph-name="n" unicode="n" horiz-adv-x="1240" 
d="M510 0h-384l169 960h350l-7 -92q52 52 136 82t182 30q152 0 232 -93q79 -92 53 -243l-114 -644h-384l93 530q9 51 -17.5 83t-78.5 32t-90 -32t-47 -83z" />
    <glyph glyph-name="o" unicode="o" horiz-adv-x="1168" 
d="M987 119q-170 -139 -407 -139t-358 139q-122 139 -82 361q39 222 210 362q171 138 407 138q235 0 358 -138q122 -140 83 -362q-40 -223 -211 -361zM572 610q-55 -49 -69 -130t23 -130q38 -50 111 -50t129 50q55 49 69 130t-23 130t-112 49t-128 -49z" />
    <glyph glyph-name="p" unicode="p" horiz-adv-x="1265" 
d="M525 86l-86 -486h-384l240 1360h382l-6 -89q106 109 275 109q190 0 287 -142t60 -357q-38 -216 -186 -358q-149 -143 -338 -143q-171 0 -244 106zM590 480q-14 -80 23.5 -130t112.5 -50q76 0 134 50q56 50 70 130t-25.5 129t-115.5 49q-75 0 -130 -49t-69 -129z" />
    <glyph glyph-name="q" unicode="q" horiz-adv-x="1261" 
d="M488 -20q-188 0 -286 143t-60 358t186 357t337 142q179 0 257 -109l24 89h362l-240 -1360h-384l86 486q-112 -106 -282 -106zM505 480q-14 -80 24.5 -130t115.5 -50q75 0 131 50q55 49 69 130q14 80 -24 129t-113 49q-78 0 -133 -49q-56 -49 -70 -129z" />
    <glyph glyph-name="r" unicode="r" horiz-adv-x="872" 
d="M586 431l-76 -431h-384l169 960h350l-9 -131q45 72 121 111.5t164 39.5q54 0 111 -18l-80 -322q-49 21 -109 21q-103 0 -170 -59.5t-87 -170.5z" />
    <glyph glyph-name="s" unicode="s" horiz-adv-x="986" 
d="M80 161l244 197q33 -46 91 -72.5t126 -26.5q39 0 63.5 11t28.5 30q5 12 -10.5 21t-46.5 19q-6 2 -28.5 8t-46 12.5t-39.5 11.5q-134 40 -205 112q-69 70 -49 187q24 133 153 222q127 87 303 87q254 0 366 -166l-233 -202q-26 38 -74 63.5t-94 25.5q-80 0 -86 -35
q-2 -14 10.5 -24t41.5 -19q11 -4 68 -22q8 -3 22 -7.5t21 -6.5q107 -35 172 -77q38 -25 62 -55q52 -65 36 -157q-26 -141 -164 -229q-140 -89 -318 -89q-291 0 -414 181z" />
    <glyph glyph-name="t" unicode="t" horiz-adv-x="849" 
d="M273 658h-144l53 302h143l55 308h361l-55 -308h284l-53 -302h-270l-40 -225q-12 -67 13.5 -97t86.5 -30q87 0 173 33l-33 -299q-46 -24 -128 -42q-83 -18 -161 -18q-71 0 -128 13t-104 41.5t-73.5 73.5t-37 110t6.5 151z" />
    <glyph glyph-name="u" unicode="u" horiz-adv-x="1240" 
d="M453 -20q-153 0 -232 93t-52 243l113 644h384l-93 -530q-9 -51 18 -83t79 -32t89.5 32t46.5 83l93 530h384l-169 -960h-350l7 92q-51 -52 -135 -82t-183 -30z" />
    <glyph glyph-name="v" unicode="v" horiz-adv-x="1155" 
d="M789 0h-423l-192 960h402l65 -595l276 595h402z" />
    <glyph glyph-name="w" unicode="w" horiz-adv-x="1612" 
d="M693 0h-407l-104 960h377l36 -565l253 541h246l62 -541l235 565h377l-442 -960h-407l-47 380z" />
    <glyph glyph-name="x" unicode="x" horiz-adv-x="1114" 
d="M412 0h-406l421 490l-259 470h429l92 -211l161 211h426l-417 -470l256 -490h-411l-105 240z" />
    <glyph glyph-name="y" unicode="y" horiz-adv-x="1153" 
d="M224 -420q-146 0 -234 54l104 281q55 -29 113 -29q66 0 113.5 28.5t81.5 95.5l-235 950h398l80 -572l281 572h398l-618 -1078q-88 -155 -204.5 -228.5t-277.5 -73.5z" />
    <glyph glyph-name="z" unicode="z" horiz-adv-x="941" 
d="M898 0h-841l41 230l450 424h-371l54 306h806l-40 -228l-454 -426h409z" />
    <glyph glyph-name="braceleft" unicode="{" horiz-adv-x="815" 
d="M177 423h-92l52 295h92q63 0 93 27.5t40 90.5l56 316q36 208 167 315.5t350 107.5q74 0 141 -10l-48 -271q-10 1 -38 1q-126 -4 -163.5 -36t-63.5 -158l-51 -289q-17 -94 -57 -146q-42 -53 -122 -95q67 -43 89 -97.5t5 -144.5l-45 -256q-23 -127 7 -173q30 -47 147 -47
q28 0 38 1l-47 -267q-70 -10 -143 -10q-219 0 -311.5 112t-55.5 324l52 292q11 63 -9 90.5t-83 27.5z" />
    <glyph glyph-name="bar" unicode="|" horiz-adv-x="625" 
d="M457 1758h331l-381 -2158h-331z" />
    <glyph glyph-name="braceright" unicode="}" horiz-adv-x="815" 
d="M-58 -413l47 267q10 -1 38 -1q119 0 166 50q25 27 39 64.5t27 105.5l45 256q16 92 59 147q40 52 121 95q-67 42 -89 95.5t-6 145.5l51 289q22 120 -8 158q-30 36 -151 36q-28 0 -38 -1l48 271q70 10 145 10q219 0 311 -107.5t56 -315.5l-56 -316q-10 -64 10.5 -91
t82.5 -27h92l-52 -295h-92q-63 0 -93 -27.5t-41 -90.5l-52 -292q-37 -212 -169 -324t-352 -112q-72 0 -139 10z" />
    <glyph glyph-name="asciitilde" unicode="~" horiz-adv-x="1420" 
d="M292 340l-123 257q111 109 232 175q124 67 236 67q67 0 128.5 -20t101.5 -48q97 -68 175 -68q77 0 145 35q67 35 152 108l121 -256q-111 -109 -232 -175q-125 -68 -236 -68q-67 0 -129 20t-102 48q-97 68 -174 68q-78 0 -145 -35q-66 -34 -150 -108z" />
    <glyph glyph-name="uni00A0" unicode="&#xa0;" horiz-adv-x="566" 
 />
    <glyph glyph-name="exclamdown" unicode="&#xa1;" horiz-adv-x="621" 
d="M434 -395h-396l229 897h256zM566 644q-68 -57 -153 -57t-132 57q-48 55 -34 139q15 83 83 140t152 57q85 0 133 -57t33 -140q-14 -83 -82 -139z" />
    <glyph glyph-name="cent" unicode="&#xa2;" horiz-adv-x="1129" 
d="M534 0l32 184q-200 23 -303 160t-68 336q35 198 186 336q151 137 360 160l29 165h131l-29 -165q129 -13 216.5 -76t124.5 -170l-312 -190q-24 82 -87 108l-60 -340q74 21 134 102l240 -192q-72 -99 -184.5 -160.5t-246.5 -74.5l-32 -183h-131zM625 516l57 325
q-48 -22 -81 -65t-43 -96q-10 -57 8.5 -100t58.5 -64z" />
    <glyph glyph-name="sterling" unicode="&#xa3;" horiz-adv-x="1263" 
d="M1205 318l-56 -319h-1087l45 257q96 47 143.5 100.5t57.5 120.5l22 131h-154l32 179h153l18 107q37 226 207 355q168 129 401 129q172 0 281.5 -80.5t145.5 -232.5l-302 -159q-43 157 -167 157q-72 0 -125 -47q-53 -46 -67 -120l-19 -109h297l-32 -179h-297l-16 -92
q-10 -57 -27 -100q-25 -58 -79 -98h625z" />
    <glyph glyph-name="currency" unicode="&#xa4;" horiz-adv-x="1274" 
d="M258 90l-141 171l200 170q-44 108 -22 231q21 122 99 225l-138 164l201 171l136 -165q119 62 240 62q124 0 222 -62l192 165l141 -171l-194 -164q43 -101 22 -225q-22 -128 -107 -231l140 -170l-201 -171l-141 174q-117 -57 -235 -57t-209 57zM593 662q-12 -66 27 -112
t105 -46q69 0 124 46q56 47 68 112q11 68 -28 115q-41 47 -108 47q-65 0 -121 -47q-57 -49 -67 -115z" />
    <glyph glyph-name="yen" unicode="&#xa5;" horiz-adv-x="1485" 
d="M580 635l-324 723h472l171 -515l355 515h454l-575 -723h173l-23 -130h-250l-19 -107h250l-23 -130h-250l-47 -268h-398l47 268h-254l23 130h254l19 107h-254l23 130h176z" />
    <glyph glyph-name="brokenbar" unicode="&#xa6;" horiz-adv-x="625" 
d="M457 1758h331l-150 -848h-331zM226 447h331l-150 -848h-331z" />
    <glyph glyph-name="section" unicode="&#xa7;" horiz-adv-x="1147" 
d="M530 -341q-185 0 -310 75t-170 218l284 174q80 -165 240 -165q57 0 101 22t52 61q12 35 -50 70q-4 3 -84 33q-13 4 -49 15q-98 31 -154 54q-59 24 -116 65q-117 79 -85 258q23 126 156 225q-82 91 -56 235q25 161 180.5 271t353.5 108q169 0 287 -72q118 -73 164 -194
l-285 -181q-70 145 -212 145q-54 0 -94 -20.5t-46 -55.5q-6 -38 27.5 -62t116.5 -50q222 -70 320 -151q99 -83 72 -238q-26 -145 -159 -227q83 -89 58 -231q-15 -90 -69 -165t-133 -122q-159 -95 -340 -95zM640 609q-59 20 -64 21q-43 -32 -50 -74q-6 -39 28 -63.5
t116 -50.5q49 -15 101 -33q51 34 58 79q7 41 -48 70q-40 21 -124 46q-3 1 -9 2.5t-8 2.5z" />
    <glyph glyph-name="dieresis" unicode="&#xa8;" horiz-adv-x="970" 
d="M941 1484q-73 0 -111.5 46t-25.5 120q14 77 68 122q55 46 128 46q75 0 113.5 -47t25.5 -121q-13 -73 -68.5 -119.5t-129.5 -46.5zM680 1530q-55 -46 -129 -46q-75 0 -112 46q-39 47 -26 120q14 77 68 122q55 46 129 46t113 -47q38 -48 25 -121q-14 -74 -68 -120z" />
    <glyph glyph-name="copyright" unicode="&#xa9;" horiz-adv-x="1624" 
d="M807 -20q-142 0 -266 53.5t-208 147.5q-83 92 -119 223q-37 128 -11 276q25 145 109 277q81 129 199 222q116 92 259 146q144 53 284 53q141 0 265.5 -53t209.5 -146q83 -90 121 -223q37 -128 11 -276q-34 -196 -165 -358t-313 -252q-185 -90 -376 -90zM299 680
q-30 -169 32 -312q61 -142 193 -222q130 -81 298 -81q166 0 327 81q160 81 273 224t143 310q28 168 -33 310q-62 141 -194 224q-132 81 -299 81t-326 -81q-160 -82 -272 -224q-114 -144 -142 -310zM529 678q28 168 164 282q136 113 311 113q104 0 182.5 -49.5t113.5 -137.5
l-78 -49q-69 148 -234 148q-134 0 -237 -88q-106 -89 -128 -219q-23 -128 50 -215q72 -88 204 -88q80 0 158 40t135 108l61 -49q-69 -88 -166 -136q-101 -51 -204 -51q-171 0 -266 113t-66 278z" />
    <glyph glyph-name="ordfeminine" unicode="&#xaa;" horiz-adv-x="791" 
d="M448 750q-95 0 -144 51t-34 133q14 83 92 134t190 51q72 0 118 -21l1 6q6 37 -22 61t-81 24q-87 0 -161 -65l-70 146q49 46 122 76q78 32 154 32q141 0 211 -64q71 -65 52 -174l-67 -378h-189l10 56q-31 -31 -80.5 -49.5t-101.5 -18.5zM795 655l-29 -165h-569l29 165h569
zM473 948q-4 -21 10.5 -33t41.5 -12q42 0 80 25t43 48q-27 21 -89 21q-77 0 -86 -49z" />
    <glyph glyph-name="guillemotleft" unicode="&#xab;" horiz-adv-x="1213" 
d="M828 86l-202 395l341 394h335l-323 -394l184 -395h-335zM354 86l-202 395l341 394h335l-323 -394l184 -395h-335z" />
    <glyph glyph-name="logicalnot" unicode="&#xac;" horiz-adv-x="1292" 
d="M1243 342h-386l59 332h-750l57 326h1136z" />
    <glyph glyph-name="uni00AD" unicode="&#xad;" horiz-adv-x="890" 
d="M218 668h690l-49 -274h-690z" />
    <glyph glyph-name="registered" unicode="&#xae;" horiz-adv-x="1224" 
d="M704 541q-224 0 -352 149q-127 148 -90 365q21 139 113.5 258.5t229 188.5t280.5 66q146 3 260 -66t165.5 -188.5t24.5 -258.5q-25 -141 -117 -260q-93 -119 -229 -186q-138 -68 -285 -68zM352 1055q-23 -116 19.5 -216t135.5 -158t212 -56q121 -2 236 56t193.5 158
t96.5 216q32 182 -76 308q-110 125 -298 125q-185 0 -336 -125q-151 -126 -183 -308zM646 805h-85l89 506h216q80 0 120.5 -42t27.5 -113q-10 -52 -42.5 -89t-80.5 -51l86 -211h-99l-75 197h-122zM694 1078h129q42 0 69.5 21t33.5 57q6 37 -13.5 58t-61.5 21h-129z" />
    <glyph glyph-name="macron" unicode="&#xaf;" horiz-adv-x="839" 
d="M427 1720h591l-41 -234h-591z" />
    <glyph glyph-name="degree" unicode="&#xb0;" horiz-adv-x="824" 
d="M530 678q-158 0 -240 96q-83 97 -55 250q29 158 144 255q116 98 274 98q161 0 244 -98q83 -97 54 -255q-28 -154 -144 -250q-117 -96 -277 -96zM528 1108q-35 -32 -44 -83t15 -82q24 -32 71 -32q50 0 86 31.5t45 82.5t-16.5 83t-74.5 32q-47 0 -82 -32z" />
    <glyph glyph-name="plusminus" unicode="&#xb1;" horiz-adv-x="1283" 
d="M527 431l54 307h-366l58 326h366l52 295h381l-52 -295h365l-58 -326h-365l-54 -307h-381zM1189 -22h-1100l55 313h1100z" />
    <glyph glyph-name="twosuperior" unicode="&#xb2;" horiz-adv-x="725" 
d="M809 534h-607l15 85q13 76 71 142t165 140q126 89 159 120q41 40 49 75q6 33 -14 52.5t-54 19.5q-82 0 -143 -106l-164 113q48 89 147 146t206 57q141 0 214 -73t52 -194q-18 -101 -107 -184q-49 -46 -79 -69q-43 -32 -96 -68q-25 -17 -53 -36.5t-29 -20.5h303z" />
    <glyph glyph-name="threesuperior" unicode="&#xb3;" horiz-adv-x="727" 
d="M470 514q-101 0 -177 52q-77 53 -95 131l181 112q0 -2 4 -10t13.5 -23t22.5 -28q33 -33 82 -33q39 0 69 22t36 55q6 35 -11 56.5t-51 21.5h-120l29 160h120q28 0 53 23t30 52q5 32 -15 53t-55 21q-90 0 -156 -100l-141 110q50 84 147 136q97 53 196 53q143 0 217 -70
t55 -184q-10 -57 -53 -104.5t-102 -67.5q55 -19 82 -71t16 -115q-19 -112 -124 -182q-103 -70 -253 -70z" />
    <glyph glyph-name="acute" unicode="&#xb4;" horiz-adv-x="847" 
d="M610 1807h432l-346 -334h-312z" />
    <glyph glyph-name="paragraph" unicode="&#xb6;" horiz-adv-x="1409" 
d="M657 382h-36q-110 0 -200.5 35.5t-149 99t-82.5 155t-5 198.5q39 215 212 352q172 136 397 136h775l-45 -260h-486l-265 -1498h-253zM1378 994l-246 -1394h-253l246 1394h253z" />
    <glyph glyph-name="periodcentered" unicode="&#xb7;" horiz-adv-x="583" 
d="M504 399q-68 -57 -153 -57t-132 57q-48 56 -33 139q13 82 82 140q68 57 153 57t133 -57q47 -57 33 -140q-15 -83 -83 -139z" />
    <glyph glyph-name="cedilla" unicode="&#xb8;" horiz-adv-x="680" 
d="M159 -481q-103 0 -165 30l33 182q51 -22 122 -22q113 0 123 54q5 26 -24 40.5t-86 14.5h-67l119 209h177l-48 -101q102 -15 149.5 -66.5t33.5 -132.5q-17 -96 -125.5 -153t-241.5 -55z" />
    <glyph glyph-name="onesuperior" unicode="&#xb9;" horiz-adv-x="526" 
d="M540 534h-234l110 625h-186l35 199h420z" />
    <glyph glyph-name="ordmasculine" unicode="&#xba;" horiz-adv-x="865" 
d="M559 728q-148 0 -223 89q-77 89 -51 232q26 146 133 237t256 91t225 -91q77 -92 51 -237q-26 -144 -133 -232q-110 -89 -258 -89zM860 646l-29 -166h-621l29 166h621zM512 1050q-8 -49 15 -79.5t69 -30.5q48 0 83 30.5t43 79.5q9 50 -15 80.5t-72 30.5q-46 0 -80 -31
t-43 -80z" />
    <glyph glyph-name="guillemotright" unicode="&#xbb;" horiz-adv-x="1213" 
d="M1231 480l-342 -394h-335l324 394l-185 395h335zM757 480l-342 -394h-335l324 394l-185 395h335z" />
    <glyph glyph-name="onequarter" unicode="&#xbc;" horiz-adv-x="1618" 
d="M1268 190h-370l25 142l429 492h255l-80 -453h111l-31 -181h-111l-34 -190h-228zM559 0h-227l5 26l968 1332h225l-4 -24zM464 1155h-186l35 199h420l-146 -824h-234zM1299 371l36 204l-178 -204h142z" />
    <glyph glyph-name="onehalf" unicode="&#xbd;" horiz-adv-x="1678" 
d="M1685 199l-35 -199h-607l15 85q13 76 71 142t165 140q126 89 159 120q41 40 49 75q6 33 -14 52.5t-54 19.5q-40 0 -78 -28t-65 -78l-164 113q48 89 147 146t206 57q141 0 214 -73t52 -194q-18 -101 -107 -184q-49 -46 -79 -69q-43 -32 -96 -68q-25 -17 -53 -36.5
t-29 -20.5h303zM559 0h-227l5 26l968 1332h225l-4 -24zM353 530l111 625h-186l35 199h420l-146 -824h-234z" />
    <glyph glyph-name="threequarters" unicode="&#xbe;" horiz-adv-x="1821" 
d="M497 520q-101 0 -177 52q-77 53 -95 131l181 112q0 -2 4 -10t13.5 -23t22.5 -28q33 -33 82 -33q39 0 69 22t36 55q6 35 -11 56.5t-51 21.5h-120l29 160h120q28 0 53 23t30 52q5 32 -15 53t-55 21q-89 0 -156 -100l-141 110q50 84 147 136q97 53 196 53q143 0 217 -70
t55 -184q-10 -57 -53 -105t-102 -67q55 -19 82 -71t16 -115q-19 -112 -124 -182q-103 -70 -253 -70zM1452 0l34 190h-370l25 142l429 492h255l-80 -453h111l-31 -181h-111l-34 -190h-228zM737 0h-227l5 26l968 1332h225l-4 -24zM1553 575l-178 -204h142z" />
    <glyph glyph-name="questiondown" unicode="&#xbf;" horiz-adv-x="1032" 
d="M391 -416q-199 0 -309 110t-79 287q11 61 38 115t68.5 100t77 77t87.5 70q53 40 80.5 62.5t56.5 56.5t36 63h292q1 -39 -6 -75q-14 -83 -63 -143.5t-124 -116.5q-8 -6 -45.5 -34t-48.5 -37.5t-33.5 -31t-32 -39t-12.5 -37.5q-8 -46 19 -72t81 -26q55 0 110 41.5t97 115.5
l278 -136q-90 -168 -238 -259t-330 -91zM751 646q-67 -57 -153 -57q-85 0 -133 57t-33 140q13 82 82 140q68 56 153 56t133 -56q47 -57 33 -140q-15 -84 -82 -140z" />
    <glyph glyph-name="Agrave" unicode="&#xc0;" horiz-adv-x="1487" 
d="M410 0h-426l761 1358h476l282 -1358h-426l-48 227h-491zM839 1473l-228 334h432l108 -334h-312zM992 528l-75 454l-236 -454h311z" />
    <glyph glyph-name="Aacute" unicode="&#xc1;" horiz-adv-x="1487" 
d="M538 227l-128 -227h-426l761 1358h476l282 -1358h-426l-48 227h-491zM1517 1807l-346 -334h-312l226 334h432zM992 528l-75 454l-236 -454h311z" />
    <glyph glyph-name="Acircumflex" unicode="&#xc2;" horiz-adv-x="1487" 
d="M538 227l-128 -227h-426l761 1358h476l282 -1358h-426l-48 227h-491zM898 1471h-311l353 370h257l221 -370h-312l-75 160zM992 528l-75 454l-236 -454h311z" />
    <glyph glyph-name="Atilde" unicode="&#xc3;" horiz-adv-x="1487" 
d="M410 0h-426l761 1358h476l282 -1358h-426l-48 227h-491zM737 1465l-117 127q155 230 328 230q74 0 136 -46t104 -46q60 0 143 77l116 -117q-74 -110 -164 -168.5t-171 -58.5q-62 0 -125 45q-62 44 -109 44q-58 0 -141 -87zM992 528l-75 454l-236 -454h311z" />
    <glyph glyph-name="Adieresis" unicode="&#xc4;" horiz-adv-x="1487" 
d="M538 227l-128 -227h-426l761 1358h476l282 -1358h-426l-48 227h-491zM939 1530q-55 -46 -129 -46q-75 0 -112 46q-39 47 -26 120q14 77 68 122q55 46 129 46t113 -47q38 -48 25 -121q-14 -74 -68 -120zM1200 1484q-73 0 -111.5 46t-25.5 120q14 77 68 122q55 46 128 46
q75 0 113.5 -47t25.5 -121q-13 -73 -68.5 -119.5t-129.5 -46.5zM917 982l-236 -454h311z" />
    <glyph glyph-name="Aring" unicode="&#xc5;" horiz-adv-x="1487" 
d="M538 227l-128 -227h-426l761 1358h476l282 -1358h-426l-48 227h-491zM1001 1462q-100 0 -154 65q-54 64 -37 163q16 99 95 165q77 66 177 66q98 0 154 -66q54 -65 37 -165q-16 -97 -95 -162q-78 -66 -177 -66zM992 528l-75 454l-236 -454h311zM1012 1729
q-19 -17 -23 -37.5t9 -37.5q13 -16 34 -16t39 16q40 37 14 75q-13 17 -34 17t-39 -17z" />
    <glyph glyph-name="AE" unicode="&#xc6;" horiz-adv-x="1976" 
d="M355 0h-425l981 1358h1233l-56 -320h-594l-33 -188h521l-56 -319h-521l-38 -212h604l-56 -319h-1002l40 227h-432zM1100 1062l-382 -534h288z" />
    <glyph glyph-name="Ccedilla" unicode="&#xc7;" horiz-adv-x="1421" 
d="M580 -182l96 169q-176 21 -301 117.5t-176.5 247.5t-17.5 329q34 197 155 357q119 158 303 250q183 90 394 90q190 0 333 -92q142 -93 198 -248l-325 -201q-68 192 -268 192q-148 0 -253 -96q-104 -95 -133 -252q-27 -156 46 -253q72 -99 217 -99q207 0 354 194l250 -199
q-90 -135 -255 -230q-163 -94 -342 -111l-27 -57q102 -15 149.5 -66.5t33.5 -132.5q-17 -96 -125.5 -153t-241.5 -55q-104 0 -165 30l33 182q51 -22 122 -22q112 0 123 54q5 26 -24 40.5t-86 14.5h-67z" />
    <glyph glyph-name="Egrave" unicode="&#xc8;" horiz-adv-x="1213" 
d="M604 319h604l-56 -319h-1002l239 1358h992l-56 -320h-594l-33 -188h521l-56 -319h-521zM1094 1473h-312l-228 334h432z" />
    <glyph glyph-name="Eacute" unicode="&#xc9;" horiz-adv-x="1213" 
d="M604 319h604l-56 -319h-1002l239 1358h992l-56 -320h-594l-33 -188h521l-56 -319h-521zM960 1807h432l-346 -334h-312z" />
    <glyph glyph-name="Ecircumflex" unicode="&#xca;" horiz-adv-x="1213" 
d="M1152 0h-1002l239 1358h992l-56 -320h-594l-33 -188h521l-56 -319h-521l-38 -212h604zM937 1631l-133 -160h-311l353 370h257l221 -370h-312z" />
    <glyph glyph-name="Edieresis" unicode="&#xcb;" horiz-adv-x="1213" 
d="M1152 0h-1002l239 1358h992l-56 -320h-594l-33 -188h521l-56 -319h-521l-38 -212h604zM1117 1484q-73 0 -111.5 46t-25.5 120q14 77 68 122q55 46 128 46q75 0 113.5 -47t25.5 -121q-13 -73 -68.5 -119.5t-129.5 -46.5zM856 1530q-55 -46 -129 -46q-75 0 -112 46
q-39 47 -26 120q14 77 68 122q55 46 129 46t113 -47q38 -48 25 -121q-14 -74 -68 -120z" />
    <glyph glyph-name="Igrave" unicode="&#xcc;" horiz-adv-x="699" 
d="M389 1358h399l-239 -1358h-399zM766 1473h-312l-228 334h432z" />
    <glyph glyph-name="Iacute" unicode="&#xcd;" horiz-adv-x="699" 
d="M389 1358h399l-239 -1358h-399zM680 1807h432l-346 -334h-312z" />
    <glyph glyph-name="Icircumflex" unicode="&#xce;" horiz-adv-x="699" 
d="M788 1358l-239 -1358h-399l239 1358h399zM504 1471h-311l353 370h257l221 -370h-312l-75 160z" />
    <glyph glyph-name="Idieresis" unicode="&#xcf;" horiz-adv-x="699" 
d="M788 1358l-239 -1358h-399l239 1358h399zM805 1484q-73 0 -111.5 46t-25.5 120q14 77 68 122q55 46 128 46q75 0 113.5 -47t25.5 -121q-13 -73 -68.5 -119.5t-129.5 -46.5zM544 1530q-55 -46 -129 -46q-75 0 -112 46q-39 47 -26 120q14 77 68 122q55 46 129 46t113 -47
q38 -48 25 -121q-14 -74 -68 -120z" />
    <glyph glyph-name="Eth" unicode="&#xd0;" horiz-adv-x="1607" 
d="M201 0l106 605h-133l32 184h134l100 569h598q139 0 258.5 -52.5t197.5 -144.5t109.5 -218t7.5 -263t-101 -264q-75 -124 -185 -217q-109 -91 -247 -145t-279 -54h-598zM985 789l-32 -184h-247l-50 -285h175q134 0 243 107q108 108 133 253q29 143 -42.5 251t-203.5 106
h-178l-44 -248h246z" />
    <glyph glyph-name="Ntilde" unicode="&#xd1;" horiz-adv-x="1592" 
d="M538 0h-388l239 1358h325l452 -725l127 725h388l-239 -1358h-311l-465 727zM789 1465l-117 127q155 230 328 230q74 0 136 -46t104 -46q60 0 143 77l116 -117q-74 -110 -164 -168.5t-171 -58.5q-62 0 -125 45q-62 44 -109 44q-58 0 -141 -87z" />
    <glyph glyph-name="Ograve" unicode="&#xd2;" horiz-adv-x="1560" 
d="M779 -20q-153 -2 -278.5 50.5t-205 145t-111 224t-2.5 281.5q55 307 292 502q236 195 552 195q152 0 276 -51t203 -143q79 -93 109.5 -223.5t3.5 -280.5q-36 -203 -156 -364q-119 -159 -298 -248q-177 -88 -385 -88zM587 680q-27 -154 44 -249q71 -96 213 -96
q139 0 241 96q102 95 129 249q27 151 -41 246q-69 94 -208 94q-143 0 -246 -94q-105 -94 -132 -246zM902 1473l-228 334h432l108 -334h-312z" />
    <glyph glyph-name="Oacute" unicode="&#xd3;" horiz-adv-x="1560" 
d="M779 -20q-153 -2 -278.5 50.5t-205 145t-111 224t-2.5 281.5q55 307 292 502q236 195 552 195q152 0 276 -51t203 -143q79 -93 109.5 -223.5t3.5 -280.5q-36 -203 -156 -364q-119 -159 -298 -248q-177 -88 -385 -88zM587 680q-27 -154 44 -249q71 -96 213 -96
q139 0 241 96q102 95 129 249q27 151 -41 246q-69 94 -208 94q-143 0 -246 -94q-105 -94 -132 -246zM1225 1473h-312l226 334h432z" />
    <glyph glyph-name="Ocircumflex" unicode="&#xd4;" horiz-adv-x="1560" 
d="M779 -20q-153 -2 -278.5 50.5t-205 145t-111 224t-2.5 281.5q55 307 292 502q236 195 552 195q152 0 276 -51t203 -143q79 -93 109.5 -223.5t3.5 -280.5q-36 -203 -156 -364q-119 -159 -298 -248q-177 -88 -385 -88zM587 680q-27 -154 44 -249q71 -96 213 -96
q139 0 241 96q102 95 129 249q27 151 -41 246q-69 94 -208 94q-143 0 -246 -94q-105 -94 -132 -246zM935 1471h-311l353 370h257l221 -370h-312l-75 160z" />
    <glyph glyph-name="Otilde" unicode="&#xd5;" horiz-adv-x="1560" 
d="M779 -20q-153 -2 -278.5 50.5t-205 145t-111 224t-2.5 281.5q55 307 292 502q236 195 552 195q152 0 276 -51t203 -143q79 -93 109.5 -223.5t3.5 -280.5q-36 -203 -156 -364q-119 -159 -298 -248q-177 -88 -385 -88zM587 680q-27 -154 44 -249q71 -96 213 -96
q139 0 241 96q102 95 129 249q27 151 -41 246q-69 94 -208 94q-143 0 -246 -94q-105 -94 -132 -246zM773 1465l-117 127q155 230 328 230q74 0 136 -46t104 -46q60 0 143 77l116 -117q-74 -110 -164 -168.5t-171 -58.5q-62 0 -125 45q-62 44 -109 44q-58 0 -141 -87z" />
    <glyph glyph-name="Odieresis" unicode="&#xd6;" horiz-adv-x="1560" 
d="M779 -20q-153 -2 -278.5 50.5t-205 145t-111 224t-2.5 281.5q55 307 292 502q236 195 552 195q152 0 276 -51t203 -143q79 -93 109.5 -223.5t3.5 -280.5q-36 -203 -156 -364q-119 -159 -298 -248q-177 -88 -385 -88zM587 680q-27 -154 44 -249q71 -96 213 -96
q139 0 241 96q102 95 129 249q27 151 -41 246q-69 94 -208 94q-143 0 -246 -94q-105 -94 -132 -246zM1236 1484q-73 0 -111.5 46t-25.5 120q14 77 68 122q55 46 128 46q75 0 113.5 -47t25.5 -121q-13 -73 -68.5 -119.5t-129.5 -46.5zM975 1530q-55 -46 -129 -46
q-75 0 -112 46q-39 47 -26 120q14 77 68 122q55 46 129 46t113 -47q38 -48 25 -121q-14 -74 -68 -120z" />
    <glyph glyph-name="multiply" unicode="&#xd7;" horiz-adv-x="1244" 
d="M333 126l-201 245l369 312q-31 38 -134 162q-93 109 -126 150l289 246l256 -306l364 306l202 -246l-372 -312l263 -312l-290 -245l-256 306z" />
    <glyph glyph-name="Oslash" unicode="&#xd8;" horiz-adv-x="1560" 
d="M194 -25l140 161q-102 96 -142 236t-10 309q55 307 292 502q236 195 552 195q187 0 327 -74l139 160l113 -88l-136 -155q101 -94 140 -234t9 -307q-36 -203 -156 -364q-119 -159 -298 -248q-177 -88 -385 -88q-189 0 -329 74l-147 -168zM614 457l470 539q-51 24 -119 24
q-143 0 -246 -94q-105 -94 -132 -246q-24 -131 27 -223zM1189 900l-471 -539q57 -26 126 -26q139 0 241 96q102 95 129 249q24 129 -25 220z" />
    <glyph glyph-name="Ugrave" unicode="&#xd9;" horiz-adv-x="1451" 
d="M721 -20q-269 0 -406 131t-92 386l151 861h399l-146 -832q-18 -99 25 -152.5t129 -53.5q87 0 149 53.5t80 152.5l146 832h399l-151 -861q-29 -168 -125.5 -287t-239.5 -175q-140 -55 -318 -55zM833 1473l-228 334h432l108 -334h-312z" />
    <glyph glyph-name="Uacute" unicode="&#xda;" horiz-adv-x="1451" 
d="M721 -20q-269 0 -406 131t-92 386l151 861h399l-146 -832q-18 -99 25 -152.5t129 -53.5q87 0 149 53.5t80 152.5l146 832h399l-151 -861q-29 -168 -125.5 -287t-239.5 -175q-140 -55 -318 -55zM1495 1807l-346 -334h-312l226 334h432z" />
    <glyph glyph-name="Ucircumflex" unicode="&#xdb;" horiz-adv-x="1451" 
d="M721 -20q-269 0 -406 131t-92 386l151 861h399l-146 -832q-18 -99 25 -152.5t129 -53.5q87 0 149 53.5t80 152.5l146 832h399l-151 -861q-29 -168 -125.5 -287t-239.5 -175q-140 -55 -318 -55zM880 1471h-311l353 370h257l221 -370h-312l-75 160z" />
    <glyph glyph-name="Udieresis" unicode="&#xdc;" horiz-adv-x="1451" 
d="M721 -20q-269 0 -406 131t-92 386l151 861h399l-146 -832q-18 -99 25 -152.5t129 -53.5q87 0 149 53.5t80 152.5l146 832h399l-151 -861q-29 -168 -125.5 -287t-239.5 -175q-140 -55 -318 -55zM1182 1484q-73 0 -111.5 46t-25.5 120q14 77 68 122q55 46 128 46
q75 0 113.5 -47t25.5 -121q-13 -73 -68.5 -119.5t-129.5 -46.5zM921 1530q-55 -46 -129 -46q-75 0 -112 46q-39 47 -26 120q14 77 68 122q55 46 129 46t113 -47q38 -48 25 -121q-14 -74 -68 -120z" />
    <glyph glyph-name="Yacute" unicode="&#xdd;" horiz-adv-x="1430" 
d="M518 0l90 510l-380 848h472l171 -515l355 515h454l-674 -848l-90 -510h-398zM1128 1473h-312l226 334h432z" />
    <glyph glyph-name="Thorn" unicode="&#xde;" horiz-adv-x="1434" 
d="M549 0h-399l239 1358h399l-32 -182h288q162 0 273 -64t153 -176q41 -110 17 -249q-36 -211 -200 -356q-79 -70 -187.5 -109t-230.5 -39h-288zM918 847h-220l-59 -336h220q90 0 148.5 44t73.5 124q29 168 -163 168z" />
    <glyph glyph-name="germandbls" unicode="&#xdf;" horiz-adv-x="1401" 
d="M500 0h-374l166 940q40 229 215 359q175 129 429 129q246 0 380 -113q133 -113 101 -293q-18 -99 -89 -173q-72 -73 -150 -102q109 -25 181 -113q38 -46 53 -116.5t0 -151.5q-30 -166 -171 -276q-142 -110 -336 -110q-112 0 -200 37t-133 100l231 243q48 -60 114 -60
q51 0 88 31t45 80q13 70 -38 108t-153 38q-69 0 -115 -9l47 271q99 2 155 41.5t68 104.5q11 59 -26 94t-109 35q-83 0 -142.5 -47t-74.5 -131z" />
    <glyph glyph-name="agrave" unicode="&#xe0;" horiz-adv-x="1119" 
d="M389 -20q-145 0 -221 81q-77 82 -55 208q16 93 89 163q70 67 164 99q93 30 193 30q93 0 162 -19v3q9 56 -25.5 89.5t-105.5 33.5q-117 0 -236 -95l-152 219q73 69 205 128q132 60 273 60q110 0 194 -25.5t143 -78t81 -139.5t2 -203l-94 -534h-354l17 98q-47 -57 -125 -88
q-78 -30 -155 -30zM580 1121l-228 334h432l108 -334h-312zM468 291q-5 -29 15 -46.5t57 -17.5q55 0 96 34t50 86q-36 16 -94 16q-49 0 -83.5 -19.5t-40.5 -52.5z" />
    <glyph glyph-name="aacute" unicode="&#xe1;" horiz-adv-x="1119" 
d="M389 -20q-145 0 -221 81q-77 82 -55 208q16 93 89 163q70 67 164 99q93 30 193 30q93 0 162 -19v3q9 56 -25.5 89.5t-105.5 33.5q-117 0 -236 -95l-152 219q73 69 205 128q132 60 273 60q110 0 194 -25.5t143 -78t81 -139.5t2 -203l-94 -534h-354l17 98q-47 -57 -125 -88
q-78 -30 -155 -30zM1253 1447l-346 -334h-312l226 334h432zM468 291q-5 -29 15 -46.5t57 -17.5q55 0 96 34t50 86q-36 16 -94 16q-49 0 -83.5 -19.5t-40.5 -52.5z" />
    <glyph glyph-name="acircumflex" unicode="&#xe2;" horiz-adv-x="1119" 
d="M389 -20q-145 0 -221 81q-77 82 -55 208q16 93 89 163q70 67 164 99q93 30 193 30q93 0 162 -19v3q9 56 -25.5 89.5t-105.5 33.5q-117 0 -236 -95l-152 219q73 69 205 128q132 60 273 60q110 0 194 -25.5t143 -78t81 -139.5t2 -203l-94 -534h-354l17 98q-47 -57 -125 -88
q-78 -30 -155 -30zM755 1244l-132 -160h-311l352 370h257l222 -370h-312zM468 291q-5 -29 15 -46.5t57 -17.5q55 0 96 34t50 86q-36 16 -94 16q-49 0 -83.5 -19.5t-40.5 -52.5z" />
    <glyph glyph-name="atilde" unicode="&#xe3;" horiz-adv-x="1119" 
d="M389 -20q-145 0 -221 81q-77 82 -55 208q16 93 89 163q70 67 164 99q93 30 193 30q93 0 162 -19v3q9 56 -25.5 89.5t-105.5 33.5q-117 0 -236 -95l-152 219q73 69 205 128q132 60 273 60q110 0 194 -25.5t143 -78t81 -139.5t2 -203l-94 -534h-354l17 98q-47 -57 -125 -88
q-78 -30 -155 -30zM470 1105l-118 127q156 230 329 230q74 0 136 -46t104 -46q59 0 142 77l117 -117q-76 -116 -168 -171q-92 -56 -168 -56q-62 0 -125 45q-62 44 -109 44q-60 0 -140 -87zM468 291q-5 -29 15 -46.5t57 -17.5q55 0 96 34t50 86q-36 16 -94 16
q-49 0 -83.5 -19.5t-40.5 -52.5z" />
    <glyph glyph-name="adieresis" unicode="&#xe4;" horiz-adv-x="1119" 
d="M389 -20q-145 0 -221 81q-77 82 -55 208q16 93 89 163q70 67 164 99q93 30 193 30q93 0 162 -19v3q9 56 -25.5 89.5t-105.5 33.5q-117 0 -236 -95l-152 219q73 69 205 128q132 60 273 60q110 0 194 -25.5t143 -78t81 -139.5t2 -203l-94 -534h-354l17 98q-47 -57 -125 -88
q-78 -30 -155 -30zM663 1193q-55 -46 -130 -46t-112 46q-38 48 -25 120q14 77 68 122q53 46 128 46q74 0 113 -47q40 -47 26 -121t-68 -120zM923 1147q-73 0 -111 46t-25 120q14 77 68 122q53 46 127 46q75 0 114 -47t26 -121q-14 -74 -68 -120q-55 -46 -131 -46zM468 291
q-5 -29 15 -46.5t57 -17.5q55 0 96 34t50 86q-36 16 -94 16q-49 0 -83.5 -19.5t-40.5 -52.5z" />
    <glyph glyph-name="aring" unicode="&#xe5;" horiz-adv-x="1119" 
d="M389 -20q-145 0 -221 81q-77 82 -55 208q16 93 89 163q70 67 164 99q93 30 193 30q93 0 162 -19v3q9 56 -25.5 89.5t-105.5 33.5q-117 0 -236 -95l-152 219q73 69 205 128q132 60 273 60q110 0 194 -25.5t143 -78t81 -139.5t2 -203l-94 -534h-354l17 98q-47 -57 -125 -88
q-78 -30 -155 -30zM736 1060q-100 0 -154 65q-54 64 -37 163q16 99 95 165q76 66 177 66q99 0 154 -66q54 -65 37 -165q-16 -97 -95 -162q-78 -66 -177 -66zM468 291q-5 -29 15 -46.5t57 -17.5q55 0 96 34t50 86q-36 16 -94 16q-49 0 -83.5 -19.5t-40.5 -52.5zM724 1289
q-3 -21 9.5 -37.5t33.5 -16.5t39.5 16.5t21.5 37.5q4 21 -8.5 38t-33.5 17t-39.5 -17t-22.5 -38z" />
    <glyph glyph-name="ae" unicode="&#xe6;" horiz-adv-x="1634" 
d="M450 -20q-172 0 -265 81t-71 208q16 93 89 163q70 67 164 99q93 30 193 30q93 0 162 -19v3q9 56 -25.5 89.5t-105.5 33.5q-117 0 -236 -95l-152 219q73 69 205 128q132 60 273 60q190 0 271 -119q145 119 326 119q94 0 174.5 -32.5t135.5 -91.5t77 -144t5 -181
q-10 -57 -37 -123h-585q-4 -64 37.5 -98t111.5 -34q120 0 213 95l181 -194q-55 -70 -184 -133q-129 -64 -284 -64q-208 0 -318 140q-146 -140 -355 -140zM1079 582h251q8 47 -21 83q-29 35 -80 35q-53 0 -94 -34q-42 -33 -56 -84zM471 300q-5 -29 15 -46.5t57 -17.5
q55 0 96 34t50 86q-36 16 -94 16q-49 0 -83.5 -19.5t-40.5 -52.5z" />
    <glyph glyph-name="ccedilla" unicode="&#xe7;" horiz-adv-x="1070" 
d="M365 -182l98 173q-178 34 -266 169q-89 135 -57 320q38 214 210 357q172 142 403 142q153 0 258.5 -64.5t146.5 -184.5l-312 -190q-34 118 -143 118q-69 0 -128 -50q-58 -51 -72 -128q-15 -81 26 -131q40 -49 115 -49q108 0 188 110l240 -192q-72 -99 -185 -160.5
t-247 -74.5l-27 -57q102 -15 149.5 -66.5t33.5 -132.5q-17 -96 -125.5 -153t-241.5 -55q-103 0 -165 30l33 182q51 -22 122 -22q113 0 123 54q5 26 -24 40.5t-86 14.5h-67z" />
    <glyph glyph-name="egrave" unicode="&#xe8;" horiz-adv-x="1092" 
d="M572 -20q-229 0 -349 141q-121 139 -82 361q37 213 202 357q163 141 384 141q96 0 179 -33t138 -91q56 -59 79 -144.5t6 -180.5q-10 -57 -37 -123h-605q-4 -64 40.5 -98t118.5 -34q126 0 217 102l187 -201q-55 -69 -188 -133q-131 -64 -290 -64zM918 1121h-312l-228 334
h432zM518 582h271q8 47 -24 83q-32 35 -87 35t-101 -35q-45 -33 -59 -83z" />
    <glyph glyph-name="eacute" unicode="&#xe9;" horiz-adv-x="1092" 
d="M572 -20q-229 0 -349 141q-121 139 -82 361q37 213 202 357q163 141 384 141q96 0 179 -33t138 -91q56 -59 79 -144.5t6 -180.5q-10 -57 -37 -123h-605q-4 -64 40.5 -98t118.5 -34q126 0 217 102l187 -201q-55 -69 -188 -133q-131 -64 -290 -64zM1269 1447l-346 -334
h-312l226 334h432zM518 582h271q8 47 -24 83q-32 35 -87 35t-101 -35q-45 -33 -59 -83z" />
    <glyph glyph-name="ecircumflex" unicode="&#xea;" horiz-adv-x="1092" 
d="M572 -20q-229 0 -349 141q-121 139 -82 361q37 213 202 357q163 141 384 141q96 0 179 -33t138 -91q56 -59 79 -144.5t6 -180.5q-10 -57 -37 -123h-605q-4 -64 40.5 -98t118.5 -34q126 0 217 102l187 -201q-55 -69 -188 -133q-131 -64 -290 -64zM765 1244l-132 -160h-311
l352 370h257l222 -370h-312zM518 582h271q8 47 -24 83q-32 35 -87 35t-101 -35q-45 -33 -59 -83z" />
    <glyph glyph-name="edieresis" unicode="&#xeb;" horiz-adv-x="1092" 
d="M572 -20q-229 0 -349 141q-121 139 -82 361q37 213 202 357q163 141 384 141q96 0 179 -33t138 -91q56 -59 79 -144.5t6 -180.5q-10 -57 -37 -123h-605q-4 -64 40.5 -98t118.5 -34q126 0 217 102l187 -201q-55 -69 -188 -133q-131 -64 -290 -64zM682 1193
q-55 -46 -130 -46t-112 46q-38 48 -25 120q14 77 68 122q53 46 128 46q74 0 113 -47q40 -47 26 -121t-68 -120zM942 1147q-73 0 -111 46t-25 120q14 77 68 122q53 46 127 46q75 0 114 -47t26 -121q-14 -74 -68 -120q-55 -46 -131 -46zM678 700q-55 0 -101 -35
q-45 -33 -59 -83h271q8 47 -24 83q-32 35 -87 35z" />
    <glyph glyph-name="igrave" unicode="&#xec;" horiz-adv-x="636" 
d="M679 960l-169 -960h-384l169 960h384zM668 1121h-312l-228 334h432z" />
    <glyph glyph-name="iacute" unicode="&#xed;" horiz-adv-x="636" 
d="M679 960l-169 -960h-384l169 960h384zM587 1447h432l-346 -334h-312z" />
    <glyph glyph-name="icircumflex" unicode="&#xee;" horiz-adv-x="636" 
d="M679 960l-169 -960h-384l169 960h384zM404 1084h-311l352 370h257l222 -370h-312l-76 160z" />
    <glyph glyph-name="idieresis" unicode="&#xef;" horiz-adv-x="636" 
d="M679 960l-169 -960h-384l169 960h384zM714 1147q-73 0 -111 46t-25 120q14 77 68 122q53 46 127 46q75 0 114 -47t26 -121q-14 -74 -68 -120q-55 -46 -131 -46zM454 1193q-55 -46 -130 -46t-112 46q-38 48 -25 120q14 77 68 122q53 46 128 46q74 0 113 -47
q40 -47 26 -121t-68 -120z" />
    <glyph glyph-name="eth" unicode="&#xf0;" horiz-adv-x="1194" 
d="M590 -20q-238 0 -363 134t-88 347q36 205 187 332q149 127 356 127q77 0 134.5 -26.5t73.5 -69.5q0 66 -48.5 135t-136.5 129l-220 -144l-73 136l139 91q-64 28 -143 51l223 258q131 -39 235 -103l194 128l69 -137l-132 -87q144 -133 203 -316.5t19 -411.5
q-46 -259 -214 -416q-169 -157 -415 -157zM507 461q-13 -72 24.5 -116.5t110.5 -44.5t126 44.5t66 116.5q13 73 -24.5 118t-110.5 45t-126 -45t-66 -118z" />
    <glyph glyph-name="ntilde" unicode="&#xf1;" horiz-adv-x="1240" 
d="M603 530l-93 -530h-384l169 960h350l-7 -92q52 52 136 82t182 30q152 0 232 -93q79 -92 53 -243l-114 -644h-384l93 530q9 51 -17.5 83t-78.5 32t-90 -32t-47 -83zM560 1105l-118 127q156 230 329 230q74 0 136 -46t104 -46q59 0 142 77l117 -117q-76 -116 -168 -171
q-92 -56 -168 -56q-62 0 -125 45q-62 44 -109 44q-60 0 -140 -87z" />
    <glyph glyph-name="ograve" unicode="&#xf2;" horiz-adv-x="1168" 
d="M987 119q-170 -139 -407 -139t-358 139q-122 139 -82 361q39 222 210 362q171 138 407 138q235 0 358 -138q122 -140 83 -362q-40 -223 -211 -361zM640 1121l-228 334h432l108 -334h-312zM572 610q-55 -49 -69 -130t23 -130q38 -50 111 -50t129 50q55 49 69 130t-23 130
t-112 49t-128 -49z" />
    <glyph glyph-name="oacute" unicode="&#xf3;" horiz-adv-x="1168" 
d="M987 119q-170 -139 -407 -139t-358 139q-122 139 -82 361q39 222 210 362q171 138 407 138q235 0 358 -138q122 -140 83 -362q-40 -223 -211 -361zM963 1113h-312l226 334h432zM572 610q-55 -49 -69 -130t23 -130q38 -50 111 -50t129 50q55 49 69 130t-23 130t-112 49
t-128 -49z" />
    <glyph glyph-name="ocircumflex" unicode="&#xf4;" horiz-adv-x="1168" 
d="M987 119q-170 -139 -407 -139t-358 139q-122 139 -82 361q39 222 210 362q171 138 407 138q235 0 358 -138q122 -140 83 -362q-40 -223 -211 -361zM671 1084h-311l352 370h257l222 -370h-312l-76 160zM572 610q-55 -49 -69 -130t23 -130q38 -50 111 -50t129 50
q55 49 69 130t-23 130t-112 49t-128 -49z" />
    <glyph glyph-name="otilde" unicode="&#xf5;" horiz-adv-x="1168" 
d="M987 119q-170 -139 -407 -139t-358 139q-122 139 -82 361q39 222 210 362q171 138 407 138q235 0 358 -138q122 -140 83 -362q-40 -223 -211 -361zM514 1105l-118 127q156 230 329 230q74 0 136 -46t104 -46q59 0 142 77l117 -117q-76 -116 -168 -171q-92 -56 -168 -56
q-62 0 -125 45q-62 44 -109 44q-60 0 -140 -87zM572 610q-55 -49 -69 -130t23 -130q38 -50 111 -50t129 50q55 49 69 130t-23 130t-112 49t-128 -49z" />
    <glyph glyph-name="odieresis" unicode="&#xf6;" horiz-adv-x="1168" 
d="M987 119q-170 -139 -407 -139t-358 139q-122 139 -82 361q39 222 210 362q171 138 407 138q235 0 358 -138q122 -140 83 -362q-40 -223 -211 -361zM572 610q-55 -49 -69 -130t23 -130q38 -50 111 -50t129 50q55 49 69 130t-23 130t-112 49t-128 -49zM980 1147
q-73 0 -111 46t-25 120q14 77 68 122q53 46 127 46q75 0 114 -47t26 -121q-14 -74 -68 -120q-55 -46 -131 -46zM720 1193q-55 -46 -130 -46t-112 46q-38 48 -25 120q14 77 68 122q53 46 128 46q74 0 113 -47q40 -47 26 -121t-68 -120z" />
    <glyph glyph-name="divide" unicode="&#xf7;" horiz-adv-x="1283" 
d="M1290 538h-1107l50 283h1107zM954 960q-68 -57 -153 -57t-132 57q-48 56 -33 139q13 82 82 140q68 57 153 57t133 -57q47 -57 33 -140q-15 -83 -83 -139zM806 121q-68 -57 -153 -57t-132 57q-48 56 -33 139q13 82 82 140q68 57 153 57t133 -57q47 -57 33 -140
q-15 -83 -83 -139z" />
    <glyph glyph-name="oslash" unicode="&#xf8;" horiz-adv-x="1168" 
d="M1017 919l181 183l89 -85l-173 -175q123 -139 84 -362q-40 -223 -211 -361q-170 -139 -407 -139q-151 0 -261 61l-181 -183l-88 83l174 176q-124 139 -84 363q39 222 210 362q171 138 407 138q154 0 260 -61zM834 560l-250 -252q27 -8 53 -8q73 0 129 50q55 49 69 130
q7 38 -1 80zM503 400l249 251q-26 8 -52 8q-75 0 -128 -49q-55 -49 -69 -130q-8 -45 0 -80z" />
    <glyph glyph-name="ugrave" unicode="&#xf9;" horiz-adv-x="1240" 
d="M453 -20q-153 0 -232 93t-52 243l113 644h384l-93 -530q-9 -51 18 -83t79 -32t89.5 32t46.5 83l93 530h384l-169 -960h-350l7 92q-51 -52 -135 -82t-183 -30zM1002 1121h-312l-228 334h432z" />
    <glyph glyph-name="uacute" unicode="&#xfa;" horiz-adv-x="1240" 
d="M453 -20q-153 0 -232 93t-52 243l113 644h384l-93 -530q-9 -51 18 -83t79 -32t89.5 32t46.5 83l93 530h384l-169 -960h-350l7 92q-51 -52 -135 -82t-183 -30zM973 1113h-312l226 334h432z" />
    <glyph glyph-name="ucircumflex" unicode="&#xfb;" horiz-adv-x="1240" 
d="M453 -20q-153 0 -232 93t-52 243l113 644h384l-93 -530q-9 -51 18 -83t79 -32t89.5 32t46.5 83l93 530h384l-169 -960h-350l7 92q-51 -52 -135 -82t-183 -30zM709 1084h-311l352 370h257l222 -370h-312l-76 160z" />
    <glyph glyph-name="udieresis" unicode="&#xfc;" horiz-adv-x="1240" 
d="M453 -20q-153 0 -232 93t-52 243l113 644h384l-93 -530q-9 -51 18 -83t79 -32t89.5 32t46.5 83l93 530h384l-169 -960h-350l7 92q-51 -52 -135 -82t-183 -30zM1016 1147q-73 0 -111 46t-25 120q14 77 68 122q53 46 127 46q75 0 114 -47t26 -121q-14 -74 -68 -120
q-55 -46 -131 -46zM756 1193q-55 -46 -130 -46t-112 46q-38 48 -25 120q14 77 68 122q53 46 128 46q74 0 113 -47q40 -47 26 -121t-68 -120z" />
    <glyph glyph-name="yacute" unicode="&#xfd;" horiz-adv-x="1153" 
d="M224 -420q-146 0 -234 54l104 281q55 -29 113 -29q66 0 113.5 28.5t81.5 95.5l-235 950h398l80 -572l281 572h398l-618 -1078q-88 -155 -204.5 -228.5t-277.5 -73.5zM962 1113h-312l226 334h432z" />
    <glyph glyph-name="thorn" unicode="&#xfe;" horiz-adv-x="1265" 
d="M525 86l-86 -486h-384l319 1808h384l-96 -546l9 9q106 109 275 109q190 0 287 -142t60 -357q-38 -216 -186 -358q-149 -143 -338 -143q-171 0 -244 106zM590 480q-14 -80 23.5 -130t112.5 -50q76 0 134 50q56 50 70 130t-25.5 129t-115.5 49q-75 0 -130 -49t-69 -129z
" />
    <glyph glyph-name="ydieresis" unicode="&#xff;" horiz-adv-x="1153" 
d="M224 -420q-146 0 -234 54l104 281q55 -29 113 -29q66 0 113.5 28.5t81.5 95.5l-235 950h398l80 -572l281 572h398l-618 -1078q-88 -155 -204.5 -228.5t-277.5 -73.5zM973 1147q-73 0 -111 46t-25 120q14 77 68 122q53 46 127 46q75 0 114 -47t26 -121q-14 -74 -68 -120
q-55 -46 -131 -46zM713 1193q-55 -46 -130 -46t-112 46q-38 48 -25 120q14 77 68 122q53 46 128 46q74 0 113 -47q40 -47 26 -121t-68 -120z" />
    <glyph glyph-name="Amacron" unicode="&#x100;" horiz-adv-x="1487" 
d="M538 227l-128 -227h-426l761 1358h476l282 -1358h-426l-48 227h-491zM1301 1486h-591l41 234h591zM992 528l-75 454l-236 -454h311z" />
    <glyph glyph-name="amacron" unicode="&#x101;" horiz-adv-x="1119" 
d="M389 -20q-145 0 -221 81q-77 82 -55 208q16 93 89 163q70 67 164 99q93 30 193 30q93 0 162 -19v3q9 56 -25.5 89.5t-105.5 33.5q-117 0 -236 -95l-152 219q73 69 205 128q132 60 273 60q110 0 194 -25.5t143 -78t81 -139.5t2 -203l-94 -534h-354l17 98q-47 -57 -125 -88
q-78 -30 -155 -30zM1061 1384l-41 -234h-591l41 234h591zM468 291q-5 -29 15 -46.5t57 -17.5q55 0 96 34t50 86q-36 16 -94 16q-49 0 -83.5 -19.5t-40.5 -52.5z" />
    <glyph glyph-name="Abreve" unicode="&#x102;" horiz-adv-x="1487" 
d="M538 227l-128 -227h-426l761 1358h476l282 -1358h-426l-48 227h-491zM1000 1456q-158 0 -235 96q-78 97 -50 257h249q-13 -61 7 -97.5t67 -36.5q48 0 81 36.5t41 97.5h250q-28 -160 -139 -257q-111 -96 -271 -96zM917 982l-236 -454h311z" />
    <glyph glyph-name="abreve" unicode="&#x103;" horiz-adv-x="1119" 
d="M389 -20q-145 0 -221 81q-77 82 -55 208q16 93 89 163q70 67 164 99q93 30 193 30q93 0 162 -19v3q9 56 -25.5 89.5t-105.5 33.5q-117 0 -236 -95l-152 219q73 69 205 128q132 60 273 60q110 0 194 -25.5t143 -78t81 -139.5t2 -203l-94 -534h-354l17 98q-47 -57 -125 -88
q-78 -30 -155 -30zM758 1099q-158 0 -235 96q-78 97 -50 257h249q-13 -61 7 -97.5t67 -36.5q48 0 81 36.5t41 97.5h250q-28 -160 -139 -257q-111 -96 -271 -96zM468 291q-5 -29 15 -46.5t57 -17.5q55 0 96 34t50 86q-36 16 -94 16q-49 0 -83.5 -19.5t-40.5 -52.5z" />
    <glyph glyph-name="Aogonek" unicode="&#x104;" horiz-adv-x="1487" 
d="M410 0h-426l761 1358h476l282 -1358h-184q-215 -104 -227 -178q-6 -31 13.5 -49t57.5 -18q63 0 124 27l27 -206q-102 -57 -240 -57q-128 0 -193 60.5t-48 160.5q25 147 244 260l-48 227h-491zM917 982l-236 -454h311z" />
    <glyph glyph-name="aogonek" unicode="&#x105;" horiz-adv-x="1119" 
d="M389 -20q-145 0 -221 81q-77 82 -55 208q16 93 89 163q70 67 164 99q93 30 193 30q93 0 162 -19v3q9 56 -25.5 89.5t-105.5 33.5q-117 0 -236 -95l-152 219q73 69 205 128q132 60 273 60q110 0 194 -25.5t143 -78t81 -139.5t2 -203l-94 -534h-113q-215 -104 -227 -178
q-6 -31 13.5 -49t57.5 -18q63 0 124 27l27 -206q-102 -57 -240 -57q-128 0 -193 60.5t-48 160.5q25 148 245 261l17 97q-47 -57 -125 -88q-78 -30 -155 -30zM468 291q-5 -29 15 -46.5t57 -17.5q55 0 96 34t50 86q-36 16 -94 16q-49 0 -83.5 -19.5t-40.5 -52.5z" />
    <glyph glyph-name="Cacute" unicode="&#x106;" horiz-adv-x="1421" 
d="M786 -20q-210 0 -361 92q-151 91 -215 251q-64 159 -29 358q34 197 155 357q119 158 303 250q183 90 394 90q190 0 333 -92q142 -93 198 -248l-325 -201q-68 192 -268 192q-148 0 -253 -96q-104 -95 -133 -252q-27 -156 46 -253q72 -99 217 -99q207 0 354 194l250 -199
q-100 -149 -287 -247q-185 -97 -379 -97zM1552 1807l-346 -334h-312l226 334h432z" />
    <glyph glyph-name="cacute" unicode="&#x107;" horiz-adv-x="1070" 
d="M577 -20q-229 0 -352 143q-123 142 -85 357q38 214 210 357q172 142 403 142q153 0 258.5 -64.5t146.5 -184.5l-312 -190q-34 118 -143 118q-69 0 -128 -50q-58 -51 -72 -128q-15 -81 26 -131q40 -49 115 -49q108 0 188 110l240 -192q-80 -110 -210 -174
q-129 -64 -285 -64zM1289 1447l-346 -334h-312l226 334h432z" />
    <glyph glyph-name="Ccircumflex" unicode="&#x108;" horiz-adv-x="1421" 
d="M786 -20q-210 0 -361 92q-151 91 -215 251q-64 159 -29 358q34 197 155 357q119 158 303 250q183 90 394 90q190 0 333 -92q142 -93 198 -248l-325 -201q-68 192 -268 192q-148 0 -253 -96q-104 -95 -133 -252q-27 -156 46 -253q72 -99 217 -99q207 0 354 194l250 -199
q-100 -149 -287 -247q-185 -97 -379 -97zM1095 1631l-133 -160h-311l353 370h257l221 -370h-312z" />
    <glyph glyph-name="ccircumflex" unicode="&#x109;" horiz-adv-x="1070" 
d="M577 -20q-229 0 -352 143q-123 142 -85 357q38 214 210 357q172 142 403 142q153 0 258.5 -64.5t146.5 -184.5l-312 -190q-34 118 -143 118q-69 0 -128 -50q-58 -51 -72 -128q-15 -81 26 -131q40 -49 115 -49q108 0 188 110l240 -192q-80 -110 -210 -174
q-129 -64 -285 -64zM796 1244l-132 -160h-311l352 370h257l222 -370h-312z" />
    <glyph glyph-name="Cdotaccent" unicode="&#x10a;" horiz-adv-x="1421" 
d="M786 -20q-210 0 -361 92q-151 91 -215 251q-64 159 -29 358q34 197 155 357q119 158 303 250q183 90 394 90q190 0 333 -92q142 -93 198 -248l-325 -201q-68 192 -268 192q-148 0 -253 -96q-104 -95 -133 -252q-27 -156 46 -253q72 -99 217 -99q207 0 354 194l250 -199
q-100 -149 -287 -247q-185 -97 -379 -97zM1055 1453q-94 0 -142 58q-47 58 -31 152q17 95 86 154q68 59 162 59t144 -59q48 -58 31 -154q-16 -93 -86 -152q-68 -58 -164 -58z" />
    <glyph glyph-name="cdotaccent" unicode="&#x10b;" horiz-adv-x="1070" 
d="M577 -20q-229 0 -352 143q-123 142 -85 357q38 214 210 357q172 142 403 142q153 0 258.5 -64.5t146.5 -184.5l-312 -190q-34 118 -143 118q-69 0 -128 -50q-58 -51 -72 -128q-15 -81 26 -131q40 -49 115 -49q108 0 188 110l240 -192q-80 -110 -210 -174
q-129 -64 -285 -64zM781 1119q-94 0 -142 58q-47 58 -31 152q17 95 86 154q68 59 162 59t144 -59q48 -58 31 -154q-16 -93 -86 -152q-68 -58 -164 -58z" />
    <glyph glyph-name="Ccaron" unicode="&#x10c;" horiz-adv-x="1421" 
d="M786 -20q-210 0 -361 92q-151 91 -215 251q-64 159 -29 358q34 197 155 357q119 158 303 250q183 90 394 90q190 0 333 -92q142 -93 198 -248l-325 -201q-68 192 -268 192q-148 0 -253 -96q-104 -95 -133 -252q-27 -156 46 -253q72 -99 217 -99q207 0 354 194l250 -199
q-100 -149 -287 -247q-185 -97 -379 -97zM1187 1481h-257l-222 370h311l76 -160l132 160h312z" />
    <glyph glyph-name="ccaron" unicode="&#x10d;" horiz-adv-x="1070" 
d="M577 -20q-229 0 -352 143q-123 142 -85 357q38 214 210 357q172 142 403 142q153 0 258.5 -64.5t146.5 -184.5l-312 -190q-34 118 -143 118q-69 0 -128 -50q-58 -51 -72 -128q-15 -81 26 -131q40 -49 115 -49q108 0 188 110l240 -192q-80 -110 -210 -174
q-129 -64 -285 -64zM634 1096l-222 370h311l76 -160l132 160h312l-352 -370h-257z" />
    <glyph glyph-name="Dcaron" unicode="&#x10e;" horiz-adv-x="1502" 
d="M748 0h-598l239 1358h598q139 0 258.5 -52.5t197.5 -144.5t109.5 -218t7.5 -263t-101 -264q-75 -124 -185 -217q-109 -91 -247 -145t-279 -54zM732 1037l-127 -717h175q134 0 243 107q108 108 133 253q29 143 -42.5 251t-203.5 106h-178zM1080 1481h-257l-222 370h311
l76 -160l132 160h312z" />
    <glyph glyph-name="dcaron" unicode="&#x10f;" horiz-adv-x="1338" 
d="M488 -20q-123 -2 -212 64.5t-125 181.5t-10 253q39 216 187 358q149 143 337 143q171 0 244 -106l94 534h384l-248 -1408h-382l7 89q-109 -109 -276 -109zM1669 946h-256l74 462h342zM505 480q-14 -79 24.5 -128.5t115.5 -49.5q75 0 131 50t69 128q14 80 -24 130t-113 50
q-76 0 -132 -50q-57 -50 -71 -130z" />
    <glyph glyph-name="Dcroat" unicode="&#x110;" horiz-adv-x="1553" 
d="M201 0l106 605h-133l32 184h134l100 569h598q139 0 258.5 -52.5t197.5 -144.5t109.5 -218t7.5 -263t-101 -264q-75 -124 -185 -217q-109 -91 -247 -145t-279 -54h-598zM985 789l-32 -184h-247l-50 -285h175q134 0 243 107q108 108 133 253q29 143 -42.5 251t-203.5 106
h-178l-44 -248h246z" />
    <glyph glyph-name="dcroat" unicode="&#x111;" horiz-adv-x="1192" 
d="M488 -20q-123 -2 -212 64.5t-125 181.5t-10 253q39 216 187 358q149 143 337 143q171 0 244 -106l38 217h-221l33 184h221l23 133h384l-23 -133h99l-33 -184h-99l-192 -1091h-382l7 89q-109 -109 -276 -109zM505 480q-14 -79 24.5 -128.5t115.5 -49.5q75 0 131 50t69 128
q14 80 -24 130t-113 50q-76 0 -132 -50q-57 -50 -71 -130z" />
    <glyph glyph-name="Emacron" unicode="&#x112;" horiz-adv-x="1213" 
d="M604 319h604l-56 -319h-1002l239 1358h992l-56 -320h-594l-33 -188h521l-56 -319h-521zM645 1720h591l-41 -234h-591z" />
    <glyph glyph-name="emacron" unicode="&#x113;" horiz-adv-x="1092" 
d="M572 -20q-229 0 -349 141q-121 139 -82 361q37 213 202 357q163 141 384 141q96 0 179 -33t138 -91q56 -59 79 -144.5t6 -180.5q-10 -57 -37 -123h-605q-4 -64 40.5 -98t118.5 -34q126 0 217 102l187 -201q-55 -69 -188 -133q-131 -64 -290 -64zM1086 1384l-41 -234h-591
l41 234h591zM518 582h271q8 47 -24 83q-32 35 -87 35t-101 -35q-45 -33 -59 -83z" />
    <glyph glyph-name="Ebreve" unicode="&#x114;" horiz-adv-x="1213" 
d="M1152 0h-1002l239 1358h992l-56 -320h-594l-33 -188h521l-56 -319h-521l-38 -212h604zM912 1456q-158 0 -235 96q-78 97 -50 257h249q-13 -61 7 -97.5t67 -36.5q48 0 81 36.5t41 97.5h250q-28 -160 -139 -257q-111 -96 -271 -96z" />
    <glyph glyph-name="ebreve" unicode="&#x115;" horiz-adv-x="1092" 
d="M572 -20q-229 0 -349 141q-121 139 -82 361q37 213 202 357q163 141 384 141q96 0 179 -33t138 -91q56 -59 79 -144.5t6 -180.5q-10 -57 -37 -123h-605q-4 -64 40.5 -98t118.5 -34q126 0 217 102l187 -201q-55 -69 -188 -133q-131 -64 -290 -64zM740 1099q-158 0 -235 96
q-78 97 -50 257h249q-13 -61 7 -97.5t67 -36.5q48 0 81 36.5t41 97.5h250q-28 -160 -139 -257q-111 -96 -271 -96zM678 700q-55 0 -101 -35q-45 -33 -59 -83h271q8 47 -24 83q-32 35 -87 35z" />
    <glyph glyph-name="Edotaccent" unicode="&#x116;" horiz-adv-x="1213" 
d="M1152 0h-1002l239 1358h992l-56 -320h-594l-33 -188h521l-56 -319h-521l-38 -212h604zM918 1453q-94 0 -142 58q-47 58 -31 152q17 95 86 154q68 59 162 59t144 -59q48 -58 31 -154q-16 -93 -86 -152q-68 -58 -164 -58z" />
    <glyph glyph-name="edotaccent" unicode="&#x117;" horiz-adv-x="1092" 
d="M572 -20q-229 0 -349 141q-121 139 -82 361q37 213 202 357q163 141 384 141q96 0 179 -33t138 -91q56 -59 79 -144.5t6 -180.5q-10 -57 -37 -123h-605q-4 -64 40.5 -98t118.5 -34q126 0 217 102l187 -201q-55 -69 -188 -133q-131 -64 -290 -64zM752 1119q-94 0 -142 58
q-47 58 -31 152q17 95 86 154q68 59 162 59t144 -59q48 -58 31 -154q-16 -93 -86 -152q-68 -58 -164 -58zM678 700q-55 0 -101 -35q-45 -33 -59 -83h271q8 47 -24 83q-32 35 -87 35z" />
    <glyph glyph-name="Eogonek" unicode="&#x118;" horiz-adv-x="1213" 
d="M909 0h-759l239 1358h992l-56 -320h-594l-33 -188h521l-56 -319h-521l-38 -212h604l-56 -319h-1q-215 -104 -227 -178q-6 -31 13.5 -49t57.5 -18q63 0 124 27l27 -206q-102 -57 -240 -57q-128 0 -193 60.5t-48 160.5q25 147 244 260z" />
    <glyph glyph-name="eogonek" unicode="&#x119;" horiz-adv-x="1092" 
d="M468 -11q-180 31 -271 166q-90 134 -56 327q37 213 202 357q163 141 384 141q96 0 179 -33t138 -91q56 -59 79 -144.5t6 -180.5q-10 -57 -37 -123h-605q-4 -64 40.5 -98t118.5 -34q126 0 217 102l187 -201q-40 -49 -126 -102q-85 -51 -196 -77q-211 -100 -223 -176
q-6 -31 13.5 -49t57.5 -18q62 0 124 27l27 -206q-102 -57 -240 -57q-128 0 -193 60.5t-48 160.5q26 140 222 249zM518 582h271q8 47 -24 83q-32 35 -87 35t-101 -35q-45 -33 -59 -83z" />
    <glyph glyph-name="Ecaron" unicode="&#x11a;" horiz-adv-x="1213" 
d="M1152 0h-1002l239 1358h992l-56 -320h-594l-33 -188h521l-56 -319h-521l-38 -212h604zM1057 1481h-257l-222 370h311l76 -160l132 160h312z" />
    <glyph glyph-name="ecaron" unicode="&#x11b;" horiz-adv-x="1092" 
d="M572 -20q-229 0 -349 141q-121 139 -82 361q37 213 202 357q163 141 384 141q96 0 179 -33t138 -91q56 -59 79 -144.5t6 -180.5q-10 -57 -37 -123h-605q-4 -64 40.5 -98t118.5 -34q126 0 217 102l187 -201q-55 -69 -188 -133q-131 -64 -290 -64zM878 1096h-257l-222 370
h311l76 -160l132 160h312zM518 582h271q8 47 -24 83q-32 35 -87 35t-101 -35q-45 -33 -59 -83z" />
    <glyph glyph-name="Gcircumflex" unicode="&#x11c;" horiz-adv-x="1500" 
d="M786 -20q-210 0 -361 92q-151 91 -215 251q-64 157 -29 357q26 147 102.5 276.5t189.5 223.5t258.5 146t301.5 52q178 0 317 -82q138 -82 201 -225l-326 -201q-31 77 -96.5 118t-157.5 41q-148 0 -253 -96q-104 -95 -133 -252q-27 -156 46 -253q72 -99 217 -99
q97 0 169 41t111 119h-298l52 292h700q-4 -54 -18 -128q-56 -310 -270 -491q-217 -182 -508 -182zM1058 1631l-133 -160h-311l353 370h257l221 -370h-312z" />
    <glyph glyph-name="gcircumflex" unicode="&#x11d;" horiz-adv-x="1265" 
d="M30 -235l237 232q89 -104 242 -104q89 0 166 47q75 46 87 117l6 32q-104 -89 -272 -89q-189 0 -287 140q-100 140 -62 349q38 213 185 351q149 140 337 140q167 0 237 -109l24 89h382l-161 -913q-26 -141 -117 -242t-222 -156q-162 -69 -346 -69q-162 0 -274 57t-162 128
zM873 1244l-132 -160h-311l352 370h257l222 -370h-312zM510 490q-13 -75 26.5 -121.5t116.5 -46.5q75 0 129.5 46.5t67.5 121.5q14 76 -24.5 123t-113.5 47q-77 0 -133 -47q-55 -47 -69 -123z" />
    <glyph glyph-name="Gbreve" unicode="&#x11e;" horiz-adv-x="1500" 
d="M786 -20q-210 0 -361 92q-151 91 -215 251q-64 157 -29 357q26 147 102.5 276.5t189.5 223.5t258.5 146t301.5 52q178 0 317 -82q138 -82 201 -225l-326 -201q-31 77 -96.5 118t-157.5 41q-148 0 -253 -96q-104 -95 -133 -252q-27 -156 46 -253q72 -99 217 -99
q97 0 169 41t111 119h-298l52 292h700q-4 -54 -18 -128q-56 -310 -270 -491q-217 -182 -508 -182zM1007 1456q-159 0 -235 96q-78 97 -50 257h249q-13 -61 7 -97.5t67 -36.5q48 0 81 36.5t41 97.5h250q-28 -160 -139 -257q-111 -96 -271 -96z" />
    <glyph glyph-name="gbreve" unicode="&#x11f;" horiz-adv-x="1265" 
d="M466 -420q-162 0 -274 57t-162 128l237 232q89 -104 242 -104q89 0 166 47q75 46 87 117l6 32q-104 -89 -272 -89q-189 0 -287 140q-100 140 -62 349q38 213 185 351q149 140 337 140q167 0 237 -109l24 89h382l-161 -913q-26 -141 -117 -242t-222 -156
q-162 -69 -346 -69zM769 1103q-159 0 -235 96q-77 97 -49 257h249q-14 -61 6.5 -97.5t67.5 -36.5q48 0 81 36.5t41 97.5h250q-29 -161 -140 -257t-271 -96zM510 490q-13 -75 26.5 -121.5t116.5 -46.5q75 0 129.5 46.5t67.5 121.5q14 76 -24.5 123t-113.5 47q-77 0 -133 -47
q-55 -47 -69 -123z" />
    <glyph glyph-name="Gdotaccent" unicode="&#x120;" horiz-adv-x="1500" 
d="M786 -20q-210 0 -361 92q-151 91 -215 251q-64 157 -29 357q26 147 102.5 276.5t189.5 223.5t258.5 146t301.5 52q178 0 317 -82q138 -82 201 -225l-326 -201q-31 77 -96.5 118t-157.5 41q-148 0 -253 -96q-104 -95 -133 -252q-27 -156 46 -253q72 -99 217 -99
q97 0 169 41t111 119h-298l52 292h700q-4 -54 -18 -128q-56 -310 -270 -491q-217 -182 -508 -182zM1035 1453q-94 0 -142 58q-47 58 -31 152q17 95 86 154q68 59 162 59t144 -59q48 -58 31 -154q-16 -93 -86 -152q-68 -58 -164 -58z" />
    <glyph glyph-name="gdotaccent" unicode="&#x121;" horiz-adv-x="1265" 
d="M466 -420q-162 0 -274 57t-162 128l237 232q89 -104 242 -104q89 0 166 47q75 46 87 117l6 32q-104 -89 -272 -89q-189 0 -287 140q-100 140 -62 349q38 213 185 351q149 140 337 140q167 0 237 -109l24 89h382l-161 -913q-26 -141 -117 -242t-222 -156
q-162 -69 -346 -69zM803 1119q-94 0 -142 58q-47 58 -31 152q17 95 86 154q68 59 162 59t144 -59q48 -58 31 -154q-16 -93 -86 -152q-68 -58 -164 -58zM510 490q-13 -75 26.5 -121.5t116.5 -46.5q75 0 129.5 46.5t67.5 121.5q14 76 -24.5 123t-113.5 47q-77 0 -133 -47
q-55 -47 -69 -123z" />
    <glyph glyph-name="uni0122" unicode="&#x122;" horiz-adv-x="1500" 
d="M786 -20q-210 0 -361 92q-151 91 -215 251q-64 157 -29 357q26 147 102.5 276.5t189.5 223.5t258.5 146t301.5 52q178 0 317 -82q138 -82 201 -225l-326 -201q-31 77 -96.5 118t-157.5 41q-148 0 -253 -96q-104 -95 -133 -252q-27 -156 46 -253q72 -99 217 -99
q97 0 169 41t111 119h-298l52 292h700q-4 -54 -18 -128q-56 -310 -270 -491q-217 -182 -508 -182zM916 -86l-161 -462h-256l75 462h342z" />
    <glyph glyph-name="uni0123" unicode="&#x123;" horiz-adv-x="1265" 
d="M30 -235l237 232q89 -104 242 -104q89 0 166 47q75 46 87 117l6 32q-104 -89 -272 -89q-189 0 -287 140q-100 140 -62 349q38 213 185 351q149 140 337 140q167 0 237 -109l24 89h382l-161 -913q-26 -141 -117 -242t-222 -156q-162 -69 -346 -69q-162 0 -274 57t-162 128
zM963 1563l-75 -462h-342l161 462h256zM510 490q-13 -75 26.5 -121.5t116.5 -46.5q75 0 129.5 46.5t67.5 121.5q14 76 -24.5 123t-113.5 47q-77 0 -133 -47q-55 -47 -69 -123z" />
    <glyph glyph-name="Hcircumflex" unicode="&#x124;" horiz-adv-x="1616" 
d="M549 0h-399l239 1358h399l-89 -506h518l89 506h399l-239 -1358h-399l94 533h-518zM1096 1631l-133 -160h-311l353 370h257l221 -370h-312z" />
    <glyph glyph-name="hcircumflex" unicode="&#x125;" horiz-adv-x="1240" 
d="M603 530l-93 -530h-384l248 1408h384l-90 -514q112 86 288 86q152 0 232 -93q79 -92 53 -243l-114 -644h-384l93 530q9 51 -17.5 83t-78.5 32t-90 -32t-47 -83zM464 1489h-311l352 370h257l222 -370h-312l-76 160z" />
    <glyph glyph-name="Hbar" unicode="&#x126;" horiz-adv-x="1548" 
d="M225 1188h100l30 170h399l-30 -170h518l30 170h399l-30 -170h100l-32 -184h-100l-177 -1004h-399l94 533h-518l-94 -533h-399l177 1004h-100zM1183 852l27 152h-518l-27 -152h518z" />
    <glyph glyph-name="hbar" unicode="&#x127;" horiz-adv-x="1240" 
d="M603 530l-93 -530h-384l192 1092h-105l32 184h106l23 132h384l-23 -132h234l-32 -184h-234l-35 -198q112 86 288 86q152 0 232 -93q79 -92 53 -243l-114 -644h-384l93 530q9 51 -17.5 83t-78.5 32t-90 -32t-47 -83z" />
    <glyph glyph-name="Itilde" unicode="&#x128;" horiz-adv-x="699" 
d="M549 0h-399l239 1358h399zM332 1465l-117 127q155 230 328 230q74 0 136 -46t104 -46q60 0 143 77l116 -117q-74 -110 -164 -168.5t-171 -58.5q-62 0 -125 45q-62 44 -109 44q-59 0 -141 -87z" />
    <glyph glyph-name="itilde" unicode="&#x129;" horiz-adv-x="636" 
d="M510 0h-384l169 960h384zM248 1105l-118 127q156 230 329 230q74 0 136 -46t104 -46q59 0 142 77l117 -117q-76 -116 -168 -171q-92 -56 -168 -56q-62 0 -125 45q-62 44 -109 44q-60 0 -140 -87z" />
    <glyph glyph-name="Imacron" unicode="&#x12a;" horiz-adv-x="699" 
d="M389 1358h399l-239 -1358h-399zM357 1720h591l-41 -234h-591z" />
    <glyph glyph-name="imacron" unicode="&#x12b;" horiz-adv-x="636" 
d="M679 960l-169 -960h-384l169 960h384zM266 1384h591l-41 -234h-591z" />
    <glyph glyph-name="Ibreve" unicode="&#x12c;" horiz-adv-x="699" 
d="M549 0h-399l239 1358h399zM606 1456q-159 0 -235 96q-78 97 -50 257h249q-13 -61 7 -97.5t67 -36.5q48 0 81 36.5t41 97.5h250q-28 -160 -139 -257q-111 -96 -271 -96z" />
    <glyph glyph-name="ibreve" unicode="&#x12d;" horiz-adv-x="636" 
d="M510 0h-384l169 960h384zM511 1099q-159 0 -235 96q-78 97 -50 257h249q-13 -61 7 -97.5t67 -36.5q48 0 81 36.5t41 97.5h250q-28 -160 -139 -257q-111 -96 -271 -96z" />
    <glyph glyph-name="Iogonek" unicode="&#x12e;" horiz-adv-x="699" 
d="M239 -481q-128 0 -193 60.5t-48 160.5q25 147 244 260h-92l239 1358h399l-239 -1358h-65q-215 -104 -227 -178q-6 -31 13.5 -49t57.5 -18q62 0 124 27l27 -206q-102 -57 -240 -57z" />
    <glyph glyph-name="iogonek" unicode="&#x12f;" horiz-adv-x="636" 
d="M201 -481q-128 0 -193 60.5t-48 160.5q25 147 244 260h-78l169 960h384l-169 -960h-64q-215 -104 -227 -178q-6 -31 13.5 -49t57.5 -18q62 0 124 27l27 -206q-102 -57 -240 -57zM513 1119q-94 0 -142 58q-47 58 -31 152q17 95 86 154q68 59 162 59t144 -59
q48 -58 31 -154q-16 -93 -86 -152q-68 -58 -164 -58z" />
    <glyph glyph-name="Idotaccent" unicode="&#x130;" horiz-adv-x="699" 
d="M549 0h-399l239 1358h399zM604 1453q-94 0 -142 58q-47 58 -31 152q17 95 86 154q68 59 162 59t144 -59q48 -58 31 -154q-16 -93 -86 -152q-68 -58 -164 -58z" />
    <glyph glyph-name="dotlessi" unicode="&#x131;" horiz-adv-x="636" 
d="M679 960l-169 -960h-384l169 960h384z" />
    <glyph glyph-name="IJ" unicode="&#x132;" horiz-adv-x="1727" 
d="M638 232l293 239q61 -142 188 -142q63 0 108.5 44t58.5 116l153 869h399l-159 -902q-37 -217 -201 -346q-163 -130 -404 -130q-316 0 -436 252zM788 1358l-239 -1358h-399l239 1358h399z" />
    <glyph glyph-name="ij" unicode="&#x133;" horiz-adv-x="1179" 
d="M354 -373l83 288q51 -23 115 -23q109 0 131 127l166 941h373l-172 -978q-21 -120 -85 -206.5t-154 -136.5q-108 -59 -224 -59q-147 0 -233 47zM679 960l-169 -960h-384l169 960h384zM1050 1046q-94 0 -142 58q-47 58 -31 152q17 95 86 154q68 59 162 59t144 -59
q48 -58 31 -154q-16 -93 -86 -152q-68 -58 -164 -58zM497 1046q-94 0 -142 58q-47 58 -31 152q17 95 86 154q68 59 162 59t144 -59q48 -58 31 -154q-16 -93 -86 -152q-68 -58 -164 -58z" />
    <glyph glyph-name="Jcircumflex" unicode="&#x134;" horiz-adv-x="1119" 
d="M21 232l293 239q61 -142 188 -142q63 0 108.5 44t58.5 116l153 869h399l-159 -902q-37 -217 -201 -346q-163 -130 -404 -130q-316 0 -436 252zM1072 1631l-133 -160h-311l353 370h257l221 -370h-312z" />
    <glyph glyph-name="jcircumflex" unicode="&#x135;" horiz-adv-x="599" 
d="M7 -420q-147 0 -233 47l83 288q51 -23 115 -23q109 0 131 127l166 941h373l-172 -978q-21 -120 -85 -206.5t-154 -136.5q-108 -59 -224 -59zM518 1244l-132 -160h-311l352 370h257l222 -370h-312z" />
    <glyph glyph-name="uni0136" unicode="&#x136;" horiz-adv-x="1484" 
d="M621 406l-72 -406h-399l239 1358h399l-88 -501l551 501h478l-621 -556l405 -802h-467l-256 554zM931 -86l-161 -462h-256l75 462h342z" />
    <glyph glyph-name="uni0137" unicode="&#x137;" horiz-adv-x="1211" 
d="M511 0h-385l248 1408h385l-123 -701l279 253h470l-457 -397l303 -563h-456l-154 338l-60 -52zM791 -86l-161 -462h-256l75 462h342z" />
    <glyph glyph-name="kgreenlandic" unicode="&#x138;" horiz-adv-x="1211" 
d="M561 286l-50 -286h-385l169 960h385l-44 -253l279 253h470l-457 -397l303 -563h-456l-154 338z" />
    <glyph glyph-name="Lacute" unicode="&#x139;" horiz-adv-x="1208" 
d="M605 318h652l-56 -318h-1051l239 1358h399zM675 1807h432l-346 -334h-312z" />
    <glyph glyph-name="lacute" unicode="&#x13a;" horiz-adv-x="636" 
d="M374 1408h384l-248 -1408h-384zM641 1826h432l-346 -334h-312z" />
    <glyph glyph-name="uni013B" unicode="&#x13b;" horiz-adv-x="1208" 
d="M605 318h652l-56 -318h-1051l239 1358h399zM679 -548h-256l75 462h342z" />
    <glyph glyph-name="uni013C" unicode="&#x13c;" horiz-adv-x="636" 
d="M374 1408h384l-248 -1408h-384zM302 -548h-256l75 462h342z" />
    <glyph glyph-name="Lcaron" unicode="&#x13d;" horiz-adv-x="1208" 
d="M1257 318l-56 -318h-1051l239 1358h399l-183 -1040h652zM1299 1358l-160 -462h-256l74 462h342z" />
    <glyph glyph-name="lcaron" unicode="&#x13e;" horiz-adv-x="709" 
d="M510 0h-384l248 1408h384zM1199 1408l-160 -462h-256l74 462h342z" />
    <glyph glyph-name="Ldot" unicode="&#x13f;" horiz-adv-x="1211" 
d="M1201 0h-1051l239 1358h399l-183 -1040h652zM1026 524q-81 0 -129 59q-48 58 -34 135q15 84 85 142q68 58 148 58q82 0 132 -60t36 -140q-15 -82 -87 -138q-73 -56 -151 -56z" />
    <glyph glyph-name="ldot" unicode="&#x140;" horiz-adv-x="958" 
d="M510 0h-384l248 1408h384zM838 480q-94 0 -142 58q-47 58 -31 152q17 96 85 154q68 59 162 59t144 -59q49 -58 32 -154q-16 -93 -86 -152q-68 -58 -164 -58z" />
    <glyph glyph-name="Lslash" unicode="&#x141;" horiz-adv-x="1297" 
d="M239 0l117 666l-200 -12l35 194l199 12l88 498h399l-83 -474l241 14l-34 -194l-242 -14l-65 -372h652l-56 -318h-1051z" />
    <glyph glyph-name="lslash" unicode="&#x142;" horiz-adv-x="691" 
d="M230 431l-127 -44l30 170l127 47l142 804h384l-115 -652l126 46l-32 -184l-126 -44l-101 -574h-384z" />
    <glyph glyph-name="Nacute" unicode="&#x143;" horiz-adv-x="1592" 
d="M538 0h-388l239 1358h325l452 -725l127 725h388l-239 -1358h-311l-465 727zM1204 1473h-312l226 334h432z" />
    <glyph glyph-name="nacute" unicode="&#x144;" horiz-adv-x="1240" 
d="M510 0h-384l169 960h350l-7 -92q52 52 136 82t182 30q152 0 232 -93q79 -92 53 -243l-114 -644h-384l93 530q9 51 -17.5 83t-78.5 32t-90 -32t-47 -83zM1033 1113h-312l226 334h432z" />
    <glyph glyph-name="uni0145" unicode="&#x145;" horiz-adv-x="1592" 
d="M538 0h-388l239 1358h325l452 -725l127 725h388l-239 -1358h-311l-465 727zM972 -86l-161 -462h-256l75 462h342z" />
    <glyph glyph-name="uni0146" unicode="&#x146;" horiz-adv-x="1240" 
d="M603 530l-93 -530h-384l169 960h350l-7 -92q52 52 136 82t182 30q152 0 232 -93q79 -92 53 -243l-114 -644h-384l93 530q9 51 -17.5 83t-78.5 32t-90 -32t-47 -83zM797 -86l-161 -462h-256l75 462h342z" />
    <glyph glyph-name="Ncaron" unicode="&#x147;" horiz-adv-x="1592" 
d="M538 0h-388l239 1358h325l452 -725l127 725h388l-239 -1358h-311l-465 727zM1186 1481h-257l-222 370h311l76 -160l132 160h312z" />
    <glyph glyph-name="ncaron" unicode="&#x148;" horiz-adv-x="1240" 
d="M510 0h-384l169 960h350l-7 -92q52 52 136 82t182 30q152 0 232 -93q79 -92 53 -243l-114 -644h-384l93 530q9 51 -17.5 83t-78.5 32t-90 -32t-47 -83zM714 1096l-222 370h311l76 -160l132 160h312l-352 -370h-257z" />
    <glyph glyph-name="napostrophe" unicode="&#x149;" horiz-adv-x="1478" 
d="M748 0h-384l169 960h350l-7 -92q52 52 136 82t182 30q152 0 232 -93q79 -92 53 -243l-114 -644h-384l93 530q9 51 -17.5 83t-78.5 32t-90 -32t-47 -83zM739 1428l-289 -516h-291l228 516h352z" />
    <glyph glyph-name="Eng" unicode="&#x14a;" horiz-adv-x="1592" 
d="M538 0h-388l239 1358h325l452 -725l127 725h388l-242 -1376q-21 -120 -87 -206.5t-159 -136.5q-112 -59 -232 -59q-147 0 -233 47l83 288q51 -23 115 -23q109 0 131 127l13 76l-404 632z" />
    <glyph glyph-name="eng" unicode="&#x14b;" horiz-adv-x="1240" 
d="M603 530l-93 -530h-384l169 960h350l-7 -92q52 52 136 82t182 30q152 0 232 -93q79 -92 53 -243l-117 -662q-21 -120 -84 -206.5t-151 -136.5q-107 -59 -219 -59q-136 0 -213 47l83 288q41 -23 95 -23q89 0 111 127l90 511q9 51 -17.5 83t-78.5 32t-90 -32t-47 -83z" />
    <glyph glyph-name="Omacron" unicode="&#x14c;" horiz-adv-x="1560" 
d="M779 -20q-153 -2 -278.5 50.5t-205 145t-111 224t-2.5 281.5q55 307 292 502q236 195 552 195q152 0 276 -51t203 -143q79 -93 109.5 -223.5t3.5 -280.5q-36 -203 -156 -364q-119 -159 -298 -248q-177 -88 -385 -88zM587 680q-27 -154 44 -249q71 -96 213 -96
q139 0 241 96q102 95 129 249q27 151 -41 246q-69 94 -208 94q-143 0 -246 -94q-105 -94 -132 -246zM1338 1486h-591l41 234h591z" />
    <glyph glyph-name="omacron" unicode="&#x14d;" horiz-adv-x="1168" 
d="M987 119q-170 -139 -407 -139t-358 139q-122 139 -82 361q39 222 210 362q171 138 407 138q235 0 358 -138q122 -140 83 -362q-40 -223 -211 -361zM1083 1150h-591l41 234h591zM572 610q-55 -49 -69 -130t23 -130q38 -50 111 -50t129 50q55 49 69 130t-23 130t-112 49
t-128 -49z" />
    <glyph glyph-name="Obreve" unicode="&#x14e;" horiz-adv-x="1560" 
d="M779 -20q-153 -2 -278.5 50.5t-205 145t-111 224t-2.5 281.5q55 307 292 502q236 195 552 195q152 0 276 -51t203 -143q79 -93 109.5 -223.5t3.5 -280.5q-36 -203 -156 -364q-119 -159 -298 -248q-177 -88 -385 -88zM587 680q-27 -154 44 -249q71 -96 213 -96
q139 0 241 96q102 95 129 249q27 151 -41 246q-69 94 -208 94q-143 0 -246 -94q-105 -94 -132 -246zM1037 1456q-158 0 -235 96q-78 97 -50 257h249q-13 -61 7 -97.5t67 -36.5q48 0 81 36.5t41 97.5h250q-28 -160 -139 -257q-111 -96 -271 -96z" />
    <glyph glyph-name="obreve" unicode="&#x14f;" horiz-adv-x="1168" 
d="M987 119q-170 -139 -407 -139t-358 139q-122 139 -82 361q39 222 210 362q171 138 407 138q235 0 358 -138q122 -140 83 -362q-40 -223 -211 -361zM778 1099q-158 0 -235 96q-78 97 -50 257h249q-13 -61 7 -97.5t67 -36.5q48 0 81 36.5t41 97.5h250q-28 -160 -139 -257
q-111 -96 -271 -96zM572 610q-55 -49 -69 -130t23 -130q38 -50 111 -50t129 50q55 49 69 130t-23 130t-112 49t-128 -49z" />
    <glyph glyph-name="Ohungarumlaut" unicode="&#x150;" horiz-adv-x="1560" 
d="M779 -20q-153 -2 -278.5 50.5t-205 145t-111 224t-2.5 281.5q55 307 292 502q236 195 552 195q152 0 276 -51t203 -143q79 -93 109.5 -223.5t3.5 -280.5q-36 -203 -156 -364q-119 -159 -298 -248q-177 -88 -385 -88zM587 680q-27 -154 44 -249q71 -96 213 -96
q139 0 241 96q102 95 129 249q27 151 -41 246q-69 94 -208 94q-143 0 -246 -94q-105 -94 -132 -246zM1769 1807l-346 -334h-312l226 334h432zM933 1473h-312l226 334h432z" />
    <glyph glyph-name="ohungarumlaut" unicode="&#x151;" horiz-adv-x="1168" 
d="M987 119q-170 -139 -407 -139t-358 139q-122 139 -82 361q39 222 210 362q171 138 407 138q235 0 358 -138q122 -140 83 -362q-40 -223 -211 -361zM1500 1447l-367 -334h-291l256 334h402zM739 1113h-291l226 334h372zM572 610q-55 -49 -69 -130t23 -130q38 -50 111 -50
t129 50q55 49 69 130t-23 130t-112 49t-128 -49z" />
    <glyph glyph-name="OE" unicode="&#x152;" horiz-adv-x="2249" 
d="M796 -20q-213 -3 -367 87t-220 251.5t-27 362.5q33 200 155 360.5t308 250t398 86.5q203 0 349 -116l16 96h1014l-56 -320h-685l-34 -191h619l-56 -318h-619l-37 -211h690l-56 -318h-1019l17 96q-188 -116 -390 -116zM586 680q-27 -155 49 -249q77 -96 226 -96
q147 0 255 96q107 95 134 249q27 151 -47 246q-73 94 -221 94q-150 0 -259 -94q-110 -95 -137 -246z" />
    <glyph glyph-name="oe" unicode="&#x153;" horiz-adv-x="1745" 
d="M580 -20q-237 0 -358 139q-122 139 -82 361q39 222 210 362q171 138 407 138q202 0 299 -115q145 115 323 115q96 0 179 -33t138 -91q56 -59 79 -144.5t6 -180.5q-10 -57 -37 -123h-605q-3 -66 46 -102q49 -37 123 -37q55 0 109 25.5t89 68.5l200 -152
q-182 -231 -482 -231q-185 0 -297 124q-158 -124 -347 -124zM572 610q-55 -49 -69 -130t23 -130q38 -50 111 -50q74 0 130 50t70 130q13 79 -25 129t-112 50q-75 0 -128 -49zM1330 700q-55 0 -101 -35q-45 -33 -59 -83h271q8 47 -24 83q-32 35 -87 35z" />
    <glyph glyph-name="Racute" unicode="&#x154;" horiz-adv-x="1375" 
d="M627 455l-80 -455h-397l239 1358h685q96 2 178.5 -32t137.5 -93.5t78 -144.5t5 -180q-24 -136 -108 -239q-85 -105 -207 -162l186 -508h-425l-159 456h-133zM1085 1473h-312l226 334h432zM950 1035h-221l-47 -270h221q62 0 108 43q45 41 56 100q10 56 -22 91.5t-95 35.5z
" />
    <glyph glyph-name="racute" unicode="&#x155;" horiz-adv-x="872" 
d="M586 431l-76 -431h-384l169 960h350l-9 -131q45 72 121 111.5t164 39.5q54 0 111 -18l-80 -322q-49 21 -109 21q-103 0 -170 -59.5t-87 -170.5zM843 1113h-312l226 334h432z" />
    <glyph glyph-name="uni0156" unicode="&#x156;" horiz-adv-x="1375" 
d="M627 455l-80 -455h-397l239 1358h685q96 2 178.5 -32t137.5 -93.5t78 -144.5t5 -180q-24 -136 -108 -239q-85 -105 -207 -162l186 -508h-425l-159 456h-133zM698 -548h-256l75 462h342zM950 1035h-221l-47 -270h221q62 0 108 43q45 41 56 100q10 56 -22 91.5t-95 35.5z
" />
    <glyph glyph-name="uni0157" unicode="&#x157;" horiz-adv-x="872" 
d="M510 0h-384l169 960h350l-9 -131q45 72 121 111.5t164 39.5q54 0 111 -18l-80 -322q-49 21 -109 21q-103 0 -170 -59.5t-87 -170.5zM470 -86l-161 -462h-256l75 462h342z" />
    <glyph glyph-name="Rcaron" unicode="&#x158;" horiz-adv-x="1375" 
d="M547 0h-397l239 1358h685q96 2 178.5 -32t137.5 -93.5t78 -144.5t5 -180q-24 -136 -108 -239q-85 -105 -207 -162l186 -508h-425l-159 456h-133zM1058 1481h-257l-222 370h311l76 -160l132 160h312zM950 1035h-221l-47 -270h221q62 0 108 43q45 41 56 100q10 56 -22 91.5
t-95 35.5z" />
    <glyph glyph-name="rcaron" unicode="&#x159;" horiz-adv-x="872" 
d="M586 431l-76 -431h-384l169 960h350l-9 -131q45 72 121 111.5t164 39.5q54 0 111 -18l-80 -322q-49 21 -109 21q-103 0 -170 -59.5t-87 -170.5zM831 1096h-257l-222 370h311l76 -160l132 160h312z" />
    <glyph glyph-name="Sacute" unicode="&#x15a;" horiz-adv-x="1270" 
d="M661 -20q-199 0 -339 81.5t-204 232.5l320 199q44 -89 117.5 -136t167.5 -47q65 0 113 25.5t55 63.5q8 42 -32 64q-41 23 -168 63q-21 7 -28 9q-98 31 -157 58q-65 30 -126 77q-129 98 -95 293q22 122 114 220q93 97 217 146q125 49 261 49q178 0 295 -75.5t186 -222.5
l-304 -188q-31 72 -94 114.5t-145 42.5q-56 0 -96.5 -22.5t-47.5 -62.5q-8 -40 31 -67.5t130 -55.5q98 -29 164 -54q60 -23 131 -64q62 -37 98 -82q77 -96 52 -243q-18 -98 -79.5 -180.5t-150.5 -133.5q-182 -104 -386 -104zM1420 1807l-346 -334h-312l226 334h432z" />
    <glyph glyph-name="sacute" unicode="&#x15b;" horiz-adv-x="986" 
d="M494 -20q-291 0 -414 181l244 197q33 -46 91 -72.5t126 -26.5q39 0 63.5 11t28.5 30q5 12 -10.5 21t-46.5 19q-6 2 -28.5 8t-46 12.5t-39.5 11.5q-134 40 -205 112q-69 70 -49 187q24 133 153 222q127 87 303 87q254 0 366 -166l-233 -202q-26 38 -74 63.5t-94 25.5
q-80 0 -86 -35q-2 -14 10.5 -24t41.5 -19q11 -4 68 -22q8 -3 22 -7.5t21 -6.5q107 -35 172 -77q38 -25 62 -55q52 -65 36 -157q-26 -141 -164 -229q-140 -89 -318 -89zM831 1113h-312l226 334h432z" />
    <glyph glyph-name="Scircumflex" unicode="&#x15c;" horiz-adv-x="1270" 
d="M118 294l320 199q44 -89 117.5 -136t167.5 -47q65 0 113 25.5t55 63.5q8 42 -32 64q-41 23 -168 63q-21 7 -28 9q-98 31 -157 58q-65 30 -126 77q-129 98 -95 293q22 122 114 220q93 97 217 146q125 49 261 49q178 0 295 -75.5t186 -222.5l-304 -188q-31 72 -94 114.5
t-145 42.5q-56 0 -96.5 -22.5t-47.5 -62.5q-8 -40 31 -67.5t130 -55.5q98 -29 164 -54q60 -23 131 -64q62 -37 98 -82q77 -96 52 -243q-18 -98 -79.5 -180.5t-150.5 -133.5q-182 -104 -386 -104q-199 0 -339 81.5t-204 232.5zM958 1631l-133 -160h-311l353 370h257l221 -370
h-312z" />
    <glyph glyph-name="scircumflex" unicode="&#x15d;" horiz-adv-x="986" 
d="M80 161l244 197q33 -46 91 -72.5t126 -26.5q39 0 63.5 11t28.5 30q5 12 -10.5 21t-46.5 19q-6 2 -28.5 8t-46 12.5t-39.5 11.5q-134 40 -205 112q-69 70 -49 187q24 133 153 222q127 87 303 87q254 0 366 -166l-233 -202q-26 38 -74 63.5t-94 25.5q-80 0 -86 -35
q-2 -14 10.5 -24t41.5 -19q11 -4 68 -22q8 -3 22 -7.5t21 -6.5q107 -35 172 -77q38 -25 62 -55q52 -65 36 -157q-26 -141 -164 -229q-140 -89 -318 -89q-291 0 -414 181zM597 1084h-311l352 370h257l222 -370h-312l-76 160z" />
    <glyph glyph-name="Scedilla" unicode="&#x15e;" horiz-adv-x="1270" 
d="M451 -182l96 169q-155 22 -265 101t-164 206l320 199q44 -89 117.5 -136t167.5 -47q65 0 113 25.5t55 63.5q8 42 -32 64q-41 23 -168 63q-21 7 -28 9q-98 31 -157 58q-65 30 -126 77q-129 98 -95 293q22 122 114 220q93 97 217 146q125 49 261 49q178 0 295 -75.5
t186 -222.5l-304 -188q-31 72 -94 114.5t-145 42.5q-56 0 -96.5 -22.5t-47.5 -62.5q-8 -40 31 -67.5t130 -55.5q98 -29 164 -54q60 -23 131 -64q62 -37 98 -82q77 -96 52 -243q-15 -90 -69 -167.5t-133 -128.5q-158 -102 -349 -119l-27 -57q102 -15 149.5 -66.5t33.5 -132.5
q-17 -96 -125.5 -153t-241.5 -55q-103 0 -165 30l33 182q51 -22 122 -22q113 0 123 54q5 26 -24 40.5t-86 14.5h-67z" />
    <glyph glyph-name="scedilla" unicode="&#x15f;" horiz-adv-x="986" 
d="M283 -182l97 170q-201 28 -300 173l244 197q33 -46 91 -72.5t126 -26.5q39 0 63.5 11t28.5 30q5 12 -10.5 21t-46.5 19q-6 2 -28.5 8t-46 12.5t-39.5 11.5q-134 40 -205 112q-69 70 -49 187q24 133 153 222q127 87 303 87q254 0 366 -166l-233 -202q-26 38 -74 63.5
t-94 25.5q-80 0 -86 -35q-2 -14 10.5 -24t41.5 -19q11 -4 68 -22q8 -3 22 -7.5t21 -6.5q107 -35 172 -77q38 -25 62 -55q52 -65 36 -157q-22 -127 -140 -213q-119 -86 -278 -102l-27 -57q102 -15 149.5 -66.5t33.5 -132.5q-17 -96 -125.5 -153t-241.5 -55q-103 0 -165 30
l33 182q51 -22 122 -22q113 0 123 54q5 26 -24 40.5t-86 14.5h-67z" />
    <glyph glyph-name="Scaron" unicode="&#x160;" horiz-adv-x="1270" 
d="M118 294l320 199q44 -89 117.5 -136t167.5 -47q65 0 113 25.5t55 63.5q8 42 -32 64q-41 23 -168 63q-21 7 -28 9q-98 31 -157 58q-65 30 -126 77q-129 98 -95 293q22 122 114 220q93 97 217 146q125 49 261 49q178 0 295 -75.5t186 -222.5l-304 -188q-31 72 -94 114.5
t-145 42.5q-56 0 -96.5 -22.5t-47.5 -62.5q-8 -40 31 -67.5t130 -55.5q98 -29 164 -54q60 -23 131 -64q62 -37 98 -82q77 -96 52 -243q-18 -98 -79.5 -180.5t-150.5 -133.5q-182 -104 -386 -104q-199 0 -339 81.5t-204 232.5zM1053 1481h-257l-222 370h311l76 -160l132 160
h312z" />
    <glyph glyph-name="scaron" unicode="&#x161;" horiz-adv-x="986" 
d="M80 161l244 197q33 -46 91 -72.5t126 -26.5q39 0 63.5 11t28.5 30q5 12 -10.5 21t-46.5 19q-6 2 -28.5 8t-46 12.5t-39.5 11.5q-134 40 -205 112q-69 70 -49 187q24 133 153 222q127 87 303 87q254 0 366 -166l-233 -202q-26 38 -74 63.5t-94 25.5q-80 0 -86 -35
q-2 -14 10.5 -24t41.5 -19q11 -4 68 -22q8 -3 22 -7.5t21 -6.5q107 -35 172 -77q38 -25 62 -55q52 -65 36 -157q-26 -141 -164 -229q-140 -89 -318 -89q-291 0 -414 181zM827 1096h-257l-222 370h311l76 -160l132 160h312z" />
    <glyph glyph-name="uni0162" unicode="&#x162;" horiz-adv-x="1187" 
d="M389 0l182 1032h-387l57 326h1183l-57 -326h-397l-182 -1032h-132l-35 -74q102 -15 149.5 -66.5t33.5 -132.5q-17 -96 -125.5 -153t-241.5 -55q-103 0 -165 30l33 182q51 -22 122 -22q113 0 123 54q5 26 -24 40.5t-86 14.5h-67l104 182h-88z" />
    <glyph glyph-name="uni0163" unicode="&#x163;" horiz-adv-x="861" 
d="M285 658h-144l53 302h143l55 308h361l-55 -308h284l-53 -302h-270l-40 -225q-12 -67 13.5 -97t86.5 -30q88 0 173 33l-33 -299q-46 -24 -128 -42q-83 -18 -161 -18q-32 0 -41 1l-26 -55q102 -15 149.5 -66.5t33.5 -132.5q-17 -96 -125.5 -153t-241.5 -55q-103 0 -165 30
l33 182q51 -22 122 -22q113 0 123 54q5 26 -24 40.5t-86 14.5h-67l114 200q-183 84 -135 351z" />
    <glyph glyph-name="Tcaron" unicode="&#x164;" horiz-adv-x="1187" 
d="M571 1032h-387l57 326h1183l-57 -326h-397l-182 -1032h-399zM983 1481h-257l-222 370h311l76 -160l132 160h312z" />
    <glyph glyph-name="tcaron" unicode="&#x165;" horiz-adv-x="849" 
d="M273 658h-144l53 302h143l55 308h361l-55 -308h284l-53 -302h-270l-40 -225q-12 -67 13.5 -97t86.5 -30q87 0 173 33l-33 -299q-46 -24 -128 -42q-83 -18 -161 -18q-71 0 -128 13t-104 41.5t-73.5 73.5t-37 110t6.5 151zM1052 1052h-256l75 462h342z" />
    <glyph glyph-name="Tbar" unicode="&#x166;" horiz-adv-x="1253" 
d="M561 786l43 246h-387l57 326h1183l-57 -326h-397l-43 -246h257l-33 -184h-257l-106 -602h-399l106 602h-247l33 184h247z" />
    <glyph glyph-name="tbar" unicode="&#x167;" horiz-adv-x="872" 
d="M245 400h-119l34 194h120l11 64h-144l53 302h143l55 308h361l-55 -308h284l-53 -302h-270l-11 -64h249l-34 -194h-248q-3 -94 104 -94q87 0 173 33l-33 -299q-46 -24 -128 -42q-83 -18 -161 -18q-71 0 -128 13t-104 41.5t-73.5 73.5t-37 110t6.5 151z" />
    <glyph glyph-name="Utilde" unicode="&#x168;" horiz-adv-x="1451" 
d="M721 -20q-269 0 -406 131t-92 386l151 861h399l-146 -832q-18 -99 25 -152.5t129 -53.5q87 0 149 53.5t80 152.5l146 832h399l-151 -861q-29 -168 -125.5 -287t-239.5 -175q-140 -55 -318 -55zM719 1465l-117 127q155 230 328 230q74 0 136 -46t104 -46q60 0 143 77
l116 -117q-74 -110 -164 -168.5t-171 -58.5q-62 0 -125 45q-62 44 -109 44q-58 0 -141 -87z" />
    <glyph glyph-name="utilde" unicode="&#x169;" horiz-adv-x="1240" 
d="M453 -20q-153 0 -232 93t-52 243l113 644h384l-93 -530q-9 -51 18 -83t79 -32t89.5 32t46.5 83l93 530h384l-169 -960h-350l7 92q-51 -52 -135 -82t-183 -30zM550 1105l-118 127q156 230 329 230q74 0 136 -46t104 -46q59 0 142 77l117 -117q-76 -116 -168 -171
q-92 -56 -168 -56q-62 0 -125 45q-62 44 -109 44q-60 0 -140 -87z" />
    <glyph glyph-name="Umacron" unicode="&#x16a;" horiz-adv-x="1451" 
d="M721 -20q-269 0 -406 131t-92 386l151 861h399l-146 -832q-18 -99 25 -152.5t129 -53.5q87 0 149 53.5t80 152.5l146 832h399l-151 -861q-29 -168 -125.5 -287t-239.5 -175q-140 -55 -318 -55zM1283 1486h-591l41 234h591z" />
    <glyph glyph-name="umacron" unicode="&#x16b;" horiz-adv-x="1240" 
d="M453 -20q-153 0 -232 93t-52 243l113 644h384l-93 -530q-9 -51 18 -83t79 -32t89.5 32t46.5 83l93 530h384l-169 -960h-350l7 92q-51 -52 -135 -82t-183 -30zM1119 1150h-591l41 234h591z" />
    <glyph glyph-name="Ubreve" unicode="&#x16c;" horiz-adv-x="1451" 
d="M721 -20q-269 0 -406 131t-92 386l151 861h399l-146 -832q-18 -99 25 -152.5t129 -53.5q87 0 149 53.5t80 152.5l146 832h399l-151 -861q-29 -168 -125.5 -287t-239.5 -175q-140 -55 -318 -55zM982 1456q-158 0 -235 96q-78 97 -50 257h249q-13 -61 7 -97.5t67 -36.5
q48 0 81 36.5t41 97.5h250q-28 -160 -139 -257q-111 -96 -271 -96z" />
    <glyph glyph-name="ubreve" unicode="&#x16d;" horiz-adv-x="1240" 
d="M453 -20q-153 0 -232 93t-52 243l113 644h384l-93 -530q-9 -51 18 -83t79 -32t89.5 32t46.5 83l93 530h384l-169 -960h-350l7 92q-51 -52 -135 -82t-183 -30zM804 1099q-158 0 -235 96q-78 97 -50 257h249q-13 -61 7 -97.5t67 -36.5q48 0 81 36.5t41 97.5h250
q-28 -160 -139 -257q-111 -96 -271 -96z" />
    <glyph glyph-name="Uring" unicode="&#x16e;" horiz-adv-x="1451" 
d="M721 -20q-269 0 -406 131t-92 386l151 861h399l-146 -832q-18 -99 25 -152.5t129 -53.5q87 0 149 53.5t80 152.5l146 832h399l-151 -861q-29 -168 -125.5 -287t-239.5 -175q-140 -55 -318 -55zM983 1462q-100 0 -154 65q-54 64 -37 163q16 99 95 165q77 66 177 66
q98 0 154 -66q54 -65 37 -165q-16 -97 -95 -162q-78 -66 -177 -66zM994 1729q-19 -17 -23 -37.5t9 -37.5q13 -16 34 -16t39 16q40 37 14 75q-13 17 -34 17t-39 -17z" />
    <glyph glyph-name="uring" unicode="&#x16f;" horiz-adv-x="1240" 
d="M453 -20q-153 0 -232 93t-52 243l113 644h384l-93 -530q-9 -51 18 -83t79 -32t89.5 32t46.5 83l93 530h384l-169 -960h-350l7 92q-51 -52 -135 -82t-183 -30zM797 1060q-100 0 -154 65q-54 64 -37 163q16 99 95 165q77 66 177 66q98 0 154 -66q54 -65 37 -165
q-16 -97 -95 -162q-78 -66 -177 -66zM785 1289q-3 -21 9.5 -37.5t33.5 -16.5t39.5 16.5t21.5 37.5q4 21 -8.5 38t-33.5 17t-39.5 -17t-22.5 -38z" />
    <glyph glyph-name="Uhungarumlaut" unicode="&#x170;" horiz-adv-x="1451" 
d="M721 -20q-269 0 -406 131t-92 386l151 861h399l-146 -832q-18 -99 25 -152.5t129 -53.5q87 0 149 53.5t80 152.5l146 832h399l-151 -861q-29 -168 -125.5 -287t-239.5 -175q-140 -55 -318 -55zM1688 1807l-367 -334h-291l256 334h402zM927 1473h-291l226 334h372z" />
    <glyph glyph-name="uhungarumlaut" unicode="&#x171;" horiz-adv-x="1240" 
d="M453 -20q-153 0 -232 93t-52 243l113 644h384l-93 -530q-9 -51 18 -83t79 -32t89.5 32t46.5 83l93 530h384l-169 -960h-350l7 92q-51 -52 -135 -82t-183 -30zM1517 1447l-367 -334h-291l256 334h402zM1063 1447l-307 -334h-291l226 334h372z" />
    <glyph glyph-name="Uogonek" unicode="&#x172;" horiz-adv-x="1451" 
d="M641 -17q-235 20 -346 149q-112 130 -72 365l151 861h399l-146 -832q-18 -99 25 -152.5t129 -53.5q87 0 149 53.5t80 152.5l146 832h399l-151 -861q-35 -204 -164 -331.5t-330 -167.5q-211 -100 -223 -176q-6 -31 13.5 -49t57.5 -18q63 0 124 27l27 -206
q-102 -57 -240 -57q-128 0 -193 60.5t-48 160.5q24 136 213 243z" />
    <glyph glyph-name="uogonek" unicode="&#x173;" horiz-adv-x="1240" 
d="M453 -20q-153 0 -232 93t-52 243l113 644h384l-93 -530q-9 -51 18 -83t79 -32t89.5 32t46.5 83l93 530h384l-169 -960h-110q-215 -104 -227 -178q-6 -31 13.5 -49t57.5 -18q62 0 124 27l27 -206q-102 -57 -240 -57q-128 0 -193 60.5t-48 160.5q26 147 246 261l7 91
q-51 -52 -135 -82t-183 -30z" />
    <glyph glyph-name="Wcircumflex" unicode="&#x174;" horiz-adv-x="1991" 
d="M825 0h-466l-116 1358h400l53 -892l376 873h320l67 -873l367 892h400l-594 -1358h-466l-67 582zM1283 1631l-133 -160h-311l353 370h257l221 -370h-312z" />
    <glyph glyph-name="wcircumflex" unicode="&#x175;" horiz-adv-x="1612" 
d="M286 0l-104 960h377l36 -565l253 541h246l62 -541l235 565h377l-442 -960h-407l-47 380l-179 -380h-407zM1025 1244l-132 -160h-311l352 370h257l222 -370h-312z" />
    <glyph glyph-name="Ycircumflex" unicode="&#x176;" horiz-adv-x="1430" 
d="M518 0l90 510l-380 848h472l171 -515l355 515h454l-674 -848l-90 -510h-398zM1003 1631l-133 -160h-311l353 370h257l221 -370h-312z" />
    <glyph glyph-name="ycircumflex" unicode="&#x177;" horiz-adv-x="1153" 
d="M224 -420q-146 0 -234 54l104 281q55 -29 113 -29q66 0 113.5 28.5t81.5 95.5l-235 950h398l80 -572l281 572h398l-618 -1078q-88 -155 -204.5 -228.5t-277.5 -73.5zM663 1084h-311l352 370h257l222 -370h-312l-76 160z" />
    <glyph glyph-name="Ydieresis" unicode="&#x178;" horiz-adv-x="1430" 
d="M518 0l90 510l-380 848h472l171 -515l355 515h454l-674 -848l-90 -510h-398zM1171 1484q-73 0 -111.5 46t-25.5 120q14 77 68 122q55 46 128 46q75 0 113.5 -47t25.5 -121q-13 -73 -68.5 -119.5t-129.5 -46.5zM910 1530q-55 -46 -129 -46q-75 0 -112 46q-39 47 -26 120
q14 77 68 122q55 46 129 46t113 -47q38 -48 25 -121q-14 -74 -68 -120z" />
    <glyph glyph-name="Zacute" unicode="&#x179;" horiz-adv-x="1234" 
d="M1183 0h-1129l49 280l766 758h-616l56 320h1102l-50 -288l-757 -741h637zM970 1807h432l-346 -334h-312z" />
    <glyph glyph-name="zacute" unicode="&#x17a;" horiz-adv-x="941" 
d="M898 0h-841l41 230l450 424h-371l54 306h806l-40 -228l-454 -426h409zM727 1447h432l-346 -334h-312z" />
    <glyph glyph-name="Zdotaccent" unicode="&#x17b;" horiz-adv-x="1234" 
d="M1183 0h-1129l49 280l766 758h-616l56 320h1102l-50 -288l-757 -741h637zM882 1453q-94 0 -142 58q-47 58 -31 152q17 95 86 154q68 59 162 59t144 -59q48 -58 31 -154q-16 -93 -86 -152q-68 -58 -164 -58z" />
    <glyph glyph-name="zdotaccent" unicode="&#x17c;" horiz-adv-x="941" 
d="M952 306l-54 -306h-841l41 230l450 424h-371l54 306h806l-40 -228l-454 -426h409zM676 1119q-94 0 -142 58q-47 58 -31 152q17 95 86 154q68 59 162 59t144 -59q48 -58 31 -154q-16 -93 -86 -152q-68 -58 -164 -58z" />
    <glyph glyph-name="Zcaron" unicode="&#x17d;" horiz-adv-x="1234" 
d="M1241 329l-58 -329h-1129l49 280l766 758h-616l56 320h1102l-50 -288l-757 -741h637zM760 1481l-222 370h311l76 -160l132 160h312l-352 -370h-257z" />
    <glyph glyph-name="zcaron" unicode="&#x17e;" horiz-adv-x="941" 
d="M952 306l-54 -306h-841l41 230l450 424h-371l54 306h806l-40 -228l-454 -426h409zM583 1096l-222 370h311l76 -160l132 160h312l-352 -370h-257z" />
    <glyph glyph-name="uni018F" unicode="&#x18f;" horiz-adv-x="1467" 
d="M724 -21q-139 0 -255 47.5t-191 133.5q-76 86 -105 208.5t-5 264.5q13 78 40 154h934q2 105 -67 169q-70 65 -184 65q-175 0 -316 -162l-278 192q117 152 292 240q175 87 362 87q198 3 343 -88t207 -253t24 -361q-34 -197 -152 -359q-119 -161 -288 -249
q-172 -89 -361 -89zM1098 525h-560q-3 -90 66 -146q69 -57 182 -57q108 0 196 58q87 56 116 145z" />
    <glyph glyph-name="florin" unicode="&#x192;" horiz-adv-x="1211" 
d="M27 38l127 273q35 -25 98 -25q158 0 198 121l62 194h-146l96 298h145l28 87q59 180 211 286q151 106 349 106q60 0 121 -16q65 -17 100 -38l-134 -270q-47 32 -111 32q-67 0 -118 -32t-68 -85l-23 -70h258l-96 -298h-243l-73 -226q-59 -185 -207 -290t-349 -105
q-60 0 -125 18q-68 19 -100 40z" />
    <glyph glyph-name="uni019D" unicode="&#x19d;" horiz-adv-x="1592" 
d="M57 -420q-147 0 -233 47l83 288q51 -23 115 -23q109 0 131 127l236 1339h325l452 -725l127 725h388l-239 -1358h-311l-465 727l-131 -745q-21 -120 -87 -206.5t-159 -136.5q-112 -59 -232 -59z" />
    <glyph glyph-name="Gcaron" unicode="&#x1e6;" horiz-adv-x="1500" 
d="M786 -20q-210 0 -361 92q-151 91 -215 251q-64 157 -29 357q26 147 102.5 276.5t189.5 223.5t258.5 146t301.5 52q178 0 317 -82q138 -82 201 -225l-326 -201q-31 77 -96.5 118t-157.5 41q-148 0 -253 -96q-104 -95 -133 -252q-27 -156 46 -253q72 -99 217 -99
q97 0 169 41t111 119h-298l52 292h700q-4 -54 -18 -128q-56 -310 -270 -491q-217 -182 -508 -182zM1170 1481h-257l-222 370h311l76 -160l132 160h312z" />
    <glyph glyph-name="gcaron" unicode="&#x1e7;" horiz-adv-x="1265" 
d="M30 -235l237 232q89 -104 242 -104q89 0 166 47q75 46 87 117l6 32q-104 -89 -272 -89q-189 0 -287 140q-100 140 -62 349q38 213 185 351q149 140 337 140q167 0 237 -109l24 89h382l-161 -913q-26 -141 -117 -242t-222 -156q-162 -69 -346 -69q-162 0 -274 57t-162 128
zM645 1095l-222 370h311l76 -160l132 160h312l-352 -370h-257zM510 490q-13 -75 26.5 -121.5t116.5 -46.5q75 0 129.5 46.5t67.5 121.5q14 76 -24.5 123t-113.5 47q-77 0 -133 -47q-55 -47 -69 -123z" />
    <glyph glyph-name="uni01EA" unicode="&#x1ea;" horiz-adv-x="1560" 
d="M693 -16q-180 15 -309 109t-183.5 248.5t-18.5 339.5q55 307 292 502q236 195 552 195q152 0 276 -51t203 -143q79 -93 109.5 -223.5t3.5 -280.5q-47 -261 -224 -443q-178 -184 -430 -238q-101 -48 -160.5 -94.5t-65.5 -82.5q-6 -31 13.5 -49t57.5 -18q63 0 124 27
l27 -206q-102 -57 -240 -57q-128 0 -193 60.5t-48 160.5q25 138 214 244zM587 680q-27 -154 44 -249q71 -96 213 -96q139 0 241 96q102 95 129 249q27 151 -41 246q-69 94 -208 94q-143 0 -246 -94q-105 -94 -132 -246z" />
    <glyph glyph-name="uni01EB" unicode="&#x1eb;" horiz-adv-x="1168" 
d="M478 -12q-190 30 -281 163t-57 329q39 222 210 362q171 138 407 138q235 0 358 -138q122 -140 83 -362q-33 -183 -156 -310q-122 -128 -302 -172q-100 -48 -159 -94t-65 -82q-6 -31 13.5 -49t57.5 -18q63 0 124 27l27 -206q-102 -57 -240 -57q-128 0 -193 60.5t-48 160.5
q25 139 221 248zM572 610q-55 -49 -69 -130t23 -130q38 -50 111 -50t129 50q55 49 69 130t-23 130t-112 49t-128 -49z" />
    <glyph glyph-name="Aringacute" unicode="&#x1fa;" horiz-adv-x="1487" 
d="M538 227l-128 -227h-426l761 1358h476l282 -1358h-426l-48 227h-491zM1001 1462q-100 0 -154 65q-54 64 -37 163q16 99 95 165q77 66 177 66q98 0 154 -66q54 -65 37 -165q-16 -97 -95 -162q-78 -66 -177 -66zM1242 1962h-312l226 334h432zM917 982l-236 -454h311z
M1012 1729q-19 -17 -23 -37.5t9 -37.5q13 -16 34 -16t39 16q40 37 14 75q-13 17 -34 17t-39 -17z" />
    <glyph glyph-name="aringacute" unicode="&#x1fb;" horiz-adv-x="1119" 
d="M389 -20q-145 0 -221 81q-77 82 -55 208q16 93 89 163q70 67 164 99q93 30 193 30q93 0 162 -19v3q9 56 -25.5 89.5t-105.5 33.5q-117 0 -236 -95l-152 219q73 69 205 128q132 60 273 60q110 0 194 -25.5t143 -78t81 -139.5t2 -203l-94 -534h-354l17 98q-47 -57 -125 -88
q-78 -30 -155 -30zM736 1060q-100 0 -154 65q-54 64 -37 163q16 99 95 165q76 66 177 66q99 0 154 -66q54 -65 37 -165q-16 -97 -95 -162q-78 -66 -177 -66zM974 1567h-312l226 334h432zM468 291q-5 -29 15 -46.5t57 -17.5q55 0 96 34t50 86q-36 16 -94 16
q-49 0 -83.5 -19.5t-40.5 -52.5zM724 1289q-3 -21 9.5 -37.5t33.5 -16.5t39.5 16.5t21.5 37.5q4 21 -8.5 38t-33.5 17t-39.5 -17t-22.5 -38z" />
    <glyph glyph-name="AEacute" unicode="&#x1fc;" horiz-adv-x="2071" 
d="M355 0h-425l981 1358h1233l-56 -320h-594l-33 -188h521l-56 -319h-521l-38 -212h604l-56 -319h-1002l40 227h-432zM1770 1473h-312l226 334h432zM1006 528l94 534l-382 -534h288z" />
    <glyph glyph-name="aeacute" unicode="&#x1fd;" horiz-adv-x="1634" 
d="M450 -20q-172 0 -265 81t-71 208q16 93 89 163q70 67 164 99q93 30 193 30q93 0 162 -19v3q9 56 -25.5 89.5t-105.5 33.5q-117 0 -236 -95l-152 219q73 69 205 128q132 60 273 60q190 0 271 -119q145 119 326 119q94 0 174.5 -32.5t135.5 -91.5t77 -144t5 -181
q-10 -57 -37 -123h-585q-4 -64 37.5 -98t111.5 -34q120 0 213 95l181 -194q-55 -70 -184 -133q-129 -64 -284 -64q-208 0 -318 140q-146 -140 -355 -140zM1509 1447l-346 -334h-312l226 334h432zM1079 582h251q8 47 -21 83q-29 35 -80 35q-53 0 -94 -34q-42 -33 -56 -84z
M471 300q-5 -29 15 -46.5t57 -17.5q55 0 96 34t50 86q-36 16 -94 16q-49 0 -83.5 -19.5t-40.5 -52.5z" />
    <glyph glyph-name="Oslashacute" unicode="&#x1fe;" horiz-adv-x="1560" 
d="M194 -25l140 161q-102 96 -142 236t-10 309q55 307 292 502q236 195 552 195q187 0 327 -74l139 160l113 -88l-136 -155q101 -94 140 -234t9 -307q-36 -203 -156 -364q-119 -159 -298 -248q-177 -88 -385 -88q-189 0 -329 74l-147 -168zM614 457l470 539q-51 24 -119 24
q-143 0 -246 -94q-105 -94 -132 -246q-24 -131 27 -223zM1189 900l-471 -539q57 -26 126 -26q139 0 241 96q102 95 129 249q24 129 -25 220zM1218 1473h-312l226 334h432z" />
    <glyph glyph-name="oslashacute" unicode="&#x1ff;" horiz-adv-x="1168" 
d="M319 41l-181 -182l-88 83l173 175q-124 140 -83 363q39 222 210 362q171 138 407 138q152 0 260 -60l181 183l90 -85l-174 -176q123 -137 84 -362q-40 -223 -211 -361q-170 -139 -407 -139q-152 0 -261 61zM1279 1447l-346 -334h-312l226 334h432zM834 560l-250 -252
q27 -8 53 -8q73 0 129 50q55 49 69 130q7 40 -1 80zM503 400l248 251q-26 8 -51 8q-75 0 -128 -49q-55 -49 -69 -130q-8 -44 0 -80z" />
    <glyph glyph-name="uni0218" unicode="&#x218;" horiz-adv-x="1270" 
d="M118 294l320 199q44 -89 117.5 -136t167.5 -47q65 0 113 25.5t55 63.5q8 42 -32 64q-41 23 -168 63q-21 7 -28 9q-98 31 -157 58q-65 30 -126 77q-129 98 -95 293q22 122 114 220q93 97 217 146q125 49 261 49q178 0 295 -75.5t186 -222.5l-304 -188q-31 72 -94 114.5
t-145 42.5q-56 0 -96.5 -22.5t-47.5 -62.5q-8 -40 31 -67.5t130 -55.5q98 -29 164 -54q60 -23 131 -64q62 -37 98 -82q77 -96 52 -243q-18 -98 -79.5 -180.5t-150.5 -133.5q-182 -104 -386 -104q-199 0 -339 81.5t-204 232.5zM661 -548h-256l75 462h342z" />
    <glyph glyph-name="uni0219" unicode="&#x219;" horiz-adv-x="986" 
d="M80 161l244 197q33 -46 91 -72.5t126 -26.5q39 0 63.5 11t28.5 30q5 12 -10.5 21t-46.5 19q-6 2 -28.5 8t-46 12.5t-39.5 11.5q-134 40 -205 112q-69 70 -49 187q24 133 153 222q127 87 303 87q254 0 366 -166l-233 -202q-26 38 -74 63.5t-94 25.5q-80 0 -86 -35
q-2 -14 10.5 -24t41.5 -19q11 -4 68 -22q8 -3 22 -7.5t21 -6.5q107 -35 172 -77q38 -25 62 -55q52 -65 36 -157q-26 -141 -164 -229q-140 -89 -318 -89q-291 0 -414 181zM649 -86l-161 -462h-256l75 462h342z" />
    <glyph glyph-name="uni021A" unicode="&#x21a;" horiz-adv-x="1187" 
d="M389 0l182 1032h-387l57 326h1183l-57 -326h-397l-182 -1032h-399zM747 -86l-161 -462h-256l75 462h342z" />
    <glyph glyph-name="uni021B" unicode="&#x21b;" horiz-adv-x="861" 
d="M285 658h-144l53 302h143l55 308h361l-55 -308h284l-53 -302h-270l-40 -225q-12 -67 13.5 -97t86.5 -30q88 0 173 33l-33 -299q-46 -24 -128 -42q-83 -18 -161 -18q-71 0 -128 13t-104 41.5t-73.5 73.5t-37 110t6.5 151zM607 -86l-161 -462h-256l75 462h342z" />
    <glyph glyph-name="uni0232" unicode="&#x232;" horiz-adv-x="1430" 
d="M518 0l90 510l-380 848h472l171 -515l355 515h454l-674 -848l-90 -510h-398zM1314 1720l-41 -234h-591l41 234h591z" />
    <glyph glyph-name="uni0233" unicode="&#x233;" horiz-adv-x="1153" 
d="M224 -420q-146 0 -234 54l104 281q55 -29 113 -29q66 0 113.5 28.5t81.5 95.5l-235 950h398l80 -572l281 572h398l-618 -1078q-88 -155 -204.5 -228.5t-277.5 -73.5zM1116 1384l-41 -234h-591l41 234h591z" />
    <glyph glyph-name="uni0237" unicode="&#x237;" horiz-adv-x="599" 
d="M-226 -373l83 288q51 -23 115 -23q109 0 131 127l166 941h373l-172 -978q-21 -120 -85 -206.5t-154 -136.5q-108 -59 -224 -59q-147 0 -233 47z" />
    <glyph glyph-name="uni0259" unicode="&#x259;" horiz-adv-x="1106" 
d="M466 -20q-128 -3 -228.5 54.5t-148.5 162.5t-24 232q11 59 36 123h605q4 64 -40 98t-118 34q-126 0 -217 -102l-188 201q54 68 188 134q132 63 290 63q228 0 350 -140q120 -141 81 -362q-37 -214 -202 -356q-163 -142 -384 -142zM676 378h-271q-8 -47 24 -82
q31 -36 86 -36t102 35q45 33 59 83z" />
    <glyph glyph-name="uni0272" unicode="&#x272;" horiz-adv-x="1240" 
d="M-160 -373l83 288q41 -23 95 -23q89 0 111 127l166 941h350l-7 -92q52 52 136 82t182 30q152 0 232 -93q79 -92 53 -243l-114 -644h-384l93 530q9 51 -17.5 83t-78.5 32t-90 -32t-47 -83l-96 -548q-21 -120 -84 -206.5t-151 -136.5q-107 -59 -219 -59q-136 0 -213 47z
" />
    <glyph glyph-name="circumflex" unicode="&#x2c6;" horiz-adv-x="1079" 
d="M694 1471h-311l353 370h257l221 -370h-312l-75 160z" />
    <glyph glyph-name="caron" unicode="&#x2c7;" horiz-adv-x="1079" 
d="M929 1481h-257l-222 370h311l76 -160l132 160h312z" />
    <glyph glyph-name="breve" unicode="&#x2d8;" horiz-adv-x="923" 
d="M718 1456q-158 0 -235 96q-78 97 -50 257h249q-13 -61 7 -97.5t67 -36.5q48 0 81 36.5t41 97.5h250q-28 -160 -139 -257q-111 -96 -271 -96z" />
    <glyph glyph-name="dotaccent" unicode="&#x2d9;" horiz-adv-x="671" 
d="M590 1453q-94 0 -142 58q-47 58 -31 152q17 95 86 154q68 59 162 59t144 -59q48 -58 31 -154q-16 -93 -86 -152q-68 -58 -164 -58z" />
    <glyph glyph-name="ring" unicode="&#x2da;" horiz-adv-x="711" 
d="M613 1462q-100 0 -154 65q-54 64 -37 163q16 99 95 165q77 66 177 66q98 0 154 -66q54 -65 37 -165q-16 -97 -95 -162q-78 -66 -177 -66zM624 1729q-19 -17 -23 -37.5t9 -37.5q13 -16 34 -16t39 16q40 37 14 75q-13 17 -34 17t-39 -17z" />
    <glyph glyph-name="ogonek" unicode="&#x2db;" horiz-adv-x="706" 
d="M300 -481q-128 0 -193 60.5t-48 160.5q32 176 328 299l158 -39q-215 -104 -227 -178q-6 -31 13.5 -49t57.5 -18q63 0 124 27l27 -206q-102 -57 -240 -57z" />
    <glyph glyph-name="tilde" unicode="&#x2dc;" horiz-adv-x="1058" 
d="M522 1465l-117 127q155 230 328 230q74 0 136 -46t104 -46q60 0 143 77l116 -117q-74 -110 -164 -168.5t-171 -58.5q-62 0 -125 45q-62 44 -109 44q-59 0 -141 -87z" />
    <glyph glyph-name="hungarumlaut" unicode="&#x2dd;" horiz-adv-x="1271" 
d="M1089 1473h-291l256 334h402zM1002 1807l-307 -334h-291l226 334h372z" />
    <glyph glyph-name="acutecomb" unicode="&#x301;" horiz-adv-x="847" 
d="M692 2277h432l-345 -334h-312z" />
    <glyph glyph-name="uni030A" unicode="&#x30a;" horiz-adv-x="711" 
d="M613 1462q-100 0 -154 65q-54 64 -37 163q16 99 95 165q77 66 177 66q98 0 154 -66q54 -65 37 -165q-16 -97 -95 -162q-78 -66 -177 -66zM624 1729q-19 -17 -23 -37.5t9 -37.5q13 -16 34 -16t39 16q40 37 14 75q-13 17 -34 17t-39 -17z" />
    <glyph glyph-name="dotbelowcomb" unicode="&#x323;" horiz-adv-x="649" 
d="M237 -481q-81 0 -129 58q-49 58 -35 136q15 83 85 141q71 59 149 59q83 0 132 -61q49 -59 35 -139q-13 -81 -86 -138q-73 -56 -151 -56z" />
    <glyph glyph-name="uni0326" unicode="&#x326;" horiz-adv-x="590" 
d="M290 -548h-256l75 462h342z" />
    <glyph glyph-name="uni03BC" unicode="&#x3bc;" horiz-adv-x="1253" 
d="M424 -399h-368l239 1359h384l-93 -530q-9 -51 18 -83t79 -32t89.5 32t46.5 83l93 530h384l-169 -960h-350l7 92q-49 -49 -125.5 -78t-167.5 -33z" />
    <glyph glyph-name="pi" unicode="&#x3c0;" horiz-adv-x="1404" 
d="M170 -2l141 804h-159l58 327h1340q-37 -211 -59 -327h-151l-71 -404q-10 -55 24 -79.5t98 -14.5l-56 -314q-9 -4 -50 -7t-57 -3q-191 0 -282 91q-93 91 -60 282l79 449h-279l-141 -804h-375z" />
    <glyph glyph-name="Wgrave" unicode="&#x1e80;" horiz-adv-x="1991" 
d="M825 0h-466l-116 1358h400l53 -892l376 873h320l67 -873l367 892h400l-594 -1358h-466l-67 582zM1089 1473l-228 334h432l108 -334h-312z" />
    <glyph glyph-name="wgrave" unicode="&#x1e81;" horiz-adv-x="1612" 
d="M286 0l-104 960h377l36 -565l253 541h246l62 -541l235 565h377l-442 -960h-407l-47 380l-179 -380h-407zM844 1121l-228 334h432l108 -334h-312z" />
    <glyph glyph-name="Wacute" unicode="&#x1e82;" horiz-adv-x="1991" 
d="M825 0h-466l-116 1358h400l53 -892l376 873h320l67 -873l367 892h400l-594 -1358h-466l-67 582zM1773 1807l-346 -334h-312l226 334h432z" />
    <glyph glyph-name="wacute" unicode="&#x1e83;" horiz-adv-x="1612" 
d="M693 0h-407l-104 960h377l36 -565l253 541h246l62 -541l235 565h377l-442 -960h-407l-47 380zM1196 1113h-312l226 334h432z" />
    <glyph glyph-name="Wdieresis" unicode="&#x1e84;" horiz-adv-x="1991" 
d="M825 0h-466l-116 1358h400l53 -892l376 873h320l67 -873l367 892h400l-594 -1358h-466l-67 582zM1452 1484q-73 0 -111.5 46t-25.5 120q14 77 68 122q55 46 128 46q75 0 113.5 -47t25.5 -121q-13 -73 -68.5 -119.5t-129.5 -46.5zM1191 1530q-55 -46 -129 -46
q-75 0 -112 46q-39 47 -26 120q14 77 68 122q55 46 129 46t113 -47q38 -48 25 -121q-14 -74 -68 -120z" />
    <glyph glyph-name="wdieresis" unicode="&#x1e85;" horiz-adv-x="1612" 
d="M693 0h-407l-104 960h377l36 -565l253 541h246l62 -541l235 565h377l-442 -960h-407l-47 380zM1202 1147q-73 0 -111 46t-25 120q14 77 68 122q53 46 127 46q75 0 114 -47t26 -121q-14 -74 -68 -120q-55 -46 -131 -46zM942 1193q-55 -46 -130 -46t-112 46q-38 48 -25 120
q14 77 68 122q53 46 128 46q74 0 113 -47q40 -47 26 -121t-68 -120z" />
    <glyph glyph-name="Germandbls" unicode="&#x1e9e;" horiz-adv-x="1472" 
d="M658 790l-139 -790h-385l145 822q28 157 130 284q101 126 258 200q156 72 336 72q102 0 195 -26.5t158 -70.5q118 -80 168 -170l-28 -161l-307 -198q155 -13 238 -115q82 -99 53 -261q-30 -171 -178 -283q-149 -113 -341 -113q-251 0 -365 157l263 226q41 -60 114 -60
q49 0 87 31.5t47 79.5q10 55 -29.5 86.5t-115.5 31.5h-208l39 221l340 233q-56 65 -186 65q-105 0 -187 -74q-82 -73 -102 -187z" />
    <glyph glyph-name="uni1EA0" unicode="&#x1ea0;" horiz-adv-x="1487" 
d="M538 227l-128 -227h-426l761 1358h476l282 -1358h-426l-48 227h-491zM656 -481q-81 0 -129 58q-49 58 -35 136q15 83 85 141q71 59 149 59q83 0 132 -61q49 -59 35 -139q-13 -81 -86 -138q-73 -56 -151 -56zM917 982l-236 -454h311z" />
    <glyph glyph-name="uni1EA1" unicode="&#x1ea1;" horiz-adv-x="1119" 
d="M389 -20q-145 0 -221 81q-77 82 -55 208q16 93 89 163q70 67 164 99q93 30 193 30q93 0 162 -19v3q9 56 -25.5 89.5t-105.5 33.5q-117 0 -236 -95l-152 219q73 69 205 128q132 60 273 60q110 0 194 -25.5t143 -78t81 -139.5t2 -203l-94 -534h-354l17 98q-47 -57 -125 -88
q-78 -30 -155 -30zM482 -481q-81 0 -129 58q-49 58 -35 136q15 83 85 141q71 59 149 59q83 0 132 -61q49 -59 35 -139q-13 -81 -86 -138q-73 -56 -151 -56zM468 291q-5 -29 15 -46.5t57 -17.5q55 0 96 34t50 86q-36 16 -94 16q-49 0 -83.5 -19.5t-40.5 -52.5z" />
    <glyph glyph-name="uni1EB8" unicode="&#x1eb8;" horiz-adv-x="1213" 
d="M1208 319l-56 -319h-1002l239 1358h992l-56 -320h-594l-33 -188h521l-56 -319h-521l-38 -212h604zM577 -481q-81 0 -129 58q-49 58 -35 136q15 83 85 141q71 59 149 59q83 0 132 -61q49 -59 35 -139q-13 -81 -86 -138q-73 -56 -151 -56z" />
    <glyph glyph-name="uni1EB9" unicode="&#x1eb9;" horiz-adv-x="1092" 
d="M572 -20q-229 0 -349 141q-121 139 -82 361q37 213 202 357q163 141 384 141q96 0 179 -33t138 -91q56 -59 79 -144.5t6 -180.5q-10 -57 -37 -123h-605q-4 -64 40.5 -98t118.5 -34q126 0 217 102l187 -201q-55 -69 -188 -133q-131 -64 -290 -64zM489 -481q-81 0 -129 58
q-49 58 -35 136q15 83 85 141q71 59 149 59q83 0 132 -61q49 -59 35 -139q-13 -81 -86 -138q-73 -56 -151 -56zM678 700q-55 0 -101 -35q-45 -33 -59 -83h271q8 47 -24 83q-32 35 -87 35z" />
    <glyph glyph-name="uni1EBC" unicode="&#x1ebc;" horiz-adv-x="1213" 
d="M1152 0h-1002l239 1358h992l-56 -320h-594l-33 -188h521l-56 -319h-521l-38 -212h604zM652 1465l-117 127q155 230 328 230q74 0 136 -46t104 -46q60 0 143 77l116 -117q-74 -110 -164 -168.5t-171 -58.5q-62 0 -125 45q-62 44 -109 44q-59 0 -141 -87z" />
    <glyph glyph-name="uni1EBD" unicode="&#x1ebd;" horiz-adv-x="1092" 
d="M572 -20q-229 0 -349 141q-121 139 -82 361q37 213 202 357q163 141 384 141q96 0 179 -33t138 -91q56 -59 79 -144.5t6 -180.5q-10 -57 -37 -123h-605q-4 -64 40.5 -98t118.5 -34q126 0 217 102l187 -201q-55 -69 -188 -133q-131 -64 -290 -64zM476 1105l-118 127
q156 230 329 230q74 0 136 -46t104 -46q59 0 142 77l117 -117q-76 -116 -168 -171q-92 -56 -168 -56q-62 0 -125 45q-62 44 -109 44q-60 0 -140 -87zM518 582h271q8 47 -24 83q-32 35 -87 35t-101 -35q-45 -33 -59 -83z" />
    <glyph glyph-name="uni1ECA" unicode="&#x1eca;" horiz-adv-x="699" 
d="M788 1358l-239 -1358h-399l239 1358h399zM262 -481q-81 0 -129 58q-49 58 -35 136q15 83 85 141q71 59 149 59q83 0 132 -61q49 -59 35 -139q-13 -81 -86 -138q-73 -56 -151 -56z" />
    <glyph glyph-name="uni1ECB" unicode="&#x1ecb;" horiz-adv-x="636" 
d="M679 960l-169 -960h-384l169 960h384zM513 1119q-94 0 -142 58q-47 58 -31 152q17 95 86 154q68 59 162 59t144 -59q48 -58 31 -154q-16 -93 -86 -152q-68 -58 -164 -58zM230 -481q-81 0 -129 58q-49 58 -35 136q15 83 85 141q71 59 149 59q83 0 132 -61q49 -59 35 -139
q-13 -81 -86 -138q-73 -56 -151 -56z" />
    <glyph glyph-name="uni1ECC" unicode="&#x1ecc;" horiz-adv-x="1560" 
d="M779 -20q-153 -2 -278.5 50.5t-205 145t-111 224t-2.5 281.5q55 307 292 502q236 195 552 195q152 0 276 -51t203 -143q79 -93 109.5 -223.5t3.5 -280.5q-36 -203 -156 -364q-119 -159 -298 -248q-177 -88 -385 -88zM587 680q-27 -154 44 -249q71 -96 213 -96
q139 0 241 96q102 95 129 249q27 151 -41 246q-69 94 -208 94q-143 0 -246 -94q-105 -94 -132 -246zM693 -481q-81 0 -129 58q-49 58 -35 136q15 83 85 141q71 59 149 59q83 0 132 -61q49 -59 35 -139q-13 -81 -86 -138q-73 -56 -151 -56z" />
    <glyph glyph-name="uni1ECD" unicode="&#x1ecd;" horiz-adv-x="1168" 
d="M987 119q-170 -139 -407 -139t-358 139q-122 139 -82 361q39 222 210 362q171 138 407 138q235 0 358 -138q122 -140 83 -362q-40 -223 -211 -361zM497 -481q-81 0 -129 58q-49 58 -35 136q15 83 85 141q71 59 149 59q83 0 132 -61q49 -59 35 -139q-13 -81 -86 -138
q-73 -56 -151 -56zM572 610q-55 -49 -69 -130t23 -130q38 -50 111 -50t129 50q55 49 69 130t-23 130t-112 49t-128 -49z" />
    <glyph glyph-name="uni1EE4" unicode="&#x1ee4;" horiz-adv-x="1451" 
d="M721 -20q-269 0 -406 131t-92 386l151 861h399l-146 -832q-18 -99 25 -152.5t129 -53.5q87 0 149 53.5t80 152.5l146 832h399l-151 -861q-29 -168 -125.5 -287t-239.5 -175q-140 -55 -318 -55zM638 -481q-81 0 -129 58q-49 58 -35 136q15 83 85 141q71 59 149 59
q83 0 132 -61q49 -59 35 -139q-13 -81 -86 -138q-73 -56 -151 -56z" />
    <glyph glyph-name="uni1EE5" unicode="&#x1ee5;" horiz-adv-x="1240" 
d="M453 -20q-153 0 -232 93t-52 243l113 644h384l-93 -530q-9 -51 18 -83t79 -32t89.5 32t46.5 83l93 530h384l-169 -960h-350l7 92q-51 -52 -135 -82t-183 -30zM567 -481q-81 0 -129 58q-49 58 -35 136q15 83 85 141q71 59 149 59q83 0 132 -61q49 -59 35 -139
q-13 -81 -86 -138q-73 -56 -151 -56z" />
    <glyph glyph-name="Ygrave" unicode="&#x1ef2;" horiz-adv-x="1430" 
d="M608 510l-380 848h472l171 -515l355 515h454l-674 -848l-90 -510h-398zM833 1473l-228 334h432l108 -334h-312z" />
    <glyph glyph-name="ygrave" unicode="&#x1ef3;" horiz-adv-x="1153" 
d="M224 -420q-146 0 -234 54l104 281q55 -29 113 -29q66 0 113.5 28.5t81.5 95.5l-235 950h398l80 -572l281 572h398l-618 -1078q-88 -155 -204.5 -228.5t-277.5 -73.5zM929 1121h-312l-228 334h432z" />
    <glyph glyph-name="uni1EF8" unicode="&#x1ef8;" horiz-adv-x="1430" 
d="M518 0l90 510l-380 848h472l171 -515l355 515h454l-674 -848l-90 -510h-398zM708 1465l-117 127q155 230 328 230q74 0 136 -46t104 -46q60 0 143 77l116 -117q-74 -110 -164 -168.5t-171 -58.5q-62 0 -125 45q-62 44 -109 44q-59 0 -141 -87z" />
    <glyph glyph-name="uni1EF9" unicode="&#x1ef9;" horiz-adv-x="1153" 
d="M224 -420q-146 0 -234 54l104 281q55 -29 113 -29q66 0 113.5 28.5t81.5 95.5l-235 950h398l80 -572l281 572h398l-618 -1078q-88 -155 -204.5 -228.5t-277.5 -73.5zM507 1105l-118 127q156 230 329 230q74 0 136 -46t104 -46q59 0 142 77l117 -117q-77 -116 -168 -171
q-92 -56 -168 -56q-62 0 -125 45q-62 44 -109 44q-61 0 -140 -87z" />
    <glyph glyph-name="uni2000" unicode="&#x2000;" horiz-adv-x="1148" 
 />
    <glyph glyph-name="uni2001" unicode="&#x2001;" horiz-adv-x="2296" 
 />
    <glyph glyph-name="uni2002" unicode="&#x2002;" horiz-adv-x="1148" 
 />
    <glyph glyph-name="uni2003" unicode="&#x2003;" horiz-adv-x="2296" 
 />
    <glyph glyph-name="uni2004" unicode="&#x2004;" horiz-adv-x="765" 
 />
    <glyph glyph-name="uni2005" unicode="&#x2005;" horiz-adv-x="574" 
 />
    <glyph glyph-name="uni2006" unicode="&#x2006;" horiz-adv-x="382" 
 />
    <glyph glyph-name="uni2007" unicode="&#x2007;" horiz-adv-x="382" 
 />
    <glyph glyph-name="uni2008" unicode="&#x2008;" horiz-adv-x="287" 
 />
    <glyph glyph-name="uni2009" unicode="&#x2009;" horiz-adv-x="459" 
 />
    <glyph glyph-name="uni200A" unicode="&#x200a;" horiz-adv-x="127" 
 />
    <glyph glyph-name="uni2010" unicode="&#x2010;" horiz-adv-x="965" 
d="M218 668h765l-49 -274h-765z" />
    <glyph glyph-name="uni2011" unicode="&#x2011;" horiz-adv-x="965" 
d="M218 668h765l-49 -274h-765z" />
    <glyph glyph-name="figuredash" unicode="&#x2012;" horiz-adv-x="965" 
d="M218 668h765l-49 -274h-765z" />
    <glyph glyph-name="endash" unicode="&#x2013;" horiz-adv-x="1243" 
d="M218 668h1043l-49 -274h-1043z" />
    <glyph glyph-name="emdash" unicode="&#x2014;" horiz-adv-x="2258" 
d="M218 668h2058l-49 -274h-2058z" />
    <glyph glyph-name="quoteleft" unicode="&#x2018;" horiz-adv-x="571" 
d="M791 1428l-228 -516h-352l289 516h291z" />
    <glyph glyph-name="quoteright" unicode="&#x2019;" horiz-adv-x="563" 
d="M219 912l228 516h352l-289 -516h-291z" />
    <glyph glyph-name="quotesinglbase" unicode="&#x201a;" horiz-adv-x="557" 
d="M-61 -284l228 516h352l-289 -516h-291z" />
    <glyph glyph-name="quotedblleft" unicode="&#x201c;" horiz-adv-x="1021" 
d="M1013 912h-352l289 516h291zM791 1428l-228 -516h-352l289 516h291z" />
    <glyph glyph-name="quotedblright" unicode="&#x201d;" horiz-adv-x="1013" 
d="M960 912h-291l228 516h352zM510 912h-291l228 516h352z" />
    <glyph glyph-name="quotedblbase" unicode="&#x201e;" horiz-adv-x="1012" 
d="M680 -284h-291l228 516h352zM230 -284h-291l228 516h352z" />
    <glyph glyph-name="dagger" unicode="&#x2020;" horiz-adv-x="822" 
d="M464 1126h-223l44 250h223l41 232h291l-41 -232h225l-44 -250h-225l-110 -619h-291z" />
    <glyph glyph-name="daggerdbl" unicode="&#x2021;" horiz-adv-x="893" 
d="M384 477l34 191h-223l44 251h223l49 275h-223l44 251h223l34 193h291l-34 -193h225l-44 -251h-225l-49 -275h225l-44 -251h-225l-34 -191h-291z" />
    <glyph glyph-name="bullet" unicode="&#x2022;" horiz-adv-x="852" 
d="M485 341q-139 0 -215 93q-78 93 -54 228t134 229q110 92 248 92t218 -92q79 -92 55 -229q-24 -135 -135 -228q-112 -93 -251 -93z" />
    <glyph glyph-name="ellipsis" unicode="&#x2026;" horiz-adv-x="1588" 
d="M1467 37q-69 -57 -154 -57t-132 57q-47 56 -33 139q15 83 83 140q67 57 152 57t133 -57t33 -140q-13 -81 -82 -139zM942 37q-69 -57 -154 -57q-86 0 -132 57q-47 56 -33 139q15 83 83 140t152 57q85 0 133 -57t33 -140q-13 -81 -82 -139zM420 37q-69 -57 -154 -57
q-86 0 -132 57q-47 56 -33 139q15 83 83 140t152 57q85 0 133 -57t33 -140q-13 -81 -82 -139z" />
    <glyph glyph-name="uni202F" unicode="&#x202f;" horiz-adv-x="459" 
 />
    <glyph glyph-name="perthousand" unicode="&#x2030;" horiz-adv-x="2587" 
d="M811 736q-125 -105 -291 -105t-252 104q-88 104 -59 265q29 165 153 271t290 106t254 -106q87 -106 58 -271q-28 -160 -153 -264zM1644 85q-124 -105 -291 -105q-166 0 -252 104q-87 103 -58 265q29 165 153 271q122 106 289 106q166 0 254 -106t59 -271
q-28 -160 -154 -264zM2459 85q-125 -105 -291 -105t-252 104q-87 103 -58 265q29 165 153 271q122 106 289 106q166 0 254 -106t59 -271q-28 -160 -154 -264zM1599 1334l-967 -1334h-227l5 26l968 1332h225zM2120 350q-10 -53 15.5 -87.5t75.5 -34.5q51 0 89.5 34.5
t48.5 87.5q9 54 -17.5 88.5t-77.5 34.5q-50 0 -87.5 -34.5t-46.5 -88.5zM1305 350q-10 -53 15.5 -87.5t75.5 -34.5q51 0 89.5 34.5t48.5 87.5q9 54 -17.5 88.5t-77.5 34.5q-50 0 -87.5 -34.5t-46.5 -88.5zM472 1001q-10 -53 15.5 -87.5t75.5 -34.5q51 0 89.5 34.5t48.5 87.5
q9 54 -17.5 88.5t-77.5 34.5q-50 0 -87.5 -34.5t-46.5 -88.5z" />
    <glyph glyph-name="guilsinglleft" unicode="&#x2039;" horiz-adv-x="739" 
d="M689 84h-335l-203 395l342 394h335l-324 -394z" />
    <glyph glyph-name="guilsinglright" unicode="&#x203a;" horiz-adv-x="739" 
d="M756 478l-341 -394h-335l323 394l-184 395h335z" />
    <glyph glyph-name="fraction" unicode="&#x2044;" horiz-adv-x="388" 
d="M-56 0h-227l5 26l968 1332h225l-4 -24z" />
    <glyph glyph-name="uni205F" unicode="&#x205f;" horiz-adv-x="574" 
 />
    <glyph glyph-name="uni2070" unicode="&#x2070;" horiz-adv-x="822" 
d="M532 514q-91 0 -155.5 33.5t-96.5 92t-42 137.5t9 170q34 188 147 310q112 121 290 121q73 0 129 -22t90 -61.5t54 -94t20.5 -118.5t-10.5 -135q-45 -261 -223 -374q-94 -59 -212 -59zM489 947q-20 -94 -1 -162q18 -72 79 -72q60 0 100 67q40 65 58 167q35 232 -76 232
q-61 0 -102 -68q-42 -70 -58 -164z" />
    <glyph glyph-name="uni2074" unicode="&#x2074;" horiz-adv-x="756" 
d="M524 724h-370l25 142l429 492h255l-79 -453h111l-32 -181h-111l-34 -190h-228zM556 905l36 204l-178 -204h142z" />
    <glyph glyph-name="uni2075" unicode="&#x2075;" horiz-adv-x="701" 
d="M431 515q-64 0 -117 18t-82 46q-58 54 -70 97l-6 19l192 99q1 -3 3.5 -8.5t11.5 -19.5t19.5 -24.5t30 -19t41.5 -8.5q39 0 71 25.5t39 64.5q7 42 -16.5 70t-66.5 28q-60 0 -103 -49l-157 64l123 441h510l-34 -198h-314l-31 -108q40 28 102 28q124 0 187 -76
q63 -77 41 -201q-22 -128 -126 -208t-248 -80z" />
    <glyph glyph-name="uni2076" unicode="&#x2076;" horiz-adv-x="781" 
d="M523 514q-164 0 -240 106q-76 105 -44 289q40 227 163.5 348t320.5 121q92 0 157 -27q55 -23 75 -42l9 -8l-109 -180q-59 51 -149 51q-69 0 -130 -41q-62 -42 -72 -111q25 31 73.5 51t101.5 20q118 0 184 -79t45 -196q-25 -139 -129 -220q-103 -82 -256 -82zM466 811
q-8 -47 16 -75.5t69 -28.5q47 0 81 28.5t42 75.5t-16 77t-70 30q-43 0 -78.5 -31t-43.5 -76z" />
    <glyph glyph-name="uni2077" unicode="&#x2077;" horiz-adv-x="659" 
d="M459 534h-253q173 328 426 626h-364l34 198h619l-27 -158q-274 -336 -435 -666z" />
    <glyph glyph-name="uni2078" unicode="&#x2078;" horiz-adv-x="765" 
d="M493 514q-121 0 -209 56q-46 29 -67.5 81t-9.5 117q12 69 58 121.5t115 82.5q-115 54 -94 168q11 61 47 109t89 76q102 53 223 53q58 0 110 -13.5t94 -40.5t62 -74.5t9 -109.5q-19 -115 -155 -168q60 -31 89 -83t17 -121q-12 -67 -51 -119t-96 -80q-110 -55 -231 -55z
M451 786q-7 -39 14 -63t59 -24q39 0 69 24t37 63q6 35 -16.5 59t-59.5 24t-67 -23.5t-36 -59.5zM527 1122q-6 -31 10.5 -53t48.5 -22t56.5 22t29.5 53q5 27 -13 46.5t-49 19.5q-30 0 -54 -19.5t-29 -46.5z" />
    <glyph glyph-name="uni2079" unicode="&#x2079;" horiz-adv-x="780" 
d="M210 583l-9 8l110 180q57 -51 149 -51q69 0 131 41q61 41 71 111q-25 -31 -74 -51t-102 -20q-119 0 -183 79q-66 78 -45 196q24 138 129 221q103 81 256 81q164 0 240 -106q75 -106 43 -289q-40 -228 -163 -348.5t-320 -120.5q-85 0 -145.5 22.5t-87.5 46.5zM534 1157
q-34 -28 -42 -76q-8 -47 16 -77t70 -30q43 0 78.5 31t43.5 76q8 47 -16 75.5t-69 28.5q-47 0 -81 -28z" />
    <glyph glyph-name="uni2080" unicode="&#x2080;" horiz-adv-x="822" 
d="M408 -20q-178 1 -247.5 121t-36.5 312q32 184 140 304q114 127 297 127q116 0 189.5 -58t94.5 -156q20 -96 -1 -217q-33 -191 -146.5 -312t-289.5 -121zM366 413q-20 -94 -1 -162q18 -72 79 -72q60 0 100 67q40 65 58 167q35 232 -76 232q-61 0 -102 -68
q-42 -70 -58 -164z" />
    <glyph glyph-name="uni2081" unicode="&#x2081;" horiz-adv-x="526" 
d="M429 0h-234l110 625h-186l35 199h420z" />
    <glyph glyph-name="uni2082" unicode="&#x2082;" horiz-adv-x="725" 
d="M675 0h-607l15 85q13 76 71 142t165 140q126 89 159 120q43 40 49 75q6 33 -14 52.5t-54 19.5q-40 0 -78 -28t-65 -78l-164 113q48 89 147 146t206 57q141 0 214 -73t52 -194q-18 -101 -107 -184q-49 -46 -79 -69q-43 -32 -96 -68q-25 -17 -53 -36.5t-29 -20.5h303z" />
    <glyph glyph-name="uni2083" unicode="&#x2083;" horiz-adv-x="727" 
d="M338 -20q-101 0 -177 52q-78 53 -94 131l180 112q-1 -1 3 -9.5t14.5 -23t23.5 -28.5q33 -33 82 -33q39 0 69 22t35 55q7 35 -10 56.5t-51 21.5h-120l28 160h120q28 0 53.5 23t30.5 52q5 32 -15 53t-55 21q-90 0 -156 -100l-142 110q52 84 148 136q97 53 196 53
q143 0 217 -70t55 -184q-10 -57 -53 -104.5t-102 -67.5q55 -19 82 -71t16 -115q-19 -112 -124 -182q-104 -70 -254 -70z" />
    <glyph glyph-name="uni2084" unicode="&#x2084;" horiz-adv-x="758" 
d="M423 190h-370l25 142l429 492h255l-80 -453h111l-31 -181h-111l-34 -190h-228zM454 371l36 204l-178 -204h142z" />
    <glyph glyph-name="uni2085" unicode="&#x2085;" horiz-adv-x="701" 
d="M332 -19q-64 0 -117 18t-82 46q-59 56 -71 97l-6 19l193 99q1 -3 3.5 -8.5t11.5 -19.5t19.5 -24.5t30 -19t41.5 -8.5q39 0 71 25.5t39 64.5q7 42 -16.5 70t-66.5 28q-60 0 -103 -49l-157 64l123 441h510l-35 -198h-314l-30 -108q40 28 102 28q124 0 187 -76
q62 -78 40 -201q-22 -128 -125 -208q-104 -80 -248 -80z" />
    <glyph glyph-name="uni2086" unicode="&#x2086;" horiz-adv-x="782" 
d="M401 -20q-164 0 -239 106q-76 105 -44 289q40 227 163.5 348t320.5 121q92 0 157 -27q55 -23 75 -42l9 -8l-109 -180q-58 51 -150 51q-69 0 -130 -41q-61 -42 -71 -111q25 31 73.5 51t101.5 20q118 0 184 -78q64 -79 45 -197q-25 -139 -129 -220q-104 -82 -257 -82z
M345 277q-8 -47 16 -75.5t69 -28.5q47 0 81 28.5t42 75.5t-16 77t-70 30q-44 0 -79.5 -31t-42.5 -76z" />
    <glyph glyph-name="uni2087" unicode="&#x2087;" horiz-adv-x="660" 
d="M329 0h-253q174 330 425 626h-364l35 198h619l-28 -158q-272 -334 -434 -666z" />
    <glyph glyph-name="uni2088" unicode="&#x2088;" horiz-adv-x="766" 
d="M377 -20q-58 0 -111 13.5t-98 42t-66.5 80t-9.5 118.5q12 69 58 121.5t115 82.5q-115 54 -94 168q11 61 47 109t89 76q102 53 223 53q58 0 110 -13.5t94 -40.5t62 -74.5t9 -109.5q-19 -115 -155 -168q60 -31 89 -83t17 -121q-12 -67 -51.5 -119t-96.5 -80
q-111 -55 -231 -55zM335 252q-7 -39 14.5 -63t59.5 -24q39 0 69 24t36 63q7 35 -15.5 59t-59.5 24t-67 -24t-37 -59zM412 588q-6 -33 9.5 -54t48.5 -21q32 0 56.5 22t30.5 53q5 27 -13 46.5t-49 19.5q-30 0 -54 -19.5t-29 -46.5z" />
    <glyph glyph-name="uni2089" unicode="&#x2089;" horiz-adv-x="782" 
d="M117 49l-9 8l110 180q57 -51 149 -51q69 0 131 41q61 41 71 111q-25 -31 -74 -51t-102 -20q-119 0 -183 79q-66 78 -45 196q24 138 129 221q104 81 256 81q164 0 240 -106q75 -106 43 -289q-40 -227 -163.5 -348t-320.5 -121q-95 0 -156 28q-57 24 -76 41zM398 547
q-8 -47 16.5 -77t70.5 -30q43 0 78 31t43 76q9 47 -15 75.5t-69 28.5q-47 0 -81 -28.5t-43 -75.5z" />
    <glyph glyph-name="Euro" unicode="&#x20ac;" horiz-adv-x="1473" 
d="M323 497h-165l23 130h151q9 63 20 107h-153l23 130h169q90 242 278 379q188 135 439 135q198 0 323 -87q123 -87 153 -237l-376 -166q-14 81 -57.5 123.5t-112.5 42.5q-156 0 -238 -190h284l-23 -130h-302q-15 -70 -19 -107h303l-23 -130h-284q18 -190 184 -190
q78 0 146 56q66 54 110 135l294 -170q-95 -166 -251.5 -257t-357.5 -91q-259 0 -398 136q-140 135 -140 381z" />
    <glyph glyph-name="trademark" unicode="&#x2122;" horiz-adv-x="1335" 
d="M825 818h-85l104 590h99l134 -433l285 433h99l-104 -590h-85l76 431l-261 -389h-61l-125 388zM375 818l90 510h-197l14 80h479l-14 -80h-197l-90 -510h-85z" />
    <glyph glyph-name="estimated" unicode="&#x212e;" horiz-adv-x="1673" 
d="M859 -20q-215 0 -394 93q-180 94 -280 253q-102 160 -102 351q0 190 104 353q103 160 283 255q179 93 389 93q157 0 301 -57t248 -152q103 -96 165 -227q61 -129 61 -274v-23h-1257q-11 0 -11 -9v-359q0 -24 17 -47q185 -177 478 -177q150 0 279.5 51.5t219.5 147.5h113
q-105 -125 -265 -198q-162 -74 -349 -74zM366 1077v-351q0 -13 11 -13h966q6 0 6 13v358q0 23 -17 46q-86 84 -209.5 129.5t-261.5 45.5q-294 0 -475 -175q-20 -25 -20 -53z" />
    <glyph glyph-name="onethird" unicode="&#x2153;" horiz-adv-x="1681" 
d="M1042 163l180 112q-1 -1 3 -9.5t14.5 -23t23.5 -28.5q33 -33 82 -33q39 0 69 22t35 55q7 35 -10 56.5t-51 21.5h-120l28 160h120q28 0 53.5 23t30.5 52q5 32 -15 53t-55 21q-90 0 -156 -100l-142 110q52 84 148 136q97 53 196 53q143 0 217 -70t55 -184
q-10 -57 -53 -104.5t-102 -67.5q55 -19 82 -71t16 -115q-19 -112 -124 -182q-104 -70 -254 -70q-101 0 -177 52q-78 53 -94 131zM1528 1334l-967 -1334h-227l5 26l968 1332h225zM353 530l111 625h-186l35 199h420l-146 -824h-234z" />
    <glyph glyph-name="twothirds" unicode="&#x2154;" horiz-adv-x="1909" 
d="M857 739l-35 -199h-607l15 85q14 75 72 141.5t164 140.5q126 87 161 121q41 41 47 74t-14 52.5t-54 19.5q-82 0 -143 -106l-164 113q48 89 147 146t206 57q141 0 214 -73t52 -194q-18 -101 -107 -184q-49 -46 -79 -69q-43 -32 -96 -68q-25 -17 -53 -36.5t-29 -20.5h303z
M1284 163l180 112q-1 -1 3 -9.5t14.5 -23t23.5 -28.5q33 -33 82 -33q39 0 69 22t35 55q7 35 -10 56.5t-51 21.5h-120l28 160h120q28 0 53.5 23t30.5 52q5 32 -15 53t-55 21q-90 0 -156 -100l-142 110q52 84 148 136q97 53 196 53q143 0 217 -70t55 -184q-10 -57 -53 -104.5
t-102 -67.5q55 -19 82 -71t16 -115q-19 -112 -124 -182q-104 -70 -254 -70q-101 0 -177 52q-78 53 -94 131zM1758 1334l-967 -1334h-227l5 26l968 1332h225z" />
    <glyph glyph-name="minus" unicode="&#x2212;" horiz-adv-x="1173" 
d="M1234 840l-57 -326h-999l57 326h999z" />
    <glyph glyph-name="uni2215" unicode="&#x2215;" horiz-adv-x="859" 
d="M180 0h-227l5 26l968 1332h225l-4 -24z" />
    <glyph glyph-name="uni2219" unicode="&#x2219;" horiz-adv-x="611" 
d="M518 399q-68 -57 -153 -57t-132 57q-48 56 -33 139q13 82 82 140q68 57 153 57t133 -57q47 -57 33 -140q-15 -83 -83 -139z" />
    <glyph glyph-name="approxequal" unicode="&#x2248;" horiz-adv-x="1457" 
d="M295 203l-111 251q92 109 209 168q119 60 238 60q65 0 127.5 -18t103.5 -43q98 -61 175 -61q80 0 144 23q61 23 138 81l129 -231q-95 -97 -214 -159q-119 -64 -247 -64q-109 0 -205 66q-98 66 -209 66q-138 0 -278 -139zM375 709l-122 241q229 208 461 208q68 0 131 -18
t102 -43q94 -61 175 -61q112 0 240 106l114 -239q-119 -116 -209 -160q-96 -47 -192 -47q-108 0 -212 66t-203 66q-56 0 -114 -21q-56 -20 -92 -42q-40 -26 -79 -56z" />
    <glyph glyph-name="notequal" unicode="&#x2260;" horiz-adv-x="1293" 
d="M415 307h-257l51 287h385l107 172h-462l50 286h590l268 429l166 -74l-223 -355h284l-50 -286h-413l-107 -172h490l-51 -287h-620l-260 -417l-158 79z" />
    <glyph glyph-name="lessequal" unicode="&#x2264;" horiz-adv-x="1368" 
d="M722 768h639l-56 -319h-1118l77 434l1185 526l-70 -398zM144 274h1145l-55 -312h-1145z" />
    <glyph glyph-name="greaterequal" unicode="&#x2265;" horiz-adv-x="1371" 
d="M1340 449h-1118l56 319h639l-571 243l70 398l1001 -526zM1266 -38h-1145l55 312h1145z" />
    <glyph glyph-name="uni25FC" unicode="&#x25fc;" horiz-adv-x="960" 
d="M0 0v960h960v-960h-960z" />
    <glyph glyph-name="foundryicon" horiz-adv-x="2383" 
d="M1715 655v-102h-81v349h66l8 -24l7 7q22 22 60 22q48 0 75.5 -35t27.5 -94q0 -60 -33 -96.5t-88 -36.5q-25 0 -42 10zM717 655v-102h-82v349h65l9 -24l8 7q19 22 58 22q48 0 75.5 -34.5t27.5 -94.5t-32.5 -96.5t-88.5 -36.5q-24 0 -40 10zM915 773q0 61 34 97.5t94 36.5
t94 -34.5t34 -94.5q0 -61 -35 -97t-96 -36q-57 0 -91 35t-34 93zM1427 665l-89 237h89l51 -173h3l41 173h88l-80 -257q-19 -54 -48.5 -78t-77.5 -24q-33 0 -60 13l9 59q30 -6 46 -6q31 0 37 29zM2041 645q-59 0 -93.5 35t-34.5 93q0 61 34.5 97.5t93.5 36.5q47 0 74 -26
t27 -69q0 -31 -8 -52h-139q4 -49 55 -49q37 0 69 13l17 -58q-39 -21 -95 -21zM344 951h-103v71h295v-71h-112v-302h-80v302zM1119 951v71h283v-71h-101v-302h-81v302h-101zM571 649h-81v253h81v-253zM1042 849q-45 0 -45 -71q0 -75 46 -75q45 0 45 72q0 74 -46 74zM1905 314
q-23 0 -38.5 17t-15.5 45q-2 26 15.5 44t39.5 18t39 -17q25 -27 11 -69t-51 -38zM1193 314q-24 0 -39 17t-15 45q0 27 15.5 44.5t39.5 17.5q23 0 38.5 -17.5t15.5 -44.5t-15 -44.5t-40 -17.5zM1748 844q-20 0 -33 -12v-117q17 -9 33 -9q21 0 33.5 19t12.5 50q0 69 -46 69z
M717 832v-117q9 -9 30 -9q48 0 48 69t-46 69q-20 0 -32 -12zM1874 417q-21 -23 -9.5 -61.5t41.5 -34.5q19 0 31.5 14.5t12.5 38.5q0 26 -12.5 41.5t-32.5 15.5q-19 0 -31 -14zM1193 431q-19 0 -31.5 -15t-12.5 -39q0 -25 12.5 -40.5t32.5 -15.5q19 0 31.5 14.5t12.5 38.5
q0 26 -12.5 41.5t-32.5 15.5zM1047 316h-9v120h34q39 0 39 -35q0 -16 -11 -25.5t-29 -9.5h-24v-50zM1507 366v-50h-9v120h34q39 0 39 -35t-41 -35h-23zM324 316h-10l-39 120h9l35 -110l35 105h9l35 -105l35 110h10l-40 -120h-10l-34 104zM2008 316h-8v120h14l45 -93l45 93
h14v-120h-9v111l-46 -94h-8l-47 94v-111zM505 316l-39 120h9l35 -110l35 105h9l36 -105l34 110h10l-40 -120h-9l-35 104l-35 -104h-10zM706 316h-10l-39 120h9l35 -110l35 105h9l36 -105l35 110h9l-40 -120h-9l-35 104zM1995 803h70q4 21 -4 33.5t-26 12.5q-36 0 -40 -46z
M1507 430v-58h25q30 0 30 28q0 30 -32 30h-23zM1071 430h-24v-58h25q30 0 30 28q0 30 -31 30zM1796 314q-28 0 -44.5 17t-16.5 45q0 27 16 44.5t42 17.5q16 0 27 -7l-1 -24h-6l-1 21q-12 3 -19 3q-22 0 -35 -14t-13 -40q0 -56 53 -56q13 0 22 4l3 -6q-13 -5 -27 -5z
M1674 316h-67v120h65v-6h-57v-50h55v-7h-55v-51h59v-6zM1414 316v47l-42 73h10l37 -66l37 66h9l-42 -73v-47h-9zM1307 316v114h-37v6h83v-6h-37v-114h-9zM865 430v6h84v-6h-38v-114h-8v114h-38zM991 436v-120h-9v120h9zM1707 314q-7 0 -7 7t7 7t7 -7t-7 -7zM849 314
q-7 0 -7 7t7 7t7 -7t-7 -7z" />
    <glyph glyph-name="IJacute" horiz-adv-x="1727" 
d="M638 232l293 239q61 -142 188 -142q63 0 108.5 44t58.5 116l153 869h399l-159 -902q-37 -217 -201 -346q-163 -130 -404 -130q-316 0 -436 252zM788 1358l-239 -1358h-399l239 1358h399zM1806 1473h-312l226 334h432zM1108 1807l-346 -334h-312l226 334h432z" />
    <glyph glyph-name="i.TRK" horiz-adv-x="636" 
d="M679 960l-169 -960h-384l169 960h384zM513 1119q-94 0 -142 58q-47 58 -31 152q17 95 86 154q68 59 162 59t144 -59q48 -58 31 -154q-16 -93 -86 -152q-68 -58 -164 -58z" />
    <glyph glyph-name="ijacute" horiz-adv-x="1179" 
d="M354 -373l83 288q51 -23 115 -23q109 0 131 127l166 941h373l-172 -978q-21 -120 -85 -206.5t-154 -136.5q-108 -59 -224 -59q-147 0 -233 47zM679 960l-169 -960h-384l169 960h384zM1564 1447l-346 -334h-312l226 334h432zM1018 1447l-346 -334h-312l226 334h432z" />
    <glyph glyph-name="zero.slash" horiz-adv-x="1274" 
d="M1177 1297l177 207l132 -97l-198 -232q112 -190 57 -505q-53 -299 -228 -489q-89 -96 -213.5 -148.5t-270.5 -52.5q-180 0 -298 79l-176 -205l-132 97l195 228q-112 182 -58 491q53 301 229 499q88 100 214 155t273 55q181 0 297 -82zM549 562l374 438q-36 52 -101 52
q-66 0 -120.5 -51t-86.5 -135q-59 -156 -66 -304zM964 796l-374 -438q38 -51 101 -51q66 0 122 53q53 51 85 133q60 159 66 303z" />
    <glyph glyph-name="Q.alt" horiz-adv-x="1560" 
d="M799 -20h-20q-153 -2 -278.5 50.5t-205 145t-111 224t-2.5 281.5q55 307 292 502q236 195 552 195q152 0 276 -51t203 -143q79 -93 109.5 -223.5t3.5 -280.5q-34 -196 -149 -353q-114 -156 -283 -247l226 -242l-265 -239zM587 680q-27 -154 44 -249q71 -96 213 -96
q139 0 241 96q102 95 129 249q27 151 -41 246q-69 94 -208 94q-143 0 -246 -94q-105 -94 -132 -246z" />
    <glyph glyph-name="y.alt" horiz-adv-x="1227" 
d="M420 30l-252 930h418l102 -578l302 578h409l-810 -1363h-402z" />
    <glyph glyph-name="yacute.alt" horiz-adv-x="1227" 
d="M420 30l-252 930h418l102 -578l302 578h409l-810 -1363h-402zM1329 1447l-346 -334h-312l226 334h432z" />
    <glyph glyph-name="ycircumflex.alt" horiz-adv-x="1227" 
d="M420 30l-252 930h418l102 -578l302 578h409l-810 -1363h-402zM700 1085h-311l353 370h257l221 -370h-312l-75 160z" />
    <glyph glyph-name="ydieresis.alt" horiz-adv-x="1227" 
d="M420 30l-252 930h418l102 -578l302 578h409l-810 -1363h-402zM1011 1151q-73 0 -111.5 46t-25.5 120q14 77 68 122q55 46 128 46q75 0 114 -47t25 -121q-13 -73 -68.5 -119.5t-129.5 -46.5zM621 1151q-74 0 -112.5 46t-25.5 120q14 77 68 122q55 46 129 46t113 -47
q38 -48 25 -121q-14 -74 -67 -120q-55 -46 -130 -46z" />
    <glyph glyph-name="ygrave.alt" horiz-adv-x="1227" 
d="M187 -403l233 433l-252 930h418l102 -578l302 578h409l-810 -1363h-402zM686 1121l-228 334h432l108 -334h-312z" />
    <glyph glyph-name="ymacron.alt" horiz-adv-x="1227" 
d="M187 -403l233 433l-252 930h418l102 -578l302 578h409l-810 -1363h-402zM1106 1120h-591l42 234h591z" />
    <glyph glyph-name="ytilde.alt" horiz-adv-x="1227" 
d="M420 30l-252 930h418l102 -578l302 578h409l-810 -1363h-402zM544 1105l-118 127q156 230 329 230q74 0 136 -46t104 -46q59 0 142 77l117 -117q-76 -116 -168 -171q-92 -56 -168 -56q-62 0 -125 45q-62 44 -109 44q-60 0 -140 -87z" />
    <glyph glyph-name="zero.slash.tnum" 
d="M1256 1297l177 207l152 -97l-209 -245q102 -187 49 -492q-53 -299 -228 -489q-89 -96 -213.5 -148.5t-270.5 -52.5q-170 0 -286 71l-169 -197l-152 97l195 228q-111 183 -57 491q53 301 229 499q88 100 214 155t273 55q180 0 296 -82zM629 563l374 437q-36 52 -101 52
q-79 -1 -138 -71t-90 -177q-40 -125 -45 -241zM1043 772l-364 -425q34 -40 92 -40q78 1 135 66.5t90 168.5q39 116 47 230z" />
    <glyph glyph-name="zero.tnum" 
d="M713 -20q-119 0 -211 34.5t-148.5 96.5t-90 148.5t-35.5 190t16 220.5q53 301 229 499q88 100 214 155t273 55q120 0 212 -36.5t148 -101.5t88.5 -154.5t33.5 -194.5t-17 -222q-53 -299 -228 -489q-89 -96 -213.5 -148.5t-270.5 -52.5zM642 680q-35 -230 27 -319
q36 -54 102 -54q97 0 165 107q66 105 95 266q34 224 -25 316q-38 56 -104 56q-68 0 -123 -57q-57 -58 -88 -137q-33 -83 -49 -178z" />
    <glyph glyph-name="one.tnum" 
d="M1284 327l-58 -327h-979l58 327h308l123 701h-279l58 330h667l-181 -1031h283z" />
    <glyph glyph-name="two.tnum" 
d="M1245 0h-1010l25 142q18 104 76 182q59 81 120 128q57 44 219 154q11 7 36.5 25t35.5 24q126 85 181 141q54 54 66 121q11 60 -21 96t-98 36q-67 0 -131 -48q-64 -49 -108 -123l-270 131q67 138 213 248q75 57 174.5 89.5t204.5 32.5q233 0 356 -124q122 -125 86 -328
q-17 -93 -78 -182q-48 -70 -147 -154q-39 -32 -91 -69q-53 -38 -92 -63q-4 -3 -95 -61q-21 -12 -62 -41q-41 -30 -43 -32h510z" />
    <glyph glyph-name="three.tnum" 
d="M709 -19q-98 0 -182.5 28.5t-142.5 78.5q-113 97 -143 231l311 152q54 -160 204 -160q65 0 110 32.5t53 83.5q10 58 -24 93t-101 35h-197l46 260h207q51 0 96 36q45 34 54 82q9 55 -23 87.5t-89 32.5q-142 0 -251 -156l-248 137q85 154 242 249t333 95q211 0 342 -103
q64 -52 91.5 -133.5t9.5 -180.5q-20 -111 -101 -181q-73 -62 -145 -85q77 -29 126 -106q49 -79 30 -192q-33 -185 -201 -301q-167 -115 -407 -115z" />
    <glyph glyph-name="four.tnum" 
d="M799 317h-597l42 237l692 804h426l-130 -739h184l-53 -302h-184l-56 -317h-380zM911 955l-262 -336h203z" />
    <glyph glyph-name="five.tnum" 
d="M703 -19q-363 0 -453 332l325 156q49 -159 181 -159q67 0 119 46q53 46 65 112q11 67 -26.5 110t-109.5 43q-54 0 -104.5 -28t-83.5 -70l-251 119l203 716h849l-57 -326h-523l-48 -172q70 41 188 41q188 0 293 -123q104 -123 69 -317q-38 -215 -213 -347
q-175 -133 -423 -133z" />
    <glyph glyph-name="six.tnum" 
d="M745 -20q-98 0 -178 23t-135 64t-94.5 98.5t-56 127t-20 148t13.5 162.5q67 379 280 577q211 198 545 198q112 0 195.5 -21t162.5 -67l-140 -291q-120 72 -265 72q-170 0 -279 -116q-59 -64 -86 -157q44 54 126.5 87.5t183.5 33.5q212 0 319 -119t72 -317
q-41 -229 -216 -365q-175 -138 -428 -138zM644 466q-14 -74 30 -121t122 -47q79 0 138 47q58 46 72 121q13 73 -29 122q-44 47 -122 47q-79 0 -138 -47q-59 -46 -73 -122z" />
    <glyph glyph-name="seven.tnum" 
d="M743 0h-419q333 626 684 1032h-586l57 326h1011l-46 -263q-430 -534 -701 -1095z" />
    <glyph glyph-name="eight.tnum" 
d="M713 -20q-156 -2 -272 50.5t-169 146.5t-30 211q23 119 102 203q80 83 180 123q-80 29 -125 101q-46 72 -28 173q32 176 194 283q163 107 395 107q233 0 355 -107q122 -109 91 -283q-18 -99 -89 -172q-70 -73 -163 -102q123 -54 165 -176q23 -70 8 -150
q-31 -181 -202 -294q-171 -114 -412 -114zM636 412q-11 -60 27 -97.5t103 -37.5q64 0 116 37q52 38 62 98q11 62 -27 100.5t-103 38.5t-115 -37q-53 -38 -63 -102zM762 964q-9 -52 18.5 -87.5t84.5 -35.5q58 0 98 37t49 86q8 50 -21 83t-84 33t-96 -33t-49 -83z" />
    <glyph glyph-name="nine.tnum" 
d="M162 70l141 291q120 -72 265 -72q170 0 279 116q59 64 86 157q-44 -54 -126.5 -87.5t-183.5 -33.5q-212 0 -319 119t-72 317q40 228 216 366q176 137 427 137q117 0 208.5 -32.5t147.5 -90t90 -136.5t37 -171t-13 -193q-66 -378 -278 -577q-211 -198 -546 -198
q-112 0 -195.5 21t-163.5 67zM687 1015q-58 -46 -72 -121q-14 -74 30 -121q42 -48 121 -48q78 0 139 47q58 46 72 122q14 74 -30 121t-122 47q-79 0 -138 -47z" />
    <glyph glyph-name="plus.tnum" 
d="M551 151l65 370h-387l57 326h387l64 362h380l-64 -362h391l-57 -326h-391l-65 -370h-380z" />
    <glyph glyph-name="minus.tnum" 
d="M1363 840l-57 -326h-999l57 326h999z" />
    <glyph glyph-name="plusminus.tnum" 
d="M602 431l54 307h-366l58 326h366l52 295h381l-52 -295h365l-58 -326h-365l-54 -307h-381zM1264 -22h-1100l55 313h1100z" />
    <glyph glyph-name="equal.tnum" 
d="M275 625h1101l-58 -330h-1101zM353 1065h1101l-58 -329h-1101z" />
    <glyph glyph-name="notequal.tnum" 
d="M484 307h-257l51 287h385l107 172h-462l50 286h590l268 429l166 -74l-223 -355h284l-50 -286h-413l-107 -172h490l-51 -287h-620l-260 -417l-158 79z" />
    <glyph glyph-name="approxequal.tnum" 
d="M282 203l-111 251q92 109 209 168q118 60 238 60q65 0 127.5 -18t103.5 -43q98 -61 175 -61q80 0 144 23q62 23 138 81l129 -231q-95 -97 -214 -159q-119 -64 -247 -64q-109 0 -205 66q-98 66 -209 66q-138 0 -278 -139zM362 709l-122 241q229 208 461 208q68 0 131 -18
t102 -43q94 -61 175 -61q112 0 240 106l114 -239q-119 -116 -209 -160q-96 -47 -192 -47q-108 0 -212 66t-203 66q-55 0 -114 -21q-56 -20 -92 -42q-40 -26 -79 -56z" />
    <glyph glyph-name="multiply.tnum" 
d="M427 126l-201 245l369 312q-31 38 -134 162q-93 109 -126 150l289 246l256 -306l364 306l202 -246l-372 -312l263 -312l-290 -245l-256 306z" />
    <glyph glyph-name="less.tnum" 
d="M1268 50l-999 492l48 277l1172 488l-65 -371l-642 -255q4 -1 227 -106q87 -41 324 -155z" />
    <glyph glyph-name="greater.tnum" 
d="M1355 542l-1173 -492l65 370q151 63 336 137q57 23 126.5 51t112 45.5t68.5 27.5l-552 255l65 371l1000 -488z" />
    <glyph glyph-name="lessequal.tnum" 
d="M769 768h639l-56 -319h-1118l77 434l1185 526l-70 -398zM191 274h1145l-55 -312h-1145z" />
    <glyph glyph-name="greaterequal.tnum" 
d="M1355 449h-1118l56 319h639l-571 243l70 398l1001 -526zM1281 -38h-1145l55 312h1145z" />
    <glyph glyph-name="divide.tnum" 
d="M1364 538h-1107l50 283h1107zM1028 960q-68 -57 -153 -57t-132 57q-48 56 -33 139q13 82 82 140q68 57 153 57t133 -57q47 -57 33 -140q-15 -83 -83 -139zM880 121q-68 -57 -153 -57t-132 57q-48 56 -33 139q13 82 82 140q68 57 153 57t133 -57q47 -57 33 -140
q-15 -83 -83 -139z" />
    <glyph glyph-name="logicalnot.tnum" 
d="M1344 342h-386l59 332h-750l57 326h1136z" />
    <glyph glyph-name="numbersign.tnum" 
d="M292 289h-208l96 273h210l90 249h-211l99 272h211l97 275h304l-94 -275h192l97 275h305l-96 -275h206l-96 -272h-210l-90 -249h210l-98 -273h-208l-102 -289h-306l102 289h-194l-101 -289h-306zM980 811h-195l-91 -249h195z" />
    <glyph glyph-name="dollar.tnum" 
d="M628 -176l28 160q-166 16 -283.5 95.5t-174.5 214.5l320 199q69 -137 198 -171l37 210q-7 0 -10 3q-98 31 -157 58q-65 30 -126 77q-129 98 -95 293q19 115 102 207t196 144q110 51 239 62l28 160h131l-29 -162q283 -28 406 -294l-304 -188q-47 111 -161 146l-36 -205
q49 -15 89 -29t81 -31t72 -34.5t62 -39t50.5 -44.5t38 -51.5t24.5 -59t9.5 -68t-6.5 -78.5q-17 -94 -72.5 -172.5t-137.5 -129.5q-166 -103 -360 -115l-28 -157h-131zM971 399q6 31 -15.5 51.5t-78.5 40.5l-32 -178q51 8 86 31.5t40 54.5zM814 877l29 166q-81 -19 -92 -79
q-9 -52 63 -87z" />
    <glyph glyph-name="Euro.tnum" 
d="M356 497h-165l23 130h151q9 63 20 107h-153l23 130h169q90 242 278 379q188 135 439 135q199 0 323 -87q123 -87 153 -237l-376 -166q-14 81 -57.5 123.5t-112.5 42.5q-156 0 -238 -190h284l-23 -130h-302q-15 -70 -19 -107h303l-23 -130h-284q18 -190 184 -190
q78 0 146 56q66 54 110 135l294 -170q-95 -166 -251.5 -257t-357.5 -91q-259 0 -398 136q-140 135 -140 381z" />
    <glyph glyph-name="yen.tnum" 
d="M553 635l-324 723h472l171 -515l355 515h454l-575 -723h173l-23 -130h-250l-19 -107h250l-23 -130h-250l-47 -268h-398l47 268h-254l23 130h254l19 107h-254l23 130h176z" />
    <glyph glyph-name="sterling.tnum" 
d="M1307 318l-56 -319h-1087l45 257q96 47 143.5 100.5t57.5 120.5l22 131h-154l32 179h153l18 107q37 226 207 355q168 129 401 129q172 0 281.5 -80.5t145.5 -232.5l-302 -159q-43 157 -167 157q-72 0 -125 -47q-53 -46 -67 -120l-19 -109h297l-32 -179h-297l-16 -92
q-10 -57 -27 -100q-25 -58 -79 -98h625z" />
    <glyph glyph-name="currency.tnum" 
d="M337 90l-141 171l200 170q-44 108 -22 231q21 122 99 225l-138 164l201 171l136 -165q119 62 240 62q124 0 222 -62l192 165l141 -171l-194 -164q43 -101 22 -225q-22 -128 -107 -231l140 -170l-201 -171l-141 174q-117 -57 -235 -57q-117 0 -209 57zM672 662
q-12 -66 27 -112t105 -46q69 0 124 46q56 47 68 112q11 68 -28 115q-41 47 -108 47q-65 0 -121 -47q-57 -49 -67 -115z" />
    <glyph glyph-name="florin.tnum" 
d="M205 38l127 273q35 -25 98 -25q158 0 198 121l62 194h-146l96 298h145l28 87q59 180 211 286q151 106 349 106q60 0 121 -16q65 -17 100 -38l-134 -270q-47 32 -111 32q-67 0 -118 -32t-68 -85l-23 -70h258l-96 -298h-243l-73 -226q-59 -185 -207 -290
q-149 -105 -349 -105q-60 0 -125 18q-68 19 -100 40z" />
    <glyph glyph-name="cent.tnum" 
d="M687 0l32 181q-201 23 -304 161q-103 137 -68 336q34 197 187 336q151 137 360 160l29 167h131l-29 -167q127 -13 215 -76t125 -170l-312 -190q-24 82 -86 108l-60 -340q72 21 132 102l240 -192q-71 -99 -183 -160.5t-246 -74.5l-32 -181h-131zM777 514l58 325
q-48 -21 -82 -64t-43 -97q-10 -57 8.5 -100t58.5 -64z" />
    <glyph glyph-name="mu.tnum" 
d="M591 -399h-368l239 1359h384l-93 -530q-9 -51 18 -83t79 -32t89.5 32t46.5 83l93 530h384l-169 -960h-350l7 92q-49 -49 -125.5 -78t-167.5 -33z" />
    <glyph glyph-name="pi.tnum" 
d="M220 -2l141 804h-159l58 327h1340q-37 -211 -59 -327h-151l-71 -404q-10 -55 24 -79.5t98 -14.5l-56 -314q-9 -4 -50 -7t-57 -3q-191 0 -282 91q-93 91 -60 282l79 449h-279l-141 -804h-375z" />
    <glyph glyph-name="degree.tnum" 
d="M834 678q-158 0 -240 96q-83 97 -55 250q29 158 144 255q116 98 274 98q161 0 244 -98q83 -97 54 -255q-28 -154 -144 -250q-117 -96 -277 -96zM832 1108q-35 -32 -44 -83t15 -82q24 -32 71 -32q50 0 86 31.5t45 82.5t-16.5 83t-74.5 32q-47 0 -82 -32z" />
    <glyph glyph-name="ordmasculine.tnum" 
d="M842 728q-148 0 -223 89q-77 89 -51 232q26 146 133 237t256 91t225 -91q76 -92 51 -237q-26 -144 -133 -232q-110 -89 -258 -89zM1143 646l-29 -166h-621l29 166h621zM795 1050q-8 -49 15 -79.5t69 -30.5q48 0 83 30.5t43 79.5q9 50 -15 80.5t-72 30.5q-46 0 -80 -31
t-43 -80z" />
    <glyph glyph-name="ordfeminine.tnum" 
d="M768 752q-95 0 -144 51t-35 133q13 81 93 134q78 51 190 51q74 0 117 -21l1 6q6 37 -22 61t-81 24q-89 0 -160 -65l-71 146q48 45 123 76q76 32 153 32q141 0 211 -64q71 -65 52 -174l-66 -378h-189l10 56q-73 -68 -182 -68zM1115 657l-29 -165h-569l29 165h569zM793 950
q-4 -21 10.5 -33t41.5 -12q42 0 80 25q39 26 42 48q-27 21 -89 21q-78 0 -85 -49z" />
    <glyph glyph-name="zero.slash.onum" horiz-adv-x="1295" 
d="M1129 1020l189 188l104 -96l-181 -180q137 -154 93 -399q-26 -159 -124 -286.5t-247 -198t-320 -68.5q-169 0 -291 68l-188 -187l-104 96l180 179q-134 156 -91 397q43 246 235 400q191 154 455 154q169 0 290 -67zM963 655l-343 -341q36 -13 80 -13q101 0 178 65
q75 64 93 167q12 67 -8 122zM519 414l342 339q-32 13 -79 13q-101 0 -177 -65q-75 -66 -93 -168q-12 -67 7 -119z" />
    <glyph glyph-name="zero.onum" horiz-adv-x="1349" 
d="M670 -20q-264 0 -400 154q-137 154 -94 399q43 246 235 400q191 154 455 154q263 0 401 -153q137 -155 94 -401q-26 -159 -124 -286.5t-247 -198t-320 -68.5zM632 701q-75 -66 -93 -168q-18 -103 34 -167q53 -65 154 -65t178 65q75 64 93 167t-34 168q-53 65 -155 65
q-101 0 -177 -65z" />
    <glyph glyph-name="one.onum" horiz-adv-x="1084" 
d="M1118 318l-56 -318h-998l56 318h327l76 431h-289l56 318h677l-132 -749h283z" />
    <glyph glyph-name="two.onum" horiz-adv-x="1152" 
d="M1089 1h-994l47 263l-1 3l404 214q120 64 172 107q53 44 62 95q7 37 -19.5 60.5t-75.5 23.5q-66 0 -126 -39t-103 -104l-254 158q93 142 238 223q148 83 306 83q227 0 349 -102q120 -102 90 -270q-41 -229 -418 -391h380z" />
    <glyph glyph-name="three.onum" horiz-adv-x="1199" 
d="M528 -309q-98 0 -182.5 28.5t-142.5 78.5q-113 97 -143 231l311 152q54 -160 204 -160q65 0 110 32.5t53 83.5q10 58 -24 93t-101 35h-197l46 260h207q51 0 96 36q45 35 53 82q11 55 -21.5 87.5t-89.5 32.5q-141 0 -251 -156l-248 137q85 154 242 249t333 95
q211 0 342 -103q64 -52 91.5 -133.5t9.5 -180.5q-20 -111 -101 -181q-72 -62 -146 -85q78 -29 127 -106q50 -79 30 -192q-33 -185 -201 -301q-167 -115 -407 -115z" />
    <glyph glyph-name="four.onum" horiz-adv-x="1240" 
d="M639 26h-597l41 237l693 804h426l-130 -739h184l-53 -302h-184l-56 -317h-380zM751 664l-262 -336h203z" />
    <glyph glyph-name="five.onum" horiz-adv-x="1155" 
d="M492 -310q-362 0 -452 332l324 156q50 -159 181 -159q67 0 120 46q54 46 64 112q12 67 -25.5 110t-109.5 43q-54 0 -104.5 -28t-83.5 -70l-251 119l203 716h849l-57 -326h-523l-49 -172q73 41 189 41q188 0 292 -122q104 -124 70 -318q-37 -213 -213 -347
q-176 -133 -424 -133z" />
    <glyph glyph-name="six.onum" horiz-adv-x="1275" 
d="M658 -20q-98 0 -178 23t-135 64t-94.5 98.5t-56 127t-20 148t13.5 162.5q67 379 280 577q212 198 545 198q112 0 195.5 -21t162.5 -67l-140 -291q-120 72 -265 72q-170 0 -279 -116q-59 -64 -86 -157q44 54 126.5 87.5t183.5 33.5q212 0 319 -119t72 -317
q-41 -229 -216 -365q-176 -138 -428 -138zM557 466q-14 -74 30 -121t122 -47q79 0 138 47q58 46 72 121q13 73 -29 122q-44 47 -122 47q-79 0 -138 -47q-59 -46 -73 -122z" />
    <glyph glyph-name="seven.onum" horiz-adv-x="1055" 
d="M480 -291h-419q335 630 684 1032h-586l57 326h1011l-46 -263q-430 -534 -701 -1095z" />
    <glyph glyph-name="eight.onum" horiz-adv-x="1240" 
d="M616 -20q-157 -2 -272.5 50.5t-168.5 146.5t-30 211q23 119 102 203q79 83 180 123q-80 29 -125 101q-46 72 -28 173q32 176 194 283q163 107 395 107q233 0 355 -107q122 -109 91 -283q-18 -99 -89 -172q-70 -73 -163 -102q123 -54 165 -176q23 -70 8 -150
q-31 -181 -202 -294q-171 -114 -412 -114zM539 412q-11 -60 27 -97.5t103 -37.5q64 0 116 37q52 38 62 98q11 62 -27 100.5t-103 38.5t-115 -37q-52 -38 -63 -102zM665 964q-9 -52 18.5 -87.5t84.5 -35.5q58 0 98 37t49 86q8 50 -21 83t-84 33t-96 -33t-49 -83z" />
    <glyph glyph-name="nine.onum" horiz-adv-x="1273" 
d="M142 -220l141 291q120 -72 265 -72q171 0 279 116q57 62 86 157q-44 -54 -126.5 -87.5t-183.5 -33.5q-212 0 -319 119t-72 317q40 228 216 366q176 137 427 137q98 0 178 -23t135 -64t94.5 -98.5t56 -127t20 -148t-13.5 -162.5q-66 -378 -278 -577q-211 -198 -546 -198
q-112 0 -195.5 21t-163.5 67zM667 725q-58 -46 -72 -121q-14 -74 30 -121q42 -48 121 -48q78 0 139 47q58 46 72 122q14 74 -30 121t-122 47q-79 0 -138 -47z" />
    <glyph glyph-name="plus.onum" horiz-adv-x="1296" 
d="M457 3l65 370h-387l57 326h387l64 362h380l-64 -362h391l-57 -326h-391l-65 -370h-380z" />
    <glyph glyph-name="minus.onum" horiz-adv-x="1171" 
d="M1207 692l-57 -326h-999l57 326h999z" />
    <glyph glyph-name="plusminus.onum" horiz-adv-x="1283" 
d="M501 283l54 307h-366l58 326h366l52 295h381l-52 -295h365l-58 -326h-365l-54 -307h-381zM1163 -170h-1100l55 313h1100z" />
    <glyph glyph-name="equal.onum" horiz-adv-x="1329" 
d="M198 477h1101l-58 -330h-1101zM276 917h1101l-58 -329h-1101z" />
    <glyph glyph-name="notequal.onum" horiz-adv-x="1289" 
d="M380 159h-257l51 287h385l107 172h-462l50 286h590l268 429l166 -74l-223 -355h284l-50 -286h-413l-107 -172h490l-51 -287h-620l-260 -417l-159 79z" />
    <glyph glyph-name="approxequal.onum" horiz-adv-x="1475" 
d="M278 55l-111 251q92 109 209 168q118 60 238 60q65 0 127.5 -18t103.5 -43q98 -61 175 -61q80 0 144 23q62 23 138 81l129 -231q-95 -97 -214 -159q-119 -64 -247 -64q-109 0 -205 66q-98 66 -209 66q-138 0 -278 -139zM358 561l-123 241q230 208 462 208q68 0 131 -18
t102 -43q94 -61 175 -61q112 0 240 106l114 -239q-119 -116 -209 -160q-96 -47 -192 -47q-108 0 -212 66t-203 66q-55 0 -114 -21q-56 -20 -92 -42q-40 -26 -79 -56z" />
    <glyph glyph-name="multiply.onum" horiz-adv-x="1228" 
d="M299 -22l-201 245l369 312q-31 38 -134 162q-93 109 -126 150l289 246l256 -306l364 306l202 -246l-372 -312l263 -312l-290 -245l-256 306z" />
    <glyph glyph-name="less.onum" horiz-adv-x="1258" 
d="M1139 -98l-1000 492l49 277l1172 488l-65 -371l-642 -255q56 -26 231 -109q53 -25 124 -59t117.5 -56t78.5 -37z" />
    <glyph glyph-name="greater.onum" horiz-adv-x="1258" 
d="M1257 394l-1172 -492l65 370q39 16 153.5 62.5t190.5 77.5q233 94 299 121l-552 255l65 371l1000 -488z" />
    <glyph glyph-name="lessequal.onum" horiz-adv-x="1377" 
d="M697 620h639l-56 -319h-1118l77 434l1185 526l-70 -398zM119 126h1145l-55 -312h-1145z" />
    <glyph glyph-name="greaterequal.onum" horiz-adv-x="1379" 
d="M1321 301h-1118l56 319h639l-571 243l70 398l1001 -526zM1247 -186h-1145l55 312h1145z" />
    <glyph glyph-name="divide.onum" horiz-adv-x="1279" 
d="M1262 390h-1107l50 283h1107zM926 812q-68 -57 -153 -57t-132 57q-48 56 -33 139q13 82 82 140q68 57 152 57q85 0 133 -57t34 -140q-15 -83 -83 -139zM778 -28q-68 -56 -153 -56t-132 56q-48 57 -33 140q13 82 82 140q68 57 152 57q85 0 133 -57t34 -140
q-15 -83 -83 -140z" />
    <glyph glyph-name="logicalnot.onum" horiz-adv-x="1330" 
d="M1244 194h-386l59 332h-750l57 326h1136z" />
    <glyph glyph-name="numbersign.onum" horiz-adv-x="1347" 
d="M299 220h-204l86 237h203l63 177h-203l86 237h201l70 196h267l-70 -196h163l70 196h267l-70 -196h220l-86 -237h-218l-63 -177h218l-86 -237h-217l-79 -220h-267l79 220h-163l-79 -220h-267zM714 634l-63 -177h163l63 177h-163z" />
    <glyph glyph-name="dollar.onum" horiz-adv-x="1105" 
d="M123 251l267 167q27 -54 72.5 -90.5t100.5 -49.5l22 122l-21 6q-114 30 -194 79q-47 29 -74 63q-63 80 -41 203q26 141 152 232q126 90 288 104l26 146h121l-26 -148q256 -30 336 -254l-259 -164q-47 95 -138 123l-22 -122q187 -55 266 -123q96 -85 71 -225
q-12 -73 -55.5 -136t-107.5 -105q-129 -84 -285 -98l-29 -162h-121l29 163q-143 13 -241 81.5t-137 187.5zM732 322q2 14 -11 26t-41 22l-17 -96q61 10 69 48zM637 701l17 92q-53 -11 -59 -42q-4 -28 42 -50z" />
    <glyph glyph-name="Euro.onum" horiz-adv-x="1227" 
d="M263 397h-113l19 108h103q1 7 13 66h-104l19 108h116q70 192 220 303q148 108 346 108q161 0 265 -77t129 -215l-310 -137q-24 154 -135 154q-113 0 -176 -136h255l-19 -108h-271q-8 -33 -12 -66h271l-19 -108h-256q13 -142 133 -142q67 0 116 48q49 46 78 106l264 -134
q-88 -144 -217 -219.5t-292 -75.5q-204 0 -314.5 109.5t-108.5 307.5z" />
    <glyph glyph-name="yen.onum" horiz-adv-x="1347" 
d="M504 504l-288 563h384l189 -408l334 408h384l-486 -563h133l-20 -115h-212l-15 -86h199l-20 -115h-200l-33 -188h-359l33 188h-200l20 115h201l15 86h-211l20 115h132z" />
    <glyph glyph-name="sterling.onum" horiz-adv-x="1092" 
d="M960 0h-860l39 223q127 66 144 156l11 64h-126l30 171h124l14 80q32 183 168 288q135 105 322 105q77 0 139 -22.5t97.5 -52.5t61.5 -71.5t35.5 -67.5t14.5 -51l3 -15l-265 -134q-3 20 -12 43q-8 20 -21 37q-35 43 -94 43q-47 0 -80.5 -28t-41.5 -74l-14 -80h224
l-30 -171h-224l-6 -34q-14 -84 -80 -131h476z" />
    <glyph glyph-name="currency.onum" horiz-adv-x="1272" 
d="M231 -58l-141 171l200 170q-44 108 -22 231q21 122 99 225l-138 164l201 171l136 -165q119 62 240 62q124 0 222 -62l192 165l141 -171l-194 -164q43 -101 22 -225q-22 -128 -107 -231l140 -170l-201 -171l-142 174q-115 -57 -234 -57q-117 0 -210 57zM566 514
q-12 -66 27 -112t105 -46q69 0 124 46q56 47 68 112q11 68 -28 115q-41 47 -108 47q-65 0 -121 -47q-57 -49 -67 -115z" />
    <glyph glyph-name="florin.onum" horiz-adv-x="1233" 
d="M10 -101l127 273q37 -25 99 -25q157 0 197 121l62 194h-146l96 298h145l28 87q59 180 211 286q151 106 349 106q59 0 122 -16q65 -17 100 -38l-135 -270q-46 32 -110 32q-67 0 -118 -32t-69 -85l-23 -70h258l-96 -298h-243l-72 -226q-60 -186 -208 -290
q-148 -105 -348 -105q-60 0 -125 18q-67 19 -101 40z" />
    <glyph glyph-name="cent.onum" horiz-adv-x="1139" 
d="M511 -200l32 182q-199 22 -302 161q-103 137 -68 335t186 336q150 136 359 159l29 168h131l-29 -167q129 -12 217.5 -75.5t124.5 -170.5l-311 -190q-25 85 -89 109l-60 -342q74 21 135 103l240 -192q-72 -99 -185 -161t-247 -74l-32 -181h-131zM602 315l56 323
q-47 -22 -80 -65t-42 -95q-10 -56 8 -99t58 -64z" />
    <glyph glyph-name="mu.onum" horiz-adv-x="1283" 
d="M439 -399h-368l239 1359h384l-93 -530q-9 -51 18 -83t79 -32t89.5 32t46.5 83l93 530h384l-169 -960h-350l7 92q-49 -49 -125.5 -78t-167.5 -33z" />
    <glyph glyph-name="pi.onum" horiz-adv-x="1434" 
d="M185 -2l141 804h-159l58 327h1340q-37 -211 -59 -327h-151l-71 -404q-10 -55 24 -79.5t98 -14.5l-56 -314q-9 -4 -50 -7q-40 -3 -57 -3q-191 0 -282 91q-93 91 -60 282l79 449h-279l-141 -804h-375z" />
    <glyph glyph-name="degree.onum" horiz-adv-x="880" 
d="M522 479q-158 0 -240 96q-82 95 -55 250q29 158 145 255q116 98 274 98q161 0 243 -97q83 -98 54 -256q-27 -154 -144 -250t-277 -96zM521 909q-35 -32 -44 -83t15 -82q24 -32 71 -32q50 0 86 31.5t45 82.5t-16.5 83t-74.5 32q-47 0 -82 -32z" />
    <glyph glyph-name="ordmasculine.onum" horiz-adv-x="895" 
d="M539 529q-148 0 -223 89q-77 89 -51 232q26 146 133 237t256 91t225 -91q77 -91 51 -237q-26 -144 -133 -232q-110 -89 -258 -89zM840 447l-29 -166h-621l29 166h621zM492 851q-8 -49 15 -79.5t69 -30.5q48 0 83 30.5t43 79.5q9 50 -15 80.5t-72 30.5q-46 0 -80 -31
t-43 -80z" />
    <glyph glyph-name="ordfeminine.onum" horiz-adv-x="824" 
d="M431 552q-95 0 -144 51t-34 133q14 83 92 134t190 51q71 0 118 -21l1 6q6 37 -22 61t-81 24q-87 0 -161 -65l-70 146q49 46 122 76q78 32 154 32q141 0 211 -64q71 -65 52 -174l-67 -378h-189l10 56q-31 -31 -80.5 -49.5t-101.5 -18.5zM779 457l-30 -165h-569l30 165h569
zM456 750q-4 -21 10.5 -33t41.5 -12q42 0 80 25t43 48q-27 21 -89 21q-77 0 -86 -49z" />
    <glyph glyph-name="onehalf.onum" horiz-adv-x="1764" 
d="M1683 59l-35 -199h-607l15 85q14 75 72 141.5t164 140.5q126 87 161 121q41 41 47 74t-14 52.5t-54 19.5q-82 0 -143 -106l-164 113q48 89 147 146t206 57q141 0 214 -73t52 -194q-18 -101 -107 -184q-49 -46 -79 -69q-43 -32 -96 -68q-25 -17 -53 -36.5t-29 -20.5h303z
M557 -140h-227l5 26l969 1332h225l-4 -24zM372 390l110 625h-186l35 199h420l-145 -824h-234z" />
    <glyph glyph-name="onethird.onum" horiz-adv-x="1764" 
d="M1039 23l181 112q0 -2 4 -10t13.5 -23t22.5 -28q33 -33 82 -33q39 0 69 22t36 55q6 35 -10.5 56.5t-50.5 21.5h-120l28 160h120q28 0 53 23t30 52q5 32 -15 53t-55 21q-89 0 -156 -100l-141 110q50 84 147 136q97 53 196 53q143 0 217 -70t55 -184q-10 -57 -53 -105
t-102 -67q55 -19 82 -71t16 -115q-19 -112 -124 -183q-104 -69 -253 -69q-101 0 -177 52q-77 53 -95 131zM1504 1194l-968 -1334h-227l5 26l969 1332h225zM481 1015h-186l35 199h420l-145 -824h-234z" />
    <glyph glyph-name="onequarter.onum" horiz-adv-x="1672" 
d="M1286 50h-370l25 142l430 492h255l-80 -453h111l-32 -181h-111l-34 -190h-228zM1515 1194l-968 -1334h-227l5 26l969 1332h225zM482 1015h-186l35 199h420l-145 -824h-234zM1318 231l36 204l-178 -204h142z" />
    <glyph glyph-name="twothirds.onum" horiz-adv-x="1923" 
d="M769 400h-607l15 85q14 75 72 142t163 140q125 87 161 121q41 41 48 74q6 33 -14.5 52.5t-54.5 19.5q-39 0 -77 -27.5t-65 -78.5l-164 113q48 89 147 146q97 57 205 57q141 0 214 -73t52 -194q-13 -79 -78 -154q-26 -30 -68 -66q-44 -38 -148 -110q-46 -31 -69 -48h303z
M1472 -160q-101 0 -177 52q-77 53 -95 131l181 112q0 -2 4 -10t13.5 -23t22.5 -28q33 -33 82 -33q39 0 69 22t36 55q6 35 -10.5 56.5t-50.5 21.5h-120l28 160h120q28 0 53 23t30 52q5 32 -15 53t-55 21q-89 0 -156 -100l-141 110q50 84 147 136q97 53 196 53q143 0 217 -70
t55 -184q-10 -57 -53 -105t-102 -67q55 -19 82 -71t16 -115q-19 -112 -124 -183q-103 -69 -253 -69zM697 -140h-227l5 26l969 1332h225l-4 -24z" />
    <glyph glyph-name="threequarters.onum" horiz-adv-x="1807" 
d="M424 380q-101 0 -177 52q-77 53 -95 131l181 112q0 -2 4 -10t13.5 -23t22.5 -28q33 -33 82 -33q39 0 69 22t36 55q6 35 -10.5 56.5t-50.5 21.5h-120l28 160h120q28 0 53 23t30 52q6 31 -14.5 52.5t-55.5 21.5q-89 0 -155 -100l-142 110q50 84 147 136q97 53 196 53
q143 0 217 -70q75 -71 56 -184q-11 -58 -54 -105.5t-102 -66.5q56 -19 82.5 -71t15.5 -115q-19 -112 -124 -182q-103 -70 -253 -70zM1399 -140l34 190h-370l25 142l430 492h255l-80 -453h111l-32 -181h-111l-34 -190h-228zM674 -140h-227l5 26l969 1332h225l-4 -24z
M1501 435l-178 -204h142z" />
    <glyph glyph-name="percent.onum" horiz-adv-x="1789" 
d="M796 588q-124 -105 -291 -105q-166 0 -252 104q-88 104 -59 265q29 165 153 271t290 106t254 -106q87 -106 58 -271q-29 -160 -153 -264zM1629 -64q-125 -104 -291 -104t-252 104q-88 104 -59 265q29 165 153 271t290 106t254 -106q87 -106 58 -271q-28 -160 -153 -265z
M1584 1186l-967 -1334h-227l4 26l969 1332h225zM1290 202q-10 -53 15.5 -87.5t75.5 -34.5q51 0 89.5 34.5t48.5 87.5q9 54 -17.5 88.5t-77.5 34.5q-50 0 -87.5 -34.5t-46.5 -88.5zM456 853q-9 -54 16.5 -88t75.5 -34q51 0 89.5 34.5t47.5 87.5q10 54 -16.5 88.5t-77.5 34.5
q-50 0 -87.5 -34.5t-47.5 -88.5z" />
    <glyph glyph-name="perthousand.onum" horiz-adv-x="2607" 
d="M796 588q-124 -105 -291 -105q-166 0 -252 104q-88 104 -59 265q29 165 153 271t290 106t254 -106q87 -106 58 -271q-29 -160 -153 -264zM1629 -64q-125 -104 -291 -104t-252 104q-88 104 -59 265q29 165 153 271t290 106t254 -106q87 -106 58 -271q-28 -160 -153 -265z
M2444 -64q-125 -104 -291 -104t-252 104q-88 104 -59 265q29 165 153 271t290 106t254 -106q87 -106 58 -271q-28 -160 -153 -265zM1584 1186l-967 -1334h-227l4 26l969 1332h225zM2105 202q-10 -53 15.5 -87.5t75.5 -34.5q51 0 89.5 34.5t48.5 87.5q9 54 -17.5 88.5
t-77.5 34.5q-50 0 -87.5 -34.5t-46.5 -88.5zM1290 202q-10 -53 15.5 -87.5t75.5 -34.5q51 0 89.5 34.5t48.5 87.5q9 54 -17.5 88.5t-77.5 34.5q-50 0 -87.5 -34.5t-46.5 -88.5zM456 853q-9 -54 16.5 -88t75.5 -34q51 0 89.5 34.5t47.5 87.5q10 54 -16.5 88.5t-77.5 34.5
q-50 0 -87.5 -34.5t-47.5 -88.5z" />
    <glyph glyph-name="zero.slash.onum.tnum" 
d="M1198 1020l189 188l104 -96l-181 -180q136 -154 93 -399q-26 -159 -124 -286.5t-247 -198t-320 -68.5q-169 0 -291 68l-188 -187l-104 96l180 179q-134 156 -91 397q43 246 235 400q191 154 455 154q169 0 290 -67zM1032 655l-343 -341q36 -13 80 -13q101 0 178 65
q75 64 93 167q12 67 -8 122zM588 414l342 339q-32 13 -79 13q-101 0 -177 -65q-75 -66 -93 -168q-12 -67 7 -119z" />
    <glyph glyph-name="zero.onum.tnum" 
d="M712 -20q-264 0 -400 154q-137 154 -94 399q43 246 235 400q191 154 455 154q263 0 401 -153q137 -155 94 -401q-26 -159 -124 -286.5t-247 -198t-320 -68.5zM674 701q-75 -66 -93 -168q-18 -103 34 -167q53 -65 154 -65t178 65q75 64 93 167t-34 168q-53 65 -155 65
q-101 0 -177 -65z" />
    <glyph glyph-name="one.onum.tnum" 
d="M1271 318l-56 -318h-998l56 318h327l76 431h-289l56 318h677l-132 -749h283z" />
    <glyph glyph-name="two.onum.tnum" 
d="M1219 1h-994l47 263l-1 3l404 214q120 64 172 107q53 44 62 95q7 37 -19.5 60.5t-75.5 23.5q-66 0 -126 -39t-103 -104l-254 158q93 142 238 223q148 83 306 83q227 0 349 -102q120 -102 90 -270q-41 -229 -418 -391h380z" />
    <glyph glyph-name="three.onum.tnum" 
d="M648 -309q-98 0 -182.5 28.5t-142.5 78.5q-113 97 -143 231l311 152q54 -160 204 -160q65 0 110 32.5t53 83.5q10 58 -24 93t-101 35h-197l46 260h207q51 0 96 36q45 35 53 82q11 55 -21.5 87.5t-89.5 32.5q-141 0 -251 -156l-248 137q85 154 242 249t333 95
q211 0 342 -103q64 -52 91.5 -133.5t9.5 -180.5q-20 -111 -101 -181q-72 -62 -146 -85q78 -29 127 -106q50 -79 30 -192q-33 -185 -201 -301q-167 -115 -407 -115z" />
    <glyph glyph-name="four.onum.tnum" 
d="M738 26h-597l41 237l693 804h426l-130 -739h184l-53 -302h-184l-56 -317h-380zM850 664l-262 -336h203z" />
    <glyph glyph-name="five.onum.tnum" 
d="M651 -310q-362 0 -452 332l324 156q49 -159 181 -159q67 0 120 46q54 46 64 112q12 67 -25.5 110t-109.5 43q-54 0 -104.5 -28t-83.5 -70l-251 119l203 716h849l-57 -326h-523l-49 -172q73 41 189 41q188 0 292 -122q104 -124 70 -318q-37 -213 -213 -347
q-176 -133 -424 -133z" />
    <glyph glyph-name="six.onum.tnum" 
d="M735 -20q-98 0 -178 23t-135 64t-94.5 98.5t-56 127t-20 148t13.5 162.5q67 379 280 577q212 198 545 198q112 0 195.5 -21t162.5 -67l-140 -291q-120 72 -265 72q-170 0 -279 -116q-59 -64 -86 -157q44 54 126.5 87.5t183.5 33.5q212 0 319 -119t72 -317
q-41 -229 -216 -365q-175 -138 -428 -138zM634 466q-14 -74 30 -121t122 -47q79 0 138 47q58 46 72 121q13 73 -29 122q-44 47 -122 47q-79 0 -138 -47q-59 -46 -73 -122z" />
    <glyph glyph-name="seven.onum.tnum" 
d="M683 -291h-419q334 630 684 1032h-586l57 326h1011l-46 -263q-430 -534 -701 -1095z" />
    <glyph glyph-name="eight.onum.tnum" 
d="M713 -20q-156 -2 -272 50.5t-169 146.5t-30 211q23 119 102 203q80 83 180 123q-80 29 -125 101q-46 72 -28 173q32 176 194 283q163 107 395 107q233 0 355 -107q122 -109 91 -283q-18 -99 -89 -172q-70 -73 -163 -102q123 -54 165 -176q23 -70 8 -150
q-31 -181 -202 -294q-171 -114 -412 -114zM636 412q-11 -60 27 -97.5t103 -37.5q64 0 116 37q52 38 62 98q11 62 -27 100.5t-103 38.5t-115 -37q-53 -38 -63 -102zM762 964q-9 -52 18.5 -87.5t84.5 -35.5q58 0 98 37t49 86q8 50 -21 83t-84 33t-96 -33t-49 -83z" />
    <glyph glyph-name="nine.onum.tnum" 
d="M91 -220l141 291q120 -72 265 -72q171 0 279 116q57 62 86 157q-44 -54 -126.5 -87.5t-183.5 -33.5q-212 0 -319 119t-72 317q41 228 216 366q176 137 427 137q98 0 178 -23t135 -64t94.5 -98.5t56 -127t20 -148t-13.5 -162.5q-66 -378 -278 -577q-212 -198 -546 -198
q-112 0 -195.5 21t-163.5 67zM616 725q-58 -46 -72 -121q-14 -74 30 -121q42 -48 121 -48q78 0 139 47q58 46 72 122q14 74 -30 121t-122 47q-79 0 -138 -47z" />
    <glyph glyph-name="plus.onum.tnum" 
d="M525 3l65 370h-387l57 326h387l64 362h380l-64 -362h391l-57 -326h-391l-65 -370h-380z" />
    <glyph glyph-name="minus.onum.tnum" 
d="M1337 692l-57 -326h-999l57 326h999z" />
    <glyph glyph-name="plusminus.onum.tnum" 
d="M576 283l54 307h-366l58 326h366l52 295h381l-52 -295h365l-58 -326h-365l-54 -307h-381zM1238 -170h-1100l55 313h1100z" />
    <glyph glyph-name="equal.onum.tnum" 
d="M249 477h1101l-58 -330h-1101zM327 917h1101l-58 -329h-1101z" />
    <glyph glyph-name="notequal.onum.tnum" 
d="M458 159h-257l51 287h385l107 172h-462l50 286h590l268 429l166 -74l-223 -355h284l-50 -286h-413l-107 -172h490l-51 -287h-620l-260 -417l-159 79z" />
    <glyph glyph-name="approxequal.onum.tnum" 
d="M256 55l-111 251q92 109 209 168q118 60 238 60q65 0 127.5 -18t103.5 -43q98 -61 175 -61q80 0 144 23q62 23 138 81l129 -231q-95 -97 -214 -159q-119 -64 -247 -64q-109 0 -205 66q-98 66 -209 66q-138 0 -278 -139zM336 561l-123 241q230 208 462 208q68 0 131 -18
t102 -43q94 -61 175 -61q112 0 240 106l114 -239q-119 -116 -209 -160q-96 -47 -192 -47q-108 0 -212 66t-203 66q-55 0 -114 -21q-56 -20 -92 -42q-40 -26 -79 -56z" />
    <glyph glyph-name="multiply.onum.tnum" 
d="M401 -22l-201 245l369 312q-31 38 -134 162q-93 109 -126 150l289 246l256 -306l364 306l202 -246l-372 -312l263 -312l-290 -245l-256 306z" />
    <glyph glyph-name="less.onum.tnum" 
d="M1242 -98l-1000 492l49 277l1172 488l-65 -371l-642 -255q56 -26 231 -109q53 -25 124 -59t117.5 -56t78.5 -37z" />
    <glyph glyph-name="greater.onum.tnum" 
d="M1328 394l-1172 -492l65 370q39 16 153.5 62.5t190.5 77.5q233 94 299 121l-552 255l65 371l1000 -488z" />
    <glyph glyph-name="lessequal.onum.tnum" 
d="M743 620h639l-56 -319h-1118l77 434l1185 526l-70 -398zM165 126h1145l-55 -312h-1145z" />
    <glyph glyph-name="greaterequal.onum.tnum" 
d="M1329 301h-1118l56 319h639l-571 243l70 398l1001 -526zM1255 -186h-1145l55 312h1145z" />
    <glyph glyph-name="divide.onum.tnum" 
d="M1338 390h-1107l50 283h1107zM1002 812q-68 -57 -153 -57t-132 57q-48 56 -33 139q13 82 82 140q68 57 152 57q85 0 133 -57t34 -140q-15 -83 -83 -139zM854 -28q-68 -56 -153 -56t-132 56q-48 57 -33 140q13 82 82 140q68 57 152 57q85 0 133 -57t34 -140
q-15 -83 -83 -140z" />
    <glyph glyph-name="logicalnot.onum.tnum" 
d="M1318 194h-386l59 332h-750l57 326h1136z" />
    <glyph glyph-name="numbersign.onum.tnum" 
d="M340 220h-204l86 237h203l63 177h-203l86 237h201l70 196h267l-70 -196h163l70 196h267l-70 -196h220l-86 -237h-218l-63 -177h218l-86 -237h-217l-79 -220h-267l79 220h-163l-79 -220h-267zM755 634l-63 -177h163l63 177h-163z" />
    <glyph glyph-name="dollar.onum.tnum" 
d="M293 251l267 167q27 -54 72.5 -90.5t100.5 -49.5l22 122l-21 6q-114 30 -194 79q-47 29 -74 63q-63 80 -41 203q26 141 152 232q126 90 288 104l26 146h121l-26 -148q256 -30 336 -254l-259 -164q-47 95 -138 123l-22 -122q187 -55 266 -123q96 -85 71 -225
q-12 -73 -55.5 -136t-107.5 -105q-129 -84 -285 -98l-29 -162h-121l29 163q-143 13 -241 81.5t-137 187.5zM902 322q2 14 -11 26t-41 22l-17 -96q61 10 69 48zM807 701l17 92q-53 -11 -59 -42q-4 -28 42 -50z" />
    <glyph glyph-name="Euro.onum.tnum" 
d="M391 397h-113l19 108h103q1 7 13 66h-104l19 108h116q70 192 220 303q149 108 346 108q161 0 265 -77t129 -215l-310 -137q-24 154 -135 154q-113 0 -176 -136h255l-19 -108h-271q-8 -33 -12 -66h271l-19 -108h-256q13 -142 133 -142q67 0 116 48q49 46 78 106l264 -134
q-88 -144 -217 -219.5t-292 -75.5q-204 0 -314.5 109.5t-108.5 307.5z" />
    <glyph glyph-name="yen.onum.tnum" 
d="M547 504l-288 563h384l189 -408l334 408h384l-486 -563h133l-20 -115h-212l-15 -86h199l-20 -115h-200l-33 -188h-359l33 188h-200l20 115h201l15 86h-211l20 115h132z" />
    <glyph glyph-name="sterling.onum.tnum" 
d="M1170 0h-860l39 223q127 66 144 156l11 64h-126l30 171h124l14 80q32 183 168 288q135 105 322 105q77 0 139 -22.5t97.5 -52.5t61.5 -71.5t35.5 -67.5t14.5 -51l3 -15l-265 -134q-3 20 -12 43q-8 20 -21 37q-35 43 -94 43q-47 0 -80.5 -28t-41.5 -74l-14 -80h224
l-30 -171h-224l-6 -34q-14 -84 -80 -131h476z" />
    <glyph glyph-name="currency.onum.tnum" 
d="M350 -58l-141 171l200 170q-44 108 -22 231q21 122 99 225l-138 164l201 171l136 -165q119 62 240 62q124 0 222 -62l192 165l141 -171l-194 -164q43 -101 22 -225q-22 -128 -107 -231l140 -170l-201 -171l-142 174q-116 -57 -234 -57q-117 0 -210 57zM685 514
q-12 -66 27 -112t105 -46q69 0 124 46q56 47 68 112q11 68 -28 115q-41 47 -108 47q-65 0 -121 -47q-57 -49 -67 -115z" />
    <glyph glyph-name="florin.onum.tnum" 
d="M134 -101l127 273q37 -25 99 -25q157 0 197 121l62 194h-146l96 298h145l28 87q59 180 211 286q151 106 349 106q59 0 122 -16q65 -17 100 -38l-135 -270q-46 32 -110 32q-67 0 -118 -32t-69 -85l-23 -70h258l-96 -298h-243l-72 -226q-60 -186 -208 -290
q-148 -105 -348 -105q-60 0 -125 18q-67 19 -101 40z" />
    <glyph glyph-name="cent.onum.tnum" 
d="M661 -120l32 182q-199 23 -300 161q-103 137 -68 335q35 197 185 335q149 137 357 160l30 168h131l-29 -167q129 -12 218.5 -75.5t125.5 -170.5l-311 -190q-25 86 -91 109l-60 -342q76 19 137 103l240 -192q-72 -100 -185.5 -161.5t-248.5 -73.5l-32 -181h-131zM752 396
l56 321q-46 -22 -78 -64.5t-42 -94.5q-20 -115 64 -162z" />
    <glyph glyph-name="mu.onum.tnum" 
d="M591 -399h-368l239 1359h384l-93 -530q-9 -51 18 -83t79 -32t89.5 32t46.5 83l93 530h384l-169 -960h-350l7 92q-49 -49 -125.5 -78t-167.5 -33z" />
    <glyph glyph-name="pi.onum.tnum" 
d="M220 -2l141 804h-159l58 327h1340q-37 -211 -59 -327h-151l-71 -404q-10 -55 24 -79.5t98 -14.5l-56 -314q-9 -4 -50 -7t-57 -3q-191 0 -282 91q-93 91 -60 282l79 449h-279l-141 -804h-375z" />
    <glyph glyph-name="degree.onum.tnum" 
d="M798 479q-158 0 -240 96q-82 95 -55 250q29 158 145 255q116 98 274 98q161 0 243 -97q83 -98 54 -256q-27 -154 -144 -250t-277 -96zM797 909q-35 -32 -44 -83t15 -82q24 -32 71 -32q50 0 86 31.5t45 82.5t-16.5 83t-74.5 32q-47 0 -82 -32z" />
    <glyph glyph-name="ordmasculine.onum.tnum" 
d="M807 529q-148 0 -223 89q-77 89 -51 232q26 146 133 237t256 91t225 -91q77 -91 51 -237q-26 -144 -133 -232q-110 -89 -258 -89zM1108 447l-29 -166h-621l29 166h621zM760 851q-8 -49 15 -79.5t69 -30.5q48 0 83 30.5t43 79.5q9 50 -15 80.5t-72 30.5q-46 0 -80 -31
t-43 -80z" />
    <glyph glyph-name="ordfeminine.onum.tnum" 
d="M734 552q-95 0 -144 51t-34 133q14 83 92 134t190 51q72 0 118 -21l1 6q6 37 -22 61t-81 24q-87 0 -161 -65l-70 146q49 46 122 76q78 32 154 32q141 0 211 -64q71 -65 52 -174l-67 -378h-189l10 56q-31 -31 -80.5 -49.5t-101.5 -18.5zM1082 457l-30 -165h-569l30 165
h569zM759 750q-4 -21 10.5 -33t41.5 -12q42 0 80 25t43 48q-27 21 -89 21q-77 0 -86 -49z" />
    <glyph glyph-name="A.smcp" horiz-adv-x="1192" 
d="M378 0h-379l568 1030h422l204 -1030h-379l-19 157h-342zM772 418l-49 303l-155 -303h204z" />
    <glyph glyph-name="B.smcp" horiz-adv-x="1097" 
d="M700 0h-579l182 1030h547q155 0 237 -76t59 -207q-13 -70 -57 -130t-108 -94q69 -29 98 -91.5t14 -142.5q-22 -123 -129 -206t-264 -83zM543 406l-27 -148h130q30 0 54 22t29 51q6 33 -9 54t-47 21h-130zM721 772h-114l-26 -149h120q28 0 48.5 22t26.5 54q5 29 -10 51
t-45 22z" />
    <glyph glyph-name="C.smcp" horiz-adv-x="1100" 
d="M600 -20q-120 -1 -216.5 40.5t-155 114t-81.5 172t-1 211.5q40 230 222 381q181 151 429 151q150 0 260 -76q111 -77 147 -203l-293 -174q-15 67 -58 105.5t-110 38.5q-87 0 -158 -62t-89 -161q-18 -100 32 -165q50 -66 136 -66q128 0 222 135l229 -167
q-82 -124 -223 -200q-141 -75 -292 -75z" />
    <glyph glyph-name="D.smcp" horiz-adv-x="1205" 
d="M617 0h-496l181 1029h496q151 2 263 -67.5t159.5 -188t19.5 -257.5q-25 -143 -112.5 -260t-221.5 -186q-134 -70 -289 -70zM625 760l-87 -491h103q89 0 160 74t89 173t-26 172q-45 72 -133 72h-106z" />
    <glyph glyph-name="E.smcp" horiz-adv-x="991" 
d="M538 268h442l-47 -268h-812l181 1029h804l-47 -269h-434l-19 -109h381l-46 -257h-381z" />
    <glyph glyph-name="F.smcp" horiz-adv-x="972" 
d="M1118 1030l-50 -284h-445l-24 -133h363l-48 -272h-363l-60 -341h-370l182 1030h815z" />
    <glyph glyph-name="G.smcp" horiz-adv-x="1180" 
d="M608 -20q-162 -2 -278.5 69.5t-165 195t-18.5 272.5q41 230 224 382q182 151 432 151q152 0 259 -67t150 -172l-285 -182q-22 52 -67 82t-107 30q-98 0 -168 -63q-72 -64 -88 -161q-18 -105 30 -174q46 -70 140 -70q52 0 98 23t70 62h-195l39 218h553l-14 -78
q-28 -163 -119 -282q-90 -118 -216 -177q-124 -59 -274 -59z" />
    <glyph glyph-name="H.smcp" horiz-adv-x="1317" 
d="M556 370l-65 -370h-370l182 1030h370l-67 -377h335l67 377h370l-182 -1030h-370l65 370h-335z" />
    <glyph glyph-name="I.smcp" horiz-adv-x="622" 
d="M303 1030h380l-182 -1030h-380z" />
    <glyph glyph-name="J.smcp" horiz-adv-x="937" 
d="M26 184l246 203q54 -102 135 -102q48 0 79.5 28.5t39.5 77.5l113 639h370l-117 -663q-31 -180 -170 -284q-139 -103 -346 -103q-129 0 -222 59q-97 59 -128 145z" />
    <glyph glyph-name="K.smcp" horiz-adv-x="1184" 
d="M542 288l-51 -288h-370l181 1029h370l-55 -315l327 315h417l-457 -420l288 -609h-405l-158 368z" />
    <glyph glyph-name="L.smcp" horiz-adv-x="966" 
d="M303 1030h370l-132 -746h455l-50 -284h-825z" />
    <glyph glyph-name="M.smcp" horiz-adv-x="1457" 
d="M471 0h-350l181 1029h422l92 -530l279 530h422l-181 -1029h-350l82 465l-222 -408h-211l-82 408z" />
    <glyph glyph-name="N.smcp" horiz-adv-x="1273" 
d="M481 0h-360l182 1030h273l317 -457l81 457h360l-182 -1030h-273l-317 457z" />
    <glyph glyph-name="O.smcp" horiz-adv-x="1221" 
d="M608 -20q-247 0 -375 149t-86 388q42 236 222 385q179 148 428 148q247 0 374 -148t85 -386t-221 -387q-181 -149 -427 -149zM497 516q-19 -106 27 -172q46 -67 138 -67q90 0 158 66q66 65 86 173q18 105 -26 170q-43 64 -135 64q-91 0 -161 -65q-69 -64 -87 -169z" />
    <glyph glyph-name="P.smcp" horiz-adv-x="1075" 
d="M546 312l-55 -312h-370l181 1029h547q157 0 249 -101q91 -100 64 -255q-29 -155 -155 -257q-128 -104 -284 -104h-177zM754 759h-129l-31 -176h129q33 0 59.5 26.5t32.5 63.5q6 38 -10 62t-51 24z" />
    <glyph glyph-name="Q.smcp" horiz-adv-x="1221" 
d="M655 -20q-247 0 -375 149t-86 388q42 236 222 385q179 148 428 148q247 0 374 -148t85 -386q-22 -126 -86.5 -231.5t-163.5 -177.5l54 -100l-222 -133l-68 124q-78 -18 -162 -18zM544 516q-17 -96 19 -160.5t113 -76.5l-49 94l204 128l66 -123q42 58 56 138
q18 105 -26 170q-43 64 -135 64q-91 0 -161 -65q-69 -64 -87 -169z" />
    <glyph glyph-name="R.smcp" horiz-adv-x="1110" 
d="M491 0h-370l182 1030h576q157 0 248 -100t64 -257q-17 -95 -77 -173t-150 -126l121 -374h-371l-86 323h-80zM759 764h-133l-31 -176h133q35 0 62.5 25.5t33.5 62.5q7 38 -10.5 63t-54.5 25z" />
    <glyph glyph-name="S.smcp" horiz-adv-x="1018" 
d="M85 199l262 198q38 -67 97 -102.5t124 -35.5q90 0 98 41q5 27 -26 43q-25 13 -133 47l-9 3q-140 44 -216 113q-89 80 -65 219q26 140 162 233q137 92 320 92q141 0 242 -59q99 -59 140 -150l-249 -182q-64 111 -178 111q-37 0 -62 -11.5t-29 -30.5q-5 -27 50 -50
q28 -12 113 -40q38 -13 67.5 -24.5t61 -26.5t53.5 -30.5t44.5 -36t34 -42.5t22 -50.5t9 -59.5t-5.5 -70q-26 -141 -162 -229q-137 -89 -333 -89q-160 0 -269 57t-163 162z" />
    <glyph glyph-name="T.smcp" horiz-adv-x="962" 
d="M428 746h-280l50 284h930l-50 -284h-280l-132 -746h-370z" />
    <glyph glyph-name="U.smcp" horiz-adv-x="1178" 
d="M585 -20q-142 -2 -240.5 41t-144 134.5t-23.5 222.5l115 652h370l-109 -614q-11 -66 12.5 -100.5t73.5 -34.5t85.5 34.5t46.5 100.5l109 614h370l-115 -652q-35 -196 -183 -297q-149 -101 -367 -101z" />
    <glyph glyph-name="V.smcp" horiz-adv-x="1107" 
d="M749 0h-388l-175 1029h366l77 -615l289 615h366z" />
    <glyph glyph-name="W.smcp" horiz-adv-x="1540" 
d="M283 0l-88 1029h344l33 -577l240 564h275l42 -565l234 578h344l-449 -1029h-384l-38 377l-171 -377h-382z" />
    <glyph glyph-name="X.smcp" horiz-adv-x="1140" 
d="M387 0h-390l471 526l-271 503h388l124 -242l207 242h391l-449 -503l286 -526h-390l-135 272z" />
    <glyph glyph-name="Y.smcp" horiz-adv-x="1132" 
d="M455 385l-270 644h391l113 -336l229 336h391l-496 -644l-68 -385h-358z" />
    <glyph glyph-name="Z.smcp" horiz-adv-x="993" 
d="M935 0h-877l40 227l538 533h-433l47 269h857l-41 -233l-531 -528h447z" />
    <glyph glyph-name="ampersand.smcp" horiz-adv-x="1210" 
d="M481 -20q-86 0 -160 20.5t-128.5 59.5t-79.5 101.5t-12 139.5q15 83 85 153q70 69 161 97q-33 39 -49.5 94t-7.5 102q28 153 148 229t282 76q89 0 156.5 -25t102.5 -67q68 -85 50 -190q-14 -76 -80 -142q-68 -68 -161 -119l76 -90q33 41 44 115h285q-28 -200 -143 -310
l196 -231h-379l-66 83q-59 -42 -145 -69q-88 -27 -175 -27zM437 336q-6 -38 18.5 -67.5t70.5 -29.5q60 0 107 33l-128 143q-61 -33 -68 -79zM653 661q58 39 66 80q3 19 -8.5 35.5t-34.5 16.5q-25 0 -43.5 -16.5t-22.5 -41.5q-4 -27 43 -74z" />
    <glyph glyph-name="Agrave.smcp" horiz-adv-x="1192" 
d="M378 0h-379l568 1030h422l204 -1030h-379l-19 157h-342zM951 1156h-312l-228 334h432zM772 418l-49 303l-155 -303h204z" />
    <glyph glyph-name="Aacute.smcp" horiz-adv-x="1192" 
d="M378 0h-379l568 1030h422l204 -1030h-379l-19 157h-342zM1308 1487l-346 -334h-312l226 334h432zM772 418l-49 303l-155 -303h204z" />
    <glyph glyph-name="Acircumflex.smcp" horiz-adv-x="1192" 
d="M378 0h-379l568 1030h422l204 -1030h-379l-19 157h-342zM823 1285l-133 -160h-311l353 370h257l221 -370h-312zM772 418l-49 303l-155 -303h204z" />
    <glyph glyph-name="Adotbelow.smcp" horiz-adv-x="1192" 
d="M378 0h-379l568 1030h422l204 -1030h-379l-19 157h-342zM509 -481q-81 0 -129 58q-49 58 -35 136q15 83 85 141q71 59 149 59q83 0 132 -61q49 -59 35 -139q-13 -81 -86 -138q-73 -56 -151 -56zM772 418l-49 303l-155 -303h204z" />
    <glyph glyph-name="Atilde.smcp" horiz-adv-x="1192" 
d="M378 0h-379l568 1030h422l204 -1030h-379l-19 157h-342zM534 1150l-118 127q156 230 329 230q74 0 136 -46t104 -46q59 0 142 77l116 -117q-74 -110 -164 -168.5t-171 -58.5q-36 -2 -81 21t-86 46t-67 22q-60 0 -140 -87zM772 418l-49 303l-155 -303h204z" />
    <glyph glyph-name="Adieresis.smcp" horiz-adv-x="1192" 
d="M378 0h-379l568 1030h422l204 -1030h-379l-19 157h-342zM609 1184q-74 0 -112.5 46t-25.5 120q14 77 68 122q55 46 129 46t113 -47q38 -48 25 -121q-14 -74 -67 -120q-55 -46 -130 -46zM999 1184q-73 0 -111.5 46t-25.5 120q14 77 68 122q55 46 128 46q75 0 113.5 -47
t25.5 -121q-13 -73 -68.5 -119.5t-129.5 -46.5zM723 721l-155 -303h204z" />
    <glyph glyph-name="Amacron.smcp" horiz-adv-x="1192" 
d="M378 0h-379l568 1030h422l204 -1030h-379l-19 157h-342zM1143 1423l-41 -234h-591l41 234h591zM772 418l-49 303l-155 -303h204z" />
    <glyph glyph-name="Abreve.smcp" horiz-adv-x="1192" 
d="M378 0h-379l568 1030h422l204 -1030h-379l-19 157h-342zM798 1144q-158 0 -235 96q-78 97 -50 257h249q-13 -61 7 -97.5t67 -36.5q48 0 81 36.5t41 97.5h250q-28 -160 -139 -257q-111 -96 -271 -96zM772 418l-49 303l-155 -303h204z" />
    <glyph glyph-name="Aring.smcp" horiz-adv-x="1192" 
d="M378 0h-379l568 1030h422l204 -1030h-379l-19 157h-342zM790 1100q-100 0 -154 65q-54 64 -37 163q16 99 95 165q76 66 177 66q99 0 154 -66q54 -65 37 -165q-16 -97 -95 -162q-78 -66 -177 -66zM723 721l-155 -303h204zM778 1329q-3 -21 9.5 -37.5t33.5 -16.5t39.5 16.5
t21.5 37.5q4 21 -8.5 38t-33.5 17t-39.5 -17t-22.5 -38z" />
    <glyph glyph-name="Aringacute.smcp" horiz-adv-x="1192" 
d="M378 0h-379l568 1030h422l204 -1030h-379l-19 157h-342zM790 1100q-100 0 -154 65q-54 64 -37 163q16 99 95 165q76 66 177 66q99 0 154 -66q54 -65 37 -165q-16 -97 -95 -162q-78 -66 -177 -66zM1377 1935l-346 -334h-312l226 334h432zM772 418l-49 303l-155 -303h204z
M778 1329q-3 -21 9.5 -37.5t33.5 -16.5t39.5 16.5t21.5 37.5q4 21 -8.5 38t-33.5 17t-39.5 -17t-22.5 -38z" />
    <glyph glyph-name="Aogonek.smcp" horiz-adv-x="1192" 
d="M378 0h-379l568 1030h422l204 -1030h-137q-215 -104 -227 -178q-6 -31 13.5 -49t57.5 -18q62 0 124 27l27 -206q-102 -57 -240 -57q-128 0 -193 60.5t-48 160.5q25 147 244 260l-19 157h-342zM723 721l-155 -303h204z" />
    <glyph glyph-name="AE.smcp" horiz-adv-x="1591" 
d="M434 157l-98 -157h-378l718 1029h1030l-47 -269h-434l-19 -109h381l-46 -257h-381l-22 -126h442l-47 -268h-812l28 157h-315zM795 418l74 424l-283 -424h209z" />
    <glyph glyph-name="AEacute.smcp" horiz-adv-x="1591" 
d="M434 157l-98 -157h-378l718 1029h1030l-47 -269h-434l-19 -109h381l-46 -257h-381l-22 -126h442l-47 -268h-812l28 157h-315zM1728 1487l-346 -334h-312l226 334h432zM795 418l74 424l-283 -424h209z" />
    <glyph glyph-name="Cacute.smcp" horiz-adv-x="1100" 
d="M600 -20q-120 -1 -216.5 40.5t-155 114t-81.5 172t-1 211.5q40 230 222 381q181 151 429 151q150 0 260 -76q111 -77 147 -203l-293 -174q-15 67 -58 105.5t-110 38.5q-87 0 -158 -62t-89 -161q-18 -100 32 -165q50 -66 136 -66q128 0 222 135l229 -167
q-82 -124 -223 -200q-141 -75 -292 -75zM1302 1487l-346 -334h-312l226 334h432z" />
    <glyph glyph-name="Ccircumflex.smcp" horiz-adv-x="1100" 
d="M600 -20q-120 -1 -216.5 40.5t-155 114t-81.5 172t-1 211.5q40 230 222 381q181 151 429 151q150 0 260 -76q111 -77 147 -203l-293 -174q-15 67 -58 105.5t-110 38.5q-87 0 -158 -62t-89 -161q-18 -100 32 -165q50 -66 136 -66q128 0 222 135l229 -167
q-82 -124 -223 -200q-141 -75 -292 -75zM820 1285l-133 -160h-311l353 370h257l221 -370h-312z" />
    <glyph glyph-name="Ccaron.smcp" horiz-adv-x="1100" 
d="M600 -20q-120 -1 -216.5 40.5t-155 114t-81.5 172t-1 211.5q40 230 222 381q181 151 429 151q150 0 260 -76q111 -77 147 -203l-293 -174q-15 67 -58 105.5t-110 38.5q-87 0 -158 -62t-89 -161q-18 -100 32 -165q50 -66 136 -66q128 0 222 135l229 -167
q-82 -124 -223 -200q-141 -75 -292 -75zM684 1133l-222 370h311l76 -160l132 160h312l-352 -370h-257z" />
    <glyph glyph-name="Cdotaccent.smcp" horiz-adv-x="1100" 
d="M600 -20q-120 -1 -216.5 40.5t-155 114t-81.5 172t-1 211.5q40 230 222 381q181 151 429 151q150 0 260 -76q111 -77 147 -203l-293 -174q-15 67 -58 105.5t-110 38.5q-87 0 -158 -62t-89 -161q-18 -100 32 -165q50 -66 136 -66q128 0 222 135l229 -167
q-82 -124 -223 -200q-141 -75 -292 -75zM822 1156q-94 0 -142 58q-47 58 -31 152q17 96 85 154q68 59 162 59t144 -59q49 -58 32 -154q-16 -93 -86 -152q-68 -58 -164 -58z" />
    <glyph glyph-name="Ccedilla.smcp" horiz-adv-x="1100" 
d="M399 -182l97 170q-196 33 -291 179t-59 351q40 230 222 381q181 151 429 151q150 0 260 -76q111 -77 147 -203l-293 -174q-15 67 -58 105.5t-110 38.5q-87 0 -158 -62t-89 -161q-18 -100 32 -165q50 -66 136 -66q128 0 222 135l229 -167q-74 -109 -190 -180
q-119 -74 -250 -90l-28 -59q102 -15 149.5 -66.5t33.5 -132.5q-17 -96 -125.5 -153t-241.5 -55q-103 0 -165 30l33 182q51 -22 122 -22q113 0 123 54q5 26 -24 40.5t-86 14.5h-67z" />
    <glyph glyph-name="Dcaron.smcp" horiz-adv-x="1205" 
d="M617 0h-496l181 1029h496q151 2 263 -67.5t159.5 -188t19.5 -257.5q-25 -143 -112.5 -260t-221.5 -186q-134 -70 -289 -70zM906 1133h-257l-222 370h311l76 -160l132 160h312zM625 760l-87 -491h103q89 0 160 74t89 173t-26 172q-45 72 -133 72h-106z" />
    <glyph glyph-name="Dcroat.smcp" horiz-adv-x="1225" 
d="M219 445h-83l28 158h83l75 426h496q151 2 263 -67.5t159.5 -188t19.5 -257.5q-25 -143 -112.5 -260t-221.5 -186q-134 -70 -289 -70h-496zM775 603l-28 -158h-158l-31 -176h103q89 0 160 74t89 173t-26 172q-45 72 -133 72h-106l-28 -157h158z" />
    <glyph glyph-name="Eth.smcp" horiz-adv-x="1225" 
d="M219 445h-83l28 158h83l75 426h496q151 2 263 -67.5t159.5 -188t19.5 -257.5q-25 -143 -112.5 -260t-221.5 -186q-134 -70 -289 -70h-496zM775 603l-28 -158h-158l-31 -176h103q89 0 160 74t89 173t-26 172q-45 72 -133 72h-106l-28 -157h158z" />
    <glyph glyph-name="Egrave.smcp" horiz-adv-x="991" 
d="M538 268h442l-47 -268h-812l181 1029h804l-47 -269h-434l-19 -109h381l-46 -257h-381zM923 1156h-312l-228 334h432z" />
    <glyph glyph-name="Eacute.smcp" horiz-adv-x="991" 
d="M538 268h442l-47 -268h-812l181 1029h804l-47 -269h-434l-19 -109h381l-46 -257h-381zM808 1487h432l-346 -334h-312z" />
    <glyph glyph-name="Ecircumflex.smcp" horiz-adv-x="991" 
d="M933 0h-812l181 1029h804l-47 -269h-434l-19 -109h381l-46 -257h-381l-22 -126h442zM609 1125h-311l353 370h257l221 -370h-312l-75 160z" />
    <glyph glyph-name="Ecaron.smcp" horiz-adv-x="991" 
d="M933 0h-812l181 1029h804l-47 -269h-434l-19 -109h381l-46 -257h-381l-22 -126h442zM844 1133h-257l-222 370h311l76 -160l132 160h312z" />
    <glyph glyph-name="Edieresis.smcp" horiz-adv-x="991" 
d="M933 0h-812l181 1029h804l-47 -269h-434l-19 -109h381l-46 -257h-381l-22 -126h442zM909 1184q-73 0 -111.5 46t-25.5 120q14 77 68 122q55 46 128 46q75 0 113.5 -47t25.5 -121q-13 -73 -68.5 -119.5t-129.5 -46.5zM519 1184q-74 0 -112.5 46t-25.5 120q14 77 68 122
q55 46 129 46t113 -47q38 -48 25 -121q-14 -74 -67 -120q-55 -46 -130 -46z" />
    <glyph glyph-name="Etilde.smcp" horiz-adv-x="991" 
d="M933 0h-812l181 1029h804l-47 -269h-434l-19 -109h381l-46 -257h-381l-22 -126h442zM443 1150l-118 127q156 230 329 230q74 0 136 -46t104 -46q59 0 142 77l116 -117q-74 -110 -164 -168.5t-171 -58.5q-36 -2 -81 21t-86 46t-67 22q-61 0 -140 -87z" />
    <glyph glyph-name="Emacron.smcp" horiz-adv-x="991" 
d="M538 268h442l-47 -268h-812l181 1029h804l-47 -269h-434l-19 -109h381l-46 -257h-381zM451 1423h591l-41 -234h-591z" />
    <glyph glyph-name="Ebreve.smcp" horiz-adv-x="991" 
d="M933 0h-812l181 1029h804l-47 -269h-434l-19 -109h381l-46 -257h-381l-22 -126h442zM760 1144q-158 0 -235 96q-78 97 -50 257h249q-13 -61 7 -97.5t67 -36.5q48 0 81 36.5t41 97.5h250q-28 -160 -139 -257q-111 -96 -271 -96z" />
    <glyph glyph-name="Edotaccent.smcp" horiz-adv-x="991" 
d="M933 0h-812l181 1029h804l-47 -269h-434l-19 -109h381l-46 -257h-381l-22 -126h442zM770 1156q-94 0 -142 58q-47 58 -31 152q17 96 85 154q68 59 162 59t144 -59q49 -58 32 -154q-16 -93 -86 -152q-68 -58 -164 -58z" />
    <glyph glyph-name="Edotbelow.smcp" horiz-adv-x="991" 
d="M980 268l-47 -268h-812l181 1029h804l-47 -269h-434l-19 -109h381l-46 -257h-381l-22 -126h442zM469 -481q-81 0 -129 58q-49 58 -35 136q15 83 85 141q71 59 149 59q83 0 132 -61q49 -59 35 -139q-13 -81 -86 -138q-73 -56 -151 -56z" />
    <glyph glyph-name="Eogonek.smcp" horiz-adv-x="991" 
d="M691 0h-570l181 1029h804l-47 -269h-434l-19 -109h381l-46 -257h-381l-22 -126h442l-47 -268q-215 -104 -227 -178q-6 -31 13.5 -49t57.5 -18q63 0 124 27l27 -206q-102 -57 -240 -57q-128 0 -193 60.5t-48 160.5q25 147 244 260z" />
    <glyph glyph-name="Schwa.smcp" horiz-adv-x="1151" 
d="M562 -21q-142 -2 -249 60.5t-155.5 174.5t-22.5 247q10 56 37 132h668q5 68 -47 112q-52 43 -137 43q-64 0 -127.5 -30.5t-104.5 -77.5l-212 162q206 248 523 248q241 0 369 -150q126 -151 84 -388t-217 -385t-409 -148zM810 405h-339q-11 -59 30 -103t111 -44
q68 0 126 44q57 44 72 103z" />
    <glyph glyph-name="Gcircumflex.smcp" horiz-adv-x="1180" 
d="M608 -20q-162 -2 -278.5 69.5t-165 195t-18.5 272.5q41 230 224 382q182 151 432 151q152 0 259 -67t150 -172l-285 -182q-22 52 -67 82t-107 30q-98 0 -168 -63q-72 -64 -88 -161q-18 -105 30 -174q46 -70 140 -70q52 0 98 23t70 62h-195l39 218h553l-14 -78
q-28 -163 -119 -282q-90 -118 -216 -177q-124 -59 -274 -59zM712 1125h-311l353 370h257l221 -370h-312l-75 160z" />
    <glyph glyph-name="Gbreve.smcp" horiz-adv-x="1180" 
d="M608 -20q-162 -2 -278.5 69.5t-165 195t-18.5 272.5q41 230 224 382q182 151 432 151q152 0 259 -67t150 -172l-285 -182q-22 52 -67 82t-107 30q-98 0 -168 -63q-72 -64 -88 -161q-18 -105 30 -174q46 -70 140 -70q52 0 98 23t70 62h-195l39 218h553l-14 -78
q-28 -163 -119 -282q-90 -118 -216 -177q-124 -59 -274 -59zM814 1144q-158 0 -235 96q-78 97 -50 257h249q-13 -61 7 -97.5t67 -36.5q48 0 81 36.5t41 97.5h250q-28 -160 -139 -257q-111 -96 -271 -96z" />
    <glyph glyph-name="Gcaron.smcp" horiz-adv-x="1180" 
d="M608 -20q-162 -2 -278.5 69.5t-165 195t-18.5 272.5q41 230 224 382q182 151 432 151q152 0 259 -67t150 -172l-285 -182q-22 52 -67 82t-107 30q-98 0 -168 -63q-72 -64 -88 -161q-18 -105 30 -174q46 -70 140 -70q52 0 98 23t70 62h-195l39 218h553l-14 -78
q-28 -163 -119 -282q-90 -118 -216 -177q-124 -59 -274 -59zM684 1133l-222 370h311l76 -160l132 160h312l-352 -370h-257z" />
    <glyph glyph-name="Gdotaccent.smcp" horiz-adv-x="1180" 
d="M608 -20q-162 -2 -278.5 69.5t-165 195t-18.5 272.5q41 230 224 382q182 151 432 151q152 0 259 -67t150 -172l-285 -182q-22 52 -67 82t-107 30q-98 0 -168 -63q-72 -64 -88 -161q-18 -105 30 -174q46 -70 140 -70q52 0 98 23t70 62h-195l39 218h553l-14 -78
q-28 -163 -119 -282q-90 -118 -216 -177q-124 -59 -274 -59zM824 1156q-94 0 -142 58q-47 58 -31 152q17 96 85 154q68 59 162 59t144 -59q49 -58 32 -154q-16 -93 -86 -152q-68 -58 -164 -58z" />
    <glyph glyph-name="Gcommaaccent.smcp" horiz-adv-x="1180" 
d="M608 -20q-162 -2 -278.5 69.5t-165 195t-18.5 272.5q41 230 224 382q182 151 432 151q152 0 259 -67t150 -172l-285 -182q-22 52 -67 82t-107 30q-98 0 -168 -63q-72 -64 -88 -161q-18 -105 30 -174q46 -70 140 -70q52 0 98 23t70 62h-195l39 218h553l-14 -78
q-28 -163 -119 -282q-90 -118 -216 -177q-124 -59 -274 -59zM785 -86l-161 -462h-256l75 462h342z" />
    <glyph glyph-name="Hcircumflex.smcp" horiz-adv-x="1317" 
d="M491 0h-370l182 1030h370l-67 -377h335l67 377h370l-182 -1030h-370l65 370h-335zM752 1125h-311l353 370h257l221 -370h-312l-75 160z" />
    <glyph glyph-name="Hbar.smcp" horiz-adv-x="1287" 
d="M541 370l-65 -370h-370l132 745h-78l27 153h78l23 132h370l-23 -132h335l23 132h370l-23 -132h76l-27 -153h-76l-132 -745h-370l65 370h-335zM926 653l16 92h-335l-16 -92h335z" />
    <glyph glyph-name="Igrave.smcp" horiz-adv-x="622" 
d="M303 1030h380l-182 -1030h-380zM666 1156h-312l-228 334h432z" />
    <glyph glyph-name="Iacute.smcp" horiz-adv-x="622" 
d="M303 1030h380l-182 -1030h-380zM582 1487h432l-346 -334h-312z" />
    <glyph glyph-name="Ibreve.smcp" horiz-adv-x="622" 
d="M501 0h-380l182 1030h380zM512 1144q-158 0 -235 96q-78 97 -50 257h249q-13 -61 7 -97.5t67 -36.5q48 0 81 36.5t41 97.5h250q-28 -160 -139 -257q-111 -96 -271 -96z" />
    <glyph glyph-name="Icircumflex.smcp" horiz-adv-x="622" 
d="M683 1030l-182 -1030h-380l182 1030h380zM537 1285l-133 -160h-311l353 370h257l221 -370h-312z" />
    <glyph glyph-name="Itilde.smcp" horiz-adv-x="622" 
d="M501 0h-380l182 1030h380zM249 1150l-118 127q156 230 329 230q74 0 136 -46t104 -46q59 0 142 77l116 -117q-74 -110 -164 -168.5t-171 -58.5q-36 -2 -81 21t-86 46t-67 22q-61 0 -140 -87z" />
    <glyph glyph-name="Idieresis.smcp" horiz-adv-x="622" 
d="M683 1030l-182 -1030h-380l182 1030h380zM714 1184q-73 0 -111.5 46t-25.5 120q14 77 68 122q55 46 128 46q75 0 113.5 -47t25.5 -121q-13 -73 -68.5 -119.5t-129.5 -46.5zM324 1184q-74 0 -112.5 46t-25.5 120q14 77 68 122q55 46 129 46t113 -47q38 -48 25 -121
q-14 -74 -67 -120q-55 -46 -130 -46z" />
    <glyph glyph-name="Imacron.smcp" horiz-adv-x="622" 
d="M303 1030h380l-182 -1030h-380zM266 1423h591l-41 -234h-591z" />
    <glyph glyph-name="Idotaccent.smcp" horiz-adv-x="622" 
d="M501 0h-380l182 1030h380zM513 1156q-94 0 -142 58q-47 58 -31 152q17 96 85 154q68 59 162 59t144 -59q49 -58 32 -154q-16 -93 -86 -152q-68 -58 -164 -58z" />
    <glyph glyph-name="Iogonek.smcp" horiz-adv-x="622" 
d="M194 -481q-128 0 -193 60.5t-48 160.5q25 147 244 260h-76l182 1030h380l-182 -1030h-62q-215 -104 -227 -178q-6 -31 13.5 -49t57.5 -18q63 0 124 27l27 -206q-102 -57 -240 -57z" />
    <glyph glyph-name="Idotbelow.smcp" horiz-adv-x="622" 
d="M683 1030l-182 -1030h-380l182 1030h380zM223 -481q-81 0 -129 58q-49 58 -35 136q15 83 85 141q71 59 149 59q83 0 132 -61q49 -59 35 -139q-13 -81 -86 -138q-73 -56 -151 -56z" />
    <glyph glyph-name="Jcircumflex.smcp" horiz-adv-x="937" 
d="M26 184l246 203q54 -102 135 -102q48 0 79.5 28.5t39.5 77.5l113 639h370l-117 -663q-31 -180 -170 -284q-139 -103 -346 -103q-129 0 -222 59q-97 59 -128 145zM868 1285l-133 -160h-311l353 370h257l221 -370h-312z" />
    <glyph glyph-name="Kcommaaccent.smcp" horiz-adv-x="1184" 
d="M542 288l-51 -288h-370l181 1029h370l-55 -315l327 315h417l-457 -420l288 -609h-405l-158 368zM773 -86l-161 -462h-256l75 462h342z" />
    <glyph glyph-name="Lacute.smcp" horiz-adv-x="966" 
d="M303 1030h370l-132 -746h455l-50 -284h-825zM576 1487h432l-346 -334h-312z" />
    <glyph glyph-name="Lcaron.smcp" horiz-adv-x="966" 
d="M946 566h-256l74 462h342zM303 1030h370l-132 -746h455l-50 -284h-825z" />
    <glyph glyph-name="Lcommaaccent.smcp" horiz-adv-x="966" 
d="M303 1030h370l-132 -746h455l-50 -284h-825zM550 -548h-256l75 462h342z" />
    <glyph glyph-name="Lslash.smcp" horiz-adv-x="1005" 
d="M250 507l-123 -7l25 139l122 7l68 384h370l-64 -362l144 9l-24 -139l-145 -9l-43 -245h455l-50 -284h-825z" />
    <glyph glyph-name="Ldot.smcp" horiz-adv-x="966" 
d="M996 284l-50 -284h-825l182 1030h370l-132 -746h455zM798 376q-81 0 -129 59q-48 58 -34 135q14 84 84 142t149 58q82 0 132 -60t36 -140q-15 -82 -87 -138q-73 -56 -151 -56z" />
    <glyph glyph-name="Nacute.smcp" horiz-adv-x="1273" 
d="M481 0h-360l182 1030h273l317 -457l81 457h360l-182 -1030h-273l-317 457zM992 1153h-312l226 334h432z" />
    <glyph glyph-name="Ncaron.smcp" horiz-adv-x="1273" 
d="M481 0h-360l182 1030h273l317 -457l81 457h360l-182 -1030h-273l-317 457zM708 1133l-222 370h311l76 -160l132 160h312l-352 -370h-257z" />
    <glyph glyph-name="Ntilde.smcp" horiz-adv-x="1273" 
d="M481 0h-360l182 1030h273l317 -457l81 457h360l-182 -1030h-273l-317 457zM555 1150l-118 127q156 230 329 230q74 0 136 -46t104 -46q59 0 142 77l116 -117q-74 -110 -164 -168.5t-171 -58.5q-36 -2 -81 21t-86 46t-67 22q-61 0 -140 -87z" />
    <glyph glyph-name="Ncommaaccent.smcp" horiz-adv-x="1273" 
d="M481 0h-360l182 1030h273l317 -457l81 457h360l-182 -1030h-273l-317 457zM841 -86l-161 -462h-256l75 462h342z" />
    <glyph glyph-name="Nhookleft.smcp" horiz-adv-x="1273" 
d="M46 -420q-126 0 -202 42l84 293q35 -23 86 -23q87 0 107 107v1l182 1030h273l317 -457l81 457h360l-182 -1030h-273l-317 457l-86 -485q-31 -178 -151 -286q-119 -106 -279 -106z" />
    <glyph glyph-name="Eng.smcp" horiz-adv-x="1273" 
d="M562 457l-81 -457h-360l182 1030h273l317 -457l81 457h360l-187 -1058q-31 -178 -151 -286q-119 -106 -279 -106q-125 0 -202 42l84 293q35 -23 86 -23q87 0 107 107l18 101z" />
    <glyph glyph-name="Ograve.smcp" horiz-adv-x="1221" 
d="M608 -20q-247 0 -375 149t-86 388q42 236 222 385q179 148 428 148q247 0 374 -148t85 -386t-221 -387q-181 -149 -427 -149zM497 516q-19 -106 27 -172q46 -67 138 -67q90 0 158 66q66 65 86 173q18 105 -26 170q-43 64 -135 64q-91 0 -161 -65q-69 -64 -87 -169z
M661 1156l-228 334h432l108 -334h-312z" />
    <glyph glyph-name="Oacute.smcp" horiz-adv-x="1221" 
d="M608 -20q-247 0 -375 149t-86 388q42 236 222 385q179 148 428 148q247 0 374 -148t85 -386t-221 -387q-181 -149 -427 -149zM497 516q-19 -106 27 -172q46 -67 138 -67q90 0 158 66q66 65 86 173q18 105 -26 170q-43 64 -135 64q-91 0 -161 -65q-69 -64 -87 -169z
M990 1153h-312l226 334h432z" />
    <glyph glyph-name="Ocircumflex.smcp" horiz-adv-x="1221" 
d="M608 -20q-247 0 -375 149t-86 388q42 236 222 385q179 148 428 148q247 0 374 -148t85 -386t-221 -387q-181 -149 -427 -149zM704 1125h-311l353 370h257l221 -370h-312l-75 160zM497 516q-19 -106 27 -172q46 -67 138 -67q90 0 158 66q66 65 86 173q18 105 -26 170
q-43 64 -135 64q-91 0 -161 -65q-69 -64 -87 -169z" />
    </font>
</defs>
</svg>
