<svg id="Layer_1" data-name="Layer 1" xmlns="http://www.w3.org/2000/svg" viewBox="0 0 370 100"><defs><style>.cls-1{fill:#ff671d;}.cls-2,.cls-3{fill:#0033a1;}.cls-3{fill-rule:evenodd;}</style></defs><path class="cls-1" d="M24.69,81.77h2.52l7.1,17.43H31.68L30,94.8H21.75L20,99.2H17.52Zm1.18,2.35-3.35,8.64h6.69Z"/><path class="cls-1" d="M39.39,81.77H41.8V99.2H39.39Z"/><path class="cls-1" d="M48.58,81.77H52.7c3.32,0,6.52.55,6.52,4.72a4,4,0,0,1-3.47,4v.05c.75.3,1.11.67,1.64,1.75l3.17,6.94H57.82l-2.57-6c-.75-1.7-1.54-1.7-2.82-1.7H51V99.2H48.58ZM51,89.26h2c2.28,0,3.63-1.05,3.63-2.72S55.51,84,53.3,84H51Z"/><path class="cls-1" d="M66.2,81.77h9.4V84h-7v5.09H75v2.2H68.6V97h7v2.2H66.2Z"/><path class="cls-1" d="M89.73,84.39a7.16,7.16,0,0,0-3.15-.72c-1.35,0-2.94.5-2.94,2.32,0,3.35,7.22,2.57,7.22,8.32,0,3.72-2.77,5.19-6.13,5.19a11,11,0,0,1-3.44-.72l.24-2.33A9.82,9.82,0,0,0,85,97.3c1.38,0,3.3-.8,3.3-2.84,0-3.9-7.22-2.83-7.22-8.25,0-3.09,2.36-4.74,5.39-4.74a11,11,0,0,1,3.59.62Z"/><path class="cls-1" d="M111.44,81.77H114l7.1,17.43h-2.63l-1.7-4.4H108.5l-1.71,4.4h-2.52Zm1.18,2.35-3.35,8.64H116Z"/><path class="cls-1" d="M137.74,84.64a6.57,6.57,0,0,0-3.47-1c-3.87,0-6.45,2.89-6.45,6.82,0,4.09,2.84,6.81,6.33,6.81a8,8,0,0,0,3.66-.85l.14,2.43a10.1,10.1,0,0,1-3.82.62c-5.32,0-8.85-3.55-8.85-9.09a8.52,8.52,0,0,1,8.87-8.94,9,9,0,0,1,3.78.75Z"/><path class="cls-1" d="M150.71,81.47c5.1,0,8.08,3.85,8.08,9s-3,9-8.08,9-8.08-3.72-8.08-9S145.61,81.47,150.71,81.47Zm0,15.83c3.87,0,5.53-3.34,5.53-6.81s-1.83-6.85-5.53-6.82-5.53,3.27-5.53,6.82S146.84,97.3,150.71,97.3Z"/><path class="cls-1" d="M164.84,81.77h3.27l7.41,14h0v-14H178V99.2h-3.08l-7.6-14.33h0V99.2h-2.4Z"/><path class="cls-1" d="M184.74,81.77h4.95c5,0,8.95,3.2,8.95,8.56,0,5.85-3.41,8.87-8.95,8.87h-4.95ZM187.14,97h2.53c4.14,0,6.42-2.07,6.42-6.57,0-4.07-2.67-6.46-6.13-6.46h-2.82Z"/><path class="cls-1" d="M204.9,81.77h2.41V99.2H204.9Z"/><path class="cls-1" d="M225.83,84.64a6.53,6.53,0,0,0-3.46-1c-3.87,0-6.45,2.89-6.45,6.82,0,4.09,2.84,6.81,6.33,6.81a7.93,7.93,0,0,0,3.65-.85l.15,2.43a10.15,10.15,0,0,1-3.83.62c-5.31,0-8.85-3.55-8.85-9.09a8.53,8.53,0,0,1,8.88-8.94,9,9,0,0,1,3.78.75Z"/><path class="cls-1" d="M231.59,81.77H234V99.2h-2.41Z"/><path class="cls-1" d="M248.14,81.47c5.1,0,8.08,3.85,8.08,9s-3,9-8.08,9-8.08-3.72-8.08-9S243,81.47,248.14,81.47Zm0,15.83c3.87,0,5.53-3.34,5.53-6.81s-1.82-6.85-5.53-6.82-5.53,3.27-5.53,6.82S244.27,97.3,248.14,97.3Z"/><path class="cls-1" d="M262.27,81.77h3.27l7.41,14H273v-14h2.4V99.2h-3.08l-7.6-14.33h0V99.2h-2.41Z"/><path class="cls-1" d="M287.63,81.77h2.53l7.09,17.43h-2.62l-1.71-4.4H284.7L283,99.2h-2.53Zm1.18,2.35-3.34,8.64h6.68Z"/><path class="cls-1" d="M302.19,81.77h5c5,0,9,3.2,9,8.56,0,5.85-3.42,8.87-9,8.87h-5ZM304.6,97h2.52c4.14,0,6.43-2.07,6.43-6.57,0-4.07-2.67-6.46-6.14-6.46H304.6Z"/><path class="cls-1" d="M329.57,81.47c5.1,0,8.09,3.85,8.09,9s-3,9-8.09,9-8.08-3.72-8.08-9S324.48,81.47,329.57,81.47Zm0,15.83c3.88,0,5.54-3.34,5.54-6.81s-1.83-6.85-5.54-6.82S324,86.94,324,90.49,325.7,97.3,329.57,97.3Z"/><path class="cls-1" d="M351.35,84.39a7.16,7.16,0,0,0-3.15-.72c-1.35,0-2.93.5-2.93,2.32,0,3.35,7.21,2.57,7.21,8.32,0,3.72-2.76,5.19-6.13,5.19a11,11,0,0,1-3.44-.72l.24-2.33a9.88,9.88,0,0,0,3.49.85c1.37,0,3.29-.8,3.29-2.84,0-3.9-7.21-2.83-7.21-8.25,0-3.09,2.35-4.74,5.38-4.74a11,11,0,0,1,3.59.62Z"/><path class="cls-1" d="M91,30.7H43.54v1.39c7.81,1.68,8.13,7.7,6.43,12L38.64,68.29a51.2,51.2,0,0,0,10.69,1.12c23.19,0,42-15.42,42-34.45A28.48,28.48,0,0,0,91,30.7Z"/><path class="cls-2" d="M49.33.5C26.14.5,7.33,15.93,7.33,35c0,11.86,7.31,22.33,18.44,28.52L44.06,24.27h45.2C83.78,10.47,68,.5,49.33.5Z"/><path class="cls-3" d="M360.75,13.44H327.58c-12.51-.17-23.33,8.6-24.85,25.82-1.59,17.92,8.14,25.85,17.18,25.85h31.51l1.73-6.59H331.66c-8.12,0-15.56-7.22-13.22-17.36h36l1.84-6.91h-35.9A18.91,18.91,0,0,1,338.7,20h22.2l1.77-6.57Z"/><path class="cls-3" d="M302.94,13.44H269.76c-12.51-.17-23.32,8.6-24.84,25.82-1.59,17.92,8.14,25.85,17.18,25.85h31.5l1.74-6.59h-21.5c-8.11,0-15.56-7.22-13.21-17.36h36l1.83-6.91H262.53A18.89,18.89,0,0,1,280.88,20h22.21l1.76-6.57Z"/><path class="cls-3" d="M302.94,13.44H269.76c-12.51-.17-23.32,8.6-24.84,25.82-1.59,17.92,8.14,25.85,17.18,25.85h31.5l1.74-6.59h-21.5c-8.11,0-15.56-7.22-13.21-17.36h36l1.83-6.91H262.53A18.89,18.89,0,0,1,280.88,20h22.21l1.76-6.57Z"/><path class="cls-3" d="M177.07,13.42H138.18c-16.42,0-25.89,12.93-28.77,25.84-4.08,18.26,7,25.85,19.41,25.85h25c8,0,13.41-4.09,15-10.51l5.46-20.36-29.34,0-1.94,6.88h12.48l-3.39,12.77c-.93,3.36-1.73,4.53-4.78,4.59H135.12c-7,0-11.78-6.29-8.07-19.26C130.55,27,135.05,20,146.5,20h30.13l1.76-6.59Z"/><path class="cls-3" d="M187.51,13.42,173.66,65.11h16.89l12-45.1h18.86c3.51,0,5.76,2.74,4.56,7.18-.82,3-5.15,7.06-10.78,7.06H203.35l12.56,23.62c2.37,4.34,5.19,7.24,10.14,7.24h12.4l-12.8-24c8.16-.36,16.26-6.06,16.93-16.62.35-5.37-3.31-11.12-12.38-11.1l-42.69,0Z"/></svg>